<svg xmlns="http://www.w3.org/2000/svg" viewBox="0 0 407 103"><defs><style>.a{fill:#fff;stroke:#000;stroke-miterlimit:10;}</style></defs><title>Untitled-2</title><rect class="a" x="2" y="3" width="91" height="29" rx="12" ry="12"/><rect class="a" x="101.5" y="0.5" width="91" height="29" rx="12" ry="12"/><rect class="a" x="0.5" y="37.5" width="91" height="29" rx="12" ry="12"/><rect class="a" x="102.5" y="39.5" width="91" height="29" rx="12" ry="12"/><rect class="a" x="51.5" y="73.5" width="91" height="29" rx="12" ry="12"/><rect class="a" x="213.5" y="73.5" width="91" height="29" rx="12" ry="12"/><rect class="a" x="214.5" y="39.5" width="91" height="29" rx="12" ry="12"/><rect class="a" x="258.5" y="2.5" width="91" height="29" rx="12" ry="12"/><rect class="a" x="315.5" y="37.5" width="91" height="29" rx="12" ry="12"/><rect class="a" x="315.5" y="73.5" width="91" height="29" rx="12" ry="12"/><path d="M38.92,52.52h0l.52-.66,1.7-2h1.27l-2.24,2.39,2.55,3.42H41.46l-2-2.79-.54.6v2.19h-1V47.15h1Z" transform="translate(-13 -33)"/><path d="M48.76,52.72a2.84,2.84,0,0,1-2.89,3.08,2.76,2.76,0,0,1-2.79-3A2.83,2.83,0,0,1,46,49.73,2.75,2.75,0,0,1,48.76,52.72Zm-4.61.06c0,1.27.73,2.23,1.76,2.23s1.77-.95,1.77-2.26c0-1-.49-2.23-1.74-2.23S44.15,51.67,44.15,52.78Z" transform="translate(-13 -33)"/><path d="M50.09,51.43c0-.6,0-1.09-.05-1.57H51l0,.94h0a2,2,0,0,1,1.82-1.07,1.72,1.72,0,0,1,1.65,1.16h0a2.42,2.42,0,0,1,.65-.75,2,2,0,0,1,1.28-.41c.77,0,1.91.5,1.91,2.52v3.42h-1V52.38c0-1.11-.41-1.79-1.26-1.79a1.38,1.38,0,0,0-1.25,1,1.74,1.74,0,0,0-.08.53v3.59h-1V52.19c0-.92-.41-1.6-1.22-1.6a1.43,1.43,0,0,0-1.3,1.06,1.4,1.4,0,0,0-.09.51v3.51h-1Z" transform="translate(-13 -33)"/><path d="M65.35,52.72a2.84,2.84,0,0,1-2.89,3.08,2.76,2.76,0,0,1-2.78-3,2.83,2.83,0,0,1,2.88-3.08A2.74,2.74,0,0,1,65.35,52.72Zm-4.6.06c0,1.27.73,2.23,1.76,2.23s1.76-.95,1.76-2.26c0-1-.49-2.23-1.74-2.23S60.75,51.67,60.75,52.78Zm3.34-5.43-1.46,1.72h-.76l1.06-1.72Z" transform="translate(-13 -33)"/><path d="M66.69,51.67c0-.68,0-1.27,0-1.81h.92l0,1.14h.05a1.74,1.74,0,0,1,1.6-1.27.91.91,0,0,1,.3,0v1a1.79,1.79,0,0,0-.36,0,1.47,1.47,0,0,0-1.41,1.35,2.38,2.38,0,0,0,0,.49v3.1h-1Z" transform="translate(-13 -33)"/><path d="M71.7,52.52h0c.14-.2.34-.45.51-.66l1.71-2h1.27L73,52.25l2.56,3.42H74.25l-2-2.79-.54.6v2.19h-1V47.15h1Z" transform="translate(-13 -33)"/><path d="M79.72,55.67l-.09-.73h0a2.19,2.19,0,0,1-1.78.86,1.65,1.65,0,0,1-1.77-1.67c0-1.4,1.24-2.17,3.49-2.16v-.12a1.19,1.19,0,0,0-1.32-1.34,2.9,2.9,0,0,0-1.51.43l-.24-.69a3.51,3.51,0,0,1,1.9-.52c1.78,0,2.21,1.21,2.21,2.37v2.18a7.44,7.44,0,0,0,.1,1.39Zm-.16-3c-1.15,0-2.46.18-2.46,1.31a.94.94,0,0,0,1,1,1.45,1.45,0,0,0,1.4-1,1,1,0,0,0,.06-.34Z" transform="translate(-13 -33)"/><path d="M137.48,46.19v1.67H139v.81h-1.51V51.8c0,.72.2,1.12.79,1.12a2.15,2.15,0,0,0,.61-.07l.05.79a2.42,2.42,0,0,1-.93.15,1.45,1.45,0,0,1-1.14-.45,2.13,2.13,0,0,1-.41-1.51V48.67h-.9v-.81h.9V46.47Z" transform="translate(-13 -33)"/><path d="M141.22,50.52h0c.14-.2.35-.45.51-.66l1.71-2h1.27l-2.24,2.39,2.55,3.42h-1.28l-2-2.79-.54.6v2.19h-1V45.15h1Z" transform="translate(-13 -33)"/><path d="M149.24,53.67l-.08-.73h0a2.18,2.18,0,0,1-1.78.86,1.65,1.65,0,0,1-1.77-1.67c0-1.4,1.25-2.17,3.49-2.16v-.12a1.19,1.19,0,0,0-1.32-1.34,2.93,2.93,0,0,0-1.51.43l-.24-.69a3.52,3.52,0,0,1,1.91-.52c1.77,0,2.2,1.21,2.2,2.37v2.18a8.4,8.4,0,0,0,.1,1.39Zm-.16-3c-1.15,0-2.46.18-2.46,1.31a.94.94,0,0,0,1,1,1.43,1.43,0,0,0,1.4-1,1,1,0,0,0,.06-.34Z" transform="translate(-13 -33)"/><path d="M151.81,49.43c0-.6,0-1.09-.05-1.57h.94l.06,1h0a2.14,2.14,0,0,1,1.92-1.09c.8,0,2.05.48,2.05,2.47v3.47h-1.06V50.32c0-.94-.34-1.71-1.34-1.71a1.5,1.5,0,0,0-1.41,1.07,1.54,1.54,0,0,0-.08.5v3.49h-1.05Z" transform="translate(-13 -33)"/><path d="M159.51,50.52h0c.14-.2.34-.45.51-.66l1.7-2H163l-2.25,2.39,2.56,3.42h-1.29l-2-2.79-.54.6v2.19h-1V45.15h1Z" transform="translate(-13 -33)"/><path d="M167.53,53.67l-.09-.73h0a2.19,2.19,0,0,1-1.78.86,1.65,1.65,0,0,1-1.77-1.67c0-1.4,1.24-2.17,3.49-2.16v-.12A1.2,1.2,0,0,0,166,48.51a2.9,2.9,0,0,0-1.51.43l-.24-.69a3.51,3.51,0,0,1,1.9-.52c1.78,0,2.21,1.21,2.21,2.37v2.18a7.44,7.44,0,0,0,.1,1.39Zm-.16-3c-1.15,0-2.46.18-2.46,1.31a.94.94,0,0,0,1,1,1.45,1.45,0,0,0,1.4-1,1,1,0,0,0,.06-.34Z" transform="translate(-13 -33)"/><path d="M39.07,84.42c0,.6,0,1.12,0,1.58h-.93l-.06-1h0a2.16,2.16,0,0,1-1.91,1.08c-.92,0-2-.5-2-2.54V80.2h1.06v3.21c0,1.1.33,1.85,1.29,1.85A1.47,1.47,0,0,0,38,83.76V80.2h1.06Z" transform="translate(-13 -33)"/><path d="M41.86,82.86h0c.14-.21.35-.46.51-.66l1.71-2h1.27l-2.24,2.38L45.69,86H44.41l-2-2.78-.54.6V86h-1V77.48h1Z" transform="translate(-13 -33)"/><path d="M46.7,86V82.55l-.81.69v-.83l.81-.7V77.48h1.06V80.9l.85-.73V81l-.85.73V86Z" transform="translate(-13 -33)"/><path d="M52.77,86l-.08-.73h0a2.17,2.17,0,0,1-1.77.86,1.66,1.66,0,0,1-1.78-1.67c0-1.4,1.25-2.17,3.49-2.15v-.12a1.2,1.2,0,0,0-1.32-1.35,2.93,2.93,0,0,0-1.51.43l-.24-.69a3.64,3.64,0,0,1,1.91-.52c1.77,0,2.2,1.21,2.2,2.38v2.17a8.4,8.4,0,0,0,.1,1.39Zm-.15-3c-1.16,0-2.46.18-2.46,1.3a.93.93,0,0,0,1,1,1.45,1.45,0,0,0,1.41-1,1.35,1.35,0,0,0,.06-.34Z" transform="translate(-13 -33)"/><path d="M60.35,77.48v7c0,.52,0,1.1,0,1.5h-.95l0-1h0a2.14,2.14,0,0,1-2,1.14c-1.4,0-2.48-1.19-2.48-2.95,0-1.93,1.19-3.12,2.6-3.12a1.93,1.93,0,0,1,1.75.89h0V77.48ZM59.3,82.56a1.77,1.77,0,0,0,0-.45,1.55,1.55,0,0,0-1.52-1.22c-1.09,0-1.74,1-1.74,2.24s.57,2.15,1.71,2.15A1.59,1.59,0,0,0,59.25,84a1.64,1.64,0,0,0,0-.45Z" transform="translate(-13 -33)"/><path d="M138.21,87.77c0-.6,0-1.1-.05-1.57h.94l.06,1h0a2.14,2.14,0,0,1,1.92-1.09c.8,0,2.05.48,2.05,2.47V92h-1.06V88.65c0-.93-.34-1.71-1.34-1.71A1.5,1.5,0,0,0,139.34,88a1.44,1.44,0,0,0-.08.49V92h-1Z" transform="translate(-13 -33)"/><path d="M148.08,92l-.08-.73h0a2.16,2.16,0,0,1-1.77.86,1.66,1.66,0,0,1-1.78-1.67c0-1.4,1.25-2.17,3.49-2.15v-.12a1.2,1.2,0,0,0-1.32-1.35,2.93,2.93,0,0,0-1.51.43l-.24-.69a3.64,3.64,0,0,1,1.91-.52c1.77,0,2.21,1.21,2.21,2.38v2.17A8.47,8.47,0,0,0,149,92Zm-.15-3c-1.15,0-2.46.18-2.46,1.3a.93.93,0,0,0,1,1,1.45,1.45,0,0,0,1.41-1,1.35,1.35,0,0,0,.06-.34Z" transform="translate(-13 -33)"/><path d="M150.65,88c0-.69,0-1.28-.05-1.81h.93l0,1.13h.05a1.75,1.75,0,0,1,1.61-1.27,1.36,1.36,0,0,1,.3,0v1a1.94,1.94,0,0,0-.36,0,1.49,1.49,0,0,0-1.42,1.35,3.75,3.75,0,0,0,0,.5V92h-1Z" transform="translate(-13 -33)"/><path d="M154,91.39,156.65,88c.25-.31.49-.59.76-.9v0h-3.15V86.2h4.43v.66l-2.59,3.36a11.13,11.13,0,0,1-.75.92v0h3.4V92H154Z" transform="translate(-13 -33)"/><path d="M159.78,86.58a3.64,3.64,0,0,1,1.91-.52c1.78,0,2.21,1.21,2.21,2.38v2.17A8,8,0,0,0,164,92h-.3a2.22,2.22,0,0,0-.46,1.15.53.53,0,0,0,.57.6,1.24,1.24,0,0,0,.55-.12l.17.55a1.69,1.69,0,0,1-1,.29,1,1,0,0,1-1.07-1A2.89,2.89,0,0,1,163,92l-.09-.69h0a2.19,2.19,0,0,1-1.78.86,1.65,1.65,0,0,1-1.77-1.67c0-1.4,1.24-2.17,3.48-2.15v-.12a1.2,1.2,0,0,0-1.31-1.35,3,3,0,0,0-1.52.43Zm3.1,2.46c-1.15,0-2.46.18-2.46,1.3a.94.94,0,0,0,1,1,1.45,1.45,0,0,0,1.4-1,1.35,1.35,0,0,0,.06-.34Z" transform="translate(-13 -33)"/><path d="M170.62,83.48v7c0,.52,0,1.1,0,1.5h-.95l-.05-1h0a2.16,2.16,0,0,1-2,1.14c-1.41,0-2.49-1.19-2.49-2.95,0-1.93,1.19-3.12,2.61-3.12a2,2,0,0,1,1.75.89h0V83.48Zm-1.06,5.08a1.77,1.77,0,0,0-.05-.45A1.54,1.54,0,0,0,168,86.89c-1.09,0-1.74,1-1.74,2.24s.58,2.15,1.72,2.15A1.59,1.59,0,0,0,169.51,90a1.64,1.64,0,0,0,.05-.45Z" transform="translate(-13 -33)"/><path d="M90.13,122.05a2.83,2.83,0,0,1-2.89,3.08,2.76,2.76,0,0,1-2.78-3,2.83,2.83,0,0,1,2.87-3.09A2.75,2.75,0,0,1,90.13,122.05Zm-4.61.06c0,1.27.73,2.23,1.77,2.23s1.76-1,1.76-2.25c0-1-.49-2.24-1.74-2.24S85.52,121,85.52,122.11Z" transform="translate(-13 -33)"/><path d="M91.46,121c0-.69,0-1.27,0-1.81h.92l0,1.13h0A1.75,1.75,0,0,1,94,119.06a1.36,1.36,0,0,1,.3,0v1a1.94,1.94,0,0,0-.36,0,1.49,1.49,0,0,0-1.42,1.35,3.75,3.75,0,0,0,0,.5V125H91.46Z" transform="translate(-13 -33)"/><path d="M100.29,119.2c0,.42-.05.88-.05,1.59v3.37a3.35,3.35,0,0,1-.82,2.65,3.08,3.08,0,0,1-2.11.7,3.73,3.73,0,0,1-1.93-.48l.26-.81a3.25,3.25,0,0,0,1.7.46c1.08,0,1.87-.56,1.87-2V124h0a2.08,2.08,0,0,1-1.85,1,2.6,2.6,0,0,1-2.47-2.83,2.8,2.8,0,0,1,2.62-3.09,1.94,1.94,0,0,1,1.81,1h0l.05-.87Zm-1.09,2.29a1.44,1.44,0,0,0-.06-.48,1.51,1.51,0,0,0-1.47-1.12c-1,0-1.73.85-1.73,2.2,0,1.13.57,2.08,1.71,2.08a1.55,1.55,0,0,0,1.47-1.08,1.81,1.81,0,0,0,.08-.56Z" transform="translate(-13 -33)"/><path d="M105.21,125l-.08-.73h0a2.16,2.16,0,0,1-1.77.86,1.66,1.66,0,0,1-1.78-1.67c0-1.4,1.25-2.17,3.49-2.15v-.12a1.2,1.2,0,0,0-1.32-1.35,2.93,2.93,0,0,0-1.51.43l-.24-.69a3.64,3.64,0,0,1,1.91-.52c1.78,0,2.21,1.21,2.21,2.38v2.17a8.47,8.47,0,0,0,.09,1.39Zm-.15-3c-1.15,0-2.46.18-2.46,1.3a.93.93,0,0,0,1,1,1.45,1.45,0,0,0,1.41-1,1.35,1.35,0,0,0,.06-.34Z" transform="translate(-13 -33)"/><path d="M107.78,120.77c0-.6,0-1.1,0-1.57h.93l.06,1h0a2.14,2.14,0,0,1,1.92-1.09c.81,0,2,.48,2,2.47V125h-1v-3.35c0-.93-.35-1.71-1.34-1.71a1.5,1.5,0,0,0-1.42,1.08,1.45,1.45,0,0,0-.07.49V125h-1.06Z" transform="translate(-13 -33)"/><path d="M115.62,117.56a.62.62,0,0,1-.67.65.63.63,0,0,1-.64-.65.65.65,0,0,1,.66-.66A.63.63,0,0,1,115.62,117.56ZM114.44,125v-5.8h1.06V125Z" transform="translate(-13 -33)"/><path d="M116.59,124.39l2.63-3.42c.25-.31.49-.59.75-.9v0h-3.14v-.85h4.43l0,.65-2.59,3.37c-.24.33-.48.62-.74.92v0h3.39V125h-4.71Z" transform="translate(-13 -33)"/><path d="M122.39,120.77c0-.6,0-1.1,0-1.57h.92l0,.93h0a2,2,0,0,1,1.82-1.07,1.71,1.71,0,0,1,1.64,1.17h0a2.33,2.33,0,0,1,.64-.76,2,2,0,0,1,1.29-.41c.77,0,1.9.51,1.9,2.52V125h-1v-3.29c0-1.11-.4-1.78-1.26-1.78a1.35,1.35,0,0,0-1.24,1,1.61,1.61,0,0,0-.09.52V125h-1v-3.48c0-.92-.41-1.59-1.21-1.59a1.44,1.44,0,0,0-1.31,1,1.49,1.49,0,0,0-.08.52V125h-1Z" transform="translate(-13 -33)"/><path d="M296.92,49.52h0l.52-.66,1.7-2h1.27l-2.24,2.39,2.56,3.42h-1.29l-2-2.79-.54.6v2.19h-1V44.15h1Z" transform="translate(-13 -33)"/><path d="M306.76,49.72a2.84,2.84,0,0,1-2.89,3.08,2.76,2.76,0,0,1-2.79-3A2.84,2.84,0,0,1,304,46.73,2.75,2.75,0,0,1,306.76,49.72Zm-4.61.06c0,1.27.73,2.23,1.76,2.23s1.77-.95,1.77-2.26c0-1-.49-2.23-1.74-2.23S302.15,48.67,302.15,49.78Z" transform="translate(-13 -33)"/><path d="M308.09,48.43c0-.6,0-1.09,0-1.57H309l0,.94h0a2,2,0,0,1,1.82-1.07,1.73,1.73,0,0,1,1.65,1.16h0a2.42,2.42,0,0,1,.65-.75,2,2,0,0,1,1.28-.41c.77,0,1.91.5,1.91,2.52v3.42h-1V49.38c0-1.11-.41-1.79-1.26-1.79a1.38,1.38,0,0,0-1.25,1,1.74,1.74,0,0,0-.08.53v3.59h-1V49.19c0-.92-.41-1.6-1.22-1.6a1.44,1.44,0,0,0-1.3,1.06,1.4,1.4,0,0,0-.09.51v3.51h-1Z" transform="translate(-13 -33)"/><path d="M323.35,49.72a2.84,2.84,0,0,1-2.89,3.08,2.76,2.76,0,0,1-2.78-3,2.83,2.83,0,0,1,2.88-3.08A2.75,2.75,0,0,1,323.35,49.72Zm-4.6.06c0,1.27.73,2.23,1.76,2.23s1.76-.95,1.76-2.26c0-1-.49-2.23-1.74-2.23S318.75,48.67,318.75,49.78Zm3.34-5.43-1.46,1.72h-.76l1.06-1.72Z" transform="translate(-13 -33)"/><path d="M324.69,48.67c0-.68,0-1.27-.05-1.81h.92l0,1.14h0a1.74,1.74,0,0,1,1.6-1.27.91.91,0,0,1,.3,0v1a1.79,1.79,0,0,0-.36,0,1.47,1.47,0,0,0-1.41,1.35,2.38,2.38,0,0,0,0,.49v3.1h-1Z" transform="translate(-13 -33)"/><path d="M329.7,49.52h0c.14-.2.35-.45.51-.66l1.71-2h1.27L331,49.25l2.56,3.42h-1.28l-2-2.79-.54.6v2.19h-1V44.15h1Z" transform="translate(-13 -33)"/><path d="M337.72,52.67l-.09-.73h0a2.19,2.19,0,0,1-1.78.86,1.65,1.65,0,0,1-1.77-1.67c0-1.4,1.24-2.17,3.49-2.16v-.12a1.19,1.19,0,0,0-1.32-1.34,2.93,2.93,0,0,0-1.51.43l-.24-.69a3.51,3.51,0,0,1,1.9-.52c1.78,0,2.21,1.21,2.21,2.37v2.18a8.4,8.4,0,0,0,.1,1.39Zm-.16-3c-1.15,0-2.46.18-2.46,1.31a.94.94,0,0,0,1,1,1.45,1.45,0,0,0,1.4-1,1,1,0,0,0,.06-.34Z" transform="translate(-13 -33)"/><path d="M251.81,83.2v1.66h1.52v.81h-1.52V88.8c0,.72.21,1.12.8,1.12a2.26,2.26,0,0,0,.61-.07l0,.79a2.39,2.39,0,0,1-.93.15,1.46,1.46,0,0,1-1.14-.45,2.13,2.13,0,0,1-.41-1.51V85.67h-.9v-.81h.9V83.47Z" transform="translate(-13 -33)"/><path d="M255.56,87.52h0c.15-.2.35-.45.52-.65l1.7-2h1.27l-2.24,2.39,2.55,3.42H258.1l-2-2.79-.54.6v2.19h-1.05V82.15h1.05Z" transform="translate(-13 -33)"/><path d="M263.57,90.67l-.08-.73h0a2.17,2.17,0,0,1-1.77.86,1.66,1.66,0,0,1-1.78-1.67c0-1.4,1.25-2.17,3.49-2.16v-.12a1.19,1.19,0,0,0-1.32-1.34,2.93,2.93,0,0,0-1.51.43l-.24-.69a3.55,3.55,0,0,1,1.91-.52c1.77,0,2.21,1.21,2.21,2.37v2.18a8.47,8.47,0,0,0,.09,1.39Zm-.15-3c-1.16,0-2.46.17-2.46,1.3a.93.93,0,0,0,1,1,1.45,1.45,0,0,0,1.41-1,1.35,1.35,0,0,0,.06-.34Z" transform="translate(-13 -33)"/><path d="M266.14,86.43c0-.6,0-1.09-.05-1.57H267l.06,1h0A2.14,2.14,0,0,1,269,84.73c.81,0,2.05.48,2.05,2.47v3.47H270V87.32c0-.93-.35-1.71-1.35-1.71a1.5,1.5,0,0,0-1.41,1.08,1.45,1.45,0,0,0-.07.49v3.49h-1.06Z" transform="translate(-13 -33)"/><path d="M273.85,87.52h0c.14-.2.35-.45.52-.65l1.7-2h1.27l-2.24,2.39,2.55,3.42h-1.28l-2-2.79-.54.6v2.19H272.8V82.15h1.05Z" transform="translate(-13 -33)"/><path d="M281.86,90.67l-.08-.73h0a2.18,2.18,0,0,1-1.78.86,1.65,1.65,0,0,1-1.77-1.67c0-1.4,1.25-2.17,3.49-2.16v-.12a1.19,1.19,0,0,0-1.32-1.34,2.93,2.93,0,0,0-1.51.43l-.24-.69a3.55,3.55,0,0,1,1.91-.52c1.77,0,2.2,1.21,2.2,2.37v2.18a8.4,8.4,0,0,0,.1,1.39Zm-.16-3c-1.15,0-2.45.17-2.45,1.3a.93.93,0,0,0,1,1,1.43,1.43,0,0,0,1.4-1,1,1,0,0,0,.06-.34Z" transform="translate(-13 -33)"/><path d="M359.46,84.72a2.84,2.84,0,0,1-2.89,3.08,2.76,2.76,0,0,1-2.78-3,2.83,2.83,0,0,1,2.88-3.08A2.75,2.75,0,0,1,359.46,84.72Zm-4.6.06c0,1.27.73,2.23,1.76,2.23s1.76-1,1.76-2.26c0-1-.49-2.23-1.74-2.23S354.86,83.67,354.86,84.78Z" transform="translate(-13 -33)"/><path d="M360.8,83.67c0-.68,0-1.27-.05-1.81h.92l0,1.14h.05a1.74,1.74,0,0,1,1.6-1.27.91.91,0,0,1,.3,0v1a1.86,1.86,0,0,0-.36,0,1.47,1.47,0,0,0-1.41,1.35,2.46,2.46,0,0,0-.05.49v3.1h-1Z" transform="translate(-13 -33)"/><path d="M369.63,81.86c0,.42-.05.89-.05,1.6v3.37a3.36,3.36,0,0,1-.83,2.65,3.06,3.06,0,0,1-2.11.69,3.66,3.66,0,0,1-1.93-.48l.26-.8a3.31,3.31,0,0,0,1.71.46c1.07,0,1.87-.57,1.87-2v-.65h0a2.05,2.05,0,0,1-1.84,1,2.59,2.59,0,0,1-2.47-2.83,2.79,2.79,0,0,1,2.61-3.08,1.92,1.92,0,0,1,1.81,1h0l.05-.88Zm-1.1,2.29a1.47,1.47,0,0,0-.06-.48A1.51,1.51,0,0,0,367,82.56c-1,0-1.73.85-1.73,2.19,0,1.14.58,2.09,1.72,2.09a1.55,1.55,0,0,0,1.46-1.08,1.81,1.81,0,0,0,.08-.56Z" transform="translate(-13 -33)"/><path d="M374.55,87.67l-.09-.73h0a2.19,2.19,0,0,1-1.78.86,1.65,1.65,0,0,1-1.77-1.67c0-1.4,1.24-2.17,3.49-2.16v-.12a1.19,1.19,0,0,0-1.32-1.34,2.9,2.9,0,0,0-1.51.43l-.24-.69a3.51,3.51,0,0,1,1.9-.52c1.78,0,2.21,1.21,2.21,2.37v2.18a7.44,7.44,0,0,0,.1,1.39Zm-.16-3c-1.15,0-2.46.18-2.46,1.31a.94.94,0,0,0,1,1,1.45,1.45,0,0,0,1.4-1,1,1,0,0,0,.06-.34Z" transform="translate(-13 -33)"/><path d="M377.12,83.43c0-.6,0-1.09-.05-1.57H378l.06,1h0A2.14,2.14,0,0,1,380,81.73c.8,0,2.05.48,2.05,2.47v3.47H381V84.32c0-.93-.35-1.71-1.34-1.71a1.5,1.5,0,0,0-1.42,1.08,1.75,1.75,0,0,0-.07.49v3.49h-1.05Z" transform="translate(-13 -33)"/><path d="M251.4,123.59a2.79,2.79,0,0,0,1.39.42c.77,0,1.13-.39,1.13-.87s-.3-.78-1.08-1.06c-1.05-.37-1.54-1-1.54-1.65a1.8,1.8,0,0,1,2-1.7,2.9,2.9,0,0,1,1.42.36l-.26.77a2.22,2.22,0,0,0-1.19-.34c-.62,0-1,.36-1,.79s.35.7,1.1,1c1,.38,1.53.88,1.53,1.75,0,1-.79,1.74-2.17,1.74a3.34,3.34,0,0,1-1.64-.4Z" transform="translate(-13 -33)"/><path d="M256.68,118.86l1.27,3.43c.13.39.28.84.37,1.19h0c.1-.35.22-.79.37-1.21l1.15-3.41H261L259.4,123c-.75,2-1.27,3-2,3.63a2.87,2.87,0,0,1-1.3.69l-.26-.89a2.65,2.65,0,0,0,.92-.52,3.09,3.09,0,0,0,.89-1.17.76.76,0,0,0,.09-.25.94.94,0,0,0-.08-.28l-2.14-5.35Z" transform="translate(-13 -33)"/><path d="M261.73,123.59a2.79,2.79,0,0,0,1.39.42c.77,0,1.13-.39,1.13-.87s-.3-.78-1.08-1.06c-1-.37-1.54-1-1.54-1.65a1.8,1.8,0,0,1,2-1.7,2.87,2.87,0,0,1,1.42.36l-.26.77a2.22,2.22,0,0,0-1.19-.34c-.62,0-1,.36-1,.79s.35.7,1.11,1c1,.38,1.52.88,1.52,1.75,0,1-.79,1.74-2.17,1.74a3.3,3.3,0,0,1-1.63-.4Z" transform="translate(-13 -33)"/><path d="M267.9,117.2v1.66h1.51v.81H267.9v3.13c0,.72.2,1.12.79,1.12a2.21,2.21,0,0,0,.61-.07l.05.79a2.44,2.44,0,0,1-.94.15,1.47,1.47,0,0,1-1.14-.45,2.13,2.13,0,0,1-.4-1.51v-3.16H266v-.81h.9v-1.39Z" transform="translate(-13 -33)"/><path d="M271.11,122a1.86,1.86,0,0,0,2,2,3.76,3.76,0,0,0,1.61-.3l.18.76a4.84,4.84,0,0,1-1.93.36,2.69,2.69,0,0,1-2.85-2.93c0-1.75,1-3.13,2.72-3.13a2.46,2.46,0,0,1,2.4,2.73,4.36,4.36,0,0,1,0,.5Zm3.1-.76a1.5,1.5,0,0,0-1.46-1.71,1.74,1.74,0,0,0-1.62,1.71Z" transform="translate(-13 -33)"/><path d="M276.54,120.43c0-.6,0-1.09-.05-1.57h.92l0,.94h0a2,2,0,0,1,1.82-1.07,1.71,1.71,0,0,1,1.64,1.16h0a2.42,2.42,0,0,1,.65-.75,1.93,1.93,0,0,1,1.28-.41c.77,0,1.91.5,1.91,2.52v3.42h-1v-3.29c0-1.11-.4-1.79-1.25-1.79a1.38,1.38,0,0,0-1.25,1,1.73,1.73,0,0,0-.09.53v3.59h-1v-3.48c0-.92-.41-1.6-1.21-1.6a1.56,1.56,0,0,0-1.39,1.58v3.5h-1Z" transform="translate(-13 -33)"/><path d="M355.8,122.72a2.84,2.84,0,0,1-2.89,3.08,2.76,2.76,0,0,1-2.79-3,2.83,2.83,0,0,1,2.88-3.08A2.75,2.75,0,0,1,355.8,122.72Zm-4.61.06c0,1.27.73,2.23,1.76,2.23s1.77-1,1.77-2.26c0-1-.5-2.23-1.74-2.23S351.19,121.67,351.19,122.78Z" transform="translate(-13 -33)"/><path d="M357.13,121.67c0-.68,0-1.27-.05-1.81H358l0,1.14h0a1.74,1.74,0,0,1,1.61-1.27,1,1,0,0,1,.3,0v1a1.94,1.94,0,0,0-.36,0,1.48,1.48,0,0,0-1.42,1.35,3.37,3.37,0,0,0-.05.49v3.1h-1Z" transform="translate(-13 -33)"/><path d="M366,119.86c0,.42,0,.89,0,1.6v3.37a3.32,3.32,0,0,1-.83,2.65,3,3,0,0,1-2.11.69,3.68,3.68,0,0,1-1.93-.48l.27-.8a3.25,3.25,0,0,0,1.7.46c1.08,0,1.87-.57,1.87-2v-.65h0a2.08,2.08,0,0,1-1.85,1,2.59,2.59,0,0,1-2.47-2.83,2.79,2.79,0,0,1,2.61-3.08,1.92,1.92,0,0,1,1.81,1h0l.05-.88Zm-1.09,2.29a1.47,1.47,0,0,0-.06-.48,1.52,1.52,0,0,0-1.48-1.11c-1,0-1.72.85-1.72,2.19,0,1.14.57,2.09,1.71,2.09a1.53,1.53,0,0,0,1.46-1.08,1.82,1.82,0,0,0,.09-.56Z" transform="translate(-13 -33)"/><path d="M370.88,125.67l-.08-.73h0a2.17,2.17,0,0,1-1.77.86,1.66,1.66,0,0,1-1.78-1.67c0-1.4,1.25-2.17,3.49-2.16v-.12a1.19,1.19,0,0,0-1.32-1.34,2.93,2.93,0,0,0-1.51.43l-.24-.69a3.55,3.55,0,0,1,1.91-.52c1.77,0,2.2,1.21,2.2,2.37v2.18a8.4,8.4,0,0,0,.1,1.39Zm-.16-3c-1.15,0-2.45.17-2.45,1.3a.93.93,0,0,0,1,1,1.45,1.45,0,0,0,1.41-1,1.33,1.33,0,0,0,.05-.34Z" transform="translate(-13 -33)"/><path d="M373.45,121.43c0-.6,0-1.09-.05-1.57h.94l.06,1h0a2.14,2.14,0,0,1,1.92-1.09c.8,0,2.05.48,2.05,2.47v3.47h-1.05v-3.35c0-.93-.35-1.71-1.35-1.71a1.5,1.5,0,0,0-1.41,1.08,1.45,1.45,0,0,0-.07.49v3.49h-1.06Z" transform="translate(-13 -33)"/><path d="M381.29,118.23a.63.63,0,0,1-.68.65.63.63,0,0,1-.63-.65.64.64,0,0,1,.66-.66A.63.63,0,0,1,381.29,118.23Zm-1.18,7.44v-5.81h1.06v5.81Z" transform="translate(-13 -33)"/><path d="M382.26,125.06l2.63-3.42c.25-.31.49-.59.75-.9v0H382.5v-.85h4.42v.66l-2.59,3.37c-.24.33-.48.61-.74.91v0H387v.84h-4.71Z" transform="translate(-13 -33)"/><path d="M388.05,121.43c0-.6,0-1.09,0-1.57h.92l.05.94h0a2,2,0,0,1,1.83-1.07,1.71,1.71,0,0,1,1.64,1.16h0a2.42,2.42,0,0,1,.65-.75,2,2,0,0,1,1.28-.41c.77,0,1.91.5,1.91,2.52v3.42h-1v-3.29c0-1.11-.41-1.79-1.26-1.79a1.38,1.38,0,0,0-1.25,1,2.11,2.11,0,0,0-.08.53v3.59h-1v-3.48c0-.92-.41-1.6-1.21-1.6a1.56,1.56,0,0,0-1.39,1.58v3.5h-1Z" transform="translate(-13 -33)"/></svg>