<svg xmlns="http://www.w3.org/2000/svg" viewBox="0 0 503.04 420.58"><defs><style>.a{fill:none;}.a,.b{stroke:#000;stroke-miterlimit:10;}.b{fill:#dddac5;}.c{fill:#2478d3;}</style></defs><title>Untitled-7</title><path class="a" d="M127.33,58.33c-1-.11-2.33-.25-3,.5-1,1.1.49,2.84-.25,4.75-.2.53-.69,1.38-3.5,2.75s-5.24,2-10.5,3c-1.78.36-3.31.09-5.25,1-1.14.55-2.34,1.12-2.75,2.25-.58,1.64,1,2.9,3,6.75s1.37,4.58,2.75,6.25c1.94,2.33,4.73,2.89,8,3.5,4.8.9,9.77.19,19.5-1.25,3.85-.57,5.16-.85,6.75-1.75,4.11-2.3,3.46-4.91,7-6.75s5.18.16,10.75-2c2-.78,4-1.55,4.25-3,.34-2.16-3.72-3.22-4.25-6.75a7.24,7.24,0,0,1,1.75-5.25c2.16-2.58,4.35-1.48,9.25-4a16.37,16.37,0,0,0,7-6.25c.36-.62,2.11-3.65,1.25-4.5s-4.53,2.05-11,5.25c-2.65,1.32-7.43,2.88-17,6a40.7,40.7,0,0,1-11.5,2.5c-2.94.15-4.4.22-6.25-.5C131.11,60,130,58.63,127.33,58.33Z" transform="translate(213.17 -7.27)"/><path class="a" d="M211.08,7.58c1.78,2.23,4,5,6.5,8.25,5.25,6.76,6.09,8.08,6.75,10.25.56,1.85,2.25,7.39,0,11a11.8,11.8,0,0,0-1.75,3.75,11.64,11.64,0,0,0-.25,3.5,62.59,62.59,0,0,0,1.25,9.25c1.1,5.1,1.28,4.58,1.5,6.5.45,3.87-.39,5.11-.5,8.5s1,6.73,3.25,13.5,3.33,8.16,2.5,10.5c-.68,2-1.63,1.63-5.25,6a34.51,34.51,0,0,0-4.75,7,18.08,18.08,0,0,0-2.25,6.5c-.38,3.82,1.18,4.69.25,7.75a11.55,11.55,0,0,1-3,4.75c-1.52,1.44-2.07,1.09-3,2.25-1.49,1.88-.52,3.36-1.5,6.5-.24.77-.45,1.18-3.25,5.5-3.38,5.23-3.28,5-3.75,5.75a28.78,28.78,0,0,0-3.5,10.5c-1,6.6.87,9.22-1.5,12.25-1.37,1.76-2.32,1.31-4,3.25-2.07,2.41-2.11,4.85-2.75,9.25-1.19,8.2-2.18,7.51-3.25,15.75-.59,4.57-.6,7.21-.75,9.25-1.2,16.52-14.05,29.94-16.75,32.75-6.34,6.63-13.64,11.41-18.75,12.25a39.46,39.46,0,0,1-9.25.25,7.09,7.09,0,0,0-3.25-.5c-.9.09-1,.32-1.08.42-.13.35.3.9.79,1.17s.64.16,2,.12a5.36,5.36,0,0,1,1.75.08c.1,0,1.19.39,1.25,1,.08.77-1.73,1.59-2.79,1.92s-3.18,1-4.87-.08c-.71-.46-1-1-2.71-2.25-.4-.29-.91-.65-1.29-.46a.75.75,0,0,0-.38.79c.17.76,1.85.64,2,1.29.12.5-.72,1.13-1.29,1.42a3.77,3.77,0,0,1-4.37-.63,2.7,2.7,0,0,1-.67-1.33c-.1-.53,0-.91.46-2.88.17-.75.25-1.13.12-1.37a1.8,1.8,0,0,0-1.87-.58c-.68.13-1.11.61-2,1.58-.67.76-1.34,1.52-1.13,1.87s.72,0,1.63.34c.3.11.94.35,1,.79s-.54,1.21-1.21,1.54c-1.7.84-2.86-1-5.21-.46-.29.08-1.1.41-2.7,1.09-1.21.5-1.68.73-2,.5s-.47-1.31-.25-2a3.83,3.83,0,0,1,2.34-2c.85-.37.92-.15,2-.55a11.68,11.68,0,0,0,2.37-1.33c1.1-.73,1.15-.9,1.88-1.29a9.38,9.38,0,0,1,2.08-.79c2.71-.78,4.07-1.17,5.08-.92A13.69,13.69,0,0,1,134,248c1,.57,1.42.88,2,.79s1-.67,1.83-.63c.56,0,.81.3,1.09.13a1,1,0,0,0,.21-1.13c-.26-.48-.95-.43-2.42-.62a16.94,16.94,0,0,1-3.33-.67,8.87,8.87,0,0,0-2.63-.79c-.43,0-.66,0-1.42,0s-1.18-.13-1.66-.17a7.32,7.32,0,0,0-2.46.42c-2.81.93-7,6-12.13,7.63-1,.32-4.81,1.33-7.08-.55-.92-.75-.69-1.24-1.75-3a15,15,0,0,0-7.75-5.8c-.53-.16-2.27-.68-2.62-.12s.54,1.6.79,1.92c.72.94,1.19,1,1.71,1.62a4.4,4.4,0,0,1,.66,3.17,5.34,5.34,0,0,1-2.83,4.21,8.91,8.91,0,0,1-2.88.41c-2.34.17-4.44.31-4.5,0-.09-.5,5.29-2.13,5.34-2s-1,.64-1.34.34.5-1.71,0-2.34-2.81.4-3.16-.16,1.8-1.75,1.83-3.67a4.85,4.85,0,0,0-1.5-3c-1-1.29-1.66-1.38-2.67-2.33-2-1.92-1.41-3.32-3-5.17A8,8,0,0,0,77,233.83c-4-.23-5.36,3.54-8.83,2.84-2-.4-2.27-1.75-4.34-1.67-1.47.06-1.83.76-4,1-1.58.17-1.68-.17-3.16,0a7.66,7.66,0,0,0-4.17,1.5c-2,1.76-1.2,4.13-2.67,4.67-1.15.42-1.81-1-4.83-1.5-.67-.11-.48,0-2.83-.17a19.89,19.89,0,0,1-4.5-.5c-2.32-1-2.74-3.36-3.67-3.17-.39.08-.9.62-1.17,3a4.45,4.45,0,0,0-3.66-1.33,4,4,0,0,0-2.5,1.5c-1.2,1.68,0,3.2-1,4.5s-2.38.22-4.17,1.5-1.06,2.63-2.83,4c-1.6,1.24-2.29.2-4.5,1.5-1.95,1.14-2.47,2.57-4.17,2.67a3.53,3.53,0,0,1-1.67-.34" transform="translate(213.17 -7.27)"/><path class="a" d="M152.67,427.5a22.14,22.14,0,0,1-3.5-4.5,26.33,26.33,0,0,1-2.84-7.83c-1.19-4.83-1.81-7.34-1.33-10.67s1.45-3.56,1.33-6.17c0-.62-.2-3.15-2.83-7.16-1.65-2.51-2.59-3.06-6.83-7.34-4.5-4.53-6.76-6.83-7.67-8.83a43.89,43.89,0,0,1-2.83-7.67c-.41-1.83-.58-3.43-1.84-4.16s-2.52.26-3.83-.5-1.11-2.3-1.83-4.84a24.69,24.69,0,0,0-3.84-7.33c-2.65-3.95-4-4.14-4-6,0-2.37,2.19-3.22,2-5.83-.08-1.21-.6-1.8-1.66-3.5-2.58-4.16-1.71-4.24-4.34-8.67-1.41-2.39-2.14-3.16-4-6.5-1.55-2.79-1.88-3.76-1.66-4.83.38-1.86,2-1.94,3.5-4.34.87-1.36,1.13-2.85,1.66-5.83.58-3.25.92-5.14.67-7.67a22.59,22.59,0,0,0-2.33-7.66c-1.92-4-3.92-5.7-3.17-7a2.28,2.28,0,0,1,2.5-.84c1.82.59,2,3.86,2.67,7.5,1.16,5.94,2.28,4.76,5,13.84,1.4,4.69,2.3,7.69,2.66,12,.43,5-.39,5.78.5,8.66,1.19,3.82,3.18,4.28,7.5,9.5,3.6,4.34,6.82,8.22,8.17,13.84.91,3.76.12,4.77,1.5,10.16,1,3.94,1.51,5.91,3,8,3.24,4.56,6.4,3.16,10,7.84,2.46,3.18,1.21,4.12,4.17,7.66,2.35,2.83,3.79,3,5.16,5.84,1.15,2.36.76,3.47,2.17,4.83,1.6,1.54,2.7.69,4.83,2.17,2.64,1.83,2.35,4.09,4.34,4.83s4.54-.95,5.33-1.5c1.8-1.26,1.59-2.1,4.5-5.33,1.9-2.1,2.21-2,2.67-3,.61-1.34.33-2.14,0-6.34a31.84,31.84,0,0,1-.17-6.5,19.06,19.06,0,0,1,1.33-4.83c1.82-4.28,3.69-4.25,5-7.67,1-2.63-.09-2.66.84-7.33.8-4.05,1.59-3.87,2.33-8,.42-2.34.7-5.43.83-6.83a19.27,19.27,0,0,1,.67-4.5c.61-2,1.11-2.06,1.67-4,.68-2.36.17-3,.83-4.67.76-1.92,2.56-1.84,2.83-3.5.16-.94-.29-1.19,0-2.17a2.92,2.92,0,0,1,2.17-2.16,2.09,2.09,0,0,1,1.83.66c.58.72.24,1.58-.33,4.84-.29,1.63-.43,2.45-.5,3.33-.16,2,.07,2.39-.17,4.17a18.6,18.6,0,0,1-.66,3c-.46,1.47-.75,1.73-1.34,3.33a17.88,17.88,0,0,0-1,3.5c-.19,1.28,0,1.2,0,4.83a14.11,14.11,0,0,1-.33,3.84c-.17.64-.4,1.28-.67,2-.5,1.37-.67,1.59-1,2.5a17.42,17.42,0,0,0-.83,3.33,20.48,20.48,0,0,0-.17,3.5,29.89,29.89,0,0,1-.33,5.33c-.27,1.38-.51,1.35-3.17,6.67-2.33,4.69-1.19,2.81-2.33,5s-2,3.59-1.5,4.33c.36.5,1.19.5,1.67.5a4.77,4.77,0,0,0,2.66-1c1.83-1.19,1.78-2,2.84-2.16a3.6,3.6,0,0,1,2.66.83c.83.7.71,1.32,1.67,2a4.69,4.69,0,0,0,1.67.67,5.58,5.58,0,0,0,3.16.16c1.33-.42,1.43-1.31,2.5-1.33.68,0,.69.34,1.84.67,1.31.37,1.76,0,3,.33a6.18,6.18,0,0,1,2.16,1,7.33,7.33,0,0,1,1,5.33,23.81,23.81,0,0,0-1,3.34,5.47,5.47,0,0,0,0,3c.6,1.45,1.87,1.2,3.67,3a7.67,7.67,0,0,1,2.17,3.66,7.21,7.21,0,0,1,0,3.17l2,2.83c1.17,1.68,1.75,2.52,2.16,3.17a38.28,38.28,0,0,1,2.67,5.17c1.28,2.81,1.31,3.38,2.33,5.33a29.76,29.76,0,0,0,2.17,3.5" transform="translate(213.17 -7.27)"/><path class="b" d="M149.67,250.67c-.66,1.51.41,3.58,2.66,6.33a45.67,45.67,0,0,0,11.84,10c6.52,4.09,10.23,9.67,17.66,20.83,6.22,9.34,9.32,14,9.17,18.34a60.37,60.37,0,0,0,.5,14.5s.7,4,1.67,4c.69,0,.67-2.67,2.66-3.84.27-.15,1.14-.66,1.67-.33.91.57-.29,2.9.67,3.83.71.7,2.19.19,3.83-.33,6.25-2,5.71-1.18,7.83-2.17,2.91-1.34,4.76-3.41,8.34-7.5a65.78,65.78,0,0,0,7.5-10.16A45.66,45.66,0,0,0,231,292.83c1.47-5.05.78-6.61,2.83-12,1.07-2.79,1.39-2.71,2.67-6.16,1.14-3.07,1.42-4.56,2.83-9.17,1.5-4.87,1.65-4.72,2.17-6.67,2.15-8-.54-9.77,1.17-16.83,1.16-4.82,2.31-3.54,4.83-11.17C249,226.34,249,224.54,251,220a59.9,59.9,0,0,1,3.5-6.83c2.51-4.2,2.91-3.69,4.5-6.67,1.13-2.12.92-2.35,3.83-10.17,1.45-3.87,1.43-3.62,1.67-4.5,1.13-4.13.59-6.18,1-10.33a36,36,0,0,1,2-8.83c.79-2.1,1.83-4,7.17-10.84,6.72-8.55,6.94-7.85,9-11.33a40.69,40.69,0,0,0,4.83-12.17,40.09,40.09,0,0,0,.83-7.33c.09-3.71.17-7.48-1.5-11.67a24.28,24.28,0,0,0-7.5-9.66,37.28,37.28,0,0,0-23.66-8.34c-9.09.43-15.46,5.14-18.34,7.34-5.71,4.35-8.45,8.92-13.16,17-8.09,13.84-12.14,20.77-14.17,29.5-.58,2.47-1.7,8-5.83,10.66a24.89,24.89,0,0,1-6.34,2.67c-2.77.7-3.13.21-4.16.83-2.61,1.59-1.32,5.35-2.84,12.5-1.28,6.09-2.82,6.2-3,11-.13,3.64.72,4.35,0,7.25-1,4-3.3,5.52-2.5,7.5.65,1.6,2.36,1.12,4,3s1.63,4.58,1.5,8c-.07,2-.21,5.88-2.5,9.25-.36.54-.59.79-2,2.75-1.68,2.36-2.53,3.54-2.75,4-1.52,3.19-.12,4.66-1.75,6.5a5.77,5.77,0,0,1-3.5,1.75c-1.91.19-2.48-.9-3.5-.5-1.91.75-.58,4.84-3,6.75a5.25,5.25,0,0,1-5,.5c-2.37-1-2-3.11-4-4-1.57-.68-2.53.27-8.75,2.5C151.11,249.51,150.12,249.62,149.67,250.67Z" transform="translate(213.17 -7.27)"/><path d="M150.65,211.55h1V217c0,2.14-1.05,2.8-2.44,2.8a3.36,3.36,0,0,1-1.12-.19l.16-.85a2.5,2.5,0,0,0,.87.16c.94,0,1.49-.42,1.49-2Z" transform="translate(213.17 -7.27)"/><path d="M154,216.92a1.85,1.85,0,0,0,2,2,3.93,3.93,0,0,0,1.6-.29l.18.75a4.63,4.63,0,0,1-1.93.36,2.7,2.7,0,0,1-2.85-2.93c0-1.75,1-3.13,2.72-3.13a2.46,2.46,0,0,1,2.4,2.74,2.81,2.81,0,0,1,0,.49Zm3.09-.76a1.5,1.5,0,0,0-1.46-1.71,1.74,1.74,0,0,0-1.62,1.71Z" transform="translate(213.17 -7.27)"/><path d="M159.41,215.64c0-.69,0-1.27,0-1.81h.93l0,1.13h.05a1.75,1.75,0,0,1,1.61-1.27,1.36,1.36,0,0,1,.3,0v1a1.94,1.94,0,0,0-.36,0A1.48,1.48,0,0,0,160.5,216a3.68,3.68,0,0,0-.05.5v3.09h-1Z" transform="translate(213.17 -7.27)"/><path d="M168.47,216.68a2.83,2.83,0,0,1-2.89,3.08,2.76,2.76,0,0,1-2.79-3,2.84,2.84,0,0,1,2.88-3.09A2.75,2.75,0,0,1,168.47,216.68Zm-4.61.06c0,1.27.73,2.23,1.77,2.23s1.76-.95,1.76-2.25c0-1-.49-2.23-1.74-2.23S163.86,215.64,163.86,216.74Z" transform="translate(213.17 -7.27)"/><path d="M169.06,219l2.63-3.42.75-.9v0H169.3v-.85h4.42v.66l-2.59,3.37c-.24.32-.48.61-.74.91v0h3.39v.84h-4.71Z" transform="translate(213.17 -7.27)"/><path d="M180,216.68a2.83,2.83,0,0,1-2.89,3.08,2.76,2.76,0,0,1-2.78-3,2.84,2.84,0,0,1,2.88-3.09A2.74,2.74,0,0,1,180,216.68Zm-4.6.06c0,1.27.73,2.23,1.76,2.23s1.76-.95,1.76-2.25c0-1-.49-2.23-1.73-2.23S175.42,215.64,175.42,216.74Z" transform="translate(213.17 -7.27)"/><path d="M181.36,211.12h1v8.51h-1Z" transform="translate(213.17 -7.27)"/><path d="M185.37,212.19a.63.63,0,0,1-.68.65.63.63,0,0,1-.63-.65.64.64,0,0,1,.66-.66A.63.63,0,0,1,185.37,212.19Zm-1.18,7.44v-5.8h1.06v5.8Z" transform="translate(213.17 -7.27)"/><path d="M187,215.4c0-.6,0-1.09-.05-1.57h.92l0,.93h0a2,2,0,0,1,1.82-1.07,1.71,1.71,0,0,1,1.64,1.17h0a2.35,2.35,0,0,1,.65-.76,2,2,0,0,1,1.28-.41c.77,0,1.91.51,1.91,2.52v3.42h-1v-3.29c0-1.11-.4-1.78-1.25-1.78a1.36,1.36,0,0,0-1.25,1,1.61,1.61,0,0,0-.09.52v3.59h-1v-3.48c0-.92-.41-1.59-1.21-1.59a1.44,1.44,0,0,0-1.31,1.05,1.49,1.49,0,0,0-.08.52v3.5h-1Z" transform="translate(213.17 -7.27)"/><path d="M200.22,219.63l-.08-.73h0a2.17,2.17,0,0,1-1.77.86,1.66,1.66,0,0,1-1.78-1.66c0-1.41,1.25-2.18,3.49-2.16v-.12a1.2,1.2,0,0,0-1.32-1.35,2.93,2.93,0,0,0-1.51.43l-.24-.69a3.64,3.64,0,0,1,1.91-.52c1.77,0,2.2,1.21,2.2,2.38v2.17a8.4,8.4,0,0,0,.1,1.39Zm-.16-3c-1.15,0-2.45.18-2.45,1.3a.93.93,0,0,0,1,1,1.45,1.45,0,0,0,1.41-1,1.32,1.32,0,0,0,.05-.33Z" transform="translate(213.17 -7.27)"/><path d="M232.55,169,233,168l4.9,2.3c1.94.9,2.09,2.14,1.5,3.4a3.23,3.23,0,0,1-.64.93l-.71-.5a2.28,2.28,0,0,0,.51-.73c.4-.85.25-1.52-1.18-2.2Z" transform="translate(213.17 -7.27)"/><path d="M240.43,163.81a2.84,2.84,0,0,1,1.7,3.88,2.76,2.76,0,0,1-3.84,1.38,2.84,2.84,0,0,1-1.7-3.86A2.75,2.75,0,0,1,240.43,163.81Zm-1.75,4.26a2,2,0,0,0,2.74-.74c.4-.93-.17-2-1.38-2.51-.9-.38-2.24-.42-2.73.72S237.66,167.64,238.68,168.07Z" transform="translate(213.17 -7.27)"/><path d="M239.94,162.17c-.63-.25-1.19-.45-1.7-.62l.33-.86,1.08.39,0-.05a1.74,1.74,0,0,1-.6-2,.92.92,0,0,1,.14-.26l.93.36a2.32,2.32,0,0,0-.17.32,1.49,1.49,0,0,0,.75,1.81,3,3,0,0,0,.44.23l2.88,1.13-.38,1Z" transform="translate(213.17 -7.27)"/><path d="M238.83,152.4l6.57,2.48c.49.19,1,.38,1.42.49l-.33.89-1-.31v0a2.16,2.16,0,0,1,.37,2.25c-.5,1.32-2,1.91-3.64,1.29-1.82-.68-2.5-2.22-2-3.54a1.93,1.93,0,0,1,1.45-1.33v0l-3.25-1.23Zm4.38,2.79a2.11,2.11,0,0,0-.43-.12,1.56,1.56,0,0,0-1.69,1c-.38,1,.29,2,1.49,2.42s2.21.22,2.62-.85a1.68,1.68,0,0,0-1-2.1Z" transform="translate(213.17 -7.27)"/><path d="M248.56,150.79l-.71-.18v0a2.21,2.21,0,0,1,.17,2,1.66,1.66,0,0,1-2.19,1.06c-1.31-.5-1.59-1.94-.77-4l-.12,0a1.2,1.2,0,0,0-1.72.76,2.91,2.91,0,0,0-.14,1.56l-.73,0a3.63,3.63,0,0,1,.2-2,2,2,0,0,1,3-1.21l2,.78a7.8,7.8,0,0,0,1.33.4Zm-2.82-.91c-.43,1.06-.71,2.36.34,2.76a.94.94,0,0,0,1.3-.57,1.44,1.44,0,0,0-.41-1.66,1,1,0,0,0-.29-.17Z" transform="translate(213.17 -7.27)"/><path d="M245.56,146.82c-.56-.23-1-.41-1.47-.56l.36-.86.9.31v0a2.15,2.15,0,0,1-.27-2.19c.31-.75,1.23-1.71,3.07-.95l3.21,1.33-.41,1-3.09-1.29c-.86-.36-1.72-.34-2.1.58a1.51,1.51,0,0,0,.45,1.73,1.74,1.74,0,0,0,.43.25l3.22,1.34-.4,1Z" transform="translate(213.17 -7.27)"/><path class="c" d="M-208.17,12v-.67a2.53,2.53,0,0,0-2.5-2.5,2.55,2.55,0,0,0-2.5,2.5V12a2.53,2.53,0,0,0,2.5,2.5,2.54,2.54,0,0,0,2.5-2.5Z" transform="translate(213.17 -7.27)"/><path class="c" d="M248.83,178.74c-2.79-4,5.53-13,7.76-16,5.2-7.19,7.88-15.75,12.24-23.44,1.58-2.8-2.73-5.32-4.32-2.52-3.31,5.84-5.64,12.14-8.79,18.06a84.61,84.61,0,0,1-6,8.9c-3.09,4.36-9.05,12.06-5.2,17.56,1.83,2.62,6.17.12,4.32-2.52Z" transform="translate(213.17 -7.27)"/></svg>