<?xml version="1.0" encoding="UTF-8" standalone="no"?>
<!DOCTYPE svg PUBLIC "-//W3C//DTD SVG 1.1//EN" "http://www.w3.org/Graphics/SVG/1.1/DTD/svg11.dtd">
<svg xmlns="http://www.w3.org/2000/svg" xmlns:xlink="http://www.w3.org/1999/xlink" version="1.1" width="595.32pt" height="841.92pt" viewBox="0 0 595.32 841.92">
<g enable-background="new">
<g>
<g id="Layer-1" data-name="P">
<clipPath id="cp0">
<path transform="matrix(1,0,0,-1,0,841.92)" d="M .000008871 0 L 595.32 0 L 595.32 841.92 L .000008871 841.92 Z " fill-rule="evenodd"/>
</clipPath>
<g clip-path="url(#cp0)">
<symbol id="font_1_277">
<path d="M .2006836 0 L .10107422 0 L .10107422 .6015625 L 0 .5395508 L 0 .6425781 L .10107422 .70996096 L .2006836 .70996096 L .2006836 0 Z "/>
</symbol>
<symbol id="font_1_292">
<path d="M 0 .10449219 L .10449219 .10449219 L .10449219 0 L 0 0 L 0 .10449219 Z "/>
</symbol>
<symbol id="font_1_1">
<path d="M 0 0 Z "/>
</symbol>
<use xlink:href="#font_1_277" transform="matrix(12,0,0,-12,36.527345,47.940004)"/>
<use xlink:href="#font_1_292" transform="matrix(12,0,0,-12,40.72842,47.940004)"/>
<use xlink:href="#font_1_1" transform="matrix(12,0,0,-12,42.719999,47.940004)"/>
</g>
<clipPath id="cp2">
<path transform="matrix(1,0,0,-1,0,841.92)" d="M .000008871 0 L 595.32 0 L 595.32 841.92 L .000008871 841.92 Z " fill-rule="evenodd"/>
</clipPath>
<g clip-path="url(#cp2)">
<symbol id="font_3_43">
<path d="M 0 .70947268 L .09033203 .70947268 L .4375 .16064453 L .42578126 .14794922 L .42578126 .70947268 L .52441409 .70947268 L .52441409 0 L .43310548 0 L .08691406 .54052737 L .09863281 .55322268 L .09863281 0 L 0 0 L 0 .70947268 Z "/>
</symbol>
<symbol id="font_3_82">
<path d="M .31054688 .32861329 C .31054688 .3618164 .30159507 .38753257 .2836914 .40576173 C .26611329 .4243164 .24104817 .43359376 .2084961 .43359376 C .1883138 .43359376 .16845703 .4305013 .14892578 .4243164 C .12972005 .4181315 .11263021 .40950523 .09765625 .3984375 L .024902344 .4482422 C .044108076 .47135417 .06933594 .4892578 .10058594 .5019531 C .13216146 .51497396 .16715496 .5214844 .2055664 .5214844 C .2475586 .5214844 .28352867 .5139974 .31347657 .49902345 C .34342448 .484375 .36621095 .46289063 .38183595 .4345703 C .39746095 .40657554 .40527345 .37272135 .40527345 .3330078 L .40527345 .0073242189 L .31054688 .0073242189 L .31054688 .32861329 M .18652344 0 C .12402344 0 .077311199 .012858073 .04638672 .03857422 C .015462239 .06461588 0 .104003909 0 .15673828 C 0 .20686849 .014160156 .24446614 .04248047 .26953126 C .07080078 .29459635 .11360677 .3071289 .17089844 .3071289 L .3149414 .3071289 L .32177735 .22705078 L .17138672 .22705078 C .14534505 .22705078 .1258138 .2211914 .11279297 .20947266 C .100097659 .19807942 .09375 .1805013 .09375 .15673828 C .09375 .13102214 .10221354 .111979167 .119140628 .099609378 C .13639324 .087239589 .16243489 .08105469 .19726563 .08105469 C .23535156 .08105469 .26367188 .085123699 .28222657 .09326172 C .30110679 .10139974 .31054688 .114095058 .31054688 .13134766 L .32080079 .060058595 C .31201173 .04638672 .30110679 .03515625 .28808595 .026367188 C .27539063 .017578125 .26057945 .011067708 .24365235 .0068359377 C .22672527 .0022786458 .2076823 0 .18652344 0 Z "/>
</symbol>
<symbol id="font_3_d5">
<path d="M 0 .7128906 L .099609378 .7128906 L .099609378 0 L 0 0 L 0 .7128906 M .22705078 .19873047 C .19547527 .19873047 .16796875 .20621746 .14453125 .2211914 C .12109375 .23649089 .10384115 .25797526 .09277344 .28564454 L .099609378 .39160157 C .099609378 .36979167 .103515628 .35123698 .111328128 .3359375 C .119140628 .32063804 .1303711 .30891929 .14501953 .30078126 C .15999349 .29264323 .17805989 .28857423 .19921875 .28857423 C .23209636 .28857423 .25748698 .2985026 .27539063 .31835938 C .29361979 .33854167 .30273438 .36686198 .30273438 .4033203 L .30273438 .5131836 C .30273438 .55029299 .29361979 .57910159 .27539063 .5996094 C .25748698 .6201172 .23209636 .6303711 .19921875 .6303711 C .17805989 .6303711 .15999349 .62646487 .14501953 .61865237 C .1303711 .61083987 .119140628 .5992839 .111328128 .5839844 C .103515628 .56901046 .099609378 .55094406 .099609378 .52978518 L .08935547 .6274414 C .104654949 .6570638 .12467448 .6798503 .14941406 .6958008 C .17415364 .71207687 .20166016 .72021487 .2319336 .72021487 C .26774089 .72021487 .29833985 .71207687 .32373048 .6958008 C .34944663 .6798503 .36897788 .6564128 .38232423 .6254883 C .39567057 .5945638 .40234376 .5572917 .40234376 .5136719 L .40234376 .4033203 C .40234376 .36035157 .3955078 .32356773 .38183595 .29296876 C .36816407 .26236979 .34814454 .2389323 .32177735 .22265625 C .29541017 .20670574 .26383464 .19873047 .22705078 .19873047 Z "/>
</symbol>
<symbol id="font_3_af">
<path d="M 0 .70996096 L .099609378 .70996096 L .099609378 .61035159 L 0 .61035159 L 0 .70996096 M 0 .50683596 L .099609378 .50683596 L .099609378 0 L 0 0 L 0 .50683596 Z "/>
</symbol>
<symbol id="font_3_dc">
<path d="M .22070313 0 C .1907552 0 .16259766 .0029296876 .13623047 .0087890629 C .110188808 .0146484379 .08577474 .0234375 .06298828 .03515625 C .040201826 .046875 .019205729 .061523439 0 .07910156 L .05908203 .15185547 C .08642578 .13102214 .11360677 .11539713 .140625 .10498047 C .16764324 .094563808 .19433594 .08935547 .22070313 .08935547 C .26009117 .08935547 .28955079 .0953776 .30908204 .107421878 C .3289388 .119791667 .3388672 .1381836 .3388672 .16259766 C .3388672 .1788737 .3334961 .19108074 .3227539 .19921875 C .31201173 .20735677 .29866538 .21272786 .28271485 .21533203 C .2667643 .21826172 .24430339 .22086589 .21533203 .22314453 C .21272786 .22314453 .20996094 .22314453 .20703125 .22314453 C .20410156 .22347005 .20133464 .22379558 .19873047 .2241211 C .19742839 .2241211 .1961263 .2241211 .19482422 .2241211 C .19352214 .22444661 .19222005 .22460938 .19091797 .22460938 C .15804036 .22721355 .13020833 .2319336 .107421878 .23876953 C .084635417 .24593099 .065592449 .2591146 .05029297 .2783203 C .03531901 .29752604 .027832032 .32503257 .027832032 .36083985 C .027832032 .39664714 .03515625 .42643229 .049804689 .4501953 C .064453128 .47395835 .08626302 .49169923 .115234378 .50341799 C .14420574 .5154622 .1805013 .5214844 .2241211 .5214844 C .25048829 .5214844 .27555339 .51904299 .2993164 .51416018 C .32340495 .50927737 .34635417 .5019531 .36816407 .4921875 C .38997398 .4827474 .41097007 .47070313 .43115235 .4560547 L .37109376 .38330079 C .34570313 .3995768 .32063804 .41178385 .29589845 .41992188 C .27148438 .4280599 .2475586 .4321289 .2241211 .4321289 C .19026692 .4321289 .1648763 .42626954 .14794922 .41455079 C .13102214 .40315757 .122558597 .38590495 .122558597 .36279298 C .122558597 .3491211 .12727864 .3388672 .13671875 .33203126 C .14648438 .3251953 .1586914 .32063804 .17333985 .31835938 C .18798828 .31608073 .20882161 .3141276 .23583985 .3125 C .23779297 .31217448 .2397461 .31201173 .24169922 .31201173 C .24397786 .31201173 .24625652 .31184898 .24853516 .31152345 C .24951172 .31152345 .25048829 .31152345 .25146485 .31152345 C .2524414 .31152345 .25341798 .3113607 .25439454 .31103517 C .2898763 .3087565 .31998698 .30403648 .34472657 .296875 C .36979167 .28971354 .39078776 .27555339 .40771485 .25439454 C .42464195 .23323567 .43310548 .20263672 .43310548 .16259766 C .43310548 .12613933 .42529298 .09586588 .40966798 .071777347 C .39404298 .048014326 .37044273 .030110678 .3388672 .018066407 C .3076172 .0060221354 .26822917 0 .22070313 0 Z "/>
</symbol>
<symbol id="font_3_fa">
<path d="M .3642578 .42285157 L .12060547 .092285159 L .3774414 .092285159 L .3774414 0 L 0 0 L 0 .0859375 L .25 .41455079 L .0068359377 .41455079 L .0068359377 .50683596 L .3642578 .50683596 L .3642578 .42285157 Z "/>
</symbol>
<symbol id="font_3_1">
<path d="M 0 0 Z "/>
</symbol>
<symbol id="font_3_f4">
<path d="M 0 .50683596 L .104003909 .50683596 L .19384766 .14501953 L .3203125 .50683596 L .38964845 .50683596 L .5161133 .14501953 L .60595706 .50683596 L .70996096 .50683596 L .55371096 0 L .47851563 0 L .35498048 .35009767 L .23144531 0 L .15625 0 L 0 .50683596 Z "/>
</symbol>
<symbol id="font_3_c8">
<path d="M .20898438 0 C .16503906 0 .1274414 .008626302 .096191409 .025878907 C .064941409 .04313151 .041015626 .06819662 .024414063 .10107422 C .0081380209 .13427735 0 .17415364 0 .22070313 L 0 .30322267 C 0 .3491211 .0081380209 .38834635 .024414063 .42089845 C .041015626 .45377604 .064941409 .47867839 .096191409 .49560548 C .1274414 .5128581 .16503906 .5214844 .20898438 .5214844 C .2529297 .5214844 .29052735 .5128581 .32177735 .49560548 C .35302735 .47867839 .37679038 .45377604 .3930664 .42089845 C .40966798 .38834635 .41796876 .3491211 .41796876 .30322267 L .41796876 .21923828 C .41796876 .17301433 .40966798 .13346355 .3930664 .10058594 C .37679038 .06803385 .35302735 .04313151 .32177735 .025878907 C .29052735 .008626302 .2529297 0 .20898438 0 M .20898438 .09472656 C .24381511 .09472656 .27067057 .10563151 .28955079 .1274414 C .3087565 .1492513 .31835938 .17985027 .31835938 .21923828 L .31835938 .30322267 C .31835938 .3426107 .3087565 .37304688 .28955079 .39453126 C .27067057 .41601563 .24381511 .4267578 .20898438 .4267578 C .17415364 .4267578 .14713542 .41601563 .12792969 .39453126 C .10904948 .37304688 .099609378 .3426107 .099609378 .30322267 L .099609378 .21923828 C .099609378 .17985027 .10904948 .1492513 .12792969 .1274414 C .14713542 .10563151 .17415364 .09472656 .20898438 .09472656 Z "/>
</symbol>
<symbol id="font_3_d8">
<path d="M 0 .50683596 L .099609378 .50683596 L .099609378 0 L 0 0 L 0 .50683596 M .2788086 .38671876 C .27001954 .39746095 .2589518 .40559898 .24560547 .4111328 C .23225911 .41666667 .21679688 .4194336 .19921875 .4194336 C .16764324 .4194336 .1430664 .41064454 .12548828 .3930664 C .10823568 .3758138 .099609378 .35172526 .099609378 .32080079 L .08935547 .41845704 C .10498047 .44873048 .12516277 .47216798 .14990235 .48876954 C .17464192 .5056966 .20198567 .51416018 .2319336 .51416018 C .25504557 .51416018 .2758789 .5107422 .2944336 .50390627 C .3133138 .49739585 .3297526 .48763023 .34375 .47460938 L .2788086 .38671876 Z "/>
</symbol>
<symbol id="font_3_f6">
<path d="M .44873048 .7182617 L .23291016 .09277344 C .22509766 .06966146 .21484375 .051432294 .20214844 .038085939 C .18945313 .024414063 .17382813 .0146484379 .15527344 .0087890629 C .13671875 .0029296876 .11393229 0 .08691406 0 L .06689453 0 L .06689453 .095703128 L .08691406 .095703128 C .10546875 .095703128 .12011719 .09944662 .13085938 .106933597 C .14192708 .11442057 .15152996 .12727864 .15966797 .14550781 L .34716798 .7182617 L .44873048 .7182617 M 0 .7182617 L .1015625 .7182617 L .25732423 .27783204 L .20214844 .16992188 L 0 .7182617 Z "/>
</symbol>
<symbol id="font_3_e7">
<path d="M .30566407 .51416018 L .40478517 .51416018 L .40478517 .0073242189 L .30566407 .0073242189 L .30566407 .51416018 M .099609378 .20605469 C .099609378 .17057292 .108561199 .1430664 .12646485 .123535159 C .14469402 .10432943 .17024739 .09472656 .203125 .09472656 C .23567708 .09472656 .26090495 .10335287 .2788086 .12060547 C .29671226 .13785808 .30566407 .16243489 .30566407 .19433594 L .3125 .088378909 C .30208335 .063313808 .28515626 .042317708 .26171876 .025390625 C .23828125 .008463542 .20947266 0 .17529297 0 C .11930338 0 .07600912 .017903647 .045410158 .053710939 C .015136719 .08984375 0 .140625 0 .20605469 L 0 .51416018 L .099609378 .51416018 L .099609378 .20605469 Z "/>
</symbol>
<symbol id="font_3_c1">
<path d="M .60546877 .3071289 C .60546877 .3429362 .5961914 .37060548 .5776367 .39013673 C .55908206 .40966798 .53304037 .4194336 .49951173 .4194336 C .46858726 .4194336 .44466148 .4099935 .42773438 .39111329 C .41080729 .37223307 .40234376 .34554038 .40234376 .31103517 L .38232423 .4086914 C .39827476 .44222007 .41927085 .46809898 .4453125 .48632813 C .4716797 .5048828 .50065109 .51416018 .53222659 .51416018 C .5686849 .51416018 .59977218 .50602218 .6254883 .4897461 C .65152999 .47379557 .67122396 .45035807 .6845703 .4194336 C .6982422 .38850913 .7050781 .35123698 .7050781 .3076172 L .7050781 0 L .60546877 0 L .60546877 .3071289 M 0 .50683596 L .099609378 .50683596 L .099609378 0 L 0 0 L 0 .50683596 M .30273438 .3071289 C .30273438 .3429362 .2939453 .37060548 .2763672 .39013673 C .25878907 .40966798 .23388672 .4194336 .20166016 .4194336 C .16910808 .4194336 .1438802 .41080729 .12597656 .3935547 C .10839844 .3763021 .099609378 .35205079 .099609378 .32080079 L .08935547 .41845704 C .10498047 .449056 .12532552 .47265626 .15039063 .4892578 C .17578125 .5058594 .20377605 .51416018 .234375 .51416018 C .26985679 .51416018 .30013023 .50602218 .3251953 .4897461 C .3502604 .47379557 .36930339 .45035807 .38232423 .4194336 C .39567057 .38850913 .40234376 .35123698 .40234376 .3076172 L .40234376 0 L .30273438 0 L .30273438 .3071289 Z "/>
</symbol>
<symbol id="font_3_90">
<path d="M .21923828 0 C .17301433 0 .13346355 .008626302 .10058594 .025878907 C .06803385 .04313151 .04313151 .06819662 .025878907 .10107422 C .008626302 .13395183 0 .17366536 0 .22021485 L 0 .30371095 C 0 .34960938 .008626302 .38883464 .025878907 .42138673 C .04313151 .4539388 .06803385 .47867839 .10058594 .49560548 C .13346355 .5128581 .17301433 .5214844 .21923828 .5214844 C .24560547 .5214844 .27034507 .5182292 .29345704 .51171877 C .31689454 .5055339 .33789063 .49641929 .3564453 .484375 C .375 .47233073 .39046226 .45768229 .40283204 .4404297 L .3310547 .37597657 C .31673179 .3922526 .29996745 .40478517 .28076173 .41357423 C .261556 .42236329 .24153646 .4267578 .22070313 .4267578 C .18229167 .4267578 .15250652 .41601563 .13134766 .39453126 C .110188808 .37304688 .099609378 .34277345 .099609378 .30371095 L .099609378 .22021485 C .099609378 .18017578 .11002604 .1492513 .13085938 .1274414 C .15201824 .10563151 .18196614 .09472656 .22070313 .09472656 C .24186199 .09472656 .26204429 .09944662 .28125 .10888672 C .30045573 .11832682 .31705729 .13167317 .3310547 .14892578 L .40283204 .079589847 C .39013673 .06266276 .37451173 .048177083 .35595704 .036132814 C .33740235 .024414063 .31640626 .015462239 .29296876 .009277344 C .26985679 .003092448 .24527996 0 .21923828 0 Z "/>
</symbol>
<symbol id="font_3_c2">
<path d="M 0 .50683596 L .099609378 .50683596 L .099609378 0 L 0 0 L 0 .50683596 M .3076172 .3071289 C .3076172 .3429362 .29833985 .37060548 .27978517 .39013673 C .26123048 .40966798 .2351888 .4194336 .20166016 .4194336 C .16910808 .4194336 .1438802 .41080729 .12597656 .3935547 C .10839844 .3763021 .099609378 .35205079 .099609378 .32080079 L .08935547 .41845704 C .10498047 .449056 .12532552 .47265626 .15039063 .4892578 C .17578125 .5058594 .20377605 .51416018 .234375 .51416018 C .28938804 .51416018 .3318685 .49609376 .3618164 .45996095 C .39208985 .42415367 .40722657 .3733724 .40722657 .3076172 L .40722657 0 L .3076172 0 L .3076172 .3071289 Z "/>
</symbol>
<symbol id="font_3_9b">
<path d="M .22216797 0 C .17529297 0 .1352539 .0087890629 .10205078 .026367188 C .068847659 .043945314 .04345703 .06966146 .025878907 .103515628 C .008626302 .13769531 0 .1788737 0 .22705078 L 0 .2841797 C 0 .3343099 .008300781 .37711589 .024902344 .41259767 C .041829427 .44807945 .06624349 .47509767 .09814453 .49365235 C .13004558 .51220706 .16845703 .5214844 .2133789 .5214844 C .25569663 .5214844 .29182945 .51090499 .32177735 .4897461 C .35172526 .46858726 .37451173 .43798829 .39013673 .39794923 C .40608726 .35791017 .4140625 .30989585 .4140625 .25390626 L .4140625 .22070313 L .072265628 .22070313 L .072265628 .30078126 L .31933595 .30078126 C .31640626 .3421224 .30566407 .3741862 .28710938 .39697267 C .26888023 .42008464 .24430339 .43164063 .2133789 .43164063 C .17561849 .43164063 .14632161 .41927085 .12548828 .39453126 C .10498047 .36979167 .09472656 .3347982 .09472656 .28955079 L .09472656 .22509766 C .09472656 .18310547 .10579427 .1508789 .12792969 .12841797 C .15006511 .10595703 .18147786 .09472656 .22216797 .09472656 C .24235027 .09472656 .26236979 .09879557 .28222657 .106933597 C .30208335 .11507162 .31982423 .12646485 .33544923 .14111328 L .4008789 .075683597 C .3758138 .05159505 .34765626 .032877607 .31640626 .01953125 C .28515626 .0065104167 .2537435 0 .22216797 0 Z "/>
</symbol>
<symbol id="font_3_bc">
<path d="M .099609378 .13330078 C .099609378 .12093099 .10221354 .111328128 .107421878 .10449219 C .11295573 .09798177 .12060547 .09472656 .1303711 .09472656 L .1772461 .09472656 L .1772461 0 L .118652347 0 C .08089193 0 .05159505 .01171875 .030761719 .03515625 C .010253906 .05859375 0 .09163412 0 .13427735 L 0 .71240237 L .099609378 .71240237 L .099609378 .13330078 Z "/>
</symbol>
<symbol id="font_3_b9">
<path d="M .04296875 .19238281 L .30371095 .50683596 L .42089845 .50683596 L .036621095 .07421875 L .04296875 .19238281 M 0 .70996096 L .099609378 .70996096 L .099609378 0 L 0 0 L 0 .70996096 M .16064453 .29248048 L .22460938 .35888673 L .44580079 0 L .33740235 0 L .16064453 .29248048 Z "/>
</symbol>
<symbol id="font_3_c9">
<path d="M .20898438 0 C .16503906 0 .1274414 .008626302 .096191409 .025878907 C .064941409 .04313151 .041015626 .06819662 .024414063 .10107422 C .0081380209 .13427735 0 .17415364 0 .22070313 L 0 .30322267 C 0 .3491211 .0081380209 .38834635 .024414063 .42089845 C .041015626 .45377604 .064941409 .47867839 .096191409 .49560548 C .1274414 .5128581 .16503906 .5214844 .20898438 .5214844 C .2529297 .5214844 .29052735 .5128581 .32177735 .49560548 C .35302735 .47867839 .37679038 .45377604 .3930664 .42089845 C .40966798 .38834635 .41796876 .3491211 .41796876 .30322267 L .41796876 .21923828 C .41796876 .17301433 .40966798 .13346355 .3930664 .10058594 C .37679038 .06803385 .35302735 .04313151 .32177735 .025878907 C .29052735 .008626302 .2529297 0 .20898438 0 M .20898438 .09472656 C .24381511 .09472656 .27067057 .10563151 .28955079 .1274414 C .3087565 .1492513 .31835938 .17985027 .31835938 .21923828 L .31835938 .30322267 C .31835938 .3426107 .3087565 .37304688 .28955079 .39453126 C .27067057 .41601563 .24381511 .4267578 .20898438 .4267578 C .17415364 .4267578 .14713542 .41601563 .12792969 .39453126 C .10904948 .37304688 .099609378 .3426107 .099609378 .30322267 L .099609378 .21923828 C .099609378 .17985027 .10904948 .1492513 .12792969 .1274414 C .14713542 .10563151 .17415364 .09472656 .20898438 .09472656 M .15527344 .6621094 L .29492188 .8354492 L .36669923 .7758789 L .21777344 .6118164 L .15527344 .6621094 Z "/>
</symbol>
<symbol id="font_3_95">
<path d="M .30273438 .71875 L .40234376 .71875 L .40234376 .0087890629 L .30273438 .0087890629 L .30273438 .71875 M .17529297 0 C .1381836 0 .10644531 .007975261 .080078128 .023925782 C .054036458 .040201826 .034179689 .063802089 .020507813 .09472656 C .0068359377 .12565105 0 .16276042 0 .20605469 L 0 .3178711 C 0 .36149089 .0066731774 .39876304 .020019532 .4296875 C .033365888 .46061198 .052734376 .48404948 .078125 .5 C .10384115 .51627609 .13460286 .52441409 .17041016 .52441409 C .20035808 .52441409 .22770183 .51660159 .2524414 .50097659 C .2775065 .48535157 .2976888 .4633789 .31298829 .4350586 L .30273438 .33154298 C .30273438 .35302735 .29882813 .37141929 .29101563 .38671876 C .28320313 .40201823 .2718099 .41357423 .25683595 .42138673 C .2421875 .42952476 .22428386 .43359376 .203125 .43359376 C .17024739 .43359376 .14469402 .42333985 .12646485 .40283204 C .108561199 .38232423 .099609378 .35351563 .099609378 .31640626 L .099609378 .20605469 C .099609378 .16927083 .108561199 .14078777 .12646485 .12060547 C .14469402 .100748699 .17024739 .09082031 .203125 .09082031 C .22428386 .09082031 .2421875 .09488932 .25683595 .103027347 C .2718099 .11149088 .28320313 .123535159 .29101563 .13916016 C .29882813 .15478516 .30273438 .17350261 .30273438 .1953125 L .3095703 .088378909 C .29947917 .063313808 .2828776 .042317708 .25976563 .025390625 C .23697917 .008463542 .20882161 0 .17529297 0 Z "/>
</symbol>
<symbol id="font_3_ad">
<path d="M 0 .70996096 L .099609378 .70996096 L .099609378 0 L 0 0 L 0 .70996096 M .3076172 .3071289 C .3076172 .3429362 .29833985 .37060548 .27978517 .39013673 C .26123048 .40966798 .2351888 .4194336 .20166016 .4194336 C .16910808 .4194336 .1438802 .41097007 .12597656 .39404298 C .10839844 .37711589 .099609378 .3531901 .099609378 .32226563 L .08935547 .41992188 C .10498047 .44986979 .12532552 .47298179 .15039063 .4892578 C .17578125 .5058594 .20377605 .51416018 .234375 .51416018 C .28938804 .51416018 .3318685 .49609376 .3618164 .45996095 C .39208985 .42415367 .40722657 .3733724 .40722657 .3076172 L .40722657 0 L .3076172 0 L .3076172 .3071289 Z "/>
</symbol>
<symbol id="font_3_292">
<path d="M 0 .10449219 L .10449219 .10449219 L .10449219 0 L 0 0 L 0 .10449219 Z "/>
</symbol>
<use xlink:href="#font_3_43" transform="matrix(12,0,0,-12,47.014688,47.934144)"/>
<use xlink:href="#font_3_82" transform="matrix(12,0,0,-12,55.00453,48.027894)"/>
<use xlink:href="#font_3_d5" transform="matrix(12,0,0,-12,61.6815,50.41266)"/>
<use xlink:href="#font_3_af" transform="matrix(12,0,0,-12,68.2095,47.940004)"/>
<use xlink:href="#font_3_dc" transform="matrix(12,0,0,-12,70.72346,48.027894)"/>
<use xlink:href="#font_3_fa" transform="matrix(12,0,0,-12,77.27373,47.940004)"/>
<use xlink:href="#font_3_1" transform="matrix(12,0,0,-12,82.45201,47.940004)"/>
<use xlink:href="#font_3_f4" transform="matrix(12,0,0,-12,86.090167,47.940004)"/>
<use xlink:href="#font_3_fa" transform="matrix(12,0,0,-12,95.681728,47.940004)"/>
<use xlink:href="#font_3_c8" transform="matrix(12,0,0,-12,101.62173,48.027894)"/>
<use xlink:href="#font_3_d8" transform="matrix(12,0,0,-12,108.33751,47.940004)"/>
<use xlink:href="#font_3_f6" transform="matrix(12,0,0,-12,112.81698,50.47711)"/>
<use xlink:href="#font_3_1" transform="matrix(12,0,0,-12,118.32001,47.940004)"/>
<use xlink:href="#font_3_dc" transform="matrix(12,0,0,-12,121.98746,48.027894)"/>
<use xlink:href="#font_3_e7" transform="matrix(12,0,0,-12,128.7135,48.027894)"/>
<use xlink:href="#font_3_c1" transform="matrix(12,0,0,-12,135.3855,47.940004)"/>
<use xlink:href="#font_3_82" transform="matrix(12,0,0,-12,145.36454,48.027894)"/>
<use xlink:href="#font_3_d8" transform="matrix(12,0,0,-12,152.0415,47.940004)"/>
<use xlink:href="#font_3_f6" transform="matrix(12,0,0,-12,156.52097,50.47711)"/>
<use xlink:href="#font_3_90" transform="matrix(12,0,0,-12,162.80973,48.027894)"/>
<use xlink:href="#font_3_fa" transform="matrix(12,0,0,-12,168.78572,47.940004)"/>
<use xlink:href="#font_3_c2" transform="matrix(12,0,0,-12,174.9015,47.940004)"/>
<use xlink:href="#font_3_9b" transform="matrix(12,0,0,-12,181.45772,48.027894)"/>
<use xlink:href="#font_3_1" transform="matrix(12,0,0,-12,187.128,47.940004)"/>
<use xlink:href="#font_3_82" transform="matrix(12,0,0,-12,191.00054,48.027894)"/>
<use xlink:href="#font_3_bc" transform="matrix(12,0,0,-12,197.6775,47.9693)"/>
<use xlink:href="#font_3_b9" transform="matrix(12,0,0,-12,201.1575,47.940004)"/>
<use xlink:href="#font_3_82" transform="matrix(12,0,0,-12,207.21254,48.027894)"/>
<use xlink:href="#font_3_c2" transform="matrix(12,0,0,-12,213.79352,47.940004)"/>
<use xlink:href="#font_3_c9" transform="matrix(12,0,0,-12,220.32575,48.027894)"/>
<use xlink:href="#font_3_f4" transform="matrix(12,0,0,-12,226.51418,47.940004)"/>
<use xlink:href="#font_3_1" transform="matrix(12,0,0,-12,235.38002,47.940004)"/>
<use xlink:href="#font_3_c8" transform="matrix(12,0,0,-12,239.40573,48.027894)"/>
<use xlink:href="#font_3_1" transform="matrix(12,0,0,-12,245.184,47.940004)"/>
<use xlink:href="#font_3_d5" transform="matrix(12,0,0,-12,249.3495,50.41266)"/>
<use xlink:href="#font_3_c8" transform="matrix(12,0,0,-12,255.70172,48.027894)"/>
<use xlink:href="#font_3_95" transform="matrix(12,0,0,-12,262.20573,48.04547)"/>
<use xlink:href="#font_3_82" transform="matrix(12,0,0,-12,268.5085,48.027894)"/>
<use xlink:href="#font_3_c2" transform="matrix(12,0,0,-12,275.1855,47.940004)"/>
<use xlink:href="#font_3_f6" transform="matrix(12,0,0,-12,281.24897,50.47711)"/>
<use xlink:href="#font_3_90" transform="matrix(12,0,0,-12,287.5137,48.027894)"/>
<use xlink:href="#font_3_ad" transform="matrix(12,0,0,-12,293.6655,47.940004)"/>
<use xlink:href="#font_3_1" transform="matrix(12,0,0,-12,299.47203,47.940004)"/>
<use xlink:href="#font_3_f4" transform="matrix(12,0,0,-12,303.06217,47.940004)"/>
<use xlink:href="#font_3_fa" transform="matrix(12,0,0,-12,312.68974,47.940004)"/>
<use xlink:href="#font_3_c8" transform="matrix(12,0,0,-12,318.62974,48.027894)"/>
<use xlink:href="#font_3_d8" transform="matrix(12,0,0,-12,325.3095,47.940004)"/>
<use xlink:href="#font_3_82" transform="matrix(12,0,0,-12,330.14054,48.027894)"/>
<use xlink:href="#font_3_90" transform="matrix(12,0,0,-12,336.59373,48.027894)"/>
<use xlink:href="#font_3_ad" transform="matrix(12,0,0,-12,342.7455,47.940004)"/>
<use xlink:href="#font_3_292" transform="matrix(12,0,0,-12,349.24845,47.940004)"/>
</g>
<clipPath id="cp4">
<path transform="matrix(1,0,0,-1,0,841.92)" d="M .000008871 0 L 595.32 0 L 595.32 841.92 L .000008871 841.92 Z " fill-rule="evenodd"/>
</clipPath>
<g clip-path="url(#cp4)">
<use xlink:href="#font_1_1" transform="matrix(12,0,0,-12,351.34,47.940004)"/>
</g>
</g>
<clipPath id="cp5">
<path transform="matrix(1,0,0,-1,0,841.92)" d="M 36.48 745.86 L 297.46003 745.86 L 297.46003 781.86 L 36.48 781.86 Z " fill-rule="evenodd"/>
</clipPath>
<g clip-path="url(#cp5)">
<g id="Layer-1" data-name="P">
<clipPath id="cp6">
<path transform="matrix(1,0,0,-1,0,841.92)" d="M 36.48 745.86 L 297.46003 745.86 L 297.46003 781.86 L 36.48 781.86 Z " fill-rule="evenodd"/>
</clipPath>
<g clip-path="url(#cp6)">
<use xlink:href="#font_1_1" transform="matrix(12,0,0,-12,209.72,74.45996)"/>
</g>
</g>
</g>
<clipPath id="cp7">
<path transform="matrix(1,0,0,-1,0,841.92)" d="M 297.94 745.86 L 558.83999 745.86 L 558.83999 781.86 L 297.94 781.86 Z " fill-rule="evenodd"/>
</clipPath>
<g clip-path="url(#cp7)">
<g id="Layer-1" data-name="P">
<clipPath id="cp8">
<path transform="matrix(1,0,0,-1,0,841.92)" d="M 297.94 745.86 L 558.83999 745.86 L 558.83999 781.86 L 297.94 781.86 Z " fill-rule="evenodd"/>
</clipPath>
<g clip-path="url(#cp8)">
<use xlink:href="#font_1_1" transform="matrix(12,0,0,-12,472.68,96.06)"/>
</g>
</g>
</g>
<g id="Layer-1" data-name="Artifact">
<path transform="matrix(1,0,0,-1,0,841.92)" d="M 36 781.92 L 36.48 781.92 L 36.48 782.39999 L 36 782.39999 Z " fill-rule="evenodd"/>
<path transform="matrix(1,0,0,-1,0,841.92)" d="M 36 781.92 L 36.48 781.92 L 36.48 782.39999 L 36 782.39999 Z " fill-rule="evenodd"/>
<path transform="matrix(1,0,0,-1,0,841.92)" d="M 36.48 781.92 L 297.46003 781.92 L 297.46003 782.39999 L 36.48 782.39999 Z " fill-rule="evenodd"/>
<path transform="matrix(1,0,0,-1,0,841.92)" d="M 297.46 781.92 L 297.94 781.92 L 297.94 782.39999 L 297.46 782.39999 Z " fill-rule="evenodd"/>
<path transform="matrix(1,0,0,-1,0,841.92)" d="M 297.94 781.92 L 558.9 781.92 L 558.9 782.39999 L 297.94 782.39999 Z " fill-rule="evenodd"/>
<path transform="matrix(1,0,0,-1,0,841.92)" d="M 558.9 781.92 L 559.38009 781.92 L 559.38009 782.39999 L 558.9 782.39999 Z " fill-rule="evenodd"/>
<path transform="matrix(1,0,0,-1,0,841.92)" d="M 558.9 781.92 L 559.38009 781.92 L 559.38009 782.39999 L 558.9 782.39999 Z " fill-rule="evenodd"/>
<path transform="matrix(1,0,0,-1,0,841.92)" d="M 36 745.86 L 36.48 745.86 L 36.48 781.92 L 36 781.92 Z " fill-rule="evenodd"/>
<path transform="matrix(1,0,0,-1,0,841.92)" d="M 297.46 745.86 L 297.94 745.86 L 297.94 781.92 L 297.46 781.92 Z " fill-rule="evenodd"/>
<path transform="matrix(1,0,0,-1,0,841.92)" d="M 558.9 745.86 L 559.38009 745.86 L 559.38009 781.92 L 558.9 781.92 Z " fill-rule="evenodd"/>
</g>
<clipPath id="cp9">
<path transform="matrix(1,0,0,-1,0,841.92)" d="M 36.48 730.98 L 297.46003 730.98 L 297.46003 745.38 L 36.48 745.38 Z " fill-rule="evenodd"/>
</clipPath>
<g clip-path="url(#cp9)">
<g id="Layer-1" data-name="P">
<clipPath id="cp10">
<path transform="matrix(1,0,0,-1,0,841.92)" d="M 36.48 730.98 L 297.46003 730.98 L 297.46003 745.38 L 36.48 745.38 Z " fill-rule="evenodd"/>
</clipPath>
<g clip-path="url(#cp10)">
<symbol id="font_1_10">
<path d="M .24707031 0 C .19791667 0 .15462239 .010904948 .1171875 .032714845 C .080078128 .05452474 .05126953 .08544922 .030761719 .12548828 C .010253906 .16552735 0 .21191406 0 .26464845 L 0 .45947267 C 0 .51220706 .010253906 .55859377 .030761719 .5986328 C .05126953 .6386719 .080078128 .6695964 .1171875 .69140627 C .15462239 .7135417 .19791667 .7246094 .24707031 .7246094 C .2877604 .7246094 .3251953 .7158203 .359375 .6982422 C .3935547 .68098959 .42203776 .6564128 .44482423 .6245117 C .4679362 .59261068 .4835612 .55566409 .49169923 .5136719 L .38964845 .5136719 C .38346354 .5358073 .37304688 .5555013 .35839845 .5727539 C .34407554 .59033206 .32714845 .6038411 .3076172 .61328127 C .28808595 .6227214 .26790367 .6274414 .24707031 .6274414 C .21809896 .6274414 .19270833 .6204427 .17089844 .6064453 C .14908855 .59244796 .13216146 .5727539 .12011719 .5473633 C .108072917 .52229818 .10205078 .4930013 .10205078 .45947267 L .10205078 .26464845 C .10205078 .23144531 .108072917 .20214844 .12011719 .17675781 C .13216146 .15136719 .14908855 .13167317 .17089844 .11767578 C .19270833 .104003909 .21809896 .09716797 .24707031 .09716797 C .26822917 .09716797 .28841148 .1015625 .3076172 .11035156 C .32714845 .119140628 .34407554 .13216146 .35839845 .14941406 C .37304688 .16666667 .38346354 .18717449 .38964845 .2109375 L .49169923 .2109375 C .4835612 .16894531 .4679362 .1319987 .44482423 .100097659 C .42171226 .06819662 .3930664 .04345703 .35888673 .025878907 C .32470704 .008626302 .2874349 0 .24707031 0 Z "/>
</symbol>
<use xlink:href="#font_1_10" transform="matrix(12,0,0,-12,42.518907,108.56787)"/>
</g>
<clipPath id="cp11">
<path transform="matrix(1,0,0,-1,0,841.92)" d="M 36.48 730.98 L 297.46003 730.98 L 297.46003 745.38 L 36.48 745.38 Z " fill-rule="evenodd"/>
</clipPath>
<g clip-path="url(#cp11)">
<symbol id="font_1_27a">
<path d="M 0 .19580078 L .23828125 .70996096 L .3408203 .70996096 L .10839844 .20166016 L .45654298 .20166016 L .45654298 .109375 L 0 .109375 L 0 .19580078 M .30615235 .41796876 L .4033203 .41796876 L .4033203 0 L .30615235 0 L .30615235 .41796876 Z "/>
</symbol>
<use xlink:href="#font_1_27a" transform="matrix(7.02,0,0,-7.02,49.525609,109.503429)"/>
</g>
<clipPath id="cp12">
<path transform="matrix(1,0,0,-1,0,841.92)" d="M 36.48 730.98 L 297.46003 730.98 L 297.46003 745.38 L 36.48 745.38 Z " fill-rule="evenodd"/>
</clipPath>
<g clip-path="url(#cp12)">
<symbol id="font_1_2e">
<path d="M .4033203 .70996096 L .5029297 .70996096 L .5029297 0 L .4033203 0 L .4033203 .70996096 M 0 .70996096 L .099609378 .70996096 L .099609378 0 L 0 0 L 0 .70996096 M .06201172 .39697267 L .4560547 .39697267 L .4560547 .3022461 L .06201172 .3022461 L .06201172 .39697267 Z "/>
</symbol>
<use xlink:href="#font_1_2e" transform="matrix(12,0,0,-12,54.154687,108.47998)"/>
</g>
<clipPath id="cp13">
<path transform="matrix(1,0,0,-1,0,841.92)" d="M 36.48 730.98 L 297.46003 730.98 L 297.46003 745.38 L 36.48 745.38 Z " fill-rule="evenodd"/>
</clipPath>
<g clip-path="url(#cp13)">
<symbol id="font_1_276">
<path d="M .20263672 0 C .13623047 0 .08577474 .017740885 .05126953 .053222658 C .017089844 .08870443 0 .1381836 0 .20166016 L 0 .52441409 C 0 .5882161 .017252604 .6376953 .051757814 .67285159 C .08626302 .7083333 .13655599 .7260742 .20263672 .7260742 C .26904298 .7260742 .31933595 .7084961 .35351563 .67333987 C .38802085 .6381836 .40527345 .5885417 .40527345 .52441409 L .40527345 .20166016 C .40527345 .13785808 .38802085 .08821615 .35351563 .052734376 C .3190104 .017578125 .26871745 0 .20263672 0 M .20263672 .09472656 C .23779297 .09472656 .26367188 .10384115 .28027345 .12207031 C .29720054 .140625 .30566407 .16715496 .30566407 .20166016 L .30566407 .52441409 C .30566407 .55891928 .29736329 .58528646 .28076173 .6035156 C .26416017 .6220703 .23811849 .63134768 .20263672 .63134768 C .16715496 .63134768 .14111328 .6220703 .12451172 .6035156 C .107910159 .58528646 .099609378 .55891928 .099609378 .52441409 L .099609378 .20166016 C .099609378 .16715496 .107910159 .140625 .12451172 .12207031 C .1414388 .10384115 .16748047 .09472656 .20263672 .09472656 Z "/>
</symbol>
<use xlink:href="#font_1_277" transform="matrix(7.02,0,0,-7.02,61.568494,109.5)"/>
<use xlink:href="#font_1_276" transform="matrix(7.02,0,0,-7.02,64.05412,109.551418)"/>
</g>
<clipPath id="cp14">
<path transform="matrix(1,0,0,-1,0,841.92)" d="M 36.48 730.98 L 297.46003 730.98 L 297.46003 745.38 L 36.48 745.38 Z " fill-rule="evenodd"/>
</clipPath>
<g clip-path="url(#cp14)">
<use xlink:href="#font_1_1" transform="matrix(12,0,0,-12,67.38,108.47998)"/>
</g>
</g>
</g>
<clipPath id="cp15">
<path transform="matrix(1,0,0,-1,0,841.92)" d="M 297.94 730.98 L 558.83999 730.98 L 558.83999 745.38 L 297.94 745.38 Z " fill-rule="evenodd"/>
</clipPath>
<g clip-path="url(#cp15)">
<g id="Layer-1" data-name="P">
<clipPath id="cp16">
<path transform="matrix(1,0,0,-1,0,841.92)" d="M 297.94 730.98 L 558.83999 730.98 L 558.83999 745.38 L 297.94 745.38 Z " fill-rule="evenodd"/>
</clipPath>
<g clip-path="url(#cp16)">
<use xlink:href="#font_1_10" transform="matrix(12,0,0,-12,416.4389,108.56787)"/>
</g>
<clipPath id="cp17">
<path transform="matrix(1,0,0,-1,0,841.92)" d="M 297.94 730.98 L 558.83999 730.98 L 558.83999 745.38 L 297.94 745.38 Z " fill-rule="evenodd"/>
</clipPath>
<g clip-path="url(#cp17)">
<use xlink:href="#font_1_27a" transform="matrix(7.02,0,0,-7.02,423.44563,109.503429)"/>
</g>
<clipPath id="cp18">
<path transform="matrix(1,0,0,-1,0,841.92)" d="M 297.94 730.98 L 558.83999 730.98 L 558.83999 745.38 L 297.94 745.38 Z " fill-rule="evenodd"/>
</clipPath>
<g clip-path="url(#cp18)">
<use xlink:href="#font_1_2e" transform="matrix(12,0,0,-12,428.07469,108.47998)"/>
</g>
<clipPath id="cp19">
<path transform="matrix(1,0,0,-1,0,841.92)" d="M 297.94 730.98 L 558.83999 730.98 L 558.83999 745.38 L 297.94 745.38 Z " fill-rule="evenodd"/>
</clipPath>
<g clip-path="url(#cp19)">
<use xlink:href="#font_1_277" transform="matrix(7.02,0,0,-7.02,435.4885,109.5)"/>
<use xlink:href="#font_1_276" transform="matrix(7.02,0,0,-7.02,437.97413,109.551418)"/>
</g>
<clipPath id="cp20">
<path transform="matrix(1,0,0,-1,0,841.92)" d="M 297.94 730.98 L 558.83999 730.98 L 558.83999 745.38 L 297.94 745.38 Z " fill-rule="evenodd"/>
</clipPath>
<g clip-path="url(#cp20)">
<use xlink:href="#font_1_1" transform="matrix(12,0,0,-12,441.3,108.47998)"/>
</g>
</g>
</g>
<g id="Layer-1" data-name="Artifact">
<path transform="matrix(1,0,0,-1,0,841.92)" d="M 36 745.38 L 36.48 745.38 L 36.48 745.86 L 36 745.86 Z " fill-rule="evenodd"/>
<path transform="matrix(1,0,0,-1,0,841.92)" d="M 36.48 745.38 L 297.46003 745.38 L 297.46003 745.86 L 36.48 745.86 Z " fill-rule="evenodd"/>
<path transform="matrix(1,0,0,-1,0,841.92)" d="M 297.46 745.38 L 297.94 745.38 L 297.94 745.86 L 297.46 745.86 Z " fill-rule="evenodd"/>
<path transform="matrix(1,0,0,-1,0,841.92)" d="M 297.94 745.38 L 558.9 745.38 L 558.9 745.86 L 297.94 745.86 Z " fill-rule="evenodd"/>
<path transform="matrix(1,0,0,-1,0,841.92)" d="M 558.9 745.38 L 559.38009 745.38 L 559.38009 745.86 L 558.9 745.86 Z " fill-rule="evenodd"/>
<path transform="matrix(1,0,0,-1,0,841.92)" d="M 36 730.98 L 36.48 730.98 L 36.48 745.38 L 36 745.38 Z " fill-rule="evenodd"/>
<path transform="matrix(1,0,0,-1,0,841.92)" d="M 36 730.5 L 36.48 730.5 L 36.48 730.98 L 36 730.98 Z " fill-rule="evenodd"/>
<path transform="matrix(1,0,0,-1,0,841.92)" d="M 36 730.5 L 36.48 730.5 L 36.48 730.98 L 36 730.98 Z " fill-rule="evenodd"/>
<path transform="matrix(1,0,0,-1,0,841.92)" d="M 36.48 730.5 L 297.46003 730.5 L 297.46003 730.98 L 36.48 730.98 Z " fill-rule="evenodd"/>
<path transform="matrix(1,0,0,-1,0,841.92)" d="M 297.46 730.98 L 297.94 730.98 L 297.94 745.38 L 297.46 745.38 Z " fill-rule="evenodd"/>
<path transform="matrix(1,0,0,-1,0,841.92)" d="M 297.46 730.5 L 297.94 730.5 L 297.94 730.98 L 297.46 730.98 Z " fill-rule="evenodd"/>
<path transform="matrix(1,0,0,-1,0,841.92)" d="M 297.94 730.5 L 558.9 730.5 L 558.9 730.98 L 297.94 730.98 Z " fill-rule="evenodd"/>
<path transform="matrix(1,0,0,-1,0,841.92)" d="M 558.9 730.98 L 559.38009 730.98 L 559.38009 745.38 L 558.9 745.38 Z " fill-rule="evenodd"/>
<path transform="matrix(1,0,0,-1,0,841.92)" d="M 558.9 730.5 L 559.38009 730.5 L 559.38009 730.98 L 558.9 730.98 Z " fill-rule="evenodd"/>
<path transform="matrix(1,0,0,-1,0,841.92)" d="M 558.9 730.5 L 559.38009 730.5 L 559.38009 730.98 L 558.9 730.98 Z " fill-rule="evenodd"/>
</g>
<g id="Layer-1" data-name="P">
<clipPath id="cp21">
<path transform="matrix(1,0,0,-1,0,841.92)" d="M .000008871 0 L 595.32 0 L 595.32 841.92 L .000008871 841.92 Z " fill-rule="evenodd"/>
</clipPath>
<g clip-path="url(#cp21)">
<use xlink:href="#font_1_1" transform="matrix(12,0,0,-12,36,123.359989)"/>
</g>
</g>
<g id="Layer-1" data-name="P">
<clipPath id="cp22">
<path transform="matrix(1,0,0,-1,0,841.92)" d="M 124.2 767.48 L 208.95 767.48 L 208.95 776.48 L 124.2 776.48 Z " fill-rule="evenodd"/>
</clipPath>
<g clip-path="url(#cp22)">
<clipPath id="cp23">
<path transform="matrix(12.353663,.00000791323,-.00001698411,-11.292625,124.2,74.44)" d="M 0 0 L 6.8602 0 L 6.8602 .79698 L 0 .79698 Z " fill-rule="evenodd"/>
</clipPath>
<g clip-path="url(#cp23)">
<clipPath id="cp24">
<path transform="matrix(12.353663,.00000791323,-.00001698411,-11.292625,124.2,74.44)" d="M .056669 .020291 L 6.8366696 .020291 L 6.8366696 .740291 L .056669 .740291 Z " fill-rule="evenodd"/>
</clipPath>
<g clip-path="url(#cp24)">
<path transform="matrix(12.353663,.00000791323,-.00001698411,-11.292625,124.2,74.44)" d="M 1.0015 .029202 C .98904 .035142 .97895 .044053 .97122 .05534 C .9635 .066627 .95875 .080291 .95697 .09633 L .99855 .09633 C .99974 .088014 1.0021 .080885 1.0063 .075538 C 1.0104 .070192 1.0158 .066033 1.0217 .063657 C 1.0283 .061281 1.0354 .059499 1.0443 .059499 C 1.058 .059499 1.0681 .063063 1.0758 .070192 C 1.0835 .077321 1.0871 .08742 1.0871 .10108 L 1.0871 .10999 C 1.0871 .12485 1.0835 .13613 1.0764 .14386 C 1.0692 .15158 1.0591 .15574 1.0461 .15574 L 1.0253 .15574 L 1.0253 .19554 L 1.0461 .19554 C 1.0574 .19554 1.0663 .1991 1.0728 .20564 C 1.0793 .21277 1.0823 .22227 1.0823 .23475 L 1.0823 .24366 C 1.0823 .25494 1.0787 .26386 1.0722 .27039 C 1.0657 .27692 1.0562 .27989 1.0437 .27989 C 1.0366 .27989 1.0306 .27871 1.0253 .27574 C 1.0199 .27336 1.0152 .2692 1.011 .26386 C 1.0069 .25851 1.0045 .25138 1.0027 .24366 L .96112 .24366 C .9635 .2597 .96885 .27336 .97657 .28465 C .98429 .29593 .9932 .30485 1.0051 .31079 C 1.0164 .31673 1.0294 .3197 1.0443 .3197 C 1.0692 .3197 1.0888 .31316 1.1025 .2995 C 1.1162 .28643 1.1233 .26742 1.1233 .24306 L 1.1233 .23831 C 1.1233 .22346 1.1191 .21098 1.1114 .1997 C 1.1037 .189 1.0924 .18069 1.0776 .17593 C 1.0936 .17237 1.1061 .16465 1.1144 .15217 C 1.1227 .1397 1.1275 .12425 1.1275 .10524 L 1.1275 .10049 C 1.1275 .083261 1.1239 .069004 1.1174 .056528 C 1.1108 .044647 1.1013 .035142 1.0888 .028608 C 1.0764 .022073 1.0609 .019103 1.0437 .019103 C 1.0283 .020291 1.014 .023261 1.0015 .029202 Z " fill="#010202"/>
</g>
<path transform="matrix(12.353663,.00000791323,-.00001698411,-11.292625,124.2,74.44)" d="M 2.8508 .058905 L 2.953 .19554 C 2.9589 .20326 2.9637 .21158 2.9667 .21989 C 2.9696 .22821 2.9714 .23593 2.9714 .24366 C 2.9714 .25554 2.9679 .26445 2.9613 .27098 C 2.9542 .27752 2.9447 .28049 2.9322 .28049 C 2.9203 .28049 2.9108 .27692 2.9031 .2698 C 2.8954 .26267 2.8912 .25257 2.8894 .24009 L 2.8473 .24009 C 2.8496 .25673 2.8544 .27158 2.8621 .28346 C 2.8692 .29475 2.8787 .30425 2.8906 .31019 C 2.9025 .31613 2.9162 .3197 2.9316 .3197 C 2.9488 .3197 2.9637 .31673 2.9762 .31079 C 2.9886 .30485 2.9976 .29593 3.0041 .28465 C 3.0106 .27336 3.0136 .2591 3.0136 .24306 C 3.0136 .23296 3.0112 .22168 3.0071 .21039 C 3.0029 .1991 2.997 .18841 2.9892 .17772 L 2.9049 .062469 L 3.0154 .062469 L 3.0154 .023261 L 2.8508 .023261 L 2.8508 .058905 Z " fill="#010202"/>
<path transform="matrix(12.353663,.00000791323,-.00001698411,-11.292625,124.2,74.44)" d="M 4.7435 .058905 L 4.8451 .19554 C 4.851 .20326 4.8558 .21158 4.8587 .21989 C 4.8617 .22821 4.8635 .23593 4.8635 .24366 C 4.8635 .25554 4.8599 .26445 4.8534 .27098 C 4.8463 .27752 4.8368 .28049 4.8243 .28049 C 4.8124 .28049 4.8029 .27692 4.7952 .2698 C 4.7875 .26267 4.7833 .25257 4.7815 .24009 L 4.7393 .24009 C 4.7417 .25673 4.7465 .27158 4.7542 .28346 C 4.7613 .29534 4.7714 .30425 4.7833 .31079 C 4.7952 .31732 4.8088 .32029 4.8243 .32029 C 4.8415 .32029 4.8564 .31732 4.8688 .31138 C 4.8813 .30544 4.8908 .29653 4.8968 .28524 C 4.9033 .27395 4.9063 .2597 4.9063 .24366 C 4.9063 .23356 4.9039 .22227 4.8997 .21098 C 4.8956 .1997 4.8896 .189 4.8819 .17831 L 4.7976 .063063 L 4.9081 .063063 L 4.9081 .023855 L 4.7435 .023855 L 4.7435 .058905 Z " fill="#010202"/>
<clipPath id="cp25">
<path transform="matrix(12.353663,.00000791323,-.00001698411,-11.292625,124.2,74.44)" d="M .056669 .020291 L 6.8366696 .020291 L 6.8366696 .740291 L .056669 .740291 Z " fill-rule="evenodd"/>
</clipPath>
<g clip-path="url(#cp25)">
<path transform="matrix(12.353663,.00000791323,-.00001698411,-11.292625,124.2,74.44)" d="M 6.6795 .029202 C 6.6671 .035142 6.657 .044053 6.6492 .05534 C 6.6415 .066627 6.6368 .080291 6.635 .09633 L 6.6766 .09633 C 6.6778 .088014 6.6801 .080885 6.6843 .075538 C 6.6884 .070192 6.6932 .066033 6.6997 .063657 C 6.7063 .061281 6.7134 .059499 6.7223 .059499 C 6.736 .059499 6.7461 .063063 6.7538 .070192 C 6.7615 .077321 6.7651 .08742 6.7651 .10108 L 6.7651 .10999 C 6.7651 .12485 6.7615 .13613 6.7544 .14386 C 6.7473 .15158 6.7372 .15574 6.7241 .15574 L 6.7033 .15574 L 6.7033 .19554 L 6.7241 .19554 C 6.7354 .19554 6.7443 .1991 6.7508 .20564 C 6.7574 .21277 6.7603 .22227 6.7603 .23475 L 6.7603 .24366 C 6.7603 .25494 6.7568 .26386 6.7502 .27039 C 6.7437 .27692 6.7342 .27989 6.7217 .27989 C 6.7146 .27989 6.7086 .27871 6.7033 .27574 C 6.698 .27336 6.6932 .2692 6.689 .26386 C 6.6849 .25851 6.6825 .25138 6.6807 .24366 L 6.6391 .24366 C 6.6415 .2597 6.6469 .27336 6.6546 .28465 C 6.6617 .29593 6.6712 .30485 6.6825 .31079 C 6.6938 .31673 6.7069 .3197 6.7217 .3197 C 6.7467 .3197 6.7663 .31316 6.7799 .2995 C 6.7936 .28643 6.8007 .26742 6.8007 .24306 L 6.8007 .23831 C 6.8007 .22346 6.7966 .21098 6.7888 .1997 C 6.7811 .18841 6.7698 .18069 6.755 .17593 C 6.771 .17237 6.7835 .16465 6.7918 .15217 C 6.8007 .1397 6.8049 .12425 6.8049 .10524 L 6.8049 .10049 C 6.8049 .083261 6.8019 .069004 6.7948 .056528 C 6.7883 .044647 6.7787 .035142 6.7663 .028608 C 6.7538 .022073 6.7384 .019103 6.7211 .019103 C 6.7063 .020291 6.692 .023261 6.6795 .029202 Z " fill="#010202"/>
</g>
<path transform="matrix(12.353663,.00000791323,-.00001698411,-11.292625,124.2,74.44)" d="M .17043 .24544 C .1437 .26088 .12291 .28346 .10865 .31197 C .093797 .34049 .086669 .37376 .086669 .41118 L .086669 .55079 C .086669 .58821 .093797 .62148 .10865 .64999 C .12291 .6791 .1437 .70108 .17043 .71653 C .19716 .73197 .22746 .74029 .26251 .74029 C .29162 .74029 .31835 .73435 .34271 .72187 C .36706 .7094 .38726 .69158 .4039 .669 C .41994 .64584 .43122 .6197 .43657 .5894 L .36409 .5894 C .35994 .60544 .35221 .6191 .34211 .63158 C .33202 .64405 .31954 .65415 .30588 .66069 C .29162 .66722 .27736 .67079 .26251 .67079 C .24172 .67079 .2239 .66603 .20845 .65593 C .19301 .64584 .18112 .63217 .17221 .61376 C .1639 .59593 .15914 .57455 .15914 .55079 L .15914 .41118 C .15914 .38742 .1633 .36663 .17221 .34821 C .18053 .33039 .19301 .31613 .20845 .30663 C .2239 .29653 .24231 .29178 .26251 .29178 C .27736 .29178 .29221 .29475 .30588 .30128 C .31954 .30722 .33202 .31673 .34211 .3292 C .35221 .34168 .35994 .35593 .36409 .37316 L .43657 .37316 C .43122 .34287 .41994 .31673 .4033 .29356 C .38726 .27098 .36647 .25316 .34211 .24069 C .31776 .22821 .29162 .22227 .26251 .22227 C .22746 .22227 .19657 .22999 .17043 .24544 Z " fill="#010202"/>
<path transform="matrix(12.353663,.00000791323,-.00001698411,-11.292625,124.2,74.44)" d="M .54172 .73494 L .61241 .73494 L .61241 .22702 L .54172 .22702 L .54172 .73494 Z M .58627 .51098 L .86667 .51098 L .86667 .44326 L .58627 .44326 L .58627 .51098 Z M .82924 .73494 L .89994 .73494 L .89994 .22702 L .82924 .22702 L .82924 .73494 Z " fill="#010202"/>
<path transform="matrix(12.353663,.00000791323,-.00001698411,-11.292625,124.2,74.44)" d="M 2.0613 .24544 C 2.0346 .26088 2.0144 .28346 1.9995 .31197 C 1.9847 .34049 1.9776 .37376 1.9776 .41118 L 1.9776 .55079 C 1.9776 .58821 1.9847 .62148 1.9995 .65059 C 2.0144 .6791 2.0346 .70108 2.0613 .71712 C 2.0881 .73316 2.1184 .74029 2.1534 .74029 C 2.1825 .74029 2.2092 .73435 2.2336 .72187 C 2.258 .7094 2.2782 .69158 2.2948 .669 C 2.3108 .64643 2.3221 .6197 2.3281 .58999 L 2.255 .58999 C 2.2508 .60603 2.2431 .6197 2.233 .63217 C 2.2229 .64465 2.2104 .65415 2.1968 .66069 C 2.1831 .66722 2.1683 .67079 2.1534 .67079 C 2.1326 .67079 2.1148 .66603 2.0993 .65593 C 2.0839 .64584 2.072 .63217 2.0631 .61376 C 2.0548 .59593 2.05 .57455 2.05 .55079 L 2.05 .41118 C 2.05 .38742 2.0542 .36663 2.0631 .34821 C 2.0714 .33039 2.0839 .31613 2.0993 .30603 C 2.1148 .29593 2.1332 .29118 2.1534 .29118 C 2.1683 .29118 2.1831 .29415 2.1968 .30069 C 2.2104 .30722 2.2229 .31613 2.233 .32861 C 2.2431 .34108 2.2508 .35534 2.255 .37257 L 2.3275 .37257 C 2.3215 .34227 2.3102 .31613 2.2942 .29356 C 2.2776 .27039 2.2574 .25316 2.233 .24069 C 2.2086 .22821 2.1819 .22227 2.1534 .22227 C 2.1184 .22227 2.0875 .22999 2.0613 .24544 Z " fill="#010202"/>
<path transform="matrix(12.353663,.00000791323,-.00001698411,-11.292625,124.2,74.44)" d="M 2.4326 .73494 L 2.5033 .73494 L 2.5033 .22702 L 2.4326 .22702 L 2.4326 .73494 Z M 2.4772 .51098 L 2.7576 .51098 L 2.7576 .44326 L 2.4772 .44326 L 2.4772 .51098 Z M 2.7201 .73494 L 2.7908 .73494 L 2.7908 .22702 L 2.7201 .22702 L 2.7201 .73494 Z " fill="#010202"/>
<path transform="matrix(12.353663,.00000791323,-.00001698411,-11.292625,124.2,74.44)" d="M 3.954 .24544 C 3.9273 .26088 3.9071 .28346 3.8922 .31197 C 3.8774 .34049 3.8702 .37376 3.8702 .41118 L 3.8702 .55079 C 3.8702 .58821 3.8774 .62148 3.8922 .65059 C 3.9071 .6791 3.9273 .70108 3.954 .71712 C 3.9807 .73257 4.0116 .74029 4.0467 .74029 C 4.0758 .74029 4.1025 .73435 4.1269 .72187 C 4.1512 .7094 4.1714 .69158 4.1881 .669 C 4.2047 .64643 4.2154 .6197 4.2213 .58999 L 4.1488 .58999 C 4.1447 .60603 4.137 .6197 4.1269 .63217 C 4.1168 .64465 4.1043 .65415 4.0906 .66069 C 4.077 .66722 4.0621 .67079 4.0473 .67079 C 4.0265 .67079 4.0086 .66603 3.9932 .65593 C 3.9778 .64584 3.9659 .63217 3.957 .61376 C 3.9486 .59593 3.9439 .57455 3.9439 .55079 L 3.9439 .41118 C 3.9439 .38742 3.9481 .36663 3.957 .34821 C 3.9653 .33039 3.9778 .31613 3.9932 .30603 C 4.0086 .29593 4.0271 .29118 4.0473 .29118 C 4.0621 .29118 4.077 .29415 4.0906 .30069 C 4.1043 .30722 4.1162 .31613 4.1269 .32861 C 4.137 .34108 4.1447 .35534 4.1488 .37257 L 4.2213 .37257 C 4.2154 .34227 4.2047 .31613 4.1881 .29356 C 4.1708 .27098 4.1506 .25316 4.1263 .24069 C 4.1019 .22821 4.0752 .22227 4.0467 .22227 C 4.0116 .22227 3.9807 .22999 3.954 .24544 Z " fill="#010202"/>
<path transform="matrix(12.353663,.00000791323,-.00001698411,-11.292625,124.2,74.44)" d="M 4.3259 .73494 L 4.3966 .73494 L 4.3966 .22702 L 4.3259 .22702 L 4.3259 .73494 Z M 4.3698 .51098 L 4.6502 .51098 L 4.6502 .44326 L 4.3698 .44326 L 4.3698 .51098 Z M 4.6128 .73494 L 4.6835 .73494 L 4.6835 .22702 L 4.6128 .22702 L 4.6128 .73494 Z " fill="#010202"/>
<path transform="matrix(12.353663,.00000791323,-.00001698411,-11.292625,124.2,74.44)" d="M 5.8473 .24544 C 5.8205 .26088 5.8003 .28346 5.7855 .31197 C 5.7706 .34049 5.7635 .37376 5.7635 .41118 L 5.7635 .55079 C 5.7635 .58821 5.7706 .62148 5.7855 .65059 C 5.8003 .6791 5.8205 .70108 5.8473 .71712 C 5.874 .73257 5.9043 .74029 5.9393 .74029 C 5.9685 .74029 5.9952 .73435 6.0195 .72187 C 6.0439 .7094 6.0641 .69158 6.0807 .669 C 6.0974 .64643 6.1081 .6197 6.114 .58999 L 6.0415 .58999 C 6.0374 .60603 6.0296 .6197 6.0195 .63217 C 6.0094 .64465 5.997 .65415 5.9833 .66069 C 5.9696 .66722 5.9548 .67079 5.9399 .67079 C 5.9191 .67079 5.9013 .66603 5.8859 .65593 C 5.8704 .64584 5.8585 .63217 5.8496 .61376 C 5.8413 .59593 5.8366 .57455 5.8366 .55079 L 5.8366 .41118 C 5.8366 .38742 5.8407 .36663 5.8496 .34821 C 5.858 .33039 5.8704 .31613 5.8859 .30603 C 5.9013 .29593 5.9197 .29118 5.9399 .29118 C 5.9548 .29118 5.9696 .29415 5.9833 .30069 C 5.997 .30722 6.0088 .31613 6.0195 .32861 C 6.0296 .34108 6.0374 .35534 6.0415 .37257 L 6.114 .37257 C 6.1081 .34227 6.0974 .31613 6.0807 .29356 C 6.0641 .27039 6.0439 .25316 6.0195 .24069 C 5.9952 .22821 5.9685 .22227 5.9399 .22227 C 5.9043 .22227 5.874 .22999 5.8473 .24544 Z " fill="#010202"/>
<path transform="matrix(12.353663,.00000791323,-.00001698411,-11.292625,124.2,74.44)" d="M 6.2185 .73494 L 6.2892 .73494 L 6.2892 .22702 L 6.2185 .22702 L 6.2185 .73494 Z M 6.2631 .51098 L 6.5435 .51098 L 6.5435 .44326 L 6.2631 .44326 L 6.2631 .51098 Z M 6.5061 .73494 L 6.5768 .73494 L 6.5768 .22702 L 6.5061 .22702 L 6.5061 .73494 Z " fill="#010202"/>
<path transform="matrix(12.353663,.00000791323,-.00001698411,-11.292625,124.2,74.44)" d="M 1.8023 .39633 C 1.7993 .39336 1.7964 .39217 1.7922 .39217 L 1.3877 .39217 C 1.3841 .39217 1.3805 .39336 1.3776 .39633 C 1.3746 .3993 1.3734 .40227 1.3734 .40643 C 1.3734 .40999 1.3746 .41356 1.3776 .41653 C 1.3805 .4195 1.3835 .42069 1.3877 .42069 L 1.7928 .42069 C 1.7964 .42069 1.7999 .4195 1.8029 .41653 C 1.8059 .41356 1.8071 .41059 1.8071 .40643 C 1.8071 .40227 1.8053 .39871 1.8023 .39633 Z " fill="#010202"/>
<path transform="matrix(12.353663,.00000791323,-.00001698411,-11.292625,124.2,74.44)" d="M 3.6956 .39633 C 3.6926 .39336 3.6896 .39217 3.6855 .39217 L 3.2803 .39217 C 3.2768 .39217 3.2732 .39336 3.2702 .39633 C 3.2673 .3993 3.2661 .40227 3.2661 .40643 C 3.2661 .40999 3.2673 .41356 3.2702 .41653 C 3.2732 .4195 3.2762 .42069 3.2803 .42069 L 3.6855 .42069 C 3.689 .42069 3.6926 .4195 3.6956 .41653 C 3.6985 .41356 3.6997 .41059 3.6997 .40643 C 3.6997 .40227 3.698 .39871 3.6956 .39633 Z " fill="#010202"/>
<path transform="matrix(12.353663,.00000791323,-.00001698411,-11.292625,124.2,74.44)" d="M 5.5883 .39633 C 5.5853 .39336 5.5823 .39217 5.5782 .39217 L 5.173 .39217 C 5.1694 .39217 5.1659 .39336 5.1629 .39633 C 5.1599 .3993 5.1587 .40227 5.1587 .40643 C 5.1587 .40999 5.1599 .41356 5.1629 .41653 C 5.1659 .4195 5.1688 .42069 5.173 .42069 L 5.5782 .42069 C 5.5817 .42069 5.5853 .4195 5.5883 .41653 C 5.5912 .41356 5.5924 .41059 5.5924 .40643 C 5.5924 .40227 5.5906 .39871 5.5883 .39633 Z " fill="#010202"/>
</g>
</g>
</g>
<g id="Layer-1" data-name="P">
<clipPath id="cp26">
<path transform="matrix(1,0,0,-1,0,841.92)" d="M 384.1 745.88 L 471.85 745.88 L 471.85 781.862 L 384.1 781.862 Z " fill-rule="evenodd"/>
</clipPath>
<g clip-path="url(#cp26)">
<clipPath id="cp27">
<path transform="matrix(12.381992,.000007660639,-.000009197669,-12.1985,384.1,96.03998)" d="M 0 0 L 7.0869 0 L 7.0869 2.9512 L 0 2.9512 Z " fill-rule="evenodd"/>
</clipPath>
<g clip-path="url(#cp27)">
<path transform="matrix(12.381992,.000007660639,-.000009197669,-12.1985,384.1,96.03998)" d="M 3.9641 2.1783 C 3.9516 2.1842 3.9414 2.1932 3.9336 2.2046 C 3.9258 2.2159 3.921 2.2297 3.9193 2.2458 L 3.9611 2.2458 C 3.9623 2.2375 3.9647 2.2303 3.9689 2.2249 C 3.9731 2.2195 3.9785 2.2153 3.9844 2.2129 C 3.9904 2.2106 3.9982 2.2088 4.0072 2.2088 C 4.0209 2.2088 4.0317 2.2123 4.0389 2.2195 C 4.0467 2.2267 4.0502 2.2369 4.0502 2.2506 L 4.0502 2.2596 C 4.0502 2.2746 4.0467 2.2859 4.0395 2.2937 C 4.0323 2.3015 4.0221 2.3057 4.009 2.3057 L 3.988 2.3057 L 3.988 2.3451 L 4.009 2.3451 C 4.0203 2.3451 4.0293 2.3487 4.0359 2.3553 C 4.0425 2.3625 4.0455 2.372 4.0455 2.3846 L 4.0455 2.3942 C 4.0455 2.4055 4.0419 2.4145 4.0353 2.4211 C 4.0287 2.4277 4.0191 2.4307 4.0066 2.4307 C 3.9994 2.4307 3.9934 2.4295 3.988 2.4265 C 3.9833 2.4241 3.9785 2.4199 3.9743 2.4145 C 3.9707 2.4091 3.9677 2.4019 3.9659 2.3942 L 3.924 2.3942 C 3.9264 2.4103 3.9318 2.4241 3.9396 2.4354 C 3.9468 2.4468 3.9563 2.4558 3.9683 2.4618 C 3.9797 2.4677 3.9928 2.4707 4.0078 2.4707 C 4.0335 2.4707 4.0526 2.4642 4.067 2.4504 C 4.0813 2.4366 4.0879 2.4181 4.0879 2.3936 L 4.0879 2.3888 C 4.0879 2.3738 4.0837 2.3613 4.076 2.3505 C 4.0682 2.3397 4.0568 2.3314 4.0419 2.3266 C 4.058 2.323 4.0706 2.3152 4.0789 2.3027 C 4.0879 2.2901 4.0921 2.2746 4.0921 2.2554 L 4.0921 2.2506 C 4.0921 2.2333 4.0885 2.2189 4.0819 2.207 C 4.0754 2.195 4.0658 2.1854 4.0532 2.1795 C 4.0407 2.1729 4.0257 2.1699 4.0078 2.1699 C 3.991 2.1693 3.9767 2.1723 3.9641 2.1783 Z " fill="#010202"/>
<path transform="matrix(12.381992,.000007660639,-.000009197669,-12.1985,384.1,96.03998)" d="M .97955 .025065 C .96699 .031047 .95682 .040018 .94905 .051382 C .94127 .062746 .93649 .076503 .93469 .092652 L .97656 .092652 C .97776 .084278 .98015 .077101 .98433 .071718 C .98852 .066335 .9939 .062148 .99989 .059756 C 1.0059 .057364 1.0136 .055569 1.0226 .055569 C 1.0364 .055569 1.0471 .059158 1.0543 .066335 C 1.0621 .073512 1.0657 .08368 1.0657 .097437 L 1.0657 .10641 C 1.0657 .12136 1.0621 .13273 1.0549 .1405 C 1.0477 .14828 1.0376 .15246 1.0244 .15246 L 1.0035 .15246 L 1.0035 .19194 L 1.0244 .19194 C 1.0358 .19194 1.0447 .19553 1.0513 .20211 C 1.0579 .20928 1.0609 .21885 1.0609 .23141 L 1.0609 .24038 C 1.0609 .25175 1.0573 .26072 1.0507 .2673 C 1.0441 .27388 1.0346 .27687 1.022 .27687 C 1.0148 .27687 1.0089 .27567 1.0029 .27268 C .99749 .27029 .99271 .2661 .98852 .26072 C .98433 .25534 .98194 .24816 .98015 .24038 L .93828 .24038 C .94127 .25653 .94606 .27029 .95383 .28165 C .96161 .29302 .97058 .30199 .98254 .30797 C .9939 .31395 1.0071 .31694 1.022 .31694 C 1.0471 .31694 1.0669 .31036 1.0812 .29661 C 1.095 .28345 1.1022 .26431 1.1022 .23979 L 1.1022 .235 C 1.1022 .22005 1.098 .20749 1.0902 .19672 C 1.0824 .18596 1.0711 .17758 1.0561 .1728 C 1.0723 .16921 1.0848 .16143 1.0932 .14887 C 1.1022 .13631 1.1063 .12076 1.1063 .10162 L 1.1063 .096838 C 1.1063 .079493 1.1028 .065139 1.0962 .053177 C 1.0896 .041214 1.08 .031645 1.0675 .025664 C 1.0549 .019084 1.0394 .016094 1.022 .016094 C 1.0071 .016094 .99211 .019084 .97955 .025065 Z " fill="#010202"/>
<path transform="matrix(12.381992,.000007660639,-.000009197669,-12.1985,384.1,96.03998)" d="M 6.9481 .025065 C 6.9355 .031047 6.9253 .040018 6.9176 .051382 C 6.9098 .062746 6.905 .076503 6.9032 .092652 L 6.9451 .092652 C 6.9463 .084278 6.9487 .077101 6.9529 .071718 C 6.957 .066335 6.9624 .062148 6.9684 .059756 C 6.9744 .057364 6.9822 .055569 6.9911 .055569 C 7.0049 .055569 7.0157 .059158 7.0228 .066335 C 7.0306 .073512 7.0342 .08368 7.0342 .097437 L 7.0342 .10641 C 7.0342 .12136 7.0306 .13273 7.0234 .1405 C 7.0163 .14828 7.0061 .15246 6.9929 .15246 L 6.972 .15246 L 6.972 .19194 L 6.9929 .19194 C 7.0043 .19194 7.0133 .19553 7.0198 .20211 C 7.0264 .20868 7.0294 .21885 7.0294 .23141 L 7.0294 .24038 C 7.0294 .25175 7.0258 .26072 7.0192 .2673 C 7.0127 .27388 7.0031 .27687 6.9905 .27687 C 6.9834 .27687 6.9774 .27567 6.9714 .27268 C 6.966 .27029 6.9612 .2661 6.957 .26072 C 6.9529 .25534 6.9505 .24816 6.9487 .24038 L 6.9068 .24038 C 6.9098 .25653 6.9146 .27029 6.9224 .28165 C 6.9301 .29302 6.9397 .30199 6.9511 .30797 C 6.9624 .31395 6.9756 .31694 6.9905 .31694 C 7.0157 .31694 7.0354 .31036 7.0498 .29661 C 7.0635 .28345 7.0707 .26431 7.0707 .23979 L 7.0707 .235 C 7.0707 .22005 7.0665 .20749 7.0587 .19672 C 7.0509 .18596 7.0396 .17758 7.0246 .1728 C 7.0408 .16921 7.0533 .16143 7.0617 .14887 C 7.0707 .13631 7.0749 .12076 7.0749 .10162 L 7.0749 .096838 C 7.0749 .079493 7.0713 .065139 7.0647 .053177 C 7.0581 .041214 7.0486 .031645 7.036 .025664 C 7.0234 .019084 7.0079 .016094 6.9905 .016094 C 6.9756 .016094 6.9606 .019084 6.9481 .025065 Z " fill="#010202"/>
<path transform="matrix(12.381992,.000007660639,-.000009197669,-12.1985,384.1,96.03998)" d="M 3.1256 2.3966 C 3.0986 2.4121 3.0783 2.4342 3.0634 2.463 C 3.0484 2.4917 3.0412 2.5252 3.0412 2.5628 L 3.0412 2.7028 C 3.0412 2.7405 3.0484 2.774 3.0634 2.8027 C 3.0783 2.8314 3.0986 2.8535 3.1256 2.8697 C 3.1525 2.8852 3.183 2.893 3.2183 2.893 C 3.2476 2.893 3.2745 2.887 3.299 2.8745 C 3.3235 2.8619 3.3439 2.8445 3.3606 2.8212 C 3.3774 2.7979 3.3881 2.7716 3.3941 2.7417 L 3.3205 2.7417 C 3.3164 2.7578 3.3086 2.7716 3.2984 2.7841 C 3.2882 2.7967 3.2757 2.8063 3.2619 2.8128 C 3.2482 2.8194 3.2332 2.823 3.2183 2.823 C 3.1973 2.823 3.1794 2.8182 3.1638 2.8081 C 3.1483 2.7979 3.1357 2.7841 3.1274 2.7656 C 3.119 2.7471 3.1142 2.7261 3.1142 2.7022 L 3.1142 2.5622 C 3.1142 2.5383 3.1184 2.5174 3.1274 2.4994 C 3.1363 2.4815 3.1483 2.4671 3.1638 2.457 C 3.1794 2.4468 3.1979 2.442 3.2183 2.442 C 3.2332 2.442 3.2482 2.445 3.2619 2.4516 C 3.2757 2.4582 3.2882 2.4671 3.2984 2.4797 C 3.3086 2.4923 3.3164 2.5066 3.3205 2.524 L 3.3941 2.524 C 3.3881 2.4941 3.3768 2.4671 3.3606 2.4444 C 3.3439 2.4217 3.3235 2.4037 3.299 2.3912 C 3.2745 2.3792 3.2476 2.3726 3.2183 2.3726 C 3.183 2.3726 3.1525 2.381 3.1256 2.3966 Z " fill="#010202"/>
<path transform="matrix(12.381992,.000007660639,-.000009197669,-12.1985,384.1,96.03998)" d="M 3.5 2.8876 L 3.5718 2.8876 L 3.5718 2.378 L 3.5 2.378 L 3.5 2.8876 Z M 3.5448 2.6633 L 3.8277 2.6633 L 3.8277 2.5951 L 3.5448 2.5951 L 3.5448 2.6633 Z M 3.7901 2.8876 L 3.8618 2.8876 L 3.8618 2.378 L 3.7901 2.378 L 3.7901 2.8876 Z " fill="#010202"/>
<path transform="matrix(12.381992,.000007660639,-.000009197669,-12.1985,384.1,96.03998)" d="M 3.5622 1.2404 L 3.6339732 1.2404 L 3.6339732 1.87081 L 3.5622 1.87081 Z " fill="#010202"/>
<path transform="matrix(12.381992,.000007660639,-.000009197669,-12.1985,384.1,96.03998)" d="M .141 .24278 C .11409 .25833 .093751 .28046 .078799 .30917 C .063846 .33788 .056669 .37137 .056669 .40905 L .056669 .54901 C .056669 .58669 .063846 .62018 .078799 .64889 C .093751 .6776 .11409 .69973 .141 .71588 C .16792 .73143 .19902 .73981 .23431 .73981 C .26361 .73981 .29053 .73382 .31505 .72126 C .33957 .7087 .35991 .69136 .37666 .66803 C .3934 .64471 .40417 .61839 .41015 .58848 L .33658 .58848 C .3324 .60463 .32462 .61839 .31445 .63095 C .30429 .64351 .29173 .65308 .27797 .65966 C .26421 .66624 .24926 .66983 .23431 .66983 C .21337 .66983 .19543 .66504 .17988 .65487 C .16433 .64471 .15177 .63095 .14339 .61241 C .13502 .59387 .13024 .57293 .13024 .54901 L .13024 .40905 C .13024 .38513 .13442 .36419 .14339 .34625 C .15237 .32831 .16433 .31395 .17988 .30378 C .19543 .29362 .21397 .28883 .23431 .28883 C .24926 .28883 .26421 .29182 .27797 .2984 C .29173 .30498 .30429 .31395 .31445 .32651 C .32462 .33907 .3324 .35343 .33658 .37077 L .40955 .37077 C .40357 .34087 .39221 .31395 .37606 .29122 C .35931 .2685 .33898 .25055 .31445 .23799 C .28993 .22543 .26302 .21945 .23431 .21945 C .19902 .21945 .16792 .22723 .141 .24278 Z " fill="#010202"/>
<path transform="matrix(12.381992,.000007660639,-.000009197669,-12.1985,384.1,96.03998)" d="M .51542 .73382 L .58719 .73382 L .58719 .22424 L .51542 .22424 L .51542 .73382 Z M .56028 .50953 L .84318 .50953 L .84318 .44135 L .56028 .44135 L .56028 .50953 Z M .8055 .73382 L .87727 .73382 L .87727 .22424 L .8055 .22424 L .8055 .73382 Z " fill="#010202"/>
<path transform="matrix(12.381992,.000007660639,-.000009197669,-12.1985,384.1,96.03998)" d="M 3.2703 .24278 C 3.2434 .25833 3.2231 .28046 3.2081 .30917 C 3.1931 .33788 3.186 .37137 3.186 .40905 L 3.186 .54901 C 3.186 .58669 3.1931 .62018 3.2081 .64889 C 3.2231 .6776 3.2434 .69973 3.2703 .71588 C 3.2972 .73143 3.3283 .73981 3.3636 .73981 C 3.3929 .73981 3.4198 .73382 3.4444 .72126 C 3.4689 .7087 3.4892 .69136 3.506 .66803 C 3.5227 .64471 3.5335 .61839 3.5395 .58848 L 3.4659 .58848 C 3.4617 .60463 3.4539 .61839 3.4438 .63095 C 3.4336 .64351 3.421 .65308 3.4073 .65966 C 3.3935 .66624 3.3786 .66983 3.3636 .66983 C 3.3427 .66983 3.3247 .66504 3.3092 .65487 C 3.2936 .64471 3.2811 .63095 3.2727 .61241 C 3.2643 .59387 3.2595 .57293 3.2595 .54901 L 3.2595 .40905 C 3.2595 .38513 3.2637 .36419 3.2727 .34625 C 3.2817 .32831 3.2936 .31395 3.3092 .30378 C 3.3247 .29362 3.3433 .28883 3.3636 .28883 C 3.3786 .28883 3.3935 .29182 3.4073 .2984 C 3.421 .30498 3.4336 .31395 3.4438 .32651 C 3.4539 .33907 3.4617 .35343 3.4659 .37077 L 3.5395 .37077 C 3.5335 .34087 3.5221 .31395 3.506 .29122 C 3.4892 .2685 3.4689 .25055 3.4444 .23799 C 3.4198 .22543 3.3929 .21945 3.3642 .21945 C 3.3283 .21945 3.2972 .22723 3.2703 .24278 Z " fill="#010202"/>
<path transform="matrix(12.381992,.000007660639,-.000009197669,-12.1985,384.1,96.03998)" d="M 3.6453 .73382 L 3.7171 .73382 L 3.7171 .22424 L 3.6453 .22424 L 3.6453 .73382 Z M 3.6896 .50953 L 3.9725 .50953 L 3.9725 .44135 L 3.6896 .44135 L 3.6896 .50953 Z M 3.9348 .73382 L 4.0066 .73382 L 4.0066 .22424 L 3.9348 .22424 L 3.9348 .73382 Z " fill="#010202"/>
<path transform="matrix(12.381992,.000007660639,-.000009197669,-12.1985,384.1,96.03998)" d="M 6.1083 .24278 C 6.0814 .25833 6.0611 .28046 6.0461 .30917 C 6.0312 .33788 6.024 .37137 6.024 .40905 L 6.024 .54901 C 6.024 .58669 6.0312 .62018 6.0461 .64889 C 6.0611 .6776 6.0814 .69973 6.1083 .71588 C 6.1352 .73203 6.1663 .73981 6.2016 .73981 C 6.2309 .73981 6.2579 .73382 6.2824 .72126 C 6.3069 .7087 6.3272 .69136 6.344 .66803 C 6.3607 .64471 6.3715 .61839 6.3775 .58848 L 6.3045 .58848 C 6.3003 .60463 6.2925 .61839 6.2824 .63095 C 6.2722 .64351 6.2597 .65308 6.2459 .65966 C 6.2321 .66624 6.2172 .66983 6.2022 .66983 C 6.1813 .66983 6.1634 .66504 6.1472 .65487 C 6.1317 .64471 6.1191 .63095 6.1107 .61241 C 6.1023 .59387 6.0976 .57293 6.0976 .54901 L 6.0976 .40905 C 6.0976 .38513 6.1018 .36419 6.1107 .34625 C 6.1197 .32831 6.1317 .31395 6.1472 .30378 C 6.1628 .29362 6.1813 .28883 6.2022 .28883 C 6.2172 .28883 6.2321 .29182 6.2459 .2984 C 6.2597 .30498 6.2722 .31395 6.2824 .32651 C 6.2925 .33907 6.3003 .35343 6.3045 .37077 L 6.3775 .37077 C 6.3715 .34087 6.3601 .31395 6.344 .29122 C 6.3278 .2685 6.3069 .25055 6.2824 .23799 C 6.2579 .22543 6.2309 .21945 6.2022 .21945 C 6.1663 .21945 6.1352 .22723 6.1083 .24278 Z " fill="#010202"/>
<path transform="matrix(12.381992,.000007660639,-.000009197669,-12.1985,384.1,96.03998)" d="M 6.4833 .73382 L 6.5551 .73382 L 6.5551 .22424 L 6.4833 .22424 L 6.4833 .73382 Z M 6.5276 .50953 L 6.8105 .50953 L 6.8105 .44135 L 6.5276 .44135 L 6.5276 .50953 Z M 6.7728 .73382 L 6.8446 .73382 L 6.8446 .22424 L 6.7728 .22424 L 6.7728 .73382 Z " fill="#010202"/>
<path transform="matrix(12.381992,.000007660639,-.000009197669,-12.1985,384.1,96.03998)" d="M 2.3253 .3941 C 2.3223 .39111 2.3193 .38991 2.3151 .38991 L 1.9066 .38991 C 1.903 .38991 1.8994 .39111 1.8965 .3941 C 1.8935 .39709 1.8923 .40008 1.8923 .40427 C 1.8923 .40786 1.8935 .41144 1.8965 .41443 C 1.8994 .41742 1.9024 .41862 1.9066 .41862 L 2.3151 .41862 C 2.3187 .41862 2.3223 .41742 2.3253 .41443 C 2.3283 .41144 2.3295 .40845 2.3295 .40427 C 2.3301 .40008 2.3283 .39649 2.3253 .3941 Z " fill="#010202"/>
<path transform="matrix(12.381992,.000007660639,-.000009197669,-12.1985,384.1,96.03998)" d="M 5.3099 .3941 C 5.3069 .39111 5.3039 .38991 5.2997 .38991 L 4.8912 .38991 C 4.8876 .38991 4.884 .39111 4.881 .3941 C 4.878 .39709 4.8768 .40008 4.8768 .40427 C 4.8768 .40786 4.878 .41144 4.881 .41443 C 4.884 .41742 4.887 .41862 4.8912 .41862 L 5.2997 .41862 C 5.3033 .41862 5.3069 .41742 5.3099 .41443 C 5.3128 .41144 5.314 .40845 5.314 .40427 C 5.314 .40008 5.3128 .39649 5.3099 .3941 Z " fill="#010202"/>
</g>
</g>
</g>
</g>
</g>
</svg>
