<?xml version="1.0" encoding="UTF-8" standalone="no"?>
<!DOCTYPE svg PUBLIC "-//W3C//DTD SVG 1.1//EN" "http://www.w3.org/Graphics/SVG/1.1/DTD/svg11.dtd">
<svg xmlns="http://www.w3.org/2000/svg" xmlns:xlink="http://www.w3.org/1999/xlink" version="1.1" width="595.32pt" height="841.92pt" viewBox="0 0 595.32 841.92">
<g enable-background="new">
<g>
<g id="Layer-1" data-name="P">
<clipPath id="cp0">
<path transform="matrix(1,0,0,-1,0,841.92)" d="M .000008871 0 L 595.32 0 L 595.32 841.92 L .000008871 841.92 Z " fill-rule="evenodd"/>
</clipPath>
<g clip-path="url(#cp0)">
<symbol id="font_1_279">
<path d="M .21289063 0 C .17317708 0 .1381836 .0071614587 .107910159 .021484375 C .07763672 .036132814 .053222658 .057128908 .03466797 .084472659 C .016438803 .11214193 .0048828127 .14534505 0 .18408203 L .1015625 .18408203 C .10449219 .16389974 .110839847 .14729817 .12060547 .13427735 C .1303711 .12125651 .14290364 .11149088 .15820313 .10498047 C .17382813 .09879557 .1920573 .095703128 .21289063 .095703128 C .24576824 .095703128 .27132163 .10449219 .28955079 .12207031 C .30777995 .13964844 .31689454 .16438802 .31689454 .19628906 L .31689454 .21777344 C .31689454 .25325523 .30826823 .28059898 .29101563 .2998047 C .27376304 .31933595 .24934896 .32910157 .21777344 .32910157 L .16748047 .32910157 L .16748047 .42382813 L .21777344 .42382813 C .2454427 .42382813 .2669271 .4321289 .28222657 .44873048 C .29752604 .46533204 .30517579 .48876954 .30517579 .51904299 L .30517579 .5410156 C .30517579 .56901046 .29703776 .59065756 .28076173 .60595706 C .2648112 .62125656 .24202474 .62890627 .21240235 .62890627 C .19547527 .62890627 .18033855 .62565109 .16699219 .6191406 C .15364583 .61295577 .14225261 .6031901 .1328125 .58984377 C .123697917 .57682296 .11702474 .5603841 .11279297 .54052737 L .01171875 .54052737 C .018229166 .57926437 .030436198 .61246749 .048339845 .6401367 C .06656901 .66780599 .08951823 .68880209 .1171875 .703125 C .14485677 .71744796 .17659505 .7246094 .21240235 .7246094 C .27360026 .7246094 .32096354 .7084961 .3544922 .67626956 C .38802085 .64404299 .40478517 .5986328 .40478517 .54003909 L .40478517 .5283203 C .40478517 .49283854 .39518229 .46191407 .37597657 .43554688 C .35677085 .4091797 .32958985 .38997398 .2944336 .3779297 C .33317057 .36946617 .3631185 .3504232 .38427735 .32080079 C .40576173 .29117839 .4165039 .25341798 .4165039 .20751953 L .4165039 .19580078 C .4165039 .15445964 .40852867 .119140628 .39257813 .08984375 C .3766276 .060546876 .35335288 .0382487 .3227539 .022949219 C .29248048 .0076497399 .25585938 0 .21289063 0 Z "/>
</symbol>
<use xlink:href="#font_1_279" transform="matrix(12,0,0,-12,36.527345,48.027894)"/>
</g>
<clipPath id="cp2">
<path transform="matrix(1,0,0,-1,0,841.92)" d="M .000008871 0 L 595.32 0 L 595.32 841.92 L .000008871 841.92 Z " fill-rule="evenodd"/>
</clipPath>
<g clip-path="url(#cp2)">
<symbol id="font_3_292">
<path d="M 0 .10449219 L .10449219 .10449219 L .10449219 0 L 0 0 L 0 .10449219 Z "/>
</symbol>
<symbol id="font_3_1">
<path d="M 0 0 Z "/>
</symbol>
<symbol id="font_3_68">
<path d="M .24902344 0 C .19661458 0 .1516927 .010253906 .11425781 .030761719 C .07714844 .05159505 .048828126 .08170573 .029296875 .12109375 C .009765625 .1608073 0 .2084961 0 .26416017 L 0 .71728518 L .099609378 .71728518 L .099609378 .2607422 C .099609378 .20898438 .11263021 .16894531 .13867188 .140625 C .16471355 .11230469 .20149739 .09814453 .24902344 .09814453 C .296875 .09814453 .33382163 .11230469 .35986329 .140625 C .38623048 .16894531 .39941407 .20898438 .39941407 .2607422 L .39941407 .71728518 L .49902345 .71728518 L .49902345 .26416017 C .49902345 .2084961 .4892578 .1608073 .46972657 .12109375 C .4501953 .08170573 .42171226 .05159505 .38427735 .030761719 C .34684245 .010253906 .3017578 0 .24902344 0 Z "/>
</symbol>
<symbol id="font_3_fa">
<path d="M .3642578 .42285157 L .12060547 .092285159 L .3774414 .092285159 L .3774414 0 L 0 0 L 0 .0859375 L .25 .41455079 L .0068359377 .41455079 L .0068359377 .50683596 L .3642578 .50683596 L .3642578 .42285157 Z "/>
</symbol>
<symbol id="font_3_e7">
<path d="M .30566407 .51416018 L .40478517 .51416018 L .40478517 .0073242189 L .30566407 .0073242189 L .30566407 .51416018 M .099609378 .20605469 C .099609378 .17057292 .108561199 .1430664 .12646485 .123535159 C .14469402 .10432943 .17024739 .09472656 .203125 .09472656 C .23567708 .09472656 .26090495 .10335287 .2788086 .12060547 C .29671226 .13785808 .30566407 .16243489 .30566407 .19433594 L .3125 .088378909 C .30208335 .063313808 .28515626 .042317708 .26171876 .025390625 C .23828125 .008463542 .20947266 0 .17529297 0 C .11930338 0 .07600912 .017903647 .045410158 .053710939 C .015136719 .08984375 0 .140625 0 .20605469 L 0 .51416018 L .099609378 .51416018 L .099609378 .20605469 Z "/>
</symbol>
<symbol id="font_3_d5">
<path d="M 0 .7128906 L .099609378 .7128906 L .099609378 0 L 0 0 L 0 .7128906 M .22705078 .19873047 C .19547527 .19873047 .16796875 .20621746 .14453125 .2211914 C .12109375 .23649089 .10384115 .25797526 .09277344 .28564454 L .099609378 .39160157 C .099609378 .36979167 .103515628 .35123698 .111328128 .3359375 C .119140628 .32063804 .1303711 .30891929 .14501953 .30078126 C .15999349 .29264323 .17805989 .28857423 .19921875 .28857423 C .23209636 .28857423 .25748698 .2985026 .27539063 .31835938 C .29361979 .33854167 .30273438 .36686198 .30273438 .4033203 L .30273438 .5131836 C .30273438 .55029299 .29361979 .57910159 .27539063 .5996094 C .25748698 .6201172 .23209636 .6303711 .19921875 .6303711 C .17805989 .6303711 .15999349 .62646487 .14501953 .61865237 C .1303711 .61083987 .119140628 .5992839 .111328128 .5839844 C .103515628 .56901046 .099609378 .55094406 .099609378 .52978518 L .08935547 .6274414 C .104654949 .6570638 .12467448 .6798503 .14941406 .6958008 C .17415364 .71207687 .20166016 .72021487 .2319336 .72021487 C .26774089 .72021487 .29833985 .71207687 .32373048 .6958008 C .34944663 .6798503 .36897788 .6564128 .38232423 .6254883 C .39567057 .5945638 .40234376 .5572917 .40234376 .5136719 L .40234376 .4033203 C .40234376 .36035157 .3955078 .32356773 .38183595 .29296876 C .36816407 .26236979 .34814454 .2389323 .32177735 .22265625 C .29541017 .20670574 .26383464 .19873047 .22705078 .19873047 Z "/>
</symbol>
<symbol id="font_3_9b">
<path d="M .22216797 0 C .17529297 0 .1352539 .0087890629 .10205078 .026367188 C .068847659 .043945314 .04345703 .06966146 .025878907 .103515628 C .008626302 .13769531 0 .1788737 0 .22705078 L 0 .2841797 C 0 .3343099 .008300781 .37711589 .024902344 .41259767 C .041829427 .44807945 .06624349 .47509767 .09814453 .49365235 C .13004558 .51220706 .16845703 .5214844 .2133789 .5214844 C .25569663 .5214844 .29182945 .51090499 .32177735 .4897461 C .35172526 .46858726 .37451173 .43798829 .39013673 .39794923 C .40608726 .35791017 .4140625 .30989585 .4140625 .25390626 L .4140625 .22070313 L .072265628 .22070313 L .072265628 .30078126 L .31933595 .30078126 C .31640626 .3421224 .30566407 .3741862 .28710938 .39697267 C .26888023 .42008464 .24430339 .43164063 .2133789 .43164063 C .17561849 .43164063 .14632161 .41927085 .12548828 .39453126 C .10498047 .36979167 .09472656 .3347982 .09472656 .28955079 L .09472656 .22509766 C .09472656 .18310547 .10579427 .1508789 .12792969 .12841797 C .15006511 .10595703 .18147786 .09472656 .22216797 .09472656 C .24235027 .09472656 .26236979 .09879557 .28222657 .106933597 C .30208335 .11507162 .31982423 .12646485 .33544923 .14111328 L .4008789 .075683597 C .3758138 .05159505 .34765626 .032877607 .31640626 .01953125 C .28515626 .0065104167 .2537435 0 .22216797 0 Z "/>
</symbol>
<symbol id="font_3_c0">
<path d="M 0 .35205079 L .24072266 .4716797 L .24072266 .37646485 L 0 .25683595 L 0 .35205079 M .16308594 .13330078 C .16308594 .12093099 .16569011 .111328128 .17089844 .10449219 C .1764323 .09798177 .18408203 .09472656 .19384766 .09472656 L .24072266 .09472656 L .24072266 0 L .1821289 0 C .14436849 0 .11507162 .01171875 .09423828 .03515625 C .07373047 .05859375 .06347656 .09163412 .06347656 .13427735 L .06347656 .71240237 L .16308594 .71240237 L .16308594 .13330078 Z "/>
</symbol>
<symbol id="font_3_c2">
<path d="M 0 .50683596 L .099609378 .50683596 L .099609378 0 L 0 0 L 0 .50683596 M .3076172 .3071289 C .3076172 .3429362 .29833985 .37060548 .27978517 .39013673 C .26123048 .40966798 .2351888 .4194336 .20166016 .4194336 C .16910808 .4194336 .1438802 .41080729 .12597656 .3935547 C .10839844 .3763021 .099609378 .35205079 .099609378 .32080079 L .08935547 .41845704 C .10498047 .449056 .12532552 .47265626 .15039063 .4892578 C .17578125 .5058594 .20377605 .51416018 .234375 .51416018 C .28938804 .51416018 .3318685 .49609376 .3618164 .45996095 C .39208985 .42415367 .40722657 .3733724 .40722657 .3076172 L .40722657 0 L .3076172 0 L .3076172 .3071289 Z "/>
</symbol>
<symbol id="font_3_af">
<path d="M 0 .70996096 L .099609378 .70996096 L .099609378 .61035159 L 0 .61035159 L 0 .70996096 M 0 .50683596 L .099609378 .50683596 L .099609378 0 L 0 0 L 0 .50683596 Z "/>
</symbol>
<symbol id="font_3_b8">
<path d="M 0 .09472656 L .055664064 .09472656 C .06477865 .09472656 .071777347 .09814453 .076660159 .10498047 C .08186849 .11149088 .084472659 .12093099 .084472659 .13330078 L .084472659 .7128906 L .18408203 .7128906 L .18408203 .13427735 C .18408203 .09163412 .17366536 .05859375 .15283203 .03515625 C .13232422 .01171875 .1031901 0 .06542969 0 L 0 0 L 0 .09472656 M .083496097 .9160156 L .1850586 .9160156 L .1850586 .81640627 L .083496097 .81640627 L .083496097 .9160156 Z "/>
</symbol>
<symbol id="font_3_c8">
<path d="M .20898438 0 C .16503906 0 .1274414 .008626302 .096191409 .025878907 C .064941409 .04313151 .041015626 .06819662 .024414063 .10107422 C .0081380209 .13427735 0 .17415364 0 .22070313 L 0 .30322267 C 0 .3491211 .0081380209 .38834635 .024414063 .42089845 C .041015626 .45377604 .064941409 .47867839 .096191409 .49560548 C .1274414 .5128581 .16503906 .5214844 .20898438 .5214844 C .2529297 .5214844 .29052735 .5128581 .32177735 .49560548 C .35302735 .47867839 .37679038 .45377604 .3930664 .42089845 C .40966798 .38834635 .41796876 .3491211 .41796876 .30322267 L .41796876 .21923828 C .41796876 .17301433 .40966798 .13346355 .3930664 .10058594 C .37679038 .06803385 .35302735 .04313151 .32177735 .025878907 C .29052735 .008626302 .2529297 0 .20898438 0 M .20898438 .09472656 C .24381511 .09472656 .27067057 .10563151 .28955079 .1274414 C .3087565 .1492513 .31835938 .17985027 .31835938 .21923828 L .31835938 .30322267 C .31835938 .3426107 .3087565 .37304688 .28955079 .39453126 C .27067057 .41601563 .24381511 .4267578 .20898438 .4267578 C .17415364 .4267578 .14713542 .41601563 .12792969 .39453126 C .10904948 .37304688 .099609378 .3426107 .099609378 .30322267 L .099609378 .21923828 C .099609378 .17985027 .10904948 .1492513 .12792969 .1274414 C .14713542 .10563151 .17415364 .09472656 .20898438 .09472656 Z "/>
</symbol>
<symbol id="font_3_dc">
<path d="M .22070313 0 C .1907552 0 .16259766 .0029296876 .13623047 .0087890629 C .110188808 .0146484379 .08577474 .0234375 .06298828 .03515625 C .040201826 .046875 .019205729 .061523439 0 .07910156 L .05908203 .15185547 C .08642578 .13102214 .11360677 .11539713 .140625 .10498047 C .16764324 .094563808 .19433594 .08935547 .22070313 .08935547 C .26009117 .08935547 .28955079 .0953776 .30908204 .107421878 C .3289388 .119791667 .3388672 .1381836 .3388672 .16259766 C .3388672 .1788737 .3334961 .19108074 .3227539 .19921875 C .31201173 .20735677 .29866538 .21272786 .28271485 .21533203 C .2667643 .21826172 .24430339 .22086589 .21533203 .22314453 C .21272786 .22314453 .20996094 .22314453 .20703125 .22314453 C .20410156 .22347005 .20133464 .22379558 .19873047 .2241211 C .19742839 .2241211 .1961263 .2241211 .19482422 .2241211 C .19352214 .22444661 .19222005 .22460938 .19091797 .22460938 C .15804036 .22721355 .13020833 .2319336 .107421878 .23876953 C .084635417 .24593099 .065592449 .2591146 .05029297 .2783203 C .03531901 .29752604 .027832032 .32503257 .027832032 .36083985 C .027832032 .39664714 .03515625 .42643229 .049804689 .4501953 C .064453128 .47395835 .08626302 .49169923 .115234378 .50341799 C .14420574 .5154622 .1805013 .5214844 .2241211 .5214844 C .25048829 .5214844 .27555339 .51904299 .2993164 .51416018 C .32340495 .50927737 .34635417 .5019531 .36816407 .4921875 C .38997398 .4827474 .41097007 .47070313 .43115235 .4560547 L .37109376 .38330079 C .34570313 .3995768 .32063804 .41178385 .29589845 .41992188 C .27148438 .4280599 .2475586 .4321289 .2241211 .4321289 C .19026692 .4321289 .1648763 .42626954 .14794922 .41455079 C .13102214 .40315757 .122558597 .38590495 .122558597 .36279298 C .122558597 .3491211 .12727864 .3388672 .13671875 .33203126 C .14648438 .3251953 .1586914 .32063804 .17333985 .31835938 C .18798828 .31608073 .20882161 .3141276 .23583985 .3125 C .23779297 .31217448 .2397461 .31201173 .24169922 .31201173 C .24397786 .31201173 .24625652 .31184898 .24853516 .31152345 C .24951172 .31152345 .25048829 .31152345 .25146485 .31152345 C .2524414 .31152345 .25341798 .3113607 .25439454 .31103517 C .2898763 .3087565 .31998698 .30403648 .34472657 .296875 C .36979167 .28971354 .39078776 .27555339 .40771485 .25439454 C .42464195 .23323567 .43310548 .20263672 .43310548 .16259766 C .43310548 .12613933 .42529298 .09586588 .40966798 .071777347 C .39404298 .048014326 .37044273 .030110678 .3388672 .018066407 C .3076172 .0060221354 .26822917 0 .22070313 0 Z "/>
</symbol>
<symbol id="font_3_f4">
<path d="M 0 .50683596 L .104003909 .50683596 L .19384766 .14501953 L .3203125 .50683596 L .38964845 .50683596 L .5161133 .14501953 L .60595706 .50683596 L .70996096 .50683596 L .55371096 0 L .47851563 0 L .35498048 .35009767 L .23144531 0 L .15625 0 L 0 .50683596 Z "/>
</symbol>
<symbol id="font_3_d8">
<path d="M 0 .50683596 L .099609378 .50683596 L .099609378 0 L 0 0 L 0 .50683596 M .2788086 .38671876 C .27001954 .39746095 .2589518 .40559898 .24560547 .4111328 C .23225911 .41666667 .21679688 .4194336 .19921875 .4194336 C .16764324 .4194336 .1430664 .41064454 .12548828 .3930664 C .10823568 .3758138 .099609378 .35172526 .099609378 .32080079 L .08935547 .41845704 C .10498047 .44873048 .12516277 .47216798 .14990235 .48876954 C .17464192 .5056966 .20198567 .51416018 .2319336 .51416018 C .25504557 .51416018 .2758789 .5107422 .2944336 .50390627 C .3133138 .49739585 .3297526 .48763023 .34375 .47460938 L .2788086 .38671876 Z "/>
</symbol>
<symbol id="font_3_28d">
<path d="M 0 .26660157 L .10449219 .26660157 L .10449219 .10839844 L 0 0 L 0 .26660157 Z "/>
</symbol>
<symbol id="font_3_8a">
<path d="M .31054688 .5263672 C .31054688 .5595703 .30159507 .58528646 .2836914 .6035156 C .26611329 .6220703 .24104817 .63134768 .2084961 .63134768 C .1883138 .63134768 .16845703 .6282552 .14892578 .6220703 C .12972005 .61588546 .11263021 .6072591 .09765625 .5961914 L .024902344 .6459961 C .044108076 .6691081 .06933594 .6870117 .10058594 .69970706 C .13216146 .71272787 .16715496 .7192383 .2055664 .7192383 C .2475586 .7192383 .28352867 .7117513 .31347657 .69677737 C .34342448 .6821289 .36621095 .66064456 .38183595 .6323242 C .39746095 .6043294 .40527345 .5704753 .40527345 .5307617 L .40527345 .20507813 L .31054688 .20507813 L .31054688 .5263672 M .18652344 .1977539 C .12402344 .1977539 .077311199 .21061199 .04638672 .23632813 C .015462239 .26236979 0 .3017578 0 .3544922 C 0 .4046224 .014160156 .44222007 .04248047 .46728517 C .07080078 .49235026 .11360677 .5048828 .17089844 .5048828 L .3149414 .5048828 L .32177735 .4248047 L .17138672 .4248047 C .14534505 .4248047 .1258138 .4189453 .11279297 .40722657 C .100097659 .39583335 .09375 .37825523 .09375 .3544922 C .09375 .32877604 .10221354 .30973307 .119140628 .29736329 C .13639324 .2849935 .16243489 .2788086 .19726563 .2788086 C .23535156 .2788086 .26367188 .2828776 .28222657 .29101563 C .30110679 .29915367 .31054688 .31184898 .31054688 .32910157 L .32080079 .2578125 C .31201173 .24414063 .30110679 .23291016 .28808595 .2241211 C .27539063 .21533203 .26057945 .20882161 .24365235 .20458985 C .22672527 .20003255 .2076823 .1977539 .18652344 .1977539 M .3828125 0 C .33821617 0 .3058268 .0076497399 .28564454 .022949219 C .26546226 .037923177 .2553711 .06233724 .2553711 .096191409 C .2553711 .123535159 .26627604 .1484375 .28808595 .17089844 C .30989585 .19303386 .3408203 .21207683 .38085938 .22802735 L .40527345 .20507813 C .38216148 .1907552 .36523438 .1764323 .3544922 .16210938 C .34407554 .14778646 .3388672 .13216146 .3388672 .115234378 C .3388672 .1031901 .34228517 .094563808 .3491211 .08935547 C .35628257 .08382162 .36751304 .08105469 .3828125 .08105469 L .40527345 .08105469 L .40527345 0 L .3828125 0 Z "/>
</symbol>
<symbol id="font_3_90">
<path d="M .21923828 0 C .17301433 0 .13346355 .008626302 .10058594 .025878907 C .06803385 .04313151 .04313151 .06819662 .025878907 .10107422 C .008626302 .13395183 0 .17366536 0 .22021485 L 0 .30371095 C 0 .34960938 .008626302 .38883464 .025878907 .42138673 C .04313151 .4539388 .06803385 .47867839 .10058594 .49560548 C .13346355 .5128581 .17301433 .5214844 .21923828 .5214844 C .24560547 .5214844 .27034507 .5182292 .29345704 .51171877 C .31689454 .5055339 .33789063 .49641929 .3564453 .484375 C .375 .47233073 .39046226 .45768229 .40283204 .4404297 L .3310547 .37597657 C .31673179 .3922526 .29996745 .40478517 .28076173 .41357423 C .261556 .42236329 .24153646 .4267578 .22070313 .4267578 C .18229167 .4267578 .15250652 .41601563 .13134766 .39453126 C .110188808 .37304688 .099609378 .34277345 .099609378 .30371095 L .099609378 .22021485 C .099609378 .18017578 .11002604 .1492513 .13085938 .1274414 C .15201824 .10563151 .18196614 .09472656 .22070313 .09472656 C .24186199 .09472656 .26204429 .09944662 .28125 .10888672 C .30045573 .11832682 .31705729 .13167317 .3310547 .14892578 L .40283204 .079589847 C .39013673 .06266276 .37451173 .048177083 .35595704 .036132814 C .33740235 .024414063 .31640626 .015462239 .29296876 .009277344 C .26985679 .003092448 .24527996 0 .21923828 0 Z "/>
</symbol>
<symbol id="font_3_82">
<path d="M .31054688 .32861329 C .31054688 .3618164 .30159507 .38753257 .2836914 .40576173 C .26611329 .4243164 .24104817 .43359376 .2084961 .43359376 C .1883138 .43359376 .16845703 .4305013 .14892578 .4243164 C .12972005 .4181315 .11263021 .40950523 .09765625 .3984375 L .024902344 .4482422 C .044108076 .47135417 .06933594 .4892578 .10058594 .5019531 C .13216146 .51497396 .16715496 .5214844 .2055664 .5214844 C .2475586 .5214844 .28352867 .5139974 .31347657 .49902345 C .34342448 .484375 .36621095 .46289063 .38183595 .4345703 C .39746095 .40657554 .40527345 .37272135 .40527345 .3330078 L .40527345 .0073242189 L .31054688 .0073242189 L .31054688 .32861329 M .18652344 0 C .12402344 0 .077311199 .012858073 .04638672 .03857422 C .015462239 .06461588 0 .104003909 0 .15673828 C 0 .20686849 .014160156 .24446614 .04248047 .26953126 C .07080078 .29459635 .11360677 .3071289 .17089844 .3071289 L .3149414 .3071289 L .32177735 .22705078 L .17138672 .22705078 C .14534505 .22705078 .1258138 .2211914 .11279297 .20947266 C .100097659 .19807942 .09375 .1805013 .09375 .15673828 C .09375 .13102214 .10221354 .111979167 .119140628 .099609378 C .13639324 .087239589 .16243489 .08105469 .19726563 .08105469 C .23535156 .08105469 .26367188 .085123699 .28222657 .09326172 C .30110679 .10139974 .31054688 .114095058 .31054688 .13134766 L .32080079 .060058595 C .31201173 .04638672 .30110679 .03515625 .28808595 .026367188 C .27539063 .017578125 .26057945 .011067708 .24365235 .0068359377 C .22672527 .0022786458 .2076823 0 .18652344 0 Z "/>
</symbol>
<symbol id="font_3_f6">
<path d="M .44873048 .7182617 L .23291016 .09277344 C .22509766 .06966146 .21484375 .051432294 .20214844 .038085939 C .18945313 .024414063 .17382813 .0146484379 .15527344 .0087890629 C .13671875 .0029296876 .11393229 0 .08691406 0 L .06689453 0 L .06689453 .095703128 L .08691406 .095703128 C .10546875 .095703128 .12011719 .09944662 .13085938 .106933597 C .14192708 .11442057 .15152996 .12727864 .15966797 .14550781 L .34716798 .7182617 L .44873048 .7182617 M 0 .7182617 L .1015625 .7182617 L .25732423 .27783204 L .20214844 .16992188 L 0 .7182617 Z "/>
</symbol>
<symbol id="font_3_ad">
<path d="M 0 .70996096 L .099609378 .70996096 L .099609378 0 L 0 0 L 0 .70996096 M .3076172 .3071289 C .3076172 .3429362 .29833985 .37060548 .27978517 .39013673 C .26123048 .40966798 .2351888 .4194336 .20166016 .4194336 C .16910808 .4194336 .1438802 .41097007 .12597656 .39404298 C .10839844 .37711589 .099609378 .3531901 .099609378 .32226563 L .08935547 .41992188 C .10498047 .44986979 .12532552 .47298179 .15039063 .4892578 C .17578125 .5058594 .20377605 .51416018 .234375 .51416018 C .28938804 .51416018 .3318685 .49609376 .3618164 .45996095 C .39208985 .42415367 .40722657 .3733724 .40722657 .3076172 L .40722657 0 L .3076172 0 L .3076172 .3071289 Z "/>
</symbol>
<symbol id="font_3_a9">
<path d="M .18457031 0 C .14648438 0 .11230469 .0071614587 .08203125 .021484375 C .052083333 .03548177 .028808594 .055338544 .012207031 .08105469 L .079589847 .14208985 C .09261068 .124186199 .108072917 .11035156 .12597656 .10058594 C .14420574 .09082031 .1632487 .0859375 .18310547 .0859375 C .2211914 .0859375 .25065104 .09651693 .27148438 .11767578 C .29231773 .13850911 .30273438 .16813152 .30273438 .20654297 L .30273438 .7128906 L .40234376 .7128906 L .40234376 .2211914 C .40234376 .17464192 .39371745 .13476563 .37646485 .1015625 C .35953776 .068359378 .3347982 .04313151 .3022461 .025878907 C .269694 .008626302 .23046875 0 .18457031 0 M .17529297 .19726563 C .1381836 .19726563 .10644531 .20524089 .080078128 .2211914 C .054036458 .23746746 .034179689 .26106773 .020507813 .2919922 C .0068359377 .32291667 0 .36002604 0 .4033203 L 0 .5151367 C 0 .55875656 .0066731774 .5960286 .020019532 .6269531 C .033365888 .6578776 .052734376 .6813151 .078125 .6972656 C .10384115 .7135417 .13460286 .7216797 .17041016 .7216797 C .20035808 .7216797 .22770183 .7138672 .2524414 .6982422 C .2775065 .6826172 .2976888 .66064456 .31298829 .6323242 L .30273438 .5288086 C .30273438 .55029299 .29882813 .5686849 .29101563 .5839844 C .28320313 .5992839 .2718099 .61083987 .25683595 .61865237 C .2421875 .62679037 .22428386 .6308594 .203125 .6308594 C .17024739 .6308594 .14469402 .62060549 .12646485 .60009768 C .108561199 .57958987 .099609378 .55078127 .099609378 .5136719 L .099609378 .4033203 C .099609378 .36653648 .108561199 .33805339 .12646485 .3178711 C .14469402 .2980143 .17024739 .28808595 .203125 .28808595 C .22428386 .28808595 .2421875 .29215495 .25683595 .30029298 C .2718099 .3087565 .28320313 .32080079 .29101563 .33642579 C .29882813 .35205079 .30273438 .37076823 .30273438 .39257813 L .3095703 .28564454 C .29947917 .26057945 .2828776 .23958333 .25976563 .22265625 C .23697917 .20572917 .20882161 .19726563 .17529297 .19726563 Z "/>
</symbol>
<symbol id="font_3_bc">
<path d="M .099609378 .13330078 C .099609378 .12093099 .10221354 .111328128 .107421878 .10449219 C .11295573 .09798177 .12060547 .09472656 .1303711 .09472656 L .1772461 .09472656 L .1772461 0 L .118652347 0 C .08089193 0 .05159505 .01171875 .030761719 .03515625 C .010253906 .05859375 0 .09163412 0 .13427735 L 0 .71240237 L .099609378 .71240237 L .099609378 .13330078 Z "/>
</symbol>
<symbol id="font_3_b9">
<path d="M .04296875 .19238281 L .30371095 .50683596 L .42089845 .50683596 L .036621095 .07421875 L .04296875 .19238281 M 0 .70996096 L .099609378 .70996096 L .099609378 0 L 0 0 L 0 .70996096 M .16064453 .29248048 L .22460938 .35888673 L .44580079 0 L .33740235 0 L .16064453 .29248048 Z "/>
</symbol>
<use xlink:href="#font_3_292" transform="matrix(12,0,0,-12,43.092424,47.940004)"/>
<use xlink:href="#font_3_1" transform="matrix(12,0,0,-12,45.084,47.940004)"/>
<use xlink:href="#font_3_68" transform="matrix(12,0,0,-12,49.2495,48.027894)"/>
<use xlink:href="#font_3_fa" transform="matrix(12,0,0,-12,56.93372,47.940004)"/>
<use xlink:href="#font_3_e7" transform="matrix(12,0,0,-12,63.0495,48.027894)"/>
<use xlink:href="#font_3_d5" transform="matrix(12,0,0,-12,69.7215,50.41266)"/>
<use xlink:href="#font_3_9b" transform="matrix(12,0,0,-12,76.073719,48.027894)"/>
<use xlink:href="#font_3_c0" transform="matrix(12,0,0,-12,81.91978,47.9693)"/>
<use xlink:href="#font_3_c2" transform="matrix(12,0,0,-12,86.1615,47.940004)"/>
<use xlink:href="#font_3_af" transform="matrix(12,0,0,-12,92.8695,47.940004)"/>
<use xlink:href="#font_3_b8" transform="matrix(12,0,0,-12,95.06119,50.41266)"/>
<use xlink:href="#font_3_1" transform="matrix(12,0,0,-12,98.16,47.940004)"/>
<use xlink:href="#font_3_c8" transform="matrix(12,0,0,-12,102.14972,48.027894)"/>
<use xlink:href="#font_3_d5" transform="matrix(12,0,0,-12,108.8655,50.41266)"/>
<use xlink:href="#font_3_af" transform="matrix(12,0,0,-12,115.3935,47.940004)"/>
<use xlink:href="#font_3_dc" transform="matrix(12,0,0,-12,117.907459,48.027894)"/>
<use xlink:href="#font_3_1" transform="matrix(12,0,0,-12,123.696,47.940004)"/>
<use xlink:href="#font_3_f4" transform="matrix(12,0,0,-12,127.33415,47.940004)"/>
<use xlink:href="#font_3_fa" transform="matrix(12,0,0,-12,136.96172,47.940004)"/>
<use xlink:href="#font_3_c8" transform="matrix(12,0,0,-12,142.90172,48.027894)"/>
<use xlink:href="#font_3_d8" transform="matrix(12,0,0,-12,149.6175,47.940004)"/>
<use xlink:href="#font_3_e7" transform="matrix(12,0,0,-12,154.74149,48.027894)"/>
<use xlink:href="#font_3_28d" transform="matrix(12,0,0,-12,161.2084,49.885316)"/>
<use xlink:href="#font_3_1" transform="matrix(12,0,0,-12,163.13999,47.940004)"/>
<use xlink:href="#font_3_f4" transform="matrix(12,0,0,-12,166.77814,47.940004)"/>
<use xlink:href="#font_3_d5" transform="matrix(12,0,0,-12,176.58148,50.41266)"/>
<use xlink:href="#font_3_af" transform="matrix(12,0,0,-12,183.14548,47.940004)"/>
<use xlink:href="#font_3_dc" transform="matrix(12,0,0,-12,185.65943,48.027894)"/>
<use xlink:href="#font_3_e7" transform="matrix(12,0,0,-12,192.38547,48.027894)"/>
<use xlink:href="#font_3_b8" transform="matrix(12,0,0,-12,198.23715,50.41266)"/>
<use xlink:href="#font_3_8a" transform="matrix(12,0,0,-12,201.9805,50.40094)"/>
<use xlink:href="#font_3_90" transform="matrix(12,0,0,-12,208.48169,48.027894)"/>
<use xlink:href="#font_3_1" transform="matrix(12,0,0,-12,213.64797,47.940004)"/>
<use xlink:href="#font_3_c2" transform="matrix(12,0,0,-12,217.81346,47.940004)"/>
<use xlink:href="#font_3_82" transform="matrix(12,0,0,-12,224.22849,48.027894)"/>
<use xlink:href="#font_3_fa" transform="matrix(12,0,0,-12,230.72968,47.940004)"/>
<use xlink:href="#font_3_f4" transform="matrix(12,0,0,-12,236.31812,47.940004)"/>
<use xlink:href="#font_3_f6" transform="matrix(12,0,0,-12,245.47693,50.47711)"/>
<use xlink:href="#font_3_1" transform="matrix(12,0,0,-12,251.01596,47.940004)"/>
<use xlink:href="#font_3_fa" transform="matrix(12,0,0,-12,255.00568,47.940004)"/>
<use xlink:href="#font_3_82" transform="matrix(12,0,0,-12,260.8285,48.027894)"/>
<use xlink:href="#font_3_fa" transform="matrix(12,0,0,-12,267.32969,47.940004)"/>
<use xlink:href="#font_3_c2" transform="matrix(12,0,0,-12,273.37348,47.940004)"/>
<use xlink:href="#font_3_82" transform="matrix(12,0,0,-12,279.7885,48.027894)"/>
<use xlink:href="#font_3_90" transform="matrix(12,0,0,-12,286.2897,48.027894)"/>
<use xlink:href="#font_3_fa" transform="matrix(12,0,0,-12,292.26573,47.940004)"/>
<use xlink:href="#font_3_c8" transform="matrix(12,0,0,-12,298.20573,48.027894)"/>
<use xlink:href="#font_3_c2" transform="matrix(12,0,0,-12,304.9215,47.940004)"/>
<use xlink:href="#font_3_f6" transform="matrix(12,0,0,-12,310.985,50.47711)"/>
<use xlink:href="#font_3_90" transform="matrix(12,0,0,-12,317.28575,48.027894)"/>
<use xlink:href="#font_3_ad" transform="matrix(12,0,0,-12,323.43754,47.940004)"/>
<use xlink:href="#font_3_1" transform="matrix(12,0,0,-12,329.20805,47.940004)"/>
<use xlink:href="#font_3_a9" transform="matrix(12,0,0,-12,333.12577,50.41266)"/>
<use xlink:href="#font_3_d8" transform="matrix(12,0,0,-12,339.76954,47.940004)"/>
<use xlink:href="#font_3_e7" transform="matrix(12,0,0,-12,344.89353,48.027894)"/>
<use xlink:href="#font_3_d5" transform="matrix(12,0,0,-12,351.56553,50.41266)"/>
<use xlink:href="#font_3_1" transform="matrix(12,0,0,-12,357.15605,47.940004)"/>
<use xlink:href="#font_3_82" transform="matrix(12,0,0,-12,361.02857,48.027894)"/>
<use xlink:href="#font_3_bc" transform="matrix(12,0,0,-12,367.70555,47.9693)"/>
<use xlink:href="#font_3_b9" transform="matrix(12,0,0,-12,371.18556,47.940004)"/>
<use xlink:href="#font_3_af" transform="matrix(12,0,0,-12,377.53355,47.940004)"/>
<use xlink:href="#font_3_bc" transform="matrix(12,0,0,-12,380.54554,47.9693)"/>
<use xlink:href="#font_3_c8" transform="matrix(12,0,0,-12,383.84977,48.027894)"/>
<use xlink:href="#font_3_f4" transform="matrix(12,0,0,-12,390.0382,47.940004)"/>
<use xlink:href="#font_3_f6" transform="matrix(12,0,0,-12,399.19703,50.47711)"/>
<use xlink:href="#font_3_90" transform="matrix(12,0,0,-12,405.46177,48.027894)"/>
<use xlink:href="#font_3_ad" transform="matrix(12,0,0,-12,411.64958,47.940004)"/>
<use xlink:href="#font_3_292" transform="matrix(12,0,0,-12,418.1525,47.940004)"/>
</g>
<clipPath id="cp4">
<path transform="matrix(1,0,0,-1,0,841.92)" d="M .000008871 0 L 595.32 0 L 595.32 841.92 L .000008871 841.92 Z " fill-rule="evenodd"/>
</clipPath>
<g clip-path="url(#cp4)">
<symbol id="font_1_1">
<path d="M 0 0 Z "/>
</symbol>
<use xlink:href="#font_1_1" transform="matrix(12,0,0,-12,420.18,47.940004)"/>
</g>
</g>
<g id="Layer-1" data-name="P">
<clipPath id="cp5">
<path transform="matrix(1,0,0,-1,0,841.92)" d="M .000008871 0 L 595.32 0 L 595.32 841.92 L .000008871 841.92 Z " fill-rule="evenodd"/>
</clipPath>
<g clip-path="url(#cp5)">
<use xlink:href="#font_1_1" transform="matrix(12,0,0,-12,36,71.45996)"/>
</g>
</g>
<g id="Layer-1" data-name="P">
<clipPath id="cp6">
<path transform="matrix(1,0,0,-1,0,841.92)" d="M .000008871 0 L 595.32 0 L 595.32 841.92 L .000008871 841.92 Z " fill-rule="evenodd"/>
</clipPath>
<g clip-path="url(#cp6)">
<use xlink:href="#font_1_1" transform="matrix(12,0,0,-12,36,95.03998)"/>
</g>
</g>
<g id="Layer-1" data-name="P">
<clipPath id="cp7">
<path transform="matrix(1,0,0,-1,0,841.92)" d="M .000008871 0 L 595.32 0 L 595.32 841.92 L .000008871 841.92 Z " fill-rule="evenodd"/>
</clipPath>
<g clip-path="url(#cp7)">
<use xlink:href="#font_1_1" transform="matrix(12,0,0,-12,382.54,315.74)"/>
</g>
</g>
<g id="Layer-1" data-name="P">
<clipPath id="cp8">
<path transform="matrix(1,0,0,-1,0,841.92)" d="M .000008871 0 L 595.32 0 L 595.32 841.92 L .000008871 841.92 Z " fill-rule="evenodd"/>
</clipPath>
<g clip-path="url(#cp8)">
<use xlink:href="#font_1_1" transform="matrix(12,0,0,-12,36,336.8)"/>
</g>
</g>
<g id="Layer-1" data-name="P">
<clipPath id="cp9">
<path transform="matrix(1,0,0,-1,0,841.92)" d="M .000008871 0 L 595.32 0 L 595.32 841.92 L .000008871 841.92 Z " fill-rule="evenodd"/>
</clipPath>
<g clip-path="url(#cp9)">
<symbol id="font_1_fa">
<path d="M .3642578 .42285157 L .12060547 .092285159 L .3774414 .092285159 L .3774414 0 L 0 0 L 0 .0859375 L .25 .41455079 L .0068359377 .41455079 L .0068359377 .50683596 L .3642578 .50683596 L .3642578 .42285157 Z "/>
</symbol>
<symbol id="font_1_c2">
<path d="M 0 .50683596 L .099609378 .50683596 L .099609378 0 L 0 0 L 0 .50683596 M .3076172 .3071289 C .3076172 .3429362 .29833985 .37060548 .27978517 .39013673 C .26123048 .40966798 .2351888 .4194336 .20166016 .4194336 C .16910808 .4194336 .1438802 .41080729 .12597656 .3935547 C .10839844 .3763021 .099609378 .35205079 .099609378 .32080079 L .08935547 .41845704 C .10498047 .449056 .12532552 .47265626 .15039063 .4892578 C .17578125 .5058594 .20377605 .51416018 .234375 .51416018 C .28938804 .51416018 .3318685 .49609376 .3618164 .45996095 C .39208985 .42415367 .40722657 .3733724 .40722657 .3076172 L .40722657 0 L .3076172 0 L .3076172 .3071289 Z "/>
</symbol>
<symbol id="font_1_82">
<path d="M .31054688 .32861329 C .31054688 .3618164 .30159507 .38753257 .2836914 .40576173 C .26611329 .4243164 .24104817 .43359376 .2084961 .43359376 C .1883138 .43359376 .16845703 .4305013 .14892578 .4243164 C .12972005 .4181315 .11263021 .40950523 .09765625 .3984375 L .024902344 .4482422 C .044108076 .47135417 .06933594 .4892578 .10058594 .5019531 C .13216146 .51497396 .16715496 .5214844 .2055664 .5214844 C .2475586 .5214844 .28352867 .5139974 .31347657 .49902345 C .34342448 .484375 .36621095 .46289063 .38183595 .4345703 C .39746095 .40657554 .40527345 .37272135 .40527345 .3330078 L .40527345 .0073242189 L .31054688 .0073242189 L .31054688 .32861329 M .18652344 0 C .12402344 0 .077311199 .012858073 .04638672 .03857422 C .015462239 .06461588 0 .104003909 0 .15673828 C 0 .20686849 .014160156 .24446614 .04248047 .26953126 C .07080078 .29459635 .11360677 .3071289 .17089844 .3071289 L .3149414 .3071289 L .32177735 .22705078 L .17138672 .22705078 C .14534505 .22705078 .1258138 .2211914 .11279297 .20947266 C .100097659 .19807942 .09375 .1805013 .09375 .15673828 C .09375 .13102214 .10221354 .111979167 .119140628 .099609378 C .13639324 .087239589 .16243489 .08105469 .19726563 .08105469 C .23535156 .08105469 .26367188 .085123699 .28222657 .09326172 C .30110679 .10139974 .31054688 .114095058 .31054688 .13134766 L .32080079 .060058595 C .31201173 .04638672 .30110679 .03515625 .28808595 .026367188 C .27539063 .017578125 .26057945 .011067708 .24365235 .0068359377 C .22672527 .0022786458 .2076823 0 .18652344 0 Z "/>
</symbol>
<symbol id="font_1_90">
<path d="M .21923828 0 C .17301433 0 .13346355 .008626302 .10058594 .025878907 C .06803385 .04313151 .04313151 .06819662 .025878907 .10107422 C .008626302 .13395183 0 .17366536 0 .22021485 L 0 .30371095 C 0 .34960938 .008626302 .38883464 .025878907 .42138673 C .04313151 .4539388 .06803385 .47867839 .10058594 .49560548 C .13346355 .5128581 .17301433 .5214844 .21923828 .5214844 C .24560547 .5214844 .27034507 .5182292 .29345704 .51171877 C .31689454 .5055339 .33789063 .49641929 .3564453 .484375 C .375 .47233073 .39046226 .45768229 .40283204 .4404297 L .3310547 .37597657 C .31673179 .3922526 .29996745 .40478517 .28076173 .41357423 C .261556 .42236329 .24153646 .4267578 .22070313 .4267578 C .18229167 .4267578 .15250652 .41601563 .13134766 .39453126 C .110188808 .37304688 .099609378 .34277345 .099609378 .30371095 L .099609378 .22021485 C .099609378 .18017578 .11002604 .1492513 .13085938 .1274414 C .15201824 .10563151 .18196614 .09472656 .22070313 .09472656 C .24186199 .09472656 .26204429 .09944662 .28125 .10888672 C .30045573 .11832682 .31705729 .13167317 .3310547 .14892578 L .40283204 .079589847 C .39013673 .06266276 .37451173 .048177083 .35595704 .036132814 C .33740235 .024414063 .31640626 .015462239 .29296876 .009277344 C .26985679 .003092448 .24527996 0 .21923828 0 Z "/>
</symbol>
<symbol id="font_1_9b">
<path d="M .22216797 0 C .17529297 0 .1352539 .0087890629 .10205078 .026367188 C .068847659 .043945314 .04345703 .06966146 .025878907 .103515628 C .008626302 .13769531 0 .1788737 0 .22705078 L 0 .2841797 C 0 .3343099 .008300781 .37711589 .024902344 .41259767 C .041829427 .44807945 .06624349 .47509767 .09814453 .49365235 C .13004558 .51220706 .16845703 .5214844 .2133789 .5214844 C .25569663 .5214844 .29182945 .51090499 .32177735 .4897461 C .35172526 .46858726 .37451173 .43798829 .39013673 .39794923 C .40608726 .35791017 .4140625 .30989585 .4140625 .25390626 L .4140625 .22070313 L .072265628 .22070313 L .072265628 .30078126 L .31933595 .30078126 C .31640626 .3421224 .30566407 .3741862 .28710938 .39697267 C .26888023 .42008464 .24430339 .43164063 .2133789 .43164063 C .17561849 .43164063 .14632161 .41927085 .12548828 .39453126 C .10498047 .36979167 .09472656 .3347982 .09472656 .28955079 L .09472656 .22509766 C .09472656 .18310547 .10579427 .1508789 .12792969 .12841797 C .15006511 .10595703 .18147786 .09472656 .22216797 .09472656 C .24235027 .09472656 .26236979 .09879557 .28222657 .106933597 C .30208335 .11507162 .31982423 .12646485 .33544923 .14111328 L .4008789 .075683597 C .3758138 .05159505 .34765626 .032877607 .31640626 .01953125 C .28515626 .0065104167 .2537435 0 .22216797 0 Z "/>
</symbol>
<symbol id="font_1_af">
<path d="M 0 .70996096 L .099609378 .70996096 L .099609378 .61035159 L 0 .61035159 L 0 .70996096 M 0 .50683596 L .099609378 .50683596 L .099609378 0 L 0 0 L 0 .50683596 Z "/>
</symbol>
<use xlink:href="#font_1_fa" transform="matrix(12,0,0,-12,36.76172,360.37998)"/>
<use xlink:href="#font_1_c2" transform="matrix(12,0,0,-12,42.877504,360.37998)"/>
<use xlink:href="#font_1_82" transform="matrix(12,0,0,-12,49.292535,360.46788)"/>
<use xlink:href="#font_1_90" transform="matrix(12,0,0,-12,55.79372,360.46788)"/>
<use xlink:href="#font_1_fa" transform="matrix(12,0,0,-12,61.769723,360.37998)"/>
<use xlink:href="#font_1_9b" transform="matrix(12,0,0,-12,67.709728,360.46788)"/>
<use xlink:href="#font_1_c2" transform="matrix(12,0,0,-12,74.317508,360.37998)"/>
<use xlink:href="#font_1_af" transform="matrix(12,0,0,-12,81.025508,360.37998)"/>
<use xlink:href="#font_1_9b" transform="matrix(12,0,0,-12,83.861728,360.46788)"/>
</g>
<clipPath id="cp10">
<path transform="matrix(1,0,0,-1,0,841.92)" d="M .000008871 0 L 595.32 0 L 595.32 841.92 L .000008871 841.92 Z " fill-rule="evenodd"/>
</clipPath>
<g clip-path="url(#cp10)">
<use xlink:href="#font_1_1" transform="matrix(12,0,0,-12,89.54,360.37998)"/>
</g>
<clipPath id="cp11">
<path transform="matrix(1,0,0,-1,0,841.92)" d="M .000008871 0 L 595.32 0 L 595.32 841.92 L .000008871 841.92 Z " fill-rule="evenodd"/>
</clipPath>
<g clip-path="url(#cp11)">
<symbol id="font_1_bc">
<path d="M .099609378 .13330078 C .099609378 .12093099 .10221354 .111328128 .107421878 .10449219 C .11295573 .09798177 .12060547 .09472656 .1303711 .09472656 L .1772461 .09472656 L .1772461 0 L .118652347 0 C .08089193 0 .05159505 .01171875 .030761719 .03515625 C .010253906 .05859375 0 .09163412 0 .13427735 L 0 .71240237 L .099609378 .71240237 L .099609378 .13330078 Z "/>
</symbol>
<symbol id="font_1_c8">
<path d="M .20898438 0 C .16503906 0 .1274414 .008626302 .096191409 .025878907 C .064941409 .04313151 .041015626 .06819662 .024414063 .10107422 C .0081380209 .13427735 0 .17415364 0 .22070313 L 0 .30322267 C 0 .3491211 .0081380209 .38834635 .024414063 .42089845 C .041015626 .45377604 .064941409 .47867839 .096191409 .49560548 C .1274414 .5128581 .16503906 .5214844 .20898438 .5214844 C .2529297 .5214844 .29052735 .5128581 .32177735 .49560548 C .35302735 .47867839 .37679038 .45377604 .3930664 .42089845 C .40966798 .38834635 .41796876 .3491211 .41796876 .30322267 L .41796876 .21923828 C .41796876 .17301433 .40966798 .13346355 .3930664 .10058594 C .37679038 .06803385 .35302735 .04313151 .32177735 .025878907 C .29052735 .008626302 .2529297 0 .20898438 0 M .20898438 .09472656 C .24381511 .09472656 .27067057 .10563151 .28955079 .1274414 C .3087565 .1492513 .31835938 .17985027 .31835938 .21923828 L .31835938 .30322267 C .31835938 .3426107 .3087565 .37304688 .28955079 .39453126 C .27067057 .41601563 .24381511 .4267578 .20898438 .4267578 C .17415364 .4267578 .14713542 .41601563 .12792969 .39453126 C .10904948 .37304688 .099609378 .3426107 .099609378 .30322267 L .099609378 .21923828 C .099609378 .17985027 .10904948 .1492513 .12792969 .1274414 C .14713542 .10563151 .17415364 .09472656 .20898438 .09472656 Z "/>
</symbol>
<use xlink:href="#font_1_fa" transform="matrix(12,0,0,-12,93.54172,360.37998)"/>
<use xlink:href="#font_1_af" transform="matrix(12,0,0,-12,99.6575,360.37998)"/>
<use xlink:href="#font_1_9b" transform="matrix(12,0,0,-12,102.49372,360.46788)"/>
<use xlink:href="#font_1_bc" transform="matrix(12,0,0,-12,109.1015,360.40928)"/>
<use xlink:href="#font_1_c8" transform="matrix(12,0,0,-12,112.40572,360.46788)"/>
<use xlink:href="#font_1_c2" transform="matrix(12,0,0,-12,119.121509,360.37998)"/>
<use xlink:href="#font_1_9b" transform="matrix(12,0,0,-12,125.653728,360.46788)"/>
<use xlink:href="#font_1_1" transform="matrix(12,0,0,-12,131.324,360.37998)"/>
</g>
<clipPath id="cp12">
<path transform="matrix(1,0,0,-1,0,841.92)" d="M .000008871 0 L 595.32 0 L 595.32 841.92 L .000008871 841.92 Z " fill-rule="evenodd"/>
</clipPath>
<g clip-path="url(#cp12)">
<symbol id="font_3_2a1">
<path d="M .40625 .09472656 L .40625 0 L 0 0 L 0 .09472656 L .40625 .09472656 Z "/>
</symbol>
<use xlink:href="#font_3_2a1" transform="matrix(12,0,0,-12,135.4775,357.8956)"/>
</g>
<clipPath id="cp13">
<path transform="matrix(1,0,0,-1,0,841.92)" d="M .000008871 0 L 595.32 0 L 595.32 841.92 L .000008871 841.92 Z " fill-rule="evenodd"/>
</clipPath>
<g clip-path="url(#cp13)">
<use xlink:href="#font_1_1" transform="matrix(12,0,0,-12,141.26,360.37998)"/>
</g>
<clipPath id="cp14">
<path transform="matrix(1,0,0,-1,0,841.92)" d="M .000008871 0 L 595.32 0 L 595.32 841.92 L .000008871 841.92 Z " fill-rule="evenodd"/>
</clipPath>
<g clip-path="url(#cp14)">
<symbol id="font_1_a9">
<path d="M .18457031 0 C .14648438 0 .11230469 .0071614587 .08203125 .021484375 C .052083333 .03548177 .028808594 .055338544 .012207031 .08105469 L .079589847 .14208985 C .09261068 .124186199 .108072917 .11035156 .12597656 .10058594 C .14420574 .09082031 .1632487 .0859375 .18310547 .0859375 C .2211914 .0859375 .25065104 .09651693 .27148438 .11767578 C .29231773 .13850911 .30273438 .16813152 .30273438 .20654297 L .30273438 .7128906 L .40234376 .7128906 L .40234376 .2211914 C .40234376 .17464192 .39371745 .13476563 .37646485 .1015625 C .35953776 .068359378 .3347982 .04313151 .3022461 .025878907 C .269694 .008626302 .23046875 0 .18457031 0 M .17529297 .19726563 C .1381836 .19726563 .10644531 .20524089 .080078128 .2211914 C .054036458 .23746746 .034179689 .26106773 .020507813 .2919922 C .0068359377 .32291667 0 .36002604 0 .4033203 L 0 .5151367 C 0 .55875656 .0066731774 .5960286 .020019532 .6269531 C .033365888 .6578776 .052734376 .6813151 .078125 .6972656 C .10384115 .7135417 .13460286 .7216797 .17041016 .7216797 C .20035808 .7216797 .22770183 .7138672 .2524414 .6982422 C .2775065 .6826172 .2976888 .66064456 .31298829 .6323242 L .30273438 .5288086 C .30273438 .55029299 .29882813 .5686849 .29101563 .5839844 C .28320313 .5992839 .2718099 .61083987 .25683595 .61865237 C .2421875 .62679037 .22428386 .6308594 .203125 .6308594 C .17024739 .6308594 .14469402 .62060549 .12646485 .60009768 C .108561199 .57958987 .099609378 .55078127 .099609378 .5136719 L .099609378 .4033203 C .099609378 .36653648 .108561199 .33805339 .12646485 .3178711 C .14469402 .2980143 .17024739 .28808595 .203125 .28808595 C .22428386 .28808595 .2421875 .29215495 .25683595 .30029298 C .2718099 .3087565 .28320313 .32080079 .29101563 .33642579 C .29882813 .35205079 .30273438 .37076823 .30273438 .39257813 L .3095703 .28564454 C .29947917 .26057945 .2828776 .23958333 .25976563 .22265625 C .23697917 .20572917 .20882161 .19726563 .17529297 .19726563 Z "/>
</symbol>
<symbol id="font_1_d8">
<path d="M 0 .50683596 L .099609378 .50683596 L .099609378 0 L 0 0 L 0 .50683596 M .2788086 .38671876 C .27001954 .39746095 .2589518 .40559898 .24560547 .4111328 C .23225911 .41666667 .21679688 .4194336 .19921875 .4194336 C .16764324 .4194336 .1430664 .41064454 .12548828 .3930664 C .10823568 .3758138 .099609378 .35172526 .099609378 .32080079 L .08935547 .41845704 C .10498047 .44873048 .12516277 .47216798 .14990235 .48876954 C .17464192 .5056966 .20198567 .51416018 .2319336 .51416018 C .25504557 .51416018 .2758789 .5107422 .2944336 .50390627 C .3133138 .49739585 .3297526 .48763023 .34375 .47460938 L .2788086 .38671876 Z "/>
</symbol>
<symbol id="font_1_e7">
<path d="M .30566407 .51416018 L .40478517 .51416018 L .40478517 .0073242189 L .30566407 .0073242189 L .30566407 .51416018 M .099609378 .20605469 C .099609378 .17057292 .108561199 .1430664 .12646485 .123535159 C .14469402 .10432943 .17024739 .09472656 .203125 .09472656 C .23567708 .09472656 .26090495 .10335287 .2788086 .12060547 C .29671226 .13785808 .30566407 .16243489 .30566407 .19433594 L .3125 .088378909 C .30208335 .063313808 .28515626 .042317708 .26171876 .025390625 C .23828125 .008463542 .20947266 0 .17529297 0 C .11930338 0 .07600912 .017903647 .045410158 .053710939 C .015136719 .08984375 0 .140625 0 .20605469 L 0 .51416018 L .099609378 .51416018 L .099609378 .20605469 Z "/>
</symbol>
<symbol id="font_1_d5">
<path d="M 0 .7128906 L .099609378 .7128906 L .099609378 0 L 0 0 L 0 .7128906 M .22705078 .19873047 C .19547527 .19873047 .16796875 .20621746 .14453125 .2211914 C .12109375 .23649089 .10384115 .25797526 .09277344 .28564454 L .099609378 .39160157 C .099609378 .36979167 .103515628 .35123698 .111328128 .3359375 C .119140628 .32063804 .1303711 .30891929 .14501953 .30078126 C .15999349 .29264323 .17805989 .28857423 .19921875 .28857423 C .23209636 .28857423 .25748698 .2985026 .27539063 .31835938 C .29361979 .33854167 .30273438 .36686198 .30273438 .4033203 L .30273438 .5131836 C .30273438 .55029299 .29361979 .57910159 .27539063 .5996094 C .25748698 .6201172 .23209636 .6303711 .19921875 .6303711 C .17805989 .6303711 .15999349 .62646487 .14501953 .61865237 C .1303711 .61083987 .119140628 .5992839 .111328128 .5839844 C .103515628 .56901046 .099609378 .55094406 .099609378 .52978518 L .08935547 .6274414 C .104654949 .6570638 .12467448 .6798503 .14941406 .6958008 C .17415364 .71207687 .20166016 .72021487 .2319336 .72021487 C .26774089 .72021487 .29833985 .71207687 .32373048 .6958008 C .34944663 .6798503 .36897788 .6564128 .38232423 .6254883 C .39567057 .5945638 .40234376 .5572917 .40234376 .5136719 L .40234376 .4033203 C .40234376 .36035157 .3955078 .32356773 .38183595 .29296876 C .36816407 .26236979 .34814454 .2389323 .32177735 .22265625 C .29541017 .20670574 .26383464 .19873047 .22705078 .19873047 Z "/>
</symbol>
<symbol id="font_1_e3">
<path d="M .17089844 0 C .12988281 0 .09977213 .011230469 .080566409 .033691408 C .0616862 .056477865 .052246095 .09000651 .052246095 .13427735 L .052246095 .6567383 L .15185547 .6567383 L .15185547 .13330078 C .15185547 .12093099 .15429688 .111328128 .15917969 .10449219 C .1640625 .09798177 .17122396 .09472656 .18066406 .09472656 L .22851563 .09472656 L .22851563 0 L .17089844 0 M 0 .50927737 L .22851563 .50927737 L .22851563 .4194336 L 0 .4194336 L 0 .50927737 Z "/>
</symbol>
<symbol id="font_1_f6">
<path d="M .44873048 .7182617 L .23291016 .09277344 C .22509766 .06966146 .21484375 .051432294 .20214844 .038085939 C .18945313 .024414063 .17382813 .0146484379 .15527344 .0087890629 C .13671875 .0029296876 .11393229 0 .08691406 0 L .06689453 0 L .06689453 .095703128 L .08691406 .095703128 C .10546875 .095703128 .12011719 .09944662 .13085938 .106933597 C .14192708 .11442057 .15152996 .12727864 .15966797 .14550781 L .34716798 .7182617 L .44873048 .7182617 M 0 .7182617 L .1015625 .7182617 L .25732423 .27783204 L .20214844 .16992188 L 0 .7182617 Z "/>
</symbol>
<symbol id="font_1_f4">
<path d="M 0 .50683596 L .104003909 .50683596 L .19384766 .14501953 L .3203125 .50683596 L .38964845 .50683596 L .5161133 .14501953 L .60595706 .50683596 L .70996096 .50683596 L .55371096 0 L .47851563 0 L .35498048 .35009767 L .23144531 0 L .15625 0 L 0 .50683596 Z "/>
</symbol>
<use xlink:href="#font_1_a9" transform="matrix(12,0,0,-12,145.26172,362.85264)"/>
<use xlink:href="#font_1_d8" transform="matrix(12,0,0,-12,151.8575,360.37998)"/>
<use xlink:href="#font_1_e7" transform="matrix(12,0,0,-12,156.98149,360.46788)"/>
<use xlink:href="#font_1_d5" transform="matrix(12,0,0,-12,163.65349,362.85264)"/>
<use xlink:href="#font_1_82" transform="matrix(12,0,0,-12,169.88852,360.46788)"/>
<use xlink:href="#font_1_1" transform="matrix(12,0,0,-12,175.57999,360.37998)"/>
<use xlink:href="#font_1_9b" transform="matrix(12,0,0,-12,179.5697,360.46788)"/>
<use xlink:href="#font_1_e3" transform="matrix(12,0,0,-12,185.70874,360.40928)"/>
<use xlink:href="#font_1_f6" transform="matrix(12,0,0,-12,189.44496,362.91709)"/>
<use xlink:href="#font_1_bc" transform="matrix(12,0,0,-12,195.8855,360.40928)"/>
<use xlink:href="#font_1_c8" transform="matrix(12,0,0,-12,199.18972,360.46788)"/>
<use xlink:href="#font_1_f4" transform="matrix(12,0,0,-12,205.37815,360.37998)"/>
<use xlink:href="#font_1_82" transform="matrix(12,0,0,-12,214.88852,360.46788)"/>
</g>
<clipPath id="cp15">
<path transform="matrix(1,0,0,-1,0,841.92)" d="M .000008871 0 L 595.32 0 L 595.32 841.92 L .000008871 841.92 Z " fill-rule="evenodd"/>
</clipPath>
<g clip-path="url(#cp15)">
<use xlink:href="#font_1_1" transform="matrix(12,0,0,-12,220.64,360.37998)"/>
</g>
</g>
<g id="Layer-1" data-name="P">
<clipPath id="cp16">
<path transform="matrix(1,0,0,-1,0,841.92)" d="M .000008871 0 L 595.32 0 L 595.32 841.92 L .000008871 841.92 Z " fill-rule="evenodd"/>
</clipPath>
<g clip-path="url(#cp16)">
<use xlink:href="#font_1_fa" transform="matrix(12,0,0,-12,36.76172,383.9)"/>
<use xlink:href="#font_1_c2" transform="matrix(12,0,0,-12,42.877504,383.9)"/>
<use xlink:href="#font_1_82" transform="matrix(12,0,0,-12,49.292535,383.98789)"/>
<use xlink:href="#font_1_90" transform="matrix(12,0,0,-12,55.79372,383.98789)"/>
<use xlink:href="#font_1_fa" transform="matrix(12,0,0,-12,61.769723,383.9)"/>
<use xlink:href="#font_1_9b" transform="matrix(12,0,0,-12,67.709728,383.98789)"/>
<use xlink:href="#font_1_c2" transform="matrix(12,0,0,-12,74.317508,383.9)"/>
</g>
<clipPath id="cp17">
<path transform="matrix(1,0,0,-1,0,841.92)" d="M .000008871 0 L 595.32 0 L 595.32 841.92 L .000008871 841.92 Z " fill-rule="evenodd"/>
</clipPath>
<g clip-path="url(#cp17)">
<use xlink:href="#font_1_af" transform="matrix(12,0,0,-12,81.0575,383.9)"/>
<use xlink:href="#font_1_9b" transform="matrix(12,0,0,-12,83.88172,383.98789)"/>
</g>
<clipPath id="cp18">
<path transform="matrix(1,0,0,-1,0,841.92)" d="M .000008871 0 L 595.32 0 L 595.32 841.92 L .000008871 841.92 Z " fill-rule="evenodd"/>
</clipPath>
<g clip-path="url(#cp18)">
<use xlink:href="#font_1_1" transform="matrix(12,0,0,-12,89.54,383.9)"/>
</g>
<clipPath id="cp19">
<path transform="matrix(1,0,0,-1,0,841.92)" d="M .000008871 0 L 595.32 0 L 595.32 841.92 L .000008871 841.92 Z " fill-rule="evenodd"/>
</clipPath>
<g clip-path="url(#cp19)">
<use xlink:href="#font_1_90" transform="matrix(12,0,0,-12,93.54172,383.98789)"/>
<use xlink:href="#font_1_fa" transform="matrix(12,0,0,-12,99.517719,383.9)"/>
<use xlink:href="#font_1_9b" transform="matrix(12,0,0,-12,105.45772,383.98789)"/>
<use xlink:href="#font_1_d8" transform="matrix(12,0,0,-12,112.0655,383.9)"/>
<use xlink:href="#font_1_f4" transform="matrix(12,0,0,-12,116.662158,383.9)"/>
<use xlink:href="#font_1_c8" transform="matrix(12,0,0,-12,126.28972,383.98789)"/>
<use xlink:href="#font_1_c2" transform="matrix(12,0,0,-12,133.0055,383.9)"/>
<use xlink:href="#font_1_82" transform="matrix(12,0,0,-12,139.42053,383.98789)"/>
<use xlink:href="#font_1_1" transform="matrix(12,0,0,-12,145.16,383.9)"/>
<use xlink:href="#font_1_af" transform="matrix(12,0,0,-12,149.3255,383.9)"/>
<use xlink:href="#font_1_1" transform="matrix(12,0,0,-12,151.4,383.9)"/>
<use xlink:href="#font_1_90" transform="matrix(12,0,0,-12,155.38971,383.98789)"/>
<use xlink:href="#font_1_fa" transform="matrix(12,0,0,-12,161.3657,383.9)"/>
<use xlink:href="#font_1_9b" transform="matrix(12,0,0,-12,167.30571,383.98789)"/>
<use xlink:href="#font_1_d8" transform="matrix(12,0,0,-12,173.9135,383.9)"/>
<use xlink:href="#font_1_f4" transform="matrix(12,0,0,-12,178.51015,383.9)"/>
<use xlink:href="#font_1_c8" transform="matrix(12,0,0,-12,188.13771,383.98789)"/>
<use xlink:href="#font_1_c2" transform="matrix(12,0,0,-12,194.85349,383.9)"/>
<use xlink:href="#font_1_82" transform="matrix(12,0,0,-12,201.26853,383.98789)"/>
</g>
<clipPath id="cp20">
<path transform="matrix(1,0,0,-1,0,841.92)" d="M .000008871 0 L 595.32 0 L 595.32 841.92 L .000008871 841.92 Z " fill-rule="evenodd"/>
</clipPath>
<g clip-path="url(#cp20)">
<use xlink:href="#font_1_1" transform="matrix(12,0,0,-12,207.02,383.9)"/>
</g>
<clipPath id="cp21">
<path transform="matrix(1,0,0,-1,0,841.92)" d="M .000008871 0 L 595.32 0 L 595.32 841.92 L .000008871 841.92 Z " fill-rule="evenodd"/>
</clipPath>
<g clip-path="url(#cp21)">
<use xlink:href="#font_3_2a1" transform="matrix(12,0,0,-12,211.1375,381.41563)"/>
</g>
<clipPath id="cp22">
<path transform="matrix(1,0,0,-1,0,841.92)" d="M .000008871 0 L 595.32 0 L 595.32 841.92 L .000008871 841.92 Z " fill-rule="evenodd"/>
</clipPath>
<g clip-path="url(#cp22)">
<use xlink:href="#font_1_1" transform="matrix(12,0,0,-12,216.92,383.9)"/>
</g>
<clipPath id="cp23">
<path transform="matrix(1,0,0,-1,0,841.92)" d="M .000008871 0 L 595.32 0 L 595.32 841.92 L .000008871 841.92 Z " fill-rule="evenodd"/>
</clipPath>
<g clip-path="url(#cp23)">
<use xlink:href="#font_1_a9" transform="matrix(12,0,0,-12,220.92173,386.37266)"/>
<use xlink:href="#font_1_d8" transform="matrix(12,0,0,-12,227.5655,383.9)"/>
<use xlink:href="#font_1_e7" transform="matrix(12,0,0,-12,232.6895,383.98789)"/>
<use xlink:href="#font_1_d5" transform="matrix(12,0,0,-12,239.3615,386.37266)"/>
<use xlink:href="#font_1_82" transform="matrix(12,0,0,-12,245.59653,383.98789)"/>
<use xlink:href="#font_1_1" transform="matrix(12,0,0,-12,251.3,383.9)"/>
</g>
<clipPath id="cp24">
<path transform="matrix(1,0,0,-1,0,841.92)" d="M .000008871 0 L 595.32 0 L 595.32 841.92 L .000008871 841.92 Z " fill-rule="evenodd"/>
</clipPath>
<g clip-path="url(#cp24)">
<symbol id="font_1_c1">
<path d="M .60546877 .3071289 C .60546877 .3429362 .5961914 .37060548 .5776367 .39013673 C .55908206 .40966798 .53304037 .4194336 .49951173 .4194336 C .46858726 .4194336 .44466148 .4099935 .42773438 .39111329 C .41080729 .37223307 .40234376 .34554038 .40234376 .31103517 L .38232423 .4086914 C .39827476 .44222007 .41927085 .46809898 .4453125 .48632813 C .4716797 .5048828 .50065109 .51416018 .53222659 .51416018 C .5686849 .51416018 .59977218 .50602218 .6254883 .4897461 C .65152999 .47379557 .67122396 .45035807 .6845703 .4194336 C .6982422 .38850913 .7050781 .35123698 .7050781 .3076172 L .7050781 0 L .60546877 0 L .60546877 .3071289 M 0 .50683596 L .099609378 .50683596 L .099609378 0 L 0 0 L 0 .50683596 M .30273438 .3071289 C .30273438 .3429362 .2939453 .37060548 .2763672 .39013673 C .25878907 .40966798 .23388672 .4194336 .20166016 .4194336 C .16910808 .4194336 .1438802 .41080729 .12597656 .3935547 C .10839844 .3763021 .099609378 .35205079 .099609378 .32080079 L .08935547 .41845704 C .10498047 .449056 .12532552 .47265626 .15039063 .4892578 C .17578125 .5058594 .20377605 .51416018 .234375 .51416018 C .26985679 .51416018 .30013023 .50602218 .3251953 .4897461 C .3502604 .47379557 .36930339 .45035807 .38232423 .4194336 C .39567057 .38850913 .40234376 .35123698 .40234376 .3076172 L .40234376 0 L .30273438 0 L .30273438 .3071289 Z "/>
</symbol>
<use xlink:href="#font_1_c1" transform="matrix(12,0,0,-12,255.4975,383.9)"/>
<use xlink:href="#font_1_9b" transform="matrix(12,0,0,-12,265.59373,383.98789)"/>
<use xlink:href="#font_1_e3" transform="matrix(12,0,0,-12,271.73277,383.9293)"/>
<use xlink:href="#font_1_f6" transform="matrix(12,0,0,-12,275.46897,386.4371)"/>
<use xlink:href="#font_1_bc" transform="matrix(12,0,0,-12,281.9095,383.9293)"/>
<use xlink:href="#font_1_c8" transform="matrix(12,0,0,-12,285.2137,383.98789)"/>
<use xlink:href="#font_1_f4" transform="matrix(12,0,0,-12,291.40217,383.9)"/>
<use xlink:href="#font_1_82" transform="matrix(12,0,0,-12,300.91255,383.98789)"/>
</g>
<clipPath id="cp25">
<path transform="matrix(1,0,0,-1,0,841.92)" d="M .000008871 0 L 595.32 0 L 595.32 841.92 L .000008871 841.92 Z " fill-rule="evenodd"/>
</clipPath>
<g clip-path="url(#cp25)">
<use xlink:href="#font_1_1" transform="matrix(12,0,0,-12,306.64,383.9)"/>
</g>
</g>
<g id="Layer-1" data-name="P">
<clipPath id="cp26">
<path transform="matrix(1,0,0,-1,0,841.92)" d="M .000008871 0 L 595.32 0 L 595.32 841.92 L .000008871 841.92 Z " fill-rule="evenodd"/>
</clipPath>
<g clip-path="url(#cp26)">
<use xlink:href="#font_1_1" transform="matrix(12,0,0,-12,36,407.47999)"/>
</g>
</g>
<g id="Layer-1" data-name="P">
<clipPath id="cp27">
<path transform="matrix(1,0,0,-1,0,841.92)" d="M 36 526.19 L 382.37 526.19 L 382.37 735.29006 L 36 735.29006 Z " fill-rule="evenodd"/>
</clipPath>
<g clip-path="url(#cp27)">
<clipPath id="cp28">
<path transform="matrix(26.453076,.000004146095,-.00000042619599,-26.335286,36,315.72999)" d="M 0 0 L 13.094 0 L 13.094 7.94 L 0 7.94 Z " fill-rule="evenodd"/>
</clipPath>
<g clip-path="url(#cp28)">
<path transform="matrix(26.453076,.000004146095,-.00000042619599,-26.335286,36,315.72999)" d="M 6.9631 6.8068 C 6.9505 6.8128 6.9403 6.8218 6.9325 6.8332 C 6.9247 6.8446 6.9199 6.8584 6.9181 6.8746 L 6.9601 6.8746 C 6.9613 6.8662 6.9637 6.859 6.9679 6.8536 C 6.9721 6.8482 6.9775 6.844 6.9835 6.8416 C 6.9901 6.8392 6.9973 6.8374 7.0063 6.8374 C 7.0201 6.8374 7.0309 6.841 7.0381 6.8482 C 7.0458 6.8554 7.0494 6.8656 7.0494 6.8794 L 7.0494 6.8884 C 7.0494 6.9034 7.0458 6.9148 7.0387 6.9226 C 7.0315 6.9304 7.0213 6.9346 7.0081 6.9346 L 6.9871 6.9346 L 6.9871 6.9742 L 7.0081 6.9742 C 7.0195 6.9742 7.0285 6.9778 7.0351 6.9844 C 7.0417 6.9916 7.0446 7.0011 7.0446 7.0137 L 7.0446 7.0227 C 7.0446 7.0341 7.0411 7.0431 7.0345 7.0497 C 7.0279 7.0563 7.0183 7.0593 7.0057 7.0593 C 6.9985 7.0593 6.9925 7.0581 6.9865 7.0551 C 6.9811 7.0527 6.9763 7.0485 6.9721 7.0431 C 6.9685 7.0377 6.9655 7.0305 6.9637 7.0227 L 6.9217 7.0227 C 6.9241 7.0389 6.9295 7.0527 6.9373 7.0641 C 6.9445 7.0755 6.9541 7.0845 6.9661 7.0905 C 6.9775 7.0965 6.9907 7.0995 7.0057 7.0995 C 7.0309 7.0995 7.0506 7.0929 7.065 7.0791 C 7.0788 7.0659 7.086 7.0467 7.086 7.0221 L 7.086 7.0173 C 7.086 7.0023 7.0818 6.9898 7.074 6.979 C 7.0662 6.9682 7.0548 6.9598 7.0399 6.955 C 7.056 6.9514 7.0686 6.9436 7.077 6.931 C 7.086 6.9184 7.0902 6.9028 7.0902 6.8836 L 7.0902 6.8788 C 7.0902 6.8614 7.0866 6.847 7.08 6.835 C 7.0734 6.823 7.0638 6.8134 7.0512 6.8074 C 7.0387 6.8014 7.0231 6.7978 7.0057 6.7978 C 6.9901 6.7978 6.9757 6.8008 6.9631 6.8068 Z " fill="#010202"/>
<path transform="matrix(26.453076,.000004146095,-.00000042619599,-26.335286,36,315.72999)" d="M 6.9205 4.6778 L 7.0237 4.8151 C 7.0297 4.8229 7.0345 4.8313 7.0375 4.8397 C 7.0405 4.8481 7.0423 4.8559 7.0423 4.8631 L 7.0423 4.8637 C 7.0423 4.8757 7.0387 4.8847 7.0321 4.8913 C 7.0255 4.8979 7.0153 4.9009 7.0027 4.9009 C 6.9907 4.9009 6.9811 4.8973 6.9733 4.8901 C 6.9655 4.8829 6.9613 4.8727 6.9595 4.8601 L 6.9169 4.8601 C 6.9193 4.8769 6.9241 4.8913 6.9319 4.9033 C 6.9391 4.9153 6.9493 4.9243 6.9613 4.9309 C 6.9733 4.9369 6.9871 4.9405 7.0027 4.9405 C 7.0201 4.9405 7.0351 4.9375 7.0476 4.9315 C 7.0602 4.9255 7.0698 4.9165 7.0758 4.9051 C 7.0818 4.8937 7.0854 4.8799 7.0854 4.8637 C 7.0854 4.8535 7.083 4.8421 7.0788 4.8307 C 7.0746 4.8193 7.0686 4.8086 7.0608 4.7978 L 6.9751 4.6814 L 7.0866 4.6814 L 7.0866 4.6418 L 6.9199 4.6418 L 6.9199 4.6778 Z " fill="#010202"/>
<path transform="matrix(26.453076,.000004146095,-.00000042619599,-26.335286,36,315.72999)" d="M .98443 2.4888 C .97183 2.4948 .96164 2.5038 .95384 2.5152 C .94604 2.5266 .94125 2.5404 .93945 2.5566 L .98143 2.5566 C .98263 2.5482 .98503 2.541 .98922 2.5356 C .99342 2.5302 .99822 2.526 1.0048 2.5236 C 1.0114 2.5212 1.0186 2.5194 1.0276 2.5194 C 1.0414 2.5194 1.0522 2.523 1.0594 2.5302 C 1.0672 2.5374 1.0708 2.5476 1.0708 2.5608 L 1.0708 2.5698 C 1.0708 2.5848 1.0672 2.5962 1.06 2.604 C 1.0528 2.6118 1.0426 2.616 1.0294 2.616 L 1.0084 2.616 L 1.0084 2.6555 L 1.0294 2.6555 C 1.0408 2.6555 1.0498 2.6591 1.0564 2.6657 C 1.063 2.6729 1.066 2.6825 1.066 2.6951 L 1.066 2.7041 C 1.066 2.7155 1.0624 2.7245 1.0558 2.7311 C 1.0492 2.7377 1.0396 2.7407 1.027 2.7407 C 1.0198 2.7407 1.0138 2.7395 1.0084 2.7365 C 1.003 2.7341 .99822 2.7299 .99402 2.7245 C .99042 2.7191 .98742 2.7119 .98562 2.7041 L .94364 2.7041 C .94664 2.7203 .95144 2.7341 .95924 2.7455 C .96643 2.7569 .97603 2.7659 .98802 2.7719 C 1 2.7779 1.0126 2.7809 1.0276 2.7809 C 1.0528 2.7809 1.0726 2.7743 1.087 2.7605 C 1.1008 2.7473 1.108 2.7281 1.108 2.7035 L 1.108 2.6987 C 1.108 2.6837 1.1038 2.6711 1.096 2.6603 C 1.0882 2.6495 1.0768 2.6411 1.0618 2.6363 C 1.078 2.6327 1.0906 2.625 1.099 2.6124 C 1.108 2.5998 1.1122 2.5842 1.1122 2.565 L 1.1122 2.5602 C 1.1122 2.5428 1.1086 2.5284 1.102 2.5158 C 1.0954 2.5038 1.0858 2.4942 1.0732 2.4882 C 1.0606 2.4816 1.045 2.4786 1.0276 2.4786 C 1.0114 2.4798 .99702 2.4828 .98443 2.4888 Z " fill="#010202"/>
<path transform="matrix(26.453076,.000004146095,-.00000042619599,-26.335286,36,315.72999)" d="M 9.9113 2.5188 L 10.014 2.6561 C 10.02 2.6639 10.025 2.6723 10.028 2.6807 C 10.031 2.6891 10.033 2.6969 10.033 2.7041 L 10.033 2.7047 C 10.033 2.7167 10.029 2.7257 10.023 2.7323 C 10.016 2.7389 10.006 2.7419 9.9935 2.7419 C 9.9815 2.7419 9.9719 2.7383 9.9641 2.7311 C 9.9569 2.7239 9.9521 2.7137 9.9503 2.7011 L 9.9077 2.7011 C 9.9101 2.7179 9.9149 2.7323 9.9227 2.7443 C 9.9305 2.7563 9.9401 2.7653 9.9521 2.7719 C 9.9641 2.7785 9.9779 2.7815 9.9935 2.7815 C 10.011 2.7815 10.026 2.7785 10.038 2.7725 C 10.051 2.7665 10.061 2.7575 10.067 2.7461 C 10.073 2.7347 10.076 2.7209 10.076 2.7047 C 10.076 2.6945 10.074 2.6831 10.07 2.6723 C 10.065 2.6615 10.059 2.6501 10.052 2.6393 L 9.9665 2.523 L 10.078 2.523 L 10.078 2.4834 L 9.9113 2.4834 L 9.9113 2.5188 Z " fill="#010202"/>
<path transform="matrix(26.453076,.000004146095,-.00000042619599,-26.335286,36,315.72999)" d="M 12.945 2.4888 C 12.932 2.4948 12.922 2.5038 12.914 2.5152 C 12.906 2.5266 12.902 2.5404 12.9 2.5566 L 12.942 2.5566 C 12.943 2.5482 12.945 2.541 12.95 2.5356 C 12.954 2.5302 12.959 2.526 12.965 2.5236 C 12.971 2.5212 12.979 2.5194 12.988 2.5194 C 13.002 2.5194 13.013 2.523 13.02 2.5302 C 13.028 2.5374 13.031 2.5476 13.031 2.5608 L 13.031 2.5698 C 13.031 2.5848 13.028 2.5962 13.02 2.604 C 13.013 2.6118 13.003 2.616 12.99 2.616 L 12.969 2.616 L 12.969 2.6555 L 12.99 2.6555 C 13.001 2.6555 13.01 2.6591 13.017 2.6657 C 13.023 2.6729 13.026 2.6825 13.026 2.6951 L 13.026 2.7041 C 13.026 2.7155 13.023 2.7245 13.016 2.7311 C 13.01 2.7377 13 2.7407 12.987 2.7407 C 12.98 2.7407 12.974 2.7395 12.969 2.7365 C 12.963 2.7341 12.959 2.7299 12.954 2.7245 C 12.95 2.7191 12.948 2.7119 12.946 2.7041 L 12.904 2.7041 C 12.906 2.7203 12.912 2.7341 12.92 2.7455 C 12.927 2.7569 12.936 2.7659 12.948 2.7719 C 12.96 2.7779 12.973 2.7809 12.988 2.7809 C 13.013 2.7809 13.033 2.7743 13.047 2.7605 C 13.062 2.7467 13.068 2.7281 13.068 2.7035 L 13.068 2.6987 C 13.068 2.6837 13.064 2.6711 13.056 2.6603 C 13.048 2.6495 13.037 2.6411 13.022 2.6363 C 13.038 2.6327 13.051 2.625 13.059 2.6124 C 13.068 2.5998 13.072 2.5842 13.072 2.565 L 13.072 2.5602 C 13.072 2.5428 13.069 2.5284 13.062 2.5158 C 13.056 2.5032 13.046 2.4942 13.034 2.4882 C 13.021 2.4816 13.006 2.4786 12.988 2.4786 C 12.972 2.4798 12.957 2.4828 12.945 2.4888 Z " fill="#010202"/>
<path transform="matrix(26.453076,.000004146095,-.00000042619599,-26.335286,36,315.72999)" d="M 3.9735 .3298 C 3.9609 .3358 3.9507 .3448 3.9429 .35619 C 3.9351 .36759 3.9303 .38138 3.9285 .39757 L 3.9705 .39757 C 3.9717 .38918 3.9741 .38198 3.9783 .37658 C 3.9825 .37118 3.9873 .36699 3.9938 .36459 C 4.0004 .36219 4.0076 .36039 4.0166 .36039 C 4.0304 .36039 4.0412 .36399 4.0484 .37118 C 4.0562 .37838 4.0598 .38858 4.0598 .40177 L 4.0598 .41077 C 4.0598 .42576 4.0562 .43715 4.049 .44495 C 4.0418 .45275 4.0316 .45695 4.0184 .45695 L 3.9974 .45695 L 3.9974 .49653 L 4.0184 .49653 C 4.0298 .49653 4.0388 .50013 4.0454 .50672 C 4.052 .51392 4.055 .52351 4.055 .53611 L 4.055 .54511 C 4.055 .5565 4.0514 .5655 4.0448 .57209 C 4.0382 .57869 4.0286 .58169 4.016 .58169 C 4.0088 .58169 4.0028 .58049 3.9974 .57749 C 3.992 .57509 3.9873 .57089 3.9831 .5655 C 3.9795 .5601 3.9765 .5529 3.9747 .54511 L 3.9327 .54511 C 3.9357 .5613 3.9405 .57509 3.9483 .58649 C 3.9555 .59788 3.9651 .60688 3.9771 .61287 C 3.989 .61887 4.0016 .62187 4.0166 .62187 C 4.0418 .62187 4.0616 .61527 4.076 .60148 C 4.0898 .58829 4.097 .56909 4.097 .54451 L 4.097 .53971 C 4.097 .52471 4.0928 .51212 4.085 .50133 C 4.0772 .49053 4.0658 .48213 4.0508 .47734 C 4.067 .47374 4.0796 .46594 4.088 .45335 C 4.097 .44075 4.1012 .42516 4.1012 .40597 L 4.1012 .40117 C 4.1012 .38378 4.0976 .36939 4.091 .35679 C 4.0844 .3448 4.0748 .3352 4.0622 .3292 C 4.0496 .32261 4.034 .31961 4.0166 .31961 C 4.001 .32081 3.9861 .32381 3.9735 .3298 Z " fill="#010202"/>
<path transform="matrix(26.453076,.000004146095,-.00000042619599,-26.335286,36,315.72999)" d="M 6.9625 .3298 C 6.9499 .3358 6.9397 .3448 6.9319 .35619 C 6.9241 .36759 6.9193 .38138 6.9175 .39757 L 6.9595 .39757 C 6.9607 .38918 6.9631 .38198 6.9673 .37658 C 6.9715 .37118 6.9763 .36699 6.9829 .36459 C 6.9895 .36219 6.9967 .36039 7.0057 .36039 C 7.0195 .36039 7.0303 .36399 7.0375 .37118 C 7.0446 .37838 7.0488 .38858 7.0488 .40177 L 7.0488 .41077 C 7.0488 .42576 7.0452 .43715 7.0381 .44495 C 7.0309 .45275 7.0207 .45695 7.0075 .45695 L 6.9865 .45695 L 6.9865 .49653 L 7.0075 .49653 C 7.0189 .49653 7.0279 .50013 7.0345 .50672 C 7.0411 .51332 7.044 .52351 7.044 .53611 L 7.044 .54511 C 7.044 .5565 7.0405 .5655 7.0339 .57209 C 7.0273 .57869 7.0177 .58169 7.0051 .58169 C 6.9979 .58169 6.9919 .58049 6.9865 .57749 C 6.9811 .57449 6.9763 .57089 6.9721 .5655 C 6.9679 .5601 6.9655 .5529 6.9637 .54511 L 6.9217 .54511 C 6.9247 .5613 6.9295 .57509 6.9373 .58649 C 6.9445 .59788 6.9541 .60688 6.9661 .61287 C 6.9775 .61887 6.9907 .62187 7.0057 .62187 C 7.0309 .62187 7.0506 .61527 7.065 .60148 C 7.0794 .58769 7.086 .56909 7.086 .54451 L 7.086 .53971 C 7.086 .52471 7.0818 .51212 7.074 .50133 C 7.0662 .49053 7.0548 .48213 7.0399 .47734 C 7.056 .47374 7.0686 .46594 7.077 .45335 C 7.086 .44075 7.0902 .42516 7.0902 .40597 L 7.0902 .40117 C 7.0902 .38378 7.0872 .36939 7.08 .35679 C 7.0734 .3448 7.0638 .3352 7.0512 .3292 C 7.0387 .32261 7.0237 .31961 7.0057 .31961 C 6.9901 .32081 6.9751 .32381 6.9625 .3298 Z " fill="#010202"/>
<path transform="matrix(26.453076,.000004146095,-.00000042619599,-26.335286,36,315.72999)" d="M 6.1235 7.0251 C 6.0965 7.0407 6.0761 7.0629 6.0611 7.0917 C 6.0461 7.1205 6.0389 7.1541 6.0389 7.1919 L 6.0389 7.3322 C 6.0389 7.37 6.0461 7.4036 6.0611 7.4324 C 6.0761 7.4611 6.0965 7.4833 6.1235 7.4995 C 6.1505 7.5151 6.1816 7.5235 6.2164 7.5235 C 6.2458 7.5235 6.2728 7.5175 6.2974 7.5049 C 6.322 7.4923 6.3424 7.4749 6.3592 7.4515 C 6.376 7.4288 6.3868 7.4018 6.3927 7.3718 L 6.3196 7.3718 C 6.3154 7.388 6.3076 7.4018 6.2974 7.4144 C 6.2872 7.427 6.2746 7.4365 6.2608 7.4431 C 6.247 7.4497 6.232 7.4533 6.217 7.4533 C 6.196 7.4533 6.178 7.4485 6.1625 7.4383 C 6.1469 7.4282 6.1349 7.4144 6.1259 7.3958 C 6.1169 7.3772 6.1127 7.3562 6.1127 7.3322 L 6.1127 7.1919 C 6.1127 7.1679 6.1169 7.1469 6.1259 7.1289 C 6.1349 7.1109 6.1469 7.0965 6.1625 7.0863 C 6.178 7.0761 6.1966 7.0713 6.217 7.0713 C 6.232 7.0713 6.247 7.0743 6.2608 7.0809 C 6.2746 7.0875 6.2872 7.0965 6.2974 7.1091 C 6.3076 7.1217 6.3154 7.1361 6.3196 7.1535 L 6.3927 7.1535 C 6.3868 7.1235 6.3754 7.0965 6.3592 7.0737 C 6.3424 7.0509 6.322 7.0329 6.2974 7.0203 C 6.2728 7.0077 6.2458 7.0017 6.217 7.0017 C 6.181 7.0017 6.1499 7.0095 6.1235 7.0251 Z " fill="#010202"/>
<path transform="matrix(26.453076,.000004146095,-.00000042619599,-26.335286,36,315.72999)" d="M 6.4983 7.5175 L 6.5697 7.5175 L 6.5697 7.0065 L 6.4983 7.0065 L 6.4983 7.5175 Z M 6.5433 7.2926 L 6.8269 7.2926 L 6.8269 7.2242 L 6.5433 7.2242 L 6.5433 7.2926 Z M 6.7886 7.5175 L 6.8599 7.5175 L 6.8599 7.0065 L 6.7886 7.0065 L 6.7886 7.5175 Z " fill="#010202"/>
<path transform="matrix(26.453076,.000004146095,-.00000042619599,-26.335286,36,315.72999)" d="M 6.5607 5.8665 L 6.6320669 5.8665 L 6.6320669 6.49861 L 6.5607 6.49861 Z " fill="#010202"/>
<path transform="matrix(26.453076,.000004146095,-.00000042619599,-26.335286,36,315.72999)" d="M 6.1235 4.8661 C 6.0965 4.8817 6.0761 4.9039 6.0611 4.9327 C 6.0461 4.9615 6.0389 4.9951 6.0389 5.0328 L 6.0389 5.1732 C 6.0389 5.211 6.0461 5.2446 6.0611 5.2733 C 6.0761 5.3021 6.0965 5.3243 6.1235 5.3405 C 6.1505 5.3561 6.1816 5.3645 6.2164 5.3645 C 6.2458 5.3645 6.2728 5.3585 6.2974 5.3459 C 6.322 5.3333 6.3424 5.3159 6.3592 5.2925 C 6.376 5.2697 6.3868 5.2428 6.3927 5.2128 L 6.3196 5.2128 C 6.3154 5.229 6.3076 5.2428 6.2974 5.2553 C 6.2872 5.2679 6.2746 5.2775 6.2608 5.2841 C 6.247 5.2907 6.232 5.2943 6.217 5.2943 C 6.196 5.2943 6.178 5.2895 6.1625 5.2793 C 6.1469 5.2691 6.1349 5.2553 6.1259 5.2368 C 6.1169 5.2182 6.1127 5.1972 6.1127 5.1732 L 6.1127 5.0328 C 6.1127 5.0089 6.1169 4.9879 6.1259 4.9699 C 6.1349 4.9519 6.1469 4.9375 6.1625 4.9273 C 6.178 4.9171 6.1966 4.9123 6.217 4.9123 C 6.232 4.9123 6.247 4.9153 6.2608 4.9219 C 6.2746 4.9285 6.2872 4.9375 6.2974 4.9501 C 6.3076 4.9627 6.3154 4.9771 6.3196 4.9945 L 6.3927 4.9945 C 6.3868 4.9645 6.3754 4.9375 6.3592 4.9147 C 6.3424 4.8919 6.322 4.8739 6.2974 4.8613 C 6.2728 4.8487 6.2458 4.8427 6.217 4.8427 C 6.181 4.8427 6.1499 4.8505 6.1235 4.8661 Z " fill="#010202"/>
<path transform="matrix(26.453076,.000004146095,-.00000042619599,-26.335286,36,315.72999)" d="M 6.4983 5.3585 L 6.5697 5.3585 L 6.5697 4.8475 L 6.4983 4.8475 L 6.4983 5.3585 Z M 6.5433 5.1336 L 6.8269 5.1336 L 6.8269 5.0652 L 6.5433 5.0652 L 6.5433 5.1336 Z M 6.7886 5.3585 L 6.8599 5.3585 L 6.8599 4.8475 L 6.7886 4.8475 L 6.7886 5.3585 Z " fill="#010202"/>
<path transform="matrix(26.453076,.000004146095,-.00000042619599,-26.335286,36,315.72999)" d="M 6.5607 3.7075 L 6.6320669 3.7075 L 6.6320669 4.33961 L 6.5607 4.33961 Z " fill="#010202"/>
<path transform="matrix(26.453076,.000004146095,-.00000042619599,-26.335286,36,315.72999)" d="M .14481 2.7071 C .11782 2.7227 .097432 2.7449 .082438 2.7737 C .067445 2.8025 .060249 2.8361 .060249 2.8738 L .060249 3.0142 C .060249 3.052 .067445 3.0855 .082438 3.1143 C .097432 3.1431 .11782 3.1653 .14481 3.1815 C .1718 3.1971 .20298 3.2055 .23777 3.2055 C .26715 3.2055 .29414 3.1995 .31873 3.1869 C .34332 3.1743 .36371 3.1569 .3805 3.1335 C .39729 3.1107 .40809 3.0837 .41409 3.0538 L .34032 3.0538 C .33612 3.0699 .32833 3.0837 .31813 3.0963 C .30794 3.1089 .29534 3.1185 .28155 3.1251 C .26775 3.1317 .25276 3.1353 .23777 3.1353 C .21678 3.1353 .19879 3.1305 .18319 3.1203 C .1676 3.1101 .1556 3.0963 .14661 3.0777 C .13761 3.0592 .13342 3.0382 .13342 3.0142 L .13342 2.8738 C .13342 2.8498 .13761 2.8289 .14661 2.8109 C .1556 2.7929 .1676 2.7785 .18319 2.7683 C .19879 2.7581 .21738 2.7533 .23777 2.7533 C .25276 2.7533 .26775 2.7563 .28155 2.7629 C .29534 2.7695 .30794 2.7785 .31813 2.7911 C .32833 2.8037 .33612 2.8181 .34032 2.8355 L .41409 2.8355 C .40809 2.8055 .39669 2.7785 .3805 2.7557 C .36371 2.7329 .34332 2.7149 .31873 2.7023 C .29354 2.6897 .26715 2.6837 .23777 2.6837 C .20238 2.6837 .1718 2.6915 .14481 2.7071 Z " fill="#010202"/>
<path transform="matrix(26.453076,.000004146095,-.00000042619599,-26.335286,36,315.72999)" d="M .52024 3.1995 L .59161 3.1995 L .59161 2.6885 L .52024 2.6885 L .52024 3.1995 Z M .56462 2.9746 L .84829 2.9746 L .84829 2.9062 L .56462 2.9062 L .56462 2.9746 Z M .80991 3.1995 L .88127 3.1995 L .88127 2.6885 L .80991 2.6885 L .80991 3.1995 Z " fill="#010202"/>
<path transform="matrix(26.453076,.000004146095,-.00000042619599,-26.335286,36,315.72999)" d="M 3.2796 2.7071 C 3.2526 2.7227 3.2322 2.7449 3.2172 2.7737 C 3.2022 2.8025 3.195 2.8361 3.195 2.8738 L 3.195 3.0142 C 3.195 3.052 3.2022 3.0855 3.2172 3.1143 C 3.2322 3.1431 3.2526 3.1653 3.2796 3.1815 C 3.3066 3.1971 3.3377 3.2055 3.3725 3.2055 C 3.4019 3.2055 3.4289 3.1995 3.4535 3.1869 C 3.4781 3.1743 3.4985 3.1569 3.5153 3.1335 C 3.5321 3.1107 3.5429 3.0837 3.5489 3.0538 L 3.4757 3.0538 C 3.4715 3.0699 3.4637 3.0837 3.4535 3.0963 C 3.4433 3.1089 3.4307 3.1185 3.4169 3.1251 C 3.4031 3.1317 3.3881 3.1353 3.3731 3.1353 C 3.3521 3.1353 3.3341 3.1305 3.3186 3.1203 C 3.303 3.1101 3.291 3.0963 3.282 3.0777 C 3.273 3.0592 3.2688 3.0382 3.2688 3.0142 L 3.2688 2.8738 C 3.2688 2.8498 3.273 2.8289 3.282 2.8109 C 3.291 2.7929 3.303 2.7785 3.3186 2.7683 C 3.3341 2.7581 3.3527 2.7533 3.3731 2.7533 C 3.3881 2.7533 3.4031 2.7563 3.4169 2.7629 C 3.4307 2.7695 3.4433 2.7785 3.4535 2.7911 C 3.4637 2.8037 3.4715 2.8181 3.4757 2.8355 L 3.5489 2.8355 C 3.5429 2.8055 3.5315 2.7785 3.5153 2.7557 C 3.4985 2.7329 3.4781 2.7149 3.4535 2.7023 C 3.4289 2.6897 3.4019 2.6837 3.3731 2.6837 C 3.3371 2.6837 3.306 2.6915 3.2796 2.7071 Z " fill="#010202"/>
<path transform="matrix(26.453076,.000004146095,-.00000042619599,-26.335286,36,315.72999)" d="M 3.655 3.1995 L 3.7264 3.1995 L 3.7264 2.6885 L 3.655 2.6885 L 3.655 3.1995 Z M 3.6994 2.9746 L 3.9831 2.9746 L 3.9831 2.9062 L 3.6994 2.9062 L 3.6994 2.9746 Z M 3.9447 3.1995 L 4.016 3.1995 L 4.016 2.6885 L 3.9447 2.6885 L 3.9447 3.1995 Z " fill="#010202"/>
<path transform="matrix(26.453076,.000004146095,-.00000042619599,-26.335286,36,315.72999)" d="M 6.5043 2.7071 C 6.4773 2.7227 6.4569 2.7449 6.4419 2.7737 C 6.4269 2.8025 6.4197 2.8361 6.4197 2.8738 L 6.4197 3.0142 C 6.4197 3.052 6.4269 3.0855 6.4419 3.1143 C 6.4569 3.1431 6.4773 3.1653 6.5043 3.1815 C 6.5313 3.1971 6.5625 3.2055 6.5973 3.2055 C 6.6266 3.2055 6.6536 3.1995 6.6782 3.1869 C 6.7028 3.1743 6.7232 3.1569 6.74 3.1335 C 6.7568 3.1107 6.7676 3.0837 6.7736 3.0538 L 6.7004 3.0538 C 6.6962 3.0699 6.6884 3.0837 6.6782 3.0963 C 6.668 3.1089 6.6554 3.1185 6.6416 3.1251 C 6.6278 3.1317 6.6128 3.1353 6.5979 3.1353 C 6.5769 3.1353 6.5589 3.1305 6.5433 3.1203 C 6.5277 3.1101 6.5157 3.0963 6.5067 3.0777 C 6.4977 3.0592 6.4935 3.0382 6.4935 3.0142 L 6.4935 2.8738 C 6.4935 2.8498 6.4977 2.8289 6.5067 2.8109 C 6.5157 2.7929 6.5277 2.7785 6.5433 2.7683 C 6.5589 2.7581 6.5775 2.7533 6.5979 2.7533 C 6.6128 2.7533 6.6278 2.7563 6.6416 2.7629 C 6.6554 2.7695 6.668 2.7785 6.6782 2.7911 C 6.6884 2.8037 6.6962 2.8181 6.7004 2.8355 L 6.7736 2.8355 C 6.7676 2.8055 6.7562 2.7785 6.74 2.7557 C 6.7232 2.7329 6.7028 2.7149 6.6782 2.7023 C 6.6536 2.6897 6.6266 2.6837 6.5979 2.6837 C 6.5619 2.6837 6.5307 2.6915 6.5043 2.7071 Z " fill="#010202"/>
<path transform="matrix(26.453076,.000004146095,-.00000042619599,-26.335286,36,315.72999)" d="M 9.1125 2.7071 C 9.0855 2.7227 9.0651 2.7449 9.0501 2.7737 C 9.0351 2.8025 9.0279 2.8361 9.0279 2.8738 L 9.0279 3.0142 C 9.0279 3.052 9.0351 3.0855 9.0501 3.1143 C 9.0651 3.1431 9.0855 3.1653 9.1125 3.1815 C 9.1395 3.1971 9.1701 3.2055 9.2055 3.2055 C 9.2348 3.2055 9.2618 3.1995 9.2864 3.1869 C 9.311 3.1743 9.3314 3.1569 9.3482 3.1335 C 9.365 3.1101 9.3758 3.0837 9.3818 3.0538 L 9.3086 3.0538 C 9.3044 3.0699 9.2966 3.0837 9.2864 3.0963 C 9.2762 3.1089 9.2636 3.1185 9.2498 3.1251 C 9.236 3.1317 9.2211 3.1353 9.2061 3.1353 C 9.1851 3.1353 9.1671 3.1305 9.1515 3.1203 C 9.1359 3.1101 9.1239 3.0963 9.1149 3.0777 C 9.1065 3.0598 9.1017 3.0382 9.1017 3.0142 L 9.1017 2.8738 C 9.1017 2.8498 9.1059 2.8289 9.1149 2.8109 C 9.1233 2.7929 9.1359 2.7785 9.1515 2.7683 C 9.1671 2.7581 9.1857 2.7533 9.2061 2.7533 C 9.2211 2.7533 9.236 2.7563 9.2498 2.7629 C 9.2636 2.7695 9.2762 2.7785 9.2864 2.7911 C 9.2966 2.8037 9.3044 2.8181 9.3086 2.8355 L 9.3818 2.8355 C 9.3758 2.8055 9.3644 2.7785 9.3482 2.7557 C 9.332 2.7329 9.311 2.7149 9.2864 2.7023 C 9.2618 2.6897 9.2348 2.6837 9.2061 2.6837 C 9.1701 2.6837 9.1395 2.6915 9.1125 2.7071 Z " fill="#010202"/>
<path transform="matrix(26.453076,.000004146095,-.00000042619599,-26.335286,36,315.72999)" d="M 9.4879 3.1995 L 9.5599 3.1995 L 9.5599 2.6885 L 9.4879 2.6885 L 9.4879 3.1995 Z M 9.5323 2.9746 L 9.816 2.9746 L 9.816 2.9062 L 9.5323 2.9062 L 9.5323 2.9746 Z M 9.7776 3.1995 L 9.8496 3.1995 L 9.8496 2.6885 L 9.7776 2.6885 L 9.7776 3.1995 Z " fill="#010202"/>
<path transform="matrix(26.453076,.000004146095,-.00000042619599,-26.335286,36,315.72999)" d="M 12.103 2.7071 C 12.076 2.7227 12.056 2.7449 12.041 2.7737 C 12.026 2.8025 12.019 2.8361 12.019 2.8738 L 12.019 3.0142 C 12.019 3.052 12.026 3.0855 12.041 3.1143 C 12.056 3.1431 12.076 3.1653 12.103 3.1815 C 12.13 3.1971 12.161 3.2055 12.196 3.2055 C 12.226 3.2055 12.253 3.1995 12.277 3.1869 C 12.302 3.1743 12.322 3.1569 12.339 3.1335 C 12.356 3.1101 12.367 3.0837 12.373 3.0538 L 12.299 3.0538 C 12.295 3.0699 12.287 3.0837 12.277 3.0963 C 12.267 3.1089 12.254 3.1185 12.241 3.1251 C 12.227 3.1317 12.212 3.1353 12.197 3.1353 C 12.176 3.1353 12.158 3.1305 12.142 3.1203 C 12.127 3.1101 12.115 3.0963 12.106 3.0777 C 12.097 3.0598 12.093 3.0382 12.093 3.0142 L 12.093 2.8738 C 12.093 2.8498 12.097 2.8289 12.106 2.8109 C 12.114 2.7929 12.127 2.7785 12.142 2.7683 C 12.158 2.7581 12.176 2.7533 12.197 2.7533 C 12.212 2.7533 12.227 2.7563 12.241 2.7629 C 12.254 2.7695 12.267 2.7785 12.277 2.7911 C 12.287 2.8037 12.295 2.8181 12.299 2.8355 L 12.373 2.8355 C 12.367 2.8055 12.355 2.7785 12.339 2.7557 C 12.323 2.7329 12.302 2.7149 12.277 2.7023 C 12.253 2.6897 12.226 2.6837 12.197 2.6837 C 12.161 2.6837 12.13 2.6915 12.103 2.7071 Z " fill="#010202"/>
<path transform="matrix(26.453076,.000004146095,-.00000042619599,-26.335286,36,315.72999)" d="M 12.479 3.1995 L 12.551 3.1995 L 12.551 2.6885 L 12.479 2.6885 L 12.479 3.1995 Z M 12.523 2.9746 L 12.807 2.9746 L 12.807 2.9062 L 12.523 2.9062 L 12.523 2.9746 Z M 12.768 3.1995 L 12.84 3.1995 L 12.84 2.6885 L 12.768 2.6885 L 12.768 3.1995 Z " fill="#010202"/>
<path transform="matrix(26.453076,.000004146095,-.00000042619599,-26.335286,36,315.72999)" d="M 3.5716 1.5484 L 3.642968 1.5484 L 3.642968 2.18051 L 3.5716 2.18051 Z " fill="#010202"/>
<path transform="matrix(26.453076,.000004146095,-.00000042619599,-26.335286,36,315.72999)" d="M 6.5607 1.5484 L 6.6320669 1.5484 L 6.6320669 2.18051 L 6.5607 2.18051 Z " fill="#010202"/>
<path transform="matrix(26.453076,.000004146095,-.00000042619599,-26.335286,36,315.72999)" d="M 3.1338 .5475 C 3.1069 .5631 3.0865 .58529 3.0715 .61407 C 3.0565 .64286 3.0493 .67645 3.0493 .71423 L 3.0493 .85456 C 3.0493 .89235 3.0565 .92593 3.0715 .95472 C 3.0865 .9835 3.1069 1.0057 3.1338 1.0219 C 3.1608 1.0375 3.192 1.0459 3.2268 1.0459 C 3.2562 1.0459 3.2832 1.0399 3.3078 1.0273 C 3.3323 1.0147 3.3527 .9973 3.3695 .97391 C 3.3863 .95112 3.3971 .92413 3.4031 .89415 L 3.33 .89415 C 3.3258 .91034 3.318 .92413 3.3078 .93673 C 3.2976 .94932 3.285 .95892 3.2712 .96551 C 3.2574 .97211 3.2424 .97571 3.2274 .97571 C 3.2064 .97571 3.1884 .97091 3.1728 .96071 C 3.1572 .95052 3.1452 .93673 3.1362 .91813 C 3.1272 .89954 3.123 .87855 3.123 .85456 L 3.123 .71423 C 3.123 .69024 3.1272 .66925 3.1362 .65126 C 3.1452 .63326 3.1572 .61887 3.1728 .60868 C 3.1884 .59848 3.207 .59368 3.2274 .59368 C 3.2424 .59368 3.2574 .59668 3.2712 .60328 C 3.285 .60988 3.2976 .61887 3.3078 .63147 C 3.318 .64406 3.3258 .65845 3.33 .67585 L 3.4031 .67585 C 3.3971 .64586 3.3857 .61887 3.3695 .59608 C 3.3527 .57329 3.3323 .5553 3.3078 .54271 C 3.2832 .53011 3.2562 .52411 3.2274 .52411 C 3.192 .52411 3.1608 .53191 3.1338 .5475 Z " fill="#010202"/>
<path transform="matrix(26.453076,.000004146095,-.00000042619599,-26.335286,36,315.72999)" d="M 3.5093 1.0405 L 3.5806 1.0405 L 3.5806 .52951 L 3.5093 .52951 L 3.5093 1.0405 Z M 3.5536 .81498 L 3.8373 .81498 L 3.8373 .74661 L 3.5536 .74661 L 3.5536 .81498 Z M 3.7995 1.0405 L 3.8709 1.0405 L 3.8709 .52951 L 3.7995 .52951 L 3.7995 1.0405 Z " fill="#010202"/>
<path transform="matrix(26.453076,.000004146095,-.00000042619599,-26.335286,36,315.72999)" d="M 6.1229 .5475 C 6.0959 .5631 6.0755 .58529 6.0605 .61407 C 6.0455 .64286 6.0383 .67645 6.0383 .71423 L 6.0383 .85456 C 6.0383 .89235 6.0455 .92593 6.0605 .95472 C 6.0755 .9835 6.0959 1.0057 6.1229 1.0219 C 6.1499 1.0375 6.181 1.0459 6.2158 1.0459 C 6.2452 1.0459 6.2722 1.0399 6.2968 1.0273 C 6.3214 1.0147 6.3418 .9973 6.3586 .97391 C 6.3754 .95112 6.3862 .92413 6.3921 .89415 L 6.319 .89415 C 6.3148 .91034 6.307 .92413 6.2968 .93673 C 6.2866 .94932 6.274 .95892 6.2602 .96551 C 6.2464 .97211 6.2314 .97571 6.2164 .97571 C 6.1954 .97571 6.1774 .97091 6.1619 .96071 C 6.1463 .95052 6.1343 .93673 6.1253 .91813 C 6.1163 .89954 6.1121 .87855 6.1121 .85456 L 6.1121 .71423 C 6.1121 .69024 6.1163 .66925 6.1253 .65126 C 6.1343 .63326 6.1463 .61887 6.1619 .60868 C 6.1774 .59848 6.196 .59368 6.2164 .59368 C 6.2314 .59368 6.2464 .59668 6.2602 .60328 C 6.274 .60988 6.2866 .61887 6.2968 .63147 C 6.307 .64406 6.3148 .65845 6.319 .67585 L 6.3921 .67585 C 6.3862 .64586 6.3748 .61887 6.3586 .59608 C 6.3418 .57329 6.3214 .5553 6.2968 .54271 C 6.2722 .53011 6.2452 .52411 6.2164 .52411 C 6.1804 .52411 6.1493 .53191 6.1229 .5475 Z " fill="#010202"/>
<path transform="matrix(26.453076,.000004146095,-.00000042619599,-26.335286,36,315.72999)" d="M 6.4983 1.0405 L 6.5697 1.0405 L 6.5697 .52951 L 6.4983 .52951 L 6.4983 1.0405 Z M 6.5427 .81498 L 6.8263 .81498 L 6.8263 .74661 L 6.5427 .74661 L 6.5427 .81498 Z M 6.788 1.0405 L 6.8593 1.0405 L 6.8593 .52951 L 6.788 .52951 L 6.788 1.0405 Z " fill="#010202"/>
<path transform="matrix(26.453076,.000004146095,-.00000042619599,-26.335286,36,315.72999)" d="M 2.3332 2.8588 C 2.3302 2.8558 2.3272 2.8546 2.323 2.8546 L 1.9134 2.8546 C 1.9098 2.8546 1.9062 2.8558 1.9032 2.8588 C 1.9002 2.8618 1.899 2.8648 1.899 2.869 C 1.899 2.8726 1.9002 2.8762 1.9032 2.8792 C 1.9062 2.8822 1.9092 2.8834 1.9134 2.8834 L 2.3224 2.8834 C 2.326 2.8834 2.3296 2.8822 2.3326 2.8792 C 2.3356 2.8762 2.3368 2.8732 2.3368 2.869 C 2.3374 2.8648 2.3356 2.8612 2.3332 2.8588 Z " fill="#010202"/>
<path transform="matrix(26.453076,.000004146095,-.00000042619599,-26.335286,36,315.72999)" d="M 5.3222 2.8588 C 5.3192 2.8558 5.3162 2.8546 5.312 2.8546 L 4.903 2.8546 C 4.8994 2.8546 4.8958 2.8558 4.8928 2.8588 C 4.8898 2.8618 4.8886 2.8648 4.8886 2.869 C 4.8886 2.8726 4.8898 2.8762 4.8928 2.8792 C 4.8958 2.8822 4.8988 2.8834 4.903 2.8834 L 5.312 2.8834 C 5.3156 2.8834 5.3192 2.8822 5.3222 2.8792 C 5.3252 2.8762 5.3264 2.8732 5.3264 2.869 C 5.3264 2.8648 5.3252 2.8612 5.3222 2.8588 Z " fill="#010202"/>
<path transform="matrix(26.453076,.000004146095,-.00000042619599,-26.335286,36,315.72999)" d="M 8.3125 2.8588 C 8.3095 2.8558 8.3065 2.8546 8.3023 2.8546 L 7.8933 2.8546 C 7.8897 2.8546 7.8861 2.8558 7.8831 2.8588 C 7.8801 2.8618 7.8789 2.8648 7.8789 2.869 C 7.8789 2.8726 7.8801 2.8762 7.8831 2.8792 C 7.8861 2.8822 7.8891 2.8834 7.8933 2.8834 L 8.3023 2.8834 C 8.3059 2.8834 8.3095 2.8822 8.3125 2.8792 C 8.3155 2.8762 8.3167 2.8732 8.3167 2.869 C 8.3173 2.8648 8.3155 2.8612 8.3125 2.8588 Z " fill="#010202"/>
<path transform="matrix(26.453076,.000004146095,-.00000042619599,-26.335286,36,315.72999)" d="M 11.303 2.8588 C 11.3 2.8558 11.297 2.8546 11.293 2.8546 L 10.884 2.8546 C 10.88 2.8546 10.877 2.8558 10.874 2.8588 C 10.871 2.8618 10.87 2.8648 10.87 2.869 C 10.87 2.8726 10.871 2.8762 10.874 2.8792 C 10.877 2.8822 10.88 2.8834 10.884 2.8834 L 11.293 2.8834 C 11.297 2.8834 11.3 2.8822 11.303 2.8792 C 11.306 2.8762 11.307 2.8732 11.307 2.869 C 11.307 2.8648 11.306 2.8612 11.303 2.8588 Z " fill="#010202"/>
<clipPath id="cp29">
<path transform="matrix(26.453076,.000004146095,-.00000042619599,-26.335286,36,315.72999)" d="M .056669 .023348 L 13.07667 .023348 L 13.07667 7.883348 L .056669 7.883348 Z " fill-rule="evenodd"/>
</clipPath>
<g clip-path="url(#cp29)">
<path transform="matrix(26.453076,.000004146095,-.00000042619599,-26.335286,36,315.72999)" d="M 2.4807 1.3716 L 4.5726 1.3716 L 4.5726 -.0066619 L 2.4807 -.0066619 Z M 2.6007 .053338 L 2.5407 .11334 L 4.5126 .11334 L 4.4526 .053338 L 4.4526 1.3116 L 4.5126 1.2516 L 2.5407 1.2516 L 2.6007 1.3116 Z " fill="#010202"/>
</g>
<clipPath id="cp30">
<path transform="matrix(26.453076,.000004146095,-.00000042619599,-26.335286,36,315.72999)" d="M .056669 .023348 L 13.07667 .023348 L 13.07667 7.883348 L .056669 7.883348 Z " fill-rule="evenodd"/>
</clipPath>
<g clip-path="url(#cp30)">
<path transform="matrix(26.453076,.000004146095,-.00000042619599,-26.335286,36,315.72999)" d="M 5.6599 1.3716 L 7.7008 1.3716 L 7.7008 -.0066619 L 5.6599 -.0066619 Z M 5.7799 .053338 L 5.7199 .11334 L 7.6408 .11334 L 7.5808 .053338 L 7.5808 1.3116 L 7.6408 1.2516 L 5.7199 1.2516 L 5.7799 1.3116 Z " fill="#cd1b1b"/>
</g>
<clipPath id="cp31">
<path transform="matrix(26.453076,.000004146095,-.00000042619599,-26.335286,36,315.72999)" d="M .056669 .023348 L 13.07667 .023348 L 13.07667 7.883348 L .056669 7.883348 Z " fill-rule="evenodd"/>
</clipPath>
<g clip-path="url(#cp31)">
<path transform="matrix(26.453076,.000004146095,-.00000042619599,-26.335286,36,315.72999)" d="M 5.7528 7.9134 L 7.7937 7.9134 L 7.7937 4.4475 L 5.7528 4.4475 Z M 5.8728 4.5075 L 5.8128 4.5675 L 7.7337 4.5675 L 7.6737 4.5075 L 7.6737 7.8534 L 7.7337 7.7934 L 5.8128 7.7934 L 5.8728 7.8534 Z " fill="#64b875"/>
</g>
</g>
</g>
</g>
</g>
</g>
</svg>
