<?xml version="1.0" encoding="UTF-8" standalone="no"?>
<!DOCTYPE svg PUBLIC "-//W3C//DTD SVG 1.1//EN" "http://www.w3.org/Graphics/SVG/1.1/DTD/svg11.dtd">
<svg xmlns="http://www.w3.org/2000/svg" xmlns:xlink="http://www.w3.org/1999/xlink" version="1.1" width="595.32pt" height="841.92pt" viewBox="0 0 595.32 841.92">
<g enable-background="new">
<g>
<g id="Layer-1" data-name="P">
<clipPath id="cp0">
<path transform="matrix(1,0,0,-1,0,841.92)" d="M .000008871 0 L 595.32 0 L 595.32 841.92 L .000008871 841.92 Z " fill-rule="evenodd"/>
</clipPath>
<g clip-path="url(#cp0)">
<symbol id="font_1_3ed">
<path d="M .36767579 .033203126 C .36767579 .027018229 .3671875 .021809897 .36621095 .017578125 C .36523438 .0133463549 .36393229 .009928386 .3623047 .0073242189 C .3606771 .0047200524 .35872398 .002766927 .3564453 .0014648438 C .3544922 .00048828127 .3523763 0 .35009767 0 L .020019532 0 C .017740885 0 .015625 .00048828127 .013671875 .0014648438 C .01171875 .002766927 .009765625 .0047200524 .0078125 .0073242189 C .006184896 .009928386 .0048828127 .0133463549 .00390625 .017578125 C .0029296876 .021809897 .0024414063 .027018229 .0024414063 .033203126 C .0024414063 .0390625 .0029296876 .044108076 .00390625 .048339845 C .0048828127 .052571615 .0060221354 .055989583 .0073242189 .05859375 C .008951823 .061523439 .0107421879 .06363932 .0126953129 .064941409 C .014973958 .06656901 .017415366 .06738281 .020019532 .06738281 L .15185547 .06738281 L .15185547 .54785159 L .029785157 .47509767 C .02360026 .47184245 .018554688 .4698893 .0146484379 .46923829 C .011067708 .46858726 .0081380209 .46923829 .005859375 .4711914 C .0035807293 .47347007 .001953125 .47705079 .0009765625 .4819336 C .00032552085 .4868164 0 .4930013 0 .5004883 C 0 .50602218 .00016276042 .5107422 .00048828127 .51464846 C .0011393229 .5185547 .001953125 .5218099 .0029296876 .52441409 C .00390625 .52701827 .0052083337 .5292969 .0068359377 .53125 C .0087890629 .5332031 .011230469 .53515627 .014160156 .5371094 L .15966797 .6303711 C .16097005 .63134768 .16259766 .63216146 .16455078 .6328125 C .1665039 .63346359 .16894531 .63411459 .171875 .6347656 C .17480469 .6354167 .17822266 .6357422 .1821289 .6357422 C .18603516 .6360677 .19091797 .63623049 .19677735 .63623049 C .20458985 .63623049 .21110027 .63590499 .2163086 .6352539 C .22151692 .63460287 .22558594 .6336263 .22851563 .6323242 C .23144531 .63134768 .23339844 .6298828 .234375 .6279297 C .23535156 .62630209 .23583985 .6245117 .23583985 .6225586 L .23583985 .06738281 L .35009767 .06738281 C .3527018 .06738281 .35514323 .06656901 .35742188 .064941409 C .35970054 .06363932 .36149089 .061523439 .36279298 .05859375 C .36442057 .055989583 .3655599 .052571615 .36621095 .048339845 C .3671875 .044108076 .36767579 .0390625 .36767579 .033203126 Z "/>
</symbol>
<symbol id="font_1_358">
<path d="M .10498047 .057617189 C .10498047 .034505208 .10107422 .019042969 .09326172 .011230469 C .08577474 .0037434896 .0719401 0 .051757814 0 C .032226564 0 .018717448 .0037434896 .011230469 .011230469 C .0037434896 .018717448 0 .033691408 0 .056152345 C 0 .07926432 .0037434896 .094563808 .011230469 .10205078 C .019042969 .10986328 .033040365 .11376953 .053222658 .11376953 C .072753909 .11376953 .08626302 .11002604 .09375 .10253906 C .10123698 .095052089 .10498047 .080078128 .10498047 .057617189 Z "/>
</symbol>
<symbol id="font_1_3">
<path d="M 0 0 Z "/>
</symbol>
<symbol id="font_1_57">
<path d="M .3881836 .44970704 C .3881836 .4181315 .38297526 .38964845 .3725586 .3642578 C .36214195 .3388672 .34716798 .31722007 .32763673 .2993164 C .308431 .28141276 .28466798 .26757813 .25634767 .2578125 C .22835286 .24804688 .19482422 .24316406 .15576172 .24316406 L .083984378 .24316406 L .083984378 .015625 C .083984378 .013020833 .08317057 .0107421879 .08154297 .0087890629 C .08024088 .0068359377 .07796224 .0052083337 .07470703 .00390625 C .071777347 .0029296876 .06754557 .0021158856 .06201172 .0014648438 C .056803388 .00048828127 .050130208 0 .041992189 0 C .033854169 0 .027018229 .00048828127 .021484375 .0014648438 C .016276041 .0021158856 .0120442709 .0029296876 .0087890629 .00390625 C .005533854 .0052083337 .0032552083 .0068359377 .001953125 .0087890629 C .0006510417 .0107421879 0 .013020833 0 .015625 L 0 .5986328 C 0 .6116536 .0034179688 .62093099 .010253906 .62646487 C .017089844 .6319987 .024739584 .6347656 .033203126 .6347656 L .16845703 .6347656 C .1821289 .6347656 .19514974 .63411459 .20751953 .6328125 C .22021485 .63183596 .23502605 .62939456 .25195313 .6254883 C .26920573 .62190756 .2866211 .6149089 .30419923 .6044922 C .32210288 .59440109 .3372396 .58186849 .34960938 .56689456 C .36197917 .5519206 .37141929 .5345052 .3779297 .51464846 C .38476563 .4951172 .3881836 .47347007 .3881836 .44970704 M .2998047 .4428711 C .2998047 .46858726 .29492188 .49007163 .28515626 .5073242 C .27571617 .52457687 .26383464 .5374349 .24951172 .54589846 C .23551433 .554362 .22086589 .5597331 .2055664 .5620117 C .19059246 .56429037 .17594402 .5654297 .1616211 .5654297 L .083984378 .5654297 L .083984378 .31201173 L .15966797 .31201173 C .1850586 .31201173 .20605469 .31526695 .22265625 .32177735 C .23958333 .32828776 .2537435 .3372396 .26513673 .3486328 C .27652995 .36035157 .28515626 .3741862 .29101563 .39013673 C .296875 .40641276 .2998047 .42399089 .2998047 .4428711 Z "/>
</symbol>
<symbol id="font_1_17d">
<path d="M .43945313 .24609375 C .43945313 .21028646 .43473307 .1772461 .42529298 .14697266 C .41585288 .11702474 .40169273 .091145839 .3828125 .06933594 C .3642578 .047526044 .3408203 .030436198 .3125 .018066407 C .28450523 .0060221354 .25195313 0 .21484375 0 C .17871094 0 .14713542 .0053710939 .12011719 .016113282 C .09342448 .026855469 .071126308 .04248047 .053222658 .06298828 C .03531901 .083496097 .021972657 .10839844 .013183594 .13769531 C .0043945314 .16699219 0 .20019531 0 .23730469 C 0 .27311198 .0045572917 .3059896 .013671875 .3359375 C .023111979 .36621095 .037109376 .3922526 .055664064 .4140625 C .07454427 .4358724 .09798177 .45279948 .12597656 .46484376 C .15397136 .47688804 .1866862 .48291017 .2241211 .48291017 C .2602539 .48291017 .29166667 .47753907 .31835938 .46679688 C .3453776 .4560547 .36783854 .4404297 .3857422 .41992188 C .40364585 .39941407 .4169922 .37451173 .42578126 .34521485 C .43489585 .31591798 .43945313 .2828776 .43945313 .24609375 M .3544922 .24072266 C .3544922 .2644857 .35221354 .28694663 .34765626 .30810548 C .34342448 .3292643 .33626304 .347819 .32617188 .36376954 C .31608073 .37972007 .30240885 .3922526 .28515626 .4013672 C .26790367 .41080729 .24641927 .41552735 .22070313 .41552735 C .19694011 .41552735 .1764323 .41129557 .15917969 .40283204 C .14225261 .3943685 .1282552 .38232423 .1171875 .36669923 C .10611979 .35139976 .09781901 .33317057 .092285159 .31201173 C .08707682 .29085288 .084472659 .26774089 .084472659 .24267578 C .084472659 .21858724 .08658854 .19596355 .09082031 .17480469 C .0953776 .15364583 .10270182 .13509114 .11279297 .119140628 C .12320963 .103515628 .13704427 .09098307 .15429688 .08154297 C .17154949 .07242838 .19303386 .067871097 .21875 .067871097 C .2421875 .067871097 .26253257 .07210287 .27978517 .080566409 C .29703776 .089029949 .3111979 .10091146 .32226563 .11621094 C .33333335 .13151042 .34147135 .14973958 .3466797 .17089844 C .35188804 .1920573 .3544922 .21533203 .3544922 .24072266 Z "/>
</symbol>
<symbol id="font_1_11a">
<path d="M .40429688 .021484375 C .40429688 .018880209 .40364585 .016601563 .40234376 .0146484379 C .4013672 .0126953129 .39941407 .011067708 .39648438 .009765625 C .39388023 .0087890629 .39029948 .007975261 .3857422 .0073242189 C .3811849 .0066731774 .37565104 .0063476564 .36914063 .0063476564 C .3623047 .0063476564 .35660807 .0066731774 .35205079 .0073242189 C .3474935 .007975261 .34375 .0087890629 .3408203 .009765625 C .33789063 .011067708 .33577476 .0126953129 .33447267 .0146484379 C .33317057 .016601563 .33251954 .018880209 .33251954 .021484375 L .33251954 .079589847 C .30940757 .05452474 .285319 .03499349 .2602539 .020996094 C .23551433 .0069986979 .20833333 0 .17871094 0 C .14648438 0 .11897787 .006184896 .096191409 .018554688 C .073404949 .03125 .05485026 .048177083 .040527345 .06933594 C .026529948 .09082031 .016276041 .115885417 .009765625 .14453125 C .0032552083 .17350261 0 .2039388 0 .23583985 C 0 .27360026 .0040690104 .3076172 .012207031 .33789063 C .020345053 .3684896 .032389326 .39453126 .048339845 .41601563 C .06429037 .4375 .083984378 .4539388 .107421878 .46533204 C .13118489 .47705079 .15852864 .48291017 .18945313 .48291017 C .21516927 .48291017 .23860677 .47721354 .25976563 .4658203 C .28125 .4547526 .30240885 .4383138 .3232422 .4165039 L .3232422 .671875 C .3232422 .6741536 .32373048 .67626956 .32470704 .67822268 C .32600913 .6805013 .32828776 .6821289 .33154298 .68310549 C .3347982 .68440756 .3388672 .6853841 .34375 .68603518 C .34895835 .6870117 .35546876 .6875 .36328126 .6875 C .37141929 .6875 .37809245 .6870117 .38330079 .68603518 C .38850913 .6853841 .39257813 .68440756 .3955078 .68310549 C .3984375 .6821289 .40055339 .6805013 .40185548 .67822268 C .40348307 .67626956 .40429688 .6741536 .40429688 .671875 L .40429688 .021484375 M .3232422 .3305664 C .30143229 .35758464 .28027345 .37809245 .25976563 .39208985 C .23958333 .40641276 .21842449 .41357423 .19628906 .41357423 C .17578125 .41357423 .15836589 .4086914 .14404297 .39892579 C .12972005 .38916017 .118001308 .3763021 .10888672 .36035157 C .100097659 .34440104 .09358724 .32633464 .08935547 .30615235 C .08544922 .28597007 .083496097 .26546226 .083496097 .2446289 C .083496097 .22249349 .085123699 .20084636 .088378909 .1796875 C .09195963 .15852864 .09798177 .13964844 .10644531 .123046878 C .11490885 .106770839 .12613933 .09358724 .14013672 .083496097 C .15413411 .07373047 .17171224 .068847659 .1928711 .068847659 C .20361328 .068847659 .21386719 .0703125 .22363281 .07324219 C .23372396 .076171878 .24397786 .08105469 .25439454 .087890628 C .2648112 .09472656 .27571617 .103515628 .28710938 .11425781 C .2985026 .12532552 .31054688 .13883464 .3232422 .15478516 L .3232422 .3305664 Z "/>
</symbol>
<symbol id="font_1_16c">
<path d="M .36083985 .015625 C .36083985 .013020833 .3601888 .0107421879 .35888673 .0087890629 C .35758464 .0068359377 .355306 .0052083337 .35205079 .00390625 C .3491211 .0026041668 .3448893 .0016276041 .33935548 .0009765625 C .33382163 .00032552085 .3268229 0 .31835938 0 C .3095703 0 .3022461 .00032552085 .29638673 .0009765625 C .29085288 .0013020834 .2861328 .001953125 .28222657 .0029296876 C .2783203 .004231771 .2750651 .005859375 .27246095 .0078125 C .27018229 .0100911459 .2680664 .0126953129 .26611329 .015625 L .080566409 .25878907 L .080566409 .015136719 C .080566409 .012532552 .07991537 .010253906 .07861328 .008300781 C .077311199 .0066731774 .07519531 .0052083337 .072265628 .00390625 C .06933594 .0026041668 .06526693 .0016276041 .060058595 .0009765625 C .05485026 .00032552085 .048177083 0 .040039064 0 C .032226564 0 .025716147 .00032552085 .020507813 .0009765625 C .0152994799 .0016276041 .011067708 .0026041668 .0078125 .00390625 C .0048828127 .0052083337 .002766927 .0066731774 .0014648438 .008300781 C .00048828127 .010253906 0 .012532552 0 .015136719 L 0 .66748049 C 0 .67008468 .00048828127 .6723633 .0014648438 .6743164 C .002766927 .67626956 .0048828127 .67789718 .0078125 .6791992 C .011067708 .6805013 .0152994799 .68147787 .020507813 .6821289 C .025716147 .68277999 .032226564 .68310549 .040039064 .68310549 C .048177083 .68310549 .05485026 .68277999 .060058595 .6821289 C .06526693 .68147787 .06933594 .6805013 .072265628 .6791992 C .07519531 .67789718 .077311199 .67626956 .07861328 .6743164 C .07991537 .6723633 .080566409 .67008468 .080566409 .66748049 L .080566409 .27001954 L .24658203 .45263673 C .2491862 .45589195 .25195313 .4584961 .2548828 .46044923 C .2578125 .46272788 .26123048 .46451823 .26513673 .4658203 C .2693685 .4674479 .2742513 .46842448 .27978517 .46875 C .285319 .46940104 .2919922 .46972657 .2998047 .46972657 C .30794273 .46972657 .31477867 .46940104 .3203125 .46875 C .32584635 .46842448 .33024089 .4676107 .3334961 .4663086 C .3370768 .46533204 .33951823 .4638672 .3408203 .46191407 C .3424479 .46028648 .34326173 .4580078 .34326173 .45507813 C .34326173 .45117188 .3421224 .44726563 .33984376 .44335938 C .33789063 .43945313 .33447267 .43489585 .32958985 .4296875 L .17041016 .2705078 L .3491211 .03857422 C .35335288 .033040365 .35628257 .028483073 .35791017 .024902344 C .35986329 .021647135 .36083985 .018554688 .36083985 .015625 Z "/>
</symbol>
<symbol id="font_1_18c">
<path d="M .25683595 .42578126 C .25683595 .41861979 .2566732 .41259767 .25634767 .40771485 C .25602214 .40283204 .2553711 .39892579 .25439454 .3959961 C .25341798 .39339195 .25211589 .39127604 .25048829 .38964845 C .2491862 .38834635 .24723308 .3876953 .2446289 .3876953 C .24202474 .3876953 .23876953 .38834635 .23486328 .38964845 C .23128255 .39127604 .22705078 .39274089 .22216797 .39404298 C .21761067 .39567057 .21240235 .3971354 .20654297 .3984375 C .2006836 .3997396 .19433594 .40039063 .1875 .40039063 C .17936199 .40039063 .17138672 .39876304 .16357422 .3955078 C .15576172 .3922526 .14746094 .3868815 .13867188 .37939454 C .13020833 .37190757 .12125651 .36197917 .111816409 .34960938 C .102376308 .3372396 .09195963 .32210288 .080566409 .30419923 L .080566409 .015136719 C .080566409 .012532552 .07991537 .010253906 .07861328 .008300781 C .077311199 .0066731774 .07519531 .0052083337 .072265628 .00390625 C .06933594 .0026041668 .06526693 .0016276041 .060058595 .0009765625 C .05485026 .00032552085 .048177083 0 .040039064 0 C .032226564 0 .025716147 .00032552085 .020507813 .0009765625 C .0152994799 .0016276041 .011067708 .0026041668 .0078125 .00390625 C .0048828127 .0052083337 .002766927 .0066731774 .0014648438 .008300781 C .00048828127 .010253906 0 .012532552 0 .015136719 L 0 .45458985 C 0 .457194 .00048828127 .4593099 .0014648438 .4609375 C .0024414063 .46289063 .0043945314 .46451823 .0073242189 .4658203 C .010253906 .4674479 .0139973959 .46842448 .018554688 .46875 C .023111979 .46940104 .029134116 .46972657 .036621095 .46972657 C .04378255 .46972657 .049641927 .46940104 .05419922 .46875 C .05908203 .46842448 .06282552 .4674479 .06542969 .4658203 C .06803385 .46451823 .06982422 .46289063 .07080078 .4609375 C .07210287 .4593099 .072753909 .457194 .072753909 .45458985 L .072753909 .390625 C .08479818 .40820313 .09602865 .42252604 .10644531 .43359376 C .1171875 .44466148 .12727864 .45328776 .13671875 .45947267 C .14615886 .46598307 .1554362 .4703776 .16455078 .47265626 C .17399089 .4752604 .18343099 .4765625 .1928711 .4765625 C .19710286 .4765625 .20182292 .47623698 .20703125 .47558595 C .21256511 .4752604 .21826172 .47444663 .2241211 .47314454 C .22998047 .47184245 .2351888 .4703776 .2397461 .46875 C .2446289 .4671224 .24804688 .46549479 .25 .4638672 C .25195313 .4622396 .25325523 .46061198 .25390626 .45898438 C .25455729 .45768229 .25504557 .45589195 .2553711 .45361329 C .25602214 .45133464 .25634767 .44791667 .25634767 .44335938 C .2566732 .4391276 .25683595 .43326823 .25683595 .42578126 Z "/>
</symbol>
<symbol id="font_1_11e">
<path d="M .40429688 .2602539 C .40429688 .2475586 .40104167 .23844402 .39453126 .23291016 C .38834635 .22770183 .3811849 .22509766 .37304688 .22509766 L .08496094 .22509766 C .08496094 .2006836 .087402347 .17871094 .092285159 .15917969 C .09716797 .13964844 .10530599 .12288412 .11669922 .10888672 C .12809246 .09488932 .14290364 .08414713 .16113281 .076660159 C .17936199 .06917318 .20166016 .06542969 .22802735 .06542969 C .24886067 .06542969 .26741538 .06705729 .2836914 .0703125 C .29996745 .07389323 .31396485 .07779948 .3256836 .08203125 C .33772788 .08626302 .3474935 .09000651 .35498048 .09326172 C .36279298 .096842449 .36865235 .09863281 .3725586 .09863281 C .37483726 .09863281 .37679038 .09798177 .37841798 .09667969 C .3803711 .095703128 .38183595 .09407552 .3828125 .091796878 C .38378907 .08951823 .3844401 .08626302 .38476563 .08203125 C .38541667 .078125 .3857422 .07324219 .3857422 .06738281 C .3857422 .06315104 .38557945 .05940755 .3852539 .056152345 C .38492839 .053222658 .3844401 .05045573 .38378907 .047851564 C .38346354 .045572919 .38264976 .04345703 .38134767 .041503908 C .3803711 .03955078 .37890626 .037597658 .37695313 .03564453 C .37532554 .034016927 .3701172 .03108724 .36132813 .026855469 C .35253907 .022949219 .34114585 .019042969 .32714845 .015136719 C .31315104 .011230469 .296875 .0078125 .2783203 .0048828127 C .26009117 .0016276041 .24055989 0 .21972656 0 C .18359375 0 .15185547 .0050455729 .12451172 .015136719 C .09749349 .025227866 .07470703 .040201826 .056152345 .060058595 C .037597658 .07991537 .02360026 .10481771 .014160156 .13476563 C .0047200524 .16471355 0 .19954427 0 .23925781 C 0 .27701823 .0048828127 .3108724 .0146484379 .3408203 C .024414063 .37109376 .038411458 .39664714 .056640626 .41748048 C .07519531 .4386393 .09749349 .4547526 .123535159 .4658203 C .14957683 .47721354 .17871094 .48291017 .2109375 .48291017 C .2454427 .48291017 .2747396 .4773763 .29882813 .4663086 C .3232422 .45524089 .34326173 .44026695 .35888673 .42138673 C .37451173 .40283204 .38590495 .38085938 .3930664 .35546876 C .40055339 .33040367 .40429688 .3035482 .40429688 .27490235 L .40429688 .2602539 M .3232422 .2841797 C .32421876 .3264974 .31477867 .35970054 .29492188 .38378907 C .27539063 .4078776 .24625652 .41992188 .20751953 .41992188 C .18766277 .41992188 .17024739 .41617839 .15527344 .4086914 C .14029949 .40120445 .12776692 .39127604 .11767578 .37890626 C .10758463 .36653648 .09977213 .35205079 .09423828 .33544923 C .08870443 .3191732 .08561198 .30208335 .08496094 .2841797 L .3232422 .2841797 Z "/>
</symbol>
<symbol id="font_1_191">
<path d="M .31103517 .14111328 C .31103517 .118652347 .30680339 .09863281 .29833985 .08105469 C .2902018 .06347656 .27848307 .048665365 .2631836 .036621095 C .24788411 .024576823 .22965496 .015462239 .2084961 .009277344 C .18733724 .003092448 .1640625 0 .13867188 0 C .123046878 0 .108072917 .0013020834 .09375 .00390625 C .0797526 .006184896 .06705729 .009114583 .055664064 .0126953129 C .044596357 .016601563 .03515625 .020507813 .02734375 .024414063 C .01953125 .028645834 .013834636 .032389326 .010253906 .03564453 C .0066731774 .03889974 .0040690104 .04345703 .0024414063 .049316408 C .00081380209 .05517578 0 .06315104 0 .07324219 C 0 .079427089 .00032552085 .084635417 .0009765625 .08886719 C .0016276041 .09309896 .0024414063 .09651693 .0034179688 .099121097 C .0043945314 .10172526 .0056966149 .103515628 .0073242189 .10449219 C .009277344 .10579427 .0113932299 .10644531 .013671875 .10644531 C .017252604 .10644531 .022460938 .104166667 .029296875 .099609378 C .036458333 .0953776 .045084638 .090657558 .05517578 .08544922 C .065592449 .08024088 .07779948 .07535807 .091796878 .07080078 C .10579427 .06656901 .121907558 .064453128 .14013672 .064453128 C .1538086 .064453128 .16617839 .06591797 .1772461 .068847659 C .1883138 .071777347 .19791667 .07600912 .20605469 .08154297 C .2141927 .087402347 .22037761 .09472656 .22460938 .103515628 C .22916667 .11230469 .23144531 .12272135 .23144531 .13476563 C .23144531 .14713542 .22819011 .15755208 .22167969 .16601563 C .2154948 .17447917 .20719402 .18196614 .19677735 .18847656 C .18636067 .19498699 .17464192 .2006836 .1616211 .2055664 C .14860027 .21077474 .13509114 .21614583 .12109375 .22167969 C .107421878 .22721355 .09391276 .23339844 .080566409 .24023438 C .06754557 .24739583 .055826826 .25602214 .045410158 .26611329 C .03499349 .27620445 .026529948 .2882487 .020019532 .3022461 C .013834636 .3162435 .0107421879 .3330078 .0107421879 .35253907 C .0107421879 .36979167 .0139973959 .38623048 .020507813 .40185548 C .02734375 .417806 .037434896 .43164063 .05078125 .44335938 C .0641276 .45540367 .080729167 .4650065 .10058594 .47216798 C .12076823 .47932945 .14420574 .48291017 .17089844 .48291017 C .18261719 .48291017 .19433594 .4819336 .20605469 .47998048 C .21777344 .47802735 .22835286 .47558595 .23779297 .47265626 C .24723308 .46972657 .25520835 .46647135 .26171876 .46289063 C .2685547 .4596354 .27360026 .45670573 .27685548 .45410157 C .2804362 .4514974 .28271485 .44921876 .2836914 .44726563 C .2849935 .4453125 .28580729 .44303385 .2861328 .4404297 C .28678385 .43815104 .28727214 .43522135 .28759767 .43164063 C .2882487 .4280599 .28857423 .42366538 .28857423 .41845704 C .28857423 .4129232 .2882487 .40804038 .28759767 .4038086 C .28727214 .39990235 .28645835 .39664714 .28515626 .39404298 C .2841797 .3914388 .2828776 .3894857 .28125 .3881836 C .2796224 .38720704 .27783204 .38671876 .2758789 .38671876 C .27294923 .38671876 .26871745 .38850913 .2631836 .39208985 C .25764976 .39567057 .25048829 .39941407 .24169922 .4033203 C .23291016 .4075521 .22249349 .41145835 .21044922 .41503907 C .19873047 .41861979 .18522136 .42041017 .16992188 .42041017 C .15625 .42041017 .14420574 .41878257 .13378906 .41552735 C .1233724 .41259767 .114746097 .40820313 .107910159 .40234376 C .10139974 .3968099 .096354167 .39013673 .09277344 .38232423 C .08951823 .37451173 .087890628 .3660482 .087890628 .3569336 C .087890628 .34423829 .091145839 .3334961 .09765625 .32470704 C .104166667 .3162435 .11263021 .3087565 .123046878 .3022461 C .13346355 .2957357 .14534505 .2898763 .1586914 .28466798 C .17203777 .27945964 .18554688 .27408854 .19921875 .2685547 C .21321614 .26302085 .22688802 .25683595 .24023438 .25 C .25390626 .24316406 .26595054 .23486328 .2763672 .22509766 C .28678385 .21533203 .29508464 .20361328 .30126954 .1899414 C .30777995 .17626953 .31103517 .15999349 .31103517 .14111328 M .19677735 .67578127 C .19873047 .679362 .20100911 .6822917 .20361328 .6845703 C .20621746 .68684896 .20930989 .68863937 .21289063 .6899414 C .21679688 .69124349 .22151692 .69222006 .22705078 .6928711 C .23258464 .69352218 .23925781 .69384768 .24707031 .69384768 C .2561849 .69384768 .26350913 .6931966 .26904298 .69189456 C .27490235 .69091799 .27897135 .68929037 .28125 .6870117 C .28352867 .6850586 .28450523 .6826172 .2841797 .6796875 C .28385417 .6770833 .2823893 .6743164 .27978517 .6713867 L .19140625 .5576172 C .18880208 .554362 .18636067 .5517578 .18408203 .5498047 C .1821289 .54785159 .1796875 .54622396 .17675781 .5449219 C .17415364 .5439453 .17057292 .54313156 .16601563 .54248049 C .16178386 .54215499 .15641277 .5419922 .14990235 .5419922 C .14274089 .5419922 .13704427 .54248049 .1328125 .54345706 C .12858074 .5444336 .12548828 .54573568 .123535159 .5473633 C .121907558 .5489909 .12125651 .55110678 .12158203 .55371096 C .12223307 .5563151 .123697917 .55940756 .12597656 .5629883 L .19677735 .67578127 M .057128908 .4736328 L .057128908 .4736328 Z "/>
</symbol>
<symbol id="font_1_16f">
<path d="M .080566409 .015136719 C .080566409 .012532552 .07991537 .010253906 .07861328 .008300781 C .077311199 .0066731774 .07519531 .0052083337 .072265628 .00390625 C .06933594 .0026041668 .06526693 .0016276041 .060058595 .0009765625 C .05485026 .00032552085 .048177083 0 .040039064 0 C .032226564 0 .025716147 .00032552085 .020507813 .0009765625 C .0152994799 .0016276041 .011067708 .0026041668 .0078125 .00390625 C .0048828127 .0052083337 .002766927 .0066731774 .0014648438 .008300781 C .00048828127 .010253906 0 .012532552 0 .015136719 L 0 .66748049 C 0 .67008468 .00048828127 .6723633 .0014648438 .6743164 C .002766927 .67626956 .0048828127 .67789718 .0078125 .6791992 C .011067708 .6805013 .0152994799 .68147787 .020507813 .6821289 C .025716147 .68277999 .032226564 .68310549 .040039064 .68310549 C .048177083 .68310549 .05485026 .68277999 .060058595 .6821289 C .06526693 .68147787 .06933594 .6805013 .072265628 .6791992 C .07519531 .67789718 .077311199 .67626956 .07861328 .6743164 C .07991537 .6723633 .080566409 .67008468 .080566409 .66748049 L .080566409 .015136719 Z "/>
</symbol>
<use xlink:href="#font_1_3ed" transform="matrix(10.98,0,0,-10.98,36.932874,46.5)"/>
<use xlink:href="#font_1_358" transform="matrix(10.98,0,0,-10.98,42.37642,46.548254)"/>
<use xlink:href="#font_1_3" transform="matrix(10.98,0,0,-10.98,44.33382,46.5)"/>
<use xlink:href="#font_1_57" transform="matrix(10.98,0,0,-10.98,47.73745,46.53217)"/>
<use xlink:href="#font_1_17d" transform="matrix(10.98,0,0,-10.98,52.97448,46.601865)"/>
<use xlink:href="#font_1_11a" transform="matrix(10.98,0,0,-10.98,58.826047,46.601865)"/>
<use xlink:href="#font_1_16c" transform="matrix(10.98,0,0,-10.98,64.89614,46.53217)"/>
<use xlink:href="#font_1_18c" transform="matrix(10.98,0,0,-10.98,69.892047,46.53217)"/>
<use xlink:href="#font_1_11e" transform="matrix(10.98,0,0,-10.98,73.40238,46.601865)"/>
<use xlink:href="#font_1_191" transform="matrix(10.98,0,0,-10.98,78.80608,46.601865)"/>
<use xlink:href="#font_1_16f" transform="matrix(10.98,0,0,-10.98,83.48528,46.53217)"/>
<use xlink:href="#font_1_3" transform="matrix(10.98,0,0,-10.98,85.1904,46.5)"/>
</g>
<clipPath id="cp2">
<path transform="matrix(1,0,0,-1,0,841.92)" d="M .000008871 0 L 595.32 0 L 595.32 841.92 L .000008871 841.92 Z " fill-rule="evenodd"/>
</clipPath>
<g clip-path="url(#cp2)">
<symbol id="font_3_1c1">
<path d="M .7109375 .4560547 C .7109375 .45247398 .7104492 .44807945 .70947268 .4428711 C .7084961 .43766276 .70670577 .43017579 .70410159 .42041017 L .5878906 .026367188 C .586263 .020833334 .58414718 .016276041 .58154299 .0126953129 C .5789388 .0094401049 .5748698 .0068359377 .56933596 .0048828127 C .5641276 .0029296876 .55647787 .0016276041 .5463867 .0009765625 C .5366211 .00032552085 .523763 0 .5078125 0 C .49186198 0 .47884117 .00048828127 .46875 .0014648438 C .45865885 .0021158856 .4506836 .0034179688 .44482423 .0053710939 C .43929038 .0073242189 .43522135 .009928386 .4326172 .013183594 C .43001304 .016764323 .4280599 .021158854 .4267578 .026367188 L .35351563 .29101563 L .35253907 .29541017 L .3515625 .29101563 L .2841797 .026367188 C .2828776 .020833334 .28092448 .016276041 .2783203 .0126953129 C .27604167 .0094401049 .27197267 .0068359377 .26611329 .0048828127 C .2602539 .0029296876 .25227867 .0016276041 .2421875 .0009765625 C .23209636 .00032552085 .21907552 0 .203125 0 C .18684896 0 .17366536 .00048828127 .16357422 .0014648438 C .1538086 .0021158856 .1459961 .0034179688 .14013672 .0053710939 C .13460286 .0073242189 .13053386 .009928386 .12792969 .013183594 C .12532552 .016764323 .1233724 .021158854 .12207031 .026367188 L .0068359377 .42041017 C .00390625 .42985026 .001953125 .43717448 .0009765625 .4423828 C .00032552085 .44791667 0 .45247398 0 .4560547 C 0 .4593099 .00081380209 .4620768 .0024414063 .46435548 C .0043945314 .46695964 .0076497399 .46891276 .012207031 .47021485 C .017089844 .47184245 .0234375 .47298179 .03125 .4736328 C .03938802 .47428385 .049479169 .47460938 .061523439 .47460938 C .07454427 .47460938 .085123699 .47428385 .09326172 .4736328 C .10139974 .47298179 .1077474 .47184245 .11230469 .47021485 C .11686198 .46858726 .11995443 .4663086 .12158203 .4633789 C .123535159 .46077476 .125 .45751954 .12597656 .45361329 L .21240235 .13378906 L .2133789 .12792969 L .21435547 .13378906 L .29541017 .45361329 C .29638673 .45751954 .29785157 .46077476 .2998047 .4633789 C .30208335 .4663086 .30533854 .46858726 .3095703 .47021485 C .3138021 .47184245 .31966148 .47298179 .32714845 .4736328 C .33496095 .47428385 .3448893 .47460938 .3569336 .47460938 C .36897788 .47460938 .3787435 .4741211 .38623048 .47314454 C .39371745 .4724935 .3995768 .47135417 .4038086 .46972657 C .40836589 .46842448 .41145835 .46647135 .41308595 .4638672 C .41503907 .46158854 .4165039 .45882163 .41748048 .4555664 L .50439456 .13330078 L .5058594 .12792969 L .50683596 .13378906 L .58984377 .45361329 C .5904948 .45751954 .5917969 .46077476 .59375 .4633789 C .5957031 .4663086 .5989583 .46858726 .6035156 .47021485 C .60807296 .47184245 .6142578 .47298179 .6220703 .4736328 C .6298828 .47428385 .6398112 .47460938 .65185549 .47460938 C .6638997 .47460938 .67366537 .47428385 .68115237 .4736328 C .68896487 .47298179 .694987 .47184245 .69921877 .47021485 C .70377609 .46891276 .70686849 .46695964 .7084961 .46435548 C .7101237 .4620768 .7109375 .4593099 .7109375 .4560547 Z "/>
</symbol>
<symbol id="font_3_1cc">
<path d="M .33251954 .05029297 C .33251954 .040852865 .33203126 .032714845 .3310547 .025878907 C .33007813 .01936849 .32877604 .014160156 .32714845 .010253906 C .32552085 .0063476564 .32340495 .0035807293 .32080079 .001953125 C .31819663 .0006510417 .31526695 0 .31201173 0 L .02734375 0 C .018554688 0 .01171875 .0029296876 .0068359377 .0087890629 C .0022786458 .0146484379 0 .024251303 0 .037597658 L 0 .060058595 C 0 .06591797 .00016276042 .071126308 .00048828127 .075683597 C .0011393229 .080566409 .0021158856 .085123699 .0034179688 .08935547 C .0050455729 .09391276 .0069986979 .098470058 .009277344 .103027347 C .011881511 .10758463 .015136719 .11263021 .019042969 .11816406 L .1821289 .3701172 L .027832032 .3701172 C .021647135 .3701172 .016601563 .37402345 .0126953129 .38183595 C .009114583 .38964845 .0073242189 .402181 .0073242189 .4194336 C .0073242189 .4288737 .0076497399 .4366862 .008300781 .4428711 C .009277344 .4493815 .010579427 .4544271 .012207031 .4580078 C .013834636 .46191407 .015950522 .464681 .018554688 .4663086 C .021158854 .4679362 .024251303 .46875 .027832032 .46875 L .2939453 .46875 C .2985026 .46875 .30240885 .46826173 .30566407 .46728517 C .30891929 .4663086 .31152345 .46451823 .31347657 .46191407 C .31575523 .4593099 .3173828 .45572917 .31835938 .45117188 C .31966148 .4466146 .3203125 .44091798 .3203125 .43408204 L .3203125 .41015626 C .3203125 .40364585 .31998698 .39778648 .31933595 .39257813 C .3186849 .3876953 .31770835 .38297526 .31640626 .37841798 C .31510417 .3738607 .31315104 .36930339 .31054688 .3647461 C .30826823 .3601888 .3055013 .355306 .3022461 .35009767 L .14013672 .09863281 L .31201173 .09863281 C .3149414 .09863281 .31770835 .09798177 .3203125 .09667969 C .32291667 .0953776 .32503257 .092936199 .32666017 .08935547 C .32861329 .08577474 .33007813 .080729167 .3310547 .07421875 C .33203126 .06803385 .33251954 .060058595 .33251954 .05029297 Z "/>
</symbol>
<symbol id="font_3_17d">
<path d="M .46679688 .25 C .46679688 .21289063 .46191407 .17903646 .45214845 .1484375 C .4423828 .11783854 .42757163 .09147135 .40771485 .06933594 C .38785807 .04720052 .36295573 .030110678 .3330078 .018066407 C .3030599 .0060221354 .2680664 0 .22802735 0 C .18929036 0 .15559896 .0053710939 .12695313 .016113282 C .09830729 .026855469 .07454427 .04248047 .055664064 .06298828 C .036783857 .083496097 .022786459 .10872396 .013671875 .13867188 C .0045572917 .1686198 0 .20279949 0 .24121094 C 0 .2783203 .0048828127 .31217448 .0146484379 .34277345 C .024739584 .3736979 .039713544 .4000651 .059570314 .421875 C .079427089 .4440104 .104166667 .46110026 .13378906 .47314454 C .16373699 .4851888 .19873047 .49121095 .23876953 .49121095 C .27783204 .49121095 .3116862 .48583985 .34033204 .47509767 C .36897788 .464681 .39257813 .44921876 .4111328 .42871095 C .43001304 .40820313 .4440104 .38297526 .453125 .35302735 C .4622396 .32307945 .46679688 .28873698 .46679688 .25 M .34033204 .24511719 C .34033204 .26660157 .33854167 .28629557 .33496095 .30419923 C .33170573 .32242839 .32600913 .33821617 .3178711 .3515625 C .30973307 .36490885 .29882813 .37532554 .28515626 .3828125 C .2718099 .39029948 .2548828 .39404298 .234375 .39404298 C .21614583 .39404298 .20019531 .390625 .18652344 .38378907 C .17285156 .37727867 .1616211 .36751304 .15283203 .3544922 C .14404297 .34179688 .1373698 .32633464 .1328125 .30810548 C .12858074 .2902018 .12646485 .269694 .12646485 .24658203 C .12646485 .22509766 .1282552 .20524089 .13183594 .18701172 C .13541667 .16910808 .14111328 .15348308 .14892578 .14013672 C .1570638 .12679036 .16796875 .116373699 .18164063 .10888672 C .1953125 .10172526 .21223958 .09814453 .23242188 .09814453 C .25097657 .09814453 .26708985 .10139974 .28076173 .107910159 C .2944336 .114746097 .30566407 .12451172 .31445313 .13720703 C .3232422 .14990235 .3297526 .16520183 .33398438 .18310547 C .33821617 .20133464 .34033204 .2220052 .34033204 .24511719 Z "/>
</symbol>
<symbol id="font_3_18c">
<path d="M .27978517 .41455079 C .27978517 .40283204 .27945964 .39322917 .2788086 .3857422 C .27815757 .37825523 .277181 .37239585 .2758789 .36816407 C .2745768 .36393229 .27278648 .3610026 .2705078 .359375 C .2685547 .3577474 .26595054 .3569336 .2626953 .3569336 C .26009117 .3569336 .25716148 .35742188 .25390626 .35839845 C .25065104 .35970054 .24690755 .3610026 .24267578 .3623047 C .23876953 .36360679 .234375 .3647461 .22949219 .36572267 C .22460938 .36702476 .21923828 .36767579 .2133789 .36767579 C .20654297 .36767579 .19970703 .36621095 .1928711 .36328126 C .18603516 .3606771 .1788737 .3564453 .17138672 .35058595 C .16422527 .34472657 .15657552 .33691407 .1484375 .32714845 C .140625 .3173828 .13216146 .30533854 .123046878 .29101563 L .123046878 .01953125 C .123046878 .016276041 .12207031 .0133463549 .12011719 .0107421879 C .11816406 .008463542 .114746097 .0065104167 .10986328 .0048828127 C .10530599 .0032552083 .099121097 .0021158856 .091308597 .0014648438 C .083496097 .00048828127 .07356771 0 .061523439 0 C .049479169 0 .03955078 .00048828127 .03173828 .0014648438 C .023925782 .0021158856 .017578125 .0032552083 .0126953129 .0048828127 C .0081380209 .0065104167 .0048828127 .008463542 .0029296876 .0107421879 C .0009765625 .0133463549 0 .016276041 0 .01953125 L 0 .45507813 C 0 .45833335 .00081380209 .46110026 .0024414063 .4633789 C .0040690104 .46598307 .0069986979 .46809898 .011230469 .46972657 C .015462239 .47135417 .020833334 .4724935 .02734375 .47314454 C .034179689 .4741211 .04264323 .47460938 .052734376 .47460938 C .06315104 .47460938 .071777347 .4741211 .07861328 .47314454 C .08544922 .4724935 .090657558 .47135417 .09423828 .46972657 C .09814453 .46809898 .10091146 .46598307 .10253906 .4633789 C .104166667 .46110026 .10498047 .45833335 .10498047 .45507813 L .10498047 .4008789 C .116373699 .41715495 .12711589 .4305013 .13720703 .44091798 C .14729817 .45166017 .15690105 .4601237 .16601563 .4663086 C .1751302 .4724935 .1842448 .47672526 .19335938 .4790039 C .20247396 .48160807 .21158855 .48291017 .22070313 .48291017 C .22493489 .48291017 .22949219 .48258464 .234375 .4819336 C .23925781 .48160807 .24430339 .48079429 .24951172 .4794922 C .25472007 .47851563 .25927735 .47721354 .2631836 .47558595 C .26708985 .47428385 .26985679 .472819 .27148438 .4711914 C .2734375 .4695638 .2747396 .46777345 .27539063 .4658203 C .2763672 .4638672 .277181 .46110026 .27783204 .45751954 C .27848307 .4542643 .27897135 .44921876 .27929688 .4423828 C .2796224 .43554688 .27978517 .42626954 .27978517 .41455079 Z "/>
</symbol>
<symbol id="font_3_1c7">
<path d="M .30322267 .1772461 L .25048829 .022949219 C .2475586 .014811198 .23958333 .008951823 .2265625 .0053710939 C .21354167 .0017903646 .1944987 0 .1694336 0 C .15641277 0 .1459961 .0006510417 .1381836 .001953125 C .1303711 .0029296876 .12451172 .0047200524 .12060547 .0073242189 C .11669922 .009928386 .114583339 .013183594 .11425781 .017089844 C .11393229 .020996094 .11490885 .025716147 .1171875 .03125 L .17529297 .1772461 C .1710612 .17919922 .16715496 .1821289 .16357422 .18603516 C .16031902 .19026692 .15787761 .19466146 .15625 .19921875 L .0063476564 .5996094 C .0021158856 .6110026 0 .6196289 0 .6254883 C 0 .63167318 .001953125 .63639327 .005859375 .63964846 C .009765625 .6432292 .016276041 .6456706 .025390625 .64697268 C .03483073 .6482747 .04720052 .6489258 .0625 .6489258 C .0764974 .6489258 .0875651 .6486003 .095703128 .6479492 C .10384115 .6476237 .110188808 .6464844 .114746097 .64453127 C .11930338 .6425781 .12272135 .63948568 .125 .6352539 C .12727864 .63134768 .1295573 .62565109 .13183594 .61816409 L .234375 .32666017 L .23583985 .32666017 L .32958985 .62402346 C .33154298 .632487 .33398438 .6380208 .33691407 .640625 C .34016929 .6435547 .3453776 .6456706 .35253907 .64697268 C .35970054 .6482747 .37223307 .6489258 .39013673 .6489258 C .40413413 .6489258 .4156901 .6482747 .4248047 .64697268 C .43424479 .6456706 .44108073 .6432292 .4453125 .63964846 C .44986979 .6360677 .45214845 .6311849 .45214845 .625 C .45214845 .6191406 .45084635 .6121419 .4482422 .6040039 L .30322267 .1772461 Z "/>
</symbol>
<symbol id="font_3_3">
<path d="M 0 0 Z "/>
</symbol>
<symbol id="font_3_190">
<path d="M .33251954 .1508789 C .33251954 .12613933 .32779948 .10432943 .31835938 .08544922 C .30924479 .06656901 .29622398 .05078125 .27929688 .038085939 C .26236979 .025390625 .24235027 .015950522 .21923828 .009765625 C .1961263 .0032552083 .1710612 0 .14404297 0 C .12776692 0 .11214193 .0013020834 .09716797 .00390625 C .08251953 .006184896 .06933594 .009114583 .057617189 .0126953129 C .045898439 .016601563 .036132814 .020507813 .028320313 .024414063 C .020507813 .028320313 .014811198 .031901044 .011230469 .03515625 C .0076497399 .03873698 .0048828127 .044108076 .0029296876 .05126953 C .0009765625 .05875651 0 .06966146 0 .083984378 C 0 .09342448 .00032552085 .10091146 .0009765625 .10644531 C .0016276041 .11230469 .0026041668 .11686198 .00390625 .12011719 C .0052083337 .123697917 .0068359377 .12597656 .0087890629 .12695313 C .0107421879 .1282552 .013183594 .12890625 .016113282 .12890625 C .01969401 .12890625 .024902344 .12679036 .03173828 .122558597 C .03889974 .118652347 .0476888 .11425781 .05810547 .109375 C .06852213 .10449219 .080566409 .0999349 .09423828 .095703128 C .10823568 .09147135 .12402344 .08935547 .14160156 .08935547 C .15266927 .08935547 .16243489 .09049479 .17089844 .09277344 C .1796875 .095052089 .18717449 .09830729 .19335938 .10253906 C .1998698 .106770839 .20475261 .11214193 .20800781 .118652347 C .21126302 .12516277 .21289063 .13264974 .21289063 .14111328 C .21289063 .1508789 .20979817 .15917969 .20361328 .16601563 C .1977539 .17317708 .18977864 .17936199 .1796875 .18457031 C .16992188 .18977864 .1586914 .19466146 .1459961 .19921875 C .1336263 .20377605 .12076823 .20882161 .107421878 .21435547 C .09440104 .21988933 .08154297 .22623699 .068847659 .23339844 C .056477865 .24055989 .045247396 .24934896 .03515625 .25976563 C .025390625 .27018229 .017415366 .28271485 .011230469 .29736329 C .0053710939 .31201173 .0024414063 .32958985 .0024414063 .35009767 C .0024414063 .370931 .0065104167 .38997398 .0146484379 .40722657 C .022786459 .4248047 .034505208 .43977867 .049804689 .45214845 C .065104167 .46451823 .08365885 .4741211 .10546875 .48095704 C .12760417 .48779298 .15234375 .49121095 .1796875 .49121095 C .19335938 .49121095 .20654297 .49023438 .21923828 .48828126 C .23225911 .48632813 .24397786 .48388673 .25439454 .48095704 C .2648112 .47802735 .27360026 .47477214 .28076173 .4711914 C .2879232 .4679362 .29296876 .4650065 .29589845 .46240235 C .29915367 .4601237 .30143229 .45768229 .30273438 .45507813 C .30403648 .45279948 .30501304 .44986979 .30566407 .44628907 C .3063151 .44303385 .30680339 .4388021 .3071289 .43359376 C .30777995 .42871095 .30810548 .42252604 .30810548 .41503907 C .30810548 .40625 .30777995 .39908854 .3071289 .3935547 C .30680339 .38802085 .3059896 .3836263 .3046875 .3803711 C .30371095 .37711589 .3022461 .37483726 .30029298 .37353517 C .29833985 .3725586 .2960612 .3720703 .29345704 .3720703 C .29052735 .3720703 .28597007 .3736979 .27978517 .37695313 C .27360026 .38053385 .26578776 .38427735 .25634767 .3881836 C .24723308 .39208985 .23649089 .39567057 .2241211 .39892579 C .21207683 .4025065 .19824219 .40429688 .18261719 .40429688 C .17154949 .40429688 .16194661 .40315757 .1538086 .4008789 C .14567058 .39860026 .13899739 .39534507 .13378906 .39111329 C .12858074 .3868815 .12467448 .38183595 .12207031 .37597657 C .11946615 .37044273 .11816406 .36442057 .11816406 .35791017 C .11816406 .347819 .12125651 .33935548 .1274414 .33251954 C .1336263 .3256836 .14176433 .31966148 .15185547 .31445313 C .16194661 .30924479 .17333985 .30436198 .18603516 .2998047 C .19905599 .2952474 .21207683 .2902018 .22509766 .28466798 C .23844402 .27945964 .25146485 .27327476 .26416017 .26611329 C .277181 .2589518 .28873698 .25016276 .29882813 .2397461 C .30891929 .22932942 .31705729 .21679688 .3232422 .20214844 C .3294271 .18782552 .33251954 .17073567 .33251954 .1508789 Z "/>
</symbol>
<symbol id="font_3_1b5">
<path d="M .41552735 .027832032 C .41552735 .024576823 .41471354 .021647135 .41308595 .019042969 C .41145835 .016764323 .40852867 .014811198 .40429688 .013183594 C .40039063 .011555989 .39501954 .010416667 .3881836 .009765625 C .3816732 .0087890629 .3733724 .008300781 .36328126 .008300781 C .35253907 .008300781 .34375 .0087890629 .33691407 .009765625 C .33040367 .010416667 .3251953 .011555989 .32128907 .013183594 C .3173828 .014811198 .31461589 .016764323 .31298829 .019042969 C .3113607 .021647135 .31054688 .024576823 .31054688 .027832032 L .31054688 .078125 C .28645835 .052083333 .2618815 .032552083 .2368164 .01953125 C .21207683 .0065104167 .18636067 0 .15966797 0 C .12972005 0 .10449219 .0048828127 .083984378 .0146484379 C .063802089 .024414063 .04736328 .037760419 .03466797 .0546875 C .022298178 .071614589 .0133463549 .091145839 .0078125 .11328125 C .0026041668 .13574219 0 .16357422 0 .19677735 L 0 .4633789 C 0 .46663413 .00081380209 .46940104 .0024414063 .4716797 C .0043945314 .47428385 .0076497399 .47639976 .012207031 .47802735 C .017089844 .47965495 .0234375 .48079429 .03125 .4814453 C .03938802 .48242188 .049316408 .48291017 .061035158 .48291017 C .07307943 .48291017 .08300781 .48242188 .09082031 .4814453 C .09863281 .48079429 .10481771 .47965495 .109375 .47802735 C .11425781 .47639976 .11767578 .47428385 .119628909 .4716797 C .12158203 .46940104 .122558597 .46663413 .122558597 .4633789 L .122558597 .21728516 C .122558597 .1944987 .12402344 .17708333 .12695313 .16503906 C .12988281 .1529948 .13427735 .14257813 .14013672 .13378906 C .14632161 .12532552 .15397136 .118652347 .16308594 .11376953 C .17252605 .10921224 .18343099 .106933597 .19580078 .106933597 C .21142578 .106933597 .22705078 .11263021 .24267578 .12402344 C .2586263 .13541667 .27555339 .15201824 .29345704 .17382813 L .29345704 .4633789 C .29345704 .46663413 .29427085 .46940104 .29589845 .4716797 C .29785157 .47428385 .30110679 .47639976 .30566407 .47802735 C .31054688 .47965495 .31689454 .48079429 .32470704 .4814453 C .33251954 .48242188 .3424479 .48291017 .3544922 .48291017 C .36653648 .48291017 .37646485 .48242188 .38427735 .4814453 C .39208985 .48079429 .39827476 .47965495 .40283204 .47802735 C .4073893 .47639976 .41064454 .47428385 .41259767 .4716797 C .41455079 .46940104 .41552735 .46663413 .41552735 .4633789 L .41552735 .027832032 Z "/>
</symbol>
<symbol id="font_3_175">
<path d="M .6928711 .01953125 C .6928711 .016276041 .69189456 .0133463549 .6899414 .0107421879 C .6879883 .008463542 .6847331 .0065104167 .6801758 .0048828127 C .67561849 .0032552083 .6694336 .0021158856 .6616211 .0014648438 C .6538086 .00048828127 .6438802 0 .63183596 0 C .6194661 0 .609375 .00048828127 .6015625 .0014648438 C .59375 .0021158856 .58740237 .0032552083 .58251956 .0048828127 C .5779622 .0065104167 .57470706 .008463542 .5727539 .0107421879 C .5711263 .0133463549 .5703125 .016276041 .5703125 .01953125 L .5703125 .27783204 C .5703125 .29248048 .56884768 .3058268 .56591799 .3178711 C .5633138 .32991538 .55908206 .34016929 .55322268 .3486328 C .5476888 .35742188 .54052737 .36409507 .5317383 .36865235 C .5232747 .37353517 .5130208 .37597657 .50097659 .37597657 C .48632813 .37597657 .47151695 .37027995 .45654298 .35888673 C .441569 .3474935 .42529298 .33089195 .40771485 .30908204 L .40771485 .01953125 C .40771485 .016276041 .40673829 .0133463549 .40478517 .0107421879 C .40283204 .008463542 .39941407 .0065104167 .39453126 .0048828127 C .38997398 .0032552083 .38378907 .0021158856 .37597657 .0014648438 C .36816407 .00048828127 .35839845 0 .3466797 0 C .3346354 0 .32470704 .00048828127 .31689454 .0014648438 C .30908204 .0021158856 .30273438 .0032552083 .29785157 .0048828127 C .29329429 .0065104167 .29003907 .008463542 .28808595 .0107421879 C .2861328 .0133463549 .28515626 .016276041 .28515626 .01953125 L .28515626 .27783204 C .28515626 .29248048 .2836914 .3058268 .28076173 .3178711 C .27815757 .32991538 .27408854 .34016929 .2685547 .3486328 C .26302085 .35742188 .25585938 .36409507 .24707031 .36865235 C .23828125 .37353517 .22802735 .37597657 .2163086 .37597657 C .20133464 .37597657 .18636067 .37027995 .17138672 .35888673 C .15641277 .3474935 .14029949 .33089195 .123046878 .30908204 L .123046878 .01953125 C .123046878 .016276041 .12207031 .0133463549 .12011719 .0107421879 C .11816406 .008463542 .114746097 .0065104167 .10986328 .0048828127 C .10530599 .0032552083 .099121097 .0021158856 .091308597 .0014648438 C .083496097 .00048828127 .07356771 0 .061523439 0 C .049479169 0 .03955078 .00048828127 .03173828 .0014648438 C .023925782 .0021158856 .017578125 .0032552083 .0126953129 .0048828127 C .0081380209 .0065104167 .0048828127 .008463542 .0029296876 .0107421879 C .0009765625 .0133463549 0 .016276041 0 .01953125 L 0 .45507813 C 0 .45833335 .00081380209 .46110026 .0024414063 .4633789 C .0040690104 .46598307 .0069986979 .46809898 .011230469 .46972657 C .015462239 .47135417 .020833334 .4724935 .02734375 .47314454 C .034179689 .4741211 .04264323 .47460938 .052734376 .47460938 C .06315104 .47460938 .071777347 .4741211 .07861328 .47314454 C .08544922 .4724935 .090657558 .47135417 .09423828 .46972657 C .09814453 .46809898 .10091146 .46598307 .10253906 .4633789 C .104166667 .46110026 .10498047 .45833335 .10498047 .45507813 L .10498047 .40478517 C .12906902 .4308268 .1529948 .45035807 .17675781 .4633789 C .20084636 .47639976 .22591146 .48291017 .25195313 .48291017 C .26985679 .48291017 .28597007 .48095704 .30029298 .47705079 C .31461589 .47347007 .3273112 .46809898 .3383789 .4609375 C .34977214 .45410157 .35953776 .44580079 .36767579 .43603517 C .3758138 .42626954 .38264976 .4153646 .3881836 .4033203 C .40120445 .41731773 .41389976 .42936198 .42626954 .43945313 C .43896485 .44954429 .45133464 .45768229 .4633789 .4638672 C .4757487 .4703776 .48795573 .47509767 .5 .47802735 C .5123698 .48128257 .52490237 .48291017 .53759768 .48291017 C .56656906 .48291017 .5909831 .47802735 .61083987 .46826173 C .6306966 .4584961 .64664718 .44514976 .6586914 .42822267 C .6710612 .4116211 .6798503 .39208985 .6850586 .3696289 C .6902669 .34716798 .6928711 .32340495 .6928711 .29833985 L .6928711 .01953125 Z "/>
</symbol>
<symbol id="font_3_102">
<path d="M .39794923 .026367188 C .39794923 .021809897 .39632163 .018229166 .3930664 .015625 C .3898112 .013020833 .38460288 .011230469 .3774414 .010253906 C .37060548 .008951823 .36035157 .008300781 .3466797 .008300781 C .33203126 .008300781 .32128907 .008951823 .31445313 .010253906 C .30794273 .011230469 .30322267 .013020833 .30029298 .015625 C .2976888 .018229166 .29638673 .021809897 .29638673 .026367188 L .29638673 .061035158 C .27848307 .041829427 .25797526 .026855469 .23486328 .016113282 C .21207683 .0053710939 .1866862 0 .1586914 0 C .13557942 0 .11425781 .003092448 .09472656 .009277344 C .075520839 .015136719 .05875651 .023925782 .044433595 .03564453 C .030436198 .0476888 .01953125 .0625 .01171875 .080078128 C .00390625 .09765625 0 .11816406 0 .14160156 C 0 .16699219 .0048828127 .18896485 .0146484379 .20751953 C .024739584 .22639974 .03955078 .24186199 .05908203 .25390626 C .078938808 .26627604 .103515628 .27539063 .1328125 .28125 C .16210938 .28710938 .1961263 .29003907 .23486328 .29003907 L .27734376 .29003907 L .27734376 .31640626 C .27734376 .33007813 .2758789 .34195964 .27294923 .35205079 C .27034507 .36246745 .26578776 .37109376 .25927735 .3779297 C .25309245 .38476563 .2446289 .3898112 .23388672 .3930664 C .22347005 .39632163 .21044922 .39794923 .19482422 .39794923 C .1743164 .39794923 .15592449 .39567057 .13964844 .39111329 C .123697917 .386556 .10953776 .3815104 .09716797 .37597657 C .08479818 .37044273 .07438151 .36539714 .06591797 .36083985 C .05777995 .35628257 .05110677 .3540039 .045898439 .3540039 C .042317708 .3540039 .0390625 .35514323 .036132814 .35742188 C .033528646 .35970054 .03125 .36295573 .029296875 .3671875 C .027669272 .37141929 .026367188 .3766276 .025390625 .3828125 C .024414063 .3889974 .023925782 .39583335 .023925782 .4033203 C .023925782 .41341148 .024739584 .42138673 .026367188 .4272461 C .027994791 .43310548 .03108724 .4383138 .03564453 .4428711 C .040201826 .4477539 .048177083 .45296226 .059570314 .4584961 C .07096354 .46435548 .0843099 .46972657 .099609378 .47460938 C .11490885 .4794922 .13151042 .48339845 .14941406 .48632813 C .16764324 .48958335 .18636067 .49121095 .2055664 .49121095 C .2397461 .49121095 .26888023 .48779298 .29296876 .48095704 C .3173828 .47444663 .33740235 .46419273 .35302735 .4501953 C .36865235 .43652345 .38004557 .41878257 .38720704 .39697267 C .3943685 .37516276 .39794923 .34928385 .39794923 .31933595 L .39794923 .026367188 M .27734376 .21289063 L .23046875 .21289063 C .21061199 .21289063 .19368489 .21142578 .1796875 .2084961 C .16569011 .2055664 .15429688 .20117188 .14550781 .1953125 C .13671875 .18945313 .13020833 .18229167 .12597656 .17382813 C .12207031 .16569011 .12011719 .15625 .12011719 .14550781 C .12011719 .12727864 .1258138 .11295573 .13720703 .10253906 C .14892578 .0921224 .16503906 .08691406 .18554688 .08691406 C .20279949 .08691406 .21858724 .091308597 .23291016 .100097659 C .2475586 .10888672 .26236979 .12174479 .27734376 .13867188 L .27734376 .21289063 Z "/>
</symbol>
<symbol id="font_3_110">
<path d="M .35595704 .09667969 C .35595704 .08821615 .3556315 .08105469 .35498048 .07519531 C .35465495 .06966146 .3540039 .064941409 .35302735 .061035158 C .3523763 .057128908 .35139976 .0538737 .35009767 .05126953 C .3491211 .048990888 .3466797 .045898439 .34277345 .041992189 C .3388672 .038411458 .332194 .033854169 .3227539 .028320313 C .3133138 .023111979 .30257163 .018391928 .29052735 .014160156 C .27848307 .009928386 .26529948 .0065104167 .25097657 .00390625 C .23697917 .0013020834 .22249349 0 .20751953 0 C .17399089 0 .14420574 .0052083337 .11816406 .015625 C .092447917 .026041666 .07080078 .041341146 .053222658 .061523439 C .03564453 .08203125 .022298178 .106933597 .013183594 .13623047 C .0043945314 .16552735 0 .19905599 0 .2368164 C 0 .2804362 .0053710939 .31803385 .016113282 .34960938 C .02718099 .3815104 .04248047 .4078776 .06201172 .42871095 C .08154297 .44954429 .104654949 .4650065 .13134766 .47509767 C .15804036 .4851888 .18733724 .49023438 .21923828 .49023438 C .23225911 .49023438 .24495442 .48909507 .25732423 .4868164 C .27001954 .48453776 .28173829 .4814453 .29248048 .47753907 C .3035482 .4736328 .3133138 .46923829 .32177735 .46435548 C .3305664 .45947267 .3367513 .45524089 .34033204 .45166017 C .34391276 .44807945 .34635417 .44498698 .34765626 .4423828 C .34928385 .44010417 .3504232 .43701173 .35107423 .43310548 C .35205079 .42919923 .3527018 .4243164 .35302735 .41845704 C .35367839 .4129232 .3540039 .40608726 .3540039 .39794923 C .3540039 .379069 .3523763 .36572267 .3491211 .35791017 C .34586589 .3504232 .34163413 .3466797 .33642579 .3466797 C .33089195 .3466797 .32503257 .34895835 .31884767 .35351563 C .31266276 .3580729 .30533854 .3631185 .296875 .36865235 C .28841148 .3741862 .2783203 .37923179 .26660157 .38378907 C .2548828 .38834635 .24088542 .390625 .22460938 .390625 C .19270833 .390625 .16829427 .37825523 .15136719 .35351563 C .13444011 .32910157 .12597656 .2931315 .12597656 .24560547 C .12597656 .22216797 .12809246 .20149739 .13232422 .18359375 C .13655599 .16569011 .14274089 .15071614 .1508789 .13867188 C .15934246 .12662761 .16975911 .11751302 .1821289 .111328128 C .19482422 .10546875 .20947266 .10253906 .22607422 .10253906 C .2430013 .10253906 .25748698 .10498047 .26953126 .10986328 C .28190104 .11507162 .29264323 .12076823 .3017578 .12695313 C .3108724 .13313802 .31852214 .13867188 .32470704 .14355469 C .33089195 .14876302 .33610026 .15136719 .34033204 .15136719 C .34326173 .15136719 .34570313 .15055339 .34765626 .14892578 C .34960938 .14729817 .35107423 .14420574 .35205079 .13964844 C .35335288 .13541667 .35432945 .12988281 .35498048 .123046878 C .3556315 .11621094 .35595704 .107421878 .35595704 .09667969 Z "/>
</symbol>
<symbol id="font_3_176">
<path d="M .41601563 .01953125 C .41601563 .016276041 .41503907 .0133463549 .41308595 .0107421879 C .4111328 .008463542 .4078776 .0065104167 .4033203 .0048828127 C .39876304 .0032552083 .39241538 .0021158856 .38427735 .0014648438 C .37646485 .00048828127 .36669923 0 .35498048 0 C .3429362 0 .33284507 .00048828127 .32470704 .0014648438 C .31689454 .0021158856 .31070964 .0032552083 .30615235 .0048828127 C .30159507 .0065104167 .29833985 .008463542 .29638673 .0107421879 C .2944336 .0133463549 .29345704 .016276041 .29345704 .01953125 L .29345704 .2680664 C .29345704 .28922526 .29182945 .3058268 .28857423 .3178711 C .28564454 .32991538 .28125 .34016929 .27539063 .3486328 C .26953126 .35742188 .2618815 .36409507 .2524414 .36865235 C .24332683 .37353517 .23258464 .37597657 .22021485 .37597657 C .20458985 .37597657 .18880208 .37027995 .17285156 .35888673 C .15690105 .3474935 .14029949 .33089195 .123046878 .30908204 L .123046878 .01953125 C .123046878 .016276041 .12207031 .0133463549 .12011719 .0107421879 C .11816406 .008463542 .114746097 .0065104167 .10986328 .0048828127 C .10530599 .0032552083 .099121097 .0021158856 .091308597 .0014648438 C .083496097 .00048828127 .07356771 0 .061523439 0 C .049479169 0 .03955078 .00048828127 .03173828 .0014648438 C .023925782 .0021158856 .017578125 .0032552083 .0126953129 .0048828127 C .0081380209 .0065104167 .0048828127 .008463542 .0029296876 .0107421879 C .0009765625 .0133463549 0 .016276041 0 .01953125 L 0 .45507813 C 0 .45833335 .00081380209 .46110026 .0024414063 .4633789 C .0040690104 .46598307 .0069986979 .46809898 .011230469 .46972657 C .015462239 .47135417 .020833334 .4724935 .02734375 .47314454 C .034179689 .4741211 .04264323 .47460938 .052734376 .47460938 C .06315104 .47460938 .071777347 .4741211 .07861328 .47314454 C .08544922 .4724935 .090657558 .47135417 .09423828 .46972657 C .09814453 .46809898 .10091146 .46598307 .10253906 .4633789 C .104166667 .46110026 .10498047 .45833335 .10498047 .45507813 L .10498047 .40478517 C .12906902 .4308268 .15348308 .45035807 .17822266 .4633789 C .20328777 .47639976 .22932942 .48291017 .25634767 .48291017 C .28597007 .48291017 .3108724 .47802735 .3310547 .46826173 C .3515625 .4584961 .3680013 .44514976 .3803711 .42822267 C .3930664 .4116211 .402181 .39208985 .40771485 .3696289 C .4132487 .34716798 .41601563 .32014976 .41601563 .28857423 L .41601563 .01953125 Z "/>
</symbol>
<symbol id="font_3_11e">
<path d="M .42773438 .25830079 C .42773438 .24332683 .4243164 .23225911 .41748048 .22509766 C .41097007 .2179362 .40185548 .21435547 .39013673 .21435547 L .125 .21435547 C .125 .19580078 .12711589 .1788737 .13134766 .16357422 C .13590496 .14860027 .14290364 .13574219 .15234375 .125 C .16210938 .114583339 .17447917 .10660807 .18945313 .10107422 C .20475261 .09554037 .22298177 .09277344 .24414063 .09277344 C .265625 .09277344 .28450523 .09423828 .30078126 .09716797 C .31705729 .10042318 .3310547 .10384115 .34277345 .107421878 C .35481773 .111328128 .3647461 .114746097 .3725586 .11767578 C .3803711 .12093099 .38671876 .122558597 .39160157 .122558597 C .39453126 .122558597 .39697267 .121907558 .39892579 .12060547 C .4008789 .119628909 .4025065 .11767578 .4038086 .114746097 C .4051107 .111816409 .40592448 .10758463 .40625 .10205078 C .40690104 .096842449 .40722657 .09016927 .40722657 .08203125 C .40722657 .07486979 .4070638 .0686849 .40673829 .06347656 C .40641276 .05859375 .40592448 .05436198 .40527345 .05078125 C .4046224 .04720052 .40364585 .044108076 .40234376 .041503908 C .40104167 .03922526 .3992513 .036946615 .39697267 .03466797 C .39501954 .032389326 .3893229 .029296875 .3798828 .025390625 C .37044273 .021484375 .35839845 .017578125 .34375 .013671875 C .32910157 .0100911459 .31233726 .0069986979 .29345704 .0043945314 C .2745768 .0014648438 .25439454 0 .23291016 0 C .19417317 0 .16015625 .0048828127 .13085938 .0146484379 C .10188802 .024414063 .07763672 .03922526 .05810547 .05908203 C .03857422 .078938808 .023925782 .104003909 .014160156 .13427735 C .0047200524 .16455078 0 .20003255 0 .24072266 C 0 .27945964 .0050455729 .31429038 .015136719 .34521485 C .025227866 .37646485 .0398763 .40283204 .05908203 .4243164 C .07828776 .4461263 .1015625 .46272788 .12890625 .4741211 C .15657552 .4855143 .18766277 .49121095 .22216797 .49121095 C .2586263 .49121095 .28971354 .48583985 .3154297 .47509767 C .34147135 .46435548 .36279298 .4493815 .37939454 .43017579 C .3959961 .41129557 .40820313 .38883464 .41601563 .36279298 C .42382813 .3367513 .42773438 .308431 .42773438 .27783204 L .42773438 .25830079 M .30859376 .29345704 C .3095703 .32796226 .30257163 .35498048 .28759767 .37451173 C .27294923 .3943685 .25016276 .40429688 .21923828 .40429688 C .20361328 .40429688 .1899414 .4013672 .17822266 .3955078 C .16682942 .38964845 .15722656 .3816732 .14941406 .37158204 C .14192708 .3618164 .1360677 .35009767 .13183594 .33642579 C .12792969 .32307945 .12565105 .3087565 .125 .29345704 L .30859376 .29345704 Z "/>
</symbol>
<use xlink:href="#font_3_1c1" transform="matrix(10.98,0,0,-10.98,87.92764,46.53217)"/>
<use xlink:href="#font_3_1cc" transform="matrix(10.98,0,0,-10.98,96.322978,46.5)"/>
<use xlink:href="#font_3_17d" transform="matrix(10.98,0,0,-10.98,100.69812,46.62331)"/>
<use xlink:href="#font_3_18c" transform="matrix(10.98,0,0,-10.98,106.894878,46.53217)"/>
<use xlink:href="#font_3_1c7" transform="matrix(10.98,0,0,-10.98,110.2352,48.446165)"/>
<use xlink:href="#font_3_3" transform="matrix(10.98,0,0,-10.98,115.32177,46.5)"/>
<use xlink:href="#font_3_190" transform="matrix(10.98,0,0,-10.98,118.19463,46.62331)"/>
<use xlink:href="#font_3_1b5" transform="matrix(10.98,0,0,-10.98,122.83299,46.62331)"/>
<use xlink:href="#font_3_175" transform="matrix(10.98,0,0,-10.98,128.75606,46.53217)"/>
<use xlink:href="#font_3_102" transform="matrix(10.98,0,0,-10.98,137.42089,46.62331)"/>
<use xlink:href="#font_3_18c" transform="matrix(10.98,0,0,-10.98,143.13986,46.53217)"/>
<use xlink:href="#font_3_1c7" transform="matrix(10.98,0,0,-10.98,146.4802,48.446165)"/>
<use xlink:href="#font_3_110" transform="matrix(10.98,0,0,-10.98,151.95278,46.61795)"/>
<use xlink:href="#font_3_1cc" transform="matrix(10.98,0,0,-10.98,156.6032,46.5)"/>
<use xlink:href="#font_3_176" transform="matrix(10.98,0,0,-10.98,161.26784,46.53217)"/>
<use xlink:href="#font_3_11e" transform="matrix(10.98,0,0,-10.98,166.88532,46.62331)"/>
<use xlink:href="#font_3_3" transform="matrix(10.98,0,0,-10.98,172.0115,46.5)"/>
</g>
<clipPath id="cp4">
<path transform="matrix(1,0,0,-1,0,841.92)" d="M .000008871 0 L 595.32 0 L 595.32 841.92 L .000008871 841.92 Z " fill-rule="evenodd"/>
</clipPath>
<g clip-path="url(#cp4)">
<symbol id="font_1_1c1">
<path d="M .6635742 .4555664 C .6635742 .45328776 .6632487 .45052085 .66259768 .44726563 C .6619466 .4440104 .6608073 .4399414 .6591797 .4350586 L .52978518 .017578125 C .5288086 .0139973959 .52718099 .011067708 .52490237 .0087890629 C .5229492 .0065104167 .52001956 .0047200524 .5161133 .0034179688 C .51253256 .0021158856 .507487 .0013020834 .50097659 .0009765625 C .49446617 .00032552085 .48632813 0 .4765625 0 C .46647135 0 .4580078 .00032552085 .45117188 .0009765625 C .44433595 .0016276041 .4388021 .0026041668 .4345703 .00390625 C .43066407 .0052083337 .42773438 .0069986979 .42578126 .009277344 C .42382813 .011555989 .42236329 .014322917 .42138673 .017578125 L .32910157 .33642579 L .328125 .3408203 L .32714845 .33642579 L .24169922 .017578125 C .24072266 .0139973959 .23909505 .011067708 .2368164 .0087890629 C .23486328 .0065104167 .23177083 .0047200524 .22753906 .0034179688 C .2233073 .0021158856 .21777344 .0013020834 .2109375 .0009765625 C .20442708 .00032552085 .19628906 0 .18652344 0 C .1764323 0 .16813152 .00032552085 .1616211 .0009765625 C .1554362 .0016276041 .15022786 .0026041668 .1459961 .00390625 C .14208985 .0052083337 .13916016 .0069986979 .13720703 .009277344 C .1352539 .011555989 .13378906 .014322917 .1328125 .017578125 L .0043945314 .4350586 C .002766927 .4399414 .0016276041 .4440104 .0009765625 .44726563 C .00032552085 .45052085 0 .45328776 0 .4555664 C 0 .4584961 .0006510417 .46077476 .001953125 .46240235 C .0032552083 .46435548 .0053710939 .4658203 .008300781 .46679688 C .011555989 .46809898 .01578776 .46891276 .020996094 .46923829 C .026204428 .4695638 .032552083 .46972657 .040039064 .46972657 C .049153646 .46972657 .056477865 .46940104 .06201172 .46875 C .06754557 .46842448 .071777347 .4676107 .07470703 .4663086 C .07763672 .46533204 .0797526 .46370445 .08105469 .46142579 C .08235677 .45947267 .083496097 .45703126 .084472659 .45410157 L .19042969 .091796878 L .19140625 .087402347 L .19238281 .091796878 L .28955079 .45410157 C .2902018 .45703126 .29117839 .45947267 .29248048 .46142579 C .29410807 .46370445 .29638673 .46533204 .2993164 .4663086 C .3022461 .4676107 .30615235 .46842448 .31103517 .46875 C .3162435 .46940104 .32291667 .46972657 .3310547 .46972657 C .3388672 .46972657 .34521485 .46940104 .35009767 .46875 C .355306 .46842448 .359375 .4676107 .3623047 .4663086 C .36523438 .46533204 .36735026 .4638672 .36865235 .46191407 C .36995445 .45996095 .370931 .45768229 .37158204 .45507813 L .4765625 .091796878 L .47753907 .087402347 L .47802735 .091796878 L .58251956 .45410157 C .5831706 .45703126 .58414718 .45947267 .5854492 .46142579 C .58707687 .46370445 .58935549 .46533204 .59228518 .4663086 C .59554037 .4676107 .59977218 .46842448 .60498049 .46875 C .61051437 .46940104 .617513 .46972657 .62597659 .46972657 C .63378909 .46972657 .63997396 .4695638 .64453127 .46923829 C .64941409 .46891276 .65315756 .46809898 .6557617 .46679688 C .6586914 .46549479 .66064456 .46402995 .6616211 .46240235 C .66292318 .46077476 .6635742 .4584961 .6635742 .4555664 Z "/>
</symbol>
<symbol id="font_1_127">
<path d="M .40429688 .42919923 C .40429688 .4165039 .40104167 .4073893 .39453126 .40185548 C .38834635 .39664714 .3811849 .39404298 .37304688 .39404298 L .08496094 .39404298 C .08496094 .3696289 .087402347 .34765626 .092285159 .328125 C .09716797 .30859376 .10530599 .29182945 .11669922 .27783204 C .12809246 .26383464 .14290364 .25309245 .16113281 .24560547 C .17936199 .23811849 .20166016 .234375 .22802735 .234375 C .24886067 .234375 .26741538 .23600261 .2836914 .23925781 C .29996745 .24283855 .31396485 .2467448 .3256836 .25097657 C .33772788 .25520835 .3474935 .2589518 .35498048 .26220704 C .36279298 .26578776 .36865235 .26757813 .3725586 .26757813 C .37483726 .26757813 .37679038 .2669271 .37841798 .265625 C .3803711 .26464845 .38183595 .26302085 .3828125 .2607422 C .38378907 .25846354 .3844401 .25520835 .38476563 .25097657 C .38541667 .24707031 .3857422 .2421875 .3857422 .23632813 C .3857422 .2298177 .38557945 .22428386 .3852539 .21972656 C .3852539 .2154948 .38476563 .2117513 .38378907 .2084961 C .38313804 .20524089 .3819987 .2023112 .3803711 .19970703 C .379069 .19742839 .37695313 .19482422 .37402345 .19189453 L .3076172 .125 C .29915367 .11653646 .29361979 .10921224 .29101563 .103027347 C .28841148 .09651693 .28710938 .091145839 .28710938 .08691406 C .28710938 .07779948 .2898763 .071126308 .29541017 .06689453 C .300944 .06233724 .31022135 .060058595 .3232422 .060058595 L .37646485 .060058595 C .38102214 .060058595 .38427735 .05875651 .38623048 .056152345 C .38850913 .053222658 .38964845 .04736328 .38964845 .03857422 C .38964845 .033040365 .3893229 .028645834 .38867188 .025390625 C .38834635 .021809897 .38753257 .019042969 .38623048 .017089844 C .3852539 .014811198 .3836263 .013183594 .38134767 .012207031 C .37939454 .010904948 .37679038 .009765625 .37353517 .0087890629 C .36279298 .005859375 .35188804 .0037434896 .3408203 .0024414063 C .33007813 .00081380209 .31819663 0 .30517579 0 C .27490235 0 .2513021 .006184896 .234375 .018554688 C .21744792 .030924479 .20898438 .049153646 .20898438 .07324219 C .20898438 .079427089 .20963542 .08544922 .2109375 .091308597 C .21223958 .09716797 .21435547 .1031901 .21728516 .109375 C .22021485 .115234378 .2241211 .12141927 .2290039 .12792969 C .23388672 .13444011 .24007161 .1414388 .2475586 .14892578 L .27392579 .17578125 C .26578776 .17382813 .2569987 .17236328 .2475586 .17138672 C .23811849 .17008464 .22705078 .1694336 .21435547 .1694336 C .17985027 .1694336 .1492513 .17447917 .122558597 .18457031 C .09586588 .19466146 .073404949 .20963542 .05517578 .22949219 C .037272138 .24967449 .02360026 .2745768 .014160156 .30419923 C .0047200524 .33382163 0 .3684896 0 .40820313 C 0 .44596354 .0048828127 .47981773 .0146484379 .5097656 C .024414063 .54003909 .038411458 .56559249 .056640626 .5864258 C .07519531 .60758468 .09749349 .62369796 .123535159 .6347656 C .14957683 .6461589 .17871094 .65185549 .2109375 .65185549 C .2454427 .65185549 .2747396 .6463216 .29882813 .6352539 C .3232422 .6241862 .34326173 .6092122 .35888673 .59033206 C .37451173 .57177737 .38590495 .5498047 .3930664 .52441409 C .40055339 .49934898 .40429688 .4724935 .40429688 .44384767 L .40429688 .42919923 M .3232422 .453125 C .32421876 .49544273 .31477867 .5286458 .29492188 .5527344 C .27539063 .57682296 .24625652 .5888672 .20751953 .5888672 C .18766277 .5888672 .17024739 .5851237 .15527344 .5776367 C .14029949 .5701497 .12776692 .5602214 .11767578 .54785159 C .10758463 .53548178 .09977213 .5209961 .09423828 .50439456 C .08870443 .4881185 .08561198 .47102867 .08496094 .453125 L .3232422 .453125 Z "/>
</symbol>
<symbol id="font_1_150">
<path d="M .41601563 .6098633 C .41601563 .59847006 .41438804 .59016928 .4111328 .58496096 C .40820313 .5800781 .40429688 .5776367 .39941407 .5776367 L .33642579 .5776367 C .347819 .56591799 .35579429 .55289718 .36035157 .5385742 C .36490885 .52457687 .3671875 .5099284 .3671875 .4946289 C .3671875 .46923829 .3631185 .44677735 .35498048 .4272461 C .34684245 .40771485 .3351237 .39111329 .31982423 .3774414 C .30485026 .36409507 .28694663 .35384117 .26611329 .3466797 C .24527996 .33951823 .22216797 .3359375 .19677735 .3359375 C .1788737 .3359375 .16178386 .33821617 .14550781 .34277345 C .1295573 .34765626 .1171875 .35367839 .10839844 .36083985 C .10253906 .35498048 .09765625 .34830729 .09375 .3408203 C .09016927 .33333335 .088378909 .32470704 .088378909 .3149414 C .088378909 .3035482 .09358724 .29410807 .104003909 .2866211 C .114746097 .27913413 .12890625 .2750651 .14648438 .27441407 L .26123048 .26953126 C .28304038 .26888023 .3030599 .26578776 .32128907 .2602539 C .33951823 .25504557 .355306 .24739583 .36865235 .23730469 C .3819987 .22753906 .39241538 .21533203 .39990235 .2006836 C .4073893 .18636067 .4111328 .16959636 .4111328 .15039063 C .4111328 .13020833 .40690104 .1110026 .3984375 .09277344 C .38997398 .07454427 .37695313 .05859375 .359375 .044921876 C .3421224 .030924479 .31998698 .020019532 .29296876 .012207031 C .26595054 .0040690104 .23404949 0 .19726563 0 C .16178386 0 .13151042 .003092448 .10644531 .009277344 C .08170573 .015136719 .061360677 .02327474 .045410158 .033691408 C .029459635 .044108076 .017903647 .056640626 .0107421879 .07128906 C .0035807293 .08561198 0 .10123698 0 .11816406 C 0 .12890625 .0013020834 .13932292 .00390625 .14941406 C .0065104167 .1595052 .010416667 .16910808 .015625 .17822266 C .021158854 .18733724 .027832032 .19596355 .03564453 .20410156 C .04378255 .21256511 .053059896 .22086589 .06347656 .2290039 C .047526044 .23714192 .03564453 .24739583 .027832032 .25976563 C .020345053 .2721354 .016601563 .28548179 .016601563 .2998047 C .016601563 .31966148 .020670573 .33740235 .028808594 .35302735 C .036946615 .36865235 .04703776 .38264976 .05908203 .39501954 C .048990888 .4070638 .041015626 .4205729 .03515625 .43554688 C .029296875 .45084635 .026367188 .46923829 .026367188 .49072267 C .026367188 .5157878 .030598959 .5382487 .0390625 .55810549 C .047526044 .5779622 .059244794 .59472659 .07421875 .60839846 C .08919271 .6220703 .10709635 .632487 .12792969 .63964846 C .14908855 .64713546 .17203777 .6508789 .19677735 .6508789 C .2101237 .6508789 .22249349 .6500651 .23388672 .6484375 C .24560547 .64713546 .2565104 .6451823 .26660157 .6425781 L .39941407 .6425781 C .4049479 .6425781 .40901695 .6398112 .4116211 .63427737 C .41455079 .62906906 .41601563 .62093099 .41601563 .6098633 M .29003907 .49414063 C .29003907 .52408859 .28173829 .5473633 .26513673 .56396487 C .24886067 .5808919 .22558594 .58935549 .1953125 .58935549 C .1796875 .58935549 .16601563 .5867513 .15429688 .58154299 C .14290364 .57633468 .13330078 .56917318 .12548828 .5600586 C .118001308 .55094406 .11230469 .54036459 .10839844 .5283203 C .10481771 .51660159 .103027347 .50423178 .103027347 .49121095 C .103027347 .4622396 .11116537 .43945313 .1274414 .42285157 C .14404297 .40625 .16715496 .39794923 .19677735 .39794923 C .21272786 .39794923 .2265625 .40039063 .23828125 .40527345 C .25 .41048179 .25960288 .41748048 .26708985 .42626954 C .27490235 .43538413 .28059898 .44580079 .2841797 .45751954 C .28808595 .46923829 .29003907 .4814453 .29003907 .49414063 M .3305664 .1459961 C .3305664 .1648763 .3227539 .17936199 .3071289 .18945313 C .29182945 .1998698 .2709961 .20540364 .2446289 .20605469 L .13085938 .20996094 C .12044271 .20182292 .111816409 .19401042 .10498047 .18652344 C .098470058 .17936199 .09326172 .17252605 .08935547 .16601563 C .08544922 .15917969 .08268229 .15250652 .08105469 .1459961 C .0797526 .13948567 .07910156 .1328125 .07910156 .12597656 C .07910156 .10481771 .08984375 .08886719 .111328128 .078125 C .1328125 .06705729 .16276042 .061523439 .20117188 .061523439 C .22558594 .061523439 .24593099 .063964847 .26220704 .068847659 C .2788086 .073404949 .29215495 .079589847 .3022461 .087402347 C .31233726 .095214847 .3194987 .104166667 .32373048 .11425781 C .32828776 .12434896 .3305664 .13492839 .3305664 .1459961 Z "/>
</symbol>
<symbol id="font_1_17f">
<path d="M .43945313 .24609375 C .43945313 .21028646 .43473307 .1772461 .42529298 .14697266 C .41585288 .11702474 .40169273 .091145839 .3828125 .06933594 C .3642578 .047526044 .3408203 .030436198 .3125 .018066407 C .28450523 .0060221354 .25195313 0 .21484375 0 C .17871094 0 .14713542 .0053710939 .12011719 .016113282 C .09342448 .026855469 .071126308 .04248047 .053222658 .06298828 C .03531901 .083496097 .021972657 .10839844 .013183594 .13769531 C .0043945314 .16699219 0 .20019531 0 .23730469 C 0 .27311198 .0045572917 .3059896 .013671875 .3359375 C .023111979 .36621095 .037109376 .3922526 .055664064 .4140625 C .07454427 .4358724 .09798177 .45279948 .12597656 .46484376 C .15397136 .47688804 .1866862 .48291017 .2241211 .48291017 C .2602539 .48291017 .29166667 .47753907 .31835938 .46679688 C .3453776 .4560547 .36783854 .4404297 .3857422 .41992188 C .40364585 .39941407 .4169922 .37451173 .42578126 .34521485 C .43489585 .31591798 .43945313 .2828776 .43945313 .24609375 M .3544922 .24072266 C .3544922 .2644857 .35221354 .28694663 .34765626 .30810548 C .34342448 .3292643 .33626304 .347819 .32617188 .36376954 C .31608073 .37972007 .30240885 .3922526 .28515626 .4013672 C .26790367 .41080729 .24641927 .41552735 .22070313 .41552735 C .19694011 .41552735 .1764323 .41129557 .15917969 .40283204 C .14225261 .3943685 .1282552 .38232423 .1171875 .36669923 C .10611979 .35139976 .09781901 .33317057 .092285159 .31201173 C .08707682 .29085288 .084472659 .26774089 .084472659 .24267578 C .084472659 .21858724 .08658854 .19596355 .09082031 .17480469 C .0953776 .15364583 .10270182 .13509114 .11279297 .119140628 C .12320963 .103515628 .13704427 .09098307 .15429688 .08154297 C .17154949 .07242838 .19303386 .067871097 .21875 .067871097 C .2421875 .067871097 .26253257 .07210287 .27978517 .080566409 C .29703776 .089029949 .3111979 .10091146 .32226563 .11621094 C .33333335 .13151042 .34147135 .14973958 .3466797 .17089844 C .35188804 .1920573 .3544922 .21533203 .3544922 .24072266 M .25976563 .67578127 C .26171876 .679362 .2639974 .6822917 .26660157 .6845703 C .26920573 .68684896 .2722982 .68863937 .2758789 .6899414 C .27978517 .69124349 .28450523 .69222006 .29003907 .6928711 C .2955729 .69352218 .3022461 .69384768 .3100586 .69384768 C .3191732 .69384768 .3264974 .6931966 .33203126 .69189456 C .33789063 .69091799 .34195964 .68929037 .34423829 .6870117 C .34651695 .6850586 .3474935 .6826172 .34716798 .6796875 C .34684245 .6770833 .3453776 .6743164 .34277345 .6713867 L .25439454 .5576172 C .25179038 .554362 .24934896 .5517578 .24707031 .5498047 C .24511719 .54785159 .24267578 .54622396 .2397461 .5449219 C .23714192 .5439453 .2335612 .54313156 .2290039 .54248049 C .22477214 .54215499 .21940105 .5419922 .21289063 .5419922 C .20572917 .5419922 .20003255 .54248049 .19580078 .54345706 C .19156902 .5444336 .18847656 .54573568 .18652344 .5473633 C .18489583 .5489909 .1842448 .55110678 .18457031 .55371096 C .18522136 .5563151 .1866862 .55940756 .18896485 .5629883 L .25976563 .67578127 M .12011719 .4736328 L .12011719 .4736328 Z "/>
</symbol>
<use xlink:href="#font_1_1c1" transform="matrix(10.98,0,0,-10.98,174.78415,46.53217)"/>
<use xlink:href="#font_1_127" transform="matrix(10.98,0,0,-10.98,182.84929,48.456888)"/>
<use xlink:href="#font_1_150" transform="matrix(10.98,0,0,-10.98,188.15778,48.456888)"/>
<use xlink:href="#font_1_16f" transform="matrix(10.98,0,0,-10.98,193.8655,46.53217)"/>
<use xlink:href="#font_1_17d" transform="matrix(10.98,0,0,-10.98,196.05313,46.601865)"/>
<use xlink:href="#font_1_1c1" transform="matrix(10.98,0,0,-10.98,201.64122,46.53217)"/>
<use xlink:href="#font_1_17d" transform="matrix(10.98,0,0,-10.98,209.69028,46.601865)"/>
<use xlink:href="#font_1_11a" transform="matrix(10.98,0,0,-10.98,215.55283,46.601865)"/>
<use xlink:href="#font_1_17d" transform="matrix(10.98,0,0,-10.98,221.28514,46.601865)"/>
<use xlink:href="#font_1_18c" transform="matrix(10.98,0,0,-10.98,227.40937,46.53217)"/>
<use xlink:href="#font_1_17f" transform="matrix(10.98,0,0,-10.98,230.92557,46.601865)"/>
<use xlink:href="#font_1_1c1" transform="matrix(10.98,0,0,-10.98,236.53562,46.53217)"/>
<use xlink:href="#font_1_358" transform="matrix(10.98,0,0,-10.98,244.91172,46.548254)"/>
</g>
<clipPath id="cp5">
<path transform="matrix(1,0,0,-1,0,841.92)" d="M .000008871 0 L 595.32 0 L 595.32 841.92 L .000008871 841.92 Z " fill-rule="evenodd"/>
</clipPath>
<g clip-path="url(#cp5)">
<symbol id="font_6_3">
<path d="M 0 0 Z "/>
</symbol>
<use xlink:href="#font_6_3" transform="matrix(10.98,0,0,-10.98,246.94,46.5)"/>
</g>
</g>
<g id="Layer-1" data-name="P">
<clipPath id="cp7">
<path transform="matrix(1,0,0,-1,0,841.92)" d="M 0 .000061035 L 595.32 .000061035 L 595.32 841.92007 L 0 841.92007 Z " fill-rule="evenodd"/>
</clipPath>
<g clip-path="url(#cp7)">
<clipPath id="cp8">
<path transform="matrix(.99652257,.0000002436928,-.0000001578072,-.97931119,36.03,79.329959)" d="M 0 0 L 222.77 0 L 222.77 21.444 L 0 21.444 Z " fill-rule="evenodd"/>
</clipPath>
<g clip-path="url(#cp8)">
<path transform="matrix(.99652257,.0000002436928,-.0000001578072,-.97931119,36.03,79.329959)" stroke-width=".5885" stroke-linecap="butt" stroke-linejoin="round" fill="none" stroke="#000000" d="M 36.045 19.162 L 36.045 3.0914 "/>
<path transform="matrix(.99652257,.0000002436928,-.0000001578072,-.97931119,36.03,79.329959)" stroke-width=".5885" stroke-linecap="butt" stroke-linejoin="round" fill="none" stroke="#000000" d="M 35.751 3.4104 L 57.378 3.4104 "/>
<path transform="matrix(.99652257,.0000002436928,-.0000001578072,-.97931119,36.03,79.329959)" stroke-width=".5885" stroke-linecap="butt" stroke-linejoin="round" fill="none" stroke="#000000" d="M 84.817 19.162 L 84.817 3.0914 "/>
<path transform="matrix(.99652257,.0000002436928,-.0000001578072,-.97931119,36.03,79.329959)" stroke-width=".5885" stroke-linecap="butt" stroke-linejoin="round" fill="none" stroke="#000000" d="M 84.523 3.4104 L 109.22 3.4104 "/>
<path transform="matrix(.99652257,.0000002436928,-.0000001578072,-.97931119,36.03,79.329959)" stroke-width=".5885" stroke-linecap="butt" stroke-linejoin="round" fill="none" stroke="#000000" d="M 136.46 19.162 L 136.46 3.0914 "/>
<path transform="matrix(.99652257,.0000002436928,-.0000001578072,-.97931119,36.03,79.329959)" stroke-width=".5885" stroke-linecap="butt" stroke-linejoin="round" fill="none" stroke="#000000" d="M 136.16 3.4104 L 160.81 3.4104 "/>
<path transform="matrix(.99652257,.0000002436928,-.0000001578072,-.97931119,36.03,79.329959)" stroke-width=".5885" stroke-linecap="butt" stroke-linejoin="round" fill="none" stroke="#000000" d="M 194.47 19.162 L 194.47 3.0914 "/>
<path transform="matrix(.99652257,.0000002436928,-.0000001578072,-.97931119,36.03,79.329959)" stroke-width=".5885" stroke-linecap="butt" stroke-linejoin="round" fill="none" stroke="#000000" d="M 194.18 3.4104 L 220.76 3.4104 "/>
<symbol id="font_9_278">
<path d="M .0087890629 .08642578 L .25634767 .4165039 C .27067057 .43538413 .28173829 .45491538 .28955079 .47509767 C .2976888 .49560548 .3017578 .51464846 .3017578 .53222659 L .3017578 .5332031 C .3017578 .56152346 .29345704 .5834961 .27685548 .5991211 C .2602539 .6147461 .23665364 .6225586 .20605469 .6225586 C .17708333 .6225586 .15364583 .6139323 .13574219 .5966797 C .11783854 .5797526 .106933597 .55566409 .103027347 .52441409 L .103027347 .5239258 L 0 .5239258 L 0 .52441409 C .005859375 .5651042 .017740885 .59977218 .03564453 .62841799 C .0538737 .65738937 .077311199 .679362 .10595703 .69433596 C .13460286 .70963546 .16764324 .71728518 .20507813 .71728518 C .24739583 .71728518 .28352867 .70996096 .31347657 .6953125 C .34342448 .68098959 .36621095 .65999349 .38183595 .6323242 C .39746095 .60465499 .40527345 .57128909 .40527345 .53222659 L .40527345 .5317383 C .40527345 .50667318 .4000651 .48046876 .38964845 .453125 C .37923179 .42578126 .3647461 .39941407 .3461914 .37402345 L .140625 .09472656 L .4091797 .09472656 L .4091797 0 L .0087890629 0 L .0087890629 .08642578 Z "/>
</symbol>
<symbol id="font_9_279">
<path d="M .21289063 0 C .17317708 0 .1381836 .0071614587 .107910159 .021484375 C .07763672 .036132814 .053222658 .057128908 .03466797 .084472659 C .016438803 .11214193 .0048828127 .14534505 0 .18408203 L .1015625 .18408203 C .10449219 .16389974 .110839847 .14729817 .12060547 .13427735 C .1303711 .12125651 .14290364 .11149088 .15820313 .10498047 C .17382813 .09879557 .1920573 .095703128 .21289063 .095703128 C .24576824 .095703128 .27132163 .10449219 .28955079 .12207031 C .30777995 .13964844 .31689454 .16438802 .31689454 .19628906 L .31689454 .21777344 C .31689454 .25325523 .30826823 .28059898 .29101563 .2998047 C .27376304 .31933595 .24934896 .32910157 .21777344 .32910157 L .16748047 .32910157 L .16748047 .42382813 L .21777344 .42382813 C .2454427 .42382813 .2669271 .4321289 .28222657 .44873048 C .29752604 .46533204 .30517579 .48876954 .30517579 .51904299 L .30517579 .5410156 C .30517579 .56901046 .29703776 .59065756 .28076173 .60595706 C .2648112 .62125656 .24202474 .62890627 .21240235 .62890627 C .19547527 .62890627 .18033855 .62565109 .16699219 .6191406 C .15364583 .61295577 .14225261 .6031901 .1328125 .58984377 C .123697917 .57682296 .11702474 .5603841 .11279297 .54052737 L .01171875 .54052737 C .018229166 .57926437 .030436198 .61246749 .048339845 .6401367 C .06656901 .66780599 .08951823 .68880209 .1171875 .703125 C .14485677 .71744796 .17659505 .7246094 .21240235 .7246094 C .27360026 .7246094 .32096354 .7084961 .3544922 .67626956 C .38802085 .64404299 .40478517 .5986328 .40478517 .54003909 L .40478517 .5283203 C .40478517 .49283854 .39518229 .46191407 .37597657 .43554688 C .35677085 .4091797 .32958985 .38997398 .2944336 .3779297 C .33317057 .36946617 .3631185 .3504232 .38427735 .32080079 C .40576173 .29117839 .4165039 .25341798 .4165039 .20751953 L .4165039 .19580078 C .4165039 .15445964 .40852867 .119140628 .39257813 .08984375 C .3766276 .060546876 .35335288 .0382487 .3227539 .022949219 C .29248048 .0076497399 .25585938 0 .21289063 0 Z "/>
</symbol>
<symbol id="font_9_27a">
<path d="M 0 .19580078 L .23828125 .70996096 L .3408203 .70996096 L .10839844 .20166016 L .45654298 .20166016 L .45654298 .109375 L 0 .109375 L 0 .19580078 M .30615235 .41796876 L .4033203 .41796876 L .4033203 0 L .30615235 0 L .30615235 .41796876 Z "/>
</symbol>
<symbol id="font_9_27b">
<path d="M .19824219 0 C .16243489 0 .13053386 .0069986979 .10253906 .020996094 C .07486979 .03499349 .052246095 .055338544 .03466797 .08203125 C .017415366 .10872396 .005859375 .14078777 0 .17822266 L 0 .17871094 L .099609378 .17871094 L .099609378 .17822266 C .1031901 .15218099 .11360677 .13183594 .13085938 .1171875 C .14811199 .102864589 .17057292 .095703128 .19824219 .095703128 C .23014324 .095703128 .25472007 .106282558 .27197267 .1274414 C .28955079 .14892578 .29833985 .17903646 .29833985 .21777344 L .29833985 .27734376 C .29833985 .31575523 .28955079 .34554038 .27197267 .36669923 C .25472007 .3881836 .23014324 .39892579 .19824219 .39892579 C .18098958 .39892579 .16438802 .39404298 .1484375 .38427735 C .13248699 .37451173 .118489589 .36083985 .10644531 .34326173 L .015625 .34326173 L .015625 .71728518 L .3774414 .71728518 L .3774414 .6225586 L .115234378 .6225586 L .115234378 .46289063 C .12760417 .47298179 .1414388 .48079429 .15673828 .48632813 C .17203777 .49186198 .18766277 .4946289 .20361328 .4946289 C .2446289 .4946289 .2796224 .48616538 .30859376 .46923829 C .33789063 .4523112 .36002604 .42757163 .375 .39501954 C .39029948 .36246745 .39794923 .3232422 .39794923 .27734376 L .39794923 .21777344 C .39794923 .171875 .39013673 .13264974 .37451173 .100097659 C .35888673 .06754557 .33610026 .04264323 .30615235 .025390625 C .27620445 .008463542 .24023438 0 .19824219 0 Z "/>
</symbol>
<symbol id="font_9_277">
<path d="M .2006836 0 L .10107422 0 L .10107422 .6015625 L 0 .5395508 L 0 .6425781 L .10107422 .70996096 L .2006836 .70996096 L .2006836 0 Z "/>
</symbol>
<use xlink:href="#font_9_278" transform="matrix(7.0129277,.0000017149637,-.0000011105523,-6.891804,44.959024,73.707538)"/>
<use xlink:href="#font_9_279" transform="matrix(7.0129277,.0000017149637,-.0000011105523,-6.891804,63.404668,73.75802)"/>
<use xlink:href="#font_9_27a" transform="matrix(7.0129277,.0000017149637,-.0000011105523,-6.891804,88.97052,73.710918)"/>
<use xlink:href="#font_9_278" transform="matrix(7.0129277,.0000017149637,-.0000011105523,-6.891804,111.96053,73.70755)"/>
<use xlink:href="#font_9_278" transform="matrix(7.0129277,.0000017149637,-.0000011105523,-6.891804,129.6191,73.70756)"/>
<use xlink:href="#font_9_27a" transform="matrix(7.0129277,.0000017149637,-.0000011105523,-6.891804,140.5997,73.71092)"/>
<use xlink:href="#font_9_278" transform="matrix(7.0129277,.0000017149637,-.0000011105523,-6.891804,163.39336,73.707569)"/>
<use xlink:href="#font_9_279" transform="matrix(7.0129277,.0000017149637,-.0000011105523,-6.891804,181.08159,73.75805)"/>
<use xlink:href="#font_9_27a" transform="matrix(7.0129277,.0000017149637,-.0000011105523,-6.891804,192.01146,73.71094)"/>
<use xlink:href="#font_9_278" transform="matrix(7.0129277,.0000017149637,-.0000011105523,-6.891804,221.18689,73.70758)"/>
<use xlink:href="#font_9_27b" transform="matrix(7.0129277,.0000017149637,-.0000011105523,-6.891804,238.86319,73.75806)"/>
<use xlink:href="#font_9_277" transform="matrix(7.0129277,.0000017149637,-.0000011105523,-6.891804,249.66802,73.70759)"/>
<use xlink:href="#font_9_278" transform="matrix(7.0129277,.0000017149637,-.0000011105523,-6.891804,251.98767,73.70759)"/>
<symbol id="font_9_2e">
<path d="M .4033203 .70996096 L .5029297 .70996096 L .5029297 0 L .4033203 0 L .4033203 .70996096 M 0 .70996096 L .099609378 .70996096 L .099609378 0 L 0 0 L 0 .70996096 M .06201172 .39697267 L .4560547 .39697267 L .4560547 .3022461 L .06201172 .3022461 L .06201172 .39697267 Z "/>
</symbol>
<symbol id="font_9_10">
<path d="M .24707031 0 C .19791667 0 .15462239 .010904948 .1171875 .032714845 C .080078128 .05452474 .05126953 .08544922 .030761719 .12548828 C .010253906 .16552735 0 .21191406 0 .26464845 L 0 .45947267 C 0 .51220706 .010253906 .55859377 .030761719 .5986328 C .05126953 .6386719 .080078128 .6695964 .1171875 .69140627 C .15462239 .7135417 .19791667 .7246094 .24707031 .7246094 C .2877604 .7246094 .3251953 .7158203 .359375 .6982422 C .3935547 .68098959 .42203776 .6564128 .44482423 .6245117 C .4679362 .59261068 .4835612 .55566409 .49169923 .5136719 L .38964845 .5136719 C .38346354 .5358073 .37304688 .5555013 .35839845 .5727539 C .34407554 .59033206 .32714845 .6038411 .3076172 .61328127 C .28808595 .6227214 .26790367 .6274414 .24707031 .6274414 C .21809896 .6274414 .19270833 .6204427 .17089844 .6064453 C .14908855 .59244796 .13216146 .5727539 .12011719 .5473633 C .108072917 .52229818 .10205078 .4930013 .10205078 .45947267 L .10205078 .26464845 C .10205078 .23144531 .108072917 .20214844 .12011719 .17675781 C .13216146 .15136719 .14908855 .13167317 .17089844 .11767578 C .19270833 .104003909 .21809896 .09716797 .24707031 .09716797 C .26822917 .09716797 .28841148 .1015625 .3076172 .11035156 C .32714845 .119140628 .34407554 .13216146 .35839845 .14941406 C .37304688 .16666667 .38346354 .18717449 .38964845 .2109375 L .49169923 .2109375 C .4835612 .16894531 .4679362 .1319987 .44482423 .100097659 C .42171226 .06819662 .3930664 .04345703 .35888673 .025878907 C .32470704 .008626302 .2874349 0 .24707031 0 Z "/>
</symbol>
<symbol id="font_9_49">
<path d="M .24951172 0 C .20003255 0 .15641277 .0107421879 .118652347 .032226564 C .08089193 .054036458 .05159505 .084635417 .030761719 .12402344 C .010253906 .16373699 0 .20963542 0 .26171876 L 0 .46289063 C 0 .51497396 .010253906 .56070968 .030761719 .60009768 C .05159505 .6398112 .08089193 .67041018 .118652347 .69189456 C .15641277 .7137044 .20003255 .7246094 .24951172 .7246094 C .29899089 .7246094 .3426107 .7137044 .3803711 .69189456 C .4181315 .67041018 .44726563 .6398112 .46777345 .60009768 C .48860679 .56070968 .49902345 .51497396 .49902345 .46289063 L .49902345 .26171876 C .49902345 .20963542 .48860679 .16373699 .46777345 .12402344 C .44726563 .084635417 .4181315 .054036458 .3803711 .032226564 C .3426107 .0107421879 .29899089 0 .24951172 0 M .24951172 .09814453 C .2788086 .09814453 .30452476 .104654949 .32666017 .11767578 C .3491211 .13102214 .3663737 .14973958 .37841798 .17382813 C .39078776 .19824219 .39697267 .22639974 .39697267 .25830079 L .39697267 .4663086 C .39697267 .49820964 .39078776 .5262044 .37841798 .55029299 C .3663737 .57470706 .3491211 .5934245 .32666017 .6064453 C .30452476 .6197917 .2788086 .62646487 .24951172 .62646487 C .22021485 .62646487 .19433594 .6197917 .171875 .6064453 C .14973958 .5934245 .13248699 .57470706 .12011719 .55029299 C .108072917 .5262044 .10205078 .49820964 .10205078 .4663086 L .10205078 .25830079 C .10205078 .22639974 .108072917 .19824219 .12011719 .17382813 C .13248699 .14973958 .14973958 .13102214 .171875 .11767578 C .19433594 .104654949 .22021485 .09814453 .24951172 .09814453 Z "/>
</symbol>
<symbol id="font_9_28d">
<path d="M 0 .26660157 L .10449219 .26660157 L .10449219 .10839844 L 0 0 L 0 .26660157 Z "/>
</symbol>
<symbol id="font_9_5d">
<path d="M .25732423 0 C .22314453 0 .1907552 .0032552083 .16015625 .009765625 C .1295573 .016276041 .10091146 .026041666 .07421875 .0390625 C .047851564 .052083333 .023111979 .068359378 0 .087890628 L .06201172 .1640625 C .089029949 .140625 .1188151 .123046878 .15136719 .111328128 C .18391927 .099609378 .21923828 .09375 .25732423 .09375 C .3087565 .09375 .3486328 .1031901 .37695313 .12207031 C .40527345 .14127605 .4194336 .16829427 .4194336 .203125 L .4194336 .20361328 C .4194336 .22835286 .4129232 .24788411 .39990235 .26220704 C .38720704 .27685548 .37060548 .28759767 .35009767 .2944336 C .32991538 .30159507 .30371095 .30810548 .27148438 .31396485 C .2705078 .31429038 .2693685 .31445313 .2680664 .31445313 C .26708985 .31445313 .26611329 .31461589 .26513673 .3149414 L .2578125 .31640626 C .21028646 .32454429 .17154949 .33365885 .14160156 .34375 C .111979167 .35416667 .08658854 .37288413 .06542969 .39990235 C .044270833 .4272461 .033691408 .46598307 .033691408 .5161133 L .033691408 .51660159 C .033691408 .5605469 .04345703 .59798178 .06298828 .62890627 C .082845058 .66015627 .11165365 .68391928 .14941406 .7001953 C .18717449 .7164714 .23258464 .7246094 .28564454 .7246094 C .31103517 .7246094 .3359375 .72184249 .36035157 .7163086 C .38509117 .7107747 .40934245 .70247396 .43310548 .69140627 C .457194 .68066409 .48079429 .6669922 .50390627 .6503906 L .44726563 .57128909 C .4202474 .5911458 .39322917 .60595706 .36621095 .61572268 C .33951823 .6258138 .31266276 .6308594 .28564454 .6308594 C .23714192 .6308594 .19938152 .62109377 .17236328 .6015625 C .14567058 .58235678 .13232422 .555013 .13232422 .51953127 L .13232422 .51904299 C .13232422 .4946289 .13916016 .4754232 .15283203 .46142579 C .16682942 .44742839 .18408203 .43701173 .20458985 .43017579 C .22542317 .42366538 .25423179 .41682945 .29101563 .40966798 C .29231773 .40934245 .29345704 .40901695 .2944336 .4086914 C .2957357 .4086914 .29703776 .40852867 .29833985 .40820313 C .29996745 .4078776 .3017578 .4075521 .30371095 .40722657 C .30566407 .40690104 .30745445 .40657554 .30908204 .40625 C .35205079 .39746095 .38785807 .38704429 .4165039 .375 C .44547526 .36295573 .4695638 .34342448 .48876954 .31640626 C .5083008 .28971354 .5180664 .25309245 .5180664 .20654297 L .5180664 .2055664 C .5180664 .16227214 .5078125 .12516277 .4873047 .09423828 C .46679688 .06363932 .43701173 .040201826 .39794923 .023925782 C .35921226 .007975261 .31233726 0 .25732423 0 Z "/>
</symbol>
<symbol id="font_9_82">
<path d="M .31054688 .32861329 C .31054688 .3618164 .30159507 .38753257 .2836914 .40576173 C .26611329 .4243164 .24104817 .43359376 .2084961 .43359376 C .1883138 .43359376 .16845703 .4305013 .14892578 .4243164 C .12972005 .4181315 .11263021 .40950523 .09765625 .3984375 L .024902344 .4482422 C .044108076 .47135417 .06933594 .4892578 .10058594 .5019531 C .13216146 .51497396 .16715496 .5214844 .2055664 .5214844 C .2475586 .5214844 .28352867 .5139974 .31347657 .49902345 C .34342448 .484375 .36621095 .46289063 .38183595 .4345703 C .39746095 .40657554 .40527345 .37272135 .40527345 .3330078 L .40527345 .0073242189 L .31054688 .0073242189 L .31054688 .32861329 M .18652344 0 C .12402344 0 .077311199 .012858073 .04638672 .03857422 C .015462239 .06461588 0 .104003909 0 .15673828 C 0 .20686849 .014160156 .24446614 .04248047 .26953126 C .07080078 .29459635 .11360677 .3071289 .17089844 .3071289 L .3149414 .3071289 L .32177735 .22705078 L .17138672 .22705078 C .14534505 .22705078 .1258138 .2211914 .11279297 .20947266 C .100097659 .19807942 .09375 .1805013 .09375 .15673828 C .09375 .13102214 .10221354 .111979167 .119140628 .099609378 C .13639324 .087239589 .16243489 .08105469 .19726563 .08105469 C .23535156 .08105469 .26367188 .085123699 .28222657 .09326172 C .30110679 .10139974 .31054688 .114095058 .31054688 .13134766 L .32080079 .060058595 C .31201173 .04638672 .30110679 .03515625 .28808595 .026367188 C .27539063 .017578125 .26057945 .011067708 .24365235 .0068359377 C .22672527 .0022786458 .2076823 0 .18652344 0 Z "/>
</symbol>
<use xlink:href="#font_9_2e" transform="matrix(12.144621,.0000029698843,-.0000019231964,-11.934866,37.977079,70.27162)"/>
<use xlink:href="#font_9_10" transform="matrix(12.144621,.0000029698843,-.0000019231964,-11.934866,48.875074,70.35904)"/>
<use xlink:href="#font_9_49" transform="matrix(12.144621,.0000029698843,-.0000019231964,-11.934866,56.39259,70.35904)"/>
<use xlink:href="#font_9_28d" transform="matrix(12.144621,.0000029698843,-.0000019231964,-11.934866,68.243228,72.20638)"/>
<use xlink:href="#font_9_10" transform="matrix(12.144621,.0000029698843,-.0000019231964,-11.934866,74.19661,70.35904)"/>
<use xlink:href="#font_9_2e" transform="matrix(12.144621,.0000029698843,-.0000019231964,-11.934866,81.89203,70.27163)"/>
<use xlink:href="#font_9_28d" transform="matrix(12.144621,.0000029698843,-.0000019231964,-11.934866,94.07484,72.20639)"/>
<use xlink:href="#font_9_10" transform="matrix(12.144621,.0000029698843,-.0000019231964,-11.934866,97.41712,70.359058)"/>
<use xlink:href="#font_9_49" transform="matrix(12.144621,.0000029698843,-.0000019231964,-11.934866,104.93465,70.359058)"/>
<use xlink:href="#font_9_28d" transform="matrix(12.144621,.0000029698843,-.0000019231964,-11.934866,116.80957,72.2064)"/>
<use xlink:href="#font_9_10" transform="matrix(12.144621,.0000029698843,-.0000019231964,-11.934866,122.76295,70.359058)"/>
<use xlink:href="#font_9_2e" transform="matrix(12.144621,.0000029698843,-.0000019231964,-11.934866,133.4581,70.271648)"/>
<use xlink:href="#font_9_28d" transform="matrix(12.144621,.0000029698843,-.0000019231964,-11.934866,145.65306,72.206409)"/>
<use xlink:href="#font_9_10" transform="matrix(12.144621,.0000029698843,-.0000019231964,-11.934866,148.99533,70.35907)"/>
<use xlink:href="#font_9_5d" transform="matrix(12.144621,.0000029698843,-.0000019231964,-11.934866,156.15706,70.35906)"/>
<use xlink:href="#font_9_28d" transform="matrix(12.144621,.0000029698843,-.0000019231964,-11.934866,168.19348,72.206409)"/>
<use xlink:href="#font_9_10" transform="matrix(12.144621,.0000029698843,-.0000019231964,-11.934866,174.14684,70.35907)"/>
<use xlink:href="#font_9_2e" transform="matrix(12.144621,.0000029698843,-.0000019231964,-11.934866,184.81768,70.27166)"/>
<use xlink:href="#font_9_28d" transform="matrix(12.144621,.0000029698843,-.0000019231964,-11.934866,197.01265,72.20641)"/>
<use xlink:href="#font_9_10" transform="matrix(12.144621,.0000029698843,-.0000019231964,-11.934866,200.35492,70.35907)"/>
<use xlink:href="#font_9_82" transform="matrix(12.144621,.0000029698843,-.0000019231964,-11.934866,207.63524,70.35908)"/>
<use xlink:href="#font_9_10" transform="matrix(12.144621,.0000029698843,-.0000019231964,-11.934866,214.23624,70.359088)"/>
<use xlink:href="#font_9_28d" transform="matrix(12.144621,.0000029698843,-.0000019231964,-11.934866,225.929,72.20642)"/>
<use xlink:href="#font_9_10" transform="matrix(12.144621,.0000029698843,-.0000019231964,-11.934866,231.88237,70.359088)"/>
<use xlink:href="#font_9_2e" transform="matrix(12.144621,.0000029698843,-.0000019231964,-11.934866,242.45607,70.271678)"/>
</g>
</g>
</g>
<g id="Layer-1" data-name="P">
<clipPath id="cp10">
<path transform="matrix(1,0,0,-1,0,841.92)" d="M .000008871 0 L 595.32 0 L 595.32 841.92 L .000008871 841.92 Z " fill-rule="evenodd"/>
</clipPath>
<g clip-path="url(#cp10)">
<use xlink:href="#font_6_3" transform="matrix(10.98,0,0,-10.98,258.04,70.32001)"/>
</g>
</g>
<g id="Layer-1" data-name="P">
<clipPath id="cp11">
<path transform="matrix(1,0,0,-1,0,841.92)" d="M .000008871 0 L 595.32 0 L 595.32 841.92 L .000008871 841.92 Z " fill-rule="evenodd"/>
</clipPath>
<g clip-path="url(#cp11)">
<use xlink:href="#font_6_3" transform="matrix(10.98,0,0,-10.98,36,98.70001)"/>
</g>
</g>
</g>
</g>
</svg>
