<?xml version="1.0" encoding="utf-8"?>
<!-- Generator: Adobe Illustrator 21.0.2, SVG Export Plug-In . SVG Version: 6.00 Build 0)  -->
<svg version="1.1" baseProfile="basic" id="Layer_2"
	 xmlns="http://www.w3.org/2000/svg" xmlns:xlink="http://www.w3.org/1999/xlink" x="0px" y="0px" viewBox="0 0 716 297"
	 xml:space="preserve">
<style type="text/css">
	.st0{fill:none;stroke:#000000;stroke-miterlimit:10;}
	.st1{fill:#4EA2BE;}
</style>
<polygon class="st0" points="41,31 117,31 130,43 130,193 54.5,193.5 54.5,42.5 "/>
<polyline class="st0" points="130.5,43.5 54.5,42.5 41.5,31.5 40.5,181.5 54.5,193.5 "/>
<line class="st0" x1="117.5" y1="130.5" x2="117.5" y2="31.5"/>
<path class="st1" d="M41,130.5"/>
<g>
	<path d="M41.3,130.8c25.2,0,50.4,0,75.6,0c0.5,0,0.5-0.8,0-0.8c-0.5,0-0.9,0-1.4,0c-0.5,0-0.5,0.8,0,0.8c0.5,0,0.9,0,1.4,0
		c0.5,0,0.5-0.8,0-0.8c-25.2,0-50.4,0-75.6,0C40.8,130.1,40.8,130.8,41.3,130.8L41.3,130.8z"/>
</g>
<g>
	<path d="M41.2,130.8c4.4,4.4,8.8,8.8,13.1,13.1c0.3,0.3,0.9-0.2,0.5-0.5c-4.4-4.4-8.8-8.8-13.1-13.1
		C41.4,130,40.8,130.5,41.2,130.8L41.2,130.8z"/>
</g>
<line class="st0" x1="117" y1="130" x2="129.5" y2="143.5"/>
<line class="st0" x1="54.5" y1="143.5" x2="130.5" y2="143.5"/>
<polygon class="st0" points="196.5,43.5 196.5,93.5 196.5,193.5 183.5,181.5 183.5,81.5 183.5,30.5 "/>
<polyline class="st0" points="234.5,43.5 234.5,193.5 196.5,193.5 "/>
<polygon class="st0" points="234.5,93.5 221.5,80.5 183.5,81.5 196.5,93.5 "/>
<polyline class="st0" points="183.5,30.5 221.5,30.5 234.5,43.5 196.5,43.5 "/>
<line class="st0" x1="221.5" y1="30.5" x2="221.5" y2="80.5"/>
<polyline class="st0" points="316.5,30.5 316.5,180.5 330.5,193.5 330.5,43.5 "/>
<polyline class="st0" points="367.5,43.5 367.5,193.5 330.5,193.5 "/>
<line class="st0" x1="316.5" y1="30.5" x2="330.5" y2="44.5"/>
<line class="st0" x1="368" y1="43.5" x2="329.5" y2="43.5"/>
<line class="st0" x1="316.5" y1="30.5" x2="356.5" y2="30.5"/>
<line class="st0" x1="367.5" y1="43.5" x2="356.5" y2="30.5"/>
<polygon class="st0" points="460.5,30.5 473.5,43.5 473.5,45.3 473.5,193.5 460.5,180.5 "/>
<polygon class="st0" points="624.5,43.5 611.5,30.5 460.5,30.5 473.5,43.5 "/>
<polygon class="st0" points="460.5,154 473.5,167.7 624.5,167.5 611.5,153.5 "/>
<polyline class="st0" points="473.5,193.5 624.5,193.5 624.5,43.5 "/>
<line class="st0" x1="611.5" y1="30.5" x2="611.5" y2="153.5"/>
<g>
	<path d="M22.2,146c0-0.3,0-0.6,0-0.9c-0.1-1.9-3.1-1.9-3,0c0.1,4.4,0.1,8.7-0.2,13.1c1,0,2,0,3,0c0-1.4,0.1-2.8,0.4-4.2
		c0.1-0.5,0.2-1,0.4-1.5c1.9-0.5,2.9-0.2,2.8,1.1c0.7,2.1-1.6,4-1.3,6.1c0.5,3.1,3.9,2.5,5.8,1.2c1.6-1.1,0.1-3.7-1.5-2.6
		c-1.9,1.3-0.3-1.8-0.1-2.8c0.2-1.1,0.2-2.3-0.1-3.3c-0.5-1.8-1.9-3.4-3.9-3.7c-5.1-0.7-5.5,6.1-5.5,9.7c0,1.9,2.9,1.9,3,0
		c0.3-4.4,0.4-8.7,0.2-13.1c-1,0-2,0-3,0c0,0.3,0,0.6,0,0.9C19.2,147.9,22.2,147.9,22.2,146L22.2,146z"/>
</g>
<g>
	<path d="M80.6,207.3c-0.3,4.3-1,8.6-1.8,12.9c-0.4,1.9,2.5,2.7,2.9,0.8c0.9-4.5,1.6-9.1,1.9-13.7C83.7,205.4,80.7,205.4,80.6,207.3
		L80.6,207.3z"/>
</g>
<g>
	<path d="M83.8,209.7c-0.1-0.9,0.9-1.4,1.7-1.1c1,0.3,1.5,1.5,1.7,2.4c0.5,2.3-4.4,0.8-5.4,0.3c-1.7-0.9-3.2,1.7-1.5,2.6
		c2.2,1.2,5,1.7,7.5,1c2.6-0.8,2.9-3.3,2.1-5.5c-0.8-2.1-2.6-4-5-3.8c-2.2,0.1-4.1,1.9-3.9,4.2C80.9,211.6,83.9,211.6,83.8,209.7
		L83.8,209.7z"/>
</g>
<g>
	<path d="M103.4,209.4c0.3-2,0.2-4.4-2.2-5.1c-2.3-0.6-4.1,1.2-5,3.1c-0.9,1.8-1.9,5,0.5,6.1c0.5,0.2,1.1,0.2,1.6,0.4
		c1,0,1.3,0.5,1,1.5c-0.2,0-0.4,0-0.7,0.1c-1.4,0.5-4.2-1.1-5.3-1.8c-1.6-1-3.1,1.6-1.5,2.6c2.6,1.7,9.2,4.2,10.8-0.1
		c0.6-1.8-0.4-3.7-2-4.5c-0.8-0.5-2.2-0.4-2.4-1.3c-0.1-0.5,0.7-2,1-2.3c0.9-1,1.5-0.8,1.3,0.6C100.2,210.5,103.1,211.3,103.4,209.4
		L103.4,209.4z"/>
</g>
<g>
	<path d="M246.2,135.3c-0.7-3.4,3.7-3.5,4.3-0.5c0.2,1,0.1,2.2-0.3,3.2c-0.3,1-0.9,2-1.7,2.8c-0.4,0.5-2.6,2.5-3.4,2.1
		c0.2,0.7,0.4,1.4,0.5,2.1c0.3-0.4,2.4,1.7,2.8,1.9c0.9,0.5,1.8,0.8,2.8,0.5c2.2-0.5,3.1-2.7,3.7-4.7c0.5-1.9-2.4-2.7-2.9-0.8
		c-0.1,0.5-0.3,1.4-0.6,1.8c-1.3,1.3-1.7,0.2-2.6-0.4c-0.6-0.5-1.3-1-2.1-1.2c-1.6-0.4-2.8,0.1-3.7,1.3c-0.5,0.6-0.1,1.7,0.5,2.1
		c2.7,1.3,5.9-1.2,7.6-3.2c1.9-2.4,2.9-5.7,2.1-8.7c-1.9-6.7-11.4-4.3-10,2.5C243.7,138,246.5,137.2,246.2,135.3L246.2,135.3z"/>
</g>
<g>
	<path d="M259.9,130c0.2,5.7-0.1,11.3-0.8,16.9c1,0.1,2,0.3,2.9,0.4c0-2.2,0.4-4.3,1.2-6.4c0.9-2.2,1.6-4.4,2.3-0.9
		c0.6,3-0.7,6.7,1.4,9.2c1.2,1.5,3.3-0.6,2.1-2.1c-0.8-1-0.1-4.3-0.2-5.5c-0.2-1.7-0.5-3.4-1.1-5c-0.5-1.4-1.2-2.8-2.9-2.6
		c-1.9,0.2-3.1,3-3.8,4.4c-1.3,2.8-1.9,5.8-2,8.9c0,1.6,2.7,2.1,2.9,0.4c0.8-5.9,1.2-11.8,0.9-17.7
		C262.8,128.1,259.8,128.1,259.9,130L259.9,130z"/>
</g>
<g>
	<path d="M210.4,209.4c1.2-1.4,2.6-1.9,3.3,0.2c0.5,1.5,0.2,3.6-0.3,5c-0.2,0.7-0.5,1.4-0.8,2.1c-0.5,0.8-0.9-0.7-0.5,0.4
		c0.4,1,2,2.5,2.8,3.2c2.3,2.2,6.5,1.6,5.8-2.2c-0.4-1.9-3.3-1.1-2.9,0.8c-0.2-0.8-2.3-2.5-2.9-3.2c-0.7-0.8-1.4-1.9-2.4-2.4
		c-1.5-0.8-3.1-0.3-4.1,1c-2.4,3.1,0.7,7.4,4.4,6.1c3.9-1.4,4.5-7.7,3.9-11.2c-0.3-1.9-0.8-4.1-2.9-4.6c-2.1-0.5-4.1,1.2-5.4,2.7
		C207,208.7,209.1,210.8,210.4,209.4L210.4,209.4z"/>
</g>
<g>
	<path d="M224.6,211c-0.3,6-0.6,12-0.8,18c-0.1,1.9,2.9,1.9,3,0c0.3-6,0.6-12,0.8-18C227.7,209.1,224.7,209.1,224.6,211L224.6,211z"
		/>
</g>
<g>
	<path d="M228.2,210.5c-0.2-1.1,2.7,0.5,3,0.7c0.9,0.7,1,1.6,0.4,2.6c-1.2,1.9-4,1.7-5.9,1.7c-1.9,0-1.9,3,0,3c2.5,0,5.3,0,7.3-1.8
		c1.6-1.4,2.6-3.9,1.6-5.9c-0.9-2-3.6-3.7-5.7-3.7c-2.3,0-4,2-3.5,4.2C225.7,213.2,228.6,212.4,228.2,210.5L228.2,210.5z"/>
</g>
<g>
	<path d="M381,133.4c0.1,0.5,0.1,0.9,0.2,1.4c-1,0.6-0.9,2,0,2.6c1.4,1,2.9,2,3.1,3.8c0.3,2.8-2.7,4.2-4.7,2.2
		c-1.4-1.3-3.5,0.8-2.1,2.1c2.8,2.7,7.4,2.5,9.3-1.1c2.2-4-0.9-7.4-4.1-9.6c0,0.9,0,1.7,0,2.6c3-1.7,4-6.2,0.4-7.9
		c-3.1-1.5-6.3,1.6-5.1,4.8C378.9,136,381.8,135.2,381,133.4L381,133.4z"/>
</g>
<g>
	<path d="M392.9,138.3c-0.2,4.6-0.4,9.3-0.7,13.9c1,0,2,0,3,0c-0.1-3.4-1-7.3,0.5-10.5c0.8-1.8,3.8-4.6,5.7-2.2
		c0.8,1,0.4,2.7-0.7,3.3c-1.2,0.7-2.7,0.4-4,0c-1.9-0.5-2.7,2.4-0.8,2.9c3,0.8,6.7,0.6,8.5-2.4c1.5-2.7,0.1-5.9-2.6-7.1
		c-3-1.3-6.3,0.3-8.1,2.9c-2.6,3.9-1.6,8.7-1.5,13.1c0,1.9,2.9,1.9,3,0c0.2-4.6,0.4-9.3,0.7-13.9C396,136.4,393,136.4,392.9,138.3
		L392.9,138.3z"/>
</g>
<g>
	<path d="M343.1,210.3c-0.5-1.4,1-3.3,2.2-3.8c0.4-0.3,0.8-0.4,1.3-0.3c2.1-0.4,2,1.1-0.4,4.3c-1.9,0.1-1.9,3.1,0,3
		c2.7-0.1,5.8,4.1,2.5,6c-1.8,1-5.1,0.4-7,0c-1.9-0.4-2.7,2.5-0.8,2.9c3.6,0.8,11,1.5,12.2-3.3c1.1-4.1-2.8-8.7-6.9-8.5c0,1,0,2,0,3
		c5.2-0.3,7.1-7.1,2.6-10.1c-4.1-2.7-10.1,3.5-8.5,7.6C340.9,212.9,343.8,212.1,343.1,210.3L343.1,210.3z"/>
</g>
<g>
	<path d="M357.8,211c0,5-0.3,10-0.9,15c-0.2,1.9,2.8,1.9,3,0c0.6-5,1-10,0.9-15C360.8,209.1,357.8,209.1,357.8,211L357.8,211z"/>
</g>
<g>
	<path d="M361.4,212.1c-0.2-0.9,1-1.1,1.6-1c0.6,0.1,1.2,0.7,1.6,1.1c1,1,1.8,2.6,0.3,3.5c-2.2,1.3-4.7,1.7-7.2,1.4
		c-1.9-0.2-1.9,2.8,0,3c4.5,0.5,13.9-1.8,10.4-8.1c-1.2-2.1-3.3-4.2-5.9-4c-2.4,0.3-4.2,2.5-3.6,4.9
		C358.9,214.8,361.8,214,361.4,212.1L361.4,212.1z"/>
</g>
<g>
	<path d="M539.4,206.5c-0.9,3.7-2.1,9.2,0.8,12.4c2.4,2.7,6.1,1.9,7.7-1.2c1.8-3.4,0.8-8-1.5-10.9c-2.1-2.7-5.9-3.8-8.1-0.6
		c-1.1,1.6,1.5,3.1,2.6,1.5c1.5-2.2,3.9,2,4.3,3.1c0.6,1.7,1,4.1-0.1,5.7c-1.8,2.9-3.6-1-3.7-2.7c-0.1-2.2,0.3-4.4,0.8-6.5
		C542.7,205.4,539.8,204.6,539.4,206.5L539.4,206.5z"/>
</g>
<g>
	<path d="M550.7,216.5c-1.1,3.3-1.6,6.7-1.5,10.1c0,1.9,3,1.9,3,0c-0.1-3.2,0.4-6.3,1.4-9.3C554.2,215.5,551.3,214.7,550.7,216.5
		L550.7,216.5z"/>
</g>
<g>
	<path d="M556.3,206.7c-0.1,0-0.1,0-0.2,0c0.5,0.4,1,0.7,1.4,1.1c0-0.1-0.1-0.2-0.1-0.2c-0.1,0.5-0.3,1-0.4,1.5
		c-0.4,0.3-0.2,0.3,0.5,0.1c0.5-0.1,0.9-0.1,1.4-0.2c0.7-0.1,1.4-0.2,2.1-0.3c1.6-0.2,3.3-0.4,4.9-0.7c1.9-0.3,1.1-3.1-0.8-2.9
		c-2,0.3-4,0.5-6,0.8c-1.4,0.2-3.2,0.1-4.3,1c-0.4,0.3-0.5,1-0.4,1.5c0,0.1,0.1,0.2,0.1,0.2c0.2,0.6,0.8,1.1,1.4,1.1
		c0.1,0,0.1,0,0.2,0C558.2,209.6,558.2,206.6,556.3,206.7L556.3,206.7z"/>
</g>
<g>
	<path d="M555.3,208.3c-0.2,1.7-0.1,3.3,0.1,5c0.2,1.2,2.3,1.5,2.7,0.4c0.9-2.1,3.1-0.7,3.8,0.8c0.2,0.4,0.3,0.9,0.5,1.3
		c0.1,0.6-0.1,0.9-0.7,1c-0.9,0.7-2.9,1.3-3.7,0.1c-1.1-1.6-3.7-0.1-2.6,1.5c1.5,2.2,4.1,2.6,6.5,1.6c2.6-1.1,4.1-2.4,3.3-5.3
		c-0.6-2.2-2.1-4.4-4.4-4.9c-2-0.5-4.4,0.4-5.2,2.4c0.9,0.1,1.8,0.2,2.7,0.4c-0.2-1.4-0.2-2.8,0-4.2
		C558.5,206.4,555.5,206.4,555.3,208.3L555.3,208.3z"/>
</g>
<g>
	<path d="M570.9,211.3c-0.5,5.4-0.9,10.9-1.1,16.3c-0.1,1.9,2.9,1.9,3,0c0.2-5.5,0.6-10.9,1.1-16.3
		C574.1,209.4,571.1,209.4,570.9,211.3L570.9,211.3z"/>
</g>
<g>
	<path d="M574.5,212.7c0.1-1.1,1.3-1.7,2.3-1.3c1,0.5,1.4,1.9,1.1,2.9c-0.8,2.8-4.2,3.2-6.6,2.7c-1.9-0.4-2.7,2.5-0.8,2.9
		c2.8,0.6,5.8,0.4,8.1-1.5c1.8-1.5,2.9-4,2.2-6.4c-0.6-2.2-2.6-3.9-4.9-3.8c-2.4,0.1-4.2,2.1-4.3,4.4
		C571.4,214.6,574.4,214.6,574.5,212.7L574.5,212.7z"/>
</g>
<g>
	<path d="M644.6,151.3c1.9-1.7,3.9-3.4,5.8-5.2c-0.9-0.4-1.7-0.7-2.6-1.1c-0.1,4.5-0.5,8.8-1.4,13.2c-0.4,1.9,2.5,2.7,2.9,0.8
		c0.9-4.6,1.4-9.3,1.5-14c0-1.4-1.6-1.9-2.6-1.1c-1.9,1.7-3.9,3.4-5.8,5.2C641,150.4,643.1,152.5,644.6,151.3L644.6,151.3z"/>
</g>
<g>
	<path d="M642.7,163.2c3.9-0.2,7.8-0.1,11.7,0.3c1.9,0.2,1.9-2.8,0-3c-3.9-0.4-7.8-0.5-11.7-0.3
		C640.7,160.3,640.7,163.3,642.7,163.2L642.7,163.2z"/>
</g>
<g>
	<path d="M648.9,168c0,1,0.4,1.5,0.1,2.6c-0.2,0.7-0.5,1.4-0.9,2c-0.5,0.7-2.7,3.3-3.7,2.8c0.2,0.4,0.5,0.9,0.7,1.3
		c0-0.1,0-0.3,0-0.4c-0.5,0.5-1,1-1.5,1.5c2.2,0.3,4.4,0.7,6.6,1.4c1.4,0.5,3,1.4,4.6,1.3c2.6-0.2,3.3-3,3.6-5.2
		c0.2-1.9-2.8-1.9-3,0c-0.2,1.7-0.4,2.1-2.1,1.8c-1-0.2-2.1-0.8-3.2-1.1c-2.1-0.6-4.3-1-6.5-1.2c-0.8-0.1-1.5,0.8-1.5,1.5
		c0,0.1,0,0.3,0,0.4c0,0.5,0.3,1.1,0.7,1.3c4.4,2.1,9-4.3,9.4-8.1c0.2-1.9-0.4-4.3-2.6-4.9c-1.9-0.5-3.8,1-3.7,3
		C646,170,649,170,648.9,168L648.9,168z"/>
</g>
<g>
	<path d="M660.8,152.3c0.1,6.1-0.1,12.2-0.6,18.3c-0.2,1.7,2.6,2,2.9,0.4c0.4-1.7,1.8-9.5,5.1-6.9c2,1.5,1.2,6.6,0.8,8.6
		c-0.5,1.9,2.4,2.7,2.9,0.8c1-4,1-11.7-3.8-13.6c-5.3-2.1-7.1,7.1-7.9,10.3c1,0.1,2,0.3,2.9,0.4c0.6-6.1,0.8-12.2,0.6-18.3
		C663.8,150.4,660.8,150.4,660.8,152.3L660.8,152.3z"/>
</g>
<g>
	<path d="M219.2,248.4c0.9-1.7,1.9-3.3,3-4.9c-0.9-0.3-1.9-0.5-2.8-0.8c0.3,3.4,0.6,6.8,0.8,10.3c0.2,1.9,3.2,1.9,3,0
		c-0.3-3.4-0.6-6.8-0.8-10.3c-0.1-1.5-1.9-2-2.8-0.8c-1.1,1.6-2.1,3.2-3,4.9C215.7,248.6,218.3,250.1,219.2,248.4L219.2,248.4z"/>
</g>
<g>
	<path d="M215.3,261.1c4.3-0.3,8.5,0.2,12.6,1.3c1.9,0.5,2.7-2.4,0.8-2.9c-4.4-1.2-8.9-1.7-13.4-1.4
		C213.4,258.2,213.4,261.2,215.3,261.1L215.3,261.1z"/>
</g>
<g>
	<path d="M221.6,265.3c-0.1,3.5-2.2,6.7-4.9,8.8c0.8,0.4,1.5,0.9,2.3,1.3c0-1.6,3.4,1.1,3.8,1.3c1,0.6,2.2,1.1,3.4,1
		c2.8-0.2,3-2.7,4.4-4.6c1.1-1.6-1.5-3.1-2.6-1.5c-0.4,0.6-0.6,1.3-1,1.9c-0.6,1.1-1.6,1.1-2.7,0.6c-1.3-0.6-2.2-1.8-3.7-2.1
		c-2.3-0.5-4.6,1-4.6,3.4c0,1,1.3,2,2.3,1.3c3.1-2.4,7-7,6.2-11.3c-0.6-3.5-5.8-4-5.9-0.1C218.6,267.2,221.6,267.2,221.6,265.3
		L221.6,265.3z"/>
</g>
<g>
	<path d="M239.3,256.1c-2.2,0.4-7.7,2-5.2,5.2c1.1,1.4,4.4,2.4,4.5,4.2c0.1,2.2-4.7,1-6.1,1.1c-1.9,0.1-1.9,3.1,0,3
		c3.1-0.2,9.2,1.2,9.3-3.8c0-1.7-1.1-3.2-2.4-4.3c-0.5-0.4-1.1-0.8-1.7-1.2c-0.3-0.2-0.5-0.4-0.8-0.6c-0.8,0.6-0.9,0.8-0.4,0.4
		c1.3-0.4,2.3-1,3.7-1.3C242,258.7,241.2,255.8,239.3,256.1L239.3,256.1z"/>
</g>
<g>
	<path d="M357.6,249.1c1-2.4,2.4-4.5,4.4-6.2c-0.9-0.4-1.7-0.7-2.6-1.1c0,4.7,0,9.4,0.1,14.1c0,1.9,3,1.9,3,0c0-4.7,0-9.4-0.1-14.1
		c0-1.3-1.6-1.9-2.6-1.1c-2.3,2.1-4,4.6-5.1,7.5C354,250.1,356.9,250.9,357.6,249.1L357.6,249.1z"/>
</g>
<g>
	<path d="M352,260.4c6.3-0.1,12.4,0.6,18.5,1.9c1.9,0.4,2.7-2.5,0.8-2.9c-6.4-1.4-12.8-2.1-19.3-2
		C350.1,257.5,350.1,260.5,352,260.4L352,260.4z"/>
</g>
<g>
	<path d="M359,266.3c0.4-0.5,1.6-2.2,2.5-1.3c0.5,0.5-0.9,2.5-1.3,2.6c0.4,0.9,0.8,1.8,1.2,2.7c0.8-0.5,1.9,0.3,2,1.1
		c0.1,1.2-1.3,2.3-2.2,2.8c-1.3,0.7-2.7,0.9-4.1,1.1c-1.9,0.3-1.1,3.2,0.8,2.9c3.8-0.6,8.8-2.4,8.5-7.1c-0.2-3.1-3.8-5.1-6.4-3.4
		c-1.4,0.9-0.5,3.2,1.2,2.7c2.6-0.7,4.4-4.4,3.3-6.9c-1.6-3.6-5.6-1.5-7.4,0.7C355.7,265.7,357.8,267.8,359,266.3L359,266.3z"/>
</g>
<g>
	<path d="M378.3,255.5c-3.3-0.1-5.3,4-2.6,6.3c1.4,1.2,4.1,0.6,5,2.4c0.9,1.6-1.1,1.8-2.2,1.4c-1.2-0.4-2.3-1.2-3-2.3
		c-1.1-1.6-3.7-0.1-2.6,1.5c2,2.8,8,6.5,10.5,2.2c1-1.6,0.6-3.7-0.6-5.1c-0.7-0.8-1.5-1.3-2.5-1.7c-0.5-0.2-1.1-0.3-1.6-0.4
		c-0.3,0-0.5-0.1-0.8-0.2c-0.7-0.8-0.5-1.2,0.4-1.2C380.3,258.6,380.3,255.6,378.3,255.5L378.3,255.5z"/>
</g>
<g>
	<path d="M540.4,255.4c0.5-0.6,2.1-2.5,2.9-2.1c1.2,0.5,0.3,2.3,0.1,3.2c-0.5,1.9-2.3,6.8-5,6.3c0.1,0.9,0.2,1.8,0.4,2.7
		c2-1,4.2-1.1,6.2-0.1c1.1,0.6,2.1,1.6,3.4,1.7c3.1,0.1,2.5-2.9,3.6-4.7c0.9-1.7-1.6-3.2-2.6-1.5c-0.4,0.7-0.7,2.7-1.2,2.8
		c-0.8,0.2-2.6-1.4-3.5-1.6c-2.5-0.7-5.1-0.3-7.4,0.9c-1.1,0.6-0.9,2.5,0.4,2.7c5.6,0.9,8.6-6.2,9.2-10.8c0.8-6.3-5.6-5.1-8.5-1.6
		C537.1,254.8,539.2,256.9,540.4,255.4L540.4,255.4z"/>
</g>
<g>
	<path d="M561.5,254.1c-2.6-0.6-6.8,1-6.2,4.3c0.3,1.4,1.5,2,2.7,2.7c0.8,0.4,2.3,1.1,2.5,2.1c0.3,2.1-2.8,1.2-3.8,0.9
		c-1.9-0.5-2.7,2.4-0.8,2.9c2.9,0.8,7.6,0.8,7.7-3.4c0-1.5-0.9-2.9-2-3.8c-0.7-0.6-1.7-0.9-2.3-1.5c-0.4-0.3-0.8-0.3-0.5-0.9
		c0.3-0.6,1.6-0.5,2-0.4C562.6,257.4,563.4,254.6,561.5,254.1L561.5,254.1z"/>
</g>
<g>
</g>
<g>
</g>
<g>
</g>
<g>
</g>
<g>
</g>
<g>
</g>
<g>
</g>
<g>
</g>
<g>
</g>
<g>
</g>
<g>
</g>
<g>
</g>
<g>
</g>
<g>
</g>
<g>
</g>
</svg>
