<?xml version="1.0" encoding="utf-8"?>
<!-- Generator: Adobe Illustrator 22.1.0, SVG Export Plug-In . SVG Version: 6.00 Build 0)  -->
<svg version="1.1" id="Layer_2" xmlns="http://www.w3.org/2000/svg" xmlns:xlink="http://www.w3.org/1999/xlink" x="0px" y="0px"
	 viewBox="0 0 560 212" style="enable-background:new 0 0 560 212;" xml:space="preserve">
<style type="text/css">
	.st0{fill:none;stroke:#000000;stroke-miterlimit:10;}
</style>
<path class="st0" d="M348,90H213c-6.6,0-12-5.4-12-12V41c0-6.6,5.4-12,12-12h135c6.6,0,12,5.4,12,12v37C360,84.6,354.6,90,348,90z"
	/>
<path class="st0" d="M170.5,129.5h-135c-6.6,0-12-5.4-12-12v-37c0-6.6,5.4-12,12-12h135c6.6,0,12,5.4,12,12v37
	C182.5,124.1,177.1,129.5,170.5,129.5z"/>
<path class="st0" d="M170.5,200.5h-135c-6.6,0-12-5.4-12-12v-37c0-6.6,5.4-12,12-12h135c6.6,0,12,5.4,12,12v37
	C182.5,195.1,177.1,200.5,170.5,200.5z"/>
<path class="st0" d="M526.5,197.5h-135c-6.6,0-12-5.4-12-12v-37c0-6.6,5.4-12,12-12h135c6.6,0,12,5.4,12,12v37
	C538.5,192.1,533.1,197.5,526.5,197.5z"/>
<path class="st0" d="M533.5,129.5h-135c-6.6,0-12-5.4-12-12v-37c0-6.6,5.4-12,12-12h135c6.6,0,12,5.4,12,12v37
	C545.5,124.1,540.1,129.5,533.5,129.5z"/>
<path class="st0" d="M332.5,193.5h-106c-6.6,0-12-5.4-12-12v-53c0-6.6,5.4-12,12-12h106c6.6,0,12,5.4,12,12v53
	C344.5,188.1,339.1,193.5,332.5,193.5z"/>
<g>
	<path d="M229.8,61.7c0.5,0.3,1.2,0.5,1.9,0.5c1.1,0,1.7-0.6,1.7-1.4c0-0.8-0.4-1.2-1.5-1.6c-1.3-0.5-2.1-1.2-2.1-2.3
		c0-1.3,1-2.2,2.6-2.2c0.8,0,1.4,0.2,1.8,0.4l-0.3,0.9c-0.3-0.1-0.8-0.4-1.5-0.4c-1.1,0-1.5,0.7-1.5,1.2c0,0.8,0.5,1.1,1.6,1.6
		c1.4,0.5,2.1,1.2,2.1,2.4c0,1.2-0.9,2.3-2.8,2.3c-0.8,0-1.6-0.2-2.1-0.5L229.8,61.7z"/>
	<path d="M235.8,57.6c0.5-0.3,1.2-0.5,1.9-0.5c1.8,0,2.2,1.2,2.2,2.4v2.2c0,0.5,0,1,0.1,1.4h-0.3c-0.2,0.2-0.5,0.7-0.5,1.2
		c0,0.4,0.2,0.6,0.6,0.6c0.2,0,0.4,0,0.6-0.1l0.2,0.6c-0.3,0.2-0.7,0.3-1,0.3c-0.6,0-1.1-0.4-1.1-1c0-0.6,0.4-1.2,0.6-1.5l-0.1-0.7
		h0c-0.3,0.5-0.9,0.9-1.8,0.9c-1.2,0-1.8-0.8-1.8-1.7c0-1.4,1.2-2.2,3.5-2.2v-0.1c0-0.5-0.1-1.3-1.3-1.3c-0.5,0-1.1,0.2-1.5,0.4
		L235.8,57.6z M238.9,60c-1.2,0-2.5,0.2-2.5,1.3c0,0.7,0.5,1,1,1c0.8,0,1.2-0.5,1.4-1c0-0.1,0.1-0.2,0.1-0.3V60z"/>
	<path d="M243.5,62.4l2.6-3.4c0.3-0.3,0.5-0.6,0.8-0.9v0h-3.1v-0.9h4.4l0,0.7l-2.6,3.4c-0.2,0.3-0.5,0.6-0.7,0.9v0h3.4V63h-4.7V62.4
		z M247.6,54.7l-1.5,1.7h-0.8l1.1-1.7H247.6z"/>
	<path d="M249.3,59c0-0.7,0-1.3,0-1.8h0.9l0,1.1h0c0.3-0.8,0.9-1.3,1.6-1.3c0.1,0,0.2,0,0.3,0v1c-0.1,0-0.2,0-0.4,0
		c-0.7,0-1.3,0.6-1.4,1.4c0,0.1,0,0.3,0,0.5V63h-1V59z"/>
	<path d="M258.3,60c0,2.1-1.5,3.1-2.9,3.1c-1.6,0-2.8-1.2-2.8-3c0-1.9,1.3-3.1,2.9-3.1C257.2,57.1,258.3,58.3,258.3,60z M253.7,60.1
		c0,1.3,0.7,2.2,1.8,2.2c1,0,1.8-0.9,1.8-2.3c0-1-0.5-2.2-1.7-2.2C254.3,57.9,253.7,59,253.7,60.1z M257.1,54.7l-1.5,1.7h-0.8
		l1.1-1.7H257.1z"/>
	<path d="M264.7,54.5v7c0,0.5,0,1.1,0,1.5h-0.9l0-1h0c-0.3,0.6-1,1.1-2,1.1c-1.4,0-2.5-1.2-2.5-3c0-1.9,1.2-3.1,2.6-3.1
		c0.9,0,1.5,0.4,1.8,0.9h0v-3.5H264.7z M263.6,59.6c0-0.1,0-0.3,0-0.4c-0.2-0.7-0.7-1.2-1.5-1.2c-1.1,0-1.7,1-1.7,2.2
		c0,1.2,0.6,2.1,1.7,2.1c0.7,0,1.4-0.5,1.5-1.3c0-0.1,0-0.3,0-0.5V59.6z"/>
	<path d="M266.5,63v-3.5l-0.8,0.7v-0.8l0.8-0.7v-4.2h1.1v3.4l0.9-0.7V58l-0.9,0.7V63H266.5z"/>
	<path d="M269.9,60.3c0,1.4,0.9,2,2,2c0.8,0,1.2-0.1,1.6-0.3l0.2,0.8c-0.4,0.2-1,0.4-1.9,0.4c-1.8,0-2.9-1.2-2.9-2.9s1-3.1,2.7-3.1
		c1.9,0,2.4,1.7,2.4,2.7c0,0.2,0,0.4,0,0.5H269.9z M273,59.5c0-0.7-0.3-1.7-1.5-1.7c-1.1,0-1.5,1-1.6,1.7H273z"/>
	<path d="M275.4,58.8c0-0.6,0-1.1,0-1.6h0.9l0,0.9h0c0.3-0.6,0.9-1.1,1.8-1.1c0.8,0,1.4,0.5,1.6,1.2h0c0.2-0.3,0.4-0.6,0.6-0.8
		c0.3-0.3,0.7-0.4,1.3-0.4c0.8,0,1.9,0.5,1.9,2.5V63h-1v-3.3c0-1.1-0.4-1.8-1.3-1.8c-0.6,0-1.1,0.4-1.2,1c0,0.1-0.1,0.3-0.1,0.5V63
		h-1v-3.5c0-0.9-0.4-1.6-1.2-1.6c-0.7,0-1.1,0.5-1.3,1.1c-0.1,0.2-0.1,0.3-0.1,0.5V63h-1V58.8z"/>
	<path d="M287.9,59.1c0-0.7,0-1.3,0-1.9h0.9l0,1h0c0.4-0.7,1.1-1.1,2.1-1.1c1.4,0,2.5,1.2,2.5,3c0,2.1-1.3,3.1-2.6,3.1
		c-0.8,0-1.4-0.3-1.8-0.9h0v3.2h-1V59.1z M289,60.6c0,0.2,0,0.3,0,0.4c0.2,0.7,0.8,1.2,1.6,1.2c1.1,0,1.8-0.9,1.8-2.2
		c0-1.2-0.6-2.2-1.7-2.2c-0.7,0-1.4,0.5-1.6,1.3c0,0.1-0.1,0.3-0.1,0.4V60.6z"/>
	<path d="M300,60c0,2.1-1.5,3.1-2.9,3.1c-1.6,0-2.8-1.2-2.8-3c0-1.9,1.3-3.1,2.9-3.1C298.9,57.1,300,58.3,300,60z M295.4,60.1
		c0,1.3,0.7,2.2,1.8,2.2c1,0,1.8-0.9,1.8-2.3c0-1-0.5-2.2-1.7-2.2C295.9,57.9,295.4,59,295.4,60.1z"/>
	<path d="M302.4,59.9L302.4,59.9c0.2-0.2,0.4-0.5,0.5-0.7l1.7-2h1.3l-2.2,2.4l2.6,3.4h-1.3l-2-2.8l-0.5,0.6V63h-1v-8.5h1V59.9z"/>
	<path d="M310.4,63l-0.1-0.7h0c-0.3,0.5-0.9,0.9-1.8,0.9c-1.2,0-1.8-0.8-1.8-1.7c0-1.4,1.2-2.2,3.5-2.2v-0.1c0-0.5-0.1-1.3-1.3-1.3
		c-0.5,0-1.1,0.2-1.5,0.4l-0.2-0.7c0.5-0.3,1.2-0.5,1.9-0.5c1.8,0,2.2,1.2,2.2,2.4v2.2c0,0.5,0,1,0.1,1.4H310.4z M310.2,60
		c-1.2,0-2.5,0.2-2.5,1.3c0,0.7,0.5,1,1,1c0.8,0,1.2-0.5,1.4-1c0-0.1,0.1-0.2,0.1-0.3V60z"/>
	<path d="M313,59c0-0.7,0-1.3,0-1.8h0.9l0,1.1h0c0.3-0.8,0.9-1.3,1.6-1.3c0.1,0,0.2,0,0.3,0v1c-0.1,0-0.2,0-0.4,0
		c-0.7,0-1.3,0.6-1.4,1.4c0,0.1,0,0.3,0,0.5V63h-1V59z"/>
	<path d="M316.9,58.8c0-0.6,0-1.1,0-1.6h0.9l0,0.9h0c0.3-0.6,0.9-1.1,1.8-1.1c0.8,0,1.4,0.5,1.6,1.2h0c0.2-0.3,0.4-0.6,0.6-0.8
		c0.3-0.3,0.7-0.4,1.3-0.4c0.8,0,1.9,0.5,1.9,2.5V63h-1v-3.3c0-1.1-0.4-1.8-1.3-1.8c-0.6,0-1.1,0.4-1.2,1c0,0.1-0.1,0.3-0.1,0.5V63
		h-1v-3.5c0-0.9-0.4-1.6-1.2-1.6c-0.7,0-1.1,0.5-1.3,1.1c-0.1,0.2-0.1,0.3-0.1,0.5V63h-1V58.8z"/>
	<path d="M331.8,61.4c0,0.6,0,1.1,0,1.6h-0.9l-0.1-0.9h0c-0.3,0.5-0.9,1.1-1.9,1.1c-0.9,0-2-0.5-2-2.5v-3.4h1.1v3.2
		c0,1.1,0.3,1.8,1.3,1.8c0.7,0,1.2-0.5,1.4-1c0.1-0.2,0.1-0.3,0.1-0.5v-3.6h1.1V61.4z"/>
</g>
<g>
	<path d="M423.4,93c0.5-0.1,1.2-0.2,2-0.2c1,0,1.8,0.2,2.3,0.7c0.4,0.4,0.7,1,0.7,1.7c0,0.7-0.2,1.3-0.6,1.7
		c-0.6,0.6-1.5,0.9-2.5,0.9c-0.3,0-0.6,0-0.8-0.1v3.2h-1V93z M424.5,96.9c0.2,0.1,0.5,0.1,0.9,0.1c1.3,0,2-0.6,2-1.7
		c0-1.1-0.8-1.6-1.9-1.6c-0.5,0-0.8,0-1,0.1V96.9z"/>
	<path d="M429.6,97c0-0.7,0-1.3,0-1.8h0.9l0,1.1h0c0.3-0.8,0.9-1.3,1.6-1.3c0.1,0,0.2,0,0.3,0v1c-0.1,0-0.2,0-0.4,0
		c-0.7,0-1.3,0.6-1.4,1.4c0,0.1,0,0.3,0,0.5v3.1h-1V97z"/>
	<path d="M438.6,98c0,2.1-1.5,3.1-2.9,3.1c-1.6,0-2.8-1.2-2.8-3c0-1.9,1.3-3.1,2.9-3.1C437.5,95.1,438.6,96.3,438.6,98z M434,98.1
		c0,1.3,0.7,2.2,1.8,2.2c1,0,1.8-0.9,1.8-2.3c0-1-0.5-2.2-1.7-2.2C434.6,95.9,434,97,434,98.1z"/>
	<path d="M445,92.5v7c0,0.5,0,1.1,0,1.5h-0.9l0-1h0c-0.3,0.6-1,1.1-2,1.1c-1.4,0-2.5-1.2-2.5-3c0-1.9,1.2-3.1,2.6-3.1
		c0.9,0,1.5,0.4,1.8,0.9h0v-3.5H445z M443.9,97.6c0-0.1,0-0.3,0-0.4c-0.2-0.7-0.7-1.2-1.5-1.2c-1.1,0-1.7,1-1.7,2.2
		c0,1.2,0.6,2.1,1.7,2.1c0.7,0,1.4-0.5,1.5-1.3c0-0.1,0-0.3,0-0.5V97.6z"/>
	<path d="M451.6,99.4c0,0.6,0,1.1,0,1.6h-0.9l-0.1-0.9h0c-0.3,0.5-0.9,1.1-1.9,1.1c-0.9,0-2-0.5-2-2.5v-3.4h1.1v3.2
		c0,1.1,0.3,1.8,1.3,1.8c0.7,0,1.2-0.5,1.4-1c0.1-0.2,0.1-0.3,0.1-0.5v-3.6h1.1V99.4z"/>
	<path d="M454.4,97.9L454.4,97.9c0.2-0.2,0.4-0.5,0.5-0.7l1.7-2h1.3l-2.2,2.4l2.6,3.4h-1.3l-2-2.8l-0.5,0.6v2.2h-1v-8.5h1V97.9z"/>
	<path d="M463.9,99.4c0,0.6,0,1.1,0,1.6H463l-0.1-0.9h0c-0.3,0.5-0.9,1.1-1.9,1.1c-0.9,0-2-0.5-2-2.5v-3.4h1.1v3.2
		c0,1.1,0.3,1.8,1.3,1.8c0.7,0,1.2-0.5,1.4-1c0.1-0.2,0.1-0.3,0.1-0.5v-3.6h1.1V99.4z"/>
	<path d="M464.2,102.7c0.5,0,0.9-0.2,1.2-0.4c0.3-0.3,0.4-0.8,0.4-2.2v-4.9h1.1v5.3c0,1.1-0.2,1.9-0.7,2.4c-0.5,0.5-1.2,0.7-1.8,0.7
		L464.2,102.7z M466.9,93.6c0,0.3-0.2,0.6-0.7,0.6c-0.4,0-0.6-0.3-0.6-0.6c0-0.4,0.3-0.7,0.7-0.7C466.7,92.9,466.9,93.2,466.9,93.6z
		"/>
	<path d="M468.5,95.6c0.5-0.3,1.2-0.5,1.9-0.5c1.8,0,2.2,1.2,2.2,2.4v2.2c0,0.5,0,1,0.1,1.4h-0.3c-0.2,0.2-0.5,0.7-0.5,1.2
		c0,0.4,0.2,0.6,0.6,0.6c0.2,0,0.4,0,0.6-0.1l0.2,0.6c-0.3,0.2-0.7,0.3-1,0.3c-0.6,0-1.1-0.4-1.1-1c0-0.6,0.4-1.2,0.6-1.5l-0.1-0.7
		h0c-0.3,0.5-0.9,0.9-1.8,0.9c-1.2,0-1.8-0.8-1.8-1.7c0-1.4,1.2-2.2,3.5-2.2v-0.1c0-0.5-0.1-1.3-1.3-1.3c-0.5,0-1.1,0.2-1.5,0.4
		L468.5,95.6z M471.6,98c-1.2,0-2.5,0.2-2.5,1.3c0,0.7,0.5,1,1,1c0.8,0,1.2-0.5,1.4-1c0-0.1,0.1-0.2,0.1-0.3V98z"/>
	<path d="M478.1,93.5v1.7h1.5V96h-1.5v3.1c0,0.7,0.2,1.1,0.8,1.1c0.3,0,0.5,0,0.6-0.1l0,0.8c-0.2,0.1-0.5,0.1-0.9,0.1
		c-0.5,0-0.9-0.2-1.1-0.4c-0.3-0.3-0.4-0.8-0.4-1.5V96h-0.9v-0.8h0.9v-1.4L478.1,93.5z"/>
	<path d="M480.8,92.5h1.1v8.5h-1.1V92.5z"/>
	<path d="M484.3,98.3c0,1.4,0.9,2,2,2c0.8,0,1.2-0.1,1.6-0.3l0.2,0.8c-0.4,0.2-1,0.4-1.9,0.4c-1.8,0-2.9-1.2-2.9-2.9s1-3.1,2.7-3.1
		c1.9,0,2.4,1.7,2.4,2.7c0,0.2,0,0.4,0,0.5H484.3z M487.4,97.5c0-0.7-0.3-1.7-1.5-1.7c-1.1,0-1.5,1-1.6,1.7H487.4z"/>
	<path d="M489.7,96.8c0-0.6,0-1.1,0-1.6h0.9l0.1,1h0c0.3-0.6,1-1.1,1.9-1.1c0.8,0,2.1,0.5,2.1,2.5v3.5h-1.1v-3.3
		c0-0.9-0.3-1.7-1.3-1.7c-0.7,0-1.2,0.5-1.4,1.1c0,0.1-0.1,0.3-0.1,0.5v3.5h-1.1V96.8z"/>
	<path d="M496.1,100.4c0-0.4,0.3-0.8,0.7-0.8c0.4,0,0.7,0.3,0.7,0.8c0,0.4-0.3,0.8-0.7,0.8C496.4,101.1,496.1,100.8,496.1,100.4z"/>
</g>
<g>
	<path d="M410.3,167.4c0,2.8-1.7,4.3-3.8,4.3c-2.1,0-3.6-1.7-3.6-4.1c0-2.6,1.6-4.2,3.8-4.2C408.9,163.3,410.3,165,410.3,167.4z
		 M404,167.5c0,1.7,0.9,3.3,2.6,3.3c1.7,0,2.6-1.5,2.6-3.4c0-1.6-0.8-3.3-2.6-3.3C404.9,164.1,404,165.7,404,167.5z"/>
	<path d="M415.8,171.3c-0.3,0.1-0.9,0.3-1.7,0.3c-1.8,0-2.9-1.2-2.9-3c0-1.8,1.2-3.1,3.1-3.1c0.6,0,1.2,0.2,1.5,0.3l-0.2,0.8
		c-0.3-0.1-0.6-0.3-1.2-0.3c-1.3,0-2.1,1-2.1,2.2c0,1.3,0.9,2.2,2,2.2c0.6,0,1-0.2,1.3-0.3L415.8,171.3z"/>
	<path d="M416.4,170.9l2.6-3.4c0.3-0.3,0.5-0.6,0.8-0.9v0h-3.1v-0.9h4.4l0,0.7l-2.6,3.4c-0.2,0.3-0.5,0.6-0.7,0.9v0h3.4v0.8h-4.7
		V170.9z"/>
	<path d="M422.9,165.7l1.3,3.4c0.1,0.4,0.3,0.8,0.4,1.2h0c0.1-0.3,0.2-0.8,0.4-1.2l1.2-3.4h1.1l-1.6,4.1c-0.8,2-1.3,3-2,3.6
		c-0.5,0.5-1,0.6-1.3,0.7l-0.3-0.9c0.3-0.1,0.6-0.3,0.9-0.5c0.3-0.2,0.6-0.6,0.9-1.2c0-0.1,0.1-0.2,0.1-0.3c0-0.1,0-0.1-0.1-0.3
		l-2.1-5.3H422.9z"/>
	<path d="M427.9,170.4c0.3,0.2,0.9,0.4,1.4,0.4c0.8,0,1.1-0.4,1.1-0.9c0-0.5-0.3-0.8-1.1-1.1c-1-0.4-1.5-0.9-1.5-1.6
		c0-0.9,0.8-1.7,2-1.7c0.6,0,1.1,0.2,1.4,0.4l-0.3,0.8c-0.2-0.1-0.6-0.3-1.2-0.3c-0.6,0-1,0.4-1,0.8c0,0.5,0.3,0.7,1.1,1
		c1,0.4,1.5,0.9,1.5,1.8c0,1-0.8,1.7-2.2,1.7c-0.6,0-1.2-0.2-1.6-0.4L427.9,170.4z"/>
	<path d="M432.2,170.9l2.6-3.4c0.3-0.3,0.5-0.6,0.8-0.9v0h-3.1v-0.9h4.4l0,0.7l-2.6,3.4c-0.2,0.3-0.5,0.6-0.7,0.9v0h3.4v0.8h-4.7
		V170.9z"/>
	<path d="M442,171.3c-0.3,0.1-0.9,0.3-1.7,0.3c-1.8,0-2.9-1.2-2.9-3c0-1.8,1.2-3.1,3.1-3.1c0.6,0,1.2,0.2,1.5,0.3l-0.2,0.8
		c-0.3-0.1-0.6-0.3-1.2-0.3c-1.3,0-2.1,1-2.1,2.2c0,1.3,0.9,2.2,2,2.2c0.6,0,1-0.2,1.3-0.3L442,171.3z"/>
	<path d="M442.6,170.9l2.6-3.4c0.3-0.3,0.5-0.6,0.8-0.9v0h-3.1v-0.9h4.4l0,0.7l-2.6,3.4c-0.2,0.3-0.5,0.6-0.7,0.9v0h3.4v0.8h-4.7
		V170.9z"/>
	<path d="M451.6,171.5l-0.1-0.7h0c-0.3,0.5-0.9,0.9-1.8,0.9c-1.2,0-1.8-0.8-1.8-1.7c0-1.4,1.2-2.2,3.5-2.2v-0.1
		c0-0.5-0.1-1.3-1.3-1.3c-0.5,0-1.1,0.2-1.5,0.4l-0.2-0.7c0.5-0.3,1.2-0.5,1.9-0.5c1.8,0,2.2,1.2,2.2,2.4v2.2c0,0.5,0,1,0.1,1.4
		H451.6z M451.4,168.5c-1.2,0-2.5,0.2-2.5,1.3c0,0.7,0.5,1,1,1c0.8,0,1.2-0.5,1.4-1c0-0.1,0.1-0.2,0.1-0.3V168.5z"/>
	<path d="M452.8,173.2c0.5,0,0.9-0.2,1.2-0.4c0.3-0.3,0.4-0.8,0.4-2.2v-4.9h1.1v5.3c0,1.1-0.2,1.9-0.7,2.4c-0.5,0.5-1.2,0.7-1.8,0.7
		L452.8,173.2z M455.5,164.1c0,0.3-0.2,0.6-0.7,0.6c-0.4,0-0.6-0.3-0.6-0.6c0-0.4,0.3-0.7,0.7-0.7
		C455.2,163.4,455.5,163.7,455.5,164.1z"/>
	<path d="M457.1,166.1c0.5-0.3,1.2-0.5,1.9-0.5c1.8,0,2.2,1.2,2.2,2.4v2.2c0,0.5,0,1,0.1,1.4H461c-0.2,0.2-0.5,0.7-0.5,1.2
		c0,0.4,0.2,0.6,0.6,0.6c0.2,0,0.4,0,0.6-0.1l0.2,0.6c-0.3,0.2-0.7,0.3-1,0.3c-0.6,0-1.1-0.4-1.1-1c0-0.6,0.4-1.2,0.6-1.5l-0.1-0.7
		h0c-0.3,0.5-0.9,0.9-1.8,0.9c-1.2,0-1.8-0.8-1.8-1.7c0-1.4,1.2-2.2,3.5-2.2v-0.1c0-0.5-0.1-1.3-1.3-1.3c-0.5,0-1.1,0.2-1.5,0.4
		L457.1,166.1z M460.1,168.5c-1.2,0-2.5,0.2-2.5,1.3c0,0.7,0.5,1,1,1c0.8,0,1.2-0.5,1.4-1c0-0.1,0.1-0.2,0.1-0.3V168.5z"/>
	<path d="M465.4,167.6c0-0.7,0-1.3,0-1.9h0.9l0,1h0c0.4-0.7,1.1-1.1,2.1-1.1c1.4,0,2.5,1.2,2.5,3c0,2.1-1.3,3.1-2.6,3.1
		c-0.8,0-1.4-0.3-1.8-0.9h0v3.2h-1V167.6z M466.5,169.1c0,0.2,0,0.3,0,0.4c0.2,0.7,0.8,1.2,1.6,1.2c1.1,0,1.8-0.9,1.8-2.2
		c0-1.2-0.6-2.2-1.7-2.2c-0.7,0-1.4,0.5-1.6,1.3c0,0.1-0.1,0.3-0.1,0.4V169.1z"/>
	<path d="M477.5,168.5c0,2.1-1.5,3.1-2.9,3.1c-1.6,0-2.8-1.2-2.8-3c0-1.9,1.3-3.1,2.9-3.1C476.4,165.6,477.5,166.8,477.5,168.5z
		 M472.9,168.6c0,1.3,0.7,2.2,1.8,2.2c1,0,1.8-0.9,1.8-2.3c0-1-0.5-2.2-1.7-2.2C473.4,166.4,472.9,167.5,472.9,168.6z"/>
	<path d="M479.2,165.7l0.8,3c0.2,0.6,0.3,1.2,0.4,1.8h0c0.1-0.6,0.3-1.2,0.5-1.8l0.9-3h0.9l0.9,2.9c0.2,0.7,0.4,1.3,0.5,1.9h0
		c0.1-0.6,0.3-1.2,0.4-1.9l0.8-2.9h1l-1.9,5.8h-1l-0.9-2.8c-0.2-0.6-0.4-1.2-0.5-1.9h0c-0.1,0.7-0.3,1.3-0.5,1.9l-0.9,2.8h-1
		l-1.8-5.8H479.2z"/>
	<path d="M488.8,164.1c0,0.4-0.3,0.6-0.7,0.6c-0.4,0-0.6-0.3-0.6-0.6c0-0.4,0.3-0.7,0.7-0.7C488.5,163.4,488.8,163.7,488.8,164.1z
		 M487.6,171.5v-5.8h1.1v5.8H487.6z"/>
	<path d="M491,168.8c0,1.4,0.9,2,2,2c0.8,0,1.2-0.1,1.6-0.3l0.2,0.8c-0.4,0.2-1,0.4-1.9,0.4c-1.8,0-2.9-1.2-2.9-2.9s1-3.1,2.7-3.1
		c1.9,0,2.4,1.7,2.4,2.7c0,0.2,0,0.4,0,0.5H491z M494.1,168c0-0.7-0.3-1.7-1.5-1.7c-1.1,0-1.5,1-1.6,1.7H494.1z"/>
	<path d="M497.7,164v1.7h1.5v0.8h-1.5v3.1c0,0.7,0.2,1.1,0.8,1.1c0.3,0,0.5,0,0.6-0.1l0,0.8c-0.2,0.1-0.5,0.1-0.9,0.1
		c-0.5,0-0.9-0.2-1.1-0.4c-0.3-0.3-0.4-0.8-0.4-1.5v-3.2h-0.9v-0.8h0.9v-1.4L497.7,164z"/>
	<path d="M500.4,167.5c0-0.7,0-1.3,0-1.8h0.9l0,1.1h0c0.3-0.8,0.9-1.3,1.6-1.3c0.1,0,0.2,0,0.3,0v1c-0.1,0-0.2,0-0.4,0
		c-0.7,0-1.3,0.6-1.4,1.4c0,0.1,0,0.3,0,0.5v3.1h-1V167.5z"/>
	<path d="M503.7,170.9l2.6-3.4c0.3-0.3,0.5-0.6,0.8-0.9v0H504v-0.9h4.4l0,0.7l-2.6,3.4c-0.2,0.3-0.5,0.6-0.7,0.9v0h3.4v0.8h-4.7
		V170.9z"/>
	<path d="M510,168.8c0,1.4,0.9,2,2,2c0.8,0,1.2-0.1,1.6-0.3l0.2,0.8c-0.4,0.2-1,0.4-1.9,0.4c-1.8,0-2.9-1.2-2.9-2.9s1-3.1,2.7-3.1
		c1.9,0,2.4,1.7,2.4,2.7c0,0.2,0,0.4,0,0.5H510z M513.1,168c0-0.7-0.3-1.7-1.5-1.7c-1.1,0-1.5,1-1.6,1.7H513.1z"/>
</g>
<g>
	<path d="M35.4,165.9l4.5-6.6v0h-4.1v-0.9h5.5v0.6l-4.5,6.5v0h4.5v0.9h-5.9V165.9z"/>
	<path d="M45.7,166.5l-0.1-0.7h0c-0.3,0.5-0.9,0.9-1.8,0.9c-1.2,0-1.8-0.8-1.8-1.7c0-1.4,1.2-2.2,3.5-2.2v-0.1
		c0-0.5-0.1-1.3-1.3-1.3c-0.5,0-1.1,0.2-1.5,0.4l-0.2-0.7c0.5-0.3,1.2-0.5,1.9-0.5c1.8,0,2.2,1.2,2.2,2.4v2.2c0,0.5,0,1,0.1,1.4
		H45.7z M45.6,163.5c-1.2,0-2.5,0.2-2.5,1.3c0,0.7,0.5,1,1,1c0.8,0,1.2-0.5,1.4-1c0-0.1,0.1-0.2,0.1-0.3V163.5z"/>
	<path d="M48.3,162.6c0-0.7,0-1.3,0-1.9h0.9l0,1h0c0.4-0.7,1.1-1.1,2.1-1.1c1.4,0,2.5,1.2,2.5,3c0,2.1-1.3,3.1-2.6,3.1
		c-0.8,0-1.4-0.3-1.8-0.9h0v3.2h-1V162.6z M49.3,164.1c0,0.2,0,0.3,0,0.4c0.2,0.7,0.8,1.2,1.6,1.2c1.1,0,1.8-0.9,1.8-2.2
		c0-1.2-0.6-2.2-1.7-2.2c-0.7,0-1.4,0.5-1.6,1.3c0,0.1-0.1,0.3-0.1,0.4V164.1z"/>
	<path d="M60.4,163.5c0,2.1-1.5,3.1-2.9,3.1c-1.6,0-2.8-1.2-2.8-3c0-1.9,1.3-3.1,2.9-3.1C59.2,160.6,60.4,161.8,60.4,163.5z
		 M55.8,163.6c0,1.3,0.7,2.2,1.8,2.2c1,0,1.8-0.9,1.8-2.3c0-1-0.5-2.2-1.7-2.2C56.3,161.4,55.8,162.5,55.8,163.6z"/>
	<path d="M61.7,166.5c0-0.4,0-1,0-1.5v-7h1v3.6h0c0.4-0.6,1-1.1,2-1.1c1.4,0,2.5,1.2,2.4,3c0,2.1-1.3,3.1-2.6,3.1
		c-0.8,0-1.5-0.3-1.9-1.1h0l0,1H61.7z M62.8,164.2c0,0.1,0,0.3,0,0.4c0.2,0.7,0.8,1.2,1.6,1.2c1.1,0,1.8-0.9,1.8-2.2
		c0-1.2-0.6-2.2-1.7-2.2c-0.7,0-1.4,0.5-1.6,1.3c0,0.1-0.1,0.3-0.1,0.4V164.2z"/>
	<path d="M69.7,159.1c0,0.4-0.3,0.6-0.7,0.6c-0.4,0-0.6-0.3-0.6-0.6c0-0.4,0.3-0.7,0.7-0.7C69.5,158.4,69.7,158.7,69.7,159.1z
		 M68.5,166.5v-5.8h1.1v5.8H68.5z"/>
	<path d="M71.9,163.8c0,1.4,0.9,2,2,2c0.8,0,1.2-0.1,1.6-0.3l0.2,0.8c-0.4,0.2-1,0.4-1.9,0.4c-1.8,0-2.9-1.2-2.9-2.9s1-3.1,2.7-3.1
		c1.9,0,2.4,1.7,2.4,2.7c0,0.2,0,0.4,0,0.5H71.9z M75,163c0-0.7-0.3-1.7-1.5-1.7c-1.1,0-1.5,1-1.6,1.7H75z"/>
	<path d="M82.4,160.7c0,0.4,0,0.9,0,1.6v3.4c0,1.3-0.3,2.1-0.8,2.7c-0.6,0.5-1.4,0.7-2.1,0.7c-0.7,0-1.5-0.2-1.9-0.5l0.3-0.8
		c0.4,0.2,1,0.5,1.7,0.5c1.1,0,1.9-0.6,1.9-2v-0.6h0c-0.3,0.5-0.9,1-1.8,1c-1.4,0-2.5-1.2-2.5-2.8c0-2,1.3-3.1,2.6-3.1
		c1,0,1.6,0.5,1.8,1h0l0-0.9H82.4z M81.3,163c0-0.2,0-0.3-0.1-0.5c-0.2-0.6-0.7-1.1-1.5-1.1c-1,0-1.7,0.9-1.7,2.2
		c0,1.1,0.6,2.1,1.7,2.1c0.6,0,1.2-0.4,1.5-1.1c0.1-0.2,0.1-0.4,0.1-0.6V163z"/>
	<path d="M87.3,166.5l-0.1-0.7h0c-0.3,0.5-0.9,0.9-1.8,0.9c-1.2,0-1.8-0.8-1.8-1.7c0-1.4,1.2-2.2,3.5-2.2v-0.1
		c0-0.5-0.1-1.3-1.3-1.3c-0.5,0-1.1,0.2-1.5,0.4l-0.2-0.7c0.5-0.3,1.2-0.5,1.9-0.5c1.8,0,2.2,1.2,2.2,2.4v2.2c0,0.5,0,1,0.1,1.4
		H87.3z M87.1,163.5c-1.2,0-2.5,0.2-2.5,1.3c0,0.7,0.5,1,1,1c0.8,0,1.2-0.5,1.4-1c0-0.1,0.1-0.2,0.1-0.3V163.5z"/>
	<path d="M88.4,168.2c0.5,0,0.9-0.2,1.2-0.4c0.3-0.3,0.4-0.8,0.4-2.2v-4.9H91v5.3c0,1.1-0.2,1.9-0.7,2.4c-0.5,0.5-1.2,0.7-1.8,0.7
		L88.4,168.2z M91.2,159.1c0,0.3-0.2,0.6-0.7,0.6c-0.4,0-0.6-0.3-0.6-0.6c0-0.4,0.3-0.7,0.7-0.7C90.9,158.4,91.2,158.7,91.2,159.1z"
		/>
	<path d="M92.7,161.1c0.5-0.3,1.2-0.5,1.9-0.5c1.8,0,2.2,1.2,2.2,2.4v2.2c0,0.5,0,1,0.1,1.4h-0.3c-0.2,0.2-0.5,0.7-0.5,1.2
		c0,0.4,0.2,0.6,0.6,0.6c0.2,0,0.4,0,0.6-0.1l0.2,0.6c-0.3,0.2-0.7,0.3-1,0.3c-0.6,0-1.1-0.4-1.1-1c0-0.6,0.4-1.2,0.6-1.5l-0.1-0.7
		h0c-0.3,0.5-0.9,0.9-1.8,0.9c-1.2,0-1.8-0.8-1.8-1.7c0-1.4,1.2-2.2,3.5-2.2v-0.1c0-0.5-0.1-1.3-1.3-1.3c-0.5,0-1.1,0.2-1.5,0.4
		L92.7,161.1z M95.8,163.5c-1.2,0-2.5,0.2-2.5,1.3c0,0.7,0.5,1,1,1c0.8,0,1.2-0.5,1.4-1c0-0.1,0.1-0.2,0.1-0.3V163.5z"/>
	<path d="M101.1,162.6c0-0.7,0-1.3,0-1.9h0.9l0,1h0c0.4-0.7,1.1-1.1,2.1-1.1c1.4,0,2.5,1.2,2.5,3c0,2.1-1.3,3.1-2.6,3.1
		c-0.8,0-1.4-0.3-1.8-0.9h0v3.2h-1V162.6z M102.1,164.1c0,0.2,0,0.3,0,0.4c0.2,0.7,0.8,1.2,1.6,1.2c1.1,0,1.8-0.9,1.8-2.2
		c0-1.2-0.6-2.2-1.7-2.2c-0.7,0-1.4,0.5-1.6,1.3c0,0.1-0.1,0.3-0.1,0.4V164.1z"/>
	<path d="M113.2,163.5c0,2.1-1.5,3.1-2.9,3.1c-1.6,0-2.8-1.2-2.8-3c0-1.9,1.3-3.1,2.9-3.1C112,160.6,113.2,161.8,113.2,163.5z
		 M108.6,163.6c0,1.3,0.7,2.2,1.8,2.2c1,0,1.8-0.9,1.8-2.3c0-1-0.5-2.2-1.7-2.2C109.1,161.4,108.6,162.5,108.6,163.6z"/>
	<path d="M114.8,160.7l0.8,3c0.2,0.6,0.3,1.2,0.4,1.8h0c0.1-0.6,0.3-1.2,0.5-1.8l0.9-3h0.9l0.9,2.9c0.2,0.7,0.4,1.3,0.5,1.9h0
		c0.1-0.6,0.3-1.2,0.4-1.9l0.8-2.9h1l-1.9,5.8h-1l-0.9-2.8c-0.2-0.6-0.4-1.2-0.5-1.9h0c-0.1,0.7-0.3,1.3-0.5,1.9l-0.9,2.8h-1
		l-1.8-5.8H114.8z"/>
	<path d="M128.4,163.5c0,2.1-1.5,3.1-2.9,3.1c-1.6,0-2.8-1.2-2.8-3c0-1.9,1.3-3.1,2.9-3.1C127.3,160.6,128.4,161.8,128.4,163.5z
		 M123.8,163.6c0,1.3,0.7,2.2,1.8,2.2c1,0,1.8-0.9,1.8-2.3c0-1-0.5-2.2-1.7-2.2C124.3,161.4,123.8,162.5,123.8,163.6z"/>
	<path d="M134.7,158v7c0,0.5,0,1.1,0,1.5h-0.9l0-1h0c-0.3,0.6-1,1.1-2,1.1c-1.4,0-2.5-1.2-2.5-3c0-1.9,1.2-3.1,2.6-3.1
		c0.9,0,1.5,0.4,1.8,0.9h0V158H134.7z M133.7,163.1c0-0.1,0-0.3,0-0.4c-0.2-0.7-0.7-1.2-1.5-1.2c-1.1,0-1.7,1-1.7,2.2
		c0,1.2,0.6,2.1,1.7,2.1c0.7,0,1.4-0.5,1.5-1.3c0-0.1,0-0.3,0-0.5V163.1z"/>
	<path d="M135.8,165.9l2.6-3.4c0.3-0.3,0.5-0.6,0.8-0.9v0h-3.1v-0.9h4.4l0,0.7l-2.6,3.4c-0.2,0.3-0.5,0.6-0.7,0.9v0h3.4v0.8h-4.7
		V165.9z"/>
	<path d="M142.8,159.1c0,0.4-0.3,0.6-0.7,0.6c-0.4,0-0.6-0.3-0.6-0.6c0-0.4,0.3-0.7,0.7-0.7C142.6,158.4,142.8,158.7,142.8,159.1z
		 M141.6,166.5v-5.8h1.1v5.8H141.6z"/>
	<path d="M149.7,163.5c0,2.1-1.5,3.1-2.9,3.1c-1.6,0-2.8-1.2-2.8-3c0-1.9,1.3-3.1,2.9-3.1C148.6,160.6,149.7,161.8,149.7,163.5z
		 M145.1,163.6c0,1.3,0.7,2.2,1.8,2.2c1,0,1.8-0.9,1.8-2.3c0-1-0.5-2.2-1.7-2.2C145.6,161.4,145.1,162.5,145.1,163.6z"/>
	<path d="M151,162.3c0-0.6,0-1.1,0-1.6h0.9l0,0.9h0c0.3-0.6,0.9-1.1,1.8-1.1c0.8,0,1.4,0.5,1.6,1.2h0c0.2-0.3,0.4-0.6,0.6-0.8
		c0.3-0.3,0.7-0.4,1.3-0.4c0.8,0,1.9,0.5,1.9,2.5v3.4h-1v-3.3c0-1.1-0.4-1.8-1.3-1.8c-0.6,0-1.1,0.4-1.2,1c0,0.1-0.1,0.3-0.1,0.5
		v3.6h-1V163c0-0.9-0.4-1.6-1.2-1.6c-0.7,0-1.1,0.5-1.3,1.1c-0.1,0.2-0.1,0.3-0.1,0.5v3.5h-1V162.3z"/>
</g>
<g>
	<path d="M28.9,93.5c0.5-0.1,1.2-0.2,2-0.2c1,0,1.8,0.2,2.3,0.7c0.4,0.4,0.7,1,0.7,1.7c0,0.7-0.2,1.3-0.6,1.7
		c-0.6,0.6-1.5,0.9-2.5,0.9c-0.3,0-0.6,0-0.8-0.1v3.2h-1V93.5z M30,97.4c0.2,0.1,0.5,0.1,0.9,0.1c1.3,0,2-0.6,2-1.7
		c0-1.1-0.8-1.6-1.9-1.6c-0.5,0-0.8,0-1,0.1V97.4z"/>
	<path d="M40.2,98.5c0,2.1-1.5,3.1-2.9,3.1c-1.6,0-2.8-1.2-2.8-3c0-1.9,1.3-3.1,2.9-3.1C39.1,95.6,40.2,96.8,40.2,98.5z M35.6,98.6
		c0,1.3,0.7,2.2,1.8,2.2c1,0,1.8-0.9,1.8-2.3c0-1-0.5-2.2-1.7-2.2C36.1,96.4,35.6,97.5,35.6,98.6z"/>
	<path d="M45.7,101.3c-0.3,0.1-0.9,0.3-1.7,0.3c-1.8,0-2.9-1.2-2.9-3c0-1.8,1.2-3.1,3.1-3.1c0.6,0,1.2,0.2,1.5,0.3l-0.2,0.8
		c-0.3-0.1-0.6-0.3-1.2-0.3c-1.3,0-2.1,1-2.1,2.2c0,1.3,0.9,2.2,2,2.2c0.6,0,1-0.2,1.3-0.3L45.7,101.3z"/>
	<path d="M46.9,93H48v3.6h0c0.2-0.3,0.4-0.6,0.8-0.7c0.3-0.2,0.7-0.3,1.1-0.3c0.8,0,2,0.5,2,2.5v3.5h-1.1v-3.3
		c0-0.9-0.3-1.7-1.3-1.7c-0.7,0-1.2,0.5-1.4,1.1C48,97.6,48,97.8,48,98v3.5h-1.1V93z"/>
	<path d="M53.6,101.5V98l-0.8,0.7v-0.8l0.8-0.7V93h1.1v3.4l0.9-0.7v0.8l-0.9,0.7v4.3H53.6z"/>
	<path d="M59.7,101.5l-0.1-0.7h0c-0.3,0.5-0.9,0.9-1.8,0.9c-1.2,0-1.8-0.8-1.8-1.7c0-1.4,1.2-2.2,3.5-2.2v-0.1
		c0-0.5-0.1-1.3-1.3-1.3c-0.5,0-1.1,0.2-1.5,0.4l-0.2-0.7c0.5-0.3,1.2-0.5,1.9-0.5c1.8,0,2.2,1.2,2.2,2.4v2.2c0,0.5,0,1,0.1,1.4
		H59.7z M59.5,98.5c-1.2,0-2.5,0.2-2.5,1.3c0,0.7,0.5,1,1,1c0.8,0,1.2-0.5,1.4-1c0-0.1,0.1-0.2,0.1-0.3V98.5z"/>
	<path d="M62.3,97.3c0-0.6,0-1.1,0-1.6h0.9l0.1,1h0c0.3-0.6,1-1.1,1.9-1.1c0.8,0,2.1,0.5,2.1,2.5v3.5h-1.1v-3.3
		c0-0.9-0.3-1.7-1.3-1.7c-0.7,0-1.2,0.5-1.4,1.1c0,0.1-0.1,0.3-0.1,0.5v3.5h-1.1V97.3z"/>
	<path d="M70.1,94.1c0,0.4-0.3,0.6-0.7,0.6c-0.4,0-0.6-0.3-0.6-0.6c0-0.4,0.3-0.7,0.7-0.7C69.9,93.4,70.1,93.7,70.1,94.1z
		 M68.9,101.5v-5.8H70v5.8H68.9z"/>
	<path d="M75,101.5l-0.1-0.7h0c-0.3,0.5-0.9,0.9-1.8,0.9c-1.2,0-1.8-0.8-1.8-1.7c0-1.4,1.2-2.2,3.5-2.2v-0.1c0-0.5-0.1-1.3-1.3-1.3
		c-0.5,0-1.1,0.2-1.5,0.4l-0.2-0.7c0.5-0.3,1.2-0.5,1.9-0.5c1.8,0,2.2,1.2,2.2,2.4v2.2c0,0.5,0,1,0.1,1.4H75z M74.8,98.5
		c-1.2,0-2.5,0.2-2.5,1.3c0,0.7,0.5,1,1,1c0.8,0,1.2-0.5,1.4-1c0-0.1,0.1-0.2,0.1-0.3V98.5z"/>
	<path d="M76.1,103.2c0.5,0,0.9-0.2,1.2-0.4c0.3-0.3,0.4-0.8,0.4-2.2v-4.9h1.1v5.3c0,1.1-0.2,1.9-0.7,2.4c-0.5,0.5-1.2,0.7-1.8,0.7
		L76.1,103.2z M78.8,94.1c0,0.3-0.2,0.6-0.7,0.6c-0.4,0-0.6-0.3-0.6-0.6c0-0.4,0.3-0.7,0.7-0.7C78.6,93.4,78.8,93.7,78.8,94.1z"/>
	<path d="M80.4,96.1c0.5-0.3,1.2-0.5,1.9-0.5c1.8,0,2.2,1.2,2.2,2.4v2.2c0,0.5,0,1,0.1,1.4h-0.3c-0.2,0.2-0.5,0.7-0.5,1.2
		c0,0.4,0.2,0.6,0.6,0.6c0.2,0,0.4,0,0.6-0.1l0.2,0.6c-0.3,0.2-0.7,0.3-1,0.3c-0.6,0-1.1-0.4-1.1-1c0-0.6,0.4-1.2,0.6-1.5l-0.1-0.7
		h0c-0.3,0.5-0.9,0.9-1.8,0.9c-1.2,0-1.8-0.8-1.8-1.7c0-1.4,1.2-2.2,3.5-2.2v-0.1c0-0.5-0.1-1.3-1.3-1.3c-0.5,0-1.1,0.2-1.5,0.4
		L80.4,96.1z M83.5,98.5c-1.2,0-2.5,0.2-2.5,1.3c0,0.7,0.5,1,1,1c0.8,0,1.2-0.5,1.4-1c0-0.1,0.1-0.2,0.1-0.3V98.5z"/>
	<path d="M93.8,93v7c0,0.5,0,1.1,0,1.5h-0.9l0-1h0c-0.3,0.6-1,1.1-2,1.1c-1.4,0-2.5-1.2-2.5-3c0-1.9,1.2-3.1,2.6-3.1
		c0.9,0,1.5,0.4,1.8,0.9h0V93H93.8z M92.7,98.1c0-0.1,0-0.3,0-0.4c-0.2-0.7-0.7-1.2-1.5-1.2c-1.1,0-1.7,1-1.7,2.2
		c0,1.2,0.6,2.1,1.7,2.1c0.7,0,1.4-0.5,1.5-1.3c0-0.1,0-0.3,0-0.5V98.1z"/>
	<path d="M96,95.7l0.8,3c0.2,0.6,0.3,1.2,0.4,1.8h0c0.1-0.6,0.3-1.2,0.5-1.8l0.9-3h0.9l0.9,2.9c0.2,0.7,0.4,1.3,0.5,1.9h0
		c0.1-0.6,0.3-1.2,0.4-1.9l0.8-2.9h1l-1.9,5.8h-1l-0.9-2.8c-0.2-0.6-0.4-1.2-0.5-1.9h0c-0.1,0.7-0.3,1.3-0.5,1.9l-0.9,2.8h-1
		l-1.8-5.8H96z"/>
	<path d="M109.2,99.9c0,0.6,0,1.1,0,1.6h-0.9l-0.1-0.9h0c-0.3,0.5-0.9,1.1-1.9,1.1c-0.9,0-2-0.5-2-2.5v-3.4h1.1v3.2
		c0,1.1,0.3,1.8,1.3,1.8c0.7,0,1.2-0.5,1.4-1c0.1-0.2,0.1-0.3,0.1-0.5v-3.6h1.1V99.9z"/>
	<path d="M112.3,94v1.7h1.5v0.8h-1.5v3.1c0,0.7,0.2,1.1,0.8,1.1c0.3,0,0.5,0,0.6-0.1l0,0.8c-0.2,0.1-0.5,0.1-0.9,0.1
		c-0.5,0-0.9-0.2-1.1-0.4c-0.3-0.3-0.4-0.8-0.4-1.5v-3.2h-0.9v-0.8h0.9v-1.4L112.3,94z"/>
	<path d="M115,93h1.1v8.5H115V93z"/>
	<path d="M118.4,98.8c0,1.4,0.9,2,2,2c0.8,0,1.2-0.1,1.6-0.3l0.2,0.8c-0.4,0.2-1,0.4-1.9,0.4c-1.8,0-2.9-1.2-2.9-2.9s1-3.1,2.7-3.1
		c1.9,0,2.4,1.7,2.4,2.7c0,0.2,0,0.4,0,0.5H118.4z M121.5,98c0-0.7-0.3-1.7-1.5-1.7c-1.1,0-1.5,1-1.6,1.7H121.5z"/>
	<path d="M123.8,97.3c0-0.6,0-1.1,0-1.6h0.9l0.1,1h0c0.3-0.6,1-1.1,1.9-1.1c0.8,0,2.1,0.5,2.1,2.5v3.5h-1.1v-3.3
		c0-0.9-0.3-1.7-1.3-1.7c-0.7,0-1.2,0.5-1.4,1.1c0,0.1-0.1,0.3-0.1,0.5v3.5h-1.1V97.3z"/>
	<path d="M131,98.8c0,1.4,0.9,2,2,2c0.8,0,1.2-0.1,1.6-0.3l0.2,0.8c-0.4,0.2-1,0.4-1.9,0.4c-1.8,0-2.9-1.2-2.9-2.9s1-3.1,2.7-3.1
		c1.9,0,2.4,1.7,2.4,2.7c0,0.2,0,0.4,0,0.5H131z M134.1,98c0-0.7-0.3-1.7-1.5-1.7c-1.1,0-1.5,1-1.6,1.7H134.1z"/>
	<path d="M137.5,98.4L137.5,98.4c0.2-0.2,0.4-0.5,0.5-0.7l1.7-2h1.3l-2.2,2.4l2.6,3.4h-1.3l-2-2.8l-0.5,0.6v2.2h-1V93h1V98.4z"/>
	<path d="M145.1,95.7l0.8,3c0.2,0.6,0.3,1.2,0.4,1.8h0c0.1-0.6,0.3-1.2,0.5-1.8l0.9-3h0.9l0.9,2.9c0.2,0.7,0.4,1.3,0.5,1.9h0
		c0.1-0.6,0.3-1.2,0.4-1.9l0.8-2.9h1l-1.9,5.8h-1l-0.9-2.8c-0.2-0.6-0.4-1.2-0.5-1.9h0c-0.1,0.7-0.3,1.3-0.5,1.9l-0.9,2.8h-1
		l-1.8-5.8H145.1z"/>
	<path d="M157.3,103.7c-0.3,0.2-0.6,0.3-1,0.3c-0.6,0-1.1-0.3-1.1-0.9c0-0.6,0.5-1.1,0.9-1.4v0c-0.1,0-0.2,0-0.3,0
		c-1.8,0-2.8-1.2-2.8-2.9c0-1.8,1-3.1,2.7-3.1c1.9,0,2.4,1.7,2.4,2.7c0,0.2,0,0.4,0,0.5h-4.1c0,1.4,0.9,2,2,2c0.8,0,1.2-0.1,1.6-0.3
		l0.2,0.8c-0.2,0.1-0.4,0.2-0.6,0.2c-0.5,0.2-1.1,0.8-1.1,1.3c0,0.3,0.2,0.5,0.5,0.5c0.2,0,0.4,0,0.6-0.1L157.3,103.7z M157,98
		c0-0.7-0.3-1.7-1.5-1.7c-1.1,0-1.5,1-1.6,1.7H157z"/>
	<path d="M164.4,95.7c0,0.4,0,0.9,0,1.6v3.4c0,1.3-0.3,2.1-0.8,2.7c-0.6,0.5-1.4,0.7-2.1,0.7c-0.7,0-1.5-0.2-1.9-0.5l0.3-0.8
		c0.4,0.2,1,0.5,1.7,0.5c1.1,0,1.9-0.6,1.9-2v-0.6h0c-0.3,0.5-0.9,1-1.8,1c-1.4,0-2.5-1.2-2.5-2.8c0-2,1.3-3.1,2.6-3.1
		c1,0,1.6,0.5,1.8,1h0l0-0.9H164.4z M163.3,98c0-0.2,0-0.3-0.1-0.5c-0.2-0.6-0.7-1.1-1.5-1.1c-1,0-1.7,0.9-1.7,2.2
		c0,1.1,0.6,2.1,1.7,2.1c0.6,0,1.2-0.4,1.5-1.1c0.1-0.2,0.1-0.4,0.1-0.6V98z"/>
	<path d="M166.1,93h1.1v8.5h-1.1V93z"/>
	<path d="M172.1,101.5l-0.1-0.7h0c-0.3,0.5-0.9,0.9-1.8,0.9c-1.2,0-1.8-0.8-1.8-1.7c0-1.4,1.2-2.2,3.5-2.2v-0.1
		c0-0.5-0.1-1.3-1.3-1.3c-0.5,0-1.1,0.2-1.5,0.4l-0.2-0.7c0.5-0.3,1.2-0.5,1.9-0.5c1.8,0,2.2,1.2,2.2,2.4v2.2c0,0.5,0,1,0.1,1.4
		H172.1z M172,98.5c-1.2,0-2.5,0.2-2.5,1.3c0,0.7,0.5,1,1,1c0.8,0,1.2-0.5,1.4-1c0-0.1,0.1-0.2,0.1-0.3V98.5z"/>
</g>
<g>
	<path d="M247.7,151.4l4.5-6.6v0H248v-0.9h5.5v0.6l-4.5,6.5v0h4.5v0.9h-5.9V151.4z"/>
	<path d="M254.8,152v-8.1h1.1l2.6,4.1c0.6,0.9,1.1,1.8,1.5,2.6l0,0c-0.1-1.1-0.1-2.1-0.1-3.3v-3.4h1v8.1h-1.1l-2.6-4.1
		c-0.6-0.9-1.1-1.8-1.5-2.7l0,0c0.1,1,0.1,2,0.1,3.3v3.5H254.8z"/>
	<path d="M264,149.5l-0.8,2.5h-1.1l2.7-8.1h1.3l2.8,8.1h-1.1l-0.9-2.5H264z M266.7,148.6l-0.8-2.3c-0.2-0.5-0.3-1-0.4-1.5h0
		c-0.1,0.5-0.3,1-0.4,1.5l-0.8,2.3H266.7z"/>
	<path d="M275.6,151.7c-0.4,0.2-1.2,0.4-2.1,0.4c-2.3,0-4-1.4-4-4.1c0-2.5,1.7-4.2,4.2-4.2c1,0,1.6,0.2,1.9,0.4l-0.3,0.9
		c-0.4-0.2-1-0.3-1.6-0.3c-1.9,0-3.2,1.2-3.2,3.3c0,2,1.1,3.3,3.1,3.3c0.6,0,1.3-0.1,1.7-0.3L275.6,151.7z"/>
	<path d="M276.3,151.4l4.5-6.6v0h-4.1v-0.9h5.5v0.6l-4.5,6.5v0h4.5v0.9h-5.9V151.4z"/>
	<path d="M287.7,148.2h-3.1v2.9h3.5v0.9h-4.5v-8.1h4.4v0.9h-3.3v2.6h3.1V148.2z"/>
	<path d="M289.4,152v-8.1h1.1l2.6,4.1c0.6,0.9,1.1,1.8,1.5,2.6l0,0c-0.1-1.1-0.1-2.1-0.1-3.3v-3.4h1v8.1h-1.1l-2.6-4.1
		c-0.6-0.9-1.1-1.8-1.5-2.7l0,0c0.1,1,0.1,2,0.1,3.3v3.5H289.4z"/>
	<path d="M298.3,143.9v8.1h-1v-8.1H298.3z"/>
	<path d="M304.4,148.2h-3.1v2.9h3.5v0.9h-4.5v-8.1h4.4v0.9h-3.3v2.6h3.1V148.2z"/>
	<path d="M258.6,158.4c0.5-0.1,1.3-0.2,2-0.2c1.1,0,1.8,0.2,2.3,0.7c0.4,0.4,0.6,0.9,0.6,1.5c0,1.1-0.7,1.8-1.5,2.1v0
		c0.6,0.2,1,0.8,1.2,1.6c0.3,1.1,0.5,1.9,0.6,2.2h-1.1c-0.1-0.2-0.3-0.9-0.5-1.9c-0.2-1.1-0.7-1.5-1.6-1.6h-1v3.5h-1V158.4z
		 M259.6,162.1h1.1c1.1,0,1.8-0.6,1.8-1.5c0-1-0.8-1.5-1.9-1.5c-0.5,0-0.9,0-1,0.1V162.1z"/>
	<path d="M272,162.3c0,2.8-1.7,4.3-3.8,4.3c-2.1,0-3.6-1.7-3.6-4.1c0-2.6,1.6-4.2,3.8-4.2C270.6,158.2,272,159.9,272,162.3z
		 M265.7,162.4c0,1.7,0.9,3.3,2.6,3.3c1.7,0,2.6-1.5,2.6-3.4c0-1.6-0.8-3.3-2.6-3.3C266.6,159,265.7,160.6,265.7,162.4z"/>
	<path d="M273.2,165.1c0.5,0.3,1.2,0.5,1.9,0.5c1.1,0,1.7-0.6,1.7-1.4c0-0.8-0.4-1.2-1.5-1.6c-1.3-0.5-2.1-1.2-2.1-2.3
		c0-1.3,1-2.2,2.6-2.2c0.8,0,1.4,0.2,1.8,0.4l-0.3,0.9c-0.3-0.1-0.8-0.4-1.5-0.4c-1.1,0-1.5,0.7-1.5,1.2c0,0.8,0.5,1.1,1.6,1.6
		c1.4,0.5,2.1,1.2,2.1,2.4c0,1.2-0.9,2.3-2.8,2.3c-0.8,0-1.6-0.2-2.1-0.5L273.2,165.1z M277.3,156.5l-1.5,1.4h-0.9l1.1-1.4H277.3z"
		/>
	<path d="M279.3,158.3h1v7.2h3.5v0.9h-4.5V158.3z"/>
	<path d="M286,158.3v8.1h-1v-8.1H286z"/>
	<path d="M287.8,166.4v-8.1h1.1l2.6,4.1c0.6,0.9,1.1,1.8,1.5,2.6l0,0c-0.1-1.1-0.1-2.1-0.1-3.3v-3.4h1v8.1h-1.1l-2.6-4.1
		c-0.6-0.9-1.1-1.8-1.5-2.7l0,0c0.1,1,0.1,2,0.1,3.3v3.5H287.8z"/>
	<path d="M231.1,176.7c0,2.8-1.7,4.3-3.8,4.3c-2.1,0-3.6-1.7-3.6-4.1c0-2.6,1.6-4.2,3.8-4.2C229.7,172.6,231.1,174.3,231.1,176.7z
		 M224.9,176.8c0,1.7,0.9,3.3,2.6,3.3c1.7,0,2.6-1.5,2.6-3.4c0-1.6-0.8-3.3-2.6-3.3C225.7,173.4,224.9,175,224.9,176.8z"/>
	<path d="M232.5,172.7h1v3.9h0c0.2-0.3,0.4-0.6,0.6-0.9l2.5-3h1.3l-2.9,3.4l3.2,4.7H237l-2.7-4l-0.8,0.9v3.1h-1V172.7z"/>
	<path d="M239,172.8c0.5-0.1,1.3-0.2,2-0.2c1.1,0,1.8,0.2,2.3,0.7c0.4,0.4,0.6,0.9,0.6,1.5c0,1.1-0.7,1.8-1.5,2.1v0
		c0.6,0.2,1,0.8,1.2,1.6c0.3,1.1,0.5,1.9,0.6,2.2h-1.1c-0.1-0.2-0.3-0.9-0.5-1.9c-0.2-1.1-0.7-1.5-1.6-1.6h-1v3.5h-1V172.8z
		 M240,176.5h1.1c1.1,0,1.8-0.6,1.8-1.5c0-1-0.8-1.5-1.9-1.5c-0.5,0-0.9,0-1,0.1V176.5z"/>
	<path d="M247.1,180.8v-3.4l-2.6-4.7h1.2l1.1,2.2c0.3,0.6,0.6,1.1,0.8,1.7h0c0.2-0.5,0.5-1.1,0.8-1.7l1.2-2.2h1.2l-2.7,4.6v3.4
		H247.1z"/>
	<path d="M253.8,173.6h-2.5v-0.9h6v0.9h-2.5v7.2h-1.1V173.6z"/>
	<path d="M264.8,176.7c0,2.8-1.7,4.3-3.8,4.3c-2.1,0-3.6-1.7-3.6-4.1c0-2.6,1.6-4.2,3.8-4.2C263.3,172.6,264.8,174.3,264.8,176.7z
		 M258.5,176.8c0,1.7,0.9,3.3,2.6,3.3c1.7,0,2.6-1.5,2.6-3.4c0-1.6-0.8-3.3-2.6-3.3C259.4,173.4,258.5,175,258.5,176.8z"/>
	<path d="M266.1,180.8v-8.1h1.1l2.6,4.1c0.6,0.9,1.1,1.8,1.5,2.6l0,0c-0.1-1.1-0.1-2.1-0.1-3.3v-3.4h1v8.1h-1.1l-2.6-4.1
		c-0.6-0.9-1.1-1.8-1.5-2.7l0,0c0.1,1,0.1,2,0.1,3.3v3.5H266.1z"/>
	<path d="M275.3,178.3l-0.8,2.5h-1.1l2.7-8.1h1.3l2.8,8.1h-1.1l-0.9-2.5H275.3z M278,177.4l-0.8-2.3c-0.2-0.5-0.3-1-0.4-1.5h0
		c-0.1,0.5-0.3,1-0.4,1.5l-0.8,2.3H278z"/>
	<path d="M281.2,179.5c0.5,0.3,1.2,0.5,1.9,0.5c1.1,0,1.7-0.6,1.7-1.4c0-0.8-0.4-1.2-1.5-1.6c-1.3-0.5-2.1-1.2-2.1-2.3
		c0-1.3,1-2.2,2.6-2.2c0.8,0,1.4,0.2,1.8,0.4l-0.3,0.9c-0.3-0.1-0.8-0.4-1.5-0.4c-1.1,0-1.5,0.7-1.5,1.2c0,0.8,0.5,1.1,1.6,1.6
		c1.4,0.5,2.1,1.2,2.1,2.4c0,1.2-0.9,2.3-2.8,2.3c-0.8,0-1.6-0.2-2.1-0.5L281.2,179.5z"/>
	<path d="M288.3,172.7v8.1h-1v-8.1H288.3z"/>
	<path d="M294.3,177h-3.1v2.9h3.5v0.9h-4.5v-8.1h4.4v0.9h-3.3v2.6h3.1V177z"/>
	<path d="M296.1,180.8v-8.1h1.1l2.6,4.1c0.6,0.9,1.1,1.8,1.5,2.6l0,0c-0.1-1.1-0.1-2.1-0.1-3.3v-3.4h1v8.1h-1.1l-2.6-4.1
		c-0.6-0.9-1.1-1.8-1.5-2.7l0,0c0.1,1,0.1,2,0.1,3.3v3.5H296.1z"/>
	<path d="M303.9,180.8v-8.1h1.1l2.6,4.1c0.6,0.9,1.1,1.8,1.5,2.6l0,0c-0.1-1.1-0.1-2.1-0.1-3.3v-3.4h1v8.1H309l-2.6-4.1
		c-0.6-0.9-1.1-1.8-1.5-2.7l0,0c0.1,1,0.1,2,0.1,3.3v3.5H303.9z"/>
	<path d="M313.6,180.8v-3.4l-2.6-4.7h1.2l1.1,2.2c0.3,0.6,0.6,1.1,0.8,1.7h0c0.2-0.5,0.5-1.1,0.8-1.7l1.2-2.2h1.2l-2.7,4.6v3.4
		H313.6z"/>
	<path d="M323.5,180.5c-0.4,0.2-1.2,0.4-2.1,0.4c-2.3,0-4-1.4-4-4.1c0-2.5,1.7-4.2,4.2-4.2c1,0,1.6,0.2,1.9,0.4l-0.3,0.9
		c-0.4-0.2-1-0.3-1.6-0.3c-1.9,0-3.2,1.2-3.2,3.3c0,2,1.1,3.3,3.1,3.3c0.6,0,1.3-0.1,1.7-0.3L323.5,180.5z"/>
	<path d="M325.8,172.7v3.4h3.9v-3.4h1.1v8.1h-1.1V177h-3.9v3.8h-1v-8.1H325.8z"/>
</g>
<g>
</g>
<g>
</g>
<g>
</g>
<g>
</g>
<g>
</g>
<g>
</g>
<g>
</g>
<g>
</g>
<g>
</g>
<g>
</g>
<g>
</g>
<g>
</g>
<g>
</g>
<g>
</g>
<g>
</g>
</svg>
