<svg xmlns="http://www.w3.org/2000/svg" viewBox="0 0 579.23 793.66"><title>Asset 1</title><path d="M223.64,633.75l-15.08,13.89,12-20.12c-9.44-17.12-24.89-31.93-24.89-31.93s-32,30.71-32,54.84S178,683,195.65,683s32-8.42,32-32.56C227.7,645.06,226.11,639.36,223.64,633.75Z" style="fill:#f3f3f3"/><path d="M204.68,648.39v1.19c-.07,13.83-2.41,24.62-7,32.21-.07.11-.14.22-.2.33l-.51-.31-.49-.31c5.07-8.2,6.87-19.8,6.93-31.86,0-.39,0-.78,0-1.17,0-5.11-.33-10.27-.83-15.29l-.12-1.18c-.69-6.62-1.69-12.94-2.72-18.44-.07-.39-.15-.78-.22-1.16-1.78-9.29-3.58-16-4-17.51a2.13,2.13,0,0,0-.08-.31l.56-.16h0l.56-.16s.11.36.27,1c.63,2.33,2.27,8.66,3.88,17,.07.38.15.77.22,1.16.83,4.46,1.65,9.44,2.3,14.67.16,1.31.31,2.61.44,3.88,0,.4.09.79.12,1.18Q204.65,641.29,204.68,648.39Z" style="fill:#fff"/><path d="M200.75,612.25l-1.2.15c-1.11.11-2.21.17-3.32.17a31.69,31.69,0,0,1-13.67-3.08l-.74.94a32.81,32.81,0,0,0,14.41,3.32,32.3,32.3,0,0,0,3.54-.19q.6-.06,1.2-.15a32.6,32.6,0,0,0,9.39-2.85l-.74-.95A31.61,31.61,0,0,1,200.75,612.25Z" style="fill:#fff"/><path d="M203.71,632c-.41,0-.81,0-1.22,0h-.37A31.77,31.77,0,0,1,176,618.38l-.7,1a33,33,0,0,0,26.78,13.75h.49l1.22,0A32.85,32.85,0,0,0,221.3,627c-.19-.35-.38-.7-.58-1A31.53,31.53,0,0,1,203.71,632Z" style="fill:#fff"/><path d="M204.68,648.39l-1.24.08-1.32,0a31.87,31.87,0,0,1-30.55-22.93c-.26.48-.53.95-.78,1.43a33,33,0,0,0,31.33,22.67c.44,0,.88,0,1.31,0s.83,0,1.25-.06A32.92,32.92,0,0,0,226.41,639c-.13-.43-.27-.86-.41-1.3A31.72,31.72,0,0,1,204.68,648.39Z" style="fill:#fff"/><path d="M578.39,150.68H.84a.84.84,0,1,1,0-1.68H578.39a.84.84,0,1,1,0,1.68Z" style="fill:#cacaca"/><circle cx="19.7" cy="129.72" r="9.22" style="fill:#403e56"/><circle cx="51.56" cy="129.72" r="9.22" style="fill:#403e56"/><circle cx="83.41" cy="129.72" r="9.22" style="fill:#403e56"/><path d="M559.31,126.14H536.67a1.68,1.68,0,0,1,0-3.35h22.64a1.68,1.68,0,1,1,0,3.35Z" style="fill:#403e56"/><path d="M559.31,132.43H536.67a1.68,1.68,0,0,1,0-3.35h22.64a1.68,1.68,0,1,1,0,3.35Z" style="fill:#403e56"/><path d="M559.31,138.72H536.67a1.68,1.68,0,0,1,0-3.36h22.64a1.68,1.68,0,0,1,0,3.36Z" style="fill:#403e56"/><rect x="17.4" y="188.59" width="529.28" height="280.42" style="fill:#f1f0f0"/><path d="M546.68,241.08v-2.75h-103V188.59H440.9v49.74h-103V188.59h-2.75v49.74h-103V188.59h-2.75v49.74h-103V188.59h-2.75v49.74H17.4v2.75H123.56V296H17.4v2.75H123.56v55H17.4v2.75H123.56v54.94H17.4v2.75H123.56V469h2.75V414.17h103V469h2.75V414.17h103V469h2.75V414.17h103V469h2.75V414.17h103v-2.75h-103V356.48h103v-2.75h-103v-55h103V296h-103V241.08ZM229.34,411.42h-103V356.48h103Zm0-57.69h-103v-55h103Zm0-57.7h-103V241.08h103ZM335.12,411.42h-103V356.48h103Zm0-57.69h-103v-55h103Zm0-57.7h-103V241.08h103ZM440.9,411.42h-103V356.48h103Zm0-57.69h-103v-55h103Zm0-57.7h-103V241.08h103Z" style="fill:#fff"/><rect x="146.8" y="254.44" width="35.41" height="34.28" style="fill:#cacaca"/><rect x="472.8" y="365.44" width="35.41" height="34.28" style="fill:#cacaca"/><rect x="157.8" y="422.44" width="35.41" height="34.28" style="fill:#cacaca"/><rect x="168.27" y="248.08" width="35.41" height="34.28" style="fill:#6466af"/><polygon points="370.13 390.58 412.15 353.14 424.54 359.28 374.15 412.14 370.13 390.58" style="fill:#f8b4b6"/><circle cx="417.68" cy="356.01" r="10" style="fill:#f8b4b6"/><polygon points="330.8 672.36 320.85 672.36 316.12 634.01 330.8 634.01 330.8 672.36" style="fill:#f8b4b6"/><path d="M333.33,682H301.27v-.4a12.48,12.48,0,0,1,12.48-12.48h19.58Z" style="fill:#302e41"/><polygon points="294.8 672.36 284.85 672.36 280.12 634.01 294.8 634.01 294.8 672.36" style="fill:#f8b4b6"/><path d="M297.33,682H265.27v-.4a12.48,12.48,0,0,1,12.48-12.48h19.58Z" style="fill:#302e41"/><path d="M339.15,453.14s25-2,17,42S331.58,659.5,331.58,659.5l-15,2.07L307.68,501,301,661.57l-19.11-2.07-18.7-172.36s-6-13.86,0-23.43S339.15,453.14,339.15,453.14Z" style="fill:#302e41"/><path d="M323.15,344.14l6.94-3.72s17.1-1.46,24.08,18.63l18.51,28,30-26,13,9-37.81,45.12-15.72,2-34-44Z" style="fill:#403e56"/><path d="M298,263c-28.52,0-36.5,31.32-36.5,49s16.34,15,36.5,15c8.65,0,16.6.49,22.85-.35l3-7.35,2.42,6.09c5.14-1.88,8.22-5.72,8.22-13.39C334.46,294.33,327.46,263,298,263Z" style="fill:#302e41"/><circle cx="297.84" cy="302.42" r="24.56" style="fill:#f8b4b6"/><path d="M269.46,300h9.71l4.29-12,.86,12H289l2.5-7,.5,7h34.5a26,26,0,0,0-26-26h-5A26,26,0,0,0,269.46,300Z" style="fill:#302e41"/><rect x="398.27" y="318.08" width="35.41" height="34.28" style="fill:#6466af"/><path d="M346.92,444.09c-3.77.05-15.13-67.35-15.13-67.35l-1.7-36.32L317.68,340v-.82A6.18,6.18,0,0,0,311.5,333H287.86a6.17,6.17,0,0,0-6.16,5.79l-9.74-.33L255.11,392s15.53,49.76,8,71.69c0,0,73,6.27,87-7.65C350.16,456.06,350.69,444,346.92,444.09Z" style="fill:#403e56"/><path d="M276.15,345.14,272,338.47s-13.61-3.37-19.21,5.65S230.68,402,230.68,402l17,6L267,381Z" style="fill:#403e56"/><rect x="283.27" y="380.08" width="35.41" height="34.28" style="fill:#6466af"/><path d="M256.1,392.47l-12.32-1.3h0a12.09,12.09,0,0,0,5.81,16.07,12.32,12.32,0,0,0,2.77.91l48.74,9.73L296,402.22Z" style="fill:#f8b4b6"/><circle cx="301.25" cy="408.06" r="10" style="fill:#f8b4b6"/><path d="M288.77,418.36l-37.14-8.48A16.07,16.07,0,0,1,240,399.24l-1.5-4.63,9.64-7.59,44.15,12.34Z" style="fill:#403e56"/><path d="M497.44,684h-381a1,1,0,0,1,0-2h381a1,1,0,1,1,0,2Z" style="fill:#cacaca"/><path d="M7.42,1.8a36.25,36.25,0,0,1,6.68-.56c3.73,0,6.13.68,7.81,2.2A6.72,6.72,0,0,1,24,8.57,7.1,7.1,0,0,1,19,15.46v.12c2.08.72,3.32,2.64,4,5.45A43.57,43.57,0,0,0,25,28.43H21.39A34.93,34.93,0,0,1,19.59,22c-.8-3.73-2.24-5.13-5.41-5.25H10.9V28.43H7.42ZM10.9,14.1h3.56c3.73,0,6.09-2,6.09-5.13,0-3.48-2.52-5-6.21-5.05a14.16,14.16,0,0,0-3.44.33Z" style="fill:#231f20"/><path d="M46.54,18.58c0,7.17-5,10.3-9.65,10.3-5.25,0-9.29-3.85-9.29-10,0-6.48,4.24-10.29,9.61-10.29C42.78,8.61,46.54,12.66,46.54,18.58Zm-15.38.2c0,4.25,2.45,7.45,5.89,7.45s5.89-3.16,5.89-7.53c0-3.28-1.65-7.45-5.81-7.45S31.16,15.1,31.16,18.78Z" style="fill:#231f20"/><path d="M48.5,26.39,57.27,15c.84-1,1.64-2,2.53-3v-.08H49.3V9.05H64.08l0,2.2L55.39,22.51c-.8,1.08-1.6,2-2.48,3v.08H64.24v2.8H48.5Z" style="fill:#231f20"/><path d="M70.21,9.05l2.56,9.85c.56,2.17,1.08,4.17,1.44,6.17h.12c.44-2,1.08-4,1.72-6.13l3.17-9.89h3l3,9.69c.73,2.33,1.29,4.37,1.73,6.33H87a58.92,58.92,0,0,1,1.48-6.29l2.76-9.73h3.49L88.51,28.43h-3.2l-3-9.25a64.52,64.52,0,0,1-1.72-6.36h-.08a57.28,57.28,0,0,1-1.76,6.4l-3.13,9.21h-3.2L66.6,9.05Z" style="fill:#231f20"/><path d="M102.2,3.6a2.18,2.18,0,0,1-4.36,0A2.14,2.14,0,0,1,100,1.4,2.09,2.09,0,0,1,102.2,3.6ZM98.28,28.43V9.05h3.52V28.43Z" style="fill:#231f20"/><path d="M107.53,10.33a12,12,0,0,1,6.37-1.72c5.92,0,7.37,4.05,7.37,7.93v7.25a26.08,26.08,0,0,0,.32,4.64h-1A7.52,7.52,0,0,0,119,32.28a1.79,1.79,0,0,0,1.92,2,4.18,4.18,0,0,0,1.85-.4l.56,1.84a5.87,5.87,0,0,1-3.33,1,3.26,3.26,0,0,1-3.56-3.4,9.66,9.66,0,0,1,1.92-5L118.1,26H118a7.22,7.22,0,0,1-5.93,2.89,5.52,5.52,0,0,1-5.92-5.57c0-4.69,4.16-7.25,11.65-7.21v-.4c0-1.6-.44-4.49-4.4-4.49a9.57,9.57,0,0,0-5,1.45Zm10.33,8.21c-3.84-.08-8.21.6-8.21,4.37A3.11,3.11,0,0,0,113,26.27,4.82,4.82,0,0,0,117.66,23a3.67,3.67,0,0,0,.2-1.12Z" style="fill:#231f20"/><path d="M124.75,26.39,133.52,15c.84-1,1.64-2,2.52-3v-.08H125.55V9.05h14.78l0,2.2-8.65,11.26c-.8,1.08-1.61,2-2.49,3v.08h11.34v2.8H124.75Z" style="fill:#231f20"/><path d="M154.82,28.43,154.54,26h-.12a7.22,7.22,0,0,1-5.92,2.89,5.53,5.53,0,0,1-5.93-5.57c0-4.69,4.16-7.25,11.65-7.21v-.4c0-1.6-.44-4.49-4.4-4.49a9.57,9.57,0,0,0-5,1.45l-.8-2.33a12,12,0,0,1,6.37-1.72c5.92,0,7.37,4.05,7.37,7.93v7.25a27.26,27.26,0,0,0,.32,4.64Zm-.52-9.89c-3.84-.08-8.21.6-8.21,4.37a3.12,3.12,0,0,0,3.33,3.36A4.82,4.82,0,0,0,154.1,23a3.67,3.67,0,0,0,.2-1.12Z" style="fill:#231f20"/><path d="M163.39,14.3c0-2,0-3.65-.16-5.25h3.13l.2,3.21h.08A7.11,7.11,0,0,1,173,8.61c2.69,0,6.85,1.6,6.85,8.25V28.43h-3.52V17.26c0-3.12-1.16-5.73-4.49-5.73a5,5,0,0,0-4.72,3.61,5.06,5.06,0,0,0-.24,1.64V28.43h-3.53Z" style="fill:#231f20"/><path d="M189.54,3.6a2.18,2.18,0,0,1-4.36,0,2.14,2.14,0,0,1,2.2-2.2A2.09,2.09,0,0,1,189.54,3.6Zm-3.92,24.83V9.05h3.52V28.43Z" style="fill:#231f20"/><path d="M197,19.38c.08,4.77,3.12,6.73,6.65,6.73a12.73,12.73,0,0,0,5.36-1l.6,2.52a15.65,15.65,0,0,1-6.44,1.21c-6,0-9.53-3.93-9.53-9.78S197,8.61,202.68,8.61c6.32,0,8,5.57,8,9.13a13.28,13.28,0,0,1-.12,1.64Zm10.33-2.52c0-2.24-.92-5.73-4.88-5.73-3.57,0-5.13,3.29-5.41,5.73Z" style="fill:#231f20"/><path d="M221.34,26.39,230.11,15c.84-1,1.64-2,2.52-3v-.08H222.14V9.05h14.78l0,2.2-8.65,11.26c-.81,1.08-1.61,2-2.49,3v.08h11.34v2.8H221.34Z" style="fill:#231f20"/><path d="M251.41,28.43,251.13,26H251a7.22,7.22,0,0,1-5.93,2.89,5.52,5.52,0,0,1-5.92-5.57c0-4.69,4.16-7.25,11.65-7.21v-.4c0-1.6-.44-4.49-4.4-4.49a9.57,9.57,0,0,0-5,1.45l-.8-2.33a12,12,0,0,1,6.37-1.72c5.92,0,7.37,4.05,7.37,7.93v7.25a27.26,27.26,0,0,0,.32,4.64Zm-.52-9.89c-3.84-.08-8.21.6-8.21,4.37A3.11,3.11,0,0,0,246,26.27,4.82,4.82,0,0,0,250.69,23a3.67,3.67,0,0,0,.2-1.12Z" style="fill:#231f20"/><path d="M276.72,0V23.43c0,1.72,0,3.68.16,5h-3.16l-.16-3.36h-.08a7.18,7.18,0,0,1-6.61,3.81c-4.69,0-8.29-4-8.29-9.86,0-6.44,4-10.41,8.69-10.41a6.49,6.49,0,0,1,5.85,3h.08V0ZM273.2,16.94a6.21,6.21,0,0,0-.16-1.48A5.2,5.2,0,0,0,268,11.37c-3.64,0-5.81,3.21-5.81,7.49,0,3.93,1.93,7.17,5.73,7.17a5.3,5.3,0,0,0,5.17-4.2,6.14,6.14,0,0,0,.16-1.53Z" style="fill:#231f20"/><path d="M293.3,28.43,293,26h-.12A7.24,7.24,0,0,1,287,28.88,5.53,5.53,0,0,1,281,23.31c0-4.69,4.17-7.25,11.66-7.21v-.4c0-1.6-.44-4.49-4.41-4.49a9.56,9.56,0,0,0-5,1.45l-.8-2.33a12,12,0,0,1,6.36-1.72c5.93,0,7.37,4.05,7.37,7.93v7.25a27.26,27.26,0,0,0,.32,4.64Zm-.52-9.89c-3.85-.08-8.21.6-8.21,4.37a3.11,3.11,0,0,0,3.32,3.36A4.82,4.82,0,0,0,292.58,23a3.67,3.67,0,0,0,.2-1.12Z" style="fill:#231f20"/><path d="M301.87,14.3c0-2,0-3.65-.16-5.25h3.12l.2,3.21h.08a7.12,7.12,0,0,1,6.41-3.65c2.68,0,6.85,1.6,6.85,8.25V28.43h-3.53V17.26c0-3.12-1.16-5.73-4.48-5.73a5.17,5.17,0,0,0-5,5.25V28.43h-3.52Z" style="fill:#231f20"/><path d="M328,3.6a2.19,2.19,0,0,1-4.37,0,2.14,2.14,0,0,1,2.2-2.2A2.09,2.09,0,0,1,328,3.6Zm-3.93,24.83V9.05h3.53V28.43Z" style="fill:#231f20"/><path d="M344.2,28.43,343.92,26h-.12a7.25,7.25,0,0,1-5.93,2.89,5.53,5.53,0,0,1-5.93-5.57c0-4.69,4.17-7.25,11.66-7.21v-.4c0-1.6-.45-4.49-4.41-4.49a9.6,9.6,0,0,0-5.05,1.45l-.8-2.33a12.05,12.05,0,0,1,6.37-1.72c5.93,0,7.37,4.05,7.37,7.93v7.25a27.26,27.26,0,0,0,.32,4.64Zm-.52-9.89c-3.85-.08-8.22.6-8.22,4.37a3.12,3.12,0,0,0,3.33,3.36A4.82,4.82,0,0,0,343.47,23a3.41,3.41,0,0,0,.21-1.12Z" style="fill:#231f20"/><path d="M8.7,57.11,11.26,67c.56,2.16,1.08,4.16,1.44,6.17h.12c.44-2,1.08-4,1.72-6.13l3.17-9.89h3l3,9.69c.72,2.32,1.28,4.36,1.72,6.33h.12A57.81,57.81,0,0,1,27,66.84l2.76-9.73h3.49L27,76.49H23.8l-3-9.25a64.72,64.72,0,0,1-1.72-6.37H19a57.47,57.47,0,0,1-1.76,6.41l-3.13,9.21h-3.2L5.09,57.11Z" style="fill:#231f20"/><path d="M40.25,66h.08c.48-.68,1.16-1.53,1.73-2.21l5.68-6.68H52l-7.49,8L53,76.49H48.74L42.06,67.2l-1.81,2v7.29H36.77V48.05h3.48Z" style="fill:#231f20"/><path d="M56.23,63.15c0-2.28,0-4.24-.16-6h3.09l.11,3.8h.17a5.81,5.81,0,0,1,5.36-4.24,3.81,3.81,0,0,1,1,.12v3.32A5.29,5.29,0,0,0,64.6,60c-2.48,0-4.24,1.88-4.72,4.52a10.15,10.15,0,0,0-.16,1.65V76.49H56.23Z" style="fill:#231f20"/><path d="M86.47,66.64c0,7.17-5,10.29-9.66,10.29-5.24,0-9.29-3.84-9.29-10,0-6.49,4.25-10.29,9.61-10.29C82.7,56.67,86.47,60.71,86.47,66.64Zm-15.38.2c0,4.24,2.44,7.45,5.88,7.45s5.89-3.17,5.89-7.53c0-3.29-1.64-7.45-5.81-7.45S71.09,63.15,71.09,66.84Zm11.17-18.1-4.89,5.72H74.85l3.53-5.72Z" style="fill:#231f20"/><path d="M95.15,51.54v5.57h5v2.68h-5V70.24c0,2.4.69,3.77,2.65,3.77a7.83,7.83,0,0,0,2-.24l.16,2.64a8.62,8.62,0,0,1-3.12.48,4.89,4.89,0,0,1-3.81-1.48c-1-1-1.36-2.77-1.36-5V59.79h-3V57.11h3V52.46Z" style="fill:#231f20"/><path d="M117.74,75.77a13,13,0,0,1-5.57,1.12c-5.84,0-9.65-4-9.65-9.89s4.09-10.29,10.42-10.29a11.77,11.77,0,0,1,4.88,1l-.8,2.72a8.16,8.16,0,0,0-4.08-.92c-4.45,0-6.85,3.28-6.85,7.33,0,4.48,2.88,7.25,6.72,7.25a10,10,0,0,0,4.33-1Z" style="fill:#231f20"/><path d="M123.59,67.44c.08,4.76,3.12,6.73,6.65,6.73a12.73,12.73,0,0,0,5.36-1l.6,2.52a15.7,15.7,0,0,1-6.45,1.2c-6,0-9.53-3.93-9.53-9.77s3.45-10.45,9.09-10.45c6.33,0,8,5.56,8,9.13a13.28,13.28,0,0,1-.12,1.64Zm10.33-2.52c0-2.25-.92-5.73-4.89-5.73-3.56,0-5.12,3.28-5.4,5.73Z" style="fill:#231f20"/><path d="M149.7,72.89a9.23,9.23,0,0,0,4.64,1.4c2.57,0,3.77-1.29,3.77-2.89s-1-2.6-3.61-3.56c-3.48-1.24-5.12-3.16-5.12-5.49,0-3.12,2.52-5.68,6.68-5.68a9.67,9.67,0,0,1,4.77,1.2L160,60.43a7.54,7.54,0,0,0-4-1.12c-2.08,0-3.24,1.2-3.24,2.64,0,1.6,1.16,2.32,3.69,3.29,3.36,1.28,5.08,3,5.08,5.84,0,3.41-2.64,5.81-7.25,5.81a11,11,0,0,1-5.44-1.32Z" style="fill:#231f20"/><path d="M170,51.66a2.08,2.08,0,0,1-2.24,2.16,2.1,2.1,0,0,1-2.13-2.16,2.15,2.15,0,0,1,2.21-2.2A2.09,2.09,0,0,1,170,51.66ZM166,76.49V57.11h3.53V76.49Z" style="fill:#231f20"/><path d="M188.46,83.74a5.53,5.53,0,0,1-3.24,1c-2.17,0-3.61-1.16-3.61-3.16s1.65-3.73,2.93-4.65v0a9.39,9.39,0,0,1-1.08,0c-5.89,0-9.46-4-9.46-9.77s3.45-10.45,9.09-10.45c6.33,0,8,5.56,8,9.13a12.87,12.87,0,0,1-.13,1.64H177.37c.08,4.76,3.12,6.73,6.65,6.73a12.73,12.73,0,0,0,5.36-1l.6,2.52a19,19,0,0,1-1.84.68c-1.56.68-3.76,2.64-3.76,4.28A1.56,1.56,0,0,0,186,82.34a5.29,5.29,0,0,0,1.88-.4Zm-.76-18.82c0-2.25-.92-5.73-4.89-5.73-3.56,0-5.12,3.28-5.4,5.73Z" style="fill:#231f20"/><path d="M208.2,51.54v5.57h5.05v2.68H208.2V70.24c0,2.4.68,3.77,2.65,3.77a7.83,7.83,0,0,0,2-.24l.16,2.64a8.62,8.62,0,0,1-3.12.48,4.89,4.89,0,0,1-3.81-1.48c-1-1-1.36-2.77-1.36-5V59.79h-3V57.11h3V52.46Z" style="fill:#231f20"/><path d="M233.43,71.2c0,2,0,3.77.16,5.29h-3.12l-.2-3.16h-.08a7.3,7.3,0,0,1-6.41,3.6c-3,0-6.69-1.68-6.69-8.49V57.11h3.53V67.84c0,3.68,1.12,6.17,4.32,6.17a5,5,0,0,0,5-5V57.11h3.52Z" style="fill:#231f20"/><path d="M243.52,51.54v5.57h5v2.68h-5V70.24c0,2.4.68,3.77,2.65,3.77a7.83,7.83,0,0,0,2-.24l.16,2.64a8.62,8.62,0,0,1-3.12.48,4.89,4.89,0,0,1-3.81-1.48c-1-1-1.36-2.77-1.36-5V59.79h-3V57.11h3V52.46Z" style="fill:#231f20"/><path d="M263.27,76.49,263,74.05h-.12a7.25,7.25,0,0,1-5.93,2.88A5.52,5.52,0,0,1,251,71.36c0-4.68,4.17-7.25,11.66-7.21v-.4c0-1.6-.45-4.48-4.41-4.48a9.71,9.71,0,0,0-5,1.44l-.8-2.32a12.05,12.05,0,0,1,6.37-1.72c5.93,0,7.37,4,7.37,7.93v7.24a27.31,27.31,0,0,0,.32,4.65Zm-.52-9.89c-3.85-.08-8.21.6-8.21,4.36a3.12,3.12,0,0,0,3.32,3.37,4.82,4.82,0,0,0,4.68-3.25,3.41,3.41,0,0,0,.21-1.12Z" style="fill:#231f20"/><path d="M267.11,82.1A5.65,5.65,0,0,0,271,80.61c1-1.12,1.33-2.64,1.33-7.28V57.11h3.52V74.69c0,3.76-.6,6.2-2.32,8a9,9,0,0,1-6,2.2Zm9.09-30.44a2.07,2.07,0,0,1-2.2,2.16,2.11,2.11,0,0,1-2.17-2.16,2.16,2.16,0,0,1,2.25-2.2A2.08,2.08,0,0,1,276.2,51.66Z" style="fill:#231f20"/><path d="M290.06,63.43c0-2.48-.08-4.48-.16-6.32h3.16l.16,3.32h.08a7.62,7.62,0,0,1,6.89-3.76c4.68,0,8.21,4,8.21,9.85,0,7-4.25,10.41-8.81,10.41a6.79,6.79,0,0,1-6-3h-.08V84.42h-3.48Zm3.48,5.17A7.93,7.93,0,0,0,293.7,70,5.44,5.44,0,0,0,299,74.17c3.72,0,5.88-3,5.88-7.49,0-3.89-2-7.21-5.76-7.21a5.62,5.62,0,0,0-5.33,4.36,5.71,5.71,0,0,0-.24,1.45Z" style="fill:#231f20"/><path d="M330.38,66.64c0,7.17-5,10.29-9.65,10.29-5.25,0-9.29-3.84-9.29-10,0-6.49,4.24-10.29,9.61-10.29C326.62,56.67,330.38,60.71,330.38,66.64Zm-15.38.2c0,4.24,2.45,7.45,5.89,7.45s5.89-3.17,5.89-7.53c0-3.29-1.64-7.45-5.81-7.45S315,63.15,315,66.84Z" style="fill:#231f20"/><path d="M330.1,82.1a5.65,5.65,0,0,0,3.84-1.49c1-1.12,1.33-2.64,1.33-7.28V57.11h3.52V74.69c0,3.76-.6,6.2-2.32,8a9,9,0,0,1-6,2.2Zm9.09-30.44a2.07,2.07,0,0,1-2.2,2.16,2.1,2.1,0,0,1-2.16-2.16,2.15,2.15,0,0,1,2.24-2.2A2.08,2.08,0,0,1,339.19,51.66Z" style="fill:#231f20"/><path d="M355.29,76.49,355,74.05h-.12A7.22,7.22,0,0,1,349,76.93,5.53,5.53,0,0,1,343,71.36c0-4.68,4.17-7.25,11.66-7.21v-.4c0-1.6-.44-4.48-4.41-4.48a9.65,9.65,0,0,0-5,1.44l-.8-2.32a12,12,0,0,1,6.36-1.72c5.93,0,7.37,4,7.37,7.93v7.24a27.31,27.31,0,0,0,.32,4.65Zm-.52-9.89c-3.85-.08-8.21.6-8.21,4.36a3.12,3.12,0,0,0,3.32,3.37,4.83,4.83,0,0,0,4.69-3.25,3.67,3.67,0,0,0,.2-1.12Z" style="fill:#231f20"/><path d="M364.94,57.11,367.5,67c.56,2.16,1.08,4.16,1.44,6.17h.13c.44-2,1.08-4,1.72-6.13L374,57.11h3l3,9.69c.72,2.32,1.28,4.36,1.72,6.33h.12a57.81,57.81,0,0,1,1.48-6.29L386,57.11h3.48l-6.25,19.38H380l-3-9.25a64.72,64.72,0,0,1-1.72-6.37h-.08a57.47,57.47,0,0,1-1.76,6.41l-3.12,9.21h-3.21l-5.84-19.38Z" style="fill:#231f20"/><path d="M396.94,51.66a2.19,2.19,0,0,1-4.37,0,2.14,2.14,0,0,1,2.2-2.2A2.09,2.09,0,0,1,396.94,51.66ZM393,76.49V57.11h3.53V76.49Z" style="fill:#231f20"/><path d="M401.54,74.41a2.37,2.37,0,0,1,2.4-2.53,2.53,2.53,0,1,1-2.4,2.53Z" style="fill:#231f20"/><path d="M12.76,746.83a10.45,10.45,0,0,1-4.27.76c-4.56,0-8-2.88-8-8.18a8.06,8.06,0,0,1,8.45-8.5,8.62,8.62,0,0,1,3.84.72l-.5,1.71A7.5,7.5,0,0,0,9,732.66c-3.8,0-6.32,2.43-6.32,6.68,0,4,2.28,6.5,6.22,6.5a8.34,8.34,0,0,0,3.41-.67Z" style="fill:#231f20"/><path d="M15.3,730.31h2.11v7.25h.05A4,4,0,0,1,19,736.07a4.37,4.37,0,0,1,2.16-.6c1.56,0,4.06,1,4.06,5v6.91H23.08v-6.67c0-1.87-.7-3.45-2.69-3.45a3,3,0,0,0-2.83,2.11,2.56,2.56,0,0,0-.15,1v7H15.3Z" style="fill:#231f20"/><path d="M36.9,746.92a7.72,7.72,0,0,1-3.33.67c-3.51,0-5.79-2.37-5.79-5.92A5.9,5.9,0,0,1,34,735.5a7,7,0,0,1,2.93.6l-.48,1.63a4.88,4.88,0,0,0-2.45-.55c-2.66,0-4.1,2-4.1,4.39,0,2.69,1.73,4.34,4,4.34a6.06,6.06,0,0,0,2.59-.57Z" style="fill:#231f20"/><path d="M40.41,741.93a3.71,3.71,0,0,0,4,4,7.63,7.63,0,0,0,3.22-.6l.36,1.51a9.39,9.39,0,0,1-3.87.72c-3.57,0-5.71-2.35-5.71-5.85s2.06-6.27,5.45-6.27c3.79,0,4.8,3.34,4.8,5.48a9,9,0,0,1-.07,1Zm6.19-1.51c0-1.35-.55-3.44-2.93-3.44-2.14,0-3.07,2-3.24,3.44Z" style="fill:#231f20"/><path d="M51,745.19a5.47,5.47,0,0,0,2.78.84c1.54,0,2.26-.76,2.26-1.72s-.6-1.56-2.16-2.14c-2.09-.74-3.08-1.9-3.08-3.29,0-1.87,1.52-3.41,4-3.41a5.85,5.85,0,0,1,2.86.72l-.53,1.54a4.53,4.53,0,0,0-2.38-.67c-1.24,0-1.94.72-1.94,1.58s.7,1.39,2.21,2c2,.77,3,1.78,3,3.5,0,2-1.59,3.48-4.35,3.48a6.6,6.6,0,0,1-3.26-.79Z" style="fill:#231f20"/><path d="M59.44,746.13l5.25-6.84c.51-.62,1-1.18,1.52-1.8v0H59.92v-1.7h8.85l0,1.32-5.18,6.74c-.48.65-1,1.23-1.49,1.83v0h6.79v1.68H59.44Z" style="fill:#231f20"/><path d="M86.15,730.31v14c0,1,0,2.21.1,3h-1.9l-.1-2h0a4.32,4.32,0,0,1-4,2.28c-2.81,0-5-2.38-5-5.91,0-3.86,2.37-6.24,5.21-6.24a3.88,3.88,0,0,1,3.5,1.78H84v-6.94ZM84,740.47a3.8,3.8,0,0,0-.1-.89,3.1,3.1,0,0,0-3-2.45c-2.18,0-3.48,1.92-3.48,4.49,0,2.35,1.16,4.29,3.44,4.29a3.16,3.16,0,0,0,3.09-2.52,3.68,3.68,0,0,0,.1-.91Z" style="fill:#231f20"/><path d="M100.17,741.45c0,4.3-3,6.17-5.79,6.17-3.14,0-5.57-2.31-5.57-6,0-3.89,2.55-6.17,5.76-6.17S100.17,737.9,100.17,741.45Zm-9.22.12c0,2.54,1.46,4.46,3.53,4.46S98,744.14,98,741.52c0-2-1-4.46-3.48-4.46S91,739.36,91,741.57Z" style="fill:#231f20"/><path d="M112.86,730.31v14c0,1,0,2.21.1,3h-1.9l-.09-2h0a4.32,4.32,0,0,1-4,2.28c-2.81,0-5-2.38-5-5.91,0-3.86,2.37-6.24,5.21-6.24a3.88,3.88,0,0,1,3.5,1.78h0v-6.94Zm-2.11,10.16a3.33,3.33,0,0,0-.1-.89,3.09,3.09,0,0,0-3-2.45c-2.19,0-3.49,1.92-3.49,4.49,0,2.35,1.16,4.29,3.44,4.29a3.16,3.16,0,0,0,3.09-2.52,3.26,3.26,0,0,0,.1-.91Z" style="fill:#231f20"/><path d="M122.8,747.35l-.17-1.46h-.07a4.34,4.34,0,0,1-3.55,1.73,3.31,3.31,0,0,1-3.56-3.34c0-2.81,2.5-4.34,7-4.32v-.24A2.4,2.4,0,0,0,119.8,737a5.81,5.81,0,0,0-3,.87l-.48-1.39a7.16,7.16,0,0,1,3.82-1c3.55,0,4.42,2.43,4.42,4.76v4.34a15.7,15.7,0,0,0,.19,2.78Zm-.31-5.92c-2.31,0-4.93.36-4.93,2.61a1.88,1.88,0,0,0,2,2,2.9,2.9,0,0,0,2.81-1.95,2.2,2.2,0,0,0,.12-.67Z" style="fill:#231f20"/><path d="M136.21,746.92a7.72,7.72,0,0,1-3.33.67c-3.51,0-5.79-2.37-5.79-5.92a5.9,5.9,0,0,1,6.24-6.17,7,7,0,0,1,2.93.6l-.48,1.63a4.85,4.85,0,0,0-2.45-.55c-2.66,0-4.1,2-4.1,4.39,0,2.69,1.73,4.34,4,4.34a6.06,6.06,0,0,0,2.59-.57Zm-.45-16.2-2.93,3.43h-1.51l2.11-3.43Z" style="fill:#231f20"/><path d="M143.48,745.19a5.55,5.55,0,0,0,2.79.84c1.54,0,2.25-.76,2.25-1.72s-.6-1.56-2.16-2.14c-2.08-.74-3.07-1.9-3.07-3.29,0-1.87,1.51-3.41,4-3.41a5.85,5.85,0,0,1,2.86.72l-.53,1.54a4.53,4.53,0,0,0-2.38-.67c-1.25,0-1.94.72-1.94,1.58s.69,1.39,2.21,2c2,.77,3,1.78,3,3.5,0,2-1.59,3.48-4.35,3.48a6.6,6.6,0,0,1-3.26-.79Z" style="fill:#231f20"/><path d="M154.12,735.74l1.53,5.9c.34,1.3.65,2.5.87,3.7h.07c.26-1.18.65-2.43,1-3.67l1.9-5.93h1.77l1.8,5.81c.44,1.39.77,2.61,1,3.79h.07a33.09,33.09,0,0,1,.89-3.77l1.65-5.83h2.09l-3.74,11.61h-1.92l-1.78-5.54a36.33,36.33,0,0,1-1-3.82h-.05a33.44,33.44,0,0,1-1.06,3.84l-1.87,5.52h-1.92L152,735.74Z" style="fill:#231f20"/><path d="M181.21,741.45c0,4.3-3,6.17-5.78,6.17-3.15,0-5.57-2.31-5.57-6,0-3.89,2.54-6.17,5.76-6.17S181.21,737.9,181.21,741.45Zm-9.21.12c0,2.54,1.46,4.46,3.52,4.46s3.53-1.89,3.53-4.51c0-2-1-4.46-3.48-4.46S172,739.36,172,741.57Z" style="fill:#231f20"/><path d="M181,750.71a3.44,3.44,0,0,0,2.31-.88c.57-.68.79-1.59.79-4.37v-9.72h2.11v10.53c0,2.26-.36,3.72-1.39,4.78a5.34,5.34,0,0,1-3.6,1.32Zm5.45-18.24a1.24,1.24,0,0,1-1.32,1.3,1.26,1.26,0,0,1-1.29-1.3,1.29,1.29,0,0,1,1.34-1.32A1.25,1.25,0,0,1,186.49,732.47Z" style="fill:#231f20"/><path d="M190.88,741.93a3.72,3.72,0,0,0,4,4,7.54,7.54,0,0,0,3.21-.6l.36,1.51a9.3,9.3,0,0,1-3.86.72c-3.58,0-5.71-2.35-5.71-5.85s2.06-6.27,5.45-6.27c3.79,0,4.8,3.34,4.8,5.48a6.7,6.7,0,0,1-.08,1Zm6.2-1.51c0-1.35-.56-3.44-2.93-3.44-2.14,0-3.07,2-3.24,3.44Z" style="fill:#231f20"/><path d="M206.82,739.36c0-1.37,0-2.54-.1-3.62h1.85l.07,2.28h.1a3.49,3.49,0,0,1,3.22-2.55,2.23,2.23,0,0,1,.6.08v2a3.14,3.14,0,0,0-.72-.07,3,3,0,0,0-2.84,2.71,7,7,0,0,0-.09,1v6.19h-2.09Z" style="fill:#231f20"/><path d="M224.94,741.45c0,4.3-3,6.17-5.78,6.17-3.15,0-5.57-2.31-5.57-6,0-3.89,2.54-6.17,5.76-6.17S224.94,737.9,224.94,741.45Zm-9.22.12c0,2.54,1.47,4.46,3.53,4.46s3.53-1.89,3.53-4.51c0-2-1-4.46-3.48-4.46S215.72,739.36,215.72,741.57Z" style="fill:#231f20"/><path d="M226.12,746.13l5.25-6.84c.51-.62,1-1.18,1.51-1.8v0H226.6v-1.7h8.85l0,1.32-5.19,6.74c-.48.65-1,1.23-1.48,1.83v0h6.79v1.68h-9.43Z" style="fill:#231f20"/><path d="M239.12,735.74l1.54,5.9c.34,1.3.65,2.5.86,3.7h.08c.26-1.18.64-2.43,1-3.67l1.89-5.93h1.78l1.8,5.81c.43,1.39.77,2.61,1,3.79h.08a35.18,35.18,0,0,1,.88-3.77l1.66-5.83h2.09l-3.75,11.61h-1.92l-1.77-5.54a39,39,0,0,1-1-3.82h0a33.44,33.44,0,0,1-1.06,3.84l-1.87,5.52h-1.92L237,735.74Z" style="fill:#231f20"/><path d="M258.3,732.47a1.25,1.25,0,0,1-1.34,1.3,1.26,1.26,0,0,1-1.28-1.3,1.29,1.29,0,0,1,1.32-1.32A1.25,1.25,0,0,1,258.3,732.47ZM256,747.35V735.74h2.11v11.61Z" style="fill:#231f20"/><path d="M261.49,736.51a7.16,7.16,0,0,1,3.82-1c3.55,0,4.41,2.43,4.41,4.76v4.34a14.93,14.93,0,0,0,.2,2.78h-.6a4.49,4.49,0,0,0-.94,2.31,1.08,1.08,0,0,0,1.15,1.2,2.6,2.6,0,0,0,1.11-.24l.33,1.1a3.48,3.48,0,0,1-2,.58,2,2,0,0,1-2.14-2,5.74,5.74,0,0,1,1.16-3l-.17-1.39h-.07a4.35,4.35,0,0,1-3.56,1.73,3.31,3.31,0,0,1-3.55-3.34c0-2.81,2.5-4.34,7-4.32v-.24A2.4,2.4,0,0,0,265,737a5.81,5.81,0,0,0-3,.87Zm6.19,4.92c-2.3,0-4.92.36-4.92,2.61a1.88,1.88,0,0,0,2,2,2.87,2.87,0,0,0,2.8-1.95,1.93,1.93,0,0,0,.12-.67Z" style="fill:#231f20"/><path d="M271.81,746.13l5.26-6.84c.5-.62,1-1.18,1.51-1.8v0h-6.29v-1.7h8.86l0,1.32-5.18,6.74c-.48.65-1,1.23-1.49,1.83v0h6.79v1.68h-9.43Z" style="fill:#231f20"/><path d="M289.83,747.35l-.16-1.46h-.08a4.31,4.31,0,0,1-3.55,1.73,3.31,3.31,0,0,1-3.55-3.34c0-2.81,2.5-4.34,7-4.32v-.24a2.39,2.39,0,0,0-2.64-2.69,5.77,5.77,0,0,0-3,.87l-.48-1.39a7.16,7.16,0,0,1,3.82-1c3.55,0,4.41,2.43,4.41,4.76v4.34a16.71,16.71,0,0,0,.19,2.78Zm-.31-5.92c-2.3,0-4.92.36-4.92,2.61a1.87,1.87,0,0,0,2,2,2.88,2.88,0,0,0,2.81-1.95,2.2,2.2,0,0,0,.12-.67Z" style="fill:#231f20"/><path d="M295,738.88c0-1.2,0-2.18-.1-3.14h1.88l.12,1.92h0a4.27,4.27,0,0,1,3.84-2.19c1.61,0,4.11,1,4.11,4.95v6.93h-2.11v-6.69c0-1.87-.7-3.43-2.69-3.43a3,3,0,0,0-2.83,2.16,2.88,2.88,0,0,0-.15,1v7H295Z" style="fill:#231f20"/><path d="M310.64,732.47a1.31,1.31,0,0,1-2.61,0,1.29,1.29,0,0,1,1.32-1.32A1.25,1.25,0,0,1,310.64,732.47Zm-2.35,14.88V735.74h2.11v11.61Z" style="fill:#231f20"/><path d="M315.08,741.93a3.72,3.72,0,0,0,4,4,7.54,7.54,0,0,0,3.21-.6l.36,1.51a9.3,9.3,0,0,1-3.86.72c-3.58,0-5.71-2.35-5.71-5.85s2.06-6.27,5.44-6.27c3.8,0,4.8,3.34,4.8,5.48a7,7,0,0,1-.07,1Zm6.19-1.51c0-1.35-.55-3.44-2.92-3.44-2.14,0-3.08,2-3.24,3.44Z" style="fill:#231f20"/><path d="M325.14,746.11a1.42,1.42,0,0,1,1.44-1.52,1.52,1.52,0,1,1-1.44,1.52Z" style="fill:#231f20"/><path d="M.35,774.93l9-13.13v-.07H1.12V760H12v1.27L3.11,774.33v.07h9.05v1.75H.35Z" style="fill:#231f20"/><path d="M24.88,770.25c0,4.3-3,6.17-5.79,6.17-3.14,0-5.56-2.31-5.56-6,0-3.89,2.54-6.17,5.76-6.17S24.88,766.7,24.88,770.25Zm-9.22.12c0,2.54,1.47,4.46,3.53,4.46s3.53-1.89,3.53-4.51c0-2-1-4.46-3.48-4.46S15.66,768.16,15.66,770.37Z" style="fill:#231f20"/><path d="M27.45,776.15c0-.79.09-2,.09-3v-14h2.09v7.3h.05a4.32,4.32,0,0,1,4-2.14c2.88,0,4.92,2.4,4.9,5.93,0,4.15-2.62,6.22-5.21,6.22a4.14,4.14,0,0,1-3.89-2.19h-.07l-.1,1.92Zm2.18-4.65a3.86,3.86,0,0,0,.1.77,3.25,3.25,0,0,0,3.16,2.47c2.21,0,3.53-1.8,3.53-4.47,0-2.33-1.2-4.32-3.45-4.32a3.38,3.38,0,0,0-3.22,2.6,4,4,0,0,0-.12.86Z" style="fill:#231f20"/><path d="M47.63,776.15l-.17-1.46h-.07a4.34,4.34,0,0,1-3.55,1.73,3.31,3.31,0,0,1-3.55-3.34c0-2.81,2.49-4.34,7-4.32v-.24a2.39,2.39,0,0,0-2.64-2.69,5.74,5.74,0,0,0-3,.87l-.48-1.39a7.15,7.15,0,0,1,3.81-1c3.56,0,4.42,2.43,4.42,4.75v4.35a16.71,16.71,0,0,0,.19,2.78Zm-.31-5.92c-2.31-.05-4.92.36-4.92,2.61a1.87,1.87,0,0,0,2,2,2.9,2.9,0,0,0,2.81-2,2.2,2.2,0,0,0,.12-.67Z" style="fill:#231f20"/><path d="M61.05,775.72a7.81,7.81,0,0,1-3.34.67c-3.5,0-5.78-2.37-5.78-5.92a5.9,5.9,0,0,1,6.24-6.17,7,7,0,0,1,2.92.6l-.48,1.63a4.84,4.84,0,0,0-2.44-.55c-2.67,0-4.11,2-4.11,4.39,0,2.69,1.73,4.34,4,4.34a6.11,6.11,0,0,0,2.6-.57Z" style="fill:#231f20"/><path d="M62.2,774.93l5.25-6.84c.51-.62,1-1.18,1.52-1.8v0H62.68v-1.7h8.85l0,1.32-5.18,6.74c-.48.65-1,1.23-1.49,1.83v0h6.79v1.68H62.2Z" style="fill:#231f20"/><path d="M78.88,768.33c0-1.49,0-2.69-.1-3.79h1.9l.09,2h0A4.57,4.57,0,0,1,85,764.27c2.81,0,4.92,2.38,4.92,5.91,0,4.17-2.54,6.24-5.28,6.24A4.07,4.07,0,0,1,81,774.59h0v6.32H78.88Zm2.09,3.1a4.54,4.54,0,0,0,.09.86,3.27,3.27,0,0,0,3.17,2.47c2.23,0,3.53-1.82,3.53-4.49,0-2.33-1.23-4.32-3.46-4.32a3.37,3.37,0,0,0-3.19,2.62,3.51,3.51,0,0,0-.14.86Z" style="fill:#231f20"/><path d="M103.05,770.25c0,4.3-3,6.17-5.79,6.17-3.14,0-5.57-2.31-5.57-6,0-3.89,2.55-6.17,5.76-6.17S103.05,766.7,103.05,770.25Zm-9.22.12c0,2.54,1.46,4.46,3.53,4.46s3.53-1.89,3.53-4.51c0-2-1-4.46-3.48-4.46S93.83,768.16,93.83,770.37Z" style="fill:#231f20"/><path d="M115.74,759.11v14c0,1,0,2.21.1,3h-1.9l-.09-2h0a4.32,4.32,0,0,1-4,2.28c-2.81,0-5-2.38-5-5.91,0-3.86,2.38-6.24,5.21-6.24a3.88,3.88,0,0,1,3.5,1.78h0v-6.94Zm-2.11,10.16a3.33,3.33,0,0,0-.1-.89,3.09,3.09,0,0,0-3-2.45c-2.19,0-3.48,1.92-3.48,4.49,0,2.35,1.15,4.29,3.43,4.29a3.16,3.16,0,0,0,3.09-2.52,3.26,3.26,0,0,0,.1-.91Z" style="fill:#231f20"/><path d="M126.42,769.87h0c.29-.41.7-.92,1-1.32l3.41-4h2.54L129,769.31l5.11,6.84h-2.57l-4-5.56-1.08,1.2v4.36h-2.09v-17h2.09Z" style="fill:#231f20"/><path d="M146.1,770.25c0,4.3-3,6.17-5.78,6.17-3.15,0-5.57-2.31-5.57-6,0-3.89,2.54-6.17,5.76-6.17S146.1,766.7,146.1,770.25Zm-9.21.12c0,2.54,1.46,4.46,3.52,4.46s3.53-1.89,3.53-4.51c0-2-1-4.46-3.48-4.46S136.89,768.16,136.89,770.37Z" style="fill:#231f20"/><path d="M158.8,759.11v14c0,1,0,2.21.09,3H157l-.1-2h-.05a4.29,4.29,0,0,1-4,2.28c-2.81,0-5-2.38-5-5.91,0-3.86,2.38-6.24,5.21-6.24a3.89,3.89,0,0,1,3.51,1.78h.05v-6.94Zm-2.11,10.16a3.8,3.8,0,0,0-.1-.89,3.1,3.1,0,0,0-3.05-2.45c-2.18,0-3.48,1.92-3.48,4.49,0,2.35,1.15,4.29,3.43,4.29a3.17,3.17,0,0,0,3.1-2.52,3.68,3.68,0,0,0,.1-.91Z" style="fill:#231f20"/><path d="M163.48,770.73a3.71,3.71,0,0,0,4,4,7.6,7.6,0,0,0,3.22-.6l.36,1.51a9.39,9.39,0,0,1-3.87.72c-3.57,0-5.71-2.35-5.71-5.85s2.06-6.27,5.45-6.27c3.79,0,4.8,3.34,4.8,5.48a9,9,0,0,1-.07,1Zm6.19-1.51c0-1.35-.55-3.44-2.93-3.44-2.14,0-3.07,2-3.24,3.44Z" style="fill:#231f20"/><path d="M174.33,767.68c0-1.2,0-2.18-.1-3.14h1.85l.09,1.87h.08a4,4,0,0,1,3.64-2.14,3.43,3.43,0,0,1,3.29,2.33h0a4.76,4.76,0,0,1,1.3-1.51,3.93,3.93,0,0,1,2.56-.82c1.54,0,3.82,1,3.82,5v6.84h-2.06v-6.57c0-2.23-.82-3.58-2.52-3.58a2.74,2.74,0,0,0-2.5,1.92,3.36,3.36,0,0,0-.17,1.06v7.17H181.6v-7c0-1.84-.82-3.19-2.43-3.19a2.88,2.88,0,0,0-2.61,2.11,3,3,0,0,0-.17,1v7h-2.06Z" style="fill:#231f20"/><path d="M212.85,778.53c-2.19-.58-4.32-1.22-6.2-1.87a3.05,3.05,0,0,0-1-.24c-3.84-.15-7.13-3-7.13-8.19s3.17-8.52,7.54-8.52,7.25,3.41,7.25,8.19c0,4.15-1.92,6.81-4.61,7.75v.1c1.61.4,3.36.79,4.73,1ZM211.12,768c0-3.24-1.68-6.57-5.11-6.57s-5.26,3.26-5.24,6.77,1.87,6.52,5.14,6.52S211.12,771.69,211.12,768Z" style="fill:#231f20"/><path d="M216,760.19a22.3,22.3,0,0,1,4-.33c2.23,0,3.67.4,4.68,1.32a4,4,0,0,1,1.27,3.07,4.26,4.26,0,0,1-3.05,4.13v.07c1.25.43,2,1.58,2.38,3.26a25.57,25.57,0,0,0,1.24,4.44h-2.16a21.3,21.3,0,0,1-1.08-3.86c-.48-2.23-1.34-3.07-3.24-3.14h-2v7H216Zm2.08,7.37h2.14c2.23,0,3.65-1.22,3.65-3.07,0-2.09-1.51-3-3.72-3a8.33,8.33,0,0,0-2.07.2Z" style="fill:#231f20"/><path d="M227.51,779.11a34.14,34.14,0,0,0,1.44-5.74l2.35-.24A29.28,29.28,0,0,1,229,779Z" style="fill:#231f20"/><path d="M247.21,775.72a7.72,7.72,0,0,1-3.33.67c-3.51,0-5.79-2.37-5.79-5.92a5.9,5.9,0,0,1,6.24-6.17,7,7,0,0,1,2.93.6l-.48,1.63a4.85,4.85,0,0,0-2.45-.55c-2.66,0-4.1,2-4.1,4.39,0,2.69,1.73,4.34,4,4.34a6.06,6.06,0,0,0,2.59-.57Z" style="fill:#231f20"/><path d="M260.05,770.25c0,4.3-3,6.17-5.78,6.17-3.14,0-5.57-2.31-5.57-6,0-3.89,2.55-6.17,5.76-6.17S260.05,766.7,260.05,770.25Zm-9.21.12c0,2.54,1.46,4.46,3.53,4.46s3.52-1.89,3.52-4.51c0-2-1-4.46-3.48-4.46S250.84,768.16,250.84,770.37Z" style="fill:#231f20"/><path d="M270.16,761.27a1.31,1.31,0,0,1-2.62,0,1.29,1.29,0,0,1,1.32-1.32A1.26,1.26,0,0,1,270.16,761.27Zm-2.36,14.88V764.54h2.12v11.61Z" style="fill:#231f20"/><path d="M275.68,779.51a3.4,3.4,0,0,0,2.3-.88c.58-.68.79-1.59.79-4.37v-9.72h2.11v10.53c0,2.26-.36,3.72-1.39,4.78a5.33,5.33,0,0,1-3.6,1.32Zm5.44-18.24a1.24,1.24,0,0,1-1.32,1.3,1.26,1.26,0,0,1-1.29-1.3,1.29,1.29,0,0,1,1.34-1.32A1.25,1.25,0,0,1,281.12,761.27Z" style="fill:#231f20"/><path d="M290.77,776.15l-.17-1.46h-.07a4.31,4.31,0,0,1-3.55,1.73,3.31,3.31,0,0,1-3.55-3.34c0-2.81,2.49-4.34,7-4.32v-.24a2.39,2.39,0,0,0-2.64-2.69,5.74,5.74,0,0,0-3,.87l-.48-1.39a7.15,7.15,0,0,1,3.81-1c3.56,0,4.42,2.43,4.42,4.75v4.35a16.71,16.71,0,0,0,.19,2.78Zm-.31-5.92c-2.3-.05-4.92.36-4.92,2.61a1.87,1.87,0,0,0,2,2,2.88,2.88,0,0,0,2.81-2,2.2,2.2,0,0,0,.12-.67Z" style="fill:#231f20"/><path d="M298,769.87h0c.29-.41.7-.92,1-1.32l3.4-4H305l-4.49,4.77,5.11,6.84h-2.57l-4-5.56-1.08,1.2v4.36h-2.09v-17H298Z" style="fill:#231f20"/><path d="M307,774.91a1.42,1.42,0,0,1,1.44-1.52,1.52,1.52,0,1,1-1.44,1.52Z" style="fill:#231f20"/><rect x="472.56" y="708.81" width="84.85" height="84.85" style="fill:#fff"/><rect x="498.27" y="713.95" width="2.57" height="2.57" style="fill:#010101"/><rect x="505.99" y="713.95" width="2.57" height="2.57" style="fill:#010101"/><rect x="508.56" y="713.95" width="2.57" height="2.57" style="fill:#010101"/><rect x="518.84" y="713.95" width="2.57" height="2.57" style="fill:#010101"/><rect x="521.41" y="713.95" width="2.57" height="2.57" style="fill:#010101"/><rect x="523.98" y="713.95" width="2.57" height="2.57" style="fill:#010101"/><rect x="526.56" y="713.95" width="2.57" height="2.57" style="fill:#010101"/><rect x="498.27" y="716.53" width="2.57" height="2.57" style="fill:#010101"/><rect x="500.84" y="716.53" width="2.57" height="2.57" style="fill:#010101"/><rect x="503.42" y="716.53" width="2.57" height="2.57" style="fill:#010101"/><rect x="505.99" y="716.53" width="2.57" height="2.57" style="fill:#010101"/><rect x="508.56" y="716.53" width="2.57" height="2.57" style="fill:#010101"/><rect x="513.7" y="716.53" width="2.57" height="2.57" style="fill:#010101"/><rect x="521.41" y="716.53" width="2.57" height="2.57" style="fill:#010101"/><rect x="523.98" y="716.53" width="2.57" height="2.57" style="fill:#010101"/><rect x="529.13" y="716.53" width="2.57" height="2.57" style="fill:#010101"/><rect x="500.84" y="719.1" width="2.57" height="2.57" style="fill:#010101"/><rect x="503.42" y="719.1" width="2.57" height="2.57" style="fill:#010101"/><rect x="508.56" y="719.1" width="2.57" height="2.57" style="fill:#010101"/><rect x="511.13" y="719.1" width="2.57" height="2.57" style="fill:#010101"/><rect x="513.7" y="719.1" width="2.57" height="2.57" style="fill:#010101"/><rect x="516.27" y="719.1" width="2.57" height="2.57" style="fill:#010101"/><rect x="518.84" y="719.1" width="2.57" height="2.57" style="fill:#010101"/><rect x="523.98" y="719.1" width="2.57" height="2.57" style="fill:#010101"/><rect x="498.27" y="721.67" width="2.57" height="2.57" style="fill:#010101"/><rect x="500.84" y="721.67" width="2.57" height="2.57" style="fill:#010101"/><rect x="505.99" y="721.67" width="2.57" height="2.57" style="fill:#010101"/><rect x="508.56" y="721.67" width="2.57" height="2.57" style="fill:#010101"/><rect x="511.13" y="721.67" width="2.57" height="2.57" style="fill:#010101"/><rect x="513.7" y="721.67" width="2.57" height="2.57" style="fill:#010101"/><rect x="518.84" y="721.67" width="2.57" height="2.57" style="fill:#010101"/><rect x="521.41" y="721.67" width="2.57" height="2.57" style="fill:#010101"/><rect x="526.56" y="721.67" width="2.57" height="2.57" style="fill:#010101"/><rect x="505.99" y="724.24" width="2.57" height="2.57" style="fill:#010101"/><rect x="511.13" y="724.24" width="2.57" height="2.57" style="fill:#010101"/><rect x="513.7" y="724.24" width="2.57" height="2.57" style="fill:#010101"/><rect x="516.27" y="724.24" width="2.57" height="2.57" style="fill:#010101"/><rect x="518.84" y="724.24" width="2.57" height="2.57" style="fill:#010101"/><rect x="521.41" y="724.24" width="2.57" height="2.57" style="fill:#010101"/><rect x="523.98" y="724.24" width="2.57" height="2.57" style="fill:#010101"/><rect x="526.56" y="724.24" width="2.57" height="2.57" style="fill:#010101"/><rect x="513.7" y="726.81" width="2.57" height="2.57" style="fill:#010101"/><rect x="521.41" y="726.81" width="2.57" height="2.57" style="fill:#010101"/><rect x="526.56" y="726.81" width="2.57" height="2.57" style="fill:#010101"/><rect x="529.13" y="726.81" width="2.57" height="2.57" style="fill:#010101"/><rect x="498.27" y="729.38" width="2.57" height="2.57" style="fill:#010101"/><rect x="503.42" y="729.38" width="2.57" height="2.57" style="fill:#010101"/><rect x="508.56" y="729.38" width="2.57" height="2.57" style="fill:#010101"/><rect x="513.7" y="729.38" width="2.57" height="2.57" style="fill:#010101"/><rect x="518.84" y="729.38" width="2.57" height="2.57" style="fill:#010101"/><rect x="523.98" y="729.38" width="2.57" height="2.57" style="fill:#010101"/><rect x="529.13" y="729.38" width="2.57" height="2.57" style="fill:#010101"/><rect x="498.27" y="731.95" width="2.57" height="2.57" style="fill:#010101"/><rect x="500.84" y="731.95" width="2.57" height="2.57" style="fill:#010101"/><rect x="513.7" y="731.95" width="2.57" height="2.57" style="fill:#010101"/><rect x="521.41" y="731.95" width="2.57" height="2.57" style="fill:#010101"/><rect x="523.98" y="731.95" width="2.57" height="2.57" style="fill:#010101"/><rect x="529.13" y="731.95" width="2.57" height="2.57" style="fill:#010101"/><rect x="477.7" y="734.52" width="2.57" height="2.57" style="fill:#010101"/><rect x="482.85" y="734.52" width="2.57" height="2.57" style="fill:#010101"/><rect x="485.42" y="734.52" width="2.57" height="2.57" style="fill:#010101"/><rect x="490.56" y="734.52" width="2.57" height="2.57" style="fill:#010101"/><rect x="493.13" y="734.52" width="2.57" height="2.57" style="fill:#010101"/><rect x="495.7" y="734.52" width="2.57" height="2.57" style="fill:#010101"/><rect x="503.42" y="734.52" width="2.57" height="2.57" style="fill:#010101"/><rect x="508.56" y="734.52" width="2.57" height="2.57" style="fill:#010101"/><rect x="513.7" y="734.52" width="2.57" height="2.57" style="fill:#010101"/><rect x="518.84" y="734.52" width="2.57" height="2.57" style="fill:#010101"/><rect x="521.41" y="734.52" width="2.57" height="2.57" style="fill:#010101"/><rect x="523.98" y="734.52" width="2.57" height="2.57" style="fill:#010101"/><rect x="526.56" y="734.52" width="2.57" height="2.57" style="fill:#010101"/><rect x="534.27" y="734.52" width="2.57" height="2.57" style="fill:#010101"/><rect x="541.98" y="734.52" width="2.57" height="2.57" style="fill:#010101"/><rect x="547.13" y="734.52" width="2.57" height="2.57" style="fill:#010101"/><rect x="549.7" y="734.52" width="2.57" height="2.57" style="fill:#010101"/><rect x="477.7" y="737.1" width="2.57" height="2.57" style="fill:#010101"/><rect x="480.27" y="737.1" width="2.57" height="2.57" style="fill:#010101"/><rect x="482.85" y="737.1" width="2.57" height="2.57" style="fill:#010101"/><rect x="485.42" y="737.1" width="2.57" height="2.57" style="fill:#010101"/><rect x="487.99" y="737.1" width="2.57" height="2.57" style="fill:#010101"/><rect x="495.7" y="737.1" width="2.57" height="2.57" style="fill:#010101"/><rect x="498.27" y="737.1" width="2.57" height="2.57" style="fill:#010101"/><rect x="500.84" y="737.1" width="2.57" height="2.57" style="fill:#010101"/><rect x="508.56" y="737.1" width="2.57" height="2.57" style="fill:#010101"/><rect x="511.13" y="737.1" width="2.57" height="2.57" style="fill:#010101"/><rect x="518.84" y="737.1" width="2.57" height="2.57" style="fill:#010101"/><rect x="526.56" y="737.1" width="2.57" height="2.57" style="fill:#010101"/><rect x="529.13" y="737.1" width="2.57" height="2.57" style="fill:#010101"/><rect x="531.7" y="737.1" width="2.57" height="2.57" style="fill:#010101"/><rect x="534.27" y="737.1" width="2.57" height="2.57" style="fill:#010101"/><rect x="539.41" y="737.1" width="2.57" height="2.57" style="fill:#010101"/><rect x="549.7" y="737.1" width="2.57" height="2.57" style="fill:#010101"/><rect x="480.27" y="739.67" width="2.57" height="2.57" style="fill:#010101"/><rect x="485.42" y="739.67" width="2.57" height="2.57" style="fill:#010101"/><rect x="487.99" y="739.67" width="2.57" height="2.57" style="fill:#010101"/><rect x="493.13" y="739.67" width="2.57" height="2.57" style="fill:#010101"/><rect x="495.7" y="739.67" width="2.57" height="2.57" style="fill:#010101"/><rect x="498.27" y="739.67" width="2.57" height="2.57" style="fill:#010101"/><rect x="505.99" y="739.67" width="2.57" height="2.57" style="fill:#010101"/><rect x="513.7" y="739.67" width="2.57" height="2.57" style="fill:#010101"/><rect x="518.84" y="739.67" width="2.57" height="2.57" style="fill:#010101"/><rect x="523.98" y="739.67" width="2.57" height="2.57" style="fill:#010101"/><rect x="529.13" y="739.67" width="2.57" height="2.57" style="fill:#010101"/><rect x="531.7" y="739.67" width="2.57" height="2.57" style="fill:#010101"/><rect x="534.27" y="739.67" width="2.57" height="2.57" style="fill:#010101"/><rect x="544.55" y="739.67" width="2.57" height="2.57" style="fill:#010101"/><rect x="547.13" y="739.67" width="2.57" height="2.57" style="fill:#010101"/><rect x="485.42" y="742.24" width="2.57" height="2.57" style="fill:#010101"/><rect x="487.99" y="742.24" width="2.57" height="2.57" style="fill:#010101"/><rect x="498.27" y="742.24" width="2.57" height="2.57" style="fill:#010101"/><rect x="500.84" y="742.24" width="2.57" height="2.57" style="fill:#010101"/><rect x="511.13" y="742.24" width="2.57" height="2.57" style="fill:#010101"/><rect x="513.7" y="742.24" width="2.57" height="2.57" style="fill:#010101"/><rect x="518.84" y="742.24" width="2.57" height="2.57" style="fill:#010101"/><rect x="523.98" y="742.24" width="2.57" height="2.57" style="fill:#010101"/><rect x="526.56" y="742.24" width="2.57" height="2.57" style="fill:#010101"/><rect x="529.13" y="742.24" width="2.57" height="2.57" style="fill:#010101"/><rect x="536.84" y="742.24" width="2.57" height="2.57" style="fill:#010101"/><rect x="539.41" y="742.24" width="2.57" height="2.57" style="fill:#010101"/><rect x="549.7" y="742.24" width="2.57" height="2.57" style="fill:#010101"/><rect x="482.85" y="744.81" width="2.57" height="2.57" style="fill:#010101"/><rect x="485.42" y="744.81" width="2.57" height="2.57" style="fill:#010101"/><rect x="493.13" y="744.81" width="2.57" height="2.57" style="fill:#010101"/><rect x="505.99" y="744.81" width="2.57" height="2.57" style="fill:#010101"/><rect x="508.56" y="744.81" width="2.57" height="2.57" style="fill:#010101"/><rect x="511.13" y="744.81" width="2.57" height="2.57" style="fill:#010101"/><rect x="513.7" y="744.81" width="2.57" height="2.57" style="fill:#010101"/><rect x="521.41" y="744.81" width="2.57" height="2.57" style="fill:#010101"/><rect x="541.98" y="744.81" width="2.57" height="2.57" style="fill:#010101"/><rect x="544.55" y="744.81" width="2.57" height="2.57" style="fill:#010101"/><rect x="485.42" y="747.38" width="2.57" height="2.57" style="fill:#010101"/><rect x="487.99" y="747.38" width="2.57" height="2.57" style="fill:#010101"/><rect x="490.56" y="747.38" width="2.57" height="2.57" style="fill:#010101"/><rect x="495.7" y="747.38" width="2.57" height="2.57" style="fill:#010101"/><rect x="498.27" y="747.38" width="2.57" height="2.57" style="fill:#010101"/><rect x="503.42" y="747.38" width="2.57" height="2.57" style="fill:#010101"/><rect x="513.7" y="747.38" width="2.57" height="2.57" style="fill:#010101"/><rect x="516.27" y="747.38" width="2.57" height="2.57" style="fill:#010101"/><rect x="518.84" y="747.38" width="2.57" height="2.57" style="fill:#010101"/><rect x="526.56" y="747.38" width="2.57" height="2.57" style="fill:#010101"/><rect x="531.7" y="747.38" width="2.57" height="2.57" style="fill:#010101"/><rect x="534.27" y="747.38" width="2.57" height="2.57" style="fill:#010101"/><rect x="544.55" y="747.38" width="2.57" height="2.57" style="fill:#010101"/><rect x="547.13" y="747.38" width="2.57" height="2.57" style="fill:#010101"/><rect x="549.7" y="747.38" width="2.57" height="2.57" style="fill:#010101"/><rect x="477.7" y="749.95" width="2.57" height="2.57" style="fill:#010101"/><rect x="480.27" y="749.95" width="2.57" height="2.57" style="fill:#010101"/><rect x="482.85" y="749.95" width="2.57" height="2.57" style="fill:#010101"/><rect x="493.13" y="749.95" width="2.57" height="2.57" style="fill:#010101"/><rect x="495.7" y="749.95" width="2.57" height="2.57" style="fill:#010101"/><rect x="498.27" y="749.95" width="2.57" height="2.57" style="fill:#010101"/><rect x="508.56" y="749.95" width="2.57" height="2.57" style="fill:#010101"/><rect x="511.13" y="749.95" width="2.57" height="2.57" style="fill:#010101"/><rect x="513.7" y="749.95" width="2.57" height="2.57" style="fill:#010101"/><rect x="521.41" y="749.95" width="2.57" height="2.57" style="fill:#010101"/><rect x="523.98" y="749.95" width="2.57" height="2.57" style="fill:#010101"/><rect x="526.56" y="749.95" width="2.57" height="2.57" style="fill:#010101"/><rect x="529.13" y="749.95" width="2.57" height="2.57" style="fill:#010101"/><rect x="536.84" y="749.95" width="2.57" height="2.57" style="fill:#010101"/><rect x="544.55" y="749.95" width="2.57" height="2.57" style="fill:#010101"/><rect x="547.13" y="749.95" width="2.57" height="2.57" style="fill:#010101"/><rect x="549.7" y="749.95" width="2.57" height="2.57" style="fill:#010101"/><rect x="485.42" y="752.52" width="2.57" height="2.57" style="fill:#010101"/><rect x="487.99" y="752.52" width="2.57" height="2.57" style="fill:#010101"/><rect x="490.56" y="752.52" width="2.57" height="2.57" style="fill:#010101"/><rect x="495.7" y="752.52" width="2.57" height="2.57" style="fill:#010101"/><rect x="498.27" y="752.52" width="2.57" height="2.57" style="fill:#010101"/><rect x="500.84" y="752.52" width="2.57" height="2.57" style="fill:#010101"/><rect x="503.42" y="752.52" width="2.57" height="2.57" style="fill:#010101"/><rect x="505.99" y="752.52" width="2.57" height="2.57" style="fill:#010101"/><rect x="508.56" y="752.52" width="2.57" height="2.57" style="fill:#010101"/><rect x="513.7" y="752.52" width="2.57" height="2.57" style="fill:#010101"/><rect x="518.84" y="752.52" width="2.57" height="2.57" style="fill:#010101"/><rect x="526.56" y="752.52" width="2.57" height="2.57" style="fill:#010101"/><rect x="529.13" y="752.52" width="2.57" height="2.57" style="fill:#010101"/><rect x="531.7" y="752.52" width="2.57" height="2.57" style="fill:#010101"/><rect x="539.41" y="752.52" width="2.57" height="2.57" style="fill:#010101"/><rect x="547.13" y="752.52" width="2.57" height="2.57" style="fill:#010101"/><rect x="480.27" y="755.09" width="2.57" height="2.57" style="fill:#010101"/><rect x="490.56" y="755.09" width="2.57" height="2.57" style="fill:#010101"/><rect x="493.13" y="755.09" width="2.57" height="2.57" style="fill:#010101"/><rect x="495.7" y="755.09" width="2.57" height="2.57" style="fill:#010101"/><rect x="498.27" y="755.09" width="2.57" height="2.57" style="fill:#010101"/><rect x="500.84" y="755.09" width="2.57" height="2.57" style="fill:#010101"/><rect x="505.99" y="755.09" width="2.57" height="2.57" style="fill:#010101"/><rect x="513.7" y="755.09" width="2.57" height="2.57" style="fill:#010101"/><rect x="518.84" y="755.09" width="2.57" height="2.57" style="fill:#010101"/><rect x="523.98" y="755.09" width="2.57" height="2.57" style="fill:#010101"/><rect x="526.56" y="755.09" width="2.57" height="2.57" style="fill:#010101"/><rect x="529.13" y="755.09" width="2.57" height="2.57" style="fill:#010101"/><rect x="531.7" y="755.09" width="2.57" height="2.57" style="fill:#010101"/><rect x="536.84" y="755.09" width="2.57" height="2.57" style="fill:#010101"/><rect x="539.41" y="755.09" width="2.57" height="2.57" style="fill:#010101"/><rect x="541.98" y="755.09" width="2.57" height="2.57" style="fill:#010101"/><rect x="547.13" y="755.09" width="2.57" height="2.57" style="fill:#010101"/><rect x="482.85" y="757.66" width="2.57" height="2.57" style="fill:#010101"/><rect x="487.99" y="757.66" width="2.57" height="2.57" style="fill:#010101"/><rect x="498.27" y="757.66" width="2.57" height="2.57" style="fill:#010101"/><rect x="516.27" y="757.66" width="2.57" height="2.57" style="fill:#010101"/><rect x="521.41" y="757.66" width="2.57" height="2.57" style="fill:#010101"/><rect x="529.13" y="757.66" width="2.57" height="2.57" style="fill:#010101"/><rect x="531.7" y="757.66" width="2.57" height="2.57" style="fill:#010101"/><rect x="536.84" y="757.66" width="2.57" height="2.57" style="fill:#010101"/><rect x="541.98" y="757.66" width="2.57" height="2.57" style="fill:#010101"/><rect x="544.55" y="757.66" width="2.57" height="2.57" style="fill:#010101"/><rect x="547.13" y="757.66" width="2.57" height="2.57" style="fill:#010101"/><rect x="477.7" y="760.24" width="2.57" height="2.57" style="fill:#010101"/><rect x="482.85" y="760.24" width="2.57" height="2.57" style="fill:#010101"/><rect x="485.42" y="760.24" width="2.57" height="2.57" style="fill:#010101"/><rect x="493.13" y="760.24" width="2.57" height="2.57" style="fill:#010101"/><rect x="498.27" y="760.24" width="2.57" height="2.57" style="fill:#010101"/><rect x="508.56" y="760.24" width="2.57" height="2.57" style="fill:#010101"/><rect x="511.13" y="760.24" width="2.57" height="2.57" style="fill:#010101"/><rect x="513.7" y="760.24" width="2.57" height="2.57" style="fill:#010101"/><rect x="516.27" y="760.24" width="2.57" height="2.57" style="fill:#010101"/><rect x="521.41" y="760.24" width="2.57" height="2.57" style="fill:#010101"/><rect x="523.98" y="760.24" width="2.57" height="2.57" style="fill:#010101"/><rect x="531.7" y="760.24" width="2.57" height="2.57" style="fill:#010101"/><rect x="534.27" y="760.24" width="2.57" height="2.57" style="fill:#010101"/><rect x="539.41" y="760.24" width="2.57" height="2.57" style="fill:#010101"/><rect x="544.55" y="760.24" width="2.57" height="2.57" style="fill:#010101"/><rect x="482.85" y="762.81" width="2.57" height="2.57" style="fill:#010101"/><rect x="487.99" y="762.81" width="2.57" height="2.57" style="fill:#010101"/><rect x="500.84" y="762.81" width="2.57" height="2.57" style="fill:#010101"/><rect x="505.99" y="762.81" width="2.57" height="2.57" style="fill:#010101"/><rect x="508.56" y="762.81" width="2.57" height="2.57" style="fill:#010101"/><rect x="511.13" y="762.81" width="2.57" height="2.57" style="fill:#010101"/><rect x="513.7" y="762.81" width="2.57" height="2.57" style="fill:#010101"/><rect x="516.27" y="762.81" width="2.57" height="2.57" style="fill:#010101"/><rect x="521.41" y="762.81" width="2.57" height="2.57" style="fill:#010101"/><rect x="531.7" y="762.81" width="2.57" height="2.57" style="fill:#010101"/><rect x="544.55" y="762.81" width="2.57" height="2.57" style="fill:#010101"/><rect x="480.27" y="765.38" width="2.57" height="2.57" style="fill:#010101"/><rect x="490.56" y="765.38" width="2.57" height="2.57" style="fill:#010101"/><rect x="493.13" y="765.38" width="2.57" height="2.57" style="fill:#010101"/><rect x="503.42" y="765.38" width="2.57" height="2.57" style="fill:#010101"/><rect x="511.13" y="765.38" width="2.57" height="2.57" style="fill:#010101"/><rect x="513.7" y="765.38" width="2.57" height="2.57" style="fill:#010101"/><rect x="516.27" y="765.38" width="2.57" height="2.57" style="fill:#010101"/><rect x="521.41" y="765.38" width="2.57" height="2.57" style="fill:#010101"/><rect x="523.98" y="765.38" width="2.57" height="2.57" style="fill:#010101"/><rect x="526.56" y="765.38" width="2.57" height="2.57" style="fill:#010101"/><rect x="529.13" y="765.38" width="2.57" height="2.57" style="fill:#010101"/><rect x="531.7" y="765.38" width="2.57" height="2.57" style="fill:#010101"/><rect x="534.27" y="765.38" width="2.57" height="2.57" style="fill:#010101"/><rect x="536.84" y="765.38" width="2.57" height="2.57" style="fill:#010101"/><rect x="539.41" y="765.38" width="2.57" height="2.57" style="fill:#010101"/><rect x="541.98" y="765.38" width="2.57" height="2.57" style="fill:#010101"/><rect x="544.55" y="765.38" width="2.57" height="2.57" style="fill:#010101"/><rect x="498.27" y="767.95" width="2.57" height="2.57" style="fill:#010101"/><rect x="503.42" y="767.95" width="2.57" height="2.57" style="fill:#010101"/><rect x="505.99" y="767.95" width="2.57" height="2.57" style="fill:#010101"/><rect x="508.56" y="767.95" width="2.57" height="2.57" style="fill:#010101"/><rect x="518.84" y="767.95" width="2.57" height="2.57" style="fill:#010101"/><rect x="523.98" y="767.95" width="2.57" height="2.57" style="fill:#010101"/><rect x="529.13" y="767.95" width="2.57" height="2.57" style="fill:#010101"/><rect x="539.41" y="767.95" width="2.57" height="2.57" style="fill:#010101"/><rect x="541.98" y="767.95" width="2.57" height="2.57" style="fill:#010101"/><rect x="544.55" y="767.95" width="2.57" height="2.57" style="fill:#010101"/><rect x="547.13" y="767.95" width="2.57" height="2.57" style="fill:#010101"/><rect x="549.7" y="767.95" width="2.57" height="2.57" style="fill:#010101"/><rect x="498.27" y="770.52" width="2.57" height="2.57" style="fill:#010101"/><rect x="503.42" y="770.52" width="2.57" height="2.57" style="fill:#010101"/><rect x="513.7" y="770.52" width="2.57" height="2.57" style="fill:#010101"/><rect x="518.84" y="770.52" width="2.57" height="2.57" style="fill:#010101"/><rect x="521.41" y="770.52" width="2.57" height="2.57" style="fill:#010101"/><rect x="523.98" y="770.52" width="2.57" height="2.57" style="fill:#010101"/><rect x="526.56" y="770.52" width="2.57" height="2.57" style="fill:#010101"/><rect x="529.13" y="770.52" width="2.57" height="2.57" style="fill:#010101"/><rect x="534.27" y="770.52" width="2.57" height="2.57" style="fill:#010101"/><rect x="539.41" y="770.52" width="2.57" height="2.57" style="fill:#010101"/><rect x="541.98" y="770.52" width="2.57" height="2.57" style="fill:#010101"/><rect x="547.13" y="770.52" width="2.57" height="2.57" style="fill:#010101"/><rect x="498.27" y="773.09" width="2.57" height="2.57" style="fill:#010101"/><rect x="505.99" y="773.09" width="2.57" height="2.57" style="fill:#010101"/><rect x="508.56" y="773.09" width="2.57" height="2.57" style="fill:#010101"/><rect x="511.13" y="773.09" width="2.57" height="2.57" style="fill:#010101"/><rect x="513.7" y="773.09" width="2.57" height="2.57" style="fill:#010101"/><rect x="516.27" y="773.09" width="2.57" height="2.57" style="fill:#010101"/><rect x="523.98" y="773.09" width="2.57" height="2.57" style="fill:#010101"/><rect x="529.13" y="773.09" width="2.57" height="2.57" style="fill:#010101"/><rect x="539.41" y="773.09" width="2.57" height="2.57" style="fill:#010101"/><rect x="541.98" y="773.09" width="2.57" height="2.57" style="fill:#010101"/><rect x="549.7" y="773.09" width="2.57" height="2.57" style="fill:#010101"/><rect x="503.42" y="775.66" width="2.57" height="2.57" style="fill:#010101"/><rect x="505.99" y="775.66" width="2.57" height="2.57" style="fill:#010101"/><rect x="508.56" y="775.66" width="2.57" height="2.57" style="fill:#010101"/><rect x="521.41" y="775.66" width="2.57" height="2.57" style="fill:#010101"/><rect x="523.98" y="775.66" width="2.57" height="2.57" style="fill:#010101"/><rect x="529.13" y="775.66" width="2.57" height="2.57" style="fill:#010101"/><rect x="531.7" y="775.66" width="2.57" height="2.57" style="fill:#010101"/><rect x="534.27" y="775.66" width="2.57" height="2.57" style="fill:#010101"/><rect x="536.84" y="775.66" width="2.57" height="2.57" style="fill:#010101"/><rect x="539.41" y="775.66" width="2.57" height="2.57" style="fill:#010101"/><rect x="544.55" y="775.66" width="2.57" height="2.57" style="fill:#010101"/><rect x="547.13" y="775.66" width="2.57" height="2.57" style="fill:#010101"/><rect x="549.7" y="775.66" width="2.57" height="2.57" style="fill:#010101"/><rect x="498.27" y="778.23" width="2.57" height="2.57" style="fill:#010101"/><rect x="500.84" y="778.23" width="2.57" height="2.57" style="fill:#010101"/><rect x="516.27" y="778.23" width="2.57" height="2.57" style="fill:#010101"/><rect x="518.84" y="778.23" width="2.57" height="2.57" style="fill:#010101"/><rect x="526.56" y="778.23" width="2.57" height="2.57" style="fill:#010101"/><rect x="531.7" y="778.23" width="2.57" height="2.57" style="fill:#010101"/><rect x="536.84" y="778.23" width="2.57" height="2.57" style="fill:#010101"/><rect x="539.41" y="778.23" width="2.57" height="2.57" style="fill:#010101"/><rect x="541.98" y="778.23" width="2.57" height="2.57" style="fill:#010101"/><rect x="549.7" y="778.23" width="2.57" height="2.57" style="fill:#010101"/><rect x="498.27" y="780.8" width="2.57" height="2.57" style="fill:#010101"/><rect x="503.42" y="780.8" width="2.57" height="2.57" style="fill:#010101"/><rect x="518.84" y="780.8" width="2.57" height="2.57" style="fill:#010101"/><rect x="523.98" y="780.8" width="2.57" height="2.57" style="fill:#010101"/><rect x="529.13" y="780.8" width="2.57" height="2.57" style="fill:#010101"/><rect x="531.7" y="780.8" width="2.57" height="2.57" style="fill:#010101"/><rect x="536.84" y="780.8" width="2.57" height="2.57" style="fill:#010101"/><rect x="544.55" y="780.8" width="2.57" height="2.57" style="fill:#010101"/><rect x="549.7" y="780.8" width="2.57" height="2.57" style="fill:#010101"/><rect x="529.13" y="783.38" width="2.57" height="2.57" style="fill:#010101"/><rect x="531.7" y="783.38" width="2.57" height="2.57" style="fill:#010101"/><rect x="534.27" y="783.38" width="2.57" height="2.57" style="fill:#010101"/><rect x="541.98" y="783.38" width="2.57" height="2.57" style="fill:#010101"/><rect x="547.13" y="783.38" width="2.57" height="2.57" style="fill:#010101"/><rect x="498.27" y="785.95" width="2.57" height="2.57" style="fill:#010101"/><rect x="503.42" y="785.95" width="2.57" height="2.57" style="fill:#010101"/><rect x="518.84" y="785.95" width="2.57" height="2.57" style="fill:#010101"/><rect x="523.98" y="785.95" width="2.57" height="2.57" style="fill:#010101"/><rect x="529.13" y="785.95" width="2.57" height="2.57" style="fill:#010101"/><rect x="534.27" y="785.95" width="2.57" height="2.57" style="fill:#010101"/><rect x="536.84" y="785.95" width="2.57" height="2.57" style="fill:#010101"/><rect x="539.41" y="785.95" width="2.57" height="2.57" style="fill:#010101"/><rect x="541.98" y="785.95" width="2.57" height="2.57" style="fill:#010101"/><rect x="547.13" y="785.95" width="2.57" height="2.57" style="fill:#010101"/><rect x="480.4" y="716.65" width="12.6" height="12.6" style="fill:none"/><path d="M493,714H477.7v18h18V714Zm0,15.3H480.4v-12.6H493Z" style="fill:#010101"/><rect x="536.97" y="716.65" width="12.6" height="12.6" style="fill:none"/><path d="M549.57,714h-15.3v18h18V714Zm0,15.3H537v-12.6h12.6Z" style="fill:#010101"/><rect x="480.4" y="773.22" width="12.6" height="12.6" style="fill:none"/><path d="M493,770.52H477.7v18h18v-18Zm0,15.3H480.4v-12.6H493Z" style="fill:#010101"/><rect x="482.85" y="719.1" width="7.71" height="7.71" style="fill:#010101"/><rect x="539.41" y="719.1" width="7.71" height="7.71" style="fill:#010101"/><rect x="482.85" y="775.66" width="7.71" height="7.71" style="fill:#010101"/></svg>