<svg xmlns="http://www.w3.org/2000/svg" viewBox="0 0 810.94 75.98"><defs><style>.a,.b{fill:none;stroke-miterlimit:10;}.a{stroke:#000;}.b{stroke:red;}</style></defs><title>Untitled-1</title><polygon class="a" points="19.92 26.68 777.92 26.68 778.54 26.68 778.54 19.72 810.04 39.56 778.84 62.27 778.84 54.27 18.34 54.27 18.34 26.68 19.92 26.68"/><line class="a" x1="18.34" y1="15.77" x2="18.34" y2="26.68"/><line class="a" x1="267" y1="15.35" x2="267" y2="54.35"/><line class="a" x1="515.59" y1="16.52" x2="515.59" y2="53.85"/><line class="a" x1="764.42" y1="15.68" x2="764.42" y2="54.18"/><path d="M32.16,35.52h0l-1.36.73-.2-.8,1.7-.91h.9v7.79h-1Z" transform="translate(-30.58 -33.82)"/><path d="M36.28,41.12a3.57,3.57,0,0,0,1.73.49c1.35,0,1.77-.86,1.76-1.51,0-1.09-1-1.56-2-1.56h-.59v-.79h.59c.76,0,1.73-.39,1.73-1.32,0-.62-.39-1.17-1.36-1.17a2.83,2.83,0,0,0-1.56.51L36.29,35a3.8,3.8,0,0,1,2-.59c1.54,0,2.23.91,2.23,1.85a1.94,1.94,0,0,1-1.44,1.84v0a2,2,0,0,1,1.74,2c0,1.24-1,2.33-2.84,2.33a4,4,0,0,1-2-.52Z" transform="translate(-30.58 -33.82)"/><path d="M47.37,38.35c0,2.65-1,4.11-2.72,4.11-1.52,0-2.55-1.42-2.57-4s1.12-4.05,2.71-4.05S47.37,35.87,47.37,38.35Zm-4.24.12c0,2,.63,3.18,1.58,3.18s1.6-1.26,1.6-3.25-.49-3.18-1.58-3.18C43.8,35.22,43.13,36.35,43.13,38.47Z" transform="translate(-30.58 -33.82)"/><path d="M53.52,38.35c0,2.65-1,4.11-2.71,4.11-1.52,0-2.55-1.42-2.58-4s1.13-4.05,2.71-4.05S53.52,35.87,53.52,38.35Zm-4.23.12c0,2,.62,3.18,1.58,3.18s1.6-1.26,1.6-3.25-.5-3.18-1.59-3.18C50,35.22,49.29,36.35,49.29,38.47Z" transform="translate(-30.58 -33.82)"/><path d="M57.38,38.34c0-.68,0-1.27-.05-1.81h.92l0,1.14h0a1.75,1.75,0,0,1,1.61-1.27,1.32,1.32,0,0,1,.3,0v1a1.28,1.28,0,0,0-.36,0,1.48,1.48,0,0,0-1.41,1.36,2.38,2.38,0,0,0,0,.49v3.09h-1Z" transform="translate(-30.58 -33.82)"/><path d="M66.43,39.38a2.83,2.83,0,0,1-2.89,3.08,2.76,2.76,0,0,1-2.78-3,2.83,2.83,0,0,1,2.88-3.08A2.74,2.74,0,0,1,66.43,39.38Zm-4.6.06c0,1.27.73,2.23,1.76,2.23s1.76-.94,1.76-2.25c0-1-.49-2.23-1.74-2.23S61.83,38.34,61.83,39.44Z" transform="translate(-30.58 -33.82)"/><path d="M68.81,39.19h0c.15-.2.35-.46.52-.66l1.7-2h1.28l-2.25,2.39,2.56,3.41H71.35l-2-2.78-.54.6v2.18h-1V33.82h1Z" transform="translate(-30.58 -33.82)"/><path d="M280.16,36.19h0l-1.36.73-.2-.8,1.7-.92h.9V43h-1Z" transform="translate(-30.58 -33.82)"/><path d="M287.29,43V40.88h-3.62v-.7l3.48-5h1.14v4.85h1.09v.83h-1.09V43Zm0-3v-2.6c0-.41,0-.82,0-1.23h0c-.24.46-.43.8-.65,1.16L284.74,40v0Z" transform="translate(-30.58 -33.82)"/><path d="M295.37,39c0,2.65-1,4.11-2.71,4.11-1.53,0-2.56-1.43-2.58-4s1.12-4.06,2.71-4.06S295.37,36.54,295.37,39Zm-4.24.12c0,2,.63,3.18,1.59,3.18s1.59-1.26,1.59-3.25-.49-3.18-1.58-3.18C291.8,35.89,291.13,37,291.13,39.14Z" transform="translate(-30.58 -33.82)"/><path d="M301.52,39c0,2.65-1,4.11-2.71,4.11-1.52,0-2.55-1.43-2.58-4s1.13-4.06,2.71-4.06S301.52,36.54,301.52,39Zm-4.23.12c0,2,.62,3.18,1.58,3.18s1.6-1.26,1.6-3.25-.5-3.18-1.59-3.18C298,35.89,297.29,37,297.29,39.14Z" transform="translate(-30.58 -33.82)"/><path d="M305.38,39c0-.69,0-1.28-.05-1.81h.92l0,1.13h0a1.74,1.74,0,0,1,1.6-1.27,1.28,1.28,0,0,1,.3,0v1a1.86,1.86,0,0,0-.36,0,1.47,1.47,0,0,0-1.41,1.35,2.57,2.57,0,0,0-.05.5V43h-1Z" transform="translate(-30.58 -33.82)"/><path d="M314.43,40.05a2.83,2.83,0,0,1-2.89,3.08,2.76,2.76,0,0,1-2.78-3,2.84,2.84,0,0,1,2.88-3.09A2.74,2.74,0,0,1,314.43,40.05Zm-4.6.06c0,1.27.73,2.23,1.76,2.23s1.76-1,1.76-2.25c0-1-.49-2.24-1.74-2.24S309.83,39,309.83,40.11Z" transform="translate(-30.58 -33.82)"/><path d="M316.81,39.86h0a7.77,7.77,0,0,1,.51-.66l1.7-2h1.28l-2.25,2.38L320.64,43h-1.29l-2-2.78-.54.6V43h-1V34.48h1Z" transform="translate(-30.58 -33.82)"/><path d="M208.83,98.85h0l-1.36.74-.2-.81,1.7-.91h.9v7.8h-1Z" transform="translate(-30.58 -33.82)"/><path d="M213,104.46a3.52,3.52,0,0,0,1.72.49c1.36,0,1.78-.87,1.77-1.51,0-1.1-1-1.56-2-1.56h-.59v-.79h.59c.77,0,1.74-.4,1.74-1.32,0-.63-.39-1.18-1.37-1.18a2.82,2.82,0,0,0-1.55.52l-.28-.77a3.71,3.71,0,0,1,2-.6c1.53,0,2.23.91,2.23,1.86a1.93,1.93,0,0,1-1.44,1.83v0a2,2,0,0,1,1.74,2c0,1.25-1,2.34-2.84,2.34a4,4,0,0,1-2-.53Z" transform="translate(-30.58 -33.82)"/><path d="M223.91,97.87v.7l-3.39,7.1h-1.09l3.38-6.9v0H219v-.88Z" transform="translate(-30.58 -33.82)"/><path d="M228.27,105.67v-2.13h-3.62v-.69l3.48-5h1.13v4.85h1.1v.82h-1.1v2.13Zm0-3v-2.61c0-.4,0-.81,0-1.22h0c-.24.46-.43.79-.65,1.15l-1.91,2.65v0Z" transform="translate(-30.58 -33.82)"/><path d="M234,101.67c0-.68,0-1.27,0-1.81h.93l0,1.14H235a1.75,1.75,0,0,1,1.61-1.27,1,1,0,0,1,.3,0v1a1.94,1.94,0,0,0-.36,0,1.49,1.49,0,0,0-1.42,1.35,3.47,3.47,0,0,0,0,.49v3.1H234Z" transform="translate(-30.58 -33.82)"/><path d="M243.1,102.72a2.84,2.84,0,0,1-2.89,3.08,2.76,2.76,0,0,1-2.78-3,2.83,2.83,0,0,1,2.88-3.08A2.75,2.75,0,0,1,243.1,102.72Zm-4.61.06c0,1.27.74,2.23,1.77,2.23s1.76-1,1.76-2.26c0-1-.49-2.23-1.74-2.23S238.49,101.67,238.49,102.78Z" transform="translate(-30.58 -33.82)"/><path d="M245.48,102.52h0c.15-.2.35-.45.52-.65l1.7-2H249l-2.24,2.39,2.55,3.42H248l-2-2.79-.54.6v2.19h-1V97.15h1Z" transform="translate(-30.58 -33.82)"/><path d="M529.5,36.85h0l-1.35.74-.21-.81,1.71-.91h.9v7.8h-1Z" transform="translate(-30.58 -33.82)"/><path d="M538,36.76h-3l-.3,2a4.75,4.75,0,0,1,.64,0,3.38,3.38,0,0,1,1.68.42,2.23,2.23,0,0,1,1.11,2,2.7,2.7,0,0,1-2.9,2.66,3.8,3.8,0,0,1-1.94-.48l.26-.8a3.51,3.51,0,0,0,1.67.43,1.72,1.72,0,0,0,1.84-1.69c0-1-.68-1.73-2.24-1.73a9.44,9.44,0,0,0-1.08.08l.51-3.74H538Z" transform="translate(-30.58 -33.82)"/><path d="M544.7,39.68c0,2.66-1,4.12-2.71,4.12-1.52,0-2.56-1.43-2.58-4s1.13-4,2.71-4S544.7,37.2,544.7,39.68Zm-4.23.12c0,2,.62,3.18,1.58,3.18s1.59-1.26,1.59-3.25-.49-3.18-1.58-3.18C541.14,36.55,540.47,37.68,540.47,39.8Z" transform="translate(-30.58 -33.82)"/><path d="M550.85,39.68c0,2.66-1,4.12-2.71,4.12-1.52,0-2.55-1.43-2.57-4s1.12-4,2.71-4S550.85,37.2,550.85,39.68Zm-4.23.12c0,2,.62,3.18,1.58,3.18s1.6-1.26,1.6-3.25-.49-3.18-1.58-3.18C547.29,36.55,546.62,37.68,546.62,39.8Z" transform="translate(-30.58 -33.82)"/><path d="M554.71,39.67c0-.68,0-1.27-.05-1.81h.92l0,1.14h0a1.74,1.74,0,0,1,1.61-1.27,1,1,0,0,1,.3,0v1a1.94,1.94,0,0,0-.36,0,1.47,1.47,0,0,0-1.42,1.35,3.37,3.37,0,0,0,0,.49v3.1h-1Z" transform="translate(-30.58 -33.82)"/><path d="M563.77,40.72a2.84,2.84,0,0,1-2.89,3.08,2.76,2.76,0,0,1-2.79-3A2.83,2.83,0,0,1,561,37.73,2.75,2.75,0,0,1,563.77,40.72Zm-4.61.06c0,1.27.73,2.23,1.76,2.23s1.77-.95,1.77-2.26c0-1-.49-2.23-1.74-2.23S559.16,39.67,559.16,40.78Z" transform="translate(-30.58 -33.82)"/><path d="M566.14,40.52h0c.14-.2.35-.45.51-.66l1.71-2h1.27l-2.24,2.39L570,43.67h-1.28l-2-2.79-.54.6v2.19h-1V35.15h1Z" transform="translate(-30.58 -33.82)"/><path d="M534.83,102.85h0l-1.36.74-.2-.81,1.7-.91h.9v7.8h-1Z" transform="translate(-30.58 -33.82)"/><path d="M543.35,102.76h-3l-.3,2a4.75,4.75,0,0,1,.64-.05,3.38,3.38,0,0,1,1.68.42,2.23,2.23,0,0,1,1.11,2,2.7,2.7,0,0,1-2.9,2.66,3.8,3.8,0,0,1-1.94-.48l.26-.8a3.54,3.54,0,0,0,1.67.43,1.72,1.72,0,0,0,1.85-1.69c0-1-.69-1.73-2.25-1.73a9.07,9.07,0,0,0-1.07.08l.5-3.74h3.73Z" transform="translate(-30.58 -33.82)"/><path d="M550,105.69c0,2.65-1,4.11-2.71,4.11-1.52,0-2.55-1.43-2.58-4s1.13-4.05,2.71-4.05S550,103.2,550,105.69Zm-4.23.11c0,2,.62,3.18,1.58,3.18s1.6-1.26,1.6-3.25-.49-3.18-1.59-3.18C546.47,102.55,545.8,103.68,545.8,105.8Z" transform="translate(-30.58 -33.82)"/><path d="M555.66,102.76h-3l-.3,2a4.58,4.58,0,0,1,.63-.05,3.38,3.38,0,0,1,1.68.42,2.24,2.24,0,0,1,1.12,2,2.71,2.71,0,0,1-2.91,2.66,3.8,3.8,0,0,1-1.94-.48l.26-.8a3.54,3.54,0,0,0,1.67.43,1.72,1.72,0,0,0,1.85-1.69c0-1-.68-1.73-2.24-1.73a9.09,9.09,0,0,0-1.08.08l.5-3.74h3.73Z" transform="translate(-30.58 -33.82)"/><path d="M560,105.67c0-.68,0-1.27,0-1.81h.93l0,1.14h0a1.75,1.75,0,0,1,1.61-1.27,1,1,0,0,1,.3,0v1a1.94,1.94,0,0,0-.36,0,1.49,1.49,0,0,0-1.42,1.35,3.47,3.47,0,0,0,0,.49v3.1H560Z" transform="translate(-30.58 -33.82)"/><path d="M569.1,106.72a2.84,2.84,0,0,1-2.89,3.08,2.76,2.76,0,0,1-2.78-3,2.83,2.83,0,0,1,2.88-3.08A2.75,2.75,0,0,1,569.1,106.72Zm-4.61.06c0,1.27.74,2.23,1.77,2.23s1.76-1,1.76-2.26c0-1-.49-2.23-1.74-2.23S564.49,105.67,564.49,106.78Z" transform="translate(-30.58 -33.82)"/><path d="M571.48,106.52h0c.15-.2.35-.45.52-.65l1.7-2H575l-2.24,2.39,2.55,3.42H574l-2-2.79-.54.6v2.19h-1.05v-8.52h1.05Z" transform="translate(-30.58 -33.82)"/><path d="M775.5,35.52h0l-1.35.73-.21-.8,1.71-.91h.9v7.79h-1Z" transform="translate(-30.58 -33.82)"/><path d="M783.81,35.28a3.83,3.83,0,0,0-.79,0,3.17,3.17,0,0,0-2.71,2.77h0a2.37,2.37,0,0,1,4.23,1.62A2.61,2.61,0,0,1,782,42.47c-1.67,0-2.76-1.3-2.76-3.33a4.89,4.89,0,0,1,1.32-3.51A4.22,4.22,0,0,1,783,34.48a4.93,4.93,0,0,1,.77-.06Zm-.3,4.5a1.58,1.58,0,0,0-1.6-1.79,1.76,1.76,0,0,0-1.52,1,.93.93,0,0,0-.12.47c0,1.28.62,2.23,1.72,2.23C782.9,41.65,783.51,40.89,783.51,39.78Z" transform="translate(-30.58 -33.82)"/><path d="M790.7,38.35c0,2.65-1,4.12-2.71,4.12-1.52,0-2.56-1.43-2.58-4s1.13-4.05,2.71-4.05S790.7,35.87,790.7,38.35Zm-4.23.12c0,2,.62,3.18,1.58,3.18s1.59-1.26,1.59-3.25-.49-3.18-1.58-3.18C787.14,35.22,786.47,36.35,786.47,38.47Z" transform="translate(-30.58 -33.82)"/><path d="M796.86,38.35c0,2.65-1,4.12-2.71,4.12-1.53,0-2.56-1.43-2.58-4s1.12-4.05,2.71-4.05S796.86,35.87,796.86,38.35Zm-4.24.12c0,2,.63,3.18,1.59,3.18s1.59-1.26,1.59-3.25-.49-3.18-1.58-3.18C793.29,35.22,792.62,36.35,792.62,38.47Z" transform="translate(-30.58 -33.82)"/><path d="M800.71,38.34c0-.68,0-1.27-.05-1.81h.92l0,1.14h0a1.74,1.74,0,0,1,1.61-1.27,1.39,1.39,0,0,1,.3,0v1a1.32,1.32,0,0,0-.36,0,1.49,1.49,0,0,0-1.42,1.36,3.37,3.37,0,0,0,0,.49v3.09h-1Z" transform="translate(-30.58 -33.82)"/><path d="M809.77,39.38a2.84,2.84,0,0,1-2.89,3.09,2.77,2.77,0,0,1-2.79-3A2.84,2.84,0,0,1,807,36.4,2.75,2.75,0,0,1,809.77,39.38Zm-4.61.06c0,1.27.73,2.23,1.76,2.23s1.77-.94,1.77-2.25c0-1-.49-2.23-1.74-2.23S805.16,38.34,805.16,39.44Z" transform="translate(-30.58 -33.82)"/><path d="M812.15,39.19h0c.14-.2.35-.45.52-.66l1.7-2h1.27l-2.24,2.39L816,42.33h-1.28l-2-2.78-.54.6v2.18h-1V33.82h1Z" transform="translate(-30.58 -33.82)"/><line class="b" x1="202.67" y1="26.68" x2="202.67" y2="62.93"/><line class="b" x1="528.92" y1="25.93" x2="528.92" y2="62.18"/></svg>