<?xml version="1.0" encoding="utf-8"?>
<!-- Generator: Adobe Illustrator 22.1.0, SVG Export Plug-In . SVG Version: 6.00 Build 0)  -->
<svg version="1.1" xmlns="http://www.w3.org/2000/svg" xmlns:xlink="http://www.w3.org/1999/xlink" x="0px" y="0px"
	 viewBox="0 0 771 332" style="enable-background:new 0 0 771 332;" xml:space="preserve">
<style type="text/css">
	.st0{fill:none;stroke:#000000;stroke-width:3;stroke-miterlimit:10;}
	.st1{fill:#5C92F2;}
</style>
<g id="Layer_2">
	<rect x="25.5" y="33.5" class="st0" width="324" height="268"/>
	<rect x="419.5" y="33.5" class="st0" width="324" height="268"/>
	<path class="st0" d="M25,160.5c2.3,1.3,5.9,2.8,10.3,3c5.1,0.3,8.5-1.3,13.4-3c13-4.5,12.9-1.5,20.7-5c10.4-4.6,10.3-9.7,19.6-12
		c5.2-1.3,6.1,0.1,13.4-1c8.5-1.2,14.2-4,18.6-6c2.7-1.2,28.3-12.3,54.8-11c7.2,0.4,11.5,1.5,12.4,4c1,2.8-2.6,6.4-6.2,10
		c-6.9,6.9-10.6,7.3-14.5,11c-7.4,7-9.3,19.6-6.2,29c3.4,10.4,12.5,15.7,21.7,21c11.3,6.5,13.6,3.8,27.9,12c5,2.9,8.9,5.6,16.5,9
		c6,2.7,9.6,4.3,14.5,5c7.8,1.1,10.2-1.3,21.7-3c11.6-1.7,11.8,0.5,26.9-1c10.2-1,15.3-1.5,20.7-4c9.5-4.4,15.3-11.8,18.6-16
		c3.8-4.9,3.9-6.4,9.3-14c4.1-5.7,7.8-10.1,10.3-13"/>
</g>
<g id="Layer_3">
	<path class="st0" d="M421.5,165.5C426,167,429,170,433,169c17-6,33-14,50-20c11-3,23-5,34-8c7-3,15-5,22-8s15-3,22-4
		c26-1,51-4,77-3c12,1,27,6,31,17c2,4-4,6-8,5c-13-6-24-19-40-16c-8,1-15,2-23,2c-22,2-43,17-48,40c-3,12,4,23,15,27c4,1,8,3,12,4
		c12,7,25,12,37,19c2,2,4,4,6,5c8,3,16,2,25,0c17-3,34,2,49-6c17-9,26-26,38-41c3-3,8-5,12.1-8.1"/>
	<path class="st0" d="M687.5,155.5c-0.5-0.6-3.7-3.8-5-3c-1.2,0.7-0.7,4.4,1,7c2.3,3.4,6.9,5.1,8,4
		C692.6,162.4,690,158.1,687.5,155.5z"/>
	<g>
		<g>
			<path class="st1" d="M132.7,114.8c5.4-0.8,10.2-4,15.3-5.9c5.9-2.1,11.8-4.1,17.8-5.6c12.8-3.2,26-4.5,39.1-5
				c12.7-0.5,25.5,0.1,38,2.6c13,2.6,23.5,8.1,34.5,15.4c0.3-0.9,0.5-1.9,0.8-2.8c-0.5,0-1,0-1.5,0c-1.9,0-1.9,3,0,3
				c0.5,0,1,0,1.5,0c1.6,0,2-2,0.8-2.8c-10.7-7-20.8-12.6-33.4-15.3c-12.7-2.7-25.7-3.5-38.7-3.1c-13,0.4-26.2,1.6-39,4.5
				c-6.2,1.4-12.2,3.3-18.2,5.4c-5.8,2-11.7,5.8-17.7,6.7C130,112.2,130.8,115.1,132.7,114.8L132.7,114.8z"/>
		</g>
	</g>
	<g>
		<g>
			<path class="st1" d="M277.9,104.6c-0.6,3.8-0.9,7.5-1.1,11.3c0.5-0.5,1-1,1.5-1.5c-5.8,0.2-11.5-0.7-17.3-1.3
				c-1.9-0.2-1.9,2.8,0,3c5.8,0.6,11.5,1.5,17.3,1.3c0.8,0,1.5-0.7,1.5-1.5c0.2-3.5,0.5-7,1-10.6
				C281.1,103.5,278.2,102.7,277.9,104.6L277.9,104.6z"/>
		</g>
	</g>
	<g>
		<g>
			<path class="st1" d="M526.7,115.4c6.2-7.1,18.7-8.9,27.6-10.2c12.9-2,26.3-2.2,39.3-3c12.7-0.8,25.7-1.5,38.4-0.1
				c13.6,1.5,27.2,4.5,40.6,7.4c1.9,0.4,2.7-2.5,0.8-2.9c-13.4-2.9-26.9-5.8-40.5-7.4c-14.3-1.7-28.9-0.7-43.1,0.2
				c-13,0.9-26.2,0.9-39,3.3c-8.8,1.6-20,3.5-26.1,10.6C523.3,114.7,525.5,116.9,526.7,115.4L526.7,115.4z"/>
		</g>
	</g>
	<g>
		<g>
			<path class="st1" d="M670,94.9c-0.4-0.6-0.7-1.1-1.2-1.6c-1-1.2-2.9,0.1-2.5,1.5c1.5,5.6,4.4,10.5,6.9,15.7
				c0.3-0.7,0.6-1.5,0.9-2.2c-2.9,0.8-5.9,0.5-8.7,1.4c-2.4,0.8-4.5,2.3-6.8,3.4c-1.7,0.8-0.2,3.4,1.5,2.6c2.7-1.2,5-2.9,7.9-3.5
				c2.3-0.4,4.6-0.4,6.9-1c1-0.3,1.3-1.3,0.9-2.2c-2.4-4.9-5.2-9.7-6.6-15c-0.8,0.5-1.7,1-2.5,1.5c0.2,0.3,0.5,0.7,0.7,1
				C668.4,98,671,96.5,670,94.9L670,94.9z"/>
		</g>
	</g>
</g>
</svg>
