<?xml version="1.0" encoding="utf-8"?>
<!-- Generator: Adobe Illustrator 22.1.0, SVG Export Plug-In . SVG Version: 6.00 Build 0)  -->
<svg version="1.1" xmlns="http://www.w3.org/2000/svg" xmlns:xlink="http://www.w3.org/1999/xlink" x="0px" y="0px"
	 viewBox="0 0 534 138" style="enable-background:new 0 0 534 138;" xml:space="preserve">
<style type="text/css">
	.st0{display:none;}
	.st1{fill:none;stroke:#000000;stroke-miterlimit:10;}
</style>
<g id="Layer_1" class="st0">
	
		<image style="display:inline;overflow:visible;" width="524" height="96" xlink:href="CEDC28FD.jpg"  transform="matrix(1 0 0 1 4 23)">
	</image>
</g>
<g id="Layer_2">
	<path class="st1" d="M140,66H23c-6.6,0-12-5.4-12-12V42c0-6.6,5.4-12,12-12h117c6.6,0,12,5.4,12,12v12C152,60.6,146.6,66,140,66z"
		/>
	<path class="st1" d="M141.5,111.5h-117c-6.6,0-12-5.4-12-12v-12c0-6.6,5.4-12,12-12h117c6.6,0,12,5.4,12,12v12
		C153.5,106.1,148.1,111.5,141.5,111.5z"/>
	<path class="st1" d="M301.5,65.5h-93c-6.6,0-12-5.4-12-12v-12c0-6.6,5.4-12,12-12h93c6.6,0,12,5.4,12,12v12
		C313.5,60.1,308.1,65.5,301.5,65.5z"/>
	<path class="st1" d="M302.5,111.5h-93c-6.6,0-12-5.4-12-12v-12c0-6.6,5.4-12,12-12h93c6.6,0,12,5.4,12,12v12
		C314.5,106.1,309.1,111.5,302.5,111.5z"/>
	<path class="st1" d="M462.5,65.5h-93c-6.6,0-12-5.4-12-12v-12c0-6.6,5.4-12,12-12h93c6.6,0,12,5.4,12,12v12
		C474.5,60.1,469.1,65.5,462.5,65.5z"/>
	<path class="st1" d="M497.5,111.5h-132c-6.6,0-12-5.4-12-12v-12c0-6.6,5.4-12,12-12h132c6.6,0,12,5.4,12,12v12
		C509.5,106.1,504.1,111.5,497.5,111.5z"/>
	<g>
		<path d="M27.3,52v-2.1h-3.6v-0.7l3.5-5h1.1V49h1.1v0.8h-1.1V52H27.3z M27.3,49v-2.6c0-0.4,0-0.8,0-1.2h0c-0.2,0.5-0.4,0.8-0.6,1.2
			L24.7,49v0H27.3z"/>
		<path d="M33.1,44c0.5-0.1,1.2-0.2,2-0.2c1,0,1.8,0.2,2.3,0.7c0.4,0.4,0.7,1,0.7,1.7c0,0.7-0.2,1.3-0.6,1.7
			c-0.6,0.6-1.5,0.9-2.5,0.9c-0.3,0-0.6,0-0.8-0.1V52h-1V44z M34.2,47.9C34.4,48,34.7,48,35,48c1.3,0,2-0.6,2-1.7
			c0-1.1-0.8-1.6-1.9-1.6c-0.5,0-0.8,0-1,0.1V47.9z"/>
		<path d="M44.4,49c0,2.1-1.5,3.1-2.9,3.1c-1.6,0-2.8-1.2-2.8-3c0-1.9,1.3-3.1,2.9-3.1C43.3,46.1,44.4,47.3,44.4,49z M39.8,49.1
			c0,1.3,0.7,2.2,1.8,2.2c1,0,1.8-0.9,1.8-2.3c0-1-0.5-2.2-1.7-2.2C40.3,46.9,39.8,48,39.8,49.1z"/>
		<path d="M46.1,46.2l0.8,3c0.2,0.6,0.3,1.2,0.4,1.8h0c0.1-0.6,0.3-1.2,0.5-1.8l0.9-3h0.9l0.9,2.9c0.2,0.7,0.4,1.3,0.5,1.9h0
			c0.1-0.6,0.3-1.2,0.4-1.9l0.8-2.9h1L51.6,52h-1l-0.9-2.8c-0.2-0.6-0.4-1.2-0.5-1.9h0c-0.1,0.7-0.3,1.3-0.5,1.9L47.7,52h-1L45,46.2
			H46.1z"/>
		<path d="M54.3,50.9c0.3,0.2,0.9,0.4,1.4,0.4c0.8,0,1.1-0.4,1.1-0.9c0-0.5-0.3-0.8-1.1-1.1c-1-0.4-1.5-0.9-1.5-1.6
			c0-0.9,0.8-1.7,2-1.7c0.6,0,1.1,0.2,1.4,0.4l-0.3,0.8c-0.2-0.1-0.6-0.3-1.2-0.3c-0.6,0-1,0.4-1,0.8c0,0.5,0.3,0.7,1.1,1
			c1,0.4,1.5,0.9,1.5,1.8c0,1-0.8,1.7-2.2,1.7c-0.6,0-1.2-0.2-1.6-0.4L54.3,50.9z"/>
		<path d="M60.4,44.5v1.7H62V47h-1.5v3.1c0,0.7,0.2,1.1,0.8,1.1c0.3,0,0.5,0,0.6-0.1l0,0.8c-0.2,0.1-0.5,0.1-0.9,0.1
			c-0.5,0-0.9-0.2-1.1-0.4c-0.3-0.3-0.4-0.8-0.4-1.5V47h-0.9v-0.8h0.9v-1.4L60.4,44.5z"/>
		<path d="M66.4,52l-0.1-0.7h0c-0.3,0.5-0.9,0.9-1.8,0.9c-1.2,0-1.8-0.8-1.8-1.7c0-1.4,1.2-2.2,3.5-2.2v-0.1c0-0.5-0.1-1.3-1.3-1.3
			c-0.5,0-1.1,0.2-1.5,0.4l-0.2-0.7c0.5-0.3,1.2-0.5,1.9-0.5c1.8,0,2.2,1.2,2.2,2.4v2.2c0,0.5,0,1,0.1,1.4H66.4z M66.2,49
			c-1.2,0-2.5,0.2-2.5,1.3c0,0.7,0.5,1,1,1c0.8,0,1.2-0.5,1.4-1c0-0.1,0.1-0.2,0.1-0.3V49z"/>
		<path d="M68.9,47.8c0-0.6,0-1.1,0-1.6h0.9l0.1,1h0c0.3-0.6,1-1.1,1.9-1.1c0.8,0,2.1,0.5,2.1,2.5V52h-1.1v-3.3
			c0-0.9-0.3-1.7-1.3-1.7c-0.7,0-1.2,0.5-1.4,1.1c0,0.1-0.1,0.3-0.1,0.5V52h-1.1V47.8z"/>
		<path d="M76.8,44.6c0,0.4-0.3,0.6-0.7,0.6c-0.4,0-0.6-0.3-0.6-0.6c0-0.4,0.3-0.7,0.7-0.7C76.5,43.9,76.8,44.2,76.8,44.6z M75.6,52
			v-5.8h1.1V52H75.6z"/>
		<path d="M79,49.3c0,1.4,0.9,2,2,2c0.8,0,1.2-0.1,1.6-0.3l0.2,0.8c-0.4,0.2-1,0.4-1.9,0.4c-1.8,0-2.9-1.2-2.9-2.9s1-3.1,2.7-3.1
			c1.9,0,2.4,1.7,2.4,2.7c0,0.2,0,0.4,0,0.5H79z M82.1,48.5c0-0.7-0.3-1.7-1.5-1.7c-1.1,0-1.5,1-1.6,1.7H82.1z"/>
		<path d="M92.2,49c0,2.1-1.5,3.1-2.9,3.1c-1.6,0-2.8-1.2-2.8-3c0-1.9,1.3-3.1,2.9-3.1C91.1,46.1,92.2,47.3,92.2,49z M87.6,49.1
			c0,1.3,0.7,2.2,1.8,2.2c1,0,1.8-0.9,1.8-2.3c0-1-0.5-2.2-1.7-2.2C88.1,46.9,87.6,48,87.6,49.1z"/>
		<path d="M93.9,46.2l0.8,3c0.2,0.6,0.3,1.2,0.4,1.8h0c0.1-0.6,0.3-1.2,0.5-1.8l0.9-3h0.9l0.9,2.9c0.2,0.7,0.4,1.3,0.5,1.9h0
			c0.1-0.6,0.3-1.2,0.4-1.9l0.8-2.9h1L99.4,52h-1l-0.9-2.8c-0.2-0.6-0.4-1.2-0.5-1.9h0c-0.1,0.7-0.3,1.3-0.5,1.9L95.5,52h-1
			l-1.8-5.8H93.9z"/>
		<path d="M107.4,49c0,2.1-1.5,3.1-2.9,3.1c-1.6,0-2.8-1.2-2.8-3c0-1.9,1.3-3.1,2.9-3.1C106.3,46.1,107.4,47.3,107.4,49z
			 M102.8,49.1c0,1.3,0.7,2.2,1.8,2.2c1,0,1.8-0.9,1.8-2.3c0-1-0.5-2.2-1.7-2.2C103.4,46.9,102.8,48,102.8,49.1z"/>
		<path d="M112.9,51.8c-0.3,0.1-0.9,0.3-1.7,0.3c-1.8,0-2.9-1.2-2.9-3c0-1.8,1.2-3.1,3.1-3.1c0.6,0,1.2,0.2,1.5,0.3l-0.2,0.8
			c-0.3-0.1-0.6-0.3-1.2-0.3c-1.3,0-2.1,1-2.1,2.2c0,1.3,0.9,2.2,2,2.2c0.6,0,1-0.2,1.3-0.3L112.9,51.8z"/>
		<path d="M119,50.4c0,0.6,0,1.1,0,1.6h-0.9l-0.1-0.9h0c-0.3,0.5-0.9,1.1-1.9,1.1c-0.9,0-2-0.5-2-2.5v-3.4h1.1v3.2
			c0,1.1,0.3,1.8,1.3,1.8c0.7,0,1.2-0.5,1.4-1c0.1-0.2,0.1-0.3,0.1-0.5v-3.6h1.1V50.4z"/>
	</g>
	<g>
		<path d="M27.5,90.9c-0.2,0-0.5,0-0.8,0c-1.7,0.3-2.5,1.5-2.7,2.8h0c0.4-0.5,1-0.9,1.9-0.9c1.4,0,2.4,1,2.4,2.5
			c0,1.4-1,2.7-2.6,2.7c-1.7,0-2.8-1.3-2.8-3.3c0-1.5,0.6-2.7,1.3-3.5c0.6-0.6,1.5-1,2.5-1.2c0.3,0,0.6-0.1,0.8-0.1V90.9z
			 M27.2,95.4c0-1.1-0.6-1.8-1.6-1.8c-0.6,0-1.2,0.4-1.5,1C24,94.7,24,94.9,24,95.1c0,1.3,0.6,2.2,1.7,2.2
			C26.6,97.3,27.2,96.6,27.2,95.4z"/>
		<path d="M32.1,89.9h1v3.9h0c0.2-0.3,0.4-0.6,0.6-0.9l2.5-3h1.3l-2.9,3.4l3.2,4.7h-1.2l-2.7-4l-0.8,0.9V98h-1V89.9z"/>
		<path d="M39.9,90.6c0,0.4-0.3,0.6-0.7,0.6c-0.4,0-0.6-0.3-0.6-0.6c0-0.4,0.3-0.7,0.7-0.7C39.6,89.9,39.9,90.2,39.9,90.6z M38.7,98
			v-5.8h1.1V98H38.7z"/>
		<path d="M42.1,95.3c0,1.4,0.9,2,2,2c0.8,0,1.2-0.1,1.6-0.3l0.2,0.8c-0.4,0.2-1,0.4-1.9,0.4c-1.8,0-2.9-1.2-2.9-2.9s1-3.1,2.7-3.1
			c1.9,0,2.4,1.7,2.4,2.7c0,0.2,0,0.4,0,0.5H42.1z M45.2,94.5c0-0.7-0.3-1.7-1.5-1.7c-1.1,0-1.5,1-1.6,1.7H45.2z"/>
		<path d="M47.6,98v-3.5l-0.8,0.7v-0.8l0.8-0.7v-4.2h1.1v3.4l0.9-0.7V93l-0.9,0.7V98H47.6z"/>
		<path d="M51.5,94.9L51.5,94.9c0.2-0.2,0.4-0.5,0.5-0.7l1.7-2H55l-2.2,2.4l2.6,3.4H54l-2-2.8l-0.5,0.6V98h-1v-8.5h1V94.9z"/>
		<path d="M61.3,95c0,2.1-1.5,3.1-2.9,3.1c-1.6,0-2.8-1.2-2.8-3c0-1.9,1.3-3.1,2.9-3.1C60.2,92.1,61.3,93.3,61.3,95z M56.7,95.1
			c0,1.3,0.7,2.2,1.8,2.2c1,0,1.8-0.9,1.8-2.3c0-1-0.5-2.2-1.7-2.2C57.2,92.9,56.7,94,56.7,95.1z"/>
		<path d="M63,92.2l0.8,3c0.2,0.6,0.3,1.2,0.4,1.8h0c0.1-0.6,0.3-1.2,0.5-1.8l0.9-3h0.9l0.9,2.9c0.2,0.7,0.4,1.3,0.5,1.9h0
			c0.1-0.6,0.3-1.2,0.4-1.9l0.8-2.9h1L68.5,98h-1l-0.9-2.8c-0.2-0.6-0.4-1.2-0.5-1.9h0c-0.1,0.7-0.3,1.3-0.5,1.9L64.6,98h-1
			l-1.8-5.8H63z"/>
		<path d="M74.6,98l-0.1-0.7h0c-0.3,0.5-0.9,0.9-1.8,0.9c-1.2,0-1.8-0.8-1.8-1.7c0-1.4,1.2-2.2,3.5-2.2v-0.1c0-0.5-0.1-1.3-1.3-1.3
			c-0.5,0-1.1,0.2-1.5,0.4l-0.2-0.7c0.5-0.3,1.2-0.5,1.9-0.5c1.8,0,2.2,1.2,2.2,2.4v2.2c0,0.5,0,1,0.1,1.4H74.6z M74.4,95
			c-1.2,0-2.5,0.2-2.5,1.3c0,0.7,0.5,1,1,1c0.8,0,1.2-0.5,1.4-1c0-0.1,0.1-0.2,0.1-0.3V95z"/>
		<path d="M77.1,93.8c0-0.6,0-1.1,0-1.6H78l0.1,1h0c0.3-0.6,1-1.1,1.9-1.1c0.8,0,2.1,0.5,2.1,2.5V98H81v-3.3c0-0.9-0.3-1.7-1.3-1.7
			c-0.7,0-1.2,0.5-1.4,1.1c0,0.1-0.1,0.3-0.1,0.5V98h-1.1V93.8z"/>
		<path d="M85,90.6c0,0.4-0.3,0.6-0.7,0.6c-0.4,0-0.6-0.3-0.6-0.6c0-0.4,0.3-0.7,0.7-0.7C84.7,89.9,85,90.2,85,90.6z M83.8,98v-5.8
			h1.1V98H83.8z"/>
		<path d="M87.2,95.3c0,1.4,0.9,2,2,2c0.8,0,1.2-0.1,1.6-0.3l0.2,0.8c-0.4,0.2-1,0.4-1.9,0.4c-1.8,0-2.9-1.2-2.9-2.9s1-3.1,2.7-3.1
			c1.9,0,2.4,1.7,2.4,2.7c0,0.2,0,0.4,0,0.5H87.2z M90.3,94.5c0-0.7-0.3-1.7-1.5-1.7c-1.1,0-1.5,1-1.6,1.7H90.3z"/>
		<path d="M95.1,93.8c0-0.6,0-1.1,0-1.6H96l0.1,1h0c0.3-0.6,1-1.1,1.9-1.1c0.8,0,2.1,0.5,2.1,2.5V98H99v-3.3c0-0.9-0.3-1.7-1.3-1.7
			c-0.7,0-1.2,0.5-1.4,1.1c0,0.1-0.1,0.3-0.1,0.5V98h-1.1V93.8z"/>
		<path d="M105,98l-0.1-0.7h0c-0.3,0.5-0.9,0.9-1.8,0.9c-1.2,0-1.8-0.8-1.8-1.7c0-1.4,1.2-2.2,3.5-2.2v-0.1c0-0.5-0.1-1.3-1.3-1.3
			c-0.5,0-1.1,0.2-1.5,0.4l-0.2-0.7c0.5-0.3,1.2-0.5,1.9-0.5c1.8,0,2.2,1.2,2.2,2.4v2.2c0,0.5,0,1,0.1,1.4H105z M104.9,95
			c-1.2,0-2.5,0.2-2.5,1.3c0,0.7,0.5,1,1,1c0.8,0,1.2-0.5,1.4-1c0-0.1,0.1-0.2,0.1-0.3V95z"/>
		<path d="M107.4,96.9c0.3,0.2,0.9,0.4,1.4,0.4c0.8,0,1.1-0.4,1.1-0.9c0-0.5-0.3-0.8-1.1-1.1c-1-0.4-1.5-0.9-1.5-1.6
			c0-0.9,0.8-1.7,2-1.7c0.6,0,1.1,0.2,1.4,0.4l-0.3,0.8c-0.2-0.1-0.6-0.3-1.2-0.3c-0.6,0-1,0.4-1,0.8c0,0.5,0.3,0.7,1.1,1
			c1,0.4,1.5,0.9,1.5,1.8c0,1-0.8,1.7-2.2,1.7c-0.6,0-1.2-0.2-1.6-0.4L107.4,96.9z"/>
		<path d="M113.5,90.6c0,0.4-0.3,0.6-0.7,0.6c-0.4,0-0.6-0.3-0.6-0.6c0-0.4,0.3-0.7,0.7-0.7C113.3,89.9,113.5,90.2,113.5,90.6z
			 M112.3,98v-5.8h1.1V98H112.3z"/>
		<path d="M120.4,95c0,2.1-1.5,3.1-2.9,3.1c-1.6,0-2.8-1.2-2.8-3c0-1.9,1.3-3.1,2.9-3.1C119.3,92.1,120.4,93.3,120.4,95z
			 M115.8,95.1c0,1.3,0.7,2.2,1.8,2.2c1,0,1.8-0.9,1.8-2.3c0-1-0.5-2.2-1.7-2.2C116.3,92.9,115.8,94,115.8,95.1z"/>
		<path d="M121.7,93.8c0-0.6,0-1.1,0-1.6h0.9l0.1,1h0c0.3-0.6,1-1.1,1.9-1.1c0.8,0,2.1,0.5,2.1,2.5V98h-1.1v-3.3
			c0-0.9-0.3-1.7-1.3-1.7c-0.7,0-1.2,0.5-1.4,1.1c0,0.1-0.1,0.3-0.1,0.5V98h-1.1V93.8z"/>
	</g>
	<g>
		<path d="M222.5,53v-0.6l0.8-0.8c2-1.9,2.9-2.9,2.9-4.1c0-0.8-0.4-1.5-1.5-1.5c-0.7,0-1.3,0.4-1.7,0.7l-0.3-0.7
			c0.5-0.5,1.3-0.8,2.2-0.8c1.7,0,2.4,1.2,2.4,2.3c0,1.4-1,2.6-2.7,4.2l-0.6,0.6v0h3.5V53H222.5z"/>
		<path d="M231.1,52.4l4.5-6.6v0h-4.1v-0.9h5.5v0.6l-4.5,6.5v0h4.5V53h-5.9V52.4z"/>
		<path d="M241.4,53l-0.1-0.7h0c-0.3,0.5-0.9,0.9-1.8,0.9c-1.2,0-1.8-0.8-1.8-1.7c0-1.4,1.2-2.2,3.5-2.2v-0.1c0-0.5-0.1-1.3-1.3-1.3
			c-0.5,0-1.1,0.2-1.5,0.4l-0.2-0.7c0.5-0.3,1.2-0.5,1.9-0.5c1.8,0,2.2,1.2,2.2,2.4v2.2c0,0.5,0,1,0.1,1.4H241.4z M241.3,50
			c-1.2,0-2.5,0.2-2.5,1.3c0,0.7,0.5,1,1,1c0.8,0,1.2-0.5,1.4-1c0-0.1,0.1-0.2,0.1-0.3V50z"/>
		<path d="M244,49.1c0-0.7,0-1.3,0-1.9h0.9l0,1h0c0.4-0.7,1.1-1.1,2.1-1.1c1.4,0,2.5,1.2,2.5,3c0,2.1-1.3,3.1-2.6,3.1
			c-0.8,0-1.4-0.3-1.8-0.9h0v3.2h-1V49.1z M245,50.6c0,0.2,0,0.3,0,0.4c0.2,0.7,0.8,1.2,1.6,1.2c1.1,0,1.8-0.9,1.8-2.2
			c0-1.2-0.6-2.2-1.7-2.2c-0.7,0-1.4,0.5-1.6,1.3c0,0.1-0.1,0.3-0.1,0.4V50.6z"/>
		<path d="M251.1,47.2l1.3,3.4c0.1,0.4,0.3,0.8,0.4,1.2h0c0.1-0.3,0.2-0.8,0.4-1.2l1.2-3.4h1.1l-1.6,4.1c-0.8,2-1.3,3-2,3.6
			c-0.5,0.5-1,0.6-1.3,0.7l-0.3-0.9c0.3-0.1,0.6-0.3,0.9-0.5c0.3-0.2,0.6-0.6,0.9-1.2c0-0.1,0.1-0.2,0.1-0.3c0-0.1,0-0.1-0.1-0.3
			l-2.1-5.3H251.1z"/>
		<path d="M256.4,44.5h1.1V53h-1.1V44.5z"/>
		<path d="M259.8,50.3c0,1.4,0.9,2,2,2c0.8,0,1.2-0.1,1.6-0.3l0.2,0.8c-0.4,0.2-1,0.4-1.9,0.4c-1.8,0-2.9-1.2-2.9-2.9s1-3.1,2.7-3.1
			c1.9,0,2.4,1.7,2.4,2.7c0,0.2,0,0.4,0,0.5H259.8z M262.9,49.5c0-0.7-0.3-1.7-1.5-1.7c-1.1,0-1.5,1-1.6,1.7H262.9z"/>
		<path d="M265.2,48.8c0-0.6,0-1.1,0-1.6h0.9l0.1,1h0c0.3-0.6,1-1.1,1.9-1.1c0.8,0,2.1,0.5,2.1,2.5V53h-1.1v-3.3
			c0-0.9-0.3-1.7-1.3-1.7c-0.7,0-1.2,0.5-1.4,1.1c0,0.1-0.1,0.3-0.1,0.5V53h-1.1V48.8z"/>
		<path d="M273.1,45.6c0,0.4-0.3,0.6-0.7,0.6c-0.4,0-0.6-0.3-0.6-0.6c0-0.4,0.3-0.7,0.7-0.7C272.8,44.9,273.1,45.2,273.1,45.6z
			 M271.9,53v-5.8h1.1V53H271.9z"/>
		<path d="M275.3,50.3c0,1.4,0.9,2,2,2c0.8,0,1.2-0.1,1.6-0.3l0.2,0.8c-0.4,0.2-1,0.4-1.9,0.4c-1.8,0-2.9-1.2-2.9-2.9s1-3.1,2.7-3.1
			c1.9,0,2.4,1.7,2.4,2.7c0,0.2,0,0.4,0,0.5H275.3z M278.4,49.5c0-0.7-0.3-1.7-1.5-1.7c-1.1,0-1.5,1-1.6,1.7H278.4z"/>
	</g>
	<g>
		<path d="M215.3,96.3c0.3,0.2,1,0.5,1.7,0.5c1.4,0,1.8-0.9,1.8-1.5c0-1.1-1-1.6-2-1.6h-0.6v-0.8h0.6c0.8,0,1.7-0.4,1.7-1.3
			c0-0.6-0.4-1.2-1.4-1.2c-0.6,0-1.2,0.3-1.6,0.5l-0.3-0.8c0.4-0.3,1.2-0.6,2-0.6c1.5,0,2.2,0.9,2.2,1.9c0,0.8-0.5,1.5-1.4,1.8v0
			c1,0.2,1.7,0.9,1.7,2c0,1.2-1,2.3-2.8,2.3c-0.9,0-1.6-0.3-2-0.5L215.3,96.3z"/>
		<path d="M223.6,96.9l4.5-6.6v0h-4.1v-0.9h5.5v0.6l-4.5,6.5v0h4.5v0.9h-5.9V96.9z"/>
		<path d="M233.9,97.5l-0.1-0.7h0c-0.3,0.5-0.9,0.9-1.8,0.9c-1.2,0-1.8-0.8-1.8-1.7c0-1.4,1.2-2.2,3.5-2.2v-0.1
			c0-0.5-0.1-1.3-1.3-1.3c-0.5,0-1.1,0.2-1.5,0.4l-0.2-0.7c0.5-0.3,1.2-0.5,1.9-0.5c1.8,0,2.2,1.2,2.2,2.4v2.2c0,0.5,0,1,0.1,1.4
			H233.9z M233.8,94.5c-1.2,0-2.5,0.2-2.5,1.3c0,0.7,0.5,1,1,1c0.8,0,1.2-0.5,1.4-1c0-0.1,0.1-0.2,0.1-0.3V94.5z"/>
		<path d="M236.5,93.6c0-0.7,0-1.3,0-1.9h0.9l0,1h0c0.4-0.7,1.1-1.1,2.1-1.1c1.4,0,2.5,1.2,2.5,3c0,2.1-1.3,3.1-2.6,3.1
			c-0.8,0-1.4-0.3-1.8-0.9h0v3.2h-1V93.6z M237.5,95.1c0,0.2,0,0.3,0,0.4c0.2,0.7,0.8,1.2,1.6,1.2c1.1,0,1.8-0.9,1.8-2.2
			c0-1.2-0.6-2.2-1.7-2.2c-0.7,0-1.4,0.5-1.6,1.3c0,0.1-0.1,0.3-0.1,0.4V95.1z"/>
		<path d="M248.6,94.5c0,2.1-1.5,3.1-2.9,3.1c-1.6,0-2.8-1.2-2.8-3c0-1.9,1.3-3.1,2.9-3.1C247.4,91.6,248.6,92.8,248.6,94.5z
			 M244,94.6c0,1.3,0.7,2.2,1.8,2.2c1,0,1.8-0.9,1.8-2.3c0-1-0.5-2.2-1.7-2.2C244.5,92.4,244,93.5,244,94.6z"/>
		<path d="M254.9,89v7c0,0.5,0,1.1,0,1.5H254l0-1h0c-0.3,0.6-1,1.1-2,1.1c-1.4,0-2.5-1.2-2.5-3c0-1.9,1.2-3.1,2.6-3.1
			c0.9,0,1.5,0.4,1.8,0.9h0V89H254.9z M253.9,94.1c0-0.1,0-0.3,0-0.4c-0.2-0.7-0.7-1.2-1.5-1.2c-1.1,0-1.7,1-1.7,2.2
			c0,1.2,0.6,2.1,1.7,2.1c0.7,0,1.4-0.5,1.5-1.3c0-0.1,0-0.3,0-0.5V94.1z"/>
		<path d="M256.7,93.3c0-0.6,0-1.1,0-1.6h0.9l0.1,1h0c0.3-0.6,1-1.1,1.9-1.1c0.8,0,2.1,0.5,2.1,2.5v3.5h-1.1v-3.3
			c0-0.9-0.3-1.7-1.3-1.7c-0.7,0-1.2,0.5-1.4,1.1c0,0.1-0.1,0.3-0.1,0.5v3.5h-1.1V93.3z"/>
		<path d="M264.5,90.1c0,0.4-0.3,0.6-0.7,0.6c-0.4,0-0.6-0.3-0.6-0.6c0-0.4,0.3-0.7,0.7-0.7C264.3,89.4,264.5,89.7,264.5,90.1z
			 M263.3,97.5v-5.8h1.1v5.8H263.3z"/>
		<path d="M266.7,94.8c0,1.4,0.9,2,2,2c0.8,0,1.2-0.1,1.6-0.3l0.2,0.8c-0.4,0.2-1,0.4-1.9,0.4c-1.8,0-2.9-1.2-2.9-2.9s1-3.1,2.7-3.1
			c1.9,0,2.4,1.7,2.4,2.7c0,0.2,0,0.4,0,0.5H266.7z M269.8,94c0-0.7-0.3-1.7-1.5-1.7c-1.1,0-1.5,1-1.6,1.7H269.8z"/>
		<path d="M272.2,93.3c0-0.6,0-1.1,0-1.6h0.9l0.1,1h0c0.3-0.6,1-1.1,1.9-1.1c0.8,0,2.1,0.5,2.1,2.5v3.5H276v-3.3
			c0-0.9-0.3-1.7-1.3-1.7c-0.7,0-1.2,0.5-1.4,1.1c0,0.1-0.1,0.3-0.1,0.5v3.5h-1.1V93.3z"/>
		<path d="M280,90.1c0,0.4-0.3,0.6-0.7,0.6c-0.4,0-0.6-0.3-0.6-0.6c0-0.4,0.3-0.7,0.7-0.7C279.7,89.4,280,89.7,280,90.1z
			 M278.8,97.5v-5.8h1.1v5.8H278.8z"/>
		<path d="M282.2,94.8c0,1.4,0.9,2,2,2c0.8,0,1.2-0.1,1.6-0.3l0.2,0.8c-0.4,0.2-1,0.4-1.9,0.4c-1.8,0-2.9-1.2-2.9-2.9s1-3.1,2.7-3.1
			c1.9,0,2.4,1.7,2.4,2.7c0,0.2,0,0.4,0,0.5H282.2z M285.3,94c0-0.7-0.3-1.7-1.5-1.7c-1.1,0-1.5,1-1.6,1.7H285.3z"/>
	</g>
	<g>
		<path d="M372.3,43.7L372.3,43.7l-1.4,0.7l-0.2-0.8l1.7-0.9h0.9v7.8h-1V43.7z"/>
		<path d="M379.1,42.4h1v3.9h0c0.2-0.3,0.4-0.6,0.6-0.9l2.5-3h1.3l-2.9,3.4l3.2,4.7h-1.2l-2.7-4l-0.8,0.9v3.1h-1V42.4z"/>
		<path d="M385.8,44.7l0.8,3c0.2,0.6,0.3,1.2,0.4,1.8h0c0.1-0.6,0.3-1.2,0.5-1.8l0.9-3h0.9l0.9,2.9c0.2,0.7,0.4,1.3,0.5,1.9h0
			c0.1-0.6,0.3-1.2,0.4-1.9l0.8-2.9h1l-1.9,5.8h-1l-0.9-2.8c-0.2-0.6-0.4-1.2-0.5-1.9h0c-0.1,0.7-0.3,1.3-0.5,1.9l-0.9,2.8h-1
			l-1.8-5.8H385.8z"/>
		<path d="M395.4,43.1c0,0.4-0.3,0.6-0.7,0.6c-0.4,0-0.6-0.3-0.6-0.6c0-0.4,0.3-0.7,0.7-0.7C395.1,42.4,395.4,42.7,395.4,43.1z
			 M394.2,50.5v-5.8h1.1v5.8H394.2z"/>
		<path d="M398.3,43v1.7h1.5v0.8h-1.5v3.1c0,0.7,0.2,1.1,0.8,1.1c0.3,0,0.5,0,0.6-0.1l0,0.8c-0.2,0.1-0.5,0.1-0.9,0.1
			c-0.5,0-0.9-0.2-1.1-0.4c-0.3-0.3-0.4-0.8-0.4-1.5v-3.2h-0.9v-0.8h0.9v-1.4L398.3,43z"/>
		<path d="M401,46.3c0-0.6,0-1.1,0-1.6h0.9l0.1,1h0c0.3-0.6,1-1.1,1.9-1.1c0.8,0,2.1,0.5,2.1,2.5v3.5h-1.1v-3.3
			c0-0.9-0.3-1.7-1.3-1.7c-0.7,0-1.2,0.5-1.4,1.1c0,0.1-0.1,0.3-0.1,0.5v3.5H401V46.3z"/>
		<path d="M408.8,43.1c0,0.4-0.3,0.6-0.7,0.6c-0.4,0-0.6-0.3-0.6-0.6c0-0.4,0.3-0.7,0.7-0.7C408.6,42.4,408.8,42.7,408.8,43.1z
			 M407.7,50.5v-5.8h1.1v5.8H407.7z"/>
		<path d="M411.1,47.8c0,1.4,0.9,2,2,2c0.8,0,1.2-0.1,1.6-0.3l0.2,0.8c-0.4,0.2-1,0.4-1.9,0.4c-1.8,0-2.9-1.2-2.9-2.9s1-3.1,2.7-3.1
			c1.9,0,2.4,1.7,2.4,2.7c0,0.2,0,0.4,0,0.5H411.1z M414.1,47c0-0.7-0.3-1.7-1.5-1.7c-1.1,0-1.5,1-1.6,1.7H414.1z"/>
		<path d="M416.5,46.3c0-0.6,0-1.1,0-1.6h0.9l0.1,1h0c0.3-0.6,1-1.1,1.9-1.1c0.8,0,2.1,0.5,2.1,2.5v3.5h-1.1v-3.3
			c0-0.9-0.3-1.7-1.3-1.7c-0.7,0-1.2,0.5-1.4,1.1c0,0.1-0.1,0.3-0.1,0.5v3.5h-1.1V46.3z"/>
		<path d="M424.3,43.1c0,0.4-0.3,0.6-0.7,0.6c-0.4,0-0.6-0.3-0.6-0.6c0-0.4,0.3-0.7,0.7-0.7C424.1,42.4,424.3,42.7,424.3,43.1z
			 M423.1,50.5v-5.8h1.1v5.8H423.1z"/>
		<path d="M426.5,47.8c0,1.4,0.9,2,2,2c0.8,0,1.2-0.1,1.6-0.3l0.2,0.8c-0.4,0.2-1,0.4-1.9,0.4c-1.8,0-2.9-1.2-2.9-2.9s1-3.1,2.7-3.1
			c1.9,0,2.4,1.7,2.4,2.7c0,0.2,0,0.4,0,0.5H426.5z M429.6,47c0-0.7-0.3-1.7-1.5-1.7c-1.1,0-1.5,1-1.6,1.7H429.6z"/>
	</g>
	<g>
		<path d="M376.2,89.1h-3l-0.3,2c0.2,0,0.3,0,0.6,0c0.6,0,1.2,0.1,1.7,0.4c0.6,0.3,1.1,1,1.1,2c0,1.5-1.2,2.7-2.9,2.7
			c-0.9,0-1.6-0.2-1.9-0.5l0.3-0.8c0.3,0.2,1,0.4,1.7,0.4c1,0,1.8-0.6,1.8-1.7c0-1-0.7-1.7-2.2-1.7c-0.4,0-0.8,0-1.1,0.1l0.5-3.7
			h3.7V89.1z"/>
		<path d="M380.6,88c0.5-0.1,1.2-0.2,2-0.2c1,0,1.8,0.2,2.3,0.7c0.4,0.4,0.7,1,0.7,1.7c0,0.7-0.2,1.3-0.6,1.7
			c-0.6,0.6-1.5,0.9-2.5,0.9c-0.3,0-0.6,0-0.8-0.1V96h-1V88z M381.7,91.9c0.2,0.1,0.5,0.1,0.9,0.1c1.3,0,2-0.6,2-1.7
			c0-1.1-0.8-1.6-1.9-1.6c-0.5,0-0.8,0-1,0.1V91.9z"/>
		<path d="M386.8,92c0-0.7,0-1.3,0-1.8h0.9l0,1.1h0c0.3-0.8,0.9-1.3,1.6-1.3c0.1,0,0.2,0,0.3,0v1c-0.1,0-0.2,0-0.4,0
			c-0.7,0-1.3,0.6-1.4,1.4c0,0.1,0,0.3,0,0.5V96h-1V92z"/>
		<path d="M390.1,95.4l2.6-3.4c0.3-0.3,0.5-0.6,0.8-0.9v0h-3.1v-0.9h4.4l0,0.7l-2.6,3.4c-0.2,0.3-0.5,0.6-0.7,0.9v0h3.4V96h-4.7
			V95.4z"/>
		<path d="M396.4,93.3c0,1.4,0.9,2,2,2c0.8,0,1.2-0.1,1.6-0.3l0.2,0.8c-0.4,0.2-1,0.4-1.9,0.4c-1.8,0-2.9-1.2-2.9-2.9s1-3.1,2.7-3.1
			c1.9,0,2.4,1.7,2.4,2.7c0,0.2,0,0.4,0,0.5H396.4z M399.5,92.5c0-0.7-0.3-1.7-1.5-1.7c-1.1,0-1.5,1-1.6,1.7H399.5z"/>
		<path d="M401.9,91.8c0-0.6,0-1.1,0-1.6h0.9l0.1,1h0c0.3-0.6,1-1.1,1.9-1.1c0.8,0,2.1,0.5,2.1,2.5V96h-1.1v-3.3
			c0-0.9-0.3-1.7-1.3-1.7c-0.7,0-1.2,0.5-1.4,1.1c0,0.1-0.1,0.3-0.1,0.5V96h-1.1V91.8z"/>
		<path d="M413.8,93c0,2.1-1.5,3.1-2.9,3.1c-1.6,0-2.8-1.2-2.8-3c0-1.9,1.3-3.1,2.9-3.1C412.6,90.1,413.8,91.3,413.8,93z
			 M409.2,93.1c0,1.3,0.7,2.2,1.8,2.2c1,0,1.8-0.9,1.8-2.3c0-1-0.5-2.2-1.7-2.2C409.7,90.9,409.2,92,409.2,93.1z"/>
		<path d="M415,94.9c0.3,0.2,0.9,0.4,1.4,0.4c0.8,0,1.1-0.4,1.1-0.9c0-0.5-0.3-0.8-1.1-1.1c-1-0.4-1.5-0.9-1.5-1.6
			c0-0.9,0.8-1.7,2-1.7c0.6,0,1.1,0.2,1.4,0.4l-0.3,0.8c-0.2-0.1-0.6-0.3-1.2-0.3c-0.6,0-1,0.4-1,0.8c0,0.5,0.3,0.7,1.1,1
			c1,0.4,1.5,0.9,1.5,1.8c0,1-0.8,1.7-2.2,1.7c-0.6,0-1.2-0.2-1.6-0.4L415,94.9z"/>
		<path d="M419.2,95.4l2.6-3.4c0.3-0.3,0.5-0.6,0.8-0.9v0h-3.1v-0.9h4.4l0,0.7l-2.6,3.4c-0.2,0.3-0.5,0.6-0.7,0.9v0h3.4V96h-4.7
			V95.4z"/>
		<path d="M425.5,93.3c0,1.4,0.9,2,2,2c0.8,0,1.2-0.1,1.6-0.3l0.2,0.8c-0.4,0.2-1,0.4-1.9,0.4c-1.8,0-2.9-1.2-2.9-2.9s1-3.1,2.7-3.1
			c1.9,0,2.4,1.7,2.4,2.7c0,0.2,0,0.4,0,0.5H425.5z M428.6,92.5c0-0.7-0.3-1.7-1.5-1.7c-1.1,0-1.5,1-1.6,1.7H428.6z"/>
		<path d="M430.9,91.8c0-0.6,0-1.1,0-1.6h0.9l0.1,1h0c0.3-0.6,1-1.1,1.9-1.1c0.8,0,2.1,0.5,2.1,2.5V96h-1.1v-3.3
			c0-0.9-0.3-1.7-1.3-1.7c-0.7,0-1.2,0.5-1.4,1.1c0,0.1-0.1,0.3-0.1,0.5V96h-1.1V91.8z"/>
		<path d="M438.8,88.6c0,0.4-0.3,0.6-0.7,0.6c-0.4,0-0.6-0.3-0.6-0.6c0-0.4,0.3-0.7,0.7-0.7C438.5,87.9,438.8,88.2,438.8,88.6z
			 M437.6,96v-5.8h1.1V96H437.6z"/>
		<path d="M441,93.3c0,1.4,0.9,2,2,2c0.8,0,1.2-0.1,1.6-0.3l0.2,0.8c-0.4,0.2-1,0.4-1.9,0.4c-1.8,0-2.9-1.2-2.9-2.9s1-3.1,2.7-3.1
			c1.9,0,2.4,1.7,2.4,2.7c0,0.2,0,0.4,0,0.5H441z M444.1,92.5c0-0.7-0.3-1.7-1.5-1.7c-1.1,0-1.5,1-1.6,1.7H444.1z"/>
		<path d="M454.2,93c0,2.1-1.5,3.1-2.9,3.1c-1.6,0-2.8-1.2-2.8-3c0-1.9,1.3-3.1,2.9-3.1C453.1,90.1,454.2,91.3,454.2,93z
			 M449.6,93.1c0,1.3,0.7,2.2,1.8,2.2c1,0,1.8-0.9,1.8-2.3c0-1-0.5-2.2-1.7-2.2C450.1,90.9,449.6,92,449.6,93.1z"/>
		<path d="M455.9,90.2l0.8,3c0.2,0.6,0.3,1.2,0.4,1.8h0c0.1-0.6,0.3-1.2,0.5-1.8l0.9-3h0.9l0.9,2.9c0.2,0.7,0.4,1.3,0.5,1.9h0
			c0.1-0.6,0.3-1.2,0.4-1.9l0.8-2.9h1l-1.9,5.8h-1l-0.9-2.8c-0.2-0.6-0.4-1.2-0.5-1.9h0c-0.1,0.7-0.3,1.3-0.5,1.9l-0.9,2.8h-1
			l-1.8-5.8H455.9z"/>
		<path d="M469.4,93c0,2.1-1.5,3.1-2.9,3.1c-1.6,0-2.8-1.2-2.8-3c0-1.9,1.3-3.1,2.9-3.1C468.3,90.1,469.4,91.3,469.4,93z
			 M464.8,93.1c0,1.3,0.7,2.2,1.8,2.2c1,0,1.8-0.9,1.8-2.3c0-1-0.5-2.2-1.7-2.2C465.4,90.9,464.8,92,464.8,93.1z"/>
		<path d="M474.9,95.8c-0.3,0.1-0.9,0.3-1.7,0.3c-1.8,0-2.9-1.2-2.9-3c0-1.8,1.2-3.1,3.1-3.1c0.6,0,1.2,0.2,1.5,0.3l-0.2,0.8
			c-0.3-0.1-0.6-0.3-1.2-0.3c-1.3,0-2.1,1-2.1,2.2c0,1.3,0.9,2.2,2,2.2c0.6,0,1-0.2,1.3-0.3L474.9,95.8z"/>
		<path d="M481.3,93c0,2.1-1.5,3.1-2.9,3.1c-1.6,0-2.8-1.2-2.8-3c0-1.9,1.3-3.1,2.9-3.1C480.2,90.1,481.3,91.3,481.3,93z
			 M476.7,93.1c0,1.3,0.7,2.2,1.8,2.2c1,0,1.8-0.9,1.8-2.3c0-1-0.5-2.2-1.7-2.2C477.2,90.9,476.7,92,476.7,93.1z M480.1,87.7
			l-1.5,1.7h-0.8l1.1-1.7H480.1z"/>
		<path d="M483,90.2l0.8,3c0.2,0.6,0.3,1.2,0.4,1.8h0c0.1-0.6,0.3-1.2,0.5-1.8l0.9-3h0.9l0.9,2.9c0.2,0.7,0.4,1.3,0.5,1.9h0
			c0.1-0.6,0.3-1.2,0.4-1.9l0.8-2.9h1l-1.9,5.8h-1l-0.9-2.8c-0.2-0.6-0.4-1.2-0.5-1.9h0c-0.1,0.7-0.3,1.3-0.5,1.9l-0.9,2.8h-1
			l-1.8-5.8H483z"/>
	</g>
	<g>
	</g>
	<g>
	</g>
	<g>
	</g>
	<g>
	</g>
	<g>
	</g>
	<g>
	</g>
	<g>
	</g>
	<g>
	</g>
	<g>
	</g>
	<g>
	</g>
	<g>
	</g>
	<g>
	</g>
	<g>
	</g>
	<g>
	</g>
	<g>
	</g>
</g>
</svg>
