<?xml version="1.0" encoding="UTF-8" standalone="no"?>
<!DOCTYPE svg PUBLIC "-//W3C//DTD SVG 1.1//EN" "http://www.w3.org/Graphics/SVG/1.1/DTD/svg11.dtd">
<svg xmlns="http://www.w3.org/2000/svg" xmlns:xlink="http://www.w3.org/1999/xlink" version="1.1" width="595.32pt" height="841.92pt" viewBox="0 0 595.32 841.92">
<g enable-background="new">
<g>
<g id="Layer-1" data-name="P">
<clipPath id="cp0">
<path transform="matrix(1,0,0,-1,0,841.92)" d="M .000008871 0 L 595.32 0 L 595.32 841.92 L .000008871 841.92 Z " fill-rule="evenodd"/>
</clipPath>
<g clip-path="url(#cp0)">
<symbol id="font_1_3ed">
<path d="M .36767579 .033203126 C .36767579 .027018229 .3671875 .021809897 .36621095 .017578125 C .36523438 .0133463549 .36393229 .009928386 .3623047 .0073242189 C .3606771 .0047200524 .35872398 .002766927 .3564453 .0014648438 C .3544922 .00048828127 .3523763 0 .35009767 0 L .020019532 0 C .017740885 0 .015625 .00048828127 .013671875 .0014648438 C .01171875 .002766927 .009765625 .0047200524 .0078125 .0073242189 C .006184896 .009928386 .0048828127 .0133463549 .00390625 .017578125 C .0029296876 .021809897 .0024414063 .027018229 .0024414063 .033203126 C .0024414063 .0390625 .0029296876 .044108076 .00390625 .048339845 C .0048828127 .052571615 .0060221354 .055989583 .0073242189 .05859375 C .008951823 .061523439 .0107421879 .06363932 .0126953129 .064941409 C .014973958 .06656901 .017415366 .06738281 .020019532 .06738281 L .15185547 .06738281 L .15185547 .54785159 L .029785157 .47509767 C .02360026 .47184245 .018554688 .4698893 .0146484379 .46923829 C .011067708 .46858726 .0081380209 .46923829 .005859375 .4711914 C .0035807293 .47347007 .001953125 .47705079 .0009765625 .4819336 C .00032552085 .4868164 0 .4930013 0 .5004883 C 0 .50602218 .00016276042 .5107422 .00048828127 .51464846 C .0011393229 .5185547 .001953125 .5218099 .0029296876 .52441409 C .00390625 .52701827 .0052083337 .5292969 .0068359377 .53125 C .0087890629 .5332031 .011230469 .53515627 .014160156 .5371094 L .15966797 .6303711 C .16097005 .63134768 .16259766 .63216146 .16455078 .6328125 C .1665039 .63346359 .16894531 .63411459 .171875 .6347656 C .17480469 .6354167 .17822266 .6357422 .1821289 .6357422 C .18603516 .6360677 .19091797 .63623049 .19677735 .63623049 C .20458985 .63623049 .21110027 .63590499 .2163086 .6352539 C .22151692 .63460287 .22558594 .6336263 .22851563 .6323242 C .23144531 .63134768 .23339844 .6298828 .234375 .6279297 C .23535156 .62630209 .23583985 .6245117 .23583985 .6225586 L .23583985 .06738281 L .35009767 .06738281 C .3527018 .06738281 .35514323 .06656901 .35742188 .064941409 C .35970054 .06363932 .36149089 .061523439 .36279298 .05859375 C .36442057 .055989583 .3655599 .052571615 .36621095 .048339845 C .3671875 .044108076 .36767579 .0390625 .36767579 .033203126 Z "/>
</symbol>
<symbol id="font_1_358">
<path d="M .10498047 .057617189 C .10498047 .034505208 .10107422 .019042969 .09326172 .011230469 C .08577474 .0037434896 .0719401 0 .051757814 0 C .032226564 0 .018717448 .0037434896 .011230469 .011230469 C .0037434896 .018717448 0 .033691408 0 .056152345 C 0 .07926432 .0037434896 .094563808 .011230469 .10205078 C .019042969 .10986328 .033040365 .11376953 .053222658 .11376953 C .072753909 .11376953 .08626302 .11002604 .09375 .10253906 C .10123698 .095052089 .10498047 .080078128 .10498047 .057617189 Z "/>
</symbol>
<symbol id="font_1_3">
<path d="M 0 0 Z "/>
</symbol>
<symbol id="font_1_57">
<path d="M .3881836 .44970704 C .3881836 .4181315 .38297526 .38964845 .3725586 .3642578 C .36214195 .3388672 .34716798 .31722007 .32763673 .2993164 C .308431 .28141276 .28466798 .26757813 .25634767 .2578125 C .22835286 .24804688 .19482422 .24316406 .15576172 .24316406 L .083984378 .24316406 L .083984378 .015625 C .083984378 .013020833 .08317057 .0107421879 .08154297 .0087890629 C .08024088 .0068359377 .07796224 .0052083337 .07470703 .00390625 C .071777347 .0029296876 .06754557 .0021158856 .06201172 .0014648438 C .056803388 .00048828127 .050130208 0 .041992189 0 C .033854169 0 .027018229 .00048828127 .021484375 .0014648438 C .016276041 .0021158856 .0120442709 .0029296876 .0087890629 .00390625 C .005533854 .0052083337 .0032552083 .0068359377 .001953125 .0087890629 C .0006510417 .0107421879 0 .013020833 0 .015625 L 0 .5986328 C 0 .6116536 .0034179688 .62093099 .010253906 .62646487 C .017089844 .6319987 .024739584 .6347656 .033203126 .6347656 L .16845703 .6347656 C .1821289 .6347656 .19514974 .63411459 .20751953 .6328125 C .22021485 .63183596 .23502605 .62939456 .25195313 .6254883 C .26920573 .62190756 .2866211 .6149089 .30419923 .6044922 C .32210288 .59440109 .3372396 .58186849 .34960938 .56689456 C .36197917 .5519206 .37141929 .5345052 .3779297 .51464846 C .38476563 .4951172 .3881836 .47347007 .3881836 .44970704 M .2998047 .4428711 C .2998047 .46858726 .29492188 .49007163 .28515626 .5073242 C .27571617 .52457687 .26383464 .5374349 .24951172 .54589846 C .23551433 .554362 .22086589 .5597331 .2055664 .5620117 C .19059246 .56429037 .17594402 .5654297 .1616211 .5654297 L .083984378 .5654297 L .083984378 .31201173 L .15966797 .31201173 C .1850586 .31201173 .20605469 .31526695 .22265625 .32177735 C .23958333 .32828776 .2537435 .3372396 .26513673 .3486328 C .27652995 .36035157 .28515626 .3741862 .29101563 .39013673 C .296875 .40641276 .2998047 .42399089 .2998047 .4428711 Z "/>
</symbol>
<symbol id="font_1_17d">
<path d="M .43945313 .24609375 C .43945313 .21028646 .43473307 .1772461 .42529298 .14697266 C .41585288 .11702474 .40169273 .091145839 .3828125 .06933594 C .3642578 .047526044 .3408203 .030436198 .3125 .018066407 C .28450523 .0060221354 .25195313 0 .21484375 0 C .17871094 0 .14713542 .0053710939 .12011719 .016113282 C .09342448 .026855469 .071126308 .04248047 .053222658 .06298828 C .03531901 .083496097 .021972657 .10839844 .013183594 .13769531 C .0043945314 .16699219 0 .20019531 0 .23730469 C 0 .27311198 .0045572917 .3059896 .013671875 .3359375 C .023111979 .36621095 .037109376 .3922526 .055664064 .4140625 C .07454427 .4358724 .09798177 .45279948 .12597656 .46484376 C .15397136 .47688804 .1866862 .48291017 .2241211 .48291017 C .2602539 .48291017 .29166667 .47753907 .31835938 .46679688 C .3453776 .4560547 .36783854 .4404297 .3857422 .41992188 C .40364585 .39941407 .4169922 .37451173 .42578126 .34521485 C .43489585 .31591798 .43945313 .2828776 .43945313 .24609375 M .3544922 .24072266 C .3544922 .2644857 .35221354 .28694663 .34765626 .30810548 C .34342448 .3292643 .33626304 .347819 .32617188 .36376954 C .31608073 .37972007 .30240885 .3922526 .28515626 .4013672 C .26790367 .41080729 .24641927 .41552735 .22070313 .41552735 C .19694011 .41552735 .1764323 .41129557 .15917969 .40283204 C .14225261 .3943685 .1282552 .38232423 .1171875 .36669923 C .10611979 .35139976 .09781901 .33317057 .092285159 .31201173 C .08707682 .29085288 .084472659 .26774089 .084472659 .24267578 C .084472659 .21858724 .08658854 .19596355 .09082031 .17480469 C .0953776 .15364583 .10270182 .13509114 .11279297 .119140628 C .12320963 .103515628 .13704427 .09098307 .15429688 .08154297 C .17154949 .07242838 .19303386 .067871097 .21875 .067871097 C .2421875 .067871097 .26253257 .07210287 .27978517 .080566409 C .29703776 .089029949 .3111979 .10091146 .32226563 .11621094 C .33333335 .13151042 .34147135 .14973958 .3466797 .17089844 C .35188804 .1920573 .3544922 .21533203 .3544922 .24072266 Z "/>
</symbol>
<symbol id="font_1_11a">
<path d="M .40429688 .021484375 C .40429688 .018880209 .40364585 .016601563 .40234376 .0146484379 C .4013672 .0126953129 .39941407 .011067708 .39648438 .009765625 C .39388023 .0087890629 .39029948 .007975261 .3857422 .0073242189 C .3811849 .0066731774 .37565104 .0063476564 .36914063 .0063476564 C .3623047 .0063476564 .35660807 .0066731774 .35205079 .0073242189 C .3474935 .007975261 .34375 .0087890629 .3408203 .009765625 C .33789063 .011067708 .33577476 .0126953129 .33447267 .0146484379 C .33317057 .016601563 .33251954 .018880209 .33251954 .021484375 L .33251954 .079589847 C .30940757 .05452474 .285319 .03499349 .2602539 .020996094 C .23551433 .0069986979 .20833333 0 .17871094 0 C .14648438 0 .11897787 .006184896 .096191409 .018554688 C .073404949 .03125 .05485026 .048177083 .040527345 .06933594 C .026529948 .09082031 .016276041 .115885417 .009765625 .14453125 C .0032552083 .17350261 0 .2039388 0 .23583985 C 0 .27360026 .0040690104 .3076172 .012207031 .33789063 C .020345053 .3684896 .032389326 .39453126 .048339845 .41601563 C .06429037 .4375 .083984378 .4539388 .107421878 .46533204 C .13118489 .47705079 .15852864 .48291017 .18945313 .48291017 C .21516927 .48291017 .23860677 .47721354 .25976563 .4658203 C .28125 .4547526 .30240885 .4383138 .3232422 .4165039 L .3232422 .671875 C .3232422 .6741536 .32373048 .67626956 .32470704 .67822268 C .32600913 .6805013 .32828776 .6821289 .33154298 .68310549 C .3347982 .68440756 .3388672 .6853841 .34375 .68603518 C .34895835 .6870117 .35546876 .6875 .36328126 .6875 C .37141929 .6875 .37809245 .6870117 .38330079 .68603518 C .38850913 .6853841 .39257813 .68440756 .3955078 .68310549 C .3984375 .6821289 .40055339 .6805013 .40185548 .67822268 C .40348307 .67626956 .40429688 .6741536 .40429688 .671875 L .40429688 .021484375 M .3232422 .3305664 C .30143229 .35758464 .28027345 .37809245 .25976563 .39208985 C .23958333 .40641276 .21842449 .41357423 .19628906 .41357423 C .17578125 .41357423 .15836589 .4086914 .14404297 .39892579 C .12972005 .38916017 .118001308 .3763021 .10888672 .36035157 C .100097659 .34440104 .09358724 .32633464 .08935547 .30615235 C .08544922 .28597007 .083496097 .26546226 .083496097 .2446289 C .083496097 .22249349 .085123699 .20084636 .088378909 .1796875 C .09195963 .15852864 .09798177 .13964844 .10644531 .123046878 C .11490885 .106770839 .12613933 .09358724 .14013672 .083496097 C .15413411 .07373047 .17171224 .068847659 .1928711 .068847659 C .20361328 .068847659 .21386719 .0703125 .22363281 .07324219 C .23372396 .076171878 .24397786 .08105469 .25439454 .087890628 C .2648112 .09472656 .27571617 .103515628 .28710938 .11425781 C .2985026 .12532552 .31054688 .13883464 .3232422 .15478516 L .3232422 .3305664 Z "/>
</symbol>
<symbol id="font_1_16c">
<path d="M .36083985 .015625 C .36083985 .013020833 .3601888 .0107421879 .35888673 .0087890629 C .35758464 .0068359377 .355306 .0052083337 .35205079 .00390625 C .3491211 .0026041668 .3448893 .0016276041 .33935548 .0009765625 C .33382163 .00032552085 .3268229 0 .31835938 0 C .3095703 0 .3022461 .00032552085 .29638673 .0009765625 C .29085288 .0013020834 .2861328 .001953125 .28222657 .0029296876 C .2783203 .004231771 .2750651 .005859375 .27246095 .0078125 C .27018229 .0100911459 .2680664 .0126953129 .26611329 .015625 L .080566409 .25878907 L .080566409 .015136719 C .080566409 .012532552 .07991537 .010253906 .07861328 .008300781 C .077311199 .0066731774 .07519531 .0052083337 .072265628 .00390625 C .06933594 .0026041668 .06526693 .0016276041 .060058595 .0009765625 C .05485026 .00032552085 .048177083 0 .040039064 0 C .032226564 0 .025716147 .00032552085 .020507813 .0009765625 C .0152994799 .0016276041 .011067708 .0026041668 .0078125 .00390625 C .0048828127 .0052083337 .002766927 .0066731774 .0014648438 .008300781 C .00048828127 .010253906 0 .012532552 0 .015136719 L 0 .66748049 C 0 .67008468 .00048828127 .6723633 .0014648438 .6743164 C .002766927 .67626956 .0048828127 .67789718 .0078125 .6791992 C .011067708 .6805013 .0152994799 .68147787 .020507813 .6821289 C .025716147 .68277999 .032226564 .68310549 .040039064 .68310549 C .048177083 .68310549 .05485026 .68277999 .060058595 .6821289 C .06526693 .68147787 .06933594 .6805013 .072265628 .6791992 C .07519531 .67789718 .077311199 .67626956 .07861328 .6743164 C .07991537 .6723633 .080566409 .67008468 .080566409 .66748049 L .080566409 .27001954 L .24658203 .45263673 C .2491862 .45589195 .25195313 .4584961 .2548828 .46044923 C .2578125 .46272788 .26123048 .46451823 .26513673 .4658203 C .2693685 .4674479 .2742513 .46842448 .27978517 .46875 C .285319 .46940104 .2919922 .46972657 .2998047 .46972657 C .30794273 .46972657 .31477867 .46940104 .3203125 .46875 C .32584635 .46842448 .33024089 .4676107 .3334961 .4663086 C .3370768 .46533204 .33951823 .4638672 .3408203 .46191407 C .3424479 .46028648 .34326173 .4580078 .34326173 .45507813 C .34326173 .45117188 .3421224 .44726563 .33984376 .44335938 C .33789063 .43945313 .33447267 .43489585 .32958985 .4296875 L .17041016 .2705078 L .3491211 .03857422 C .35335288 .033040365 .35628257 .028483073 .35791017 .024902344 C .35986329 .021647135 .36083985 .018554688 .36083985 .015625 Z "/>
</symbol>
<symbol id="font_1_18c">
<path d="M .25683595 .42578126 C .25683595 .41861979 .2566732 .41259767 .25634767 .40771485 C .25602214 .40283204 .2553711 .39892579 .25439454 .3959961 C .25341798 .39339195 .25211589 .39127604 .25048829 .38964845 C .2491862 .38834635 .24723308 .3876953 .2446289 .3876953 C .24202474 .3876953 .23876953 .38834635 .23486328 .38964845 C .23128255 .39127604 .22705078 .39274089 .22216797 .39404298 C .21761067 .39567057 .21240235 .3971354 .20654297 .3984375 C .2006836 .3997396 .19433594 .40039063 .1875 .40039063 C .17936199 .40039063 .17138672 .39876304 .16357422 .3955078 C .15576172 .3922526 .14746094 .3868815 .13867188 .37939454 C .13020833 .37190757 .12125651 .36197917 .111816409 .34960938 C .102376308 .3372396 .09195963 .32210288 .080566409 .30419923 L .080566409 .015136719 C .080566409 .012532552 .07991537 .010253906 .07861328 .008300781 C .077311199 .0066731774 .07519531 .0052083337 .072265628 .00390625 C .06933594 .0026041668 .06526693 .0016276041 .060058595 .0009765625 C .05485026 .00032552085 .048177083 0 .040039064 0 C .032226564 0 .025716147 .00032552085 .020507813 .0009765625 C .0152994799 .0016276041 .011067708 .0026041668 .0078125 .00390625 C .0048828127 .0052083337 .002766927 .0066731774 .0014648438 .008300781 C .00048828127 .010253906 0 .012532552 0 .015136719 L 0 .45458985 C 0 .457194 .00048828127 .4593099 .0014648438 .4609375 C .0024414063 .46289063 .0043945314 .46451823 .0073242189 .4658203 C .010253906 .4674479 .0139973959 .46842448 .018554688 .46875 C .023111979 .46940104 .029134116 .46972657 .036621095 .46972657 C .04378255 .46972657 .049641927 .46940104 .05419922 .46875 C .05908203 .46842448 .06282552 .4674479 .06542969 .4658203 C .06803385 .46451823 .06982422 .46289063 .07080078 .4609375 C .07210287 .4593099 .072753909 .457194 .072753909 .45458985 L .072753909 .390625 C .08479818 .40820313 .09602865 .42252604 .10644531 .43359376 C .1171875 .44466148 .12727864 .45328776 .13671875 .45947267 C .14615886 .46598307 .1554362 .4703776 .16455078 .47265626 C .17399089 .4752604 .18343099 .4765625 .1928711 .4765625 C .19710286 .4765625 .20182292 .47623698 .20703125 .47558595 C .21256511 .4752604 .21826172 .47444663 .2241211 .47314454 C .22998047 .47184245 .2351888 .4703776 .2397461 .46875 C .2446289 .4671224 .24804688 .46549479 .25 .4638672 C .25195313 .4622396 .25325523 .46061198 .25390626 .45898438 C .25455729 .45768229 .25504557 .45589195 .2553711 .45361329 C .25602214 .45133464 .25634767 .44791667 .25634767 .44335938 C .2566732 .4391276 .25683595 .43326823 .25683595 .42578126 Z "/>
</symbol>
<symbol id="font_1_11e">
<path d="M .40429688 .2602539 C .40429688 .2475586 .40104167 .23844402 .39453126 .23291016 C .38834635 .22770183 .3811849 .22509766 .37304688 .22509766 L .08496094 .22509766 C .08496094 .2006836 .087402347 .17871094 .092285159 .15917969 C .09716797 .13964844 .10530599 .12288412 .11669922 .10888672 C .12809246 .09488932 .14290364 .08414713 .16113281 .076660159 C .17936199 .06917318 .20166016 .06542969 .22802735 .06542969 C .24886067 .06542969 .26741538 .06705729 .2836914 .0703125 C .29996745 .07389323 .31396485 .07779948 .3256836 .08203125 C .33772788 .08626302 .3474935 .09000651 .35498048 .09326172 C .36279298 .096842449 .36865235 .09863281 .3725586 .09863281 C .37483726 .09863281 .37679038 .09798177 .37841798 .09667969 C .3803711 .095703128 .38183595 .09407552 .3828125 .091796878 C .38378907 .08951823 .3844401 .08626302 .38476563 .08203125 C .38541667 .078125 .3857422 .07324219 .3857422 .06738281 C .3857422 .06315104 .38557945 .05940755 .3852539 .056152345 C .38492839 .053222658 .3844401 .05045573 .38378907 .047851564 C .38346354 .045572919 .38264976 .04345703 .38134767 .041503908 C .3803711 .03955078 .37890626 .037597658 .37695313 .03564453 C .37532554 .034016927 .3701172 .03108724 .36132813 .026855469 C .35253907 .022949219 .34114585 .019042969 .32714845 .015136719 C .31315104 .011230469 .296875 .0078125 .2783203 .0048828127 C .26009117 .0016276041 .24055989 0 .21972656 0 C .18359375 0 .15185547 .0050455729 .12451172 .015136719 C .09749349 .025227866 .07470703 .040201826 .056152345 .060058595 C .037597658 .07991537 .02360026 .10481771 .014160156 .13476563 C .0047200524 .16471355 0 .19954427 0 .23925781 C 0 .27701823 .0048828127 .3108724 .0146484379 .3408203 C .024414063 .37109376 .038411458 .39664714 .056640626 .41748048 C .07519531 .4386393 .09749349 .4547526 .123535159 .4658203 C .14957683 .47721354 .17871094 .48291017 .2109375 .48291017 C .2454427 .48291017 .2747396 .4773763 .29882813 .4663086 C .3232422 .45524089 .34326173 .44026695 .35888673 .42138673 C .37451173 .40283204 .38590495 .38085938 .3930664 .35546876 C .40055339 .33040367 .40429688 .3035482 .40429688 .27490235 L .40429688 .2602539 M .3232422 .2841797 C .32421876 .3264974 .31477867 .35970054 .29492188 .38378907 C .27539063 .4078776 .24625652 .41992188 .20751953 .41992188 C .18766277 .41992188 .17024739 .41617839 .15527344 .4086914 C .14029949 .40120445 .12776692 .39127604 .11767578 .37890626 C .10758463 .36653648 .09977213 .35205079 .09423828 .33544923 C .08870443 .3191732 .08561198 .30208335 .08496094 .2841797 L .3232422 .2841797 Z "/>
</symbol>
<symbol id="font_1_191">
<path d="M .31103517 .14111328 C .31103517 .118652347 .30680339 .09863281 .29833985 .08105469 C .2902018 .06347656 .27848307 .048665365 .2631836 .036621095 C .24788411 .024576823 .22965496 .015462239 .2084961 .009277344 C .18733724 .003092448 .1640625 0 .13867188 0 C .123046878 0 .108072917 .0013020834 .09375 .00390625 C .0797526 .006184896 .06705729 .009114583 .055664064 .0126953129 C .044596357 .016601563 .03515625 .020507813 .02734375 .024414063 C .01953125 .028645834 .013834636 .032389326 .010253906 .03564453 C .0066731774 .03889974 .0040690104 .04345703 .0024414063 .049316408 C .00081380209 .05517578 0 .06315104 0 .07324219 C 0 .079427089 .00032552085 .084635417 .0009765625 .08886719 C .0016276041 .09309896 .0024414063 .09651693 .0034179688 .099121097 C .0043945314 .10172526 .0056966149 .103515628 .0073242189 .10449219 C .009277344 .10579427 .0113932299 .10644531 .013671875 .10644531 C .017252604 .10644531 .022460938 .104166667 .029296875 .099609378 C .036458333 .0953776 .045084638 .090657558 .05517578 .08544922 C .065592449 .08024088 .07779948 .07535807 .091796878 .07080078 C .10579427 .06656901 .121907558 .064453128 .14013672 .064453128 C .1538086 .064453128 .16617839 .06591797 .1772461 .068847659 C .1883138 .071777347 .19791667 .07600912 .20605469 .08154297 C .2141927 .087402347 .22037761 .09472656 .22460938 .103515628 C .22916667 .11230469 .23144531 .12272135 .23144531 .13476563 C .23144531 .14713542 .22819011 .15755208 .22167969 .16601563 C .2154948 .17447917 .20719402 .18196614 .19677735 .18847656 C .18636067 .19498699 .17464192 .2006836 .1616211 .2055664 C .14860027 .21077474 .13509114 .21614583 .12109375 .22167969 C .107421878 .22721355 .09391276 .23339844 .080566409 .24023438 C .06754557 .24739583 .055826826 .25602214 .045410158 .26611329 C .03499349 .27620445 .026529948 .2882487 .020019532 .3022461 C .013834636 .3162435 .0107421879 .3330078 .0107421879 .35253907 C .0107421879 .36979167 .0139973959 .38623048 .020507813 .40185548 C .02734375 .417806 .037434896 .43164063 .05078125 .44335938 C .0641276 .45540367 .080729167 .4650065 .10058594 .47216798 C .12076823 .47932945 .14420574 .48291017 .17089844 .48291017 C .18261719 .48291017 .19433594 .4819336 .20605469 .47998048 C .21777344 .47802735 .22835286 .47558595 .23779297 .47265626 C .24723308 .46972657 .25520835 .46647135 .26171876 .46289063 C .2685547 .4596354 .27360026 .45670573 .27685548 .45410157 C .2804362 .4514974 .28271485 .44921876 .2836914 .44726563 C .2849935 .4453125 .28580729 .44303385 .2861328 .4404297 C .28678385 .43815104 .28727214 .43522135 .28759767 .43164063 C .2882487 .4280599 .28857423 .42366538 .28857423 .41845704 C .28857423 .4129232 .2882487 .40804038 .28759767 .4038086 C .28727214 .39990235 .28645835 .39664714 .28515626 .39404298 C .2841797 .3914388 .2828776 .3894857 .28125 .3881836 C .2796224 .38720704 .27783204 .38671876 .2758789 .38671876 C .27294923 .38671876 .26871745 .38850913 .2631836 .39208985 C .25764976 .39567057 .25048829 .39941407 .24169922 .4033203 C .23291016 .4075521 .22249349 .41145835 .21044922 .41503907 C .19873047 .41861979 .18522136 .42041017 .16992188 .42041017 C .15625 .42041017 .14420574 .41878257 .13378906 .41552735 C .1233724 .41259767 .114746097 .40820313 .107910159 .40234376 C .10139974 .3968099 .096354167 .39013673 .09277344 .38232423 C .08951823 .37451173 .087890628 .3660482 .087890628 .3569336 C .087890628 .34423829 .091145839 .3334961 .09765625 .32470704 C .104166667 .3162435 .11263021 .3087565 .123046878 .3022461 C .13346355 .2957357 .14534505 .2898763 .1586914 .28466798 C .17203777 .27945964 .18554688 .27408854 .19921875 .2685547 C .21321614 .26302085 .22688802 .25683595 .24023438 .25 C .25390626 .24316406 .26595054 .23486328 .2763672 .22509766 C .28678385 .21533203 .29508464 .20361328 .30126954 .1899414 C .30777995 .17626953 .31103517 .15999349 .31103517 .14111328 M .19677735 .67578127 C .19873047 .679362 .20100911 .6822917 .20361328 .6845703 C .20621746 .68684896 .20930989 .68863937 .21289063 .6899414 C .21679688 .69124349 .22151692 .69222006 .22705078 .6928711 C .23258464 .69352218 .23925781 .69384768 .24707031 .69384768 C .2561849 .69384768 .26350913 .6931966 .26904298 .69189456 C .27490235 .69091799 .27897135 .68929037 .28125 .6870117 C .28352867 .6850586 .28450523 .6826172 .2841797 .6796875 C .28385417 .6770833 .2823893 .6743164 .27978517 .6713867 L .19140625 .5576172 C .18880208 .554362 .18636067 .5517578 .18408203 .5498047 C .1821289 .54785159 .1796875 .54622396 .17675781 .5449219 C .17415364 .5439453 .17057292 .54313156 .16601563 .54248049 C .16178386 .54215499 .15641277 .5419922 .14990235 .5419922 C .14274089 .5419922 .13704427 .54248049 .1328125 .54345706 C .12858074 .5444336 .12548828 .54573568 .123535159 .5473633 C .121907558 .5489909 .12125651 .55110678 .12158203 .55371096 C .12223307 .5563151 .123697917 .55940756 .12597656 .5629883 L .19677735 .67578127 M .057128908 .4736328 L .057128908 .4736328 Z "/>
</symbol>
<symbol id="font_1_16f">
<path d="M .080566409 .015136719 C .080566409 .012532552 .07991537 .010253906 .07861328 .008300781 C .077311199 .0066731774 .07519531 .0052083337 .072265628 .00390625 C .06933594 .0026041668 .06526693 .0016276041 .060058595 .0009765625 C .05485026 .00032552085 .048177083 0 .040039064 0 C .032226564 0 .025716147 .00032552085 .020507813 .0009765625 C .0152994799 .0016276041 .011067708 .0026041668 .0078125 .00390625 C .0048828127 .0052083337 .002766927 .0066731774 .0014648438 .008300781 C .00048828127 .010253906 0 .012532552 0 .015136719 L 0 .66748049 C 0 .67008468 .00048828127 .6723633 .0014648438 .6743164 C .002766927 .67626956 .0048828127 .67789718 .0078125 .6791992 C .011067708 .6805013 .0152994799 .68147787 .020507813 .6821289 C .025716147 .68277999 .032226564 .68310549 .040039064 .68310549 C .048177083 .68310549 .05485026 .68277999 .060058595 .6821289 C .06526693 .68147787 .06933594 .6805013 .072265628 .6791992 C .07519531 .67789718 .077311199 .67626956 .07861328 .6743164 C .07991537 .6723633 .080566409 .67008468 .080566409 .66748049 L .080566409 .015136719 Z "/>
</symbol>
<symbol id="font_1_1c1">
<path d="M .6635742 .4555664 C .6635742 .45328776 .6632487 .45052085 .66259768 .44726563 C .6619466 .4440104 .6608073 .4399414 .6591797 .4350586 L .52978518 .017578125 C .5288086 .0139973959 .52718099 .011067708 .52490237 .0087890629 C .5229492 .0065104167 .52001956 .0047200524 .5161133 .0034179688 C .51253256 .0021158856 .507487 .0013020834 .50097659 .0009765625 C .49446617 .00032552085 .48632813 0 .4765625 0 C .46647135 0 .4580078 .00032552085 .45117188 .0009765625 C .44433595 .0016276041 .4388021 .0026041668 .4345703 .00390625 C .43066407 .0052083337 .42773438 .0069986979 .42578126 .009277344 C .42382813 .011555989 .42236329 .014322917 .42138673 .017578125 L .32910157 .33642579 L .328125 .3408203 L .32714845 .33642579 L .24169922 .017578125 C .24072266 .0139973959 .23909505 .011067708 .2368164 .0087890629 C .23486328 .0065104167 .23177083 .0047200524 .22753906 .0034179688 C .2233073 .0021158856 .21777344 .0013020834 .2109375 .0009765625 C .20442708 .00032552085 .19628906 0 .18652344 0 C .1764323 0 .16813152 .00032552085 .1616211 .0009765625 C .1554362 .0016276041 .15022786 .0026041668 .1459961 .00390625 C .14208985 .0052083337 .13916016 .0069986979 .13720703 .009277344 C .1352539 .011555989 .13378906 .014322917 .1328125 .017578125 L .0043945314 .4350586 C .002766927 .4399414 .0016276041 .4440104 .0009765625 .44726563 C .00032552085 .45052085 0 .45328776 0 .4555664 C 0 .4584961 .0006510417 .46077476 .001953125 .46240235 C .0032552083 .46435548 .0053710939 .4658203 .008300781 .46679688 C .011555989 .46809898 .01578776 .46891276 .020996094 .46923829 C .026204428 .4695638 .032552083 .46972657 .040039064 .46972657 C .049153646 .46972657 .056477865 .46940104 .06201172 .46875 C .06754557 .46842448 .071777347 .4676107 .07470703 .4663086 C .07763672 .46533204 .0797526 .46370445 .08105469 .46142579 C .08235677 .45947267 .083496097 .45703126 .084472659 .45410157 L .19042969 .091796878 L .19140625 .087402347 L .19238281 .091796878 L .28955079 .45410157 C .2902018 .45703126 .29117839 .45947267 .29248048 .46142579 C .29410807 .46370445 .29638673 .46533204 .2993164 .4663086 C .3022461 .4676107 .30615235 .46842448 .31103517 .46875 C .3162435 .46940104 .32291667 .46972657 .3310547 .46972657 C .3388672 .46972657 .34521485 .46940104 .35009767 .46875 C .355306 .46842448 .359375 .4676107 .3623047 .4663086 C .36523438 .46533204 .36735026 .4638672 .36865235 .46191407 C .36995445 .45996095 .370931 .45768229 .37158204 .45507813 L .4765625 .091796878 L .47753907 .087402347 L .47802735 .091796878 L .58251956 .45410157 C .5831706 .45703126 .58414718 .45947267 .5854492 .46142579 C .58707687 .46370445 .58935549 .46533204 .59228518 .4663086 C .59554037 .4676107 .59977218 .46842448 .60498049 .46875 C .61051437 .46940104 .617513 .46972657 .62597659 .46972657 C .63378909 .46972657 .63997396 .4695638 .64453127 .46923829 C .64941409 .46891276 .65315756 .46809898 .6557617 .46679688 C .6586914 .46549479 .66064456 .46402995 .6616211 .46240235 C .66292318 .46077476 .6635742 .4584961 .6635742 .4555664 Z "/>
</symbol>
<symbol id="font_1_1cc">
<path d="M .31152345 .034179689 C .31152345 .027994791 .31103517 .022623698 .3100586 .018066407 C .30908204 .013834636 .30794273 .010253906 .30664063 .0073242189 C .30533854 .0047200524 .3035482 .002766927 .30126954 .0014648438 C .29899089 .00048828127 .29654948 0 .2939453 0 L .0234375 0 C .016601563 0 .010904948 .0022786458 .0063476564 .0068359377 C .0021158856 .0113932299 0 .019042969 0 .029785157 L 0 .04638672 C 0 .05094401 .00032552085 .05501302 .0009765625 .05859375 C .0016276041 .06217448 .0026041668 .06575521 .00390625 .06933594 C .0052083337 .072916667 .0069986979 .076660159 .009277344 .080566409 C .011555989 .08479818 .014322917 .08951823 .017578125 .09472656 L .21142578 .39648438 L .0234375 .39648438 C .018229166 .39648438 .0139973959 .39908854 .0107421879 .40429688 C .0078125 .40983073 .0063476564 .41861979 .0063476564 .43066407 C .0063476564 .43652345 .0066731774 .441569 .0073242189 .44580079 C .007975261 .45035807 .008951823 .4539388 .010253906 .45654298 C .011881511 .45947267 .013671875 .46142579 .015625 .46240235 C .017903647 .46370445 .020507813 .46435548 .0234375 .46435548 L .27539063 .46435548 C .27897135 .46435548 .2820638 .4638672 .28466798 .46289063 C .28759767 .46191407 .29003907 .46028648 .2919922 .4580078 C .2939453 .45572917 .29541017 .45279948 .29638673 .44921876 C .2976888 .44563804 .29833985 .44108073 .29833985 .43554688 L .29833985 .41992188 C .29833985 .4153646 .2980143 .4111328 .29736329 .40722657 C .29671226 .4033203 .2957357 .39941407 .2944336 .3955078 C .2931315 .3919271 .29134117 .38802085 .2890625 .38378907 C .28678385 .37955729 .28401695 .37483726 .28076173 .3696289 L .087890628 .067871097 L .2939453 .067871097 C .29654948 .067871097 .29882813 .067220058 .30078126 .06591797 C .3030599 .064941409 .30485026 .06315104 .30615235 .060546876 C .30777995 .057942708 .30908204 .05436198 .3100586 .049804689 C .31103517 .045572919 .31152345 .040364583 .31152345 .034179689 Z "/>
</symbol>
<symbol id="font_1_1c7">
<path d="M .25830079 .17773438 L .19970703 .016113282 C .1977539 .010904948 .19270833 .0069986979 .18457031 .0043945314 C .17675781 .0014648438 .16471355 0 .1484375 0 C .13997396 0 .13313802 .00048828127 .12792969 .0014648438 C .12272135 .0021158856 .118652347 .0034179688 .115722659 .0053710939 C .11311849 .0073242189 .11165365 .009928386 .111328128 .013183594 C .1110026 .016438803 .111816409 .020345053 .11376953 .024902344 L .1743164 .17773438 C .17138672 .17903646 .1686198 .18115235 .16601563 .18408203 C .16341146 .18701172 .1616211 .19010417 .16064453 .19335938 L .00390625 .61328127 C .0013020834 .6201172 0 .6254883 0 .62939456 C 0 .6333008 .0013020834 .63639327 .00390625 .6386719 C .0065104167 .6409505 .0107421879 .64241537 .016601563 .6430664 C .022460938 .64404299 .030273438 .64453127 .040039064 .64453127 C .049804689 .64453127 .057454427 .64420577 .06298828 .6435547 C .06852213 .6432292 .072916667 .64241537 .076171878 .6411133 C .079427089 .6398112 .08170573 .6378581 .08300781 .6352539 C .084635417 .6329753 .08626302 .62972006 .087890628 .6254883 L .2133789 .27294923 L .21484375 .27294923 L .3359375 .6274414 C .33789063 .6336263 .34016929 .63753256 .34277345 .63916018 C .34570313 .6411133 .3499349 .64241537 .35546876 .6430664 C .3610026 .64404299 .36897788 .64453127 .37939454 .64453127 C .38850913 .64453127 .3959961 .64404299 .40185548 .6430664 C .40771485 .64241537 .41194663 .6409505 .41455079 .6386719 C .41748048 .63639327 .4189453 .6333008 .4189453 .62939456 C .4189453 .6254883 .41796876 .62060549 .41601563 .6147461 L .25830079 .17773438 Z "/>
</symbol>
<symbol id="font_1_190">
<path d="M .31103517 .14111328 C .31103517 .118652347 .30680339 .09863281 .29833985 .08105469 C .2902018 .06347656 .27848307 .048665365 .2631836 .036621095 C .24788411 .024576823 .22965496 .015462239 .2084961 .009277344 C .18733724 .003092448 .1640625 0 .13867188 0 C .123046878 0 .108072917 .0013020834 .09375 .00390625 C .0797526 .006184896 .06705729 .009114583 .055664064 .0126953129 C .044596357 .016601563 .03515625 .020507813 .02734375 .024414063 C .01953125 .028645834 .013834636 .032389326 .010253906 .03564453 C .0066731774 .03889974 .0040690104 .04345703 .0024414063 .049316408 C .00081380209 .05517578 0 .06315104 0 .07324219 C 0 .079427089 .00032552085 .084635417 .0009765625 .08886719 C .0016276041 .09309896 .0024414063 .09651693 .0034179688 .099121097 C .0043945314 .10172526 .0056966149 .103515628 .0073242189 .10449219 C .009277344 .10579427 .0113932299 .10644531 .013671875 .10644531 C .017252604 .10644531 .022460938 .104166667 .029296875 .099609378 C .036458333 .0953776 .045084638 .090657558 .05517578 .08544922 C .065592449 .08024088 .07779948 .07535807 .091796878 .07080078 C .10579427 .06656901 .121907558 .064453128 .14013672 .064453128 C .1538086 .064453128 .16617839 .06591797 .1772461 .068847659 C .1883138 .071777347 .19791667 .07600912 .20605469 .08154297 C .2141927 .087402347 .22037761 .09472656 .22460938 .103515628 C .22916667 .11230469 .23144531 .12272135 .23144531 .13476563 C .23144531 .14713542 .22819011 .15755208 .22167969 .16601563 C .2154948 .17447917 .20719402 .18196614 .19677735 .18847656 C .18636067 .19498699 .17464192 .2006836 .1616211 .2055664 C .14860027 .21077474 .13509114 .21614583 .12109375 .22167969 C .107421878 .22721355 .09391276 .23339844 .080566409 .24023438 C .06754557 .24739583 .055826826 .25602214 .045410158 .26611329 C .03499349 .27620445 .026529948 .2882487 .020019532 .3022461 C .013834636 .3162435 .0107421879 .3330078 .0107421879 .35253907 C .0107421879 .36979167 .0139973959 .38623048 .020507813 .40185548 C .02734375 .417806 .037434896 .43164063 .05078125 .44335938 C .0641276 .45540367 .080729167 .4650065 .10058594 .47216798 C .12076823 .47932945 .14420574 .48291017 .17089844 .48291017 C .18261719 .48291017 .19433594 .4819336 .20605469 .47998048 C .21777344 .47802735 .22835286 .47558595 .23779297 .47265626 C .24723308 .46972657 .25520835 .46647135 .26171876 .46289063 C .2685547 .4596354 .27360026 .45670573 .27685548 .45410157 C .2804362 .4514974 .28271485 .44921876 .2836914 .44726563 C .2849935 .4453125 .28580729 .44303385 .2861328 .4404297 C .28678385 .43815104 .28727214 .43522135 .28759767 .43164063 C .2882487 .4280599 .28857423 .42366538 .28857423 .41845704 C .28857423 .4129232 .2882487 .40804038 .28759767 .4038086 C .28727214 .39990235 .28645835 .39664714 .28515626 .39404298 C .2841797 .3914388 .2828776 .3894857 .28125 .3881836 C .2796224 .38720704 .27783204 .38671876 .2758789 .38671876 C .27294923 .38671876 .26871745 .38850913 .2631836 .39208985 C .25764976 .39567057 .25048829 .39941407 .24169922 .4033203 C .23291016 .4075521 .22249349 .41145835 .21044922 .41503907 C .19873047 .41861979 .18522136 .42041017 .16992188 .42041017 C .15625 .42041017 .14420574 .41878257 .13378906 .41552735 C .1233724 .41259767 .114746097 .40820313 .107910159 .40234376 C .10139974 .3968099 .096354167 .39013673 .09277344 .38232423 C .08951823 .37451173 .087890628 .3660482 .087890628 .3569336 C .087890628 .34423829 .091145839 .3334961 .09765625 .32470704 C .104166667 .3162435 .11263021 .3087565 .123046878 .3022461 C .13346355 .2957357 .14534505 .2898763 .1586914 .28466798 C .17203777 .27945964 .18554688 .27408854 .19921875 .2685547 C .21321614 .26302085 .22688802 .25683595 .24023438 .25 C .25390626 .24316406 .26595054 .23486328 .2763672 .22509766 C .28678385 .21533203 .29508464 .20361328 .30126954 .1899414 C .30777995 .17626953 .31103517 .15999349 .31103517 .14111328 Z "/>
</symbol>
<symbol id="font_1_1b5">
<path d="M .37890626 .021484375 C .37890626 .018880209 .37825523 .016601563 .37695313 .0146484379 C .37597657 .013020833 .37402345 .011555989 .37109376 .010253906 C .36816407 .008951823 .3642578 .007975261 .359375 .0073242189 C .35481773 .0066731774 .3491211 .0063476564 .34228517 .0063476564 C .3347982 .0063476564 .32861329 .0066731774 .32373048 .0073242189 C .3191732 .007975261 .3154297 .008951823 .3125 .010253906 C .30989585 .011555989 .30810548 .013020833 .3071289 .0146484379 C .30615235 .016601563 .30566407 .018880209 .30566407 .021484375 L .30566407 .079589847 C .28059898 .051920576 .25585938 .03173828 .23144531 .019042969 C .20703125 .0063476564 .18229167 0 .15722656 0 C .12792969 0 .1031901 .0048828127 .08300781 .0146484379 C .06315104 .024414063 .04703776 .037597658 .03466797 .05419922 C .022298178 .071126308 .0133463549 .090657558 .0078125 .11279297 C .0026041668 .1352539 0 .16243489 0 .19433594 L 0 .4609375 C 0 .46354167 .00048828127 .46565757 .0014648438 .46728517 C .002766927 .46923829 .0050455729 .47086589 .008300781 .47216798 C .011555989 .47379557 .01578776 .47477214 .020996094 .47509767 C .026204428 .4757487 .032714845 .47607423 .040527345 .47607423 C .048339845 .47607423 .05485026 .4757487 .060058595 .47509767 C .06526693 .47477214 .06933594 .47379557 .072265628 .47216798 C .075520839 .47086589 .07779948 .46923829 .07910156 .46728517 C .08040365 .46565757 .08105469 .46354167 .08105469 .4609375 L .08105469 .20507813 C .08105469 .17936199 .082845058 .1586914 .08642578 .1430664 C .09033203 .12776692 .09602865 .114583339 .103515628 .103515628 C .111328128 .09277344 .12109375 .0843099 .1328125 .078125 C .14453125 .072265628 .15820313 .06933594 .17382813 .06933594 C .19401042 .06933594 .21402996 .0764974 .23388672 .09082031 C .254069 .10514323 .27539063 .12613933 .29785157 .1538086 L .29785157 .4609375 C .29785157 .46354167 .29833985 .46565757 .2993164 .46728517 C .3006185 .46923829 .30289714 .47086589 .30615235 .47216798 C .30940757 .47379557 .31347657 .47477214 .31835938 .47509767 C .32356773 .4757487 .33024089 .47607423 .3383789 .47607423 C .3461914 .47607423 .3527018 .4757487 .35791017 .47509767 C .3631185 .47477214 .3671875 .47379557 .3701172 .47216798 C .37304688 .47086589 .37516276 .46923829 .37646485 .46728517 C .37809245 .46565757 .37890626 .46354167 .37890626 .4609375 L .37890626 .021484375 Z "/>
</symbol>
<symbol id="font_1_175">
<path d="M .65185549 .015136719 C .65185549 .012532552 .6512044 .010253906 .64990237 .008300781 C .6486003 .0066731774 .6464844 .0052083337 .6435547 .00390625 C .640625 .0026041668 .63655599 .0016276041 .63134768 .0009765625 C .62613937 .00032552085 .6196289 0 .6118164 0 C .6036784 0 .5970052 .00032552085 .5917969 .0009765625 C .58658859 .0016276041 .58235678 .0026041668 .57910159 .00390625 C .5761719 .0052083337 .57405599 .0066731774 .5727539 .008300781 C .57145187 .010253906 .5708008 .012532552 .5708008 .015136719 L .5708008 .28222657 C .5708008 .30078126 .56917318 .31770835 .56591799 .3330078 C .5626628 .34830729 .5574544 .36149089 .55029299 .3725586 C .54313156 .3836263 .5340169 .39208985 .5229492 .39794923 C .51188156 .4038086 .4988607 .40673829 .48388673 .40673829 C .46533204 .40673829 .4466146 .3995768 .42773438 .3852539 C .4091797 .370931 .38867188 .3499349 .36621095 .32226563 L .36621095 .015136719 C .36621095 .012532552 .3655599 .010253906 .3642578 .008300781 C .36295573 .0066731774 .3606771 .0052083337 .35742188 .00390625 C .3544922 .0026041668 .3504232 .0016276041 .34521485 .0009765625 C .3400065 .00032552085 .3334961 0 .3256836 0 C .31819663 0 .3116862 .00032552085 .30615235 .0009765625 C .300944 .0016276041 .29671226 .0026041668 .29345704 .00390625 C .29052735 .0052083337 .28841148 .0066731774 .28710938 .008300781 C .2861328 .010253906 .28564454 .012532552 .28564454 .015136719 L .28564454 .28222657 C .28564454 .30078126 .28385417 .31770835 .28027345 .3330078 C .27669273 .34830729 .27132163 .36149089 .26416017 .3725586 C .2569987 .3836263 .24788411 .39208985 .2368164 .39794923 C .22607422 .4038086 .21321614 .40673829 .19824219 .40673829 C .1796875 .40673829 .16097005 .3995768 .14208985 .3852539 C .12320963 .370931 .10270182 .3499349 .080566409 .32226563 L .080566409 .015136719 C .080566409 .012532552 .07991537 .010253906 .07861328 .008300781 C .077311199 .0066731774 .07519531 .0052083337 .072265628 .00390625 C .06933594 .0026041668 .06526693 .0016276041 .060058595 .0009765625 C .05485026 .00032552085 .048177083 0 .040039064 0 C .032226564 0 .025716147 .00032552085 .020507813 .0009765625 C .0152994799 .0016276041 .011067708 .0026041668 .0078125 .00390625 C .0048828127 .0052083337 .002766927 .0066731774 .0014648438 .008300781 C .00048828127 .010253906 0 .012532552 0 .015136719 L 0 .45458985 C 0 .457194 .00048828127 .4593099 .0014648438 .4609375 C .0024414063 .46289063 .0043945314 .46451823 .0073242189 .4658203 C .010253906 .4674479 .0139973959 .46842448 .018554688 .46875 C .023111979 .46940104 .029134116 .46972657 .036621095 .46972657 C .04378255 .46972657 .049641927 .46940104 .05419922 .46875 C .05908203 .46842448 .06282552 .4674479 .06542969 .4658203 C .06803385 .46451823 .06982422 .46289063 .07080078 .4609375 C .07210287 .4593099 .072753909 .457194 .072753909 .45458985 L .072753909 .39648438 C .09749349 .42415367 .12141927 .44433595 .14453125 .45703126 C .16796875 .4700521 .19156902 .4765625 .21533203 .4765625 C .2335612 .4765625 .24983724 .47444663 .26416017 .47021485 C .2788086 .46598307 .29166667 .45996095 .30273438 .45214845 C .3138021 .44466148 .3232422 .43554688 .3310547 .4248047 C .3388672 .41438804 .3453776 .40266929 .35058595 .38964845 C .36523438 .40559898 .379069 .41910807 .39208985 .43017579 C .4054362 .4412435 .4181315 .4501953 .43017579 .45703126 C .44254557 .4638672 .4544271 .46875 .4658203 .4716797 C .47753907 .4749349 .4892578 .4765625 .50097659 .4765625 C .5292969 .4765625 .5530599 .47151695 .5722656 .46142579 C .5914714 .45166017 .6069336 .43847657 .61865237 .421875 C .6306966 .40527345 .63916018 .3857422 .64404299 .36328126 C .6492513 .34114585 .65185549 .31770835 .65185549 .29296876 L .65185549 .015136719 Z "/>
</symbol>
<symbol id="font_1_102">
<path d="M .36083985 .020996094 C .36083985 .017089844 .35953776 .014160156 .3569336 .012207031 C .35432945 .010253906 .3507487 .0087890629 .3461914 .0078125 C .34163413 .0068359377 .33496095 .0063476564 .32617188 .0063476564 C .31770835 .0063476564 .3108724 .0068359377 .30566407 .0078125 C .30078126 .0087890629 .29720054 .010253906 .29492188 .012207031 C .29264323 .014160156 .2915039 .017089844 .2915039 .020996094 L .2915039 .064941409 C .2722982 .044433595 .2508138 .028483073 .22705078 .017089844 C .20361328 .0056966149 .17871094 0 .15234375 0 C .12923177 0 .10823568 .003092448 .08935547 .009277344 C .07080078 .015136719 .05485026 .023763022 .041503908 .03515625 C .028483073 .04654948 .018229166 .060546876 .0107421879 .07714844 C .0035807293 .09375 0 .11263021 0 .13378906 C 0 .15852864 .0050455729 .18001302 .015136719 .19824219 C .025227866 .21647136 .039713544 .23160808 .05859375 .24365235 C .07747396 .25569663 .10058594 .26464845 .12792969 .2705078 C .15527344 .27669273 .18603516 .27978517 .22021485 .27978517 L .28076173 .27978517 L .28076173 .31396485 C .28076173 .33089195 .27897135 .34586589 .27539063 .35888673 C .2718099 .37190757 .26595054 .38264976 .2578125 .39111329 C .25 .39990235 .2397461 .40641276 .22705078 .41064454 C .21435547 .4152018 .19873047 .41748048 .18017578 .41748048 C .16031902 .41748048 .14241536 .41503907 .12646485 .41015626 C .110839847 .40559898 .09700521 .40039063 .08496094 .39453126 C .07324219 .3889974 .063313808 .38378907 .05517578 .37890626 C .04736328 .37434898 .041503908 .3720703 .037597658 .3720703 C .03499349 .3720703 .032714845 .37272135 .030761719 .37402345 C .028808594 .37532554 .027018229 .37727867 .025390625 .3798828 C .024088541 .38248698 .023111979 .3857422 .022460938 .38964845 C .021809897 .39388023 .021484375 .3984375 .021484375 .4033203 C .021484375 .41145835 .021972657 .417806 .022949219 .42236329 C .024251303 .4272461 .027018229 .43180339 .03125 .43603517 C .035807294 .44026695 .04345703 .44514976 .05419922 .4506836 C .064941409 .45654298 .077311199 .4617513 .091308597 .4663086 C .10530599 .4711914 .12060547 .47509767 .13720703 .47802735 C .1538086 .48128257 .17057292 .48291017 .1875 .48291017 C .21907552 .48291017 .24593099 .47932945 .2680664 .47216798 C .2902018 .4650065 .30810548 .4544271 .32177735 .4404297 C .33544923 .4267578 .3453776 .40966798 .3515625 .38916017 C .3577474 .36865235 .36083985 .34472657 .36083985 .3173828 L .36083985 .020996094 M .28076173 .22167969 L .21191406 .22167969 C .18977864 .22167969 .17057292 .21972656 .15429688 .21582031 C .13802083 .21223958 .12451172 .20670574 .11376953 .19921875 C .103027347 .1920573 .095052089 .18326824 .08984375 .17285156 C .08496094 .16276042 .08251953 .15104167 .08251953 .13769531 C .08251953 .11490885 .08968099 .09667969 .104003909 .08300781 C .118652347 .06966146 .13899739 .06298828 .16503906 .06298828 C .18619792 .06298828 .20572917 .068359378 .22363281 .07910156 C .24186199 .08984375 .26090495 .106282558 .28076173 .12841797 L .28076173 .22167969 Z "/>
</symbol>
<symbol id="font_1_110">
<path d="M .3466797 .088378909 C .3466797 .082845058 .34651695 .07796224 .3461914 .07373047 C .34586589 .06982422 .34521485 .06640625 .34423829 .06347656 C .34358726 .060872396 .3426107 .05843099 .3413086 .056152345 C .34033204 .05419922 .33772788 .05110677 .3334961 .046875 C .32958985 .04296875 .3227539 .037923177 .31298829 .03173828 C .30322267 .025878907 .29215495 .020507813 .27978517 .015625 C .26774089 .011067708 .25455729 .0073242189 .24023438 .0043945314 C .22591146 .0014648438 .21110027 0 .19580078 0 C .16422527 0 .13623047 .0052083337 .111816409 .015625 C .087402347 .026041666 .06689453 .041178388 .05029297 .061035158 C .034016927 .081217449 .021484375 .10579427 .0126953129 .13476563 C .004231771 .1640625 0 .1977539 0 .23583985 C 0 .27913413 .0052083337 .3162435 .015625 .34716798 C .026367188 .37841798 .040852865 .40397135 .05908203 .42382813 C .07763672 .4436849 .09928385 .45833335 .12402344 .46777345 C .14908855 .47753907 .17610677 .48242188 .20507813 .48242188 C .21907552 .48242188 .23258464 .48111979 .24560547 .47851563 C .2589518 .47591148 .27115885 .4724935 .28222657 .46826173 C .29329429 .46402995 .3030599 .45914714 .31152345 .45361329 C .3203125 .44807945 .32666017 .44335938 .3305664 .43945313 C .33447267 .43554688 .3370768 .43245445 .3383789 .43017579 C .3400065 .42789714 .3413086 .42513023 .34228517 .421875 C .34326173 .4189453 .34391276 .41552735 .34423829 .4116211 C .3445638 .40771485 .34472657 .40283204 .34472657 .39697267 C .34472657 .38427735 .34326173 .37532554 .34033204 .3701172 C .33740235 .36523438 .33382163 .36279298 .32958985 .36279298 C .32470704 .36279298 .3190104 .36539714 .3125 .37060548 C .3063151 .3761393 .29833985 .38216148 .28857423 .38867188 C .2788086 .39518229 .2669271 .40104167 .2529297 .40625 C .23925781 .41178385 .22298177 .41455079 .20410156 .41455079 C .16536458 .41455079 .13557942 .3995768 .114746097 .3696289 C .09423828 .3400065 .083984378 .296875 .083984378 .24023438 C .083984378 .21191406 .08658854 .18701172 .091796878 .16552735 C .09733073 .14436849 .10530599 .12662761 .115722659 .11230469 C .12613933 .09798177 .13883464 .087239589 .1538086 .080078128 C .16910808 .07324219 .18652344 .06982422 .20605469 .06982422 C .22460938 .06982422 .24088542 .072753909 .2548828 .07861328 C .26888023 .084472659 .28092448 .09082031 .29101563 .09765625 C .30143229 .10481771 .3100586 .11116537 .31689454 .11669922 C .324056 .122558597 .32958985 .12548828 .3334961 .12548828 C .33577476 .12548828 .33772788 .12483724 .33935548 .123535159 C .34098307 .12223307 .34228517 .11995443 .34326173 .11669922 C .3445638 .11376953 .3453776 .10986328 .34570313 .10498047 C .34635417 .10042318 .3466797 .09488932 .3466797 .088378909 Z "/>
</symbol>
<symbol id="font_1_176">
<path d="M .37841798 .015136719 C .37841798 .012532552 .37776695 .010253906 .37646485 .008300781 C .37516276 .0066731774 .37304688 .0052083337 .3701172 .00390625 C .3671875 .0026041668 .3631185 .0016276041 .35791017 .0009765625 C .3527018 .00032552085 .3461914 0 .3383789 0 C .33024089 0 .32356773 .00032552085 .31835938 .0009765625 C .31315104 .0016276041 .30908204 .0026041668 .30615235 .00390625 C .30322267 .0052083337 .30110679 .0066731774 .2998047 .008300781 C .2985026 .010253906 .29785157 .012532552 .29785157 .015136719 L .29785157 .27246095 C .29785157 .29752604 .29589845 .31770835 .2919922 .3330078 C .28808595 .34830729 .2823893 .36149089 .27490235 .3725586 C .26741538 .3836263 .25764976 .39208985 .24560547 .39794923 C .23388672 .4038086 .22021485 .40673829 .20458985 .40673829 C .18440755 .40673829 .16422527 .3995768 .14404297 .3852539 C .12386068 .370931 .10270182 .3499349 .080566409 .32226563 L .080566409 .015136719 C .080566409 .012532552 .07991537 .010253906 .07861328 .008300781 C .077311199 .0066731774 .07519531 .0052083337 .072265628 .00390625 C .06933594 .0026041668 .06526693 .0016276041 .060058595 .0009765625 C .05485026 .00032552085 .048177083 0 .040039064 0 C .032226564 0 .025716147 .00032552085 .020507813 .0009765625 C .0152994799 .0016276041 .011067708 .0026041668 .0078125 .00390625 C .0048828127 .0052083337 .002766927 .0066731774 .0014648438 .008300781 C .00048828127 .010253906 0 .012532552 0 .015136719 L 0 .45458985 C 0 .457194 .00048828127 .4593099 .0014648438 .4609375 C .0024414063 .46289063 .0043945314 .46451823 .0073242189 .4658203 C .010253906 .4674479 .0139973959 .46842448 .018554688 .46875 C .023111979 .46940104 .029134116 .46972657 .036621095 .46972657 C .04378255 .46972657 .049641927 .46940104 .05419922 .46875 C .05908203 .46842448 .06282552 .4674479 .06542969 .4658203 C .06803385 .46451823 .06982422 .46289063 .07080078 .4609375 C .07210287 .4593099 .072753909 .457194 .072753909 .45458985 L .072753909 .39648438 C .09749349 .42415367 .12207031 .44433595 .14648438 .45703126 C .17122396 .4700521 .1961263 .4765625 .2211914 .4765625 C .25048829 .4765625 .2750651 .47151695 .29492188 .46142579 C .31510417 .45166017 .33138023 .43847657 .34375 .421875 C .35611979 .40527345 .36490885 .3857422 .3701172 .36328126 C .37565104 .34114585 .37841798 .31445313 .37841798 .28320313 L .37841798 .015136719 Z "/>
</symbol>
<symbol id="font_1_15d">
<path d="M .09033203 .015136719 C .09033203 .012532552 .08968099 .010253906 .088378909 .008300781 C .08707682 .0066731774 .08496094 .0052083337 .08203125 .00390625 C .07910156 .0026041668 .075032558 .0016276041 .06982422 .0009765625 C .06461588 .00032552085 .057942708 0 .049804689 0 C .041992189 0 .03548177 .00032552085 .030273438 .0009765625 C .025065104 .0016276041 .020833334 .0026041668 .017578125 .00390625 C .0146484379 .0052083337 .012532552 .0066731774 .011230469 .008300781 C .010253906 .010253906 .009765625 .012532552 .009765625 .015136719 L .009765625 .45458985 C .009765625 .4568685 .010253906 .45898438 .011230469 .4609375 C .012532552 .46289063 .0146484379 .46451823 .017578125 .4658203 C .020833334 .4671224 .025065104 .46809898 .030273438 .46875 C .03548177 .46940104 .041992189 .46972657 .049804689 .46972657 C .057942708 .46972657 .06461588 .46940104 .06982422 .46875 C .075032558 .46809898 .07910156 .4671224 .08203125 .4658203 C .08496094 .46451823 .08707682 .46289063 .088378909 .4609375 C .08968099 .45898438 .09033203 .4568685 .09033203 .45458985 L .09033203 .015136719 M .099609378 .60302737 C .099609378 .58414718 .09602865 .57128909 .08886719 .5644531 C .08170573 .5576172 .06852213 .5541992 .049316408 .5541992 C .030436198 .5541992 .017415366 .5574544 .010253906 .56396487 C .0034179688 .5708008 0 .5834961 0 .6020508 C 0 .62093099 .0035807293 .63378909 .0107421879 .640625 C .017903647 .64746096 .03108724 .6508789 .05029297 .6508789 C .06917318 .6508789 .08203125 .64746096 .08886719 .640625 C .09602865 .63411459 .099609378 .62158206 .099609378 .60302737 Z "/>
</symbol>
<symbol id="font_1_17f">
<path d="M .43945313 .24609375 C .43945313 .21028646 .43473307 .1772461 .42529298 .14697266 C .41585288 .11702474 .40169273 .091145839 .3828125 .06933594 C .3642578 .047526044 .3408203 .030436198 .3125 .018066407 C .28450523 .0060221354 .25195313 0 .21484375 0 C .17871094 0 .14713542 .0053710939 .12011719 .016113282 C .09342448 .026855469 .071126308 .04248047 .053222658 .06298828 C .03531901 .083496097 .021972657 .10839844 .013183594 .13769531 C .0043945314 .16699219 0 .20019531 0 .23730469 C 0 .27311198 .0045572917 .3059896 .013671875 .3359375 C .023111979 .36621095 .037109376 .3922526 .055664064 .4140625 C .07454427 .4358724 .09798177 .45279948 .12597656 .46484376 C .15397136 .47688804 .1866862 .48291017 .2241211 .48291017 C .2602539 .48291017 .29166667 .47753907 .31835938 .46679688 C .3453776 .4560547 .36783854 .4404297 .3857422 .41992188 C .40364585 .39941407 .4169922 .37451173 .42578126 .34521485 C .43489585 .31591798 .43945313 .2828776 .43945313 .24609375 M .3544922 .24072266 C .3544922 .2644857 .35221354 .28694663 .34765626 .30810548 C .34342448 .3292643 .33626304 .347819 .32617188 .36376954 C .31608073 .37972007 .30240885 .3922526 .28515626 .4013672 C .26790367 .41080729 .24641927 .41552735 .22070313 .41552735 C .19694011 .41552735 .1764323 .41129557 .15917969 .40283204 C .14225261 .3943685 .1282552 .38232423 .1171875 .36669923 C .10611979 .35139976 .09781901 .33317057 .092285159 .31201173 C .08707682 .29085288 .084472659 .26774089 .084472659 .24267578 C .084472659 .21858724 .08658854 .19596355 .09082031 .17480469 C .0953776 .15364583 .10270182 .13509114 .11279297 .119140628 C .12320963 .103515628 .13704427 .09098307 .15429688 .08154297 C .17154949 .07242838 .19303386 .067871097 .21875 .067871097 C .2421875 .067871097 .26253257 .07210287 .27978517 .080566409 C .29703776 .089029949 .3111979 .10091146 .32226563 .11621094 C .33333335 .13151042 .34147135 .14973958 .3466797 .17089844 C .35188804 .1920573 .3544922 .21533203 .3544922 .24072266 M .25976563 .67578127 C .26171876 .679362 .2639974 .6822917 .26660157 .6845703 C .26920573 .68684896 .2722982 .68863937 .2758789 .6899414 C .27978517 .69124349 .28450523 .69222006 .29003907 .6928711 C .2955729 .69352218 .3022461 .69384768 .3100586 .69384768 C .3191732 .69384768 .3264974 .6931966 .33203126 .69189456 C .33789063 .69091799 .34195964 .68929037 .34423829 .6870117 C .34651695 .6850586 .3474935 .6826172 .34716798 .6796875 C .34684245 .6770833 .3453776 .6743164 .34277345 .6713867 L .25439454 .5576172 C .25179038 .554362 .24934896 .5517578 .24707031 .5498047 C .24511719 .54785159 .24267578 .54622396 .2397461 .5449219 C .23714192 .5439453 .2335612 .54313156 .2290039 .54248049 C .22477214 .54215499 .21940105 .5419922 .21289063 .5419922 C .20572917 .5419922 .20003255 .54248049 .19580078 .54345706 C .19156902 .5444336 .18847656 .54573568 .18652344 .5473633 C .18489583 .5489909 .1842448 .55110678 .18457031 .55371096 C .18522136 .5563151 .1866862 .55940756 .18896485 .5629883 L .25976563 .67578127 M .12011719 .4736328 L .12011719 .4736328 Z "/>
</symbol>
<use xlink:href="#font_1_3ed" transform="matrix(10.98,0,0,-10.98,36.932874,46.5)"/>
<use xlink:href="#font_1_358" transform="matrix(10.98,0,0,-10.98,42.37642,46.548254)"/>
<use xlink:href="#font_1_3" transform="matrix(10.98,0,0,-10.98,44.33382,46.5)"/>
<use xlink:href="#font_1_57" transform="matrix(10.98,0,0,-10.98,47.73745,46.53217)"/>
<use xlink:href="#font_1_17d" transform="matrix(10.98,0,0,-10.98,52.97448,46.601865)"/>
<use xlink:href="#font_1_11a" transform="matrix(10.98,0,0,-10.98,58.826047,46.601865)"/>
<use xlink:href="#font_1_16c" transform="matrix(10.98,0,0,-10.98,64.89614,46.53217)"/>
<use xlink:href="#font_1_18c" transform="matrix(10.98,0,0,-10.98,69.892047,46.53217)"/>
<use xlink:href="#font_1_11e" transform="matrix(10.98,0,0,-10.98,73.40238,46.601865)"/>
<use xlink:href="#font_1_191" transform="matrix(10.98,0,0,-10.98,78.80608,46.601865)"/>
<use xlink:href="#font_1_16f" transform="matrix(10.98,0,0,-10.98,83.48528,46.53217)"/>
<use xlink:href="#font_1_3" transform="matrix(10.98,0,0,-10.98,85.1904,46.5)"/>
<use xlink:href="#font_1_1c1" transform="matrix(10.98,0,0,-10.98,87.95603,46.53217)"/>
<use xlink:href="#font_1_1cc" transform="matrix(10.98,0,0,-10.98,96.032688,46.5)"/>
<use xlink:href="#font_1_17d" transform="matrix(10.98,0,0,-10.98,100.375148,46.601865)"/>
<use xlink:href="#font_1_18c" transform="matrix(10.98,0,0,-10.98,106.49937,46.53217)"/>
<use xlink:href="#font_1_1c7" transform="matrix(10.98,0,0,-10.98,109.69339,48.451524)"/>
<use xlink:href="#font_1_3" transform="matrix(10.98,0,0,-10.98,114.48505,46.5)"/>
<use xlink:href="#font_1_190" transform="matrix(10.98,0,0,-10.98,117.400798,46.601865)"/>
<use xlink:href="#font_1_1b5" transform="matrix(10.98,0,0,-10.98,122.07515,46.601865)"/>
<use xlink:href="#font_1_175" transform="matrix(10.98,0,0,-10.98,127.866458,46.53217)"/>
<use xlink:href="#font_1_102" transform="matrix(10.98,0,0,-10.98,136.31244,46.601865)"/>
<use xlink:href="#font_1_18c" transform="matrix(10.98,0,0,-10.98,141.8989,46.53217)"/>
<use xlink:href="#font_1_1c7" transform="matrix(10.98,0,0,-10.98,145.09291,48.451524)"/>
<use xlink:href="#font_1_110" transform="matrix(10.98,0,0,-10.98,150.36708,46.601865)"/>
<use xlink:href="#font_1_1cc" transform="matrix(10.98,0,0,-10.98,155.05019,46.5)"/>
<use xlink:href="#font_1_176" transform="matrix(10.98,0,0,-10.98,159.73041,46.53217)"/>
<use xlink:href="#font_1_11e" transform="matrix(10.98,0,0,-10.98,165.17322,46.601865)"/>
<use xlink:href="#font_1_3" transform="matrix(10.98,0,0,-10.98,170.14266,46.5)"/>
<use xlink:href="#font_1_102" transform="matrix(10.98,0,0,-10.98,173.06247,46.601865)"/>
<use xlink:href="#font_1_16f" transform="matrix(10.98,0,0,-10.98,178.64893,46.53217)"/>
<use xlink:href="#font_1_16c" transform="matrix(10.98,0,0,-10.98,181.24022,46.53217)"/>
<use xlink:href="#font_1_15d" transform="matrix(10.98,0,0,-10.98,186.12889,46.53217)"/>
<use xlink:href="#font_1_176" transform="matrix(10.98,0,0,-10.98,188.76152,46.53217)"/>
<use xlink:href="#font_1_17f" transform="matrix(10.98,0,0,-10.98,194.18825,46.601865)"/>
<use xlink:href="#font_1_1c1" transform="matrix(10.98,0,0,-10.98,199.77634,46.53217)"/>
<use xlink:href="#font_1_358" transform="matrix(10.98,0,0,-10.98,208.15244,46.548254)"/>
</g>
<clipPath id="cp2">
<path transform="matrix(1,0,0,-1,0,841.92)" d="M .000008871 0 L 595.32 0 L 595.32 841.92 L .000008871 841.92 Z " fill-rule="evenodd"/>
</clipPath>
<g clip-path="url(#cp2)">
<symbol id="font_3_3">
<path d="M 0 0 Z "/>
</symbol>
<use xlink:href="#font_3_3" transform="matrix(10.98,0,0,-10.98,210.26,46.5)"/>
</g>
</g>
<g id="Layer-1" data-name="P">
<clipPath id="cp4">
<path transform="matrix(1,0,0,-1,0,841.92)" d="M 0 .000061035 L 595.32 .000061035 L 595.32 841.92007 L 0 841.92007 Z " fill-rule="evenodd"/>
</clipPath>
<g clip-path="url(#cp4)">
<clipPath id="cp5">
<path transform="matrix(.9957631,.00000027192255,-.00000013945841,-.9890568,36.03,82.52997)" d="M 0 0 L 199.65 0 L 199.65 24.265 L 0 24.265 Z " fill-rule="evenodd"/>
</clipPath>
<g clip-path="url(#cp5)">
<path transform="matrix(.9957631,.00000027192255,-.00000013945841,-.9890568,36.03,82.52997)" stroke-width=".5885" stroke-linecap="butt" stroke-linejoin="round" fill="none" stroke="#000000" d="M 2.2804 21.64 L 2.2804 3.2141 "/>
<path transform="matrix(.9957631,.00000027192255,-.00000013945841,-.9890568,36.03,82.52997)" stroke-width=".5885" stroke-linecap="butt" stroke-linejoin="round" fill="none" stroke="#000000" d="M 28.665 21.64 L 28.665 3.2141 "/>
<path transform="matrix(.9957631,.00000027192255,-.00000013945841,-.9890568,36.03,82.52997)" stroke-width=".5885" stroke-linecap="butt" stroke-linejoin="round" fill="none" stroke="#000000" d="M 2.0107 21.37 L 28.983 21.37 "/>
<path transform="matrix(.9957631,.00000027192255,-.00000013945841,-.9890568,36.03,82.52997)" stroke-width=".5885" stroke-linecap="butt" stroke-linejoin="round" fill="none" stroke="#000000" d="M 2.0107 3.533 L 28.983 3.533 "/>
<path transform="matrix(.9957631,.00000027192255,-.00000013945841,-.9890568,36.03,82.52997)" stroke-width=".5885" stroke-linecap="butt" stroke-linejoin="round" fill="none" stroke="#000000" d="M 59.953 21.64 L 59.953 3.2141 "/>
<path transform="matrix(.9957631,.00000027192255,-.00000013945841,-.9890568,36.03,82.52997)" stroke-width=".5885" stroke-linecap="butt" stroke-linejoin="round" fill="none" stroke="#000000" d="M 86.607 21.64 L 86.607 3.2141 "/>
<path transform="matrix(.9957631,.00000027192255,-.00000013945841,-.9890568,36.03,82.52997)" stroke-width=".5885" stroke-linecap="butt" stroke-linejoin="round" fill="none" stroke="#000000" d="M 59.659 21.37 L 86.926 21.37 "/>
<path transform="matrix(.9957631,.00000027192255,-.00000013945841,-.9890568,36.03,82.52997)" stroke-width=".5885" stroke-linecap="butt" stroke-linejoin="round" fill="none" stroke="#000000" d="M 59.659 3.533 L 86.926 3.533 "/>
<path transform="matrix(.9957631,.00000027192255,-.00000013945841,-.9890568,36.03,82.52997)" stroke-width=".5885" stroke-linecap="butt" stroke-linejoin="round" fill="none" stroke="#000000" d="M 143.62 21.64 L 143.62 3.2141 "/>
<path transform="matrix(.9957631,.00000027192255,-.00000013945841,-.9890568,36.03,82.52997)" stroke-width=".5885" stroke-linecap="butt" stroke-linejoin="round" fill="none" stroke="#000000" d="M 170.1 21.64 L 170.1 3.2141 "/>
<path transform="matrix(.9957631,.00000027192255,-.00000013945841,-.9890568,36.03,82.52997)" stroke-width=".5885" stroke-linecap="butt" stroke-linejoin="round" fill="none" stroke="#000000" d="M 143.35 21.37 L 170.42 21.37 "/>
<path transform="matrix(.9957631,.00000027192255,-.00000013945841,-.9890568,36.03,82.52997)" stroke-width=".5885" stroke-linecap="butt" stroke-linejoin="round" fill="none" stroke="#000000" d="M 143.35 3.533 L 170.42 3.533 "/>
<symbol id="font_6_278">
<path d="M .0087890629 .08642578 L .25634767 .4165039 C .27067057 .43538413 .28173829 .45491538 .28955079 .47509767 C .2976888 .49560548 .3017578 .51464846 .3017578 .53222659 L .3017578 .5332031 C .3017578 .56152346 .29345704 .5834961 .27685548 .5991211 C .2602539 .6147461 .23665364 .6225586 .20605469 .6225586 C .17708333 .6225586 .15364583 .6139323 .13574219 .5966797 C .11783854 .5797526 .106933597 .55566409 .103027347 .52441409 L .103027347 .5239258 L 0 .5239258 L 0 .52441409 C .005859375 .5651042 .017740885 .59977218 .03564453 .62841799 C .0538737 .65738937 .077311199 .679362 .10595703 .69433596 C .13460286 .70963546 .16764324 .71728518 .20507813 .71728518 C .24739583 .71728518 .28352867 .70996096 .31347657 .6953125 C .34342448 .68098959 .36621095 .65999349 .38183595 .6323242 C .39746095 .60465499 .40527345 .57128909 .40527345 .53222659 L .40527345 .5317383 C .40527345 .50667318 .4000651 .48046876 .38964845 .453125 C .37923179 .42578126 .3647461 .39941407 .3461914 .37402345 L .140625 .09472656 L .4091797 .09472656 L .4091797 0 L .0087890629 0 L .0087890629 .08642578 Z "/>
</symbol>
<symbol id="font_6_27a">
<path d="M 0 .19580078 L .23828125 .70996096 L .3408203 .70996096 L .10839844 .20166016 L .45654298 .20166016 L .45654298 .109375 L 0 .109375 L 0 .19580078 M .30615235 .41796876 L .4033203 .41796876 L .4033203 0 L .30615235 0 L .30615235 .41796876 Z "/>
</symbol>
<symbol id="font_6_279">
<path d="M .21289063 0 C .17317708 0 .1381836 .0071614587 .107910159 .021484375 C .07763672 .036132814 .053222658 .057128908 .03466797 .084472659 C .016438803 .11214193 .0048828127 .14534505 0 .18408203 L .1015625 .18408203 C .10449219 .16389974 .110839847 .14729817 .12060547 .13427735 C .1303711 .12125651 .14290364 .11149088 .15820313 .10498047 C .17382813 .09879557 .1920573 .095703128 .21289063 .095703128 C .24576824 .095703128 .27132163 .10449219 .28955079 .12207031 C .30777995 .13964844 .31689454 .16438802 .31689454 .19628906 L .31689454 .21777344 C .31689454 .25325523 .30826823 .28059898 .29101563 .2998047 C .27376304 .31933595 .24934896 .32910157 .21777344 .32910157 L .16748047 .32910157 L .16748047 .42382813 L .21777344 .42382813 C .2454427 .42382813 .2669271 .4321289 .28222657 .44873048 C .29752604 .46533204 .30517579 .48876954 .30517579 .51904299 L .30517579 .5410156 C .30517579 .56901046 .29703776 .59065756 .28076173 .60595706 C .2648112 .62125656 .24202474 .62890627 .21240235 .62890627 C .19547527 .62890627 .18033855 .62565109 .16699219 .6191406 C .15364583 .61295577 .14225261 .6031901 .1328125 .58984377 C .123697917 .57682296 .11702474 .5603841 .11279297 .54052737 L .01171875 .54052737 C .018229166 .57926437 .030436198 .61246749 .048339845 .6401367 C .06656901 .66780599 .08951823 .68880209 .1171875 .703125 C .14485677 .71744796 .17659505 .7246094 .21240235 .7246094 C .27360026 .7246094 .32096354 .7084961 .3544922 .67626956 C .38802085 .64404299 .40478517 .5986328 .40478517 .54003909 L .40478517 .5283203 C .40478517 .49283854 .39518229 .46191407 .37597657 .43554688 C .35677085 .4091797 .32958985 .38997398 .2944336 .3779297 C .33317057 .36946617 .3631185 .3504232 .38427735 .32080079 C .40576173 .29117839 .4165039 .25341798 .4165039 .20751953 L .4165039 .19580078 C .4165039 .15445964 .40852867 .119140628 .39257813 .08984375 C .3766276 .060546876 .35335288 .0382487 .3227539 .022949219 C .29248048 .0076497399 .25585938 0 .21289063 0 Z "/>
</symbol>
<symbol id="font_6_27e">
<path d="M .21533203 0 C .17236328 0 .13460286 .0081380209 .10205078 .024414063 C .069498699 .040690107 .044270833 .06363932 .026367188 .09326172 C .0087890629 .12320963 0 .15787761 0 .19726563 L 0 .20898438 C 0 .24446614 .0087890629 .27783204 .026367188 .30908204 C .044270833 .34033204 .06803385 .36393229 .09765625 .3798828 C .07259115 .3935547 .052408857 .4132487 .037109376 .43896485 C .022135416 .4650065 .0146484379 .49235026 .0146484379 .5209961 L .0146484379 .53808596 C .0146484379 .5751953 .022949219 .6077474 .03955078 .6357422 C .056152345 .6640625 .079589847 .6858724 .10986328 .7011719 C .14013672 .7167969 .17529297 .7246094 .21533203 .7246094 C .2553711 .7246094 .29052735 .7167969 .32080079 .7011719 C .35107423 .6858724 .37451173 .6640625 .39111329 .6357422 C .40771485 .6077474 .41601563 .5751953 .41601563 .53808596 L .41601563 .5209961 C .41601563 .49169923 .40820313 .46419273 .39257813 .43847657 C .37727867 .4127604 .3569336 .39322917 .33154298 .3798828 C .36149089 .36360679 .38541667 .33984376 .4033203 .30859376 C .42154948 .27766929 .43066407 .24446614 .43066407 .20898438 L .43066407 .19726563 C .43066407 .15787761 .42171226 .12320963 .4038086 .09326172 C .38623048 .06363932 .36116538 .040690107 .32861329 .024414063 C .2960612 .0081380209 .25830079 0 .21533203 0 M .21533203 .095703128 C .23844402 .095703128 .25878907 .100260417 .2763672 .109375 C .2939453 .118489589 .30745445 .13118489 .31689454 .14746094 C .32666017 .1640625 .33154298 .18310547 .33154298 .20458985 L .33154298 .21142578 C .33154298 .23323567 .32666017 .25227867 .31689454 .2685547 C .30745445 .28515626 .2939453 .2980143 .2763672 .3071289 C .25878907 .3162435 .23844402 .32080079 .21533203 .32080079 C .19222005 .32080079 .171875 .3162435 .15429688 .3071289 C .13671875 .2980143 .123046878 .28515626 .11328125 .2685547 C .10384115 .25195313 .099121097 .23274739 .099121097 .2109375 L .099121097 .20361328 C .099121097 .1821289 .10384115 .1632487 .11328125 .14697266 C .123046878 .13069661 .13671875 .118001308 .15429688 .10888672 C .171875 .100097659 .19222005 .095703128 .21533203 .095703128 M .21533203 .4165039 C .2351888 .4165039 .25276695 .4207357 .2680664 .42919923 C .28336589 .43798829 .2952474 .45035807 .30371095 .4663086 C .31217448 .48225913 .31640626 .50065109 .31640626 .5214844 L .31640626 .5283203 C .31640626 .54817709 .31217448 .5657552 .30371095 .5810547 C .2952474 .5963542 .28336589 .60807296 .2680664 .61621096 C .25276695 .6246745 .2351888 .62890627 .21533203 .62890627 C .19547527 .62890627 .17789714 .6246745 .16259766 .61621096 C .14729817 .60807296 .13541667 .5963542 .12695313 .5810547 C .118489589 .5657552 .11425781 .54801437 .11425781 .52783206 L .11425781 .5205078 C .11425781 .5 .118489589 .48177085 .12695313 .4658203 C .13541667 .4501953 .14729817 .43798829 .16259766 .42919923 C .17789714 .4207357 .19547527 .4165039 .21533203 .4165039 Z "/>
</symbol>
<symbol id="font_6_27c">
<path d="M .1977539 0 C .15608724 0 .12044271 .008300781 .09082031 .024902344 C .061197919 .041829427 .03857422 .06624349 .022949219 .09814453 C .0076497399 .1303711 0 .16910808 0 .21435547 L 0 .21484375 C 0 .24121094 .003092448 .26888023 .009277344 .29785157 C .015462239 .3268229 .024414063 .355306 .036132814 .38330079 C .038085939 .3881836 .040201826 .39290367 .04248047 .39746095 C .044759115 .40234376 .04703776 .4070638 .049316408 .4116211 L .20361328 .71728518 L .31103517 .71728518 L .12988281 .36328126 L .1303711 .38085938 C .13850911 .39615885 .15039063 .40804038 .16601563 .4165039 C .18164063 .42496745 .1998698 .42919923 .22070313 .42919923 C .25748698 .42919923 .2890625 .42089845 .3154297 .40429688 C .34179688 .3876953 .3618164 .363444 .37548829 .33154298 C .38916017 .29996745 .3959961 .2618815 .3959961 .21728516 L .3959961 .21679688 C .3959961 .17122396 .3881836 .13216146 .3725586 .099609378 C .35725913 .06705729 .3346354 .042317708 .3046875 .025390625 C .2750651 .008463542 .23942058 0 .1977539 0 M .1977539 .095703128 C .22932942 .095703128 .25358073 .10546875 .2705078 .125 C .2877604 .14453125 .29638673 .17236328 .29638673 .2084961 L .29638673 .20898438 C .29638673 .24869792 .2874349 .27929688 .26953126 .30078126 C .2516276 .32259117 .22607422 .3334961 .1928711 .3334961 C .1632487 .3334961 .14029949 .32259117 .12402344 .30078126 C .1077474 .27897135 .099609378 .24820964 .099609378 .2084961 L .099609378 .20800781 C .099609378 .171875 .108072917 .14404297 .125 .12451172 C .14225261 .10530599 .1665039 .095703128 .1977539 .095703128 Z "/>
</symbol>
<symbol id="font_6_27b">
<path d="M .19824219 0 C .16243489 0 .13053386 .0069986979 .10253906 .020996094 C .07486979 .03499349 .052246095 .055338544 .03466797 .08203125 C .017415366 .10872396 .005859375 .14078777 0 .17822266 L 0 .17871094 L .099609378 .17871094 L .099609378 .17822266 C .1031901 .15218099 .11360677 .13183594 .13085938 .1171875 C .14811199 .102864589 .17057292 .095703128 .19824219 .095703128 C .23014324 .095703128 .25472007 .106282558 .27197267 .1274414 C .28955079 .14892578 .29833985 .17903646 .29833985 .21777344 L .29833985 .27734376 C .29833985 .31575523 .28955079 .34554038 .27197267 .36669923 C .25472007 .3881836 .23014324 .39892579 .19824219 .39892579 C .18098958 .39892579 .16438802 .39404298 .1484375 .38427735 C .13248699 .37451173 .118489589 .36083985 .10644531 .34326173 L .015625 .34326173 L .015625 .71728518 L .3774414 .71728518 L .3774414 .6225586 L .115234378 .6225586 L .115234378 .46289063 C .12760417 .47298179 .1414388 .48079429 .15673828 .48632813 C .17203777 .49186198 .18766277 .4946289 .20361328 .4946289 C .2446289 .4946289 .2796224 .48616538 .30859376 .46923829 C .33789063 .4523112 .36002604 .42757163 .375 .39501954 C .39029948 .36246745 .39794923 .3232422 .39794923 .27734376 L .39794923 .21777344 C .39794923 .171875 .39013673 .13264974 .37451173 .100097659 C .35888673 .06754557 .33610026 .04264323 .30615235 .025390625 C .27620445 .008463542 .24023438 0 .19824219 0 Z "/>
</symbol>
<symbol id="font_6_277">
<path d="M .2006836 0 L .10107422 0 L .10107422 .6015625 L 0 .5395508 L 0 .6425781 L .10107422 .70996096 L .2006836 .70996096 L .2006836 0 Z "/>
</symbol>
<use xlink:href="#font_6_278" transform="matrix(6.909999,.0000018869794,-.0000009677577,-6.863461,47.364496,76.75457)"/>
<use xlink:href="#font_6_278" transform="matrix(6.909999,.0000018869794,-.0000009677577,-6.863461,58.247747,76.75458)"/>
<use xlink:href="#font_6_278" transform="matrix(6.909999,.0000018869794,-.0000009677577,-6.863461,75.895877,76.75458)"/>
<use xlink:href="#font_6_27a" transform="matrix(6.909999,.0000018869794,-.0000009677577,-6.863461,86.84661,76.757938)"/>
<use xlink:href="#font_6_279" transform="matrix(6.909999,.0000018869794,-.0000009677577,-6.863461,104.74674,76.804859)"/>
<use xlink:href="#font_6_27a" transform="matrix(6.909999,.0000018869794,-.0000009677577,-6.863461,115.64057,76.75794)"/>
<use xlink:href="#font_6_279" transform="matrix(6.909999,.0000018869794,-.0000009677577,-6.863461,133.54071,76.80486)"/>
<use xlink:href="#font_6_27e" transform="matrix(6.909999,.0000018869794,-.0000009677577,-6.863461,144.4514,76.80487)"/>
<use xlink:href="#font_6_279" transform="matrix(6.909999,.0000018869794,-.0000009677577,-6.863461,159.62596,76.80487)"/>
<use xlink:href="#font_6_27c" transform="matrix(6.909999,.0000018869794,-.0000009677577,-6.863461,170.48604,76.80488)"/>
<use xlink:href="#font_6_27b" transform="matrix(6.909999,.0000018869794,-.0000009677577,-6.863461,187.98664,76.80488)"/>
<use xlink:href="#font_6_27e" transform="matrix(6.909999,.0000018869794,-.0000009677577,-6.863461,198.81928,76.804889)"/>
<use xlink:href="#font_6_27b" transform="matrix(6.909999,.0000018869794,-.0000009677577,-6.863461,216.61476,76.804889)"/>
<use xlink:href="#font_6_277" transform="matrix(6.909999,.0000018869794,-.0000009677577,-6.863461,227.39232,76.75462)"/>
<use xlink:href="#font_6_278" transform="matrix(6.909999,.0000018869794,-.0000009677577,-6.863461,229.70555,76.75462)"/>
<symbol id="font_6_10">
<path d="M .24707031 0 C .19791667 0 .15462239 .010904948 .1171875 .032714845 C .080078128 .05452474 .05126953 .08544922 .030761719 .12548828 C .010253906 .16552735 0 .21191406 0 .26464845 L 0 .45947267 C 0 .51220706 .010253906 .55859377 .030761719 .5986328 C .05126953 .6386719 .080078128 .6695964 .1171875 .69140627 C .15462239 .7135417 .19791667 .7246094 .24707031 .7246094 C .2877604 .7246094 .3251953 .7158203 .359375 .6982422 C .3935547 .68098959 .42203776 .6564128 .44482423 .6245117 C .4679362 .59261068 .4835612 .55566409 .49169923 .5136719 L .38964845 .5136719 C .38346354 .5358073 .37304688 .5555013 .35839845 .5727539 C .34407554 .59033206 .32714845 .6038411 .3076172 .61328127 C .28808595 .6227214 .26790367 .6274414 .24707031 .6274414 C .21809896 .6274414 .19270833 .6204427 .17089844 .6064453 C .14908855 .59244796 .13216146 .5727539 .12011719 .5473633 C .108072917 .52229818 .10205078 .4930013 .10205078 .45947267 L .10205078 .26464845 C .10205078 .23144531 .108072917 .20214844 .12011719 .17675781 C .13216146 .15136719 .14908855 .13167317 .17089844 .11767578 C .19270833 .104003909 .21809896 .09716797 .24707031 .09716797 C .26822917 .09716797 .28841148 .1015625 .3076172 .11035156 C .32714845 .119140628 .34407554 .13216146 .35839845 .14941406 C .37304688 .16666667 .38346354 .18717449 .38964845 .2109375 L .49169923 .2109375 C .4835612 .16894531 .4679362 .1319987 .44482423 .100097659 C .42171226 .06819662 .3930664 .04345703 .35888673 .025878907 C .32470704 .008626302 .2874349 0 .24707031 0 Z "/>
</symbol>
<symbol id="font_6_2e">
<path d="M .4033203 .70996096 L .5029297 .70996096 L .5029297 0 L .4033203 0 L .4033203 .70996096 M 0 .70996096 L .099609378 .70996096 L .099609378 0 L 0 0 L 0 .70996096 M .06201172 .39697267 L .4560547 .39697267 L .4560547 .3022461 L .06201172 .3022461 L .06201172 .39697267 Z "/>
</symbol>
<symbol id="font_6_28d">
<path d="M 0 .26660157 L .10449219 .26660157 L .10449219 .10839844 L 0 0 L 0 .26660157 Z "/>
</symbol>
<use xlink:href="#font_6_10" transform="matrix(11.940196,.0000032606234,-.0000016722459,-11.85978,40.59144,73.444118)"/>
<use xlink:href="#font_6_2e" transform="matrix(11.940196,.0000032606234,-.0000016722459,-11.85978,51.273714,73.35726)"/>
<use xlink:href="#font_6_28d" transform="matrix(11.940196,.0000032606234,-.0000016722459,-11.85978,65.782779,75.27985)"/>
<use xlink:href="#font_6_10" transform="matrix(11.940196,.0000032606234,-.0000016722459,-11.85978,69.11657,73.44413)"/>
<use xlink:href="#font_6_2e" transform="matrix(11.940196,.0000032606234,-.0000016722459,-11.85978,79.79884,73.35727)"/>
<use xlink:href="#font_6_28d" transform="matrix(11.940196,.0000032606234,-.0000016722459,-11.85978,91.991519,75.279857)"/>
<use xlink:href="#font_6_10" transform="matrix(11.940196,.0000032606234,-.0000016722459,-11.85978,97.9402,73.44413)"/>
<use xlink:href="#font_6_2e" transform="matrix(11.940196,.0000032606234,-.0000016722459,-11.85978,108.598598,73.35728)"/>
<use xlink:href="#font_6_28d" transform="matrix(11.940196,.0000032606234,-.0000016722459,-11.85978,123.406169,75.27987)"/>
<use xlink:href="#font_6_10" transform="matrix(11.940196,.0000032606234,-.0000016722459,-11.85978,126.739948,73.444149)"/>
<use xlink:href="#font_6_2e" transform="matrix(11.940196,.0000032606234,-.0000016722459,-11.85978,137.39835,73.357288)"/>
<use xlink:href="#font_6_28d" transform="matrix(11.940196,.0000032606234,-.0000016722459,-11.85978,149.4955,75.27987)"/>
<use xlink:href="#font_6_10" transform="matrix(11.940196,.0000032606234,-.0000016722459,-11.85978,152.82927,73.444149)"/>
<use xlink:href="#font_6_2e" transform="matrix(11.940196,.0000032606234,-.0000016722459,-11.85978,163.48767,73.35729)"/>
<use xlink:href="#font_6_28d" transform="matrix(11.940196,.0000032606234,-.0000016722459,-11.85978,175.23856,75.27988)"/>
<use xlink:href="#font_6_10" transform="matrix(11.940196,.0000032606234,-.0000016722459,-11.85978,181.18724,73.44416)"/>
<use xlink:href="#font_6_2e" transform="matrix(11.940196,.0000032606234,-.0000016722459,-11.85978,191.7501,73.3573)"/>
<use xlink:href="#font_6_28d" transform="matrix(11.940196,.0000032606234,-.0000016722459,-11.85978,206.48604,75.279888)"/>
<use xlink:href="#font_6_10" transform="matrix(11.940196,.0000032606234,-.0000016722459,-11.85978,209.81983,73.44417)"/>
<use xlink:href="#font_6_2e" transform="matrix(11.940196,.0000032606234,-.0000016722459,-11.85978,220.38269,73.35731)"/>
</g>
</g>
</g>
<g id="Layer-1" data-name="P">
<clipPath id="cp7">
<path transform="matrix(1,0,0,-1,0,841.92)" d="M .000008871 0 L 595.32 0 L 595.32 841.92 L .000008871 841.92 Z " fill-rule="evenodd"/>
</clipPath>
<g clip-path="url(#cp7)">
<use xlink:href="#font_3_3" transform="matrix(10.98,0,0,-10.98,234.8,73.5)"/>
</g>
</g>
</g>
</g>
</svg>
