<?xml version="1.0" encoding="utf-8"?>
<!-- Generator: Adobe Illustrator 22.1.0, SVG Export Plug-In . SVG Version: 6.00 Build 0)  -->
<svg version="1.1" id="Layer_1" xmlns="http://www.w3.org/2000/svg" xmlns:xlink="http://www.w3.org/1999/xlink" x="0px" y="0px"
	 viewBox="0 0 916.3 121.9" style="enable-background:new 0 0 916.3 121.9;" xml:space="preserve">
<style type="text/css">
	.st0{fill:none;stroke:#000000;stroke-miterlimit:10;}
	.st1{font-family:'MyriadPro-Regular';}
	.st2{font-size:12px;}
</style>
<polygon class="st0" points="50.5,60.5 808.5,60.5 809.1,60.5 809.1,53.5 840.6,73.4 809.4,96.1 809.4,88.1 48.9,88.1 48.9,60.5 "/>
<line class="st0" x1="48.9" y1="49.6" x2="48.9" y2="60.5"/>
<line class="st0" x1="297.6" y1="49.2" x2="297.6" y2="88.2"/>
<line class="st0" x1="795" y1="49.5" x2="795" y2="88"/>
<text transform="matrix(1 0 0 1 29.3332 42.3332)" class="st1 st2">3800 rok p. n. e.</text>
<text transform="matrix(1 0 0 1 277.3335 42.9998)" class="st1 st2">3300 rok p. n. e. </text>
<text transform="matrix(1 0 0 1 772.667 42.3333)" class="st1 st2">2800 rok p. n. e.</text>
<line class="st0" x1="172.3" y1="88.5" x2="172.3" y2="50.5"/>
<text transform="matrix(1 0 0 1 151.75 46.75)" class="st1 st2">3500 rok p. n. e.</text>
</svg>
