<?xml version="1.0" encoding="UTF-8" standalone="no"?>
<!DOCTYPE svg PUBLIC "-//W3C//DTD SVG 1.1//EN" "http://www.w3.org/Graphics/SVG/1.1/DTD/svg11.dtd">
<svg xmlns="http://www.w3.org/2000/svg" xmlns:xlink="http://www.w3.org/1999/xlink" version="1.1" width="595.32pt" height="841.92pt" viewBox="0 0 595.32 841.92">
<g enable-background="new">
<g>
<g id="Layer-1" data-name="P">
<clipPath id="cp0">
<path transform="matrix(1,0,0,-1,0,841.92)" d="M .000008871 0 L 595.32 0 L 595.32 841.92 L .000008871 841.92 Z " fill-rule="evenodd"/>
</clipPath>
<g clip-path="url(#cp0)">
<symbol id="font_1_56">
<path d="M .05126953 .3701172 L .2783203 .3701172 C .2998047 .3701172 .3186849 .37516276 .33496095 .3852539 C .35123698 .39534507 .36376954 .40966798 .3725586 .42822267 C .3816732 .44677735 .38623048 .46809898 .38623048 .4921875 C .38623048 .51660159 .3816732 .53808596 .3725586 .5566406 C .36376954 .5751953 .35123698 .58951827 .33496095 .5996094 C .3186849 .61002609 .2998047 .6152344 .2783203 .6152344 L .05126953 .6152344 L .05126953 .70996096 L .27490235 .70996096 C .31722007 .70996096 .3544922 .7008464 .38671876 .6826172 C .4189453 .66471359 .44384767 .63932296 .46142579 .6064453 C .47932945 .5735677 .48828126 .53548178 .48828126 .4921875 C .48828126 .44889323 .47932945 .41080729 .46142579 .3779297 C .44384767 .3453776 .4189453 .32014976 .38671876 .3022461 C .3544922 .28434245 .31722007 .27539063 .27490235 .27539063 L .05126953 .27539063 L .05126953 .3701172 M 0 .70996096 L .099609378 .70996096 L .099609378 0 L 0 0 L 0 .70996096 Z "/>
</symbol>
<symbol id="font_1_c8">
<path d="M .20898438 0 C .16503906 0 .1274414 .008626302 .096191409 .025878907 C .064941409 .04313151 .041015626 .06819662 .024414063 .10107422 C .0081380209 .13427735 0 .17415364 0 .22070313 L 0 .30322267 C 0 .3491211 .0081380209 .38834635 .024414063 .42089845 C .041015626 .45377604 .064941409 .47867839 .096191409 .49560548 C .1274414 .5128581 .16503906 .5214844 .20898438 .5214844 C .2529297 .5214844 .29052735 .5128581 .32177735 .49560548 C .35302735 .47867839 .37679038 .45377604 .3930664 .42089845 C .40966798 .38834635 .41796876 .3491211 .41796876 .30322267 L .41796876 .21923828 C .41796876 .17301433 .40966798 .13346355 .3930664 .10058594 C .37679038 .06803385 .35302735 .04313151 .32177735 .025878907 C .29052735 .008626302 .2529297 0 .20898438 0 M .20898438 .09472656 C .24381511 .09472656 .27067057 .10563151 .28955079 .1274414 C .3087565 .1492513 .31835938 .17985027 .31835938 .21923828 L .31835938 .30322267 C .31835938 .3426107 .3087565 .37304688 .28955079 .39453126 C .27067057 .41601563 .24381511 .4267578 .20898438 .4267578 C .17415364 .4267578 .14713542 .41601563 .12792969 .39453126 C .10904948 .37304688 .099609378 .3426107 .099609378 .30322267 L .099609378 .21923828 C .099609378 .17985027 .10904948 .1492513 .12792969 .1274414 C .14713542 .10563151 .17415364 .09472656 .20898438 .09472656 Z "/>
</symbol>
<symbol id="font_1_95">
<path d="M .30273438 .71875 L .40234376 .71875 L .40234376 .0087890629 L .30273438 .0087890629 L .30273438 .71875 M .17529297 0 C .1381836 0 .10644531 .007975261 .080078128 .023925782 C .054036458 .040201826 .034179689 .063802089 .020507813 .09472656 C .0068359377 .12565105 0 .16276042 0 .20605469 L 0 .3178711 C 0 .36149089 .0066731774 .39876304 .020019532 .4296875 C .033365888 .46061198 .052734376 .48404948 .078125 .5 C .10384115 .51627609 .13460286 .52441409 .17041016 .52441409 C .20035808 .52441409 .22770183 .51660159 .2524414 .50097659 C .2775065 .48535157 .2976888 .4633789 .31298829 .4350586 L .30273438 .33154298 C .30273438 .35302735 .29882813 .37141929 .29101563 .38671876 C .28320313 .40201823 .2718099 .41357423 .25683595 .42138673 C .2421875 .42952476 .22428386 .43359376 .203125 .43359376 C .17024739 .43359376 .14469402 .42333985 .12646485 .40283204 C .108561199 .38232423 .099609378 .35351563 .099609378 .31640626 L .099609378 .20605469 C .099609378 .16927083 .108561199 .14078777 .12646485 .12060547 C .14469402 .100748699 .17024739 .09082031 .203125 .09082031 C .22428386 .09082031 .2421875 .09488932 .25683595 .103027347 C .2718099 .11149088 .28320313 .123535159 .29101563 .13916016 C .29882813 .15478516 .30273438 .17350261 .30273438 .1953125 L .3095703 .088378909 C .29947917 .063313808 .2828776 .042317708 .25976563 .025390625 C .23697917 .008463542 .20882161 0 .17529297 0 Z "/>
</symbol>
<symbol id="font_1_b9">
<path d="M .04296875 .19238281 L .30371095 .50683596 L .42089845 .50683596 L .036621095 .07421875 L .04296875 .19238281 M 0 .70996096 L .099609378 .70996096 L .099609378 0 L 0 0 L 0 .70996096 M .16064453 .29248048 L .22460938 .35888673 L .44580079 0 L .33740235 0 L .16064453 .29248048 Z "/>
</symbol>
<symbol id="font_1_d8">
<path d="M 0 .50683596 L .099609378 .50683596 L .099609378 0 L 0 0 L 0 .50683596 M .2788086 .38671876 C .27001954 .39746095 .2589518 .40559898 .24560547 .4111328 C .23225911 .41666667 .21679688 .4194336 .19921875 .4194336 C .16764324 .4194336 .1430664 .41064454 .12548828 .3930664 C .10823568 .3758138 .099609378 .35172526 .099609378 .32080079 L .08935547 .41845704 C .10498047 .44873048 .12516277 .47216798 .14990235 .48876954 C .17464192 .5056966 .20198567 .51416018 .2319336 .51416018 C .25504557 .51416018 .2758789 .5107422 .2944336 .50390627 C .3133138 .49739585 .3297526 .48763023 .34375 .47460938 L .2788086 .38671876 Z "/>
</symbol>
<symbol id="font_1_9b">
<path d="M .22216797 0 C .17529297 0 .1352539 .0087890629 .10205078 .026367188 C .068847659 .043945314 .04345703 .06966146 .025878907 .103515628 C .008626302 .13769531 0 .1788737 0 .22705078 L 0 .2841797 C 0 .3343099 .008300781 .37711589 .024902344 .41259767 C .041829427 .44807945 .06624349 .47509767 .09814453 .49365235 C .13004558 .51220706 .16845703 .5214844 .2133789 .5214844 C .25569663 .5214844 .29182945 .51090499 .32177735 .4897461 C .35172526 .46858726 .37451173 .43798829 .39013673 .39794923 C .40608726 .35791017 .4140625 .30989585 .4140625 .25390626 L .4140625 .22070313 L .072265628 .22070313 L .072265628 .30078126 L .31933595 .30078126 C .31640626 .3421224 .30566407 .3741862 .28710938 .39697267 C .26888023 .42008464 .24430339 .43164063 .2133789 .43164063 C .17561849 .43164063 .14632161 .41927085 .12548828 .39453126 C .10498047 .36979167 .09472656 .3347982 .09472656 .28955079 L .09472656 .22509766 C .09472656 .18310547 .10579427 .1508789 .12792969 .12841797 C .15006511 .10595703 .18147786 .09472656 .22216797 .09472656 C .24235027 .09472656 .26236979 .09879557 .28222657 .106933597 C .30208335 .11507162 .31982423 .12646485 .33544923 .14111328 L .4008789 .075683597 C .3758138 .05159505 .34765626 .032877607 .31640626 .01953125 C .28515626 .0065104167 .2537435 0 .22216797 0 Z "/>
</symbol>
<symbol id="font_1_dd">
<path d="M .22070313 0 C .1907552 0 .16259766 .0029296876 .13623047 .0087890629 C .110188808 .0146484379 .08577474 .0234375 .06298828 .03515625 C .040201826 .046875 .019205729 .061523439 0 .07910156 L .05908203 .15185547 C .08642578 .13102214 .11360677 .11539713 .140625 .10498047 C .16764324 .094563808 .19433594 .08935547 .22070313 .08935547 C .26009117 .08935547 .28955079 .0953776 .30908204 .107421878 C .3289388 .119791667 .3388672 .1381836 .3388672 .16259766 C .3388672 .1788737 .3334961 .19108074 .3227539 .19921875 C .31201173 .20735677 .29866538 .21272786 .28271485 .21533203 C .2667643 .21826172 .24430339 .22086589 .21533203 .22314453 C .21272786 .22314453 .20996094 .22314453 .20703125 .22314453 C .20410156 .22347005 .20133464 .22379558 .19873047 .2241211 C .19742839 .2241211 .1961263 .2241211 .19482422 .2241211 C .19352214 .22444661 .19222005 .22460938 .19091797 .22460938 C .15804036 .22721355 .13020833 .2319336 .107421878 .23876953 C .084635417 .24593099 .065592449 .2591146 .05029297 .2783203 C .03531901 .29752604 .027832032 .32503257 .027832032 .36083985 C .027832032 .39664714 .03515625 .42643229 .049804689 .4501953 C .064453128 .47395835 .08626302 .49169923 .115234378 .50341799 C .14420574 .5154622 .1805013 .5214844 .2241211 .5214844 C .25048829 .5214844 .27555339 .51904299 .2993164 .51416018 C .32340495 .50927737 .34635417 .5019531 .36816407 .4921875 C .38997398 .4827474 .41097007 .47070313 .43115235 .4560547 L .37109376 .38330079 C .34570313 .3995768 .32063804 .41178385 .29589845 .41992188 C .27148438 .4280599 .2475586 .4321289 .2241211 .4321289 C .19026692 .4321289 .1648763 .42626954 .14794922 .41455079 C .13102214 .40315757 .122558597 .38590495 .122558597 .36279298 C .122558597 .3491211 .12727864 .3388672 .13671875 .33203126 C .14648438 .3251953 .1586914 .32063804 .17333985 .31835938 C .18798828 .31608073 .20882161 .3141276 .23583985 .3125 C .23779297 .31217448 .2397461 .31201173 .24169922 .31201173 C .24397786 .31201173 .24625652 .31184898 .24853516 .31152345 C .24951172 .31152345 .25048829 .31152345 .25146485 .31152345 C .2524414 .31152345 .25341798 .3113607 .25439454 .31103517 C .2898763 .3087565 .31998698 .30403648 .34472657 .296875 C .36979167 .28971354 .39078776 .27555339 .40771485 .25439454 C .42464195 .23323567 .43310548 .20263672 .43310548 .16259766 C .43310548 .12613933 .42529298 .09586588 .40966798 .071777347 C .39404298 .048014326 .37044273 .030110678 .3388672 .018066407 C .3076172 .0060221354 .26822917 0 .22070313 0 M .17089844 .6621094 L .31054688 .8354492 L .38232423 .7758789 L .23339844 .6118164 L .17089844 .6621094 Z "/>
</symbol>
<symbol id="font_1_bc">
<path d="M .099609378 .13330078 C .099609378 .12093099 .10221354 .111328128 .107421878 .10449219 C .11295573 .09798177 .12060547 .09472656 .1303711 .09472656 L .1772461 .09472656 L .1772461 0 L .118652347 0 C .08089193 0 .05159505 .01171875 .030761719 .03515625 C .010253906 .05859375 0 .09163412 0 .13427735 L 0 .71240237 L .099609378 .71240237 L .099609378 .13330078 Z "/>
</symbol>
<symbol id="font_1_1">
<path d="M 0 0 Z "/>
</symbol>
<symbol id="font_1_f4">
<path d="M 0 .50683596 L .104003909 .50683596 L .19384766 .14501953 L .3203125 .50683596 L .38964845 .50683596 L .5161133 .14501953 L .60595706 .50683596 L .70996096 .50683596 L .55371096 0 L .47851563 0 L .35498048 .35009767 L .23144531 0 L .15625 0 L 0 .50683596 Z "/>
</symbol>
<symbol id="font_1_fa">
<path d="M .3642578 .42285157 L .12060547 .092285159 L .3774414 .092285159 L .3774414 0 L 0 0 L 0 .0859375 L .25 .41455079 L .0068359377 .41455079 L .0068359377 .50683596 L .3642578 .50683596 L .3642578 .42285157 Z "/>
</symbol>
<symbol id="font_1_f6">
<path d="M .44873048 .7182617 L .23291016 .09277344 C .22509766 .06966146 .21484375 .051432294 .20214844 .038085939 C .18945313 .024414063 .17382813 .0146484379 .15527344 .0087890629 C .13671875 .0029296876 .11393229 0 .08691406 0 L .06689453 0 L .06689453 .095703128 L .08691406 .095703128 C .10546875 .095703128 .12011719 .09944662 .13085938 .106933597 C .14192708 .11442057 .15152996 .12727864 .15966797 .14550781 L .34716798 .7182617 L .44873048 .7182617 M 0 .7182617 L .1015625 .7182617 L .25732423 .27783204 L .20214844 .16992188 L 0 .7182617 Z "/>
</symbol>
<symbol id="font_1_dc">
<path d="M .22070313 0 C .1907552 0 .16259766 .0029296876 .13623047 .0087890629 C .110188808 .0146484379 .08577474 .0234375 .06298828 .03515625 C .040201826 .046875 .019205729 .061523439 0 .07910156 L .05908203 .15185547 C .08642578 .13102214 .11360677 .11539713 .140625 .10498047 C .16764324 .094563808 .19433594 .08935547 .22070313 .08935547 C .26009117 .08935547 .28955079 .0953776 .30908204 .107421878 C .3289388 .119791667 .3388672 .1381836 .3388672 .16259766 C .3388672 .1788737 .3334961 .19108074 .3227539 .19921875 C .31201173 .20735677 .29866538 .21272786 .28271485 .21533203 C .2667643 .21826172 .24430339 .22086589 .21533203 .22314453 C .21272786 .22314453 .20996094 .22314453 .20703125 .22314453 C .20410156 .22347005 .20133464 .22379558 .19873047 .2241211 C .19742839 .2241211 .1961263 .2241211 .19482422 .2241211 C .19352214 .22444661 .19222005 .22460938 .19091797 .22460938 C .15804036 .22721355 .13020833 .2319336 .107421878 .23876953 C .084635417 .24593099 .065592449 .2591146 .05029297 .2783203 C .03531901 .29752604 .027832032 .32503257 .027832032 .36083985 C .027832032 .39664714 .03515625 .42643229 .049804689 .4501953 C .064453128 .47395835 .08626302 .49169923 .115234378 .50341799 C .14420574 .5154622 .1805013 .5214844 .2241211 .5214844 C .25048829 .5214844 .27555339 .51904299 .2993164 .51416018 C .32340495 .50927737 .34635417 .5019531 .36816407 .4921875 C .38997398 .4827474 .41097007 .47070313 .43115235 .4560547 L .37109376 .38330079 C .34570313 .3995768 .32063804 .41178385 .29589845 .41992188 C .27148438 .4280599 .2475586 .4321289 .2241211 .4321289 C .19026692 .4321289 .1648763 .42626954 .14794922 .41455079 C .13102214 .40315757 .122558597 .38590495 .122558597 .36279298 C .122558597 .3491211 .12727864 .3388672 .13671875 .33203126 C .14648438 .3251953 .1586914 .32063804 .17333985 .31835938 C .18798828 .31608073 .20882161 .3141276 .23583985 .3125 C .23779297 .31217448 .2397461 .31201173 .24169922 .31201173 C .24397786 .31201173 .24625652 .31184898 .24853516 .31152345 C .24951172 .31152345 .25048829 .31152345 .25146485 .31152345 C .2524414 .31152345 .25341798 .3113607 .25439454 .31103517 C .2898763 .3087565 .31998698 .30403648 .34472657 .296875 C .36979167 .28971354 .39078776 .27555339 .40771485 .25439454 C .42464195 .23323567 .43310548 .20263672 .43310548 .16259766 C .43310548 .12613933 .42529298 .09586588 .40966798 .071777347 C .39404298 .048014326 .37044273 .030110678 .3388672 .018066407 C .3076172 .0060221354 .26822917 0 .22070313 0 Z "/>
</symbol>
<symbol id="font_1_e7">
<path d="M .30566407 .51416018 L .40478517 .51416018 L .40478517 .0073242189 L .30566407 .0073242189 L .30566407 .51416018 M .099609378 .20605469 C .099609378 .17057292 .108561199 .1430664 .12646485 .123535159 C .14469402 .10432943 .17024739 .09472656 .203125 .09472656 C .23567708 .09472656 .26090495 .10335287 .2788086 .12060547 C .29671226 .13785808 .30566407 .16243489 .30566407 .19433594 L .3125 .088378909 C .30208335 .063313808 .28515626 .042317708 .26171876 .025390625 C .23828125 .008463542 .20947266 0 .17529297 0 C .11930338 0 .07600912 .017903647 .045410158 .053710939 C .015136719 .08984375 0 .140625 0 .20605469 L 0 .51416018 L .099609378 .51416018 L .099609378 .20605469 Z "/>
</symbol>
<symbol id="font_1_c1">
<path d="M .60546877 .3071289 C .60546877 .3429362 .5961914 .37060548 .5776367 .39013673 C .55908206 .40966798 .53304037 .4194336 .49951173 .4194336 C .46858726 .4194336 .44466148 .4099935 .42773438 .39111329 C .41080729 .37223307 .40234376 .34554038 .40234376 .31103517 L .38232423 .4086914 C .39827476 .44222007 .41927085 .46809898 .4453125 .48632813 C .4716797 .5048828 .50065109 .51416018 .53222659 .51416018 C .5686849 .51416018 .59977218 .50602218 .6254883 .4897461 C .65152999 .47379557 .67122396 .45035807 .6845703 .4194336 C .6982422 .38850913 .7050781 .35123698 .7050781 .3076172 L .7050781 0 L .60546877 0 L .60546877 .3071289 M 0 .50683596 L .099609378 .50683596 L .099609378 0 L 0 0 L 0 .50683596 M .30273438 .3071289 C .30273438 .3429362 .2939453 .37060548 .2763672 .39013673 C .25878907 .40966798 .23388672 .4194336 .20166016 .4194336 C .16910808 .4194336 .1438802 .41080729 .12597656 .3935547 C .10839844 .3763021 .099609378 .35205079 .099609378 .32080079 L .08935547 .41845704 C .10498047 .449056 .12532552 .47265626 .15039063 .4892578 C .17578125 .5058594 .20377605 .51416018 .234375 .51416018 C .26985679 .51416018 .30013023 .50602218 .3251953 .4897461 C .3502604 .47379557 .36930339 .45035807 .38232423 .4194336 C .39567057 .38850913 .40234376 .35123698 .40234376 .3076172 L .40234376 0 L .30273438 0 L .30273438 .3071289 Z "/>
</symbol>
<symbol id="font_1_82">
<path d="M .31054688 .32861329 C .31054688 .3618164 .30159507 .38753257 .2836914 .40576173 C .26611329 .4243164 .24104817 .43359376 .2084961 .43359376 C .1883138 .43359376 .16845703 .4305013 .14892578 .4243164 C .12972005 .4181315 .11263021 .40950523 .09765625 .3984375 L .024902344 .4482422 C .044108076 .47135417 .06933594 .4892578 .10058594 .5019531 C .13216146 .51497396 .16715496 .5214844 .2055664 .5214844 C .2475586 .5214844 .28352867 .5139974 .31347657 .49902345 C .34342448 .484375 .36621095 .46289063 .38183595 .4345703 C .39746095 .40657554 .40527345 .37272135 .40527345 .3330078 L .40527345 .0073242189 L .31054688 .0073242189 L .31054688 .32861329 M .18652344 0 C .12402344 0 .077311199 .012858073 .04638672 .03857422 C .015462239 .06461588 0 .104003909 0 .15673828 C 0 .20686849 .014160156 .24446614 .04248047 .26953126 C .07080078 .29459635 .11360677 .3071289 .17089844 .3071289 L .3149414 .3071289 L .32177735 .22705078 L .17138672 .22705078 C .14534505 .22705078 .1258138 .2211914 .11279297 .20947266 C .100097659 .19807942 .09375 .1805013 .09375 .15673828 C .09375 .13102214 .10221354 .111979167 .119140628 .099609378 C .13639324 .087239589 .16243489 .08105469 .19726563 .08105469 C .23535156 .08105469 .26367188 .085123699 .28222657 .09326172 C .30110679 .10139974 .31054688 .114095058 .31054688 .13134766 L .32080079 .060058595 C .31201173 .04638672 .30110679 .03515625 .28808595 .026367188 C .27539063 .017578125 .26057945 .011067708 .24365235 .0068359377 C .22672527 .0022786458 .2076823 0 .18652344 0 Z "/>
</symbol>
<symbol id="font_1_90">
<path d="M .21923828 0 C .17301433 0 .13346355 .008626302 .10058594 .025878907 C .06803385 .04313151 .04313151 .06819662 .025878907 .10107422 C .008626302 .13395183 0 .17366536 0 .22021485 L 0 .30371095 C 0 .34960938 .008626302 .38883464 .025878907 .42138673 C .04313151 .4539388 .06803385 .47867839 .10058594 .49560548 C .13346355 .5128581 .17301433 .5214844 .21923828 .5214844 C .24560547 .5214844 .27034507 .5182292 .29345704 .51171877 C .31689454 .5055339 .33789063 .49641929 .3564453 .484375 C .375 .47233073 .39046226 .45768229 .40283204 .4404297 L .3310547 .37597657 C .31673179 .3922526 .29996745 .40478517 .28076173 .41357423 C .261556 .42236329 .24153646 .4267578 .22070313 .4267578 C .18229167 .4267578 .15250652 .41601563 .13134766 .39453126 C .110188808 .37304688 .099609378 .34277345 .099609378 .30371095 L .099609378 .22021485 C .099609378 .18017578 .11002604 .1492513 .13085938 .1274414 C .15201824 .10563151 .18196614 .09472656 .22070313 .09472656 C .24186199 .09472656 .26204429 .09944662 .28125 .10888672 C .30045573 .11832682 .31705729 .13167317 .3310547 .14892578 L .40283204 .079589847 C .39013673 .06266276 .37451173 .048177083 .35595704 .036132814 C .33740235 .024414063 .31640626 .015462239 .29296876 .009277344 C .26985679 .003092448 .24527996 0 .21923828 0 Z "/>
</symbol>
<symbol id="font_1_c2">
<path d="M 0 .50683596 L .099609378 .50683596 L .099609378 0 L 0 0 L 0 .50683596 M .3076172 .3071289 C .3076172 .3429362 .29833985 .37060548 .27978517 .39013673 C .26123048 .40966798 .2351888 .4194336 .20166016 .4194336 C .16910808 .4194336 .1438802 .41080729 .12597656 .3935547 C .10839844 .3763021 .099609378 .35205079 .099609378 .32080079 L .08935547 .41845704 C .10498047 .449056 .12532552 .47265626 .15039063 .4892578 C .17578125 .5058594 .20377605 .51416018 .234375 .51416018 C .28938804 .51416018 .3318685 .49609376 .3618164 .45996095 C .39208985 .42415367 .40722657 .3733724 .40722657 .3076172 L .40722657 0 L .3076172 0 L .3076172 .3071289 Z "/>
</symbol>
<symbol id="font_1_c9">
<path d="M .20898438 0 C .16503906 0 .1274414 .008626302 .096191409 .025878907 C .064941409 .04313151 .041015626 .06819662 .024414063 .10107422 C .0081380209 .13427735 0 .17415364 0 .22070313 L 0 .30322267 C 0 .3491211 .0081380209 .38834635 .024414063 .42089845 C .041015626 .45377604 .064941409 .47867839 .096191409 .49560548 C .1274414 .5128581 .16503906 .5214844 .20898438 .5214844 C .2529297 .5214844 .29052735 .5128581 .32177735 .49560548 C .35302735 .47867839 .37679038 .45377604 .3930664 .42089845 C .40966798 .38834635 .41796876 .3491211 .41796876 .30322267 L .41796876 .21923828 C .41796876 .17301433 .40966798 .13346355 .3930664 .10058594 C .37679038 .06803385 .35302735 .04313151 .32177735 .025878907 C .29052735 .008626302 .2529297 0 .20898438 0 M .20898438 .09472656 C .24381511 .09472656 .27067057 .10563151 .28955079 .1274414 C .3087565 .1492513 .31835938 .17985027 .31835938 .21923828 L .31835938 .30322267 C .31835938 .3426107 .3087565 .37304688 .28955079 .39453126 C .27067057 .41601563 .24381511 .4267578 .20898438 .4267578 C .17415364 .4267578 .14713542 .41601563 .12792969 .39453126 C .10904948 .37304688 .099609378 .3426107 .099609378 .30322267 L .099609378 .21923828 C .099609378 .17985027 .10904948 .1492513 .12792969 .1274414 C .14713542 .10563151 .17415364 .09472656 .20898438 .09472656 M .15527344 .6621094 L .29492188 .8354492 L .36669923 .7758789 L .21777344 .6118164 L .15527344 .6621094 Z "/>
</symbol>
<symbol id="font_1_292">
<path d="M 0 .10449219 L .10449219 .10449219 L .10449219 0 L 0 0 L 0 .10449219 Z "/>
</symbol>
<use xlink:href="#font_1_56" transform="matrix(12,0,0,-12,37.054689,47.940004)"/>
<use xlink:href="#font_1_c8" transform="matrix(12,0,0,-12,44.23772,48.027894)"/>
<use xlink:href="#font_1_95" transform="matrix(12,0,0,-12,50.77772,48.04547)"/>
<use xlink:href="#font_1_b9" transform="matrix(12,0,0,-12,57.4455,47.940004)"/>
<use xlink:href="#font_1_d8" transform="matrix(12,0,0,-12,63.7935,47.940004)"/>
<use xlink:href="#font_1_9b" transform="matrix(12,0,0,-12,68.741718,48.027894)"/>
<use xlink:href="#font_1_dd" transform="matrix(12,0,0,-12,74.85145,48.027894)"/>
<use xlink:href="#font_1_bc" transform="matrix(12,0,0,-12,81.5775,47.9693)"/>
<use xlink:href="#font_1_1" transform="matrix(12,0,0,-12,84.12,47.940004)"/>
<use xlink:href="#font_1_f4" transform="matrix(12,0,0,-12,87.758159,47.940004)"/>
<use xlink:href="#font_1_fa" transform="matrix(12,0,0,-12,97.34972,47.940004)"/>
<use xlink:href="#font_1_c8" transform="matrix(12,0,0,-12,103.28972,48.027894)"/>
<use xlink:href="#font_1_d8" transform="matrix(12,0,0,-12,110.0055,47.940004)"/>
<use xlink:href="#font_1_f6" transform="matrix(12,0,0,-12,114.48497,50.47711)"/>
<use xlink:href="#font_1_1" transform="matrix(12,0,0,-12,119.988,47.940004)"/>
<use xlink:href="#font_1_dc" transform="matrix(12,0,0,-12,123.65545,48.027894)"/>
<use xlink:href="#font_1_e7" transform="matrix(12,0,0,-12,130.3815,48.027894)"/>
<use xlink:href="#font_1_c1" transform="matrix(12,0,0,-12,137.0535,47.940004)"/>
<use xlink:href="#font_1_82" transform="matrix(12,0,0,-12,147.03253,48.027894)"/>
<use xlink:href="#font_1_d8" transform="matrix(12,0,0,-12,153.7095,47.940004)"/>
<use xlink:href="#font_1_f6" transform="matrix(12,0,0,-12,158.18897,50.47711)"/>
<use xlink:href="#font_1_90" transform="matrix(12,0,0,-12,164.47772,48.027894)"/>
<use xlink:href="#font_1_fa" transform="matrix(12,0,0,-12,170.45372,47.940004)"/>
<use xlink:href="#font_1_c2" transform="matrix(12,0,0,-12,176.5695,47.940004)"/>
<use xlink:href="#font_1_9b" transform="matrix(12,0,0,-12,183.12572,48.027894)"/>
<use xlink:href="#font_1_1" transform="matrix(12,0,0,-12,188.796,47.940004)"/>
<use xlink:href="#font_1_82" transform="matrix(12,0,0,-12,192.66854,48.027894)"/>
<use xlink:href="#font_1_bc" transform="matrix(12,0,0,-12,199.3455,47.9693)"/>
<use xlink:href="#font_1_b9" transform="matrix(12,0,0,-12,202.8255,47.940004)"/>
<use xlink:href="#font_1_9b" transform="matrix(12,0,0,-12,208.99773,48.027894)"/>
<use xlink:href="#font_1_c2" transform="matrix(12,0,0,-12,215.52152,47.940004)"/>
<use xlink:href="#font_1_c9" transform="matrix(12,0,0,-12,222.05374,48.027894)"/>
<use xlink:href="#font_1_f4" transform="matrix(12,0,0,-12,228.24217,47.940004)"/>
<use xlink:href="#font_1_292" transform="matrix(12,0,0,-12,237.84044,47.940004)"/>
</g>
<clipPath id="cp2">
<path transform="matrix(1,0,0,-1,0,841.92)" d="M .000008871 0 L 595.32 0 L 595.32 841.92 L .000008871 841.92 Z " fill-rule="evenodd"/>
</clipPath>
<g clip-path="url(#cp2)">
<symbol id="font_3_1">
<path d="M 0 0 Z "/>
</symbol>
<use xlink:href="#font_3_1" transform="matrix(12,0,0,-12,239.92,47.940004)"/>
</g>
</g>
<g id="Layer-1" data-name="P">
<clipPath id="cp4">
<path transform="matrix(1,0,0,-1,0,841.92)" d="M .000008871 0 L 595.32 0 L 595.32 841.92 L .000008871 841.92 Z " fill-rule="evenodd"/>
</clipPath>
<g clip-path="url(#cp4)">
<use xlink:href="#font_3_1" transform="matrix(12,0,0,-12,36,71.45996)"/>
</g>
</g>
<g id="Layer-1" data-name="P">
<clipPath id="cp5">
<path transform="matrix(1,0,0,-1,0,841.92)" d="M 0 .000061035 L 595.32 .000061035 L 595.32 841.92007 L 0 841.92007 Z " fill-rule="evenodd"/>
</clipPath>
<g clip-path="url(#cp5)">
<clipPath id="cp6">
<path transform="matrix(.99635449,.0000002734607,-.00000013945841,-1.0055544,36.03,107.52997)" d="M 0 0 L 198.52 0 L 198.52 24.265 L 0 24.265 Z " fill-rule="evenodd"/>
</clipPath>
<g clip-path="url(#cp6)">
<path transform="matrix(.99635449,.0000002734607,-.00000013945841,-1.0055544,36.03,107.52997)" stroke-width=".5885" stroke-linecap="butt" stroke-linejoin="round" fill="none" stroke="#000000" d="M 25.551 21.64 L 25.551 3.2141 "/>
<path transform="matrix(.99635449,.0000002734607,-.00000013945841,-1.0055544,36.03,107.52997)" stroke-width=".5885" stroke-linecap="butt" stroke-linejoin="round" fill="none" stroke="#000000" d="M 52.229 21.64 L 52.229 3.2141 "/>
<path transform="matrix(.99635449,.0000002734607,-.00000013945841,-1.0055544,36.03,107.52997)" stroke-width=".5885" stroke-linecap="butt" stroke-linejoin="round" fill="none" stroke="#000000" d="M 25.281 21.37 L 52.523 21.37 "/>
<path transform="matrix(.99635449,.0000002734607,-.00000013945841,-1.0055544,36.03,107.52997)" stroke-width=".5885" stroke-linecap="butt" stroke-linejoin="round" fill="none" stroke="#000000" d="M 25.281 3.533 L 52.523 3.533 "/>
<path transform="matrix(.99635449,.0000002734607,-.00000013945841,-1.0055544,36.03,107.52997)" stroke-width=".5885" stroke-linecap="butt" stroke-linejoin="round" fill="none" stroke="#000000" d="M 109.19 21.64 L 109.19 3.2141 "/>
<path transform="matrix(.99635449,.0000002734607,-.00000013945841,-1.0055544,36.03,107.52997)" stroke-width=".5885" stroke-linecap="butt" stroke-linejoin="round" fill="none" stroke="#000000" d="M 135.38 21.64 L 135.38 3.2141 "/>
<path transform="matrix(.99635449,.0000002734607,-.00000013945841,-1.0055544,36.03,107.52997)" stroke-width=".5885" stroke-linecap="butt" stroke-linejoin="round" fill="none" stroke="#000000" d="M 108.92 21.37 L 135.7 21.37 "/>
<path transform="matrix(.99635449,.0000002734607,-.00000013945841,-1.0055544,36.03,107.52997)" stroke-width=".5885" stroke-linecap="butt" stroke-linejoin="round" fill="none" stroke="#000000" d="M 108.92 3.533 L 135.7 3.533 "/>
<path transform="matrix(.99635449,.0000002734607,-.00000013945841,-1.0055544,36.03,107.52997)" stroke-width=".5885" stroke-linecap="butt" stroke-linejoin="round" fill="none" stroke="#000000" d="M 140.31 21.64 L 140.31 3.2141 "/>
<path transform="matrix(.99635449,.0000002734607,-.00000013945841,-1.0055544,36.03,107.52997)" stroke-width=".5885" stroke-linecap="butt" stroke-linejoin="round" fill="none" stroke="#000000" d="M 168.97 21.64 L 168.97 3.2141 "/>
<path transform="matrix(.99635449,.0000002734607,-.00000013945841,-1.0055544,36.03,107.52997)" stroke-width=".5885" stroke-linecap="butt" stroke-linejoin="round" fill="none" stroke="#000000" d="M 140.01 21.37 L 169.29 21.37 "/>
<path transform="matrix(.99635449,.0000002734607,-.00000013945841,-1.0055544,36.03,107.52997)" stroke-width=".5885" stroke-linecap="butt" stroke-linejoin="round" fill="none" stroke="#000000" d="M 140.01 3.533 L 169.29 3.533 "/>
<symbol id="font_7_27a">
<path d="M 0 .19580078 L .23828125 .70996096 L .3408203 .70996096 L .10839844 .20166016 L .45654298 .20166016 L .45654298 .109375 L 0 .109375 L 0 .19580078 M .30615235 .41796876 L .4033203 .41796876 L .4033203 0 L .30615235 0 L .30615235 .41796876 Z "/>
</symbol>
<symbol id="font_7_278">
<path d="M .0087890629 .08642578 L .25634767 .4165039 C .27067057 .43538413 .28173829 .45491538 .28955079 .47509767 C .2976888 .49560548 .3017578 .51464846 .3017578 .53222659 L .3017578 .5332031 C .3017578 .56152346 .29345704 .5834961 .27685548 .5991211 C .2602539 .6147461 .23665364 .6225586 .20605469 .6225586 C .17708333 .6225586 .15364583 .6139323 .13574219 .5966797 C .11783854 .5797526 .106933597 .55566409 .103027347 .52441409 L .103027347 .5239258 L 0 .5239258 L 0 .52441409 C .005859375 .5651042 .017740885 .59977218 .03564453 .62841799 C .0538737 .65738937 .077311199 .679362 .10595703 .69433596 C .13460286 .70963546 .16764324 .71728518 .20507813 .71728518 C .24739583 .71728518 .28352867 .70996096 .31347657 .6953125 C .34342448 .68098959 .36621095 .65999349 .38183595 .6323242 C .39746095 .60465499 .40527345 .57128909 .40527345 .53222659 L .40527345 .5317383 C .40527345 .50667318 .4000651 .48046876 .38964845 .453125 C .37923179 .42578126 .3647461 .39941407 .3461914 .37402345 L .140625 .09472656 L .4091797 .09472656 L .4091797 0 L .0087890629 0 L .0087890629 .08642578 Z "/>
</symbol>
<symbol id="font_7_27c">
<path d="M .1977539 0 C .15608724 0 .12044271 .008300781 .09082031 .024902344 C .061197919 .041829427 .03857422 .06624349 .022949219 .09814453 C .0076497399 .1303711 0 .16910808 0 .21435547 L 0 .21484375 C 0 .24121094 .003092448 .26888023 .009277344 .29785157 C .015462239 .3268229 .024414063 .355306 .036132814 .38330079 C .038085939 .3881836 .040201826 .39290367 .04248047 .39746095 C .044759115 .40234376 .04703776 .4070638 .049316408 .4116211 L .20361328 .71728518 L .31103517 .71728518 L .12988281 .36328126 L .1303711 .38085938 C .13850911 .39615885 .15039063 .40804038 .16601563 .4165039 C .18164063 .42496745 .1998698 .42919923 .22070313 .42919923 C .25748698 .42919923 .2890625 .42089845 .3154297 .40429688 C .34179688 .3876953 .3618164 .363444 .37548829 .33154298 C .38916017 .29996745 .3959961 .2618815 .3959961 .21728516 L .3959961 .21679688 C .3959961 .17122396 .3881836 .13216146 .3725586 .099609378 C .35725913 .06705729 .3346354 .042317708 .3046875 .025390625 C .2750651 .008463542 .23942058 0 .1977539 0 M .1977539 .095703128 C .22932942 .095703128 .25358073 .10546875 .2705078 .125 C .2877604 .14453125 .29638673 .17236328 .29638673 .2084961 L .29638673 .20898438 C .29638673 .24869792 .2874349 .27929688 .26953126 .30078126 C .2516276 .32259117 .22607422 .3334961 .1928711 .3334961 C .1632487 .3334961 .14029949 .32259117 .12402344 .30078126 C .1077474 .27897135 .099609378 .24820964 .099609378 .2084961 L .099609378 .20800781 C .099609378 .171875 .108072917 .14404297 .125 .12451172 C .14225261 .10530599 .1665039 .095703128 .1977539 .095703128 Z "/>
</symbol>
<symbol id="font_7_279">
<path d="M .21289063 0 C .17317708 0 .1381836 .0071614587 .107910159 .021484375 C .07763672 .036132814 .053222658 .057128908 .03466797 .084472659 C .016438803 .11214193 .0048828127 .14534505 0 .18408203 L .1015625 .18408203 C .10449219 .16389974 .110839847 .14729817 .12060547 .13427735 C .1303711 .12125651 .14290364 .11149088 .15820313 .10498047 C .17382813 .09879557 .1920573 .095703128 .21289063 .095703128 C .24576824 .095703128 .27132163 .10449219 .28955079 .12207031 C .30777995 .13964844 .31689454 .16438802 .31689454 .19628906 L .31689454 .21777344 C .31689454 .25325523 .30826823 .28059898 .29101563 .2998047 C .27376304 .31933595 .24934896 .32910157 .21777344 .32910157 L .16748047 .32910157 L .16748047 .42382813 L .21777344 .42382813 C .2454427 .42382813 .2669271 .4321289 .28222657 .44873048 C .29752604 .46533204 .30517579 .48876954 .30517579 .51904299 L .30517579 .5410156 C .30517579 .56901046 .29703776 .59065756 .28076173 .60595706 C .2648112 .62125656 .24202474 .62890627 .21240235 .62890627 C .19547527 .62890627 .18033855 .62565109 .16699219 .6191406 C .15364583 .61295577 .14225261 .6031901 .1328125 .58984377 C .123697917 .57682296 .11702474 .5603841 .11279297 .54052737 L .01171875 .54052737 C .018229166 .57926437 .030436198 .61246749 .048339845 .6401367 C .06656901 .66780599 .08951823 .68880209 .1171875 .703125 C .14485677 .71744796 .17659505 .7246094 .21240235 .7246094 C .27360026 .7246094 .32096354 .7084961 .3544922 .67626956 C .38802085 .64404299 .40478517 .5986328 .40478517 .54003909 L .40478517 .5283203 C .40478517 .49283854 .39518229 .46191407 .37597657 .43554688 C .35677085 .4091797 .32958985 .38997398 .2944336 .3779297 C .33317057 .36946617 .3631185 .3504232 .38427735 .32080079 C .40576173 .29117839 .4165039 .25341798 .4165039 .20751953 L .4165039 .19580078 C .4165039 .15445964 .40852867 .119140628 .39257813 .08984375 C .3766276 .060546876 .35335288 .0382487 .3227539 .022949219 C .29248048 .0076497399 .25585938 0 .21289063 0 Z "/>
</symbol>
<symbol id="font_7_27e">
<path d="M .21533203 0 C .17236328 0 .13460286 .0081380209 .10205078 .024414063 C .069498699 .040690107 .044270833 .06363932 .026367188 .09326172 C .0087890629 .12320963 0 .15787761 0 .19726563 L 0 .20898438 C 0 .24446614 .0087890629 .27783204 .026367188 .30908204 C .044270833 .34033204 .06803385 .36393229 .09765625 .3798828 C .07259115 .3935547 .052408857 .4132487 .037109376 .43896485 C .022135416 .4650065 .0146484379 .49235026 .0146484379 .5209961 L .0146484379 .53808596 C .0146484379 .5751953 .022949219 .6077474 .03955078 .6357422 C .056152345 .6640625 .079589847 .6858724 .10986328 .7011719 C .14013672 .7167969 .17529297 .7246094 .21533203 .7246094 C .2553711 .7246094 .29052735 .7167969 .32080079 .7011719 C .35107423 .6858724 .37451173 .6640625 .39111329 .6357422 C .40771485 .6077474 .41601563 .5751953 .41601563 .53808596 L .41601563 .5209961 C .41601563 .49169923 .40820313 .46419273 .39257813 .43847657 C .37727867 .4127604 .3569336 .39322917 .33154298 .3798828 C .36149089 .36360679 .38541667 .33984376 .4033203 .30859376 C .42154948 .27766929 .43066407 .24446614 .43066407 .20898438 L .43066407 .19726563 C .43066407 .15787761 .42171226 .12320963 .4038086 .09326172 C .38623048 .06363932 .36116538 .040690107 .32861329 .024414063 C .2960612 .0081380209 .25830079 0 .21533203 0 M .21533203 .095703128 C .23844402 .095703128 .25878907 .100260417 .2763672 .109375 C .2939453 .118489589 .30745445 .13118489 .31689454 .14746094 C .32666017 .1640625 .33154298 .18310547 .33154298 .20458985 L .33154298 .21142578 C .33154298 .23323567 .32666017 .25227867 .31689454 .2685547 C .30745445 .28515626 .2939453 .2980143 .2763672 .3071289 C .25878907 .3162435 .23844402 .32080079 .21533203 .32080079 C .19222005 .32080079 .171875 .3162435 .15429688 .3071289 C .13671875 .2980143 .123046878 .28515626 .11328125 .2685547 C .10384115 .25195313 .099121097 .23274739 .099121097 .2109375 L .099121097 .20361328 C .099121097 .1821289 .10384115 .1632487 .11328125 .14697266 C .123046878 .13069661 .13671875 .118001308 .15429688 .10888672 C .171875 .100097659 .19222005 .095703128 .21533203 .095703128 M .21533203 .4165039 C .2351888 .4165039 .25276695 .4207357 .2680664 .42919923 C .28336589 .43798829 .2952474 .45035807 .30371095 .4663086 C .31217448 .48225913 .31640626 .50065109 .31640626 .5214844 L .31640626 .5283203 C .31640626 .54817709 .31217448 .5657552 .30371095 .5810547 C .2952474 .5963542 .28336589 .60807296 .2680664 .61621096 C .25276695 .6246745 .2351888 .62890627 .21533203 .62890627 C .19547527 .62890627 .17789714 .6246745 .16259766 .61621096 C .14729817 .60807296 .13541667 .5963542 .12695313 .5810547 C .118489589 .5657552 .11425781 .54801437 .11425781 .52783206 L .11425781 .5205078 C .11425781 .5 .118489589 .48177085 .12695313 .4658203 C .13541667 .4501953 .14729817 .43798829 .16259766 .42919923 C .17789714 .4207357 .19547527 .4165039 .21533203 .4165039 Z "/>
</symbol>
<symbol id="font_7_27b">
<path d="M .19824219 0 C .16243489 0 .13053386 .0069986979 .10253906 .020996094 C .07486979 .03499349 .052246095 .055338544 .03466797 .08203125 C .017415366 .10872396 .005859375 .14078777 0 .17822266 L 0 .17871094 L .099609378 .17871094 L .099609378 .17822266 C .1031901 .15218099 .11360677 .13183594 .13085938 .1171875 C .14811199 .102864589 .17057292 .095703128 .19824219 .095703128 C .23014324 .095703128 .25472007 .106282558 .27197267 .1274414 C .28955079 .14892578 .29833985 .17903646 .29833985 .21777344 L .29833985 .27734376 C .29833985 .31575523 .28955079 .34554038 .27197267 .36669923 C .25472007 .3881836 .23014324 .39892579 .19824219 .39892579 C .18098958 .39892579 .16438802 .39404298 .1484375 .38427735 C .13248699 .37451173 .118489589 .36083985 .10644531 .34326173 L .015625 .34326173 L .015625 .71728518 L .3774414 .71728518 L .3774414 .6225586 L .115234378 .6225586 L .115234378 .46289063 C .12760417 .47298179 .1414388 .48079429 .15673828 .48632813 C .17203777 .49186198 .18766277 .4946289 .20361328 .4946289 C .2446289 .4946289 .2796224 .48616538 .30859376 .46923829 C .33789063 .4523112 .36002604 .42757163 .375 .39501954 C .39029948 .36246745 .39794923 .3232422 .39794923 .27734376 L .39794923 .21777344 C .39794923 .171875 .39013673 .13264974 .37451173 .100097659 C .35888673 .06754557 .33610026 .04264323 .30615235 .025390625 C .27620445 .008463542 .24023438 0 .19824219 0 Z "/>
</symbol>
<symbol id="font_7_277">
<path d="M .2006836 0 L .10107422 0 L .10107422 .6015625 L 0 .5395508 L 0 .6425781 L .10107422 .70996096 L .2006836 .70996096 L .2006836 0 Z "/>
</symbol>
<symbol id="font_7_276">
<path d="M .20263672 0 C .13623047 0 .08577474 .017740885 .05126953 .053222658 C .017089844 .08870443 0 .1381836 0 .20166016 L 0 .52441409 C 0 .5882161 .017252604 .6376953 .051757814 .67285159 C .08626302 .7083333 .13655599 .7260742 .20263672 .7260742 C .26904298 .7260742 .31933595 .7084961 .35351563 .67333987 C .38802085 .6381836 .40527345 .5885417 .40527345 .52441409 L .40527345 .20166016 C .40527345 .13785808 .38802085 .08821615 .35351563 .052734376 C .3190104 .017578125 .26871745 0 .20263672 0 M .20263672 .09472656 C .23779297 .09472656 .26367188 .10384115 .28027345 .12207031 C .29720054 .140625 .30566407 .16715496 .30566407 .20166016 L .30566407 .52441409 C .30566407 .55891928 .29736329 .58528646 .28076173 .6035156 C .26416017 .6220703 .23811849 .63134768 .20263672 .63134768 C .16715496 .63134768 .14111328 .6220703 .12451172 .6035156 C .107910159 .58528646 .099609378 .55891928 .099609378 .52441409 L .099609378 .20166016 C .099609378 .16715496 .107910159 .140625 .12451172 .12207031 C .1414388 .10384115 .16748047 .09472656 .20263672 .09472656 Z "/>
</symbol>
<use xlink:href="#font_7_27a" transform="matrix(6.9141027,.0000018976532,-.0000009677577,-6.977945,52.66662,101.66165)"/>
<use xlink:href="#font_7_278" transform="matrix(6.9141027,.0000018976532,-.0000009677577,-6.977945,70.5481,101.65824)"/>
<use xlink:href="#font_7_27a" transform="matrix(6.9141027,.0000018976532,-.0000009677577,-6.977945,81.50533,101.66166)"/>
<use xlink:href="#font_7_278" transform="matrix(6.9141027,.0000018976532,-.0000009677577,-6.977945,99.386829,101.65825)"/>
<use xlink:href="#font_7_27c" transform="matrix(6.9141027,.0000018976532,-.0000009677577,-6.977945,110.3103,101.709369)"/>
<use xlink:href="#font_7_279" transform="matrix(6.9141027,.0000018976532,-.0000009677577,-6.977945,125.178058,101.709369)"/>
<use xlink:href="#font_7_27e" transform="matrix(6.9141027,.0000018976532,-.0000009677577,-6.977945,136.09525,101.70937)"/>
<use xlink:href="#font_7_279" transform="matrix(6.9141027,.0000018976532,-.0000009677577,-6.977945,153.89235,101.70937)"/>
<use xlink:href="#font_7_27c" transform="matrix(6.9141027,.0000018976532,-.0000009677577,-6.977945,164.75887,101.70938)"/>
<use xlink:href="#font_7_27b" transform="matrix(6.9141027,.0000018976532,-.0000009677577,-6.977945,184.86266,101.70938)"/>
<use xlink:href="#font_7_277" transform="matrix(6.9141027,.0000018976532,-.0000009677577,-6.977945,195.64662,101.65828)"/>
<use xlink:href="#font_7_276" transform="matrix(6.9141027,.0000018976532,-.0000009677577,-6.977945,198.09627,101.70939)"/>
<use xlink:href="#font_7_27b" transform="matrix(6.9141027,.0000018976532,-.0000009677577,-6.977945,215.70648,101.70939)"/>
<use xlink:href="#font_7_277" transform="matrix(6.9141027,.0000018976532,-.0000009677577,-6.977945,226.49045,101.65829)"/>
<use xlink:href="#font_7_278" transform="matrix(6.9141027,.0000018976532,-.0000009677577,-6.977945,228.80506,101.65829)"/>
<symbol id="font_7_10">
<path d="M .24707031 0 C .19791667 0 .15462239 .010904948 .1171875 .032714845 C .080078128 .05452474 .05126953 .08544922 .030761719 .12548828 C .010253906 .16552735 0 .21191406 0 .26464845 L 0 .45947267 C 0 .51220706 .010253906 .55859377 .030761719 .5986328 C .05126953 .6386719 .080078128 .6695964 .1171875 .69140627 C .15462239 .7135417 .19791667 .7246094 .24707031 .7246094 C .2877604 .7246094 .3251953 .7158203 .359375 .6982422 C .3935547 .68098959 .42203776 .6564128 .44482423 .6245117 C .4679362 .59261068 .4835612 .55566409 .49169923 .5136719 L .38964845 .5136719 C .38346354 .5358073 .37304688 .5555013 .35839845 .5727539 C .34407554 .59033206 .32714845 .6038411 .3076172 .61328127 C .28808595 .6227214 .26790367 .6274414 .24707031 .6274414 C .21809896 .6274414 .19270833 .6204427 .17089844 .6064453 C .14908855 .59244796 .13216146 .5727539 .12011719 .5473633 C .108072917 .52229818 .10205078 .4930013 .10205078 .45947267 L .10205078 .26464845 C .10205078 .23144531 .108072917 .20214844 .12011719 .17675781 C .13216146 .15136719 .14908855 .13167317 .17089844 .11767578 C .19270833 .104003909 .21809896 .09716797 .24707031 .09716797 C .26822917 .09716797 .28841148 .1015625 .3076172 .11035156 C .32714845 .119140628 .34407554 .13216146 .35839845 .14941406 C .37304688 .16666667 .38346354 .18717449 .38964845 .2109375 L .49169923 .2109375 C .4835612 .16894531 .4679362 .1319987 .44482423 .100097659 C .42171226 .06819662 .3930664 .04345703 .35888673 .025878907 C .32470704 .008626302 .2874349 0 .24707031 0 Z "/>
</symbol>
<symbol id="font_7_2e">
<path d="M .4033203 .70996096 L .5029297 .70996096 L .5029297 0 L .4033203 0 L .4033203 .70996096 M 0 .70996096 L .099609378 .70996096 L .099609378 0 L 0 0 L 0 .70996096 M .06201172 .39697267 L .4560547 .39697267 L .4560547 .3022461 L .06201172 .3022461 L .06201172 .39697267 Z "/>
</symbol>
<symbol id="font_7_28d">
<path d="M 0 .26660157 L .10449219 .26660157 L .10449219 .10839844 L 0 0 L 0 .26660157 Z "/>
</symbol>
<use xlink:href="#font_7_10" transform="matrix(11.947287,.0000032790673,-.0000016722459,-12.057604,37.9556,98.292568)"/>
<use xlink:href="#font_7_2e" transform="matrix(11.947287,.0000032790673,-.0000016722459,-12.057604,45.621557,98.204257)"/>
<use xlink:href="#font_7_28d" transform="matrix(11.947287,.0000032790673,-.0000016722459,-12.057604,57.797574,100.15891)"/>
<use xlink:href="#font_7_10" transform="matrix(11.947287,.0000032790673,-.0000016722459,-12.057604,63.749795,98.29257)"/>
<use xlink:href="#font_7_2e" transform="matrix(11.947287,.0000032790673,-.0000016722459,-12.057604,74.43842,98.20427)"/>
<use xlink:href="#font_7_28d" transform="matrix(11.947287,.0000032790673,-.0000016722459,-12.057604,89.254779,100.15892)"/>
<use xlink:href="#font_7_10" transform="matrix(11.947287,.0000032790673,-.0000016722459,-12.057604,92.56665,98.29258)"/>
<use xlink:href="#font_7_2e" transform="matrix(11.947287,.0000032790673,-.0000016722459,-12.057604,103.25527,98.20427)"/>
<use xlink:href="#font_7_28d" transform="matrix(11.947287,.0000032790673,-.0000016722459,-12.057604,114.989238,100.15893)"/>
<use xlink:href="#font_7_10" transform="matrix(11.947287,.0000032790673,-.0000016722459,-12.057604,118.3011,98.29259)"/>
<use xlink:href="#font_7_2e" transform="matrix(11.947287,.0000032790673,-.0000016722459,-12.057604,128.94194,98.20428)"/>
<use xlink:href="#font_7_28d" transform="matrix(11.947287,.0000032790673,-.0000016722459,-12.057604,141.02239,100.158939)"/>
<use xlink:href="#font_7_10" transform="matrix(11.947287,.0000032790673,-.0000016722459,-12.057604,146.9746,98.292598)"/>
<use xlink:href="#font_7_2e" transform="matrix(11.947287,.0000032790673,-.0000016722459,-12.057604,157.61542,98.204288)"/>
<use xlink:href="#font_7_28d" transform="matrix(11.947287,.0000032790673,-.0000016722459,-12.057604,171.98973,100.15894)"/>
<use xlink:href="#font_7_10" transform="matrix(11.947287,.0000032790673,-.0000016722459,-12.057604,177.94196,98.2926)"/>
<use xlink:href="#font_7_2e" transform="matrix(11.947287,.0000032790673,-.0000016722459,-12.057604,188.4872,98.2043)"/>
<use xlink:href="#font_7_28d" transform="matrix(11.947287,.0000032790673,-.0000016722459,-12.057604,205.40628,100.15895)"/>
<use xlink:href="#font_7_10" transform="matrix(11.947287,.0000032790673,-.0000016722459,-12.057604,208.71816,98.29261)"/>
<use xlink:href="#font_7_2e" transform="matrix(11.947287,.0000032790673,-.0000016722459,-12.057604,219.26342,98.20431)"/>
</g>
</g>
</g>
<g id="Layer-1" data-name="P">
<clipPath id="cp8">
<path transform="matrix(1,0,0,-1,0,841.92)" d="M .000008871 0 L 595.32 0 L 595.32 841.92 L .000008871 841.92 Z " fill-rule="evenodd"/>
</clipPath>
<g clip-path="url(#cp8)">
<use xlink:href="#font_3_1" transform="matrix(12,0,0,-12,233.84,98.51996)"/>
</g>
</g>
</g>
</g>
</svg>
