<svg xmlns="http://www.w3.org/2000/svg" viewBox="0 0 653.48 349.56"><defs><style>.a,.b{fill:none;stroke-miterlimit:10;}.a{stroke:#000;stroke-width:3px;}.b{stroke:#568ad6;stroke-width:7px;}</style></defs><title>Untitled-1</title><line class="a" x1="74.82" y1="292.56" x2="652.82" y2="292.56"/><line class="a" x1="72.15" y1="243.22" x2="650.15" y2="243.22"/><line class="a" x1="74.82" y1="196.56" x2="652.82" y2="196.56"/><line class="a" x1="74.82" y1="147.89" x2="652.82" y2="147.89"/><line class="a" x1="74.82" y1="101.22" x2="652.82" y2="101.22"/><line class="a" x1="75.48" y1="54.56" x2="653.48" y2="54.56"/><line class="a" x1="75.48" y1="5.22" x2="653.48" y2="5.22"/><polyline class="b" points="130.82 239.89 247.48 58.56 479.48 138.56 594.82 243.89"/><path d="M122.66,334.47c0-1.17,0-2.12-.08-3h1.5l.08,1.58h0a3.6,3.6,0,0,1,3.26-1.79c2.23,0,3.9,1.88,3.9,4.68,0,3.3-2,4.94-4.18,4.94a3.23,3.23,0,0,1-2.83-1.45h0v5h-1.65Zm1.65,2.45a3.63,3.63,0,0,0,.08.69,2.57,2.57,0,0,0,2.5,2c1.77,0,2.8-1.45,2.8-3.56,0-1.84-1-3.42-2.74-3.42a2.66,2.66,0,0,0-2.52,2.07,2.63,2.63,0,0,0-.12.69Z" transform="translate(-13.18 -18.11)"/><path d="M133.47,334.34c0-1.08,0-2-.08-2.87h1.47l0,1.81H135a2.75,2.75,0,0,1,2.54-2,1.75,1.75,0,0,1,.48.06v1.58a2.37,2.37,0,0,0-.57-.06A2.34,2.34,0,0,0,135.2,335a4.36,4.36,0,0,0-.08.78v4.9h-1.65Z" transform="translate(-13.18 -18.11)"/><path d="M138.81,339.7l4.16-5.42c.4-.49.78-.93,1.2-1.42v0h-5v-1.35h7l0,1-4.1,5.34c-.38.51-.76,1-1.18,1.44v0h5.37v1.33h-7.46Z" transform="translate(-13.18 -18.11)"/><path d="M148.78,336.37a3,3,0,0,0,3.16,3.2,5.94,5.94,0,0,0,2.54-.48l.29,1.2a7.57,7.57,0,0,1-3.06.57,4.27,4.27,0,0,1-4.52-4.64c0-2.77,1.63-5,4.31-5,3,0,3.8,2.64,3.8,4.33a5.88,5.88,0,0,1-.06.78Zm4.9-1.19c0-1.07-.43-2.72-2.31-2.72a2.78,2.78,0,0,0-2.57,2.72Z" transform="translate(-13.18 -18.11)"/><path d="M165.31,327.18v11.11c0,.82,0,1.75.08,2.38h-1.5l-.08-1.6h0a3.39,3.39,0,0,1-3.13,1.81c-2.22,0-3.93-1.89-3.93-4.68,0-3.06,1.88-4.94,4.12-4.94a3.08,3.08,0,0,1,2.77,1.41h0v-5.49Zm-1.67,8a2.84,2.84,0,0,0-.08-.7,2.45,2.45,0,0,0-2.41-1.94c-1.73,0-2.75,1.52-2.75,3.56,0,1.86.91,3.4,2.71,3.4a2.51,2.51,0,0,0,2.45-2,2.74,2.74,0,0,0,.08-.72Z" transform="translate(-13.18 -18.11)"/><path d="M108.72,354.27l1.22,4.67c.26,1,.51,2,.68,2.93h.06c.21-.93.51-1.92.82-2.91l1.5-4.69h1.4l1.43,4.6c.34,1.1.6,2.07.81,3h.06a27.92,27.92,0,0,1,.7-3l1.31-4.62h1.66l-3,9.2h-1.52l-1.4-4.39c-.32-1-.59-1.94-.82-3h0a26.4,26.4,0,0,1-.83,3l-1.48,4.37h-1.52l-2.78-9.2Z" transform="translate(-13.18 -18.11)"/><path d="M122.88,354.27l2,5.43c.21.61.44,1.33.59,1.89h0c.17-.56.36-1.26.59-1.92l1.82-5.4h1.77l-2.51,6.56c-1.2,3.15-2,4.76-3.15,5.75a4.5,4.5,0,0,1-2.06,1.08l-.41-1.4a4.47,4.47,0,0,0,1.46-.82,5.07,5.07,0,0,0,1.4-1.86,1.12,1.12,0,0,0,.14-.4,1.45,1.45,0,0,0-.12-.44l-3.4-8.47Z" transform="translate(-13.18 -18.11)"/><path d="M130.88,361.76a4.37,4.37,0,0,0,2.2.66c1.22,0,1.79-.61,1.79-1.37s-.48-1.23-1.71-1.69c-1.66-.59-2.44-1.5-2.44-2.6,0-1.48,1.2-2.7,3.18-2.7a4.65,4.65,0,0,1,2.26.57l-.42,1.22a3.57,3.57,0,0,0-1.88-.53c-1,0-1.54.57-1.54,1.25s.55,1.1,1.75,1.56c1.59.61,2.41,1.4,2.41,2.77,0,1.62-1.25,2.76-3.44,2.76a5.2,5.2,0,0,1-2.58-.63Z" transform="translate(-13.18 -18.11)"/><path d="M140.49,351.69a1,1,0,0,1-2.07,0,1,1,0,0,1,1-1.05A1,1,0,0,1,140.49,351.69Zm-1.86,11.78v-9.2h1.67v9.2Z" transform="translate(-13.18 -18.11)"/><path d="M143.15,363.47V358l-1.29,1.1v-1.31l1.29-1.12V350h1.67v5.41l1.35-1.16v1.33l-1.35,1.16v6.75Z" transform="translate(-13.18 -18.11)"/><path d="M149.32,358.49h0c.23-.32.55-.72.82-1.05l2.7-3.17h2l-3.55,3.78,4,5.42h-2l-3.17-4.41-.86.95v3.46h-1.65V350h1.65Z" transform="translate(-13.18 -18.11)"/><path d="M158.77,351.69a1,1,0,0,1-2.07,0,1,1,0,0,1,1-1.05A1,1,0,0,1,158.77,351.69Zm-1.86,11.78v-9.2h1.67v9.2Z" transform="translate(-13.18 -18.11)"/><path d="M162.28,359.17a3,3,0,0,0,3.16,3.19,6,6,0,0,0,2.54-.47l.29,1.2a7.57,7.57,0,0,1-3.06.57,4.27,4.27,0,0,1-4.52-4.64c0-2.77,1.63-5,4.31-5,3,0,3.8,2.64,3.8,4.33a5.88,5.88,0,0,1-.06.78Zm4.9-1.19c0-1.07-.43-2.72-2.31-2.72A2.77,2.77,0,0,0,162.3,358Z" transform="translate(-13.18 -18.11)"/><path d="M170.87,356.76c0-.95,0-1.73-.08-2.49h1.47l.07,1.48h.06a3.18,3.18,0,0,1,2.89-1.69,2.72,2.72,0,0,1,2.6,1.85h0a3.6,3.6,0,0,1,1-1.2,3.14,3.14,0,0,1,2-.65c1.21,0,3,.8,3,4v5.42h-1.64v-5.21c0-1.77-.64-2.83-2-2.83a2.17,2.17,0,0,0-2,1.52,3,3,0,0,0-.13.84v5.68h-1.63V358c0-1.47-.65-2.53-1.92-2.53a2.28,2.28,0,0,0-2.07,1.67,2.21,2.21,0,0,0-.14.82v5.55h-1.63Z" transform="translate(-13.18 -18.11)"/><path d="M209.52,340.67c0-.63.08-1.56.08-2.38V327.18h1.65V333h0a3.44,3.44,0,0,1,3.14-1.69c2.28,0,3.89,1.9,3.87,4.7,0,3.28-2.07,4.92-4.12,4.92a3.29,3.29,0,0,1-3.08-1.73H211l-.07,1.52Zm1.73-3.69a3,3,0,0,0,.08.61,2.58,2.58,0,0,0,2.51,2c1.74,0,2.79-1.43,2.79-3.54,0-1.84-.95-3.42-2.74-3.42a2.66,2.66,0,0,0-2.54,2.05,3.16,3.16,0,0,0-.1.69Z" transform="translate(-13.18 -18.11)"/><path d="M221.34,336.37a3,3,0,0,0,3.16,3.2,6,6,0,0,0,2.54-.48l.29,1.2a7.57,7.57,0,0,1-3.06.57,4.27,4.27,0,0,1-4.52-4.64c0-2.77,1.63-5,4.31-5,3,0,3.8,2.64,3.8,4.33a5.88,5.88,0,0,1-.06.78Zm4.9-1.19c0-1.07-.43-2.72-2.31-2.72a2.77,2.77,0,0,0-2.57,2.72Z" transform="translate(-13.18 -18.11)"/><path d="M228.89,339.7l4.16-5.42c.39-.49.77-.93,1.19-1.42v0h-5v-1.35h7l0,1-4.11,5.34c-.38.51-.76,1-1.18,1.44v0h5.38v1.33h-7.46Z" transform="translate(-13.18 -18.11)"/><path d="M238.06,334.47c0-1.17,0-2.12-.07-3h1.5l.07,1.58h0a3.62,3.62,0,0,1,3.27-1.79c2.22,0,3.89,1.88,3.89,4.68,0,3.3-2,4.94-4.18,4.94a3.24,3.24,0,0,1-2.83-1.45h0v5h-1.65Zm1.65,2.45a3.63,3.63,0,0,0,.08.69,2.58,2.58,0,0,0,2.51,2c1.77,0,2.79-1.45,2.79-3.56,0-1.84-1-3.42-2.73-3.42a2.67,2.67,0,0,0-2.53,2.07,2.63,2.63,0,0,0-.12.69Z" transform="translate(-13.18 -18.11)"/><path d="M257.19,336a4.5,4.5,0,0,1-4.57,4.89,4.38,4.38,0,0,1-4.41-4.73c0-3.08,2-4.89,4.56-4.89S257.19,333.18,257.19,336Zm-7.29.1c0,2,1.16,3.53,2.79,3.53s2.79-1.5,2.79-3.57c0-1.56-.78-3.53-2.75-3.53S249.9,334.34,249.9,336.09Z" transform="translate(-13.18 -18.11)"/><path d="M259.08,339a4.37,4.37,0,0,0,2.2.66c1.21,0,1.79-.61,1.79-1.37s-.48-1.23-1.71-1.69c-1.66-.59-2.44-1.5-2.44-2.6,0-1.48,1.2-2.7,3.18-2.7a4.65,4.65,0,0,1,2.26.57l-.42,1.22a3.57,3.57,0,0,0-1.88-.53c-1,0-1.54.57-1.54,1.25s.55,1.1,1.75,1.56c1.59.61,2.41,1.4,2.41,2.77,0,1.62-1.25,2.76-3.44,2.76a5.2,5.2,0,0,1-2.58-.63Zm5.31-11.46-2.31,2.72h-1.2l1.67-2.72Z" transform="translate(-13.18 -18.11)"/><path d="M266.83,334.34c0-1.08,0-2-.08-2.87h1.46l.06,1.81h.08a2.75,2.75,0,0,1,2.54-2,1.75,1.75,0,0,1,.48.06v1.58a2.37,2.37,0,0,0-.57-.06,2.33,2.33,0,0,0-2.24,2.15,4.36,4.36,0,0,0-.08.78v4.9h-1.65Z" transform="translate(-13.18 -18.11)"/><path d="M273.78,336.37a3,3,0,0,0,3.15,3.2,6,6,0,0,0,2.55-.48l.29,1.2a7.57,7.57,0,0,1-3.06.57,4.27,4.27,0,0,1-4.52-4.64c0-2.77,1.63-5,4.31-5,3,0,3.8,2.64,3.8,4.33a5.88,5.88,0,0,1-.06.78Zm4.9-1.19c0-1.07-.43-2.72-2.31-2.72a2.77,2.77,0,0,0-2.57,2.72Z" transform="translate(-13.18 -18.11)"/><path d="M290.31,327.18v11.11c0,.82,0,1.75.08,2.38h-1.5l-.08-1.6h0a3.39,3.39,0,0,1-3.13,1.81c-2.23,0-3.94-1.89-3.94-4.68,0-3.06,1.89-4.94,4.13-4.94a3.08,3.08,0,0,1,2.77,1.41h0v-5.49Zm-1.67,8a2.84,2.84,0,0,0-.08-.7,2.46,2.46,0,0,0-2.41-1.94c-1.73,0-2.75,1.52-2.75,3.56,0,1.86.91,3.4,2.71,3.4a2.51,2.51,0,0,0,2.45-2,2.74,2.74,0,0,0,.08-.72Z" transform="translate(-13.18 -18.11)"/><path d="M293.09,334c0-.95,0-1.73-.08-2.49h1.48l.1,1.52h0a3.39,3.39,0,0,1,3-1.73c1.28,0,3.25.76,3.25,3.92v5.49h-1.67v-5.3c0-1.49-.55-2.72-2.13-2.72a2.38,2.38,0,0,0-2.24,1.71,2.57,2.57,0,0,0-.11.78v5.53h-1.67Z" transform="translate(-13.18 -18.11)"/><path d="M305.49,328.89a1,1,0,0,1-2.07,0,1,1,0,0,1,1.05-1.05A1,1,0,0,1,305.49,328.89Zm-1.86,11.78v-9.2h1.67v9.2Z" transform="translate(-13.18 -18.11)"/><path d="M316.4,336a4.5,4.5,0,0,1-4.58,4.89,4.38,4.38,0,0,1-4.41-4.73c0-3.08,2-4.89,4.56-4.89S316.4,333.18,316.4,336Zm-7.3.1c0,2,1.16,3.53,2.79,3.53s2.8-1.5,2.8-3.57c0-1.56-.78-3.53-2.76-3.53S309.1,334.34,309.1,336.09Z" transform="translate(-13.18 -18.11)"/><path d="M221.88,357.27c0-1.17,0-2.12-.07-3h1.5l.07,1.58h0a3.63,3.63,0,0,1,3.27-1.79c2.22,0,3.89,1.88,3.89,4.68,0,3.3-2,4.94-4.17,4.94a3.26,3.26,0,0,1-2.84-1.45h0v5h-1.66Zm1.66,2.45a3.66,3.66,0,0,0,.07.69,2.58,2.58,0,0,0,2.51,1.95c1.77,0,2.79-1.44,2.79-3.55,0-1.84-1-3.42-2.73-3.42a2.67,2.67,0,0,0-2.53,2.07,2.62,2.62,0,0,0-.11.69Z" transform="translate(-13.18 -18.11)"/><path d="M241,358.79a4.5,4.5,0,0,1-4.57,4.89c-2.49,0-4.41-1.83-4.41-4.74,0-3.07,2-4.88,4.56-4.88S241,356,241,358.79Zm-7.29.1c0,2,1.16,3.53,2.79,3.53s2.8-1.5,2.8-3.57c0-1.56-.78-3.53-2.76-3.53S233.72,357.14,233.72,358.89Z" transform="translate(-13.18 -18.11)"/><path d="M247.82,354.27l1.21,4.67c.27,1,.52,2,.69,2.93h.05c.21-.93.52-1.92.82-2.91l1.5-4.69h1.41l1.42,4.6c.34,1.1.61,2.07.82,3h.06a27.92,27.92,0,0,1,.7-3l1.31-4.62h1.65l-3,9.2H255l-1.41-4.39c-.32-1-.58-1.94-.81-3h0a26.4,26.4,0,0,1-.84,3l-1.48,4.37h-1.52l-2.77-9.2Z" transform="translate(-13.18 -18.11)"/><path d="M262,354.27l2,5.43c.21.61.43,1.33.59,1.89h0c.17-.56.36-1.26.59-1.92l1.83-5.4h1.76l-2.51,6.56c-1.19,3.15-2,4.76-3.15,5.75a4.48,4.48,0,0,1-2.05,1.08l-.42-1.4a4.28,4.28,0,0,0,1.46-.82,5,5,0,0,0,1.41-1.86,1.07,1.07,0,0,0,.13-.4,1.35,1.35,0,0,0-.11-.44l-3.4-8.47Z" transform="translate(-13.18 -18.11)"/><path d="M270,361.76a4.44,4.44,0,0,0,2.21.66c1.21,0,1.78-.61,1.78-1.37s-.47-1.23-1.71-1.69c-1.65-.59-2.43-1.5-2.43-2.6,0-1.48,1.2-2.7,3.17-2.7a4.62,4.62,0,0,1,2.26.57l-.42,1.22a3.54,3.54,0,0,0-1.88-.53c-1,0-1.53.57-1.53,1.25s.55,1.1,1.74,1.56c1.6.61,2.42,1.4,2.42,2.77,0,1.62-1.26,2.76-3.44,2.76a5.27,5.27,0,0,1-2.59-.63Z" transform="translate(-13.18 -18.11)"/><path d="M279.59,351.69a1,1,0,0,1-2.08,0,1,1,0,0,1,1.05-1.05A1,1,0,0,1,279.59,351.69Zm-1.87,11.78v-9.2h1.68v9.2Z" transform="translate(-13.18 -18.11)"/><path d="M282.25,363.47V358l-1.3,1.1v-1.31l1.3-1.12V350h1.67v5.41l1.35-1.16v1.33l-1.35,1.16v6.75Z" transform="translate(-13.18 -18.11)"/><path d="M288.42,358.49h0c.23-.32.55-.72.82-1.05l2.69-3.17h2l-3.56,3.78,4.05,5.42h-2l-3.17-4.41-.86.95v3.46h-1.65V350h1.65Z" transform="translate(-13.18 -18.11)"/><path d="M303.45,361c0,1,0,1.78.07,2.51H302L302,362h0a3.47,3.47,0,0,1-3,1.71c-1.44,0-3.17-.8-3.17-4v-5.38h1.67v5.09c0,1.75.53,2.93,2.05,2.93a2.41,2.41,0,0,0,2.2-1.52,2.35,2.35,0,0,0,.16-.86v-5.64h1.67Z" transform="translate(-13.18 -18.11)"/><path d="M328.51,334.47c0-1.17,0-2.12-.07-3h1.5l.07,1.58h0a3.62,3.62,0,0,1,3.27-1.79c2.22,0,3.89,1.88,3.89,4.68,0,3.3-2,4.94-4.18,4.94a3.24,3.24,0,0,1-2.83-1.45h0v5h-1.65Zm1.65,2.45a3.63,3.63,0,0,0,.08.69,2.58,2.58,0,0,0,2.51,2c1.76,0,2.79-1.45,2.79-3.56,0-1.84-1-3.42-2.73-3.42a2.67,2.67,0,0,0-2.53,2.07,2.63,2.63,0,0,0-.12.69Z" transform="translate(-13.18 -18.11)"/><path d="M347.64,336a4.5,4.5,0,0,1-4.58,4.89,4.37,4.37,0,0,1-4.4-4.73c0-3.08,2-4.89,4.56-4.89S347.64,333.18,347.64,336Zm-7.29.1c0,2,1.16,3.53,2.79,3.53s2.79-1.5,2.79-3.57c0-1.56-.78-3.53-2.75-3.53S340.35,334.34,340.35,336.09Z" transform="translate(-13.18 -18.11)"/><path d="M356.88,329.88h0L354.69,331l-.32-1.27,2.7-1.44h1.42v12.35h-1.61Z" transform="translate(-13.18 -18.11)"/><path d="M367.56,334c0-.95,0-1.73-.08-2.49h1.46L369,333h.06a3.16,3.16,0,0,1,2.88-1.69,2.72,2.72,0,0,1,2.61,1.85h0a3.74,3.74,0,0,1,1-1.2,3.13,3.13,0,0,1,2-.65c1.22,0,3,.8,3,4v5.42h-1.63v-5.21c0-1.77-.65-2.83-2-2.83a2.15,2.15,0,0,0-2,1.52,2.65,2.65,0,0,0-.13.84v5.68h-1.64v-5.51c0-1.47-.64-2.53-1.92-2.53a2.3,2.3,0,0,0-2.07,1.67,2.43,2.43,0,0,0-.13.82v5.55h-1.63Z" transform="translate(-13.18 -18.11)"/><path d="M385.26,328.89a1,1,0,0,1-2.07,0,1,1,0,0,1,1.05-1.05A1,1,0,0,1,385.26,328.89Zm-1.86,11.78v-9.2h1.67v9.2Z" transform="translate(-13.18 -18.11)"/><path d="M387.85,334c0-.95,0-1.73-.08-2.49h1.48l.1,1.52h0a3.38,3.38,0,0,1,3-1.73c1.27,0,3.25.76,3.25,3.92v5.49H394v-5.3c0-1.49-.55-2.72-2.12-2.72a2.38,2.38,0,0,0-2.25,1.71,2.57,2.57,0,0,0-.11.78v5.53h-1.67Z" transform="translate(-13.18 -18.11)"/><path d="M410.74,336a4.5,4.5,0,0,1-4.58,4.89c-2.49,0-4.4-1.83-4.4-4.73,0-3.08,2-4.89,4.55-4.89S410.74,333.18,410.74,336Zm-7.29.1c0,2,1.15,3.53,2.79,3.53s2.79-1.5,2.79-3.57c0-1.56-.78-3.53-2.75-3.53S403.45,334.34,403.45,336.09Z" transform="translate(-13.18 -18.11)"/><path d="M420.79,327.18v11.11c0,.82,0,1.75.08,2.38h-1.5l-.08-1.6h0a3.39,3.39,0,0,1-3.13,1.81c-2.22,0-3.93-1.89-3.93-4.68,0-3.06,1.88-4.94,4.12-4.94a3.07,3.07,0,0,1,2.77,1.41h0v-5.49Zm-1.67,8a2.84,2.84,0,0,0-.08-.7,2.45,2.45,0,0,0-2.41-1.94c-1.73,0-2.75,1.52-2.75,3.56,0,1.86.91,3.4,2.71,3.4a2.5,2.5,0,0,0,2.45-2,2.74,2.74,0,0,0,.08-.72Z" transform="translate(-13.18 -18.11)"/><path d="M349.18,354.27l1.22,4.67c.26,1,.51,2,.68,2.93h.06c.21-.93.51-1.92.82-2.91l1.5-4.69h1.4l1.43,4.6c.34,1.1.61,2.07.81,3h.06a27.92,27.92,0,0,1,.7-3l1.32-4.62h1.65l-3,9.2h-1.51l-1.41-4.39c-.32-1-.59-1.94-.82-3h0a26.4,26.4,0,0,1-.83,3l-1.48,4.37h-1.52l-2.78-9.2Z" transform="translate(-13.18 -18.11)"/><path d="M363.34,354.27l2,5.43c.21.61.44,1.33.59,1.89h0c.17-.56.36-1.26.59-1.92l1.82-5.4h1.77l-2.51,6.56c-1.2,3.15-2,4.76-3.15,5.75a4.52,4.52,0,0,1-2.05,1.08l-.42-1.4a4.28,4.28,0,0,0,1.46-.82,5,5,0,0,0,1.41-1.86,1.29,1.29,0,0,0,.13-.4,1.45,1.45,0,0,0-.12-.44l-3.4-8.47Z" transform="translate(-13.18 -18.11)"/><path d="M371.34,361.76a4.4,4.4,0,0,0,2.2.66c1.22,0,1.79-.61,1.79-1.37s-.48-1.23-1.71-1.69c-1.66-.59-2.44-1.5-2.44-2.6,0-1.48,1.2-2.7,3.18-2.7a4.62,4.62,0,0,1,2.26.57l-.42,1.22a3.57,3.57,0,0,0-1.88-.53c-1,0-1.54.57-1.54,1.25s.55,1.1,1.75,1.56c1.59.61,2.41,1.4,2.41,2.77,0,1.62-1.25,2.76-3.44,2.76a5.23,5.23,0,0,1-2.58-.63Z" transform="translate(-13.18 -18.11)"/><path d="M381,351.69a1,1,0,0,1-2.07,0,1,1,0,0,1,1.05-1.05A1,1,0,0,1,381,351.69Zm-1.86,11.78v-9.2h1.67v9.2Z" transform="translate(-13.18 -18.11)"/><path d="M383.61,363.47V358l-1.29,1.11v-1.31l1.29-1.12V350h1.67v5.41l1.35-1.16v1.33l-1.35,1.16v6.75Z" transform="translate(-13.18 -18.11)"/><path d="M389.79,358.49h0c.23-.32.55-.72.82-1.05l2.7-3.17h2l-3.55,3.78,4.05,5.42h-2l-3.17-4.41-.85.95v3.46h-1.66V350h1.66Z" transform="translate(-13.18 -18.11)"/><path d="M404.81,361c0,1,0,1.78.08,2.51h-1.48l-.1-1.5h0a3.44,3.44,0,0,1-3,1.71c-1.44,0-3.17-.8-3.17-4v-5.38h1.67v5.09c0,1.75.54,2.93,2.06,2.93a2.41,2.41,0,0,0,2.2-1.52,2.58,2.58,0,0,0,.15-.86v-5.64h1.67Z" transform="translate(-13.18 -18.11)"/><path d="M445.86,334.47c0-1.17,0-2.12-.08-3h1.5l.08,1.58h0a3.62,3.62,0,0,1,3.27-1.79c2.22,0,3.89,1.88,3.89,4.68,0,3.3-2,4.94-4.18,4.94a3.24,3.24,0,0,1-2.83-1.45h0v5h-1.65Zm1.65,2.45a3.63,3.63,0,0,0,.08.69,2.58,2.58,0,0,0,2.51,2c1.76,0,2.79-1.45,2.79-3.56,0-1.84-1-3.42-2.74-3.42a2.66,2.66,0,0,0-2.52,2.07,2.63,2.63,0,0,0-.12.69Z" transform="translate(-13.18 -18.11)"/><path d="M465,336a4.5,4.5,0,0,1-4.58,4.89c-2.49,0-4.4-1.83-4.4-4.73,0-3.08,2-4.89,4.55-4.89S465,333.18,465,336Zm-7.29.1c0,2,1.15,3.53,2.79,3.53s2.79-1.5,2.79-3.57c0-1.56-.78-3.53-2.75-3.53S457.7,334.34,457.7,336.09Z" transform="translate(-13.18 -18.11)"/><path d="M478,329.72h-4.71l-.48,3.18a6.33,6.33,0,0,1,1-.08,5.18,5.18,0,0,1,2.66.67,3.51,3.51,0,0,1,1.77,3.17,4.29,4.29,0,0,1-4.6,4.22,6.05,6.05,0,0,1-3.08-.76l.42-1.28a5.45,5.45,0,0,0,2.64.69,2.72,2.72,0,0,0,2.92-2.68c0-1.6-1.08-2.74-3.55-2.74a12.25,12.25,0,0,0-1.71.14l.8-5.93H478Z" transform="translate(-13.18 -18.11)"/><path d="M484.9,334c0-.95,0-1.73-.07-2.49h1.46l.08,1.48h.05a3.19,3.19,0,0,1,2.89-1.69,2.72,2.72,0,0,1,2.6,1.85h0a3.74,3.74,0,0,1,1-1.2,3.13,3.13,0,0,1,2-.65c1.22,0,3,.8,3,4v5.42H496.4v-5.21c0-1.77-.65-2.83-2-2.83a2.15,2.15,0,0,0-2,1.52,2.63,2.63,0,0,0-.14.84v5.68h-1.63v-5.51c0-1.47-.65-2.53-1.92-2.53a2.3,2.3,0,0,0-2.07,1.67,2.43,2.43,0,0,0-.13.82v5.55H484.9Z" transform="translate(-13.18 -18.11)"/><path d="M502.61,328.89a1,1,0,0,1-2.07,0,1,1,0,0,1,1-1.05A1,1,0,0,1,502.61,328.89Zm-1.86,11.78v-9.2h1.67v9.2Z" transform="translate(-13.18 -18.11)"/><path d="M505.2,334c0-.95,0-1.73-.08-2.49h1.48l.1,1.52h0a3.39,3.39,0,0,1,3-1.73c1.28,0,3.25.76,3.25,3.92v5.49h-1.67v-5.3c0-1.49-.55-2.72-2.13-2.72a2.38,2.38,0,0,0-2.24,1.71,2.57,2.57,0,0,0-.11.78v5.53H505.2Z" transform="translate(-13.18 -18.11)"/><path d="M528.09,336a4.5,4.5,0,0,1-4.58,4.89,4.38,4.38,0,0,1-4.41-4.73c0-3.08,2-4.89,4.56-4.89S528.09,333.18,528.09,336Zm-7.3.1c0,2,1.16,3.53,2.8,3.53s2.79-1.5,2.79-3.57c0-1.56-.78-3.53-2.76-3.53S520.79,334.34,520.79,336.09Z" transform="translate(-13.18 -18.11)"/><path d="M538.14,327.18v11.11c0,.82,0,1.75.08,2.38h-1.5l-.08-1.6h0a3.39,3.39,0,0,1-3.13,1.81c-2.23,0-3.94-1.89-3.94-4.68,0-3.06,1.89-4.94,4.13-4.94a3.08,3.08,0,0,1,2.77,1.41h0v-5.49Zm-1.67,8a2.84,2.84,0,0,0-.08-.7,2.46,2.46,0,0,0-2.41-1.94c-1.73,0-2.75,1.52-2.75,3.56,0,1.86.91,3.4,2.71,3.4a2.51,2.51,0,0,0,2.45-2,2.74,2.74,0,0,0,.08-.72Z" transform="translate(-13.18 -18.11)"/><path d="M464.52,354.27l1.21,4.67c.27,1,.52,2,.69,2.93h.05c.21-.93.52-1.92.82-2.91l1.5-4.69h1.41l1.42,4.6c.34,1.1.61,2.07.82,3h.06a25.69,25.69,0,0,1,.7-3l1.31-4.62h1.65l-3,9.2h-1.52l-1.41-4.39a29.77,29.77,0,0,1-.81-3h0a26.4,26.4,0,0,1-.84,3l-1.48,4.37h-1.52l-2.77-9.2Z" transform="translate(-13.18 -18.11)"/><path d="M478.67,354.27l2,5.43c.2.61.43,1.33.58,1.89h0c.17-.56.36-1.26.59-1.92l1.82-5.4h1.77L483,360.83c-1.19,3.15-2,4.76-3.15,5.75a4.48,4.48,0,0,1-2.05,1.08l-.42-1.4a4.28,4.28,0,0,0,1.46-.82,5,5,0,0,0,1.41-1.86,1.07,1.07,0,0,0,.13-.4,1.69,1.69,0,0,0-.11-.44l-3.4-8.47Z" transform="translate(-13.18 -18.11)"/><path d="M486.67,361.76a4.4,4.4,0,0,0,2.2.66c1.22,0,1.79-.61,1.79-1.37s-.48-1.23-1.71-1.69c-1.65-.59-2.43-1.5-2.43-2.6,0-1.48,1.2-2.7,3.17-2.7a4.62,4.62,0,0,1,2.26.57l-.42,1.22a3.54,3.54,0,0,0-1.88-.53c-1,0-1.54.57-1.54,1.25s.56,1.1,1.75,1.56c1.6.61,2.41,1.4,2.41,2.77,0,1.62-1.25,2.76-3.43,2.76a5.27,5.27,0,0,1-2.59-.63Z" transform="translate(-13.18 -18.11)"/><path d="M496.28,351.69a1,1,0,0,1-1.06,1,1,1,0,0,1-1-1,1,1,0,0,1,1.05-1.05A1,1,0,0,1,496.28,351.69Zm-1.86,11.78v-9.2h1.67v9.2Z" transform="translate(-13.18 -18.11)"/><path d="M498.94,363.47V358l-1.29,1.1v-1.31l1.29-1.12V350h1.68v5.41l1.35-1.16v1.33l-1.35,1.16v6.75Z" transform="translate(-13.18 -18.11)"/><path d="M505.12,358.49h0c.23-.32.55-.72.81-1.05l2.7-3.17h2l-3.55,3.78,4.05,5.42h-2L506,359.06l-.85.95v3.46h-1.65V350h1.65Z" transform="translate(-13.18 -18.11)"/><path d="M520.15,361c0,1,0,1.78.07,2.51h-1.48l-.09-1.5h0a3.47,3.47,0,0,1-3,1.71c-1.44,0-3.17-.8-3.17-4v-5.38h1.67v5.09c0,1.75.53,2.93,2,2.93a2.41,2.41,0,0,0,2.2-1.52,2.35,2.35,0,0,0,.16-.86v-5.64h1.67Z" transform="translate(-13.18 -18.11)"/><path d="M555,333.81c0-1.18,0-2.13-.08-3h1.5l.08,1.57h0a3.62,3.62,0,0,1,3.27-1.78c2.22,0,3.9,1.88,3.9,4.67,0,3.3-2,4.94-4.18,4.94a3.22,3.22,0,0,1-2.83-1.44h0v5H555Zm1.65,2.45a4.73,4.73,0,0,0,.07.68,2.59,2.59,0,0,0,2.51,2c1.77,0,2.79-1.45,2.79-3.55,0-1.85-1-3.42-2.73-3.42a2.67,2.67,0,0,0-2.53,2.07,3,3,0,0,0-.11.68Z" transform="translate(-13.18 -18.11)"/><path d="M574.12,335.33a4.49,4.49,0,0,1-4.58,4.88,4.38,4.38,0,0,1-4.41-4.73c0-3.08,2-4.88,4.56-4.88S574.12,332.51,574.12,335.33Zm-7.3.09c0,2,1.16,3.53,2.79,3.53s2.8-1.5,2.8-3.57c0-1.55-.78-3.53-2.76-3.53S566.82,333.67,566.82,335.42Z" transform="translate(-13.18 -18.11)"/><path d="M583.35,329.21h0l-2.14,1.16-.33-1.27,2.7-1.45H585V340h-1.62Z" transform="translate(-13.18 -18.11)"/><path d="M597.68,333.69c0,4.2-1.56,6.52-4.3,6.52-2.41,0-4-2.26-4.08-6.35s1.79-6.42,4.29-6.42S597.68,329.76,597.68,333.69Zm-6.71.19c0,3.21,1,5,2.51,5,1.71,0,2.53-2,2.53-5.15s-.78-5-2.51-5C592,328.73,591,330.52,591,333.88Z" transform="translate(-13.18 -18.11)"/><path d="M603.78,333.29c0-1,0-1.72-.08-2.48h1.46l.08,1.48h.06a3.14,3.14,0,0,1,2.88-1.69,2.72,2.72,0,0,1,2.61,1.84h0a4,4,0,0,1,1-1.2,3.12,3.12,0,0,1,2-.64c1.22,0,3,.79,3,4V340h-1.63v-5.21c0-1.76-.65-2.83-2-2.83a2.17,2.17,0,0,0-2,1.52,2.69,2.69,0,0,0-.13.84V340h-1.64v-5.51c0-1.46-.64-2.53-1.92-2.53a2.3,2.3,0,0,0-2.07,1.68,2.37,2.37,0,0,0-.13.81V340h-1.63Z" transform="translate(-13.18 -18.11)"/><path d="M621.48,328.22a1,1,0,0,1-1.06,1,1,1,0,0,1-1-1,1,1,0,0,1,1.05-1A1,1,0,0,1,621.48,328.22ZM619.62,340v-9.19h1.67V340Z" transform="translate(-13.18 -18.11)"/><path d="M624.07,333.29c0-1,0-1.72-.08-2.48h1.48l.1,1.51h0a3.38,3.38,0,0,1,3-1.72c1.27,0,3.25.76,3.25,3.91V340h-1.68v-5.3c0-1.48-.55-2.72-2.12-2.72a2.38,2.38,0,0,0-2.25,1.71,2.62,2.62,0,0,0-.11.78V340h-1.67Z" transform="translate(-13.18 -18.11)"/><path d="M647,335.33a4.49,4.49,0,0,1-4.58,4.88c-2.49,0-4.4-1.83-4.4-4.73,0-3.08,2-4.88,4.56-4.88S647,332.51,647,335.33Zm-7.29.09c0,2,1.16,3.53,2.79,3.53s2.79-1.5,2.79-3.57c0-1.55-.78-3.53-2.75-3.53S639.67,333.67,639.67,335.42Z" transform="translate(-13.18 -18.11)"/><path d="M657,326.51v11.11c0,.82,0,1.75.08,2.38h-1.5l-.08-1.6h0a3.39,3.39,0,0,1-3.13,1.81c-2.22,0-3.93-1.88-3.93-4.67,0-3.06,1.88-4.94,4.12-4.94a3.06,3.06,0,0,1,2.77,1.4h0v-5.49Zm-1.67,8a2.87,2.87,0,0,0-.08-.71,2.44,2.44,0,0,0-2.41-1.93c-1.73,0-2.75,1.52-2.75,3.55,0,1.86.91,3.4,2.71,3.4a2.51,2.51,0,0,0,2.45-2,2.69,2.69,0,0,0,.08-.72Z" transform="translate(-13.18 -18.11)"/><path d="M578.52,353.61l1.21,4.67c.27,1,.52,2,.69,2.92h.05c.21-.93.52-1.92.82-2.9l1.5-4.69h1.41l1.42,4.59c.34,1.1.61,2.07.82,3h.06a25.69,25.69,0,0,1,.7-3l1.31-4.61h1.65l-3,9.19h-1.52l-1.41-4.39a29.08,29.08,0,0,1-.81-3h0a26.4,26.4,0,0,1-.84,3l-1.48,4.37h-1.52l-2.77-9.19Z" transform="translate(-13.18 -18.11)"/><path d="M592.67,353.61l2,5.43c.2.61.43,1.33.58,1.88h0c.17-.55.36-1.26.59-1.92l1.82-5.39h1.77L597,360.16c-1.19,3.15-2,4.77-3.15,5.75a4.52,4.52,0,0,1-2.05,1.09l-.42-1.41a4.41,4.41,0,0,0,1.46-.81,5.1,5.1,0,0,0,1.41-1.87,1.07,1.07,0,0,0,.13-.4,1.64,1.64,0,0,0-.11-.43l-3.4-8.47Z" transform="translate(-13.18 -18.11)"/><path d="M600.67,361.09a4.4,4.4,0,0,0,2.2.66c1.22,0,1.79-.6,1.79-1.36s-.48-1.24-1.71-1.69c-1.65-.59-2.43-1.51-2.43-2.61,0-1.48,1.2-2.69,3.17-2.69A4.52,4.52,0,0,1,606,354l-.42,1.21a3.54,3.54,0,0,0-1.88-.53c-1,0-1.54.57-1.54,1.25s.56,1.11,1.75,1.56c1.6.61,2.41,1.41,2.41,2.78,0,1.61-1.25,2.75-3.43,2.75a5.27,5.27,0,0,1-2.59-.63Z" transform="translate(-13.18 -18.11)"/><path d="M610.28,351a1,1,0,0,1-1.06,1,1,1,0,0,1-1-1,1,1,0,0,1,1-1A1,1,0,0,1,610.28,351Zm-1.86,11.78v-9.19h1.67v9.19Z" transform="translate(-13.18 -18.11)"/><path d="M612.94,362.8v-5.47l-1.29,1.1v-1.31l1.29-1.12v-6.69h1.68v5.42l1.35-1.16v1.33l-1.35,1.16v6.74Z" transform="translate(-13.18 -18.11)"/><path d="M619.12,357.82h0c.23-.32.55-.72.81-1l2.7-3.17h2l-3.55,3.78,4,5.41h-2L620,358.39l-.85.95v3.46h-1.65V349.31h1.65Z" transform="translate(-13.18 -18.11)"/><path d="M634.15,360.29c0,.95,0,1.79.07,2.51h-1.48l-.09-1.5h0a3.47,3.47,0,0,1-3,1.71c-1.44,0-3.17-.8-3.17-4v-5.37h1.67v5.09c0,1.74.53,2.92,2,2.92a2.41,2.41,0,0,0,2.2-1.52,2.3,2.3,0,0,0,.16-.85v-5.64h1.67Z" transform="translate(-13.18 -18.11)"/><path d="M60.16,303.5a6.4,6.4,0,0,0-1.26.07A5,5,0,0,0,54.61,308h.06a3.76,3.76,0,0,1,6.7,2.57,4.13,4.13,0,0,1-4.1,4.35c-2.64,0-4.37-2.06-4.37-5.27A7.72,7.72,0,0,1,55,304.05a6.68,6.68,0,0,1,3.95-1.83,8.72,8.72,0,0,1,1.22-.09Zm-.48,7.12c0-1.77-1-2.83-2.54-2.83a2.77,2.77,0,0,0-2.4,1.52,1.47,1.47,0,0,0-.19.74c0,2,1,3.53,2.72,3.53C58.71,313.58,59.68,312.39,59.68,310.62Z" transform="translate(-13.18 -18.11)"/><path d="M71.06,308.36c0,4.2-1.56,6.52-4.29,6.52-2.41,0-4-2.27-4.09-6.35s1.79-6.42,4.3-6.42S71.06,304.43,71.06,308.36Zm-6.7.19c0,3.21,1,5,2.5,5,1.71,0,2.53-2,2.53-5.14s-.78-5-2.51-5C65.42,303.4,64.36,305.19,64.36,308.55Z" transform="translate(-13.18 -18.11)"/><path d="M61.12,255v1.1l-5.37,11.24H54l5.36-10.92v0h-6V255Z" transform="translate(-13.18 -18.11)"/><path d="M71.06,261c0,4.2-1.56,6.51-4.29,6.51-2.41,0-4-2.26-4.09-6.34s1.79-6.42,4.3-6.42S71.06,257.09,71.06,261Zm-6.7.19c0,3.21,1,5,2.5,5,1.71,0,2.53-2,2.53-5.15s-.78-5-2.51-5C65.42,256.07,64.36,257.85,64.36,261.22Z" transform="translate(-13.18 -18.11)"/><path d="M52.29,216.87a3.53,3.53,0,0,1,2.45-3.31l0-.06a3.05,3.05,0,0,1-2-2.77c0-2,1.66-3.29,3.82-3.29,2.4,0,3.59,1.5,3.59,3a3.13,3.13,0,0,1-2,2.89v.06a3.42,3.42,0,0,1,2.49,3.19c0,2.15-1.84,3.59-4.2,3.59C53.85,220.21,52.29,218.67,52.29,216.87Zm6.65-.08c0-1.5-1-2.22-2.72-2.7A2.69,2.69,0,0,0,54,216.64,2.28,2.28,0,0,0,56.47,219,2.23,2.23,0,0,0,58.94,216.79Zm-4.6-6.17c0,1.23.93,1.9,2.36,2.28a2.45,2.45,0,0,0,1.88-2.25,1.92,1.92,0,0,0-2.09-2A2,2,0,0,0,54.34,210.62Z" transform="translate(-13.18 -18.11)"/><path d="M70.39,213.69c0,4.2-1.55,6.52-4.29,6.52-2.41,0-4-2.26-4.08-6.35s1.78-6.42,4.29-6.42S70.39,209.76,70.39,213.69Zm-6.7.19c0,3.21,1,5,2.51,5,1.71,0,2.52-2,2.52-5.15s-.78-5-2.5-5C64.75,208.74,63.69,210.52,63.69,213.88Z" transform="translate(-13.18 -18.11)"/><path d="M50.74,173.49a6.64,6.64,0,0,0,1.35-.06,4.7,4.7,0,0,0,2.59-1.19A5.51,5.51,0,0,0,56.31,169h-.06a3.63,3.63,0,0,1-2.9,1.33,3.57,3.57,0,0,1-3.65-3.78,4.23,4.23,0,0,1,4.22-4.39c2.52,0,4.08,2,4.08,5.2a7.8,7.8,0,0,1-2.13,5.8,6.16,6.16,0,0,1-3.59,1.65,7.42,7.42,0,0,1-1.54.1Zm.61-7.11A2.38,2.38,0,0,0,53.73,169a2.77,2.77,0,0,0,2.43-1.3,1.13,1.13,0,0,0,.15-.6c0-2.11-.78-3.73-2.53-3.73C52.36,163.38,51.35,164.64,51.35,166.38Z" transform="translate(-13.18 -18.11)"/><path d="M67.73,168.36c0,4.2-1.56,6.52-4.3,6.52-2.41,0-4-2.27-4.08-6.35s1.79-6.42,4.29-6.42S67.73,164.43,67.73,168.36Zm-6.71.19c0,3.21,1,5,2.51,5,1.71,0,2.53-2,2.53-5.14s-.78-5-2.51-5C62.09,163.4,61,165.19,61,168.55Z" transform="translate(-13.18 -18.11)"/><path d="M47.2,113.21h0L45,114.37l-.32-1.27,2.7-1.45h1.42V124H47.2Z" transform="translate(-13.18 -18.11)"/><path d="M61.52,117.69c0,4.2-1.56,6.52-4.29,6.52-2.41,0-4-2.26-4.09-6.35s1.79-6.42,4.3-6.42S61.52,113.76,61.52,117.69Zm-6.7.19c0,3.21,1,5,2.5,5,1.71,0,2.53-2,2.53-5.15s-.78-5-2.51-5C55.88,112.74,54.82,114.52,54.82,117.88Z" transform="translate(-13.18 -18.11)"/><path d="M71.27,117.69c0,4.2-1.56,6.52-4.3,6.52-2.41,0-4-2.26-4.08-6.35s1.79-6.42,4.29-6.42S71.27,113.76,71.27,117.69Zm-6.71.19c0,3.21,1,5,2.51,5,1.71,0,2.53-2,2.53-5.15s-.78-5-2.51-5C65.63,112.74,64.56,114.52,64.56,117.88Z" transform="translate(-13.18 -18.11)"/><path d="M45.86,65.88h0L43.68,67l-.32-1.28,2.69-1.44h1.43V76.67H45.86Z" transform="translate(-13.18 -18.11)"/><path d="M55.61,65.88h0L53.43,67l-.33-1.28,2.7-1.44h1.42V76.67H55.61Z" transform="translate(-13.18 -18.11)"/><path d="M69.93,70.36c0,4.2-1.55,6.52-4.29,6.52-2.41,0-4-2.27-4.08-6.35s1.78-6.42,4.29-6.42S69.93,66.43,69.93,70.36Zm-6.7.19c0,3.21,1,5,2.51,5,1.71,0,2.52-2,2.52-5.14s-.78-5-2.5-5C64.29,65.4,63.23,67.19,63.23,70.55Z" transform="translate(-13.18 -18.11)"/><path d="M45.86,19.88h0L43.68,21l-.32-1.28,2.69-1.44h1.43V30.67H45.86Z" transform="translate(-13.18 -18.11)"/><path d="M52,30.67v-1l1.31-1.27c3.16-3,4.58-4.6,4.6-6.46a2.2,2.2,0,0,0-2.45-2.41,4.23,4.23,0,0,0-2.62,1l-.54-1.18a5.46,5.46,0,0,1,3.5-1.25,3.47,3.47,0,0,1,3.78,3.59c0,2.28-1.65,4.12-4.25,6.63l-1,.91v0h5.55v1.39Z" transform="translate(-13.18 -18.11)"/><path d="M69.93,24.36c0,4.2-1.55,6.52-4.29,6.52-2.41,0-4-2.27-4.08-6.35s1.78-6.42,4.29-6.42S69.93,20.43,69.93,24.36Zm-6.7.19c0,3.21,1,5,2.51,5,1.71,0,2.52-2,2.52-5.14s-.78-5-2.5-5C64.29,19.4,63.23,21.19,63.23,24.55Z" transform="translate(-13.18 -18.11)"/><path d="M14.87,300.28h2.64v-2.39h1.27v2.39h5c1.14,0,1.79-.32,1.79-1.25a3.54,3.54,0,0,0-.12-1l1.26-.08a4.23,4.23,0,0,1,.22,1.48,2.28,2.28,0,0,1-.7,1.81,3.37,3.37,0,0,1-2.39.65h-5v1.42H17.51v-1.42h-2.2Z" transform="translate(-13.18 -18.11)"/><path d="M30.14,289.92a2.57,2.57,0,0,1,.46,1.54,1.49,1.49,0,0,1-1.5,1.7,3,3,0,0,1-2.21-1.38h0a4.18,4.18,0,0,1,0,.51,4.27,4.27,0,0,1-4.63,4.49c-2.77,0-5-1.63-5-4.31,0-3,2.64-3.8,4.33-3.81a6,6,0,0,1,.78.06v6.46A2.94,2.94,0,0,0,25.6,292a6.18,6.18,0,0,0-.47-2.55l1.19-.28a7.64,7.64,0,0,1,.32.87c.33.74,1.26,1.79,2,1.78a.74.74,0,0,0,.8-.77,2.64,2.64,0,0,0-.19-.9Zm-8.93.36a2.38,2.38,0,0,0-2.71,2.32,2.76,2.76,0,0,0,2.71,2.56Z" transform="translate(-13.18 -18.11)"/><path d="M14.87,284.58h2.64v-2.39h1.27v2.39h5c1.14,0,1.78-.33,1.78-1.26a3.59,3.59,0,0,0-.11-1l1.25-.08a3.9,3.9,0,0,1,.23,1.48,2.35,2.35,0,0,1-.7,1.81,3.45,3.45,0,0,1-2.4.64h-5v1.43H17.51v-1.43H15.3Z" transform="translate(-13.18 -18.11)"/><path d="M20,280.31c-.95,0-1.73,0-2.49.07V278.9l1.52-.1v0a3.39,3.39,0,0,1-1.73-3c0-1.28.76-3.25,3.92-3.25H26.7v1.67H21.4c-1.48,0-2.72.55-2.72,2.13a2.37,2.37,0,0,0,1.71,2.24,2.62,2.62,0,0,0,.78.11H26.7v1.67Z" transform="translate(-13.18 -18.11)"/><path d="M22,261.44A4.49,4.49,0,0,1,26.9,266a4.37,4.37,0,0,1-4.72,4.4c-3.08,0-4.89-2-4.89-4.55S19.21,261.44,22,261.44Zm.1,7.29c2,0,3.53-1.16,3.53-2.79s-1.5-2.79-3.57-2.79c-1.56,0-3.54.78-3.53,2.75S20.37,268.73,22.12,268.73Z" transform="translate(-13.18 -18.11)"/><path d="M28.82,255.13H13.68v-3.48h1v2.19H27.77v-2.19h1.05Z" transform="translate(-13.18 -18.11)"/><path d="M13.2,249.91v-1.67H26.69v1.67Z" transform="translate(-13.18 -18.11)"/><path d="M14.91,243.56a1,1,0,0,1,1,1.06,1,1,0,0,1-1,1,1,1,0,0,1-1-1A1,1,0,0,1,14.91,243.56Zm11.78,1.86h-9.2v-1.67h9.2Z" transform="translate(-13.18 -18.11)"/><path d="M26.34,234.42a6.09,6.09,0,0,1,.54,2.64,4.37,4.37,0,0,1-4.69,4.58,4.67,4.67,0,0,1-4.89-4.94,5.56,5.56,0,0,1,.48-2.32l1.29.38a3.87,3.87,0,0,0-.44,1.94A3.18,3.18,0,0,0,22.11,240a3.15,3.15,0,0,0,3.44-3.19,4.79,4.79,0,0,0-.46-2.06Z" transform="translate(-13.18 -18.11)"/><path d="M25.72,233.51l-5.42-4.16c-.49-.4-.93-.78-1.42-1.2h0v5H17.49v-7l1,0,5.34,4.1c.52.38,1,.76,1.45,1.18h0V226h1.33v7.47Z" transform="translate(-13.18 -18.11)"/><path d="M26.68,224.4c-.62,0-1.55-.07-2.37-.07H13.2v-1.65H19v0a3.41,3.41,0,0,1-1.69-3.13c0-2.28,1.9-3.9,4.69-3.88,3.29,0,4.92,2.07,4.92,4.12a3.27,3.27,0,0,1-1.73,3.08v.06l1.52.07ZM23,222.68a2.89,2.89,0,0,0,.6-.08,2.58,2.58,0,0,0,2-2.51c0-1.74-1.42-2.79-3.53-2.79-1.85,0-3.42.95-3.42,2.74a2.66,2.66,0,0,0,2.05,2.54,3.16,3.16,0,0,0,.68.1Z" transform="translate(-13.18 -18.11)"/><path d="M26.68,208.43l-1.16.13v.06a3.42,3.42,0,0,1,1.37,2.81,2.62,2.62,0,0,1-2.64,2.81c-2.22,0-3.44-2-3.42-5.53h-.19a1.9,1.9,0,0,0-2.13,2.09,4.67,4.67,0,0,0,.68,2.4l-1.1.38a5.83,5.83,0,0,1-.82-3c0-2.81,1.92-3.5,3.77-3.5h3.43a13.47,13.47,0,0,0,2.21-.15Zm-4.69.25c0,1.82.28,3.89,2.07,3.89A1.48,1.48,0,0,0,25.65,211a2.29,2.29,0,0,0-1.54-2.22,1.64,1.64,0,0,0-.53-.09Z" transform="translate(-13.18 -18.11)"/><path d="M24.17,192.64c.95,0,1.78,0,2.5-.08v1.49l-1.5.09v0a3.46,3.46,0,0,1,1.71,3c0,1.44-.79,3.17-4,3.17H17.48v-1.67h5.09c1.75,0,2.93-.53,2.93-2.05A2.44,2.44,0,0,0,24,194.46a2.58,2.58,0,0,0-.86-.15H17.48v-1.67Z" transform="translate(-13.18 -18.11)"/><path d="M13.18,181.93H24.3c.81,0,1.74,0,2.37-.07v1.5l-1.59.07v0a3.43,3.43,0,0,1,1.8,3.14c0,2.22-1.88,3.93-4.67,3.93-3.06,0-4.94-1.88-4.94-4.12a3.05,3.05,0,0,1,1.4-2.77v0H13.18Zm8,1.67a3.26,3.26,0,0,0-.7.07,2.46,2.46,0,0,0-1.94,2.42c0,1.73,1.52,2.75,3.55,2.75,1.86,0,3.4-.91,3.4-2.72a2.52,2.52,0,0,0-2-2.45,3.35,3.35,0,0,0-.73-.07Z" transform="translate(-13.18 -18.11)"/><path d="M22.38,178.22a3,3,0,0,0,3.19-3.16,6,6,0,0,0-.48-2.54l1.2-.29a7.57,7.57,0,0,1,.57,3.06,4.27,4.27,0,0,1-4.64,4.52c-2.77,0-4.95-1.63-5-4.31,0-3,2.64-3.8,4.34-3.8a5.85,5.85,0,0,1,.77.06Zm-1.2-4.9c-1.07,0-2.72.44-2.72,2.32a2.77,2.77,0,0,0,2.72,2.56Z" transform="translate(-13.18 -18.11)"/><path d="M20.34,169.63c-1.08,0-2,0-2.87.08v-1.46l1.81-.06v-.08a2.75,2.75,0,0,1-2-2.54,1.75,1.75,0,0,1,.06-.48H18.9a2.37,2.37,0,0,0-.06.57A2.33,2.33,0,0,0,21,167.9a4.34,4.34,0,0,0,.77.08h4.91v1.65Z" transform="translate(-13.18 -18.11)"/><path d="M25.7,164.29l-5.42-4.16c-.49-.4-.93-.78-1.42-1.19h0v5H17.47v-7l1,0,5.34,4.1c.52.38,1,.76,1.45,1.18h0v-5.37h1.33v7.47Z" transform="translate(-13.18 -18.11)"/><path d="M22.37,154.32a3,3,0,0,0,3.19-3.16,5.94,5.94,0,0,0-.48-2.54l1.2-.29a7.4,7.4,0,0,1,.57,3.06,4.27,4.27,0,0,1-4.63,4.52c-2.78,0-5-1.63-5-4.31,0-3,2.64-3.8,4.33-3.8a6,6,0,0,1,.78.06Zm-1.2-4.9c-1.06,0-2.72.43-2.72,2.31a2.77,2.77,0,0,0,2.72,2.57Z" transform="translate(-13.18 -18.11)"/><path d="M13.49,139.23l2.72,2.32v1.2l-2.72-1.67Zm6.46,6.5c-.95,0-1.73,0-2.49.08v-1.49l1.52-.09v0a3.38,3.38,0,0,1-1.73-3c0-1.27.76-3.25,3.92-3.25h5.49v1.67h-5.3c-1.48,0-2.72.56-2.72,2.13a2.37,2.37,0,0,0,1.71,2.24,2.32,2.32,0,0,0,.78.12h5.53v1.67Z" transform="translate(-13.18 -18.11)"/><path d="M25,131.38a4.37,4.37,0,0,0,.66-2.2c0-1.22-.61-1.79-1.37-1.79s-1.23.48-1.69,1.71c-.59,1.66-1.5,2.44-2.6,2.44-1.48,0-2.7-1.2-2.7-3.17a4.67,4.67,0,0,1,.57-2.27l1.22.42a3.56,3.56,0,0,0-.54,1.88c0,1,.57,1.54,1.26,1.54s1.1-.55,1.56-1.75c.6-1.59,1.4-2.41,2.77-2.41,1.61,0,2.75,1.25,2.75,3.44a5.26,5.26,0,0,1-.62,2.58Z" transform="translate(-13.18 -18.11)"/><path d="M22.36,122.7a2.94,2.94,0,0,0,3.19-3.15,6,6,0,0,0-.48-2.55l1.2-.28a7.31,7.31,0,0,1,.57,3,4.27,4.27,0,0,1-4.63,4.53c-2.78,0-5-1.63-5-4.31,0-3,2.64-3.8,4.33-3.8a6.44,6.44,0,0,1,.78,0Zm-1.2-4.9a2.39,2.39,0,0,0-2.72,2.32,2.77,2.77,0,0,0,2.72,2.56Z" transform="translate(-13.18 -18.11)"/><path d="M20.32,114.11c-1.08,0-2,0-2.86.08v-1.46l1.81-.06v-.08a2.77,2.77,0,0,1-2-2.54,1.8,1.8,0,0,1,.06-.48h1.58a2.49,2.49,0,0,0-.06.57A2.36,2.36,0,0,0,21,112.39a5.79,5.79,0,0,0,.78.07h4.9v1.65Z" transform="translate(-13.18 -18.11)"/><path d="M26.3,101.54a6.05,6.05,0,0,1,.54,2.64,4.37,4.37,0,0,1-4.69,4.58,4.68,4.68,0,0,1-4.89-4.94,5.56,5.56,0,0,1,.48-2.32l1.29.38a3.87,3.87,0,0,0-.44,1.94,3.18,3.18,0,0,0,3.48,3.25,3.16,3.16,0,0,0,3.44-3.2,4.74,4.74,0,0,0-.46-2.05Z" transform="translate(-13.18 -18.11)"/><path d="M26.64,94.49l-1.15.13v.06a3.42,3.42,0,0,1,1.36,2.81,2.62,2.62,0,0,1-2.64,2.81c-2.22,0-3.43-2-3.42-5.53H20.6a1.89,1.89,0,0,0-2.12,2.09,4.58,4.58,0,0,0,.68,2.4l-1.1.38a5.65,5.65,0,0,1-.82-3c0-2.82,1.92-3.5,3.76-3.5h3.44a13.26,13.26,0,0,0,2.2-.15ZM22,94.73c0,1.83.29,3.9,2.07,3.9a1.48,1.48,0,0,0,1.6-1.58,2.27,2.27,0,0,0-1.54-2.22,1.66,1.66,0,0,0-.53-.1Z" transform="translate(-13.18 -18.11)"/><path d="M27.4,91.83l-13.77-5.3V85.24L27.4,90.55Z" transform="translate(-13.18 -18.11)"/><path d="M19.93,83.9c-.94,0-1.72,0-2.48.08V82.52l1.48-.08v-.06a3.14,3.14,0,0,1-1.69-2.88,2.72,2.72,0,0,1,1.84-2.61v0a4,4,0,0,1-1.2-1,3.13,3.13,0,0,1-.65-2c0-1.22.8-3,4-3h5.42v1.63H21.43c-1.76,0-2.83.65-2.83,2a2.16,2.16,0,0,0,1.52,2,2.69,2.69,0,0,0,.84.13h5.68v1.64H21.13c-1.46,0-2.53.64-2.53,1.92a2.3,2.3,0,0,0,1.68,2.07,2.37,2.37,0,0,0,.81.13h5.55V83.9Z" transform="translate(-13.18 -18.11)"/><path d="M14.86,66.2a1,1,0,0,1,0,2.07,1,1,0,0,1-1-1A1,1,0,0,1,14.86,66.2Zm11.78,1.86h-9.2V66.39h9.2Z" transform="translate(-13.18 -18.11)"/><path d="M19.93,63.61c-.95,0-1.73,0-2.49.08V62.21l1.52-.1v0a3.37,3.37,0,0,1-1.73-3c0-1.28.76-3.25,3.91-3.25h5.49v1.68h-5.3c-1.48,0-2.71.55-2.71,2.13a2.38,2.38,0,0,0,1.71,2.24,2.57,2.57,0,0,0,.78.11h5.52v1.67Z" transform="translate(-13.18 -18.11)"/><path d="M24.12,45.37c.95,0,1.79,0,2.51-.07v1.48l-1.5.09v0a3.47,3.47,0,0,1,1.71,3c0,1.44-.8,3.17-4,3.17H17.44V51.45h5.09c1.75,0,2.92-.53,2.92-2.05a2.41,2.41,0,0,0-1.52-2.2,2.3,2.3,0,0,0-.85-.15H17.44V45.38Z" transform="translate(-13.18 -18.11)"/><path d="M14.79,40.59h2.64v-2.4h1.28v2.4h4.95c1.14,0,1.79-.32,1.79-1.25a4.09,4.09,0,0,0-.11-1l1.25-.08a4.22,4.22,0,0,1,.23,1.49,2.32,2.32,0,0,1-.7,1.8,3.4,3.4,0,0,1-2.4.65h-5v1.42H17.43V42.22h-2.2Z" transform="translate(-13.18 -18.11)"/><path d="M13.59,33.86H28.75v3.47H27.71V35.15H14.64v2.19h-1Z" transform="translate(-13.18 -18.11)"/></svg>