<?xml version="1.0" encoding="utf-8"?>
<!-- Generator: Adobe Illustrator 25.1.0, SVG Export Plug-In . SVG Version: 6.00 Build 0)  -->
<svg version="1.1" id="Warstwa_1" xmlns="http://www.w3.org/2000/svg" xmlns:xlink="http://www.w3.org/1999/xlink" x="0px" y="0px"
	 viewBox="0 0 595.3 841.9" style="enable-background:new 0 0 595.3 841.9;" xml:space="preserve">
<style type="text/css">
	.st0{clip-path:url(#SVGID_2_);}
	.st1{clip-path:url(#SVGID_4_);}
	.st2{clip-path:url(#SVGID_6_);}
	.st3{clip-path:url(#SVGID_8_);}
	.st4{clip-path:url(#SVGID_10_);}
	.st5{clip-path:url(#SVGID_12_);}
	.st6{clip-path:url(#SVGID_14_);}
	.st7{clip-path:url(#SVGID_16_);}
	.st8{fill:#010202;}
	.st9{fill:#FFFFFF;}
</style>
<symbol  id="font_1_3" viewBox="0 0 0 0">
	<path d="M0,0"/>
</symbol>
<symbol  id="font_1_358" viewBox="-0.1 -0.1 0.1 0.1">
	<path d="M0.1,0C0.1,0,0,0,0.1,0C0-0.1,0-0.1,0.1,0C0-0.1,0-0.1,0.1,0C0,0-0.1,0-0.1,0C-0.1,0,0,0,0.1,0C0,0.1,0,0.1,0.1,0
		C0,0.1,0,0.1,0.1,0C0,0,0.1,0,0.1,0z"/>
</symbol>
<symbol  id="font_1_3ef" viewBox="-0.2 -0.3 0.4 0.7">
	<path d="M0.2-0.1C0.2-0.2,0.2-0.2,0.2-0.1c0-0.1,0-0.1-0.1-0.1s0,0-0.1,0c0,0-0.1,0-0.1,0c0,0,0,0-0.1,0c0,0,0,0,0,0c0,0,0,0,0,0
		c0,0,0,0,0,0c0,0,0,0,0,0s0,0,0,0s0,0,0,0c0,0,0,0,0,0c0,0,0,0,0,0s0,0,0,0c0,0,0,0,0,0c0,0,0,0,0,0c0,0,0,0,0,0c0,0,0,0,0.1,0
		c0,0,0,0,0.1,0s0,0,0,0s0,0,0,0C0.1-0.2,0.1-0.2,0.2-0.1c-0.1,0-0.1,0-0.1,0c0,0,0,0,0,0c0,0,0,0,0,0c0,0,0,0-0.1,0h-0.1
		c0,0,0,0,0,0c0,0,0,0,0,0c0,0,0,0,0,0c0,0,0,0,0,0c0,0,0,0,0,0c0,0,0,0,0,0c0,0,0,0,0,0c0,0,0,0,0,0h0.1C0,0,0,0,0,0c0,0,0,0,0,0
		c0,0,0,0,0,0c0,0,0,0,0,0c0,0,0,0,0,0c0,0,0,0,0,0c0,0,0,0,0,0c0,0,0,0,0,0c0,0,0,0-0.1,0c0,0,0,0,0,0s0,0,0,0c0,0,0,0,0,0
		c0,0,0,0,0,0c0,0,0,0,0,0c0,0,0,0,0,0c0,0,0,0,0,0c0,0,0,0,0,0c0,0,0,0,0,0c0,0,0,0,0,0s0,0,0,0c0,0,0,0,0,0s0,0,0,0c0,0,0,0,0,0
		c0,0,0,0,0.1,0c0,0,0.1,0,0.1,0s0,0,0.1,0c0,0,0,0,0,0c0,0,0,0,0-0.1c0,0,0,0,0-0.1c0,0,0,0,0,0c0,0,0,0,0,0c0,0,0,0-0.1,0v0
		c0,0,0,0,0.1,0c0,0,0,0,0,0S0.2-0.1,0.2-0.1C0.2-0.1,0.2-0.1,0.2-0.1z"/>
</symbol>
<symbol  id="font_3_102" viewBox="-0.2 -0.2 0.4 0.5">
	<path d="M0.2-0.2C0.2-0.2,0.2-0.2,0.2-0.2C0.2-0.2,0.2-0.2,0.2-0.2C0.2-0.2,0.2-0.2,0.2-0.2C0.1-0.2,0.1-0.2,0.2-0.2
		C0.1-0.2,0.1-0.2,0.2-0.2C0.1-0.2,0.1-0.2,0.2-0.2L0.2-0.2c-0.1,0-0.1,0-0.1,0c0,0,0,0-0.1,0c0,0,0,0-0.1,0c0,0,0,0,0,0
		c0,0,0,0,0,0c0,0,0,0,0,0.1c0,0,0,0,0,0.1s0,0,0,0c0,0,0,0,0.1,0C0,0,0,0,0,0h0.1v0c0,0,0,0,0,0s0,0,0,0c0,0,0,0,0,0c0,0,0,0,0,0
		c0,0,0,0-0.1,0c0,0,0,0,0,0c0,0,0,0,0,0c0,0,0,0,0,0c0,0,0,0,0,0s0,0,0,0c0,0,0,0,0,0c0,0,0,0,0,0c0,0,0,0,0,0c0,0,0,0,0,0
		c0,0,0,0,0,0c0,0,0,0,0,0c0,0,0,0,0,0c0,0,0,0,0.1,0c0,0,0.1,0,0.1,0s0,0,0.1,0c0,0,0,0,0-0.1s0,0,0-0.1V-0.2 M0.1,0L0.1,0
		C0,0,0,0,0,0c0,0,0,0,0,0c0,0,0,0,0,0c0,0,0,0,0,0c0,0,0,0,0-0.1c0,0,0,0,0.1,0c0,0,0,0,0.1,0C0.1-0.2,0.1-0.1,0.1,0L0.1,0z"/>
</symbol>
<symbol  id="font_3_10c" viewBox="-0.2 -0.3 0.4 0.7">
	<path d="M0.2-0.3C0.2-0.3,0.2-0.3,0.2-0.3C0.2-0.3,0.2-0.3,0.2-0.3C0.2-0.3,0.2-0.3,0.2-0.3C0.2-0.3,0.2-0.3,0.2-0.3
		C0.2-0.3,0.2-0.3,0.2-0.3C0.1-0.3,0.1-0.3,0.2-0.3c-0.1,0-0.1,0-0.1,0c0,0,0,0,0,0.1c0,0,0,0,0,0c0,0,0,0,0,0c0,0,0,0,0,0
		c0,0,0,0,0,0l0,0v0.1h0c0,0,0,0-0.1,0s0,0-0.1,0c0,0,0,0-0.1,0c0,0,0,0,0,0c0,0,0,0,0,0c0,0,0,0,0,0.1c0,0,0,0,0,0.1s0,0,0,0
		s0,0,0.1,0c0,0,0.1,0,0.1,0h0.1v0c0,0,0,0,0,0s0,0,0,0c0,0,0,0,0,0c0,0,0,0,0,0c0,0,0,0-0.1,0c0,0,0,0,0,0c0,0,0,0,0,0c0,0,0,0,0,0
		c0,0,0,0,0,0s0,0,0,0c0,0,0,0,0,0c0,0,0,0,0,0c0,0,0,0,0,0c0,0,0,0,0,0c0,0,0,0,0,0c0,0,0,0,0,0c0,0,0,0,0,0c0,0,0,0,0.1,0
		c0,0,0.1,0,0.1,0s0,0,0.1,0c0,0,0,0,0-0.1s0,0,0-0.1v-0.3c0,0,0,0,0,0c0,0,0,0,0,0L0.2-0.3C0.1-0.2,0.1-0.2,0.2-0.3
		C0.1-0.2,0.1-0.2,0.2-0.3C0.1-0.3,0.1-0.3,0.2-0.3L0.2-0.3C0.2-0.3,0.2-0.3,0.2-0.3C0.2-0.3,0.2-0.3,0.2-0.3 M0.1,0.1L0.1,0.1
		C0,0.1,0,0.1,0,0.1c0,0,0,0,0,0c0,0,0,0,0,0c0,0,0,0,0,0c0,0,0,0,0-0.1c0,0,0,0,0.1,0c0,0,0,0,0.1,0C0-0.1,0.1-0.1,0.1,0.1L0.1,0.1
		z"/>
</symbol>
<symbol  id="font_3_10f" viewBox="-0.2 -0.3 0.4 0.7">
	<path d="M0.2-0.1c0,0,0-0.1,0-0.1c0,0,0-0.1,0-0.1c0,0,0,0-0.1,0S0-0.3,0-0.3c0,0,0,0,0,0c0,0,0,0,0,0s0,0,0,0s0,0,0,0v-0.1
		c0,0,0,0,0,0s0,0,0,0c0,0,0,0,0,0c0,0,0,0,0,0c0,0,0,0,0,0s0,0,0,0c0,0,0,0,0,0s0,0,0,0v0.7c0,0,0,0,0,0c0,0,0,0,0,0c0,0,0,0,0,0
		s0,0,0,0c0,0,0,0,0,0c0,0,0,0,0,0s0,0,0,0s0,0,0,0V0.1c0,0,0,0,0,0c0,0,0,0,0,0c0,0,0,0,0,0s0,0,0,0c0,0,0.1,0,0.1,0
		c0,0,0,0,0.1-0.1C0.2,0,0.2,0,0.2-0.1C0.2,0,0.2-0.1,0.2-0.1 M0.1-0.1C0.1-0.1,0.1-0.1,0.1-0.1c0,0.1,0,0.1,0,0.1s0,0,0,0
		c0,0,0,0-0.1,0c0,0,0,0,0,0s0,0,0,0s0,0,0,0c0,0,0,0,0,0v-0.2c0,0,0,0,0.1-0.1c0,0,0,0,0.1,0c0,0,0,0,0.1,0c0,0,0,0,0,0
		C0.1-0.2,0.1-0.2,0.1-0.1C0.1-0.1,0.1-0.1,0.1-0.1z"/>
</symbol>
<symbol  id="font_3_110" viewBox="-0.2 -0.2 0.3 0.5">
	<path d="M0.2-0.2C0.2-0.2,0.2-0.2,0.2-0.2C0.2-0.2,0.2-0.2,0.2-0.2C0.2-0.2,0.2-0.2,0.2-0.2C0.2-0.2,0.2-0.2,0.2-0.2
		C0.2-0.2,0.1-0.2,0.2-0.2C0.1-0.2,0.1-0.2,0.2-0.2C0.1-0.2,0.1-0.2,0.1-0.2c0,0,0,0,0,0c0,0-0.1,0-0.1,0s0,0-0.1,0c0,0,0,0,0,0.1
		c0,0,0,0.1,0,0.1c0,0,0,0.1,0,0.1c0,0,0,0.1,0,0.1c0,0,0,0,0.1,0c0,0,0.1,0,0.1,0c0,0,0,0,0,0c0,0,0,0,0,0s0,0,0,0c0,0,0,0,0,0
		s0,0,0,0c0,0,0,0,0,0c0,0,0,0,0,0s0,0,0,0c0,0,0,0,0,0c0,0,0,0,0,0c0,0,0,0,0,0c0,0,0,0,0,0s0,0,0,0c0,0,0,0,0,0c0,0-0.1,0-0.1,0
		c0,0,0-0.1,0-0.1c0,0,0-0.1,0-0.1c0,0,0,0,0-0.1c0,0,0,0,0,0c0,0,0,0,0.1,0C0.1-0.2,0.1-0.2,0.2-0.2C0.1-0.2,0.1-0.2,0.2-0.2
		C0.1-0.1,0.1-0.1,0.2-0.2C0.2-0.1,0.2-0.1,0.2-0.2C0.2-0.1,0.2-0.1,0.2-0.2C0.2-0.1,0.2-0.1,0.2-0.2C0.2-0.1,0.2-0.1,0.2-0.2
		C0.2-0.1,0.2-0.1,0.2-0.2z"/>
</symbol>
<symbol  id="font_3_11a" viewBox="-0.2 -0.3 0.4 0.7">
	<path d="M0.2-0.3C0.2-0.3,0.2-0.3,0.2-0.3C0.2-0.3,0.2-0.3,0.2-0.3C0.2-0.3,0.2-0.3,0.2-0.3C0.2-0.3,0.2-0.3,0.2-0.3
		C0.2-0.3,0.2-0.3,0.2-0.3C0.1-0.3,0.1-0.3,0.2-0.3C0.1-0.3,0.1-0.3,0.2-0.3C0.1-0.3,0.1-0.3,0.2-0.3L0.2-0.3c-0.1,0-0.1,0-0.1,0
		c0,0-0.1,0-0.1,0c0,0-0.1,0-0.1,0c0,0,0,0-0.1,0.1c0,0,0,0,0,0.1c0,0,0,0.1,0,0.1c0,0,0,0.1,0,0.1c0,0,0,0.1,0,0.1s0,0,0.1,0
		c0,0,0.1,0,0.1,0c0,0,0,0,0.1,0c0,0,0,0,0.1,0v0.3c0,0,0,0,0,0c0,0,0,0,0,0c0,0,0,0,0,0c0,0,0,0,0,0c0,0,0,0,0,0c0,0,0,0,0,0
		c0,0,0,0,0,0c0,0,0,0,0,0V-0.3 M0.1,0C0.1,0,0.1,0,0.1,0C0,0.1,0,0.1,0,0.1c0,0,0,0-0.1,0s0,0,0,0c0,0,0,0,0-0.1c0,0,0,0,0-0.1
		c0,0,0,0,0-0.1c0,0,0,0,0-0.1c0,0,0,0,0,0c0,0,0,0,0.1,0c0,0,0,0,0,0c0,0,0,0,0,0c0,0,0,0,0,0c0,0,0,0,0,0V0z"/>
</symbol>
<symbol  id="font_3_11e" viewBox="-0.2 -0.2 0.4 0.5">
	<path d="M0.2,0C0.2,0,0.2,0,0.2,0C0.2,0,0.2,0,0.2,0l-0.3,0c0,0,0,0,0-0.1s0,0,0-0.1s0,0,0,0s0,0,0.1,0c0,0,0,0,0.1,0c0,0,0,0,0,0
		c0,0,0,0,0,0c0,0,0,0,0,0c0,0,0,0,0,0c0,0,0,0,0,0s0,0,0,0c0,0,0,0,0,0c0,0,0,0,0,0c0,0,0,0,0,0c0,0,0,0,0,0c0,0,0,0,0,0
		c0,0,0,0,0,0c0,0,0,0,0,0s0,0,0,0c0,0,0,0-0.1,0c0,0-0.1,0-0.1,0c0,0,0,0-0.1,0s0,0,0,0.1s0,0.1,0,0.1c0,0,0,0.1,0,0.1
		c0,0,0,0.1,0,0.1c0,0,0,0,0.1,0c0,0,0.1,0,0.1,0c0,0,0.1,0,0.1,0c0,0,0,0,0.1,0C0.2,0.2,0.2,0.1,0.2,0C0.2,0.1,0.2,0.1,0.2,0L0.2,0
		 M0.1,0C0.1,0.1,0.1,0.1,0.1,0C0.1,0.2,0,0.2,0,0.2c0,0,0,0-0.1,0s0,0,0,0s0,0,0,0c0,0,0,0,0-0.1H0.1z"/>
</symbol>
<symbol  id="font_3_127" viewBox="-0.2 -0.3 0.4 0.7">
	<path d="M0.2,0.1C0.2,0.1,0.2,0.1,0.2,0.1C0.2,0.1,0.2,0.1,0.2,0.1l-0.3,0c0,0,0,0,0-0.1s0,0,0-0.1s0,0,0,0c0,0,0,0,0.1,0
		c0,0,0,0,0.1,0c0,0,0,0,0,0c0,0,0,0,0,0c0,0,0,0,0,0c0,0,0,0,0,0c0,0,0,0,0,0s0,0,0,0c0,0,0,0,0,0c0,0,0,0,0,0c0,0,0,0,0,0
		c0,0,0,0,0,0c0,0,0,0,0,0L0.1-0.2c0,0,0,0,0,0c0,0,0,0,0,0c0,0,0,0,0,0c0,0,0,0,0,0h0.1c0,0,0,0,0,0c0,0,0,0,0,0c0,0,0,0,0,0
		c0,0,0,0,0,0c0,0,0,0,0,0c0,0,0,0,0,0c0,0,0,0,0,0c0,0,0,0,0,0c0,0-0.1,0-0.1,0s0,0,0,0.1c0,0,0,0,0,0s0,0,0,0c0,0,0,0,0,0
		c0,0,0,0,0,0l0,0c0,0,0,0,0,0c0,0,0,0,0,0c0,0-0.1,0-0.1,0s0,0-0.1,0c0,0,0,0,0,0.1s0,0.1,0,0.1c0,0,0,0.1,0,0.1c0,0,0,0.1,0,0.1
		c0,0,0,0,0.1,0c0,0,0.1,0,0.1,0c0,0,0.1,0,0.1,0c0,0,0,0,0.1,0C0.2,0.2,0.2,0.2,0.2,0.1C0.2,0.2,0.2,0.1,0.2,0.1L0.2,0.1 M0.1,0.1
		C0.1,0.2,0.1,0.2,0.1,0.1C0.1,0.3,0,0.3,0,0.3c0,0,0,0-0.1,0s0,0,0,0s0,0,0,0c0,0,0,0,0-0.1H0.1z"/>
</symbol>
<symbol  id="font_3_150" viewBox="-0.2 -0.3 0.4 0.7">
	<path d="M0.2,0.3C0.2,0.3,0.2,0.3,0.2,0.3C0.2,0.3,0.2,0.3,0.2,0.3L0.2,0.3C0.1,0.2,0.1,0.2,0.2,0.3c-0.1-0.1,0-0.1,0-0.1
		c0,0,0,0,0-0.1s0,0,0,0c0,0,0,0-0.1,0S0,0,0,0c0,0,0,0-0.1,0c0,0,0,0,0,0c0,0,0,0,0,0c0,0,0,0,0,0c0,0,0,0,0,0c0,0,0,0,0,0l0.1,0
		c0,0,0,0,0.1,0c0,0,0,0,0,0c0,0,0,0,0,0c0,0,0,0,0-0.1c0,0,0,0,0-0.1s0,0,0,0c0,0,0,0-0.1,0c0,0-0.1,0-0.1,0c0,0-0.1,0-0.1,0
		c0,0,0,0-0.1,0s0,0,0,0c0,0,0,0,0,0c0,0,0,0,0,0s0,0,0,0c0,0,0,0,0,0c0,0,0,0,0,0c0,0,0,0,0,0c0,0,0,0,0,0c0,0,0,0,0,0.1s0,0,0,0
		c0,0,0,0,0,0c0,0,0,0,0,0.1c0,0,0,0,0,0.1s0,0,0,0.1s0,0,0.1,0c0,0,0,0,0.1,0c0,0,0,0,0,0c0,0,0,0,0,0L0.2,0.3
		C0.2,0.3,0.2,0.3,0.2,0.3C0.2,0.3,0.2,0.3,0.2,0.3 M0.1,0.2C0.1,0.2,0.1,0.2,0.1,0.2C0,0.3,0,0.3,0.1,0.2C0,0.3,0,0.3-0.1,0.3
		c0,0,0,0,0,0c0,0,0,0,0,0c0,0,0,0,0,0c0,0,0-0.1,0-0.1C-0.1,0.1,0,0.1,0.1,0.2C0,0.1,0,0.1,0.1,0.2C0,0.1,0.1,0.1,0.1,0.2
		C0.1,0.1,0.1,0.1,0.1,0.2C0.1,0.1,0.1,0.2,0.1,0.2 M0.1-0.2C0.1-0.2,0.1-0.1,0.1-0.2C0.1-0.1,0.1-0.1,0.1-0.2l-0.2,0.1c0,0,0,0,0,0
		c0,0,0,0,0,0c0,0,0,0,0,0c0,0,0,0,0,0c0,0,0,0,0,0c0,0,0.1,0,0.1,0C0-0.3,0-0.3,0.1-0.2C0.1-0.3,0.1-0.2,0.1-0.2
		C0.1-0.2,0.1-0.2,0.1-0.2C0.1-0.2,0.1-0.2,0.1-0.2z"/>
</symbol>
<symbol  id="font_3_15a" viewBox="-0.2 -0.3 0.4 0.7">
	<path d="M0.2-0.3C0.2-0.3,0.2-0.3,0.2-0.3C0.2-0.3,0.2-0.3,0.2-0.3C0.2-0.3,0.2-0.3,0.2-0.3C0.2-0.3,0.2-0.3,0.2-0.3
		C0.1-0.3,0.1-0.3,0.2-0.3C0.1-0.3,0.1-0.3,0.2-0.3C0.1-0.3,0.1-0.3,0.2-0.3C0.1-0.3,0.1-0.3,0.2-0.3L0.1-0.1c0,0,0,0,0,0.1s0,0,0,0
		s0,0,0,0c0,0,0,0,0,0c0,0,0,0-0.1,0s0,0-0.1-0.1v-0.3c0,0,0,0,0,0c0,0,0,0,0,0s0,0,0,0c0,0,0,0,0,0c0,0,0,0,0,0s0,0,0,0
		c0,0,0,0,0,0c0,0,0,0,0,0v0.7c0,0,0,0,0,0c0,0,0,0,0,0c0,0,0,0,0,0s0,0,0,0c0,0,0,0,0,0c0,0,0,0,0,0s0,0,0,0s0,0,0,0V0.1
		c0,0,0,0,0.1,0.1c0,0,0,0,0.1,0c0,0,0.1,0,0.1,0c0,0,0,0,0,0s0,0,0-0.1c0,0,0,0,0-0.1V-0.3z"/>
</symbol>
<symbol  id="font_3_15d" viewBox="0 -0.3 0.1 0.7">
	<path d="M0-0.3C0-0.3,0-0.3,0-0.3C0-0.3,0-0.3,0-0.3C0-0.3,0-0.3,0-0.3C0-0.3,0-0.3,0-0.3C0-0.3,0-0.3,0-0.3C0-0.3,0-0.3,0-0.3
		C0-0.3,0-0.3,0-0.3C0-0.3,0-0.3,0-0.3L0,0.1c0,0,0,0,0,0c0,0,0,0,0,0c0,0,0,0,0,0s0,0,0,0c0,0,0,0,0,0s0,0,0,0s0,0,0,0s0,0,0,0
		V-0.3 M0,0.3C0,0.3,0,0.2,0,0.3C0,0.2,0,0.2,0,0.3C0,0.2,0,0.2,0,0.3C0,0.2,0,0.3,0,0.3C0,0.3,0,0.3,0,0.3C0,0.3,0,0.3,0,0.3
		C0,0.3,0,0.3,0,0.3C0,0.3,0,0.3,0,0.3z"/>
</symbol>
<symbol  id="font_3_169" viewBox="-0.1 -0.4 0.2 0.8">
	<path d="M0.1-0.2C0.1-0.3,0.1-0.3,0.1-0.2c0-0.1,0-0.1,0-0.1s0,0,0,0c0,0,0,0-0.1,0c0,0,0,0,0,0c0,0,0,0,0,0s0,0,0,0c0,0,0,0,0,0
		c0,0,0,0,0,0c0,0,0,0,0,0c0,0,0,0,0,0c0,0,0,0,0,0c0,0,0,0,0,0c0,0,0,0,0,0c0,0,0,0,0,0c0,0,0,0,0,0c0,0,0,0,0,0
		C0-0.3,0-0.3,0.1-0.2C0-0.3,0-0.3,0.1-0.2C0-0.3,0-0.3,0.1-0.2L0,0.2c0,0,0,0,0,0s0,0,0,0c0,0,0,0,0,0c0,0,0,0,0,0s0,0,0,0s0,0,0,0
		c0,0,0,0,0,0s0,0,0,0V-0.2 M0.1,0.4C0.1,0.3,0.1,0.3,0.1,0.4C0.1,0.3,0.1,0.3,0.1,0.4C0,0.3,0,0.3,0.1,0.4C0,0.3,0,0.3,0.1,0.4
		C0,0.4,0,0.4,0.1,0.4C0,0.4,0,0.4,0.1,0.4C0.1,0.4,0.1,0.4,0.1,0.4C0.1,0.4,0.1,0.4,0.1,0.4z"/>
</symbol>
<symbol  id="font_3_16c" viewBox="-0.2 -0.3 0.4 0.7">
	<path d="M0.2-0.3C0.2-0.3,0.2-0.3,0.2-0.3C0.2-0.3,0.2-0.3,0.2-0.3C0.2-0.3,0.2-0.3,0.2-0.3C0.2-0.3,0.1-0.3,0.2-0.3
		C0.1-0.3,0.1-0.3,0.2-0.3C0.1-0.3,0.1-0.3,0.2-0.3C0.1-0.3,0.1-0.3,0.2-0.3C0.1-0.3,0.1-0.3,0.2-0.3l-0.3,0.2v-0.2c0,0,0,0,0,0
		c0,0,0,0,0,0s0,0,0,0c0,0,0,0,0,0c0,0,0,0,0,0s0,0,0,0c0,0,0,0,0,0c0,0,0,0,0,0v0.7c0,0,0,0,0,0c0,0,0,0,0,0c0,0,0,0,0,0s0,0,0,0
		c0,0,0,0,0,0c0,0,0,0,0,0s0,0,0,0s0,0,0,0v-0.4l0.2,0.2c0,0,0,0,0,0c0,0,0,0,0,0c0,0,0,0,0,0c0,0,0,0,0,0c0,0,0,0,0,0c0,0,0,0,0,0
		c0,0,0,0,0,0c0,0,0,0,0,0c0,0,0,0,0,0c0,0,0,0,0,0L0-0.1L0.2-0.3C0.2-0.3,0.2-0.3,0.2-0.3C0.2-0.3,0.2-0.3,0.2-0.3z"/>
</symbol>
<symbol  id="font_3_16f" viewBox="0 -0.3 0.1 0.7">
	<path d="M0-0.3C0-0.3,0-0.3,0-0.3C0-0.3,0-0.3,0-0.3C0-0.3,0-0.3,0-0.3C0-0.3,0-0.3,0-0.3C0-0.3,0-0.3,0-0.3C0-0.3,0-0.3,0-0.3
		C0-0.3,0-0.3,0-0.3C0-0.3,0-0.3,0-0.3L0,0.3c0,0,0,0,0,0c0,0,0,0,0,0c0,0,0,0,0,0s0,0,0,0c0,0,0,0,0,0s0,0,0,0s0,0,0,0s0,0,0,0
		V-0.3z"/>
</symbol>
<symbol  id="font_3_173" viewBox="-0.1 -0.3 0.2 0.7">
	<path d="M0.1,0.1C0.1,0.1,0.1,0.1,0.1,0.1C0.1,0.1,0.1,0.1,0.1,0.1C0.1,0.1,0.1,0.1,0.1,0.1C0.1,0.1,0.1,0.1,0.1,0.1L0.1,0.1L0-0.3
		c0,0,0,0,0,0c0,0,0,0,0,0s0,0,0,0c0,0,0,0,0,0c0,0,0,0,0,0s0,0,0,0s0,0,0,0c0,0,0,0,0,0V0l-0.1,0c0,0,0,0,0,0c0,0,0,0,0,0
		c0,0,0,0,0,0s0,0,0,0c0,0,0,0,0,0c0,0,0,0,0,0l0.1,0v0.3c0,0,0,0,0,0s0,0,0,0s0,0,0,0s0,0,0,0c0,0,0,0,0,0c0,0,0,0,0,0s0,0,0,0
		s0,0,0,0L0.1,0.1L0.1,0.1C0.1,0.2,0.1,0.2,0.1,0.1C0.1,0.2,0.1,0.1,0.1,0.1z"/>
</symbol>
<symbol  id="font_3_175" viewBox="-0.3 -0.2 0.7 0.5">
	<path d="M0.3-0.2C0.3-0.2,0.3-0.2,0.3-0.2C0.3-0.2,0.3-0.2,0.3-0.2C0.3-0.2,0.3-0.2,0.3-0.2C0.3-0.2,0.3-0.2,0.3-0.2
		C0.3-0.2,0.3-0.2,0.3-0.2C0.3-0.2,0.3-0.2,0.3-0.2C0.3-0.2,0.2-0.2,0.3-0.2C0.2-0.2,0.2-0.2,0.3-0.2L0.2,0c0,0,0,0,0,0.1s0,0,0,0
		s0,0,0,0s0,0,0,0c0,0,0,0-0.1,0c0,0,0,0-0.1-0.1v-0.3c0,0,0,0,0,0c0,0,0,0,0,0c0,0,0,0,0,0s0,0,0,0c0,0,0,0,0,0c0,0,0,0,0,0
		c0,0,0,0,0,0c0,0,0,0,0,0V0c0,0,0,0,0,0.1s0,0,0,0s0,0,0,0c0,0,0,0,0,0c0,0,0,0-0.1,0s0,0-0.1-0.1v-0.3c0,0,0,0,0,0c0,0,0,0,0,0
		s0,0,0,0s0,0,0,0c0,0,0,0,0,0s0,0,0,0c0,0,0,0,0,0c0,0,0,0,0,0v0.4c0,0,0,0,0,0c0,0,0,0,0,0c0,0,0,0,0,0c0,0,0,0,0,0c0,0,0,0,0,0
		c0,0,0,0,0,0c0,0,0,0,0,0c0,0,0,0,0,0V0.2c0,0,0,0,0.1,0.1c0,0,0,0,0.1,0c0,0,0,0,0,0c0,0,0,0,0,0c0,0,0,0,0,0c0,0,0,0,0,0
		c0,0,0,0,0,0c0,0,0,0,0,0c0,0,0,0,0,0c0,0,0,0,0,0c0,0,0.1,0,0.1,0c0,0,0,0,0,0c0,0,0,0,0-0.1c0,0,0,0,0-0.1V-0.2z"/>
</symbol>
<symbol  id="font_3_176" viewBox="-0.2 -0.2 0.4 0.5">
	<path d="M0.2-0.2C0.2-0.2,0.2-0.2,0.2-0.2C0.2-0.2,0.2-0.2,0.2-0.2C0.2-0.2,0.2-0.2,0.2-0.2C0.2-0.2,0.2-0.2,0.2-0.2
		C0.1-0.2,0.1-0.2,0.2-0.2C0.1-0.2,0.1-0.2,0.2-0.2C0.1-0.2,0.1-0.2,0.2-0.2C0.1-0.2,0.1-0.2,0.2-0.2L0.1,0c0,0,0,0,0,0.1s0,0,0,0
		s0,0,0,0c0,0,0,0,0,0c0,0,0,0-0.1,0s0,0-0.1-0.1v-0.3c0,0,0,0,0,0c0,0,0,0,0,0s0,0,0,0c0,0,0,0,0,0c0,0,0,0,0,0s0,0,0,0
		c0,0,0,0,0,0c0,0,0,0,0,0v0.4c0,0,0,0,0,0c0,0,0,0,0,0c0,0,0,0,0,0c0,0,0,0,0,0c0,0,0,0,0,0c0,0,0,0,0,0c0,0,0,0,0,0c0,0,0,0,0,0
		V0.2c0,0,0,0,0.1,0.1c0,0,0,0,0.1,0c0,0,0.1,0,0.1,0c0,0,0,0,0,0s0,0,0-0.1c0,0,0,0,0-0.1V-0.2z"/>
</symbol>
<symbol  id="font_3_17d" viewBox="-0.2 -0.2 0.4 0.5">
	<path d="M0.2,0C0.2,0,0.2-0.1,0.2,0c0-0.1,0-0.2-0.1-0.2c0,0,0,0-0.1-0.1c0,0-0.1,0-0.1,0c0,0-0.1,0-0.1,0c0,0,0,0-0.1,0s0,0,0,0.1
		s0,0.1,0,0.1c0,0,0,0.1,0,0.1c0,0,0,0.1,0,0.1c0,0,0,0,0.1,0.1s0.1,0,0.1,0c0,0,0.1,0,0.1,0c0,0,0,0,0.1,0S0.2,0.1,0.2,0
		C0.2,0.1,0.2,0,0.2,0 M0.1,0C0.1,0,0.1,0,0.1,0c0,0.1,0,0.1,0,0.1s0,0,0,0c0,0,0,0-0.1,0c0,0,0,0-0.1,0c0,0,0,0,0,0c0,0,0,0,0-0.1
		c0,0,0,0,0-0.1c0,0,0,0,0-0.1c0,0,0,0,0-0.1c0,0,0,0,0,0c0,0,0,0,0.1,0c0,0,0,0,0.1,0s0,0,0,0S0.1-0.1,0.1,0C0.1,0,0.1,0,0.1,0z"/>
</symbol>
<symbol  id="font_3_17f" viewBox="-0.2 -0.3 0.4 0.7">
	<path d="M0.2-0.1C0.2-0.1,0.2-0.2,0.2-0.1c0-0.1,0-0.2-0.1-0.2c0,0,0,0-0.1-0.1c0,0-0.1,0-0.1,0c0,0-0.1,0-0.1,0c0,0,0,0-0.1,0
		s0,0,0,0.1s0,0.1,0,0.1c0,0,0,0.1,0,0.1c0,0,0,0.1,0,0.1c0,0,0,0,0.1,0.1s0.1,0,0.1,0c0,0,0.1,0,0.1,0c0,0,0,0,0.1,0S0.2,0,0.2-0.1
		C0.2,0,0.2-0.1,0.2-0.1 M0.1-0.1C0.1-0.1,0.1-0.1,0.1-0.1c0,0.1,0,0.1,0,0.1s0,0,0,0c0,0,0,0-0.1,0c0,0,0,0-0.1,0c0,0,0,0,0,0
		c0,0,0,0,0-0.1c0,0,0,0,0-0.1c0,0,0,0,0-0.1c0,0,0,0,0-0.1c0,0,0,0,0,0c0,0,0,0,0.1,0c0,0,0,0,0.1,0s0,0,0,0S0.1-0.2,0.1-0.1
		C0.1-0.2,0.1-0.1,0.1-0.1 M0,0.3C0,0.3,0,0.3,0,0.3C0,0.3,0.1,0.3,0,0.3C0.1,0.3,0.1,0.3,0,0.3C0.1,0.3,0.1,0.3,0,0.3
		C0.1,0.3,0.1,0.3,0,0.3C0.1,0.3,0.1,0.3,0,0.3C0.1,0.3,0.1,0.3,0,0.3C0.1,0.3,0.1,0.3,0,0.3l0-0.1c0,0,0,0,0,0c0,0,0,0,0,0
		c0,0,0,0,0,0c0,0,0,0,0,0c0,0,0,0,0,0s0,0,0,0c0,0,0,0,0,0c0,0,0,0,0,0L0,0.3 M-0.1,0.1L-0.1,0.1z"/>
</symbol>
<symbol  id="font_3_189" viewBox="-0.2 -0.3 0.4 0.7">
	<path d="M0.2,0.1c0,0,0-0.1,0-0.1c0,0,0-0.1,0-0.1c0,0,0,0-0.1,0c0,0-0.1,0-0.1,0c0,0,0,0,0,0s0,0,0,0c0,0,0,0,0,0s0,0,0,0v-0.2
		c0,0,0,0,0,0s0,0,0,0s0,0,0,0c0,0,0,0,0,0c0,0,0,0,0,0s0,0,0,0c0,0,0,0,0,0c0,0,0,0,0,0v0.6c0,0,0,0,0,0c0,0,0,0,0,0s0,0,0,0
		c0,0,0,0,0,0c0,0,0,0,0,0c0,0,0,0,0,0s0,0,0,0c0,0,0,0,0,0V0.2c0,0,0,0,0,0s0,0,0,0c0,0,0,0,0,0c0,0,0,0,0,0c0,0,0.1,0,0.1,0
		s0,0,0.1-0.1C0.2,0.2,0.2,0.2,0.2,0.1C0.2,0.2,0.2,0.1,0.2,0.1 M0.1,0.1C0.1,0.1,0.1,0.1,0.1,0.1c0,0.1,0,0.1,0,0.1c0,0,0,0,0,0
		c0,0,0,0-0.1,0c0,0,0,0,0,0c0,0,0,0,0,0c0,0,0,0,0,0c0,0,0,0,0,0V0c0,0,0,0,0.1-0.1c0,0,0,0,0.1,0c0,0,0,0,0.1,0c0,0,0,0,0,0
		C0.1,0,0.1,0,0.1,0.1C0.1,0,0.1,0.1,0.1,0.1z"/>
</symbol>
<symbol  id="font_3_18c" viewBox="-0.1 -0.2 0.3 0.5">
	<path d="M0.1,0.2C0.1,0.2,0.1,0.2,0.1,0.2C0.1,0.2,0.1,0.2,0.1,0.2C0.1,0.2,0.1,0.2,0.1,0.2C0.1,0.2,0.1,0.1,0.1,0.2
		C0.1,0.1,0.1,0.2,0.1,0.2C0.1,0.2,0.1,0.2,0.1,0.2C0.1,0.2,0.1,0.2,0.1,0.2C0.1,0.2,0.1,0.2,0.1,0.2C0.1,0.2,0,0.2,0.1,0.2
		C0,0.2,0,0.1,0,0.1c0,0,0,0,0,0s0,0,0,0v-0.3c0,0,0,0,0,0c0,0,0,0,0,0s0,0,0,0c0,0,0,0,0,0c0,0,0,0,0,0s0,0,0,0c0,0,0,0,0,0
		c0,0,0,0,0,0v0.4c0,0,0,0,0,0c0,0,0,0,0,0c0,0,0,0,0,0c0,0,0,0,0,0c0,0,0,0,0,0c0,0,0,0,0,0c0,0,0,0,0,0c0,0,0,0,0,0V0.2
		c0,0,0,0,0,0c0,0,0,0,0,0C0,0.2,0,0.2,0.1,0.2C0,0.2,0.1,0.2,0.1,0.2C0.1,0.2,0.1,0.2,0.1,0.2C0.1,0.2,0.1,0.2,0.1,0.2
		C0.1,0.2,0.1,0.2,0.1,0.2C0.1,0.2,0.1,0.2,0.1,0.2C0.1,0.2,0.1,0.2,0.1,0.2C0.1,0.2,0.1,0.2,0.1,0.2C0.1,0.2,0.1,0.2,0.1,0.2
		C0.1,0.2,0.1,0.2,0.1,0.2z"/>
</symbol>
<symbol  id="font_3_190" viewBox="-0.2 -0.2 0.3 0.5">
	<path d="M0.2-0.1C0.2-0.1,0.2-0.1,0.2-0.1c0-0.1,0-0.1,0-0.1s0,0-0.1,0s0,0-0.1,0c0,0,0,0,0,0c0,0,0,0,0,0c0,0,0,0,0,0c0,0,0,0,0,0
		s0,0,0,0s0,0,0,0c0,0,0,0,0,0s0,0,0,0s0,0,0,0c0,0,0,0,0,0c0,0,0,0,0,0c0,0,0,0,0,0c0,0,0,0,0,0c0,0,0,0,0,0c0,0,0,0,0,0s0,0,0,0
		C0.1-0.2,0.1-0.1,0.2-0.1C0.1-0.1,0.1-0.1,0.2-0.1C0.1-0.1,0.1-0.1,0.2-0.1c-0.1,0-0.1,0-0.1,0s0,0,0,0c0,0,0,0,0,0c0,0,0,0,0,0
		c0,0,0,0,0,0s0,0,0,0c0,0,0,0,0,0.1c0,0,0,0,0,0c0,0,0,0,0,0c0,0,0,0,0,0c0,0,0,0,0.1,0c0,0,0,0,0,0s0,0,0,0s0,0,0,0c0,0,0,0,0,0
		c0,0,0,0,0,0c0,0,0,0,0,0c0,0,0,0,0,0c0,0,0,0,0,0c0,0,0,0,0,0c0,0,0,0,0,0c0,0,0,0,0,0c0,0,0,0,0,0c0,0,0,0,0,0s0,0,0,0
		c0,0,0,0,0,0c0,0,0,0,0,0c0,0,0,0,0,0c0,0,0,0,0,0c0,0,0,0,0,0c0,0,0,0,0,0c0,0,0,0,0,0c0,0,0,0,0,0s0,0,0,0s0,0,0,0c0,0,0,0,0,0
		C0.1,0,0.1,0,0.2-0.1C0.1,0,0.1,0,0.2-0.1C0.2-0.1,0.2-0.1,0.2-0.1z"/>
</symbol>
<symbol  id="font_3_191" viewBox="-0.2 -0.3 0.3 0.7">
	<path d="M0.2-0.2C0.2-0.2,0.2-0.2,0.2-0.2c0-0.1,0-0.1,0-0.1s0,0-0.1,0s0,0-0.1,0c0,0,0,0,0,0c0,0,0,0,0,0c0,0,0,0,0,0c0,0,0,0,0,0
		s0,0,0,0s0,0,0,0c0,0,0,0,0,0s0,0,0,0s0,0,0,0c0,0,0,0,0,0c0,0,0,0,0,0c0,0,0,0,0,0c0,0,0,0,0,0c0,0,0,0,0,0c0,0,0,0,0,0s0,0,0,0
		C0.1-0.3,0.1-0.3,0.2-0.2C0.1-0.2,0.1-0.2,0.2-0.2C0.1-0.2,0.1-0.2,0.2-0.2c-0.1,0-0.1,0-0.1,0s0,0,0,0c0,0,0,0,0,0c0,0,0,0,0,0
		c0,0,0,0,0,0s0,0,0,0c0,0,0,0,0,0.1c0,0,0,0,0,0c0,0,0,0,0,0c0,0,0,0,0,0c0,0,0,0,0.1,0c0,0,0,0,0,0s0,0,0,0s0,0,0,0c0,0,0,0,0,0
		c0,0,0,0,0,0c0,0,0,0,0,0c0,0,0,0,0,0c0,0,0,0,0,0c0,0,0,0,0,0c0,0,0,0,0,0c0,0,0,0,0,0c0,0,0,0,0,0c0,0,0,0,0,0s0,0,0,0
		c0,0,0,0,0,0c0,0,0,0,0,0c0,0,0,0,0,0c0,0,0,0,0,0c0,0,0,0,0,0c0,0,0,0,0,0c0,0,0,0,0,0c0,0,0,0,0,0s0,0,0,0s0,0,0,0c0,0,0,0,0,0
		C0.1-0.1,0.1-0.1,0.2-0.2C0.1-0.1,0.1-0.1,0.2-0.2C0.2-0.2,0.2-0.2,0.2-0.2 M0,0.3C0,0.3,0,0.3,0,0.3C0.1,0.3,0.1,0.3,0,0.3
		C0.1,0.3,0.1,0.3,0,0.3C0.1,0.3,0.1,0.3,0,0.3C0.1,0.3,0.1,0.3,0,0.3C0.1,0.3,0.1,0.3,0,0.3C0.1,0.3,0.1,0.3,0,0.3
		C0.1,0.3,0.1,0.3,0,0.3l0-0.1c0,0,0,0,0,0c0,0,0,0,0,0c0,0,0,0,0,0c0,0,0,0,0,0c0,0,0,0,0,0s0,0,0,0c0,0,0,0,0,0c0,0,0,0,0,0L0,0.3
		 M-0.1,0.1L-0.1,0.1z"/>
</symbol>
<symbol  id="font_3_19a" viewBox="-0.1 -0.3 0.3 0.6">
	<path d="M0.1-0.2C0.1-0.3,0.1-0.3,0.1-0.2C0.1-0.3,0.1-0.3,0.1-0.2C0.1-0.3,0.1-0.3,0.1-0.2C0.1-0.3,0.1-0.3,0.1-0.2
		C0.1-0.3,0.1-0.3,0.1-0.2C0.1-0.3,0.1-0.3,0.1-0.2C0-0.3,0-0.3,0-0.3c0,0,0,0,0,0c0,0,0,0,0,0c0,0,0,0,0,0.1v0.3h-0.1c0,0,0,0,0,0
		s0,0,0,0c0,0,0,0,0,0c0,0,0,0,0,0c0,0,0,0,0,0c0,0,0,0,0,0h0.1v0.1c0,0,0,0,0,0c0,0,0,0,0,0c0,0,0,0,0,0s0,0,0,0c0,0,0,0,0,0
		s0,0,0,0c0,0,0,0,0,0s0,0,0,0V0.2h0.1c0,0,0,0,0,0c0,0,0,0,0,0c0,0,0,0,0,0s0,0,0,0c0,0,0,0,0,0s0,0,0,0H0v-0.2c0,0,0-0.1,0-0.1
		C0-0.2,0.1-0.2,0.1-0.2C0.1-0.2,0.1-0.2,0.1-0.2C0.1-0.2,0.1-0.2,0.1-0.2C0.1-0.2,0.1-0.2,0.1-0.2C0.1-0.2,0.1-0.2,0.1-0.2
		C0.1-0.2,0.1-0.2,0.1-0.2C0.1-0.2,0.1-0.2,0.1-0.2C0.1-0.2,0.1-0.2,0.1-0.2C0.1-0.2,0.1-0.2,0.1-0.2z"/>
</symbol>
<symbol  id="font_3_1b5" viewBox="-0.2 -0.2 0.4 0.5">
	<path d="M0.2-0.2C0.2-0.2,0.2-0.2,0.2-0.2C0.2-0.2,0.2-0.2,0.2-0.2C0.2-0.2,0.2-0.2,0.2-0.2C0.2-0.2,0.2-0.2,0.2-0.2
		C0.1-0.2,0.1-0.2,0.2-0.2C0.1-0.2,0.1-0.2,0.2-0.2C0.1-0.2,0.1-0.2,0.2-0.2C0.1-0.2,0.1-0.2,0.2-0.2L0.2-0.2c-0.1,0-0.1,0-0.1,0
		s0,0-0.1,0c0,0-0.1,0-0.1,0c0,0,0,0,0,0c0,0,0,0,0,0.1c0,0,0,0,0,0.1v0.3c0,0,0,0,0,0c0,0,0,0,0,0c0,0,0,0,0,0c0,0,0,0,0,0s0,0,0,0
		c0,0,0,0,0,0c0,0,0,0,0,0c0,0,0,0,0,0V0c0,0,0,0,0-0.1c0,0,0,0,0,0c0,0,0,0,0,0c0,0,0,0,0,0c0,0,0,0,0.1,0c0,0,0,0,0.1,0.1v0.3
		c0,0,0,0,0,0c0,0,0,0,0,0c0,0,0,0,0,0c0,0,0,0,0,0c0,0,0,0,0,0c0,0,0,0,0,0c0,0,0,0,0,0c0,0,0,0,0,0V-0.2z"/>
</symbol>
<symbol  id="font_3_1c1" viewBox="-0.3 -0.2 0.7 0.5">
	<path d="M0.3,0.2C0.3,0.2,0.3,0.2,0.3,0.2C0.3,0.2,0.3,0.2,0.3,0.2L0.2-0.2c0,0,0,0,0,0c0,0,0,0,0,0c0,0,0,0,0,0c0,0,0,0,0,0
		c0,0,0,0,0,0s0,0,0,0c0,0,0,0,0,0s0,0,0,0L0,0.1l0,0l0,0l-0.1-0.3c0,0,0,0,0,0c0,0,0,0,0,0s0,0,0,0c0,0,0,0,0,0c0,0,0,0,0,0
		c0,0,0,0,0,0c0,0,0,0,0,0s0,0,0,0l-0.1,0.4c0,0,0,0,0,0s0,0,0,0c0,0,0,0,0,0c0,0,0,0,0,0c0,0,0,0,0,0s0,0,0,0c0,0,0,0,0,0
		c0,0,0,0,0,0c0,0,0,0,0,0c0,0,0,0,0,0l0.1-0.4l0,0l0,0L0,0.2c0,0,0,0,0,0c0,0,0,0,0,0c0,0,0,0,0,0c0,0,0,0,0,0c0,0,0,0,0,0
		c0,0,0,0,0,0c0,0,0,0,0,0s0,0,0,0l0.1-0.4l0,0l0,0L0.3,0.2C0.3,0.2,0.3,0.2,0.3,0.2C0.3,0.2,0.3,0.2,0.3,0.2
		C0.3,0.2,0.3,0.2,0.3,0.2C0.3,0.2,0.3,0.2,0.3,0.2C0.3,0.2,0.3,0.2,0.3,0.2C0.3,0.2,0.3,0.2,0.3,0.2C0.3,0.2,0.3,0.2,0.3,0.2
		C0.3,0.2,0.3,0.2,0.3,0.2z"/>
</symbol>
<symbol  id="font_3_1c7" viewBox="-0.2 -0.3 0.4 0.6">
	<path d="M0-0.1L0-0.3c0,0,0,0,0,0c0,0,0,0,0,0c0,0,0,0,0,0c0,0,0,0,0,0c0,0,0,0,0,0s0,0,0,0L0-0.1C0-0.1,0-0.1,0-0.1
		C0-0.1,0-0.1,0-0.1l-0.3,0.4c0,0,0,0,0,0s0,0,0,0s0,0,0,0c0,0,0,0,0,0s0,0,0,0c0,0,0,0,0,0s0,0,0,0c0,0,0,0,0,0L0-0.1L0-0.1
		l0.1,0.4c0,0,0,0,0,0c0,0,0,0,0,0c0,0,0,0,0,0c0,0,0,0,0,0c0,0,0,0,0,0c0,0,0,0,0,0s0,0,0,0L0-0.1z"/>
</symbol>
<symbol  id="font_3_1cc" viewBox="-0.2 -0.2 0.3 0.5">
	<path d="M0.2-0.2C0.2-0.2,0.2-0.2,0.2-0.2C0.2-0.2,0.2-0.2,0.2-0.2C0.1-0.2,0.1-0.2,0.2-0.2C0.1-0.2,0.1-0.2,0.2-0.2l-0.3,0
		c0,0,0,0,0,0c0,0,0,0,0,0v0c0,0,0,0,0,0s0,0,0,0s0,0,0,0c0,0,0,0,0,0l0.2,0.3h-0.2c0,0,0,0,0,0c0,0,0,0,0,0c0,0,0,0,0,0
		c0,0,0,0,0,0c0,0,0,0,0,0c0,0,0,0,0,0h0.3c0,0,0,0,0,0c0,0,0,0,0,0s0,0,0,0c0,0,0,0,0,0v0c0,0,0,0,0,0s0,0,0,0c0,0,0,0,0,0s0,0,0,0
		l-0.2-0.3L0.2-0.2C0.1-0.2,0.1-0.2,0.2-0.2C0.1-0.2,0.1-0.2,0.2-0.2C0.2-0.2,0.2-0.2,0.2-0.2C0.2-0.2,0.2-0.2,0.2-0.2z"/>
</symbol>
<symbol  id="font_3_3" viewBox="0 0 0 0">
	<path d="M0,0"/>
</symbol>
<symbol  id="font_3_355" viewBox="-0.1 -0.1 0.2 0.3">
	<path d="M0.1,0.1C0.1,0.1,0.1,0.1,0.1,0.1C0.1,0,0.1,0,0.1,0.1C0.1,0,0.1,0,0.1,0.1C0.1,0,0.1,0,0.1,0.1L0-0.1c0,0,0,0,0,0
		c0,0,0,0,0,0c0,0,0,0,0,0c0,0,0,0,0,0c0,0,0,0,0,0c0,0,0,0,0,0c0,0,0,0,0,0c0,0,0,0,0,0L0.1,0.1L0.1,0.1C0,0.1,0,0.1,0.1,0.1
		C0,0.1,0,0.1,0.1,0.1C0,0.1,0,0.1,0.1,0.1C0,0.1,0,0.1,0.1,0.1C0,0.1,0,0.1,0.1,0.1C0.1,0.1,0.1,0.1,0.1,0.1
		C0.1,0.1,0.1,0.1,0.1,0.1C0.1,0.1,0.1,0.1,0.1,0.1z"/>
</symbol>
<symbol  id="font_3_358" viewBox="-0.1 -0.1 0.1 0.1">
	<path d="M0.1,0C0.1,0,0,0,0.1,0C0-0.1,0-0.1,0.1,0C0-0.1,0-0.1,0.1,0C0,0-0.1,0-0.1,0C-0.1,0,0,0,0.1,0C0,0.1,0,0.1,0.1,0
		C0,0.1,0,0.1,0.1,0C0,0,0.1,0,0.1,0z"/>
</symbol>
<symbol  id="font_3_57" viewBox="-0.2 -0.3 0.4 0.6">
	<path d="M0.2,0.1C0.2,0.1,0.2,0.1,0.2,0.1C0.2,0,0.2,0,0.1,0c0,0,0,0-0.1,0c0,0-0.1,0-0.1,0h-0.1v-0.2c0,0,0,0,0,0c0,0,0,0,0,0
		c0,0,0,0,0,0c0,0,0,0,0,0s0,0,0,0c0,0,0,0,0,0c0,0,0,0,0,0s0,0,0,0v0.6c0,0,0,0,0,0s0,0,0,0H0c0,0,0,0,0,0c0,0,0,0,0,0
		c0,0,0,0,0.1,0c0,0,0,0,0,0S0.2,0.2,0.2,0.1C0.2,0.2,0.2,0.2,0.2,0.1 M0.1,0.1C0.1,0.2,0.1,0.2,0.1,0.1c0,0.1,0,0.1-0.1,0.1
		c0,0,0,0,0,0c0,0,0,0,0,0h-0.1V0H0C0,0,0,0,0,0C0,0,0.1,0,0.1,0.1C0.1,0,0.1,0.1,0.1,0.1C0.1,0.1,0.1,0.1,0.1,0.1z"/>
</symbol>
<g>
	<g id="Layer-1">
		<g>
			<defs>
				<rect id="SVGID_1_" x="0" y="0" width="595.3" height="841.9"/>
			</defs>
			<clipPath id="SVGID_2_">
				<use xlink:href="#SVGID_1_"  style="overflow:visible;"/>
			</clipPath>
			<g class="st0">
				
					<use xlink:href="#font_1_3ef"  width="0.4" height="0.7" x="-0.2" y="-0.3" transform="matrix(10.98 0 0 -10.98 38.7262 43.0312)" style="overflow:visible;"/>
				
					<use xlink:href="#font_1_358"  width="0.1" height="0.1" x="-0.1" y="-0.1" transform="matrix(10.98 0 0 -10.98 42.9528 45.9236)" style="overflow:visible;"/>
				<use xlink:href="#font_1_3"  transform="matrix(10.98 0 0 -10.98 44.3338 46.5)" style="overflow:visible;"/>
			</g>
		</g>
		<g>
			<defs>
				<rect id="SVGID_3_" x="0" y="0" width="595.3" height="841.9"/>
			</defs>
			<clipPath id="SVGID_4_">
				<use xlink:href="#SVGID_3_"  style="overflow:visible;"/>
			</clipPath>
			<g class="st1">
				
					<use xlink:href="#font_3_57"  width="0.4" height="0.6" x="-0.2" y="-0.3" transform="matrix(10.98 0 0 -10.98 51.7133 43.0473)" style="overflow:visible;"/>
				
					<use xlink:href="#font_3_17d"  width="0.4" height="0.5" x="-0.2" y="-0.2" transform="matrix(10.98 0 0 -10.98 57.2318 43.9507)" style="overflow:visible;"/>
				
					<use xlink:href="#font_3_176"  width="0.4" height="0.5" x="-0.2" y="-0.2" transform="matrix(10.98 0 0 -10.98 63.0648 43.9158)" style="overflow:visible;"/>
				
					<use xlink:href="#font_3_1b5"  width="0.4" height="0.5" x="-0.2" y="-0.2" transform="matrix(10.98 0 0 -10.98 68.8052 43.9882)" style="overflow:visible;"/>
				
					<use xlink:href="#font_3_175"  width="0.7" height="0.5" x="-0.3" y="-0.2" transform="matrix(10.98 0 0 -10.98 76.095 43.9158)" style="overflow:visible;"/>
				
					<use xlink:href="#font_3_11e"  width="0.4" height="0.5" x="-0.2" y="-0.2" transform="matrix(10.98 0 0 -10.98 83.1873 43.9507)" style="overflow:visible;"/>
				
					<use xlink:href="#font_3_18c"  width="0.3" height="0.5" x="-0.1" y="-0.2" transform="matrix(10.98 0 0 -10.98 88.1674 43.9158)" style="overflow:visible;"/>
				
					<use xlink:href="#font_3_1b5"  width="0.4" height="0.5" x="-0.2" y="-0.2" transform="matrix(10.98 0 0 -10.98 92.6428 43.9882)" style="overflow:visible;"/>
				
					<use xlink:href="#font_3_169"  width="0.2" height="0.8" x="-0.1" y="-0.4" transform="matrix(10.98 0 0 -10.98 96.3946 43.9212)" style="overflow:visible;"/>
				<use xlink:href="#font_3_3"  transform="matrix(10.98 0 0 -10.98 98.1798 46.5)" style="overflow:visible;"/>
				
					<use xlink:href="#font_3_102"  width="0.4" height="0.5" x="-0.2" y="-0.2" transform="matrix(10.98 0 0 -10.98 104.9802 43.9507)" style="overflow:visible;"/>
				
					<use xlink:href="#font_3_19a"  width="0.3" height="0.6" x="-0.1" y="-0.3" transform="matrix(10.98 0 0 -10.98 109.5185 43.3368)" style="overflow:visible;"/>
				
					<use xlink:href="#font_3_17d"  width="0.4" height="0.5" x="-0.2" y="-0.2" transform="matrix(10.98 0 0 -10.98 114.3388 43.9507)" style="overflow:visible;"/>
				
					<use xlink:href="#font_3_175"  width="0.7" height="0.5" x="-0.3" y="-0.2" transform="matrix(10.98 0 0 -10.98 121.651 43.9158)" style="overflow:visible;"/>
				
					<use xlink:href="#font_3_1c7"  width="0.4" height="0.6" x="-0.2" y="-0.3" transform="matrix(10.98 0 0 -10.98 128.5074 44.913)" style="overflow:visible;"/>
				<use xlink:href="#font_3_3"  transform="matrix(10.98 0 0 -10.98 130.999 46.5)" style="overflow:visible;"/>
				
					<use xlink:href="#font_3_1c1"  width="0.7" height="0.5" x="-0.3" y="-0.2" transform="matrix(10.98 0 0 -10.98 139.2303 43.9534)" style="overflow:visible;"/>
				
					<use xlink:href="#font_3_127"  width="0.4" height="0.7" x="-0.2" y="-0.3" transform="matrix(10.98 0 0 -10.98 145.8721 44.8782)" style="overflow:visible;"/>
				
					<use xlink:href="#font_3_150"  width="0.4" height="0.7" x="-0.2" y="-0.3" transform="matrix(10.98 0 0 -10.98 151.19 44.8836)" style="overflow:visible;"/>
				
					<use xlink:href="#font_3_16f"  width="0.1" height="0.7" x="0" y="-0.3" transform="matrix(10.98 0 0 -10.98 155.0561 42.7819)" style="overflow:visible;"/>
				
					<use xlink:href="#font_3_102"  width="0.4" height="0.5" x="-0.2" y="-0.2" transform="matrix(10.98 0 0 -10.98 158.8261 43.9507)" style="overflow:visible;"/>
				<use xlink:href="#font_3_3"  transform="matrix(10.98 0 0 -10.98 161.6113 46.5)" style="overflow:visible;"/>
				
					<use xlink:href="#font_3_1c1"  width="0.7" height="0.5" x="-0.3" y="-0.2" transform="matrix(10.98 0 0 -10.98 169.8645 43.9534)" style="overflow:visible;"/>
				<use xlink:href="#font_3_3"  transform="matrix(10.98 0 0 -10.98 173.7881 46.5)" style="overflow:visible;"/>
				
					<use xlink:href="#font_3_189"  width="0.4" height="0.7" x="-0.2" y="-0.3" transform="matrix(10.98 0 0 -10.98 181.1431 44.8755)" style="overflow:visible;"/>
				
					<use xlink:href="#font_3_15d"  width="0.1" height="0.7" x="0" y="-0.3" transform="matrix(10.98 0 0 -10.98 185.1276 42.9588)" style="overflow:visible;"/>
				
					<use xlink:href="#font_3_11e"  width="0.4" height="0.5" x="-0.2" y="-0.2" transform="matrix(10.98 0 0 -10.98 189.1113 43.9507)" style="overflow:visible;"/>
				
					<use xlink:href="#font_3_18c"  width="0.3" height="0.5" x="-0.1" y="-0.2" transform="matrix(10.98 0 0 -10.98 194.0914 43.9158)" style="overflow:visible;"/>
				
					<use xlink:href="#font_3_191"  width="0.3" height="0.7" x="-0.2" y="-0.3" transform="matrix(10.98 0 0 -10.98 197.835 42.7926)" style="overflow:visible;"/>
				
					<use xlink:href="#font_3_110"  width="0.3" height="0.5" x="-0.2" y="-0.2" transform="matrix(10.98 0 0 -10.98 202.3721 43.9534)" style="overflow:visible;"/>
				
					<use xlink:href="#font_3_15d"  width="0.1" height="0.7" x="0" y="-0.3" transform="matrix(10.98 0 0 -10.98 205.8908 42.9588)" style="overflow:visible;"/>
				
					<use xlink:href="#font_3_11e"  width="0.4" height="0.5" x="-0.2" y="-0.2" transform="matrix(10.98 0 0 -10.98 209.8745 43.9507)" style="overflow:visible;"/>
				
					<use xlink:href="#font_3_176"  width="0.4" height="0.5" x="-0.2" y="-0.2" transform="matrix(10.98 0 0 -10.98 215.5551 43.9158)" style="overflow:visible;"/>
				
					<use xlink:href="#font_3_15d"  width="0.1" height="0.7" x="0" y="-0.3" transform="matrix(10.98 0 0 -10.98 219.6817 42.9588)" style="overflow:visible;"/>
				
					<use xlink:href="#font_3_1b5"  width="0.4" height="0.5" x="-0.2" y="-0.2" transform="matrix(10.98 0 0 -10.98 223.8208 43.9882)" style="overflow:visible;"/>
				<use xlink:href="#font_3_3"  transform="matrix(10.98 0 0 -10.98 226.7117 46.5)" style="overflow:visible;"/>
				
					<use xlink:href="#font_3_10f"  width="0.4" height="0.7" x="-0.2" y="-0.3" transform="matrix(10.98 0 0 -10.98 234.0447 42.8168)" style="overflow:visible;"/>
				
					<use xlink:href="#font_3_11e"  width="0.4" height="0.5" x="-0.2" y="-0.2" transform="matrix(10.98 0 0 -10.98 239.4875 43.9507)" style="overflow:visible;"/>
				
					<use xlink:href="#font_3_176"  width="0.4" height="0.5" x="-0.2" y="-0.2" transform="matrix(10.98 0 0 -10.98 245.1681 43.9158)" style="overflow:visible;"/>
				
					<use xlink:href="#font_3_1cc"  width="0.3" height="0.5" x="-0.2" y="-0.2" transform="matrix(10.98 0 0 -10.98 250.2222 43.9507)" style="overflow:visible;"/>
				
					<use xlink:href="#font_3_11e"  width="0.4" height="0.5" x="-0.2" y="-0.2" transform="matrix(10.98 0 0 -10.98 255.0901 43.9507)" style="overflow:visible;"/>
				
					<use xlink:href="#font_3_176"  width="0.4" height="0.5" x="-0.2" y="-0.2" transform="matrix(10.98 0 0 -10.98 260.7377 43.9158)" style="overflow:visible;"/>
				
					<use xlink:href="#font_3_17d"  width="0.4" height="0.5" x="-0.2" y="-0.2" transform="matrix(10.98 0 0 -10.98 266.4995 43.9507)" style="overflow:visible;"/>
				
					<use xlink:href="#font_3_1c1"  width="0.7" height="0.5" x="-0.3" y="-0.2" transform="matrix(10.98 0 0 -10.98 273.362 43.9534)" style="overflow:visible;"/>
				
					<use xlink:href="#font_3_1c7"  width="0.4" height="0.6" x="-0.2" y="-0.3" transform="matrix(10.98 0 0 -10.98 279.7678 44.913)" style="overflow:visible;"/>
				
					<use xlink:href="#font_3_175"  width="0.7" height="0.5" x="-0.3" y="-0.2" transform="matrix(10.98 0 0 -10.98 286.6584 43.9158)" style="overflow:visible;"/>
				
					<use xlink:href="#font_3_355"  width="0.2" height="0.3" x="-0.1" y="-0.1" transform="matrix(10.98 0 0 -10.98 292.1396 46.6769)" style="overflow:visible;"/>
				<use xlink:href="#font_3_3"  transform="matrix(10.98 0 0 -10.98 293.7775 46.5)" style="overflow:visible;"/>
				
					<use xlink:href="#font_3_102"  width="0.4" height="0.5" x="-0.2" y="-0.2" transform="matrix(10.98 0 0 -10.98 300.5779 43.9507)" style="overflow:visible;"/>
				<use xlink:href="#font_3_3"  transform="matrix(10.98 0 0 -10.98 303.363 46.5)" style="overflow:visible;"/>
				
					<use xlink:href="#font_3_176"  width="0.4" height="0.5" x="-0.2" y="-0.2" transform="matrix(10.98 0 0 -10.98 310.5869 43.9158)" style="overflow:visible;"/>
				
					<use xlink:href="#font_3_102"  width="0.4" height="0.5" x="-0.2" y="-0.2" transform="matrix(10.98 0 0 -10.98 315.9279 43.9507)" style="overflow:visible;"/>
				
					<use xlink:href="#font_3_190"  width="0.3" height="0.5" x="-0.2" y="-0.2" transform="matrix(10.98 0 0 -10.98 320.8549 43.9507)" style="overflow:visible;"/>
				
					<use xlink:href="#font_3_19a"  width="0.3" height="0.6" x="-0.1" y="-0.3" transform="matrix(10.98 0 0 -10.98 324.7923 43.3368)" style="overflow:visible;"/>
				
					<use xlink:href="#font_3_127"  width="0.4" height="0.7" x="-0.2" y="-0.3" transform="matrix(10.98 0 0 -10.98 329.4686 44.8782)" style="overflow:visible;"/>
				
					<use xlink:href="#font_3_189"  width="0.4" height="0.7" x="-0.2" y="-0.3" transform="matrix(10.98 0 0 -10.98 335.2583 44.8755)" style="overflow:visible;"/>
				
					<use xlink:href="#font_3_176"  width="0.4" height="0.5" x="-0.2" y="-0.2" transform="matrix(10.98 0 0 -10.98 340.8807 43.9158)" style="overflow:visible;"/>
				
					<use xlink:href="#font_3_15d"  width="0.1" height="0.7" x="0" y="-0.3" transform="matrix(10.98 0 0 -10.98 345.0073 42.9588)" style="overflow:visible;"/>
				
					<use xlink:href="#font_3_11e"  width="0.4" height="0.5" x="-0.2" y="-0.2" transform="matrix(10.98 0 0 -10.98 348.991 43.9507)" style="overflow:visible;"/>
				<use xlink:href="#font_3_3"  transform="matrix(10.98 0 0 -10.98 351.7409 46.5)" style="overflow:visible;"/>
				
					<use xlink:href="#font_3_1b5"  width="0.4" height="0.5" x="-0.2" y="-0.2" transform="matrix(10.98 0 0 -10.98 358.9517 43.9882)" style="overflow:visible;"/>
				
					<use xlink:href="#font_3_1cc"  width="0.3" height="0.5" x="-0.2" y="-0.2" transform="matrix(10.98 0 0 -10.98 364.0299 43.9507)" style="overflow:visible;"/>
				
					<use xlink:href="#font_3_1b5"  width="0.4" height="0.5" x="-0.2" y="-0.2" transform="matrix(10.98 0 0 -10.98 369.0533 43.9882)" style="overflow:visible;"/>
				
					<use xlink:href="#font_3_189"  width="0.4" height="0.7" x="-0.2" y="-0.3" transform="matrix(10.98 0 0 -10.98 375.0059 44.8755)" style="overflow:visible;"/>
				
					<use xlink:href="#font_3_11e"  width="0.4" height="0.5" x="-0.2" y="-0.2" transform="matrix(10.98 0 0 -10.98 380.4487 43.9507)" style="overflow:visible;"/>
				
					<use xlink:href="#font_3_173"  width="0.2" height="0.7" x="-0.1" y="-0.3" transform="matrix(10.98 0 0 -10.98 384.5604 42.7819)" style="overflow:visible;"/>
				
					<use xlink:href="#font_3_176"  width="0.4" height="0.5" x="-0.2" y="-0.2" transform="matrix(10.98 0 0 -10.98 388.8194 43.9158)" style="overflow:visible;"/>
				
					<use xlink:href="#font_3_15d"  width="0.1" height="0.7" x="0" y="-0.3" transform="matrix(10.98 0 0 -10.98 392.946 42.9588)" style="overflow:visible;"/>
				
					<use xlink:href="#font_3_169"  width="0.2" height="0.8" x="-0.1" y="-0.4" transform="matrix(10.98 0 0 -10.98 395.0506 43.9212)" style="overflow:visible;"/>
				<use xlink:href="#font_3_3"  transform="matrix(10.98 0 0 -10.98 396.8357 46.5)" style="overflow:visible;"/>
				
					<use xlink:href="#font_3_10f"  width="0.4" height="0.7" x="-0.2" y="-0.3" transform="matrix(10.98 0 0 -10.98 404.2127 42.8168)" style="overflow:visible;"/>
				
					<use xlink:href="#font_3_18c"  width="0.3" height="0.5" x="-0.1" y="-0.2" transform="matrix(10.98 0 0 -10.98 409.1676 43.9158)" style="overflow:visible;"/>
				
					<use xlink:href="#font_3_102"  width="0.4" height="0.5" x="-0.2" y="-0.2" transform="matrix(10.98 0 0 -10.98 413.2436 43.9507)" style="overflow:visible;"/>
				
					<use xlink:href="#font_3_16c"  width="0.4" height="0.7" x="-0.2" y="-0.3" transform="matrix(10.98 0 0 -10.98 418.8301 42.7819)" style="overflow:visible;"/>
				
					<use xlink:href="#font_3_1b5"  width="0.4" height="0.5" x="-0.2" y="-0.2" transform="matrix(10.98 0 0 -10.98 423.8984 43.9882)" style="overflow:visible;"/>
				
					<use xlink:href="#font_3_169"  width="0.2" height="0.8" x="-0.1" y="-0.4" transform="matrix(10.98 0 0 -10.98 427.6282 43.9212)" style="overflow:visible;"/>
				
					<use xlink:href="#font_3_10c"  width="0.4" height="0.7" x="-0.2" y="-0.3" transform="matrix(10.98 0 0 -10.98 432.0699 44.8782)" style="overflow:visible;"/>
				
					<use xlink:href="#font_3_110"  width="0.3" height="0.5" x="-0.2" y="-0.2" transform="matrix(10.98 0 0 -10.98 437.0915 43.9534)" style="overflow:visible;"/>
				
					<use xlink:href="#font_3_11e"  width="0.4" height="0.5" x="-0.2" y="-0.2" transform="matrix(10.98 0 0 -10.98 442.0905 43.9507)" style="overflow:visible;"/>
				<use xlink:href="#font_3_3"  transform="matrix(10.98 0 0 -10.98 444.8842 46.5)" style="overflow:visible;"/>
				
					<use xlink:href="#font_3_11e"  width="0.4" height="0.5" x="-0.2" y="-0.2" transform="matrix(10.98 0 0 -10.98 451.9066 43.9507)" style="overflow:visible;"/>
				
					<use xlink:href="#font_3_16f"  width="0.1" height="0.7" x="0" y="-0.3" transform="matrix(10.98 0 0 -10.98 455.919 42.7819)" style="overflow:visible;"/>
				
					<use xlink:href="#font_3_11e"  width="0.4" height="0.5" x="-0.2" y="-0.2" transform="matrix(10.98 0 0 -10.98 459.9 43.9507)" style="overflow:visible;"/>
				
					<use xlink:href="#font_3_175"  width="0.7" height="0.5" x="-0.3" y="-0.2" transform="matrix(10.98 0 0 -10.98 467.0488 43.9158)" style="overflow:visible;"/>
				
					<use xlink:href="#font_3_11e"  width="0.4" height="0.5" x="-0.2" y="-0.2" transform="matrix(10.98 0 0 -10.98 474.1082 43.9507)" style="overflow:visible;"/>
				
					<use xlink:href="#font_3_176"  width="0.4" height="0.5" x="-0.2" y="-0.2" transform="matrix(10.98 0 0 -10.98 479.7997 43.9158)" style="overflow:visible;"/>
				
					<use xlink:href="#font_3_19a"  width="0.3" height="0.6" x="-0.1" y="-0.3" transform="matrix(10.98 0 0 -10.98 484.4196 43.3368)" style="overflow:visible;"/>
				
					<use xlink:href="#font_3_1c7"  width="0.4" height="0.6" x="-0.2" y="-0.3" transform="matrix(10.98 0 0 -10.98 488.827 44.913)" style="overflow:visible;"/>
				<use xlink:href="#font_3_3"  transform="matrix(10.98 0 0 -10.98 491.3187 46.5)" style="overflow:visible;"/>
				
					<use xlink:href="#font_3_19a"  width="0.3" height="0.6" x="-0.1" y="-0.3" transform="matrix(10.98 0 0 -10.98 497.4199 43.3368)" style="overflow:visible;"/>
				
					<use xlink:href="#font_3_102"  width="0.4" height="0.5" x="-0.2" y="-0.2" transform="matrix(10.98 0 0 -10.98 501.8193 43.9507)" style="overflow:visible;"/>
				
					<use xlink:href="#font_3_16c"  width="0.4" height="0.7" x="-0.2" y="-0.3" transform="matrix(10.98 0 0 -10.98 507.4607 42.7819)" style="overflow:visible;"/>
				
					<use xlink:href="#font_3_355"  width="0.2" height="0.3" x="-0.1" y="-0.1" transform="matrix(10.98 0 0 -10.98 510.7624 46.6769)" style="overflow:visible;"/>
				<use xlink:href="#font_3_3"  transform="matrix(10.98 0 0 -10.98 512.4003 46.5)" style="overflow:visible;"/>
				
					<use xlink:href="#font_3_102"  width="0.4" height="0.5" x="-0.2" y="-0.2" transform="matrix(10.98 0 0 -10.98 519.1788 43.9507)" style="overflow:visible;"/>
				
					<use xlink:href="#font_3_10f"  width="0.4" height="0.7" x="-0.2" y="-0.3" transform="matrix(10.98 0 0 -10.98 525.0038 42.8168)" style="overflow:visible;"/>
				
					<use xlink:href="#font_3_1c7"  width="0.4" height="0.6" x="-0.2" y="-0.3" transform="matrix(10.98 0 0 -10.98 530.2108 44.913)" style="overflow:visible;"/>
				<use xlink:href="#font_3_3"  transform="matrix(10.98 0 0 -10.98 532.7024 46.5)" style="overflow:visible;"/>
				
					<use xlink:href="#font_3_1c1"  width="0.7" height="0.5" x="-0.3" y="-0.2" transform="matrix(10.98 0 0 -10.98 540.9557 43.9534)" style="overflow:visible;"/>
				
					<use xlink:href="#font_3_1cc"  width="0.3" height="0.5" x="-0.2" y="-0.2" transform="matrix(10.98 0 0 -10.98 547.0667 43.9507)" style="overflow:visible;"/>
				
					<use xlink:href="#font_3_17f"  width="0.4" height="0.7" x="-0.2" y="-0.3" transform="matrix(10.98 0 0 -10.98 552.1115 42.7926)" style="overflow:visible;"/>
				
					<use xlink:href="#font_3_18c"  width="0.3" height="0.5" x="-0.1" y="-0.2" transform="matrix(10.98 0 0 -10.98 557.31 43.9158)" style="overflow:visible;"/>
				<use xlink:href="#font_3_3"  transform="matrix(10.98 0 0 -10.98 558.9666 46.5)" style="overflow:visible;"/>
			</g>
		</g>
		<g>
			<defs>
				<rect id="SVGID_5_" x="0" y="0" width="595.3" height="841.9"/>
			</defs>
			<clipPath id="SVGID_6_">
				<use xlink:href="#SVGID_5_"  style="overflow:visible;"/>
			</clipPath>
			<g class="st2">
				
					<use xlink:href="#font_3_189"  width="0.4" height="0.7" x="-0.2" y="-0.3" transform="matrix(10.98 0 0 -10.98 39.0399 59.3955)" style="overflow:visible;"/>
				
					<use xlink:href="#font_3_18c"  width="0.3" height="0.5" x="-0.1" y="-0.2" transform="matrix(10.98 0 0 -10.98 43.9948 58.4358)" style="overflow:visible;"/>
				
					<use xlink:href="#font_3_1cc"  width="0.3" height="0.5" x="-0.2" y="-0.2" transform="matrix(10.98 0 0 -10.98 47.7839 58.4706)" style="overflow:visible;"/>
				
					<use xlink:href="#font_3_11e"  width="0.4" height="0.5" x="-0.2" y="-0.2" transform="matrix(10.98 0 0 -10.98 52.6518 58.4706)" style="overflow:visible;"/>
				
					<use xlink:href="#font_3_11a"  width="0.4" height="0.7" x="-0.2" y="-0.3" transform="matrix(10.98 0 0 -10.98 58.1359 57.3474)" style="overflow:visible;"/>
				
					<use xlink:href="#font_3_190"  width="0.3" height="0.5" x="-0.2" y="-0.2" transform="matrix(10.98 0 0 -10.98 63.308 58.4706)" style="overflow:visible;"/>
				
					<use xlink:href="#font_3_19a"  width="0.3" height="0.6" x="-0.1" y="-0.3" transform="matrix(10.98 0 0 -10.98 67.2125 57.8568)" style="overflow:visible;"/>
				
					<use xlink:href="#font_3_102"  width="0.4" height="0.5" x="-0.2" y="-0.2" transform="matrix(10.98 0 0 -10.98 71.6119 58.4706)" style="overflow:visible;"/>
				
					<use xlink:href="#font_3_1c1"  width="0.7" height="0.5" x="-0.3" y="-0.2" transform="matrix(10.98 0 0 -10.98 78.3242 58.4733)" style="overflow:visible;"/>
				
					<use xlink:href="#font_3_15d"  width="0.1" height="0.7" x="0" y="-0.3" transform="matrix(10.98 0 0 -10.98 83.5077 57.4788)" style="overflow:visible;"/>
				
					<use xlink:href="#font_3_173"  width="0.2" height="0.7" x="-0.1" y="-0.3" transform="matrix(10.98 0 0 -10.98 86.1898 57.3019)" style="overflow:visible;"/>
				<use xlink:href="#font_3_3"  transform="matrix(10.98 0 0 -10.98 87.5511 61.02)" style="overflow:visible;"/>
				
					<use xlink:href="#font_3_1cc"  width="0.3" height="0.5" x="-0.2" y="-0.2" transform="matrix(10.98 0 0 -10.98 92.1761 58.4706)" style="overflow:visible;"/>
				
					<use xlink:href="#font_3_1c1"  width="0.7" height="0.5" x="-0.3" y="-0.2" transform="matrix(10.98 0 0 -10.98 98.2859 58.4733)" style="overflow:visible;"/>
				
					<use xlink:href="#font_3_15d"  width="0.1" height="0.7" x="0" y="-0.3" transform="matrix(10.98 0 0 -10.98 103.4693 57.4788)" style="overflow:visible;"/>
				
					<use xlink:href="#font_3_10c"  width="0.4" height="0.7" x="-0.2" y="-0.3" transform="matrix(10.98 0 0 -10.98 107.3913 59.3982)" style="overflow:visible;"/>
				
					<use xlink:href="#font_3_1cc"  width="0.3" height="0.5" x="-0.2" y="-0.2" transform="matrix(10.98 0 0 -10.98 112.1816 58.4706)" style="overflow:visible;"/>
				
					<use xlink:href="#font_3_11e"  width="0.4" height="0.5" x="-0.2" y="-0.2" transform="matrix(10.98 0 0 -10.98 117.0495 58.4706)" style="overflow:visible;"/>
				
					<use xlink:href="#font_3_16c"  width="0.4" height="0.7" x="-0.2" y="-0.3" transform="matrix(10.98 0 0 -10.98 122.6007 57.3019)" style="overflow:visible;"/>
				<use xlink:href="#font_3_3"  transform="matrix(10.98 0 0 -10.98 124.7953 61.02)" style="overflow:visible;"/>
				
					<use xlink:href="#font_3_110"  width="0.3" height="0.5" x="-0.2" y="-0.2" transform="matrix(10.98 0 0 -10.98 129.6625 58.4733)" style="overflow:visible;"/>
				
					<use xlink:href="#font_3_15a"  width="0.4" height="0.7" x="-0.2" y="-0.3" transform="matrix(10.98 0 0 -10.98 134.8191 57.3019)" style="overflow:visible;"/>
				
					<use xlink:href="#font_3_11e"  width="0.4" height="0.5" x="-0.2" y="-0.2" transform="matrix(10.98 0 0 -10.98 140.404 58.4706)" style="overflow:visible;"/>
				
					<use xlink:href="#font_3_175"  width="0.7" height="0.5" x="-0.3" y="-0.2" transform="matrix(10.98 0 0 -10.98 147.5857 58.4358)" style="overflow:visible;"/>
				
					<use xlink:href="#font_3_15d"  width="0.1" height="0.7" x="0" y="-0.3" transform="matrix(10.98 0 0 -10.98 153.2197 57.4788)" style="overflow:visible;"/>
				
					<use xlink:href="#font_3_110"  width="0.3" height="0.5" x="-0.2" y="-0.2" transform="matrix(10.98 0 0 -10.98 156.9039 58.4733)" style="overflow:visible;"/>
				
					<use xlink:href="#font_3_1cc"  width="0.3" height="0.5" x="-0.2" y="-0.2" transform="matrix(10.98 0 0 -10.98 161.3501 58.4706)" style="overflow:visible;"/>
				
					<use xlink:href="#font_3_176"  width="0.4" height="0.5" x="-0.2" y="-0.2" transform="matrix(10.98 0 0 -10.98 166.3537 58.4358)" style="overflow:visible;"/>
				
					<use xlink:href="#font_3_1c7"  width="0.4" height="0.6" x="-0.2" y="-0.3" transform="matrix(10.98 0 0 -10.98 171.7027 59.433)" style="overflow:visible;"/>
				<use xlink:href="#font_3_3"  transform="matrix(10.98 0 0 -10.98 174.2492 61.02)" style="overflow:visible;"/>
				
					<use xlink:href="#font_3_17d"  width="0.4" height="0.5" x="-0.2" y="-0.2" transform="matrix(10.98 0 0 -10.98 179.6258 58.4706)" style="overflow:visible;"/>
				<use xlink:href="#font_3_3"  transform="matrix(10.98 0 0 -10.98 182.5171 61.02)" style="overflow:visible;"/>
				
					<use xlink:href="#font_3_189"  width="0.4" height="0.7" x="-0.2" y="-0.3" transform="matrix(10.98 0 0 -10.98 188.0385 59.3955)" style="overflow:visible;"/>
				
					<use xlink:href="#font_3_17d"  width="0.4" height="0.5" x="-0.2" y="-0.2" transform="matrix(10.98 0 0 -10.98 193.6582 58.4706)" style="overflow:visible;"/>
				
					<use xlink:href="#font_3_11a"  width="0.4" height="0.7" x="-0.2" y="-0.3" transform="matrix(10.98 0 0 -10.98 199.2838 57.3474)" style="overflow:visible;"/>
				
					<use xlink:href="#font_3_102"  width="0.4" height="0.5" x="-0.2" y="-0.2" transform="matrix(10.98 0 0 -10.98 204.7883 58.4706)" style="overflow:visible;"/>
				
					<use xlink:href="#font_3_176"  width="0.4" height="0.5" x="-0.2" y="-0.2" transform="matrix(10.98 0 0 -10.98 210.4932 58.4358)" style="overflow:visible;"/>
				
					<use xlink:href="#font_3_11e"  width="0.4" height="0.5" x="-0.2" y="-0.2" transform="matrix(10.98 0 0 -10.98 216.122 58.4706)" style="overflow:visible;"/>
				
					<use xlink:href="#font_3_169"  width="0.2" height="0.8" x="-0.1" y="-0.4" transform="matrix(10.98 0 0 -10.98 219.7109 58.4412)" style="overflow:visible;"/>
				<use xlink:href="#font_3_3"  transform="matrix(10.98 0 0 -10.98 221.4961 61.02)" style="overflow:visible;"/>
				
					<use xlink:href="#font_3_176"  width="0.4" height="0.5" x="-0.2" y="-0.2" transform="matrix(10.98 0 0 -10.98 226.8754 58.4358)" style="overflow:visible;"/>
				
					<use xlink:href="#font_3_102"  width="0.4" height="0.5" x="-0.2" y="-0.2" transform="matrix(10.98 0 0 -10.98 232.2163 58.4706)" style="overflow:visible;"/>
				
					<use xlink:href="#font_3_1cc"  width="0.3" height="0.5" x="-0.2" y="-0.2" transform="matrix(10.98 0 0 -10.98 237.1889 58.4706)" style="overflow:visible;"/>
				
					<use xlink:href="#font_3_1c1"  width="0.7" height="0.5" x="-0.3" y="-0.2" transform="matrix(10.98 0 0 -10.98 243.2657 58.4733)" style="overflow:visible;"/>
				
					<use xlink:href="#font_3_15d"  width="0.1" height="0.7" x="0" y="-0.3" transform="matrix(10.98 0 0 -10.98 248.4492 57.4788)" style="overflow:visible;"/>
				
					<use xlink:href="#font_3_11e"  width="0.4" height="0.5" x="-0.2" y="-0.2" transform="matrix(10.98 0 0 -10.98 252.4329 58.4706)" style="overflow:visible;"/>
				
					<use xlink:href="#font_3_358"  width="0.1" height="0.1" x="-0.1" y="-0.1" transform="matrix(10.98 0 0 -10.98 256.6016 60.4436)" style="overflow:visible;"/>
			</g>
		</g>
		<g>
			<defs>
				<rect id="SVGID_7_" x="0" y="0" width="595.3" height="841.9"/>
			</defs>
			<clipPath id="SVGID_8_">
				<use xlink:href="#SVGID_7_"  style="overflow:visible;"/>
			</clipPath>
			<g class="st3">
				<use xlink:href="#font_1_3"  transform="matrix(10.98 0 0 -10.98 258.16 61.02)" style="overflow:visible;"/>
			</g>
		</g>
	</g>
	<g id="Layer-1_1_">
		<g>
			<defs>
				<rect id="SVGID_9_" x="0" y="0" width="595.3" height="841.9"/>
			</defs>
			<clipPath id="SVGID_10_">
				<use xlink:href="#SVGID_9_"  style="overflow:visible;"/>
			</clipPath>
			<g class="st4">
				<use xlink:href="#font_1_3"  transform="matrix(10.98 0 0 -10.98 582.08 589.36)" style="overflow:visible;"/>
			</g>
		</g>
	</g>
	<g id="Layer-1_2_">
		<g>
			<defs>
				<rect id="SVGID_11_" x="0" y="0" width="595.3" height="841.9"/>
			</defs>
			<clipPath id="SVGID_12_">
				<use xlink:href="#SVGID_11_"  style="overflow:visible;"/>
			</clipPath>
			<g class="st5">
				<use xlink:href="#font_1_3"  transform="matrix(10.98 0 0 -10.98 36 608.92)" style="overflow:visible;"/>
			</g>
		</g>
	</g>
	<g id="Layer-1_3_">
		<g>
			<defs>
				<rect id="SVGID_13_" x="36" y="73" width="546" height="516.3"/>
			</defs>
			<clipPath id="SVGID_14_">
				<use xlink:href="#SVGID_13_"  style="overflow:visible;"/>
			</clipPath>
			<g class="st6">
				<g>
					<defs>
						<rect id="SVGID_15_" x="36" y="73" width="546" height="516.4"/>
					</defs>
					<clipPath id="SVGID_16_">
						<use xlink:href="#SVGID_15_"  style="overflow:visible;"/>
					</clipPath>
					<g class="st7">
						<path class="st8" d="M236.3,230.2l-0.7,1.2v-70.4l0.7,1.2l-60.9-35.2h1.4l-60.9,35.2l0.7-1.2v70.4l-0.7-1.2l60.9,35.2h-1.4
							L236.3,230.2z M176.1,268.3l-62.3-36v-72l62.3-36l62.3,36v72L176.1,268.3z"/>
						<path class="st8" d="M221.5,193.1l-0.9,9.1l-2.7,8.5l-4.2,7.8l-5.4,6.7l-6.7,5.4l-7.8,4.2l-8.5,2.7l-9.1,0.9l-9.1-0.9
							l-8.5-2.7l-7.6-4.2l-6.7-5.4l-5.4-6.7l-4.2-7.8l-2.7-8.5l-0.9-9.1l0.9-9.1l2.7-8.5l4.2-7.8l5.4-6.7l6.7-5.5l7.6-4.2l8.5-2.7
							l9.1-0.9l9.1,0.9l8.5,2.7l7.8,4.2l6.7,5.5l5.4,6.7l4.2,7.8l2.7,8.5L221.5,193.1z M217.8,184.4l0.1,0.3l-2.6-8.3l0.1,0.2
							l-4-7.6l0.1,0.2l-5.3-6.5l0.2,0.2l-6.5-5.3l0.2,0.1l-7.6-4l0.2,0.1l-8.3-2.6l0.3,0.1l-8.8-0.9h0.3l-8.8,0.9l0.3-0.1l-8.3,2.6
							l0.2-0.1l-7.4,4.1l0.2-0.1L146,163l0.2-0.2l-5.3,6.5l0.1-0.2l-4,7.6l0.1-0.2l-2.6,8.3l0.1-0.3l-0.9,8.8v-0.3l0.9,8.8l-0.1-0.3
							l2.6,8.3l-0.1-0.2l4,7.5l-0.1-0.2l5.3,6.5l-0.2-0.2l6.5,5.3l-0.2-0.1l7.4,4l-0.2-0.1l8.3,2.6l-0.3,0l8.8,0.9H176l8.8-0.9
							l-0.3,0l8.3-2.6l-0.2,0.1l7.6-4.1l-0.2,0.2l6.5-5.3l-0.2,0.2l5.3-6.5l-0.1,0.2l4-7.5l-0.1,0.2l2.6-8.3l-0.1,0.3l0.9-8.8v0.3
							L217.8,184.4z"/>
						<path class="st8" d="M174.7,292.4h2.8v-25.8h-2.8V292.4z"/>
						<path class="st8" d="M238,230.5l22.5,22.6l-2,2L236,232.4L238,230.5z"/>
						<path class="st8" d="M236.4,159.8l25.6-12l1.2,2.6l-25.6,12L236.4,159.8z"/>
						<path class="st8" d="M174.7,125.9h2.8V91.4h-2.8V125.9z"/>
						<path class="st8" d="M114.5,162.3l-34.4-18.3l1.3-2.5l34.4,18.3L114.5,162.3z"/>
						<path class="st8" d="M116.2,232.4l-26.7,26.7l-2-2l26.7-26.7L116.2,232.4z"/>
						<path d="M168.9,116.1L168.9,116.1l-1.9,1l-0.3-1.1l2.4-1.3h1.3v11h-1.4V116.1z"/>
						<path d="M241.7,173.2v-0.9l1.2-1.1c2.8-2.7,4.1-4.1,4.1-5.7c0-1.1-0.5-2.1-2.2-2.1c-1,0-1.8,0.5-2.3,0.9l-0.5-1
							c0.8-0.7,1.8-1.1,3.1-1.1c2.4,0,3.4,1.6,3.4,3.2c0,2-1.5,3.7-3.8,5.9l-0.9,0.8v0h4.9v1.2L241.7,173.2L241.7,173.2z"/>
						<path d="M241.8,231.2c0.4,0.3,1.4,0.7,2.4,0.7c1.9,0,2.5-1.2,2.5-2.1c0-1.5-1.4-2.2-2.8-2.2H243v-1.1h0.8
							c1.1,0,2.4-0.6,2.4-1.9c0-0.9-0.6-1.7-1.9-1.7c-0.9,0-1.7,0.4-2.2,0.7l-0.4-1.1c0.6-0.4,1.7-0.8,2.9-0.8
							c2.2,0,3.1,1.3,3.1,2.6c0,1.1-0.7,2.1-2,2.6v0c1.4,0.3,2.4,1.3,2.4,2.8c0,1.8-1.4,3.3-4,3.3c-1.2,0-2.3-0.4-2.9-0.7
							L241.8,231.2z"/>
						<path d="M186.6,275.6v-3h-5.1v-1l4.9-7h1.6v6.8h1.5v1.2H188v3H186.6z M186.6,271.5v-3.7c0-0.6,0-1.1,0.1-1.7h-0.1
							c-0.3,0.6-0.6,1.1-0.9,1.6l-2.7,3.7v0H186.6z"/>
						<path d="M120.8,236.8h-4.2l-0.4,2.8c0.3,0,0.5-0.1,0.9-0.1c0.8,0,1.7,0.2,2.4,0.6c0.9,0.5,1.6,1.4,1.6,2.8
							c0,2.1-1.7,3.7-4.1,3.7c-1.2,0-2.2-0.3-2.7-0.7l0.4-1.1c0.5,0.3,1.4,0.6,2.4,0.6c1.4,0,2.6-0.9,2.6-2.4c0-1.4-1-2.4-3.2-2.4
							c-0.6,0-1.1,0.1-1.5,0.1l0.7-5.3h5.2L120.8,236.8L120.8,236.8z"/>
						<path d="M118.5,144.1c-0.3,0-0.7,0-1.1,0.1c-2.3,0.4-3.6,2.1-3.8,3.9h0.1c0.5-0.7,1.4-1.3,2.6-1.3c1.9,0,3.3,1.4,3.3,3.6
							c0,2-1.4,3.9-3.6,3.9c-2.3,0-3.9-1.8-3.9-4.7c0-2.2,0.8-3.9,1.9-4.9c0.9-0.9,2.1-1.5,3.5-1.6c0.4-0.1,0.8-0.1,1.1-0.1V144.1z
							 M118.1,150.4c0-1.6-0.9-2.5-2.3-2.5c-0.9,0-1.7,0.6-2.1,1.3c-0.1,0.2-0.2,0.4-0.2,0.7c0,1.8,0.9,3.1,2.4,3.1
							C117.2,153,118.1,152,118.1,150.4z"/>
						<path class="st8" d="M161.9,90.5l2.4-3.2c0.1-0.2,0.3-0.4,0.3-0.6c0.1-0.2,0.1-0.4,0.1-0.6c0-0.3-0.1-0.5-0.2-0.6
							c-0.2-0.2-0.4-0.2-0.7-0.2c-0.3,0-0.5,0.1-0.7,0.3c-0.2,0.2-0.3,0.4-0.3,0.7h-1c0.1-0.4,0.2-0.8,0.4-1
							c0.2-0.3,0.4-0.5,0.7-0.6c0.3-0.2,0.6-0.2,1-0.2c0.4,0,0.8,0.1,1.1,0.2c0.3,0.1,0.5,0.4,0.7,0.6c0.2,0.3,0.2,0.6,0.2,1
							c0,0.3-0.1,0.5-0.2,0.8c-0.1,0.3-0.2,0.5-0.4,0.8l-2,2.7h2.6v0.9h-3.9L161.9,90.5L161.9,90.5z"/>
						<path class="st8" d="M206.9,90.5l2.4-3.2c0.1-0.2,0.3-0.4,0.3-0.6c0.1-0.2,0.1-0.4,0.1-0.6c0-0.3-0.1-0.5-0.2-0.6
							c-0.2-0.2-0.4-0.2-0.7-0.2c-0.3,0-0.5,0.1-0.7,0.3c-0.2,0.2-0.3,0.4-0.3,0.7h-1c0.1-0.4,0.2-0.8,0.4-1
							c0.2-0.3,0.4-0.5,0.7-0.6c0.3-0.2,0.6-0.2,1-0.2c0.4,0,0.8,0.1,1.1,0.2c0.3,0.1,0.5,0.4,0.7,0.6c0.2,0.3,0.2,0.6,0.2,1
							c0,0.3-0.1,0.5-0.2,0.8c-0.1,0.3-0.2,0.5-0.4,0.8l-2,2.7h2.6v0.9h-3.9L206.9,90.5L206.9,90.5z"/>
						<path class="st8" d="M143.1,86.1c-0.6-0.4-1.1-0.9-1.5-1.6c-0.4-0.7-0.5-1.5-0.5-2.3v-3.3c0-0.9,0.2-1.7,0.5-2.4
							c0.4-0.7,0.8-1.2,1.5-1.6c0.6-0.4,1.4-0.5,2.2-0.5c0.7,0,1.3,0.1,1.9,0.4c0.6,0.3,1.1,0.7,1.5,1.3c0.4,0.5,0.6,1.1,0.8,1.9
							h-1.7c-0.1-0.4-0.3-0.7-0.5-1c-0.2-0.3-0.5-0.5-0.9-0.7c-0.3-0.2-0.7-0.2-1-0.2c-0.5,0-0.9,0.1-1.3,0.4
							c-0.4,0.2-0.7,0.6-0.9,1c-0.2,0.4-0.3,0.9-0.3,1.5v3.3c0,0.6,0.1,1.1,0.3,1.5c0.2,0.4,0.5,0.8,0.9,1c0.4,0.3,0.8,0.4,1.3,0.4
							c0.4,0,0.7-0.1,1-0.2c0.3-0.2,0.6-0.4,0.9-0.7c0.2-0.3,0.4-0.6,0.5-1.1h1.7c-0.1,0.7-0.4,1.3-0.8,1.9c-0.4,0.5-0.9,1-1.5,1.2
							c-0.6,0.3-1.2,0.4-1.9,0.4C144.5,86.7,143.7,86.5,143.1,86.1z"/>
						<path class="st8" d="M151.9,74.5h1.7v12h-1.7V74.5z M153,79.8h6.7v1.6H153V79.8z M158.8,74.5h1.7v12h-1.7V74.5z"/>
						<path class="st8" d="M188.1,86.1c-0.6-0.4-1.1-0.9-1.5-1.6c-0.4-0.7-0.5-1.5-0.5-2.3v-3.3c0-0.9,0.2-1.7,0.5-2.4
							c0.4-0.7,0.8-1.2,1.5-1.6c0.6-0.4,1.4-0.6,2.2-0.6c0.7,0,1.3,0.1,1.9,0.4c0.6,0.3,1.1,0.7,1.4,1.2s0.6,1.2,0.8,1.9h-1.7
							c-0.1-0.4-0.3-0.7-0.5-1c-0.2-0.3-0.5-0.5-0.9-0.7c-0.3-0.1-0.7-0.2-1-0.2c-0.5,0-0.9,0.1-1.3,0.4s-0.7,0.6-0.9,1
							c-0.2,0.4-0.3,0.9-0.3,1.5v3.3c0,0.6,0.1,1.1,0.3,1.5c0.2,0.4,0.5,0.8,0.9,1s0.8,0.4,1.3,0.4c0.4,0,0.7-0.1,1-0.2
							c0.3-0.1,0.6-0.4,0.9-0.7c0.2-0.3,0.4-0.6,0.5-1h1.7c-0.1,0.7-0.4,1.3-0.8,1.9c-0.4,0.5-0.9,1-1.4,1.3
							c-0.6,0.3-1.2,0.4-1.9,0.4C189.5,86.7,188.7,86.5,188.1,86.1z"/>
						<path class="st8" d="M196.9,74.5h1.7v12h-1.7V74.5z M198,79.8h6.7v1.6H198V79.8z M203.8,74.5h1.7v12h-1.7V74.5z"/>
						<path class="st8" d="M182,82.5c-0.1,0.1-0.1,0.1-0.2,0.1h-9.6c-0.1,0-0.2,0-0.2-0.1c-0.1-0.1-0.1-0.1-0.1-0.2
							c0-0.1,0-0.2,0.1-0.2s0.1-0.1,0.2-0.1h9.6c0.1,0,0.2,0,0.2,0.1s0.1,0.1,0.1,0.2C182.1,82.4,182,82.5,182,82.5z"/>
						<path class="st8" d="M171.9,295.5h1.7v12h-1.7V295.5z M172.9,300.8h6.8v1.6h-6.8V300.8z M178.8,295.5h1.7v12h-1.7V295.5z"/>
						<path class="st8" d="M76.9,261.2h1.7v12h-1.7V261.2z M78,266.5h6.8v1.6H78V266.5z M83.8,261.2h1.7v12h-1.7V261.2z"/>
						<path class="st8" d="M69,137.1h1.7v12H69V137.1z M70,142.4h6.8v1.6H70V142.4z M75.9,137.1h1.7v12h-1.7V137.1z"/>
						<path class="st8" d="M264.1,140h1.7v12h-1.7V140z M265.2,145.3h6.7v1.6h-6.7V145.3z M271,140h1.7v12H271V140z"/>
						<path class="st8" d="M264.1,249.2h1.7v12h-1.7V249.2z M265.2,254.5h6.7v1.6h-6.7V254.5z M271,249.2h1.7v12H271V249.2z"/>
						<path class="st8" d="M528.3,235.1l-0.7,1.2v-70.3l0.7,1.2L467.3,132h1.4l-60.9,35.2l0.7-1.2v70.3l-0.7-1.2l60.9,35.2h-1.4
							L528.3,235.1z M468,273.1l-62.3-36v-72l62.3-36l62.3,36v72L468,273.1z"/>
						<path class="st8" d="M513.4,197.8l-0.9,9.1l-2.7,8.5l-4.1,7.8l-5.5,6.7l-6.7,5.5l-7.8,4.2l-8.5,2.7l-9.1,0.9l-9.1-0.9
							l-8.5-2.7l-7.6-4.2l-6.7-5.4l-5.6-6.7l-4-7.8l-2.7-8.5l-0.9-9.1l0.9-9.1l2.7-8.5l4-7.6l5.6-6.7l6.7-5.4l7.6-4.2l8.5-2.7
							l9.1-0.9l9.1,0.9l8.5,2.7l7.8,4.2l6.7,5.5l5.5,6.7l4.1,7.6l2.7,8.5L513.4,197.8z M509.8,189.1l0,0.3l-2.6-8.3l0.1,0.3l-4-7.4
							l0.1,0.2l-5.3-6.5l0.2,0.2l-6.5-5.3l0.2,0.1l-7.6-4l0.2,0.1l-8.3-2.6l0.3,0.1l-8.8-0.9h0.3l-8.8,0.9l0.3-0.1l-8.3,2.6l0.2-0.1
							l-7.4,4.1l0.2-0.1L438,168l0.2-0.2l-5.5,6.5l0.2-0.2l-3.9,7.4l0.1-0.2l-2.6,8.3l0.1-0.3l-0.9,8.8v-0.3l0.9,8.8l-0.1-0.3
							l2.6,8.3l-0.1-0.2l3.9,7.6l-0.2-0.3l5.5,6.5l-0.2-0.2l6.5,5.3l-0.2-0.1l7.4,4.1l-0.2-0.1l8.3,2.6l-0.3-0.1l8.8,0.9h-0.3
							l8.8-0.9l-0.3,0.1l8.3-2.6l-0.2,0.1l7.6-4l-0.2,0.1l6.5-5.3l-0.2,0.2l5.3-6.5l-0.1,0.2l4-7.6l-0.1,0.3l2.6-8.3l0,0.3l0.9-8.8
							v0.3L509.8,189.1z"/>
						<path class="st8" d="M466.6,297.3h2.8v-25.8h-2.8V297.3z"/>
						<path class="st8" d="M530,235.3l22.5,22.5l-2,2L528,237.3L530,235.3z"/>
						<path class="st8" d="M528.4,164.7l25.6-12l1.2,2.5l-25.6,12L528.4,164.7z"/>
						<path class="st8" d="M466.6,130.8h2.8V96.2h-2.8V130.8z"/>
						<path class="st8" d="M406.5,167.2l-34.4-18.3l1.3-2.5l34.4,18.3L406.5,167.2z"/>
						<path class="st8" d="M408.1,237.3L381.4,264l-2-2l26.7-26.7L408.1,237.3z"/>
						<path d="M460.8,120.9L460.8,120.9l-1.9,1l-0.3-1.1l2.4-1.3h1.3v11h-1.5V120.9z"/>
						<path d="M533.7,178.1v-0.9l1.2-1.1c2.8-2.7,4.1-4.1,4.1-5.7c0-1.1-0.5-2.1-2.2-2.1c-1,0-1.8,0.5-2.3,0.9l-0.5-1.1
							c0.8-0.6,1.8-1.1,3.1-1.1c2.4,0,3.4,1.6,3.4,3.2c0,2-1.5,3.7-3.8,5.9l-0.9,0.8v0h4.9v1.2L533.7,178.1L533.7,178.1z"/>
						<path d="M533.7,236.1c0.4,0.3,1.4,0.7,2.4,0.7c1.9,0,2.5-1.2,2.5-2.1c0-1.5-1.4-2.2-2.8-2.2H535v-1.1h0.8
							c1.1,0,2.4-0.6,2.4-1.9c0-0.9-0.6-1.6-1.9-1.6c-0.9,0-1.7,0.4-2.2,0.7l-0.4-1.1c0.6-0.4,1.7-0.8,2.9-0.8
							c2.2,0,3.1,1.3,3.1,2.6c0,1.1-0.7,2.1-2,2.6v0c1.3,0.3,2.4,1.3,2.4,2.8c0,1.8-1.4,3.3-4,3.3c-1.2,0-2.3-0.4-2.9-0.8
							L533.7,236.1z"/>
						<path d="M478.6,280.5v-3h-5.1v-1l4.9-7h1.6v6.8h1.5v1.1H480v3H478.6z M478.6,276.3v-3.7c0-0.6,0-1.1,0-1.7h0
							c-0.4,0.7-0.6,1.1-0.9,1.6l-2.7,3.7v0H478.6z"/>
						<path d="M412.7,241.7h-4.2l-0.4,2.8c0.3,0,0.5-0.1,0.9-0.1c0.8,0,1.7,0.2,2.3,0.6c0.9,0.5,1.6,1.4,1.6,2.8
							c0,2.1-1.7,3.8-4.1,3.8c-1.2,0-2.2-0.4-2.7-0.7l0.4-1.1c0.4,0.3,1.3,0.6,2.3,0.6c1.4,0,2.6-0.9,2.6-2.4c0-1.4-1-2.4-3.1-2.4
							c-0.6,0-1.1,0.1-1.5,0.1l0.7-5.3h5.3L412.7,241.7L412.7,241.7z"/>
						<path d="M410.5,148.9c-0.3,0-0.7,0-1.1,0.1c-2.3,0.4-3.6,2.1-3.8,3.9h0.1c0.5-0.7,1.4-1.3,2.6-1.3c1.9,0,3.3,1.4,3.3,3.5
							c0,2-1.4,3.9-3.6,3.9c-2.3,0-3.9-1.8-3.9-4.7c0-2.2,0.8-3.9,1.9-4.9c0.9-0.9,2.1-1.5,3.5-1.6c0.4-0.1,0.8-0.1,1.1-0.1V148.9z
							 M410,155.3c0-1.6-0.9-2.5-2.3-2.5c-0.9,0-1.7,0.6-2.1,1.4c-0.1,0.2-0.2,0.4-0.2,0.7c0,1.8,0.8,3.1,2.4,3.1
							C409.2,157.9,410,156.8,410,155.3z"/>
						<path class="st8" d="M463.8,300.3h1.7v12h-1.7V300.3z M464.9,305.6h6.8v1.6h-6.8V305.6z M470.7,300.3h1.7v12h-1.7V300.3z"/>
						<path class="st8" d="M368.9,266h1.7v12h-1.7V266z M369.9,271.3h6.8v1.6h-6.8V271.3z M375.8,266h1.7v12h-1.7V266z"/>
						<path class="st8" d="M360.9,142h1.7v12h-1.7V142z M362,147.3h6.8v1.6H362V147.3z M367.8,142h1.7v12h-1.7V142z"/>
						<path class="st8" d="M556.1,254.1h1.7v12h-1.7V254.1z M557.2,259.3h6.8v1.6h-6.8V259.3z M563,254.1h1.7v12H563V254.1z"/>
						<path class="st8" d="M241.6,499.7l-0.7,1.2v-70.4l0.7,1.2l-60.9-35.2h1.4l-60.9,35.2l0.7-1.2v70.4l-0.7-1.2l60.9,35.2h-1.4
							L241.6,499.7z M181.4,537.7l-62.3-36v-72l62.3-36l62.3,36v72L181.4,537.7z"/>
						<path class="st8" d="M226.7,462.6l-0.9,9.1l-2.7,8.5l-4.2,7.6l-5.4,6.7l-6.7,5.6l-7.6,4.2l-8.5,2.5l-9.1,0.9l-9.1-0.9
							l-8.5-2.5l-7.8-4.2l-6.7-5.6l-5.4-6.7l-4.2-7.6l-2.7-8.5l-0.9-9.1l0.9-9.1l2.7-8.5l4.2-7.8l5.4-6.7l6.7-5.4l7.8-4.2l8.5-2.7
							l9.1-0.9l9.1,0.9l8.5,2.7l7.6,4.2l6.7,5.4l5.4,6.7l4.2,7.8l2.7,8.5L226.7,462.6z M223,453.9l0.1,0.3l-2.6-8.3l0.1,0.2l-4-7.6
							l0.1,0.2l-5.3-6.5l0.2,0.2l-6.5-5.3l0.2,0.1l-7.4-4l0.2,0.1l-8.3-2.6l0.3,0.1l-8.8-0.9h0.3l-8.8,0.9l0.3-0.1l-8.3,2.6l0.2-0.1
							l-7.6,4l0.2-0.1l-6.5,5.3l0.2-0.2l-5.3,6.5l0.1-0.2l-4,7.6l0.1-0.2l-2.6,8.3l0.1-0.3l-0.9,8.8v-0.3l0.9,8.8l-0.1-0.3l2.6,8.3
							l-0.1-0.2l4,7.4l-0.1-0.2l5.3,6.5l-0.2-0.2l6.5,5.4l-0.2-0.2l7.6,4l-0.3-0.1l8.3,2.5l-0.3-0.1l8.8,0.9h-0.3l8.8-0.9l-0.3,0.1
							l8.3-2.5l-0.3,0.1l7.4-4l-0.2,0.2l6.5-5.4l-0.2,0.2l5.3-6.5l-0.1,0.2l4-7.4l-0.1,0.2l2.6-8.3l-0.1,0.3l0.9-8.8v0.3L223,453.9z
							"/>
						<path class="st8" d="M180,561.9h2.8v-25.8H180V561.9z"/>
						<path class="st8" d="M243.3,499.9l22.5,22.5l-2,2l-22.5-22.5L243.3,499.9z"/>
						<path class="st8" d="M241.7,429.3l25.6-12l1.2,2.5l-25.6,12L241.7,429.3z"/>
						<path class="st8" d="M180,395.4h2.8v-34.5H180V395.4z"/>
						<path class="st8" d="M119.8,431.8l-34.4-18.3l1.3-2.5l34.4,18.3L119.8,431.8z"/>
						<path class="st8" d="M121.5,501.9l-26.7,26.7l-2-2l26.7-26.7L121.5,501.9z"/>
						<path d="M174.2,385.6L174.2,385.6l-1.9,1l-0.3-1.1l2.4-1.3h1.3v11h-1.4V385.6z"/>
						<path d="M247,442.7v-0.9l1.2-1.1c2.8-2.7,4.1-4.1,4.1-5.7c0-1.1-0.5-2.1-2.2-2.1c-1,0-1.8,0.5-2.3,0.9l-0.5-1
							c0.8-0.6,1.8-1.1,3.1-1.1c2.4,0,3.4,1.6,3.4,3.2c0,2-1.5,3.7-3.8,5.9l-0.9,0.8v0h4.9v1.2L247,442.7L247,442.7z"/>
						<path d="M247.1,500.7c0.4,0.3,1.4,0.7,2.4,0.7c1.9,0,2.5-1.2,2.5-2.1c0-1.5-1.4-2.2-2.8-2.2h-0.8v-1.1h0.8
							c1.1,0,2.4-0.6,2.4-1.9c0-0.9-0.6-1.6-1.9-1.6c-0.9,0-1.7,0.4-2.2,0.7l-0.4-1.1c0.6-0.4,1.7-0.8,2.9-0.8
							c2.2,0,3.1,1.3,3.1,2.6c0,1.1-0.7,2.1-2,2.6v0c1.4,0.3,2.4,1.3,2.4,2.8c0,1.8-1.4,3.3-4,3.3c-1.2,0-2.3-0.4-2.9-0.7
							L247.1,500.7z"/>
						<path d="M191.9,545.1v-3h-5.1v-1l4.9-7h1.6v6.8h1.5v1.2h-1.5v3H191.9z M191.9,541v-3.7c0-0.6,0-1.2,0.1-1.7h-0.1
							c-0.3,0.6-0.6,1.1-0.9,1.6l-2.7,3.7v0H191.9z"/>
						<path d="M126.1,506.3h-4.2l-0.4,2.8c0.3,0,0.5-0.1,0.9-0.1c0.8,0,1.7,0.2,2.4,0.6c0.9,0.5,1.6,1.4,1.6,2.8
							c0,2.1-1.7,3.7-4.1,3.7c-1.2,0-2.2-0.3-2.7-0.7l0.4-1.1c0.5,0.3,1.4,0.6,2.4,0.6c1.4,0,2.6-0.9,2.6-2.4c0-1.4-1-2.4-3.2-2.4
							c-0.6,0-1.1,0.1-1.5,0.1l0.7-5.3h5.2L126.1,506.3L126.1,506.3z"/>
						<path d="M123.8,413.5c-0.3,0-0.7,0-1.1,0.1c-2.3,0.4-3.6,2.1-3.8,3.9h0c0.5-0.7,1.4-1.3,2.6-1.3c1.9,0,3.3,1.4,3.3,3.5
							c0,2-1.4,3.9-3.6,3.9c-2.3,0-3.9-1.8-3.9-4.7c0-2.2,0.8-3.9,1.9-4.9c0.9-0.9,2.1-1.4,3.5-1.6c0.4-0.1,0.8-0.1,1.1-0.1
							L123.8,413.5L123.8,413.5z M123.4,419.9c0-1.6-0.9-2.5-2.3-2.5c-0.9,0-1.7,0.6-2.1,1.4c-0.1,0.2-0.2,0.4-0.2,0.7
							c0,1.8,0.9,3.1,2.4,3.1C122.5,422.5,123.4,421.4,123.4,419.9z"/>
						<path class="st8" d="M177.1,565h1.7v12h-1.7V565z M178.2,570.2h6.8v1.6h-6.8V570.2z M184.1,565h1.7v12h-1.7V565z"/>
						<path class="st8" d="M82.2,530.7h1.7v12h-1.7V530.7z M83.3,535.9H90v1.6h-6.8V535.9z M89.1,530.7h1.7v12h-1.7V530.7z"/>
						<path class="st8" d="M74.3,406.6H76v12h-1.7V406.6z M75.3,411.9h6.8v1.6h-6.8V411.9z M81.2,406.6h1.7v12h-1.7V406.6z"/>
						<path class="st8" d="M269.4,409.5h1.7v12h-1.7V409.5z M270.5,414.7h6.8v1.6h-6.8V414.7z M276.4,409.5h1.7v12h-1.7V409.5z"/>
						<path class="st8" d="M529.9,504.5l-0.7,1.2v-70.4l0.7,1.2L469,401.4h1.4l-60.9,35.2l0.7-1.2v70.4l-0.7-1.2l60.9,35.2H469
							L529.9,504.5z M469.7,542.6l-62.3-36v-72l62.3-36l62.3,36v72L469.7,542.6z"/>
						<path class="st8" d="M515,467.3l-0.9,9.1l-2.7,8.5l-4.2,7.8l-5.4,6.7l-6.7,5.4l-7.6,4.2l-8.5,2.7l-9.1,0.9l-9.1-0.9l-8.5-2.7
							l-7.8-4.2l-6.7-5.5l-5.5-6.7l-4.1-7.8l-2.7-8.5l-0.9-9.1l0.9-9.1l2.7-8.5l4.1-7.6l5.5-6.7l6.7-5.6l7.8-4l8.5-2.7l9.1-0.9
							l9.1,0.9l8.5,2.7l7.6,4l6.7,5.6l5.4,6.7l4.2,7.6l2.7,8.5L515,467.3z M511.3,458.7l0.1,0.3l-2.6-8.3l0.1,0.2l-4.1-7.4l0.1,0.2
							l-5.3-6.5l0.2,0.2l-6.5-5.4l0.3,0.2l-7.4-3.9l0.2,0.1l-8.3-2.6l0.3,0.1l-8.8-0.9h0.3l-8.8,0.9l0.3-0.1l-8.3,2.6l0.2-0.1
							l-7.6,3.9l0.3-0.2l-6.5,5.4l0.2-0.2l-5.3,6.5l0.1-0.2l-4,7.4l0.1-0.2l-2.6,8.3l0-0.3l-0.9,8.8v-0.3l0.9,8.8l0-0.3l2.6,8.3
							l-0.1-0.2l4,7.6l-0.1-0.2l5.3,6.5l-0.2-0.2l6.5,5.3l-0.2-0.1l7.6,4l-0.2-0.1l8.3,2.6l-0.3-0.1l8.8,0.9h-0.3l8.8-0.9l-0.3,0.1
							l8.3-2.6l-0.2,0.1l7.4-4l-0.2,0.1l6.5-5.3l-0.2,0.2l5.3-6.5l-0.1,0.2l4.1-7.6l-0.1,0.2l2.6-8.3l-0.1,0.3l0.9-8.8v0.3
							L511.3,458.7z"/>
						<path class="st8" d="M468.3,566.7h2.8v-25.8h-2.8V566.7z"/>
						<path class="st8" d="M531.6,504.8l22.5,22.5l-2,2l-22.5-22.5L531.6,504.8z"/>
						<path class="st8" d="M530,434.1l25.6-12l1.2,2.5l-25.6,12L530,434.1z"/>
						<path class="st8" d="M468.3,400.2h2.8v-34.5h-2.8V400.2z"/>
						<path class="st8" d="M408.1,436.6l-34.4-18.3l1.3-2.5l34.4,18.3L408.1,436.6z"/>
						<path class="st8" d="M409.7,506.8L383,533.5l-2-2l26.7-26.7L409.7,506.8z"/>
						<path d="M462.5,390.4L462.5,390.4l-1.9,1l-0.3-1.1l2.4-1.3h1.3v11h-1.4V390.4z"/>
						<path d="M535.3,447.5v-0.9l1.1-1.1c2.8-2.7,4.1-4.1,4.1-5.7c0-1.1-0.5-2.1-2.2-2.1c-1,0-1.8,0.5-2.3,0.9l-0.5-1
							c0.8-0.6,1.9-1.1,3.1-1.1c2.4,0,3.4,1.6,3.4,3.2c0,2-1.5,3.7-3.8,5.9l-0.9,0.8v0h4.9v1.2L535.3,447.5L535.3,447.5z"/>
						<path d="M535.4,505.5c0.4,0.3,1.4,0.7,2.4,0.7c1.9,0,2.5-1.2,2.5-2.1c0-1.5-1.4-2.2-2.8-2.2h-0.8v-1.1h0.8
							c1.1,0,2.4-0.6,2.4-1.9c0-0.9-0.6-1.7-1.9-1.7c-0.9,0-1.7,0.4-2.2,0.7l-0.4-1.1c0.6-0.4,1.7-0.8,2.9-0.8
							c2.2,0,3.1,1.3,3.1,2.6c0,1.1-0.7,2.1-2,2.6v0c1.4,0.3,2.5,1.3,2.5,2.8c0,1.8-1.4,3.3-4,3.3c-1.2,0-2.3-0.4-2.9-0.7
							L535.4,505.5z"/>
						<path d="M480.2,550v-3h-5.1v-1l4.9-7h1.6v6.8h1.5v1.2h-1.5v3H480.2z M480.2,545.8v-3.7c0-0.6,0-1.2,0.1-1.7h-0.1
							c-0.3,0.6-0.6,1.1-0.9,1.6l-2.7,3.7v0H480.2z"/>
						<path d="M414.4,511.1h-4.2l-0.4,2.8c0.3,0,0.5-0.1,0.9-0.1c0.8,0,1.7,0.2,2.4,0.6c0.9,0.5,1.6,1.4,1.6,2.8
							c0,2.1-1.7,3.7-4.1,3.7c-1.2,0-2.2-0.3-2.7-0.7l0.4-1.1c0.5,0.3,1.4,0.6,2.4,0.6c1.4,0,2.6-0.9,2.6-2.4c0-1.4-1-2.4-3.2-2.4
							c-0.6,0-1.1,0.1-1.5,0.1l0.7-5.3h5.3L414.4,511.1L414.4,511.1z"/>
						<path d="M412.1,418.4c-0.3,0-0.7,0-1.1,0.1c-2.3,0.4-3.5,2.1-3.8,3.9h0c0.5-0.7,1.4-1.3,2.6-1.3c1.9,0,3.3,1.4,3.3,3.5
							c0,2-1.4,3.9-3.6,3.9c-2.4,0-3.9-1.8-3.9-4.7c0-2.2,0.8-3.9,1.9-4.9c0.9-0.9,2.1-1.4,3.5-1.6c0.4-0.1,0.8-0.1,1.1-0.1V418.4z
							 M411.7,424.7c0-1.6-0.9-2.5-2.3-2.5c-0.9,0-1.7,0.6-2.1,1.4c-0.1,0.2-0.2,0.4-0.2,0.7c0,1.8,0.9,3.1,2.4,3.1
							C410.8,427.3,411.7,426.3,411.7,424.7z"/>
						<path class="st8" d="M370.5,535.5h1.7v12h-1.7V535.5z M371.6,540.8h6.8v1.6h-6.8V540.8z M377.4,535.5h1.7v12h-1.7V535.5z"/>
						<path class="st8" d="M362.5,411.4h1.7v12h-1.7V411.4z M363.6,416.7h6.8v1.6h-6.8V416.7z M369.5,411.4h1.7v12h-1.7V411.4z"/>
						<path class="st8" d="M557.7,414.3h1.7v12h-1.7V414.3z M558.8,419.6h6.8v1.6h-6.8V419.6z M564.7,414.3h1.7v12h-1.7V414.3z"/>
						<path class="st8" d="M557.7,523.5h1.7v12h-1.7V523.5z M558.8,528.8h6.8v1.6h-6.8V528.8z M564.7,523.5h1.7v12h-1.7V523.5z"/>
						<path class="st8" d="M476.1,98.5c-0.3-0.1-0.5-0.4-0.7-0.6c-0.2-0.3-0.3-0.6-0.4-1h1c0,0.2,0.1,0.4,0.2,0.5
							c0.1,0.1,0.2,0.2,0.4,0.3c0.1,0,0.3,0.1,0.5,0.1c0.3,0,0.6-0.1,0.7-0.3c0.2-0.2,0.3-0.4,0.3-0.7v-0.2c0-0.4-0.1-0.6-0.3-0.8
							c-0.2-0.2-0.4-0.3-0.7-0.3h-0.5v-0.9h0.5c0.3,0,0.5-0.1,0.6-0.2c0.2-0.2,0.2-0.4,0.2-0.7v-0.2c0-0.3-0.1-0.5-0.2-0.6
							c-0.2-0.2-0.4-0.2-0.7-0.2c-0.2,0-0.3,0-0.4,0.1c-0.1,0.1-0.3,0.2-0.4,0.3c-0.1,0.1-0.1,0.3-0.2,0.5h-1c0.1-0.4,0.2-0.7,0.4-1
							c0.2-0.3,0.4-0.5,0.7-0.6c0.3-0.1,0.6-0.2,0.9-0.2c0.6,0,1.1,0.1,1.4,0.5c0.3,0.3,0.5,0.8,0.5,1.3v0.1c0,0.4-0.1,0.7-0.3,0.9
							c-0.2,0.3-0.4,0.4-0.8,0.6c0.4,0.1,0.7,0.3,0.9,0.6c0.2,0.3,0.3,0.7,0.3,1.1v0.1c0,0.4-0.1,0.8-0.3,1.1
							c-0.1,0.3-0.4,0.5-0.7,0.7c-0.3,0.2-0.7,0.2-1.1,0.2C476.8,98.7,476.4,98.6,476.1,98.5z"/>
						<path class="st8" d="M456.4,93.4c-0.6-0.4-1.1-0.9-1.5-1.6c-0.4-0.7-0.5-1.5-0.5-2.3v-3.3c0-0.9,0.2-1.7,0.5-2.4
							c0.4-0.7,0.8-1.2,1.5-1.6c0.6-0.4,1.4-0.6,2.2-0.6c0.7,0,1.3,0.1,1.9,0.4c0.6,0.3,1.1,0.7,1.5,1.3c0.4,0.5,0.6,1.2,0.8,1.9
							H461c-0.1-0.4-0.3-0.7-0.5-1c-0.2-0.3-0.5-0.5-0.9-0.7c-0.3-0.1-0.7-0.2-1-0.2c-0.5,0-0.9,0.1-1.3,0.4c-0.4,0.2-0.7,0.6-0.9,1
							c-0.2,0.4-0.3,0.9-0.3,1.5v3.3c0,0.6,0.1,1.1,0.3,1.5c0.2,0.4,0.5,0.8,0.9,1c0.4,0.3,0.8,0.4,1.3,0.4c0.4,0,0.7-0.1,1-0.2
							c0.3-0.2,0.6-0.4,0.9-0.7c0.2-0.3,0.4-0.6,0.5-1.1h1.7c-0.1,0.7-0.4,1.3-0.8,1.9c-0.4,0.5-0.9,1-1.5,1.3
							c-0.6,0.3-1.2,0.4-1.9,0.4C457.8,93.9,457,93.7,456.4,93.4z"/>
						<path class="st8" d="M465.2,81.8h1.7v12h-1.7V81.8z M466.3,87.1h6.7v1.6h-6.7V87.1z M472,81.8h1.7v12H472V81.8z"/>
						<path class="st8" d="M578.5,161.3c-0.3-0.1-0.5-0.4-0.7-0.6c-0.2-0.3-0.3-0.6-0.4-1h1c0,0.2,0.1,0.4,0.2,0.5
							c0.1,0.1,0.2,0.2,0.4,0.3s0.3,0.1,0.5,0.1c0.3,0,0.6-0.1,0.8-0.3c0.2-0.2,0.3-0.4,0.3-0.7v-0.2c0-0.4-0.1-0.6-0.3-0.8
							c-0.2-0.2-0.4-0.3-0.7-0.3h-0.5v-0.9h0.5c0.3,0,0.5-0.1,0.6-0.2c0.2-0.2,0.2-0.4,0.2-0.7v-0.2c0-0.3-0.1-0.5-0.2-0.6
							c-0.2-0.2-0.4-0.2-0.7-0.2c-0.2,0-0.3,0-0.4,0.1c-0.1,0.1-0.3,0.2-0.4,0.3c-0.1,0.1-0.1,0.3-0.2,0.5h-1c0.1-0.4,0.2-0.7,0.4-1
							c0.2-0.3,0.4-0.5,0.7-0.6c0.3-0.1,0.6-0.2,0.9-0.2c0.6,0,1.1,0.1,1.4,0.5c0.3,0.3,0.5,0.8,0.5,1.3v0.1c0,0.4-0.1,0.7-0.3,0.9
							c-0.2,0.3-0.4,0.4-0.8,0.6c0.4,0.1,0.7,0.3,0.9,0.6c0.2,0.3,0.3,0.7,0.3,1.1v0.1c0,0.4-0.1,0.8-0.2,1.1
							c-0.1,0.3-0.4,0.5-0.7,0.7c-0.3,0.2-0.7,0.2-1.1,0.2C579.2,161.5,578.9,161.4,578.5,161.3z"/>
						<path class="st8" d="M558.8,156.2c-0.6-0.4-1.1-0.9-1.5-1.6c-0.4-0.7-0.5-1.5-0.5-2.3v-3.3c0-0.9,0.2-1.7,0.5-2.4
							c0.4-0.7,0.8-1.2,1.5-1.6c0.6-0.4,1.4-0.6,2.2-0.6c0.7,0,1.3,0.1,1.9,0.4c0.6,0.3,1.1,0.7,1.5,1.3c0.4,0.5,0.7,1.2,0.8,1.9
							h-1.7c-0.1-0.4-0.3-0.7-0.5-1c-0.2-0.3-0.5-0.5-0.8-0.7c-0.3-0.2-0.7-0.2-1-0.2c-0.5,0-0.9,0.1-1.3,0.4
							c-0.4,0.2-0.6,0.6-0.8,1c-0.2,0.4-0.3,0.9-0.3,1.5v3.3c0,0.6,0.1,1.1,0.3,1.5c0.2,0.4,0.5,0.8,0.8,1c0.4,0.3,0.8,0.4,1.3,0.4
							c0.4,0,0.7-0.1,1-0.2c0.3-0.2,0.6-0.4,0.8-0.7c0.3-0.3,0.4-0.6,0.5-1.1h1.7c-0.1,0.7-0.4,1.3-0.8,1.9c-0.4,0.5-0.9,1-1.5,1.2
							c-0.6,0.3-1.2,0.4-1.9,0.4C560.2,156.7,559.5,156.5,558.8,156.2z"/>
						<path class="st8" d="M567.7,144.6h1.7v12h-1.7V144.6z M568.7,149.9h6.7v1.6h-6.7V149.9z M574.5,144.6h1.7v12h-1.7V144.6z"/>
						<path class="st8" d="M168.5,362.4l2.4-3.2c0.1-0.2,0.3-0.4,0.3-0.6c0.1-0.2,0.1-0.4,0.1-0.6v0c0-0.3-0.1-0.5-0.2-0.6
							c-0.2-0.2-0.4-0.2-0.7-0.2c-0.3,0-0.5,0.1-0.7,0.3c-0.2,0.2-0.3,0.4-0.3,0.7h-1c0.1-0.4,0.2-0.7,0.4-1
							c0.2-0.3,0.4-0.5,0.7-0.6c0.3-0.2,0.6-0.2,1-0.2c0.4,0,0.8,0.1,1.1,0.2c0.3,0.1,0.5,0.4,0.7,0.6c0.2,0.3,0.2,0.6,0.2,1
							c0,0.2-0.1,0.5-0.2,0.8c-0.1,0.3-0.2,0.5-0.4,0.8l-2,2.7h2.6v0.9h-3.9L168.5,362.4L168.5,362.4z"/>
						<path class="st8" d="M214.5,363.1c-0.3-0.1-0.5-0.4-0.7-0.6c-0.2-0.3-0.3-0.6-0.3-1h1c0,0.2,0.1,0.4,0.2,0.5
							c0.1,0.1,0.2,0.2,0.4,0.3c0.2,0.1,0.3,0.1,0.5,0.1c0.3,0,0.6-0.1,0.7-0.3c0.2-0.2,0.3-0.4,0.3-0.7v-0.2c0-0.4-0.1-0.6-0.3-0.8
							c-0.2-0.2-0.4-0.3-0.7-0.3h-0.5v-0.9h0.5c0.3,0,0.5-0.1,0.6-0.2c0.2-0.2,0.2-0.4,0.2-0.7v-0.2c0-0.3-0.1-0.5-0.2-0.6
							c-0.2-0.2-0.4-0.2-0.7-0.2c-0.2,0-0.3,0-0.5,0.1s-0.2,0.2-0.3,0.3c-0.1,0.1-0.2,0.3-0.2,0.5h-1c0.1-0.4,0.2-0.7,0.4-1
							c0.2-0.3,0.4-0.5,0.7-0.6c0.3-0.1,0.6-0.2,0.9-0.2c0.6,0,1.1,0.2,1.4,0.5c0.3,0.3,0.5,0.8,0.5,1.3v0.1c0,0.4-0.1,0.6-0.3,0.9
							c-0.2,0.3-0.5,0.5-0.8,0.6c0.4,0.1,0.7,0.3,0.9,0.6s0.3,0.7,0.3,1.1v0.1c0,0.4-0.1,0.7-0.2,1c-0.2,0.3-0.4,0.5-0.7,0.7
							c-0.3,0.2-0.7,0.2-1.1,0.2C215.2,363.3,214.8,363.3,214.5,363.1z"/>
						<path class="st8" d="M149.8,358c-0.6-0.4-1.1-0.9-1.5-1.6c-0.4-0.7-0.5-1.5-0.5-2.4v-3.3c0-0.9,0.2-1.7,0.5-2.3
							c0.4-0.7,0.8-1.2,1.5-1.6c0.6-0.4,1.4-0.6,2.2-0.6c0.7,0,1.3,0.1,1.9,0.4c0.6,0.3,1.1,0.7,1.4,1.3c0.4,0.5,0.6,1.2,0.8,1.9
							h-1.7c-0.1-0.4-0.3-0.7-0.5-1c-0.2-0.3-0.5-0.5-0.9-0.7c-0.3-0.2-0.7-0.3-1-0.3c-0.5,0-0.9,0.1-1.3,0.4
							c-0.4,0.3-0.7,0.6-0.9,1c-0.2,0.4-0.3,0.9-0.3,1.5v3.3c0,0.6,0.1,1.1,0.3,1.5c0.2,0.4,0.5,0.8,0.9,1c0.4,0.2,0.8,0.4,1.3,0.4
							c0.4,0,0.7-0.1,1-0.2s0.6-0.4,0.9-0.7c0.2-0.3,0.4-0.6,0.5-1h1.7c-0.1,0.7-0.4,1.3-0.8,1.9c-0.4,0.5-0.9,1-1.4,1.3
							c-0.6,0.3-1.2,0.4-1.9,0.4C151.1,358.6,150.4,358.4,149.8,358z"/>
						<path class="st8" d="M158.6,346.4h1.7v12h-1.7V346.4z M159.7,351.7h6.7v1.6h-6.7V351.7z M165.4,346.4h1.7v12h-1.7V346.4z"/>
						<path class="st8" d="M194.8,358c-0.6-0.4-1.1-0.9-1.5-1.6c-0.4-0.7-0.5-1.5-0.5-2.4v-3.3c0-0.9,0.2-1.7,0.5-2.3
							c0.4-0.7,0.8-1.2,1.5-1.6c0.6-0.4,1.4-0.6,2.2-0.6c0.7,0,1.3,0.1,1.9,0.4c0.6,0.3,1.1,0.7,1.4,1.3c0.4,0.5,0.6,1.2,0.8,1.9
							h-1.7c-0.1-0.4-0.3-0.7-0.5-1c-0.2-0.3-0.5-0.5-0.9-0.7c-0.3-0.2-0.7-0.3-1-0.3c-0.5,0-0.9,0.1-1.3,0.4
							c-0.4,0.3-0.7,0.6-0.9,1c-0.2,0.4-0.3,0.9-0.3,1.5v3.3c0,0.6,0.1,1.1,0.3,1.5c0.2,0.4,0.5,0.8,0.9,1c0.4,0.2,0.8,0.4,1.3,0.4
							c0.4,0,0.7-0.1,1-0.2c0.3-0.2,0.6-0.4,0.9-0.7c0.2-0.3,0.4-0.6,0.5-1h1.7c-0.1,0.7-0.4,1.3-0.8,1.9c-0.4,0.5-0.9,1-1.4,1.3
							c-0.6,0.3-1.2,0.4-1.9,0.4C196.1,358.6,195.4,358.4,194.8,358z"/>
						<path class="st8" d="M203.6,346.4h1.7v12h-1.7V346.4z M204.7,351.7h6.7v1.6h-6.7V351.7z M210.4,346.4h1.7v12h-1.7V346.4z"/>
						<path class="st8" d="M188.6,354.4c-0.1,0.1-0.1,0.1-0.2,0.1h-9.6c-0.1,0-0.2,0-0.2-0.1c-0.1-0.1-0.1-0.1-0.1-0.2
							c0-0.1,0-0.2,0.1-0.2c0.1-0.1,0.1-0.1,0.2-0.1h9.6c0.1,0,0.2,0,0.2,0.1c0.1,0.1,0.1,0.1,0.1,0.2
							C188.7,354.3,188.7,354.4,188.6,354.4z"/>
						<path class="st8" d="M290.3,536.4c-0.3-0.1-0.5-0.4-0.7-0.6c-0.2-0.3-0.3-0.6-0.4-1h1c0,0.2,0.1,0.4,0.2,0.5s0.2,0.2,0.4,0.3
							c0.1,0.1,0.3,0.1,0.5,0.1c0.3,0,0.6-0.1,0.8-0.3c0.2-0.2,0.3-0.4,0.3-0.7v-0.2c0-0.4-0.1-0.6-0.3-0.8
							c-0.2-0.2-0.4-0.3-0.7-0.3h-0.5v-0.9h0.5c0.3,0,0.5-0.1,0.6-0.2c0.2-0.2,0.2-0.4,0.2-0.7v-0.2c0-0.3-0.1-0.5-0.2-0.6
							c-0.2-0.2-0.4-0.2-0.7-0.2c-0.2,0-0.3,0-0.4,0.1c-0.1,0.1-0.3,0.2-0.4,0.3s-0.1,0.3-0.2,0.5h-1c0.1-0.4,0.2-0.7,0.4-1
							c0.2-0.3,0.4-0.5,0.7-0.6c0.3-0.1,0.6-0.2,0.9-0.2c0.6,0,1.1,0.2,1.4,0.5c0.3,0.3,0.5,0.8,0.5,1.3v0.1c0,0.4-0.1,0.6-0.3,0.9
							c-0.2,0.3-0.4,0.5-0.8,0.6c0.4,0.1,0.7,0.3,0.9,0.6c0.2,0.3,0.3,0.7,0.3,1.1v0.1c0,0.4-0.1,0.7-0.2,1
							c-0.1,0.3-0.4,0.5-0.7,0.7c-0.3,0.2-0.7,0.2-1.1,0.2C290.9,536.6,290.6,536.6,290.3,536.4z"/>
						<path class="st8" d="M270.5,531.3c-0.6-0.4-1.1-0.9-1.5-1.6c-0.4-0.7-0.5-1.5-0.5-2.4v-3.3c0-0.9,0.2-1.7,0.5-2.4
							c0.4-0.7,0.8-1.2,1.5-1.6c0.6-0.4,1.4-0.6,2.2-0.6c0.7,0,1.3,0.2,1.9,0.5s1.1,0.7,1.5,1.3c0.4,0.5,0.6,1.2,0.8,1.9h-1.7
							c-0.1-0.4-0.3-0.7-0.5-1c-0.2-0.3-0.5-0.5-0.9-0.7c-0.3-0.2-0.7-0.2-1-0.2c-0.5,0-0.9,0.1-1.3,0.4c-0.4,0.2-0.7,0.6-0.9,1
							c-0.2,0.4-0.3,0.9-0.3,1.5v3.3c0,0.6,0.1,1.1,0.3,1.5c0.2,0.4,0.5,0.8,0.9,1c0.4,0.2,0.8,0.4,1.3,0.4c0.4,0,0.7-0.1,1-0.2
							c0.3-0.2,0.6-0.4,0.9-0.7c0.2-0.3,0.4-0.6,0.5-1h1.7c-0.1,0.7-0.4,1.3-0.8,1.9c-0.4,0.5-0.9,1-1.5,1.3s-1.2,0.4-1.9,0.4
							C271.9,531.8,271.2,531.7,270.5,531.3z"/>
						<path class="st8" d="M279.4,519.7h1.7v12h-1.7V519.7z M280.4,525h6.7v1.6h-6.7V525z M286.2,519.7h1.7v12h-1.7V519.7z"/>
						<path class="st8" d="M480.2,365.6c-0.3-0.1-0.5-0.4-0.7-0.6c-0.2-0.3-0.3-0.6-0.4-1h1c0,0.2,0.1,0.4,0.2,0.5
							c0.1,0.1,0.2,0.2,0.4,0.3c0.1,0.1,0.3,0.1,0.5,0.1c0.3,0,0.6-0.1,0.8-0.3c0.2-0.2,0.3-0.4,0.3-0.7v-0.2c0-0.4-0.1-0.6-0.3-0.8
							c-0.2-0.2-0.4-0.3-0.7-0.3h-0.5v-0.9h0.5c0.3,0,0.5-0.1,0.6-0.2c0.2-0.2,0.2-0.4,0.2-0.7v-0.2c0-0.3-0.1-0.5-0.2-0.6
							c-0.2-0.2-0.4-0.2-0.7-0.2c-0.2,0-0.3,0-0.4,0.1c-0.1,0.1-0.3,0.2-0.4,0.3c-0.1,0.1-0.1,0.3-0.2,0.5h-1c0.1-0.4,0.2-0.7,0.4-1
							c0.2-0.3,0.4-0.5,0.7-0.6c0.3-0.1,0.6-0.2,0.9-0.2c0.6,0,1.1,0.2,1.4,0.5c0.3,0.3,0.5,0.8,0.5,1.3v0.1c0,0.4-0.1,0.6-0.3,0.9
							c-0.2,0.3-0.4,0.5-0.8,0.6c0.4,0.1,0.7,0.3,0.9,0.6c0.2,0.3,0.3,0.7,0.3,1.1v0.1c0,0.4-0.1,0.7-0.2,1
							c-0.1,0.3-0.4,0.5-0.7,0.7c-0.3,0.2-0.7,0.2-1.1,0.2C480.9,365.8,480.6,365.8,480.2,365.6z"/>
						<path class="st8" d="M460.5,360.5c-0.6-0.4-1.1-0.9-1.5-1.6c-0.4-0.7-0.5-1.5-0.5-2.4v-3.3c0-0.9,0.2-1.7,0.5-2.4
							c0.4-0.7,0.8-1.2,1.5-1.6c0.6-0.4,1.4-0.6,2.2-0.6c0.7,0,1.3,0.2,1.9,0.4c0.6,0.3,1.1,0.7,1.5,1.3c0.4,0.5,0.7,1.2,0.8,1.9
							h-1.7c-0.1-0.4-0.3-0.7-0.5-1c-0.2-0.3-0.5-0.5-0.8-0.7c-0.3-0.1-0.7-0.2-1-0.2c-0.5,0-0.9,0.1-1.3,0.4
							c-0.4,0.2-0.6,0.6-0.8,1c-0.2,0.4-0.3,0.9-0.3,1.5v3.3c0,0.6,0.1,1.1,0.3,1.5c0.2,0.4,0.5,0.8,0.8,1c0.4,0.2,0.8,0.4,1.3,0.4
							c0.4,0,0.7-0.1,1-0.2c0.3-0.2,0.6-0.4,0.8-0.7c0.2-0.3,0.4-0.6,0.5-1h1.7c-0.1,0.7-0.4,1.3-0.8,1.9c-0.4,0.5-0.9,1-1.5,1.3
							c-0.6,0.3-1.2,0.4-1.9,0.4C461.9,361,461.2,360.9,460.5,360.5z"/>
						<path class="st8" d="M469.4,348.9h1.7v12h-1.7V348.9z M470.4,354.2h6.7v1.6h-6.7V354.2z M476.1,348.9h1.7v12h-1.7V348.9z"/>
						<path class="st8" d="M454.4,588.1l2.4-3.2c0.1-0.2,0.3-0.4,0.3-0.6c0.1-0.2,0.1-0.4,0.1-0.6v0c0-0.3-0.1-0.5-0.3-0.6
							c-0.1-0.2-0.4-0.2-0.7-0.2c-0.3,0-0.5,0.1-0.7,0.3c-0.2,0.2-0.3,0.4-0.3,0.7h-1c0-0.4,0.2-0.7,0.4-1c0.2-0.3,0.4-0.5,0.7-0.6
							c0.3-0.2,0.6-0.2,1-0.2c0.4,0,0.8,0.1,1.1,0.2c0.3,0.1,0.5,0.4,0.7,0.6c0.1,0.3,0.2,0.6,0.2,1c0,0.2,0,0.5-0.1,0.8
							c-0.1,0.3-0.3,0.5-0.4,0.8l-2,2.7h2.6v0.9h-3.9V588.1z"/>
						<path class="st8" d="M499.2,588.1l2.4-3.2c0.1-0.2,0.3-0.4,0.3-0.6c0.1-0.2,0.1-0.4,0.1-0.6v0c0-0.3-0.1-0.5-0.2-0.6
							c-0.2-0.2-0.4-0.2-0.7-0.2c-0.3,0-0.5,0.1-0.7,0.3c-0.2,0.2-0.3,0.4-0.3,0.7h-1c0-0.4,0.2-0.7,0.4-1c0.2-0.3,0.4-0.5,0.7-0.6
							c0.3-0.2,0.6-0.2,1-0.2c0.4,0,0.8,0.1,1.1,0.2c0.3,0.1,0.5,0.4,0.7,0.6c0.2,0.3,0.2,0.6,0.2,1c0,0.2-0.1,0.5-0.2,0.8
							c-0.1,0.3-0.2,0.5-0.4,0.8l-2,2.7h2.6v0.9h-3.9V588.1z"/>
						<path class="st8" d="M544.9,588.8c-0.3-0.1-0.5-0.4-0.7-0.6c-0.2-0.3-0.3-0.6-0.4-1h1c0,0.2,0.1,0.4,0.2,0.5s0.2,0.2,0.4,0.3
							s0.3,0.1,0.5,0.1c0.3,0,0.6-0.1,0.8-0.3c0.2-0.2,0.3-0.4,0.3-0.7v-0.2c0-0.4-0.1-0.6-0.3-0.8c-0.2-0.2-0.4-0.3-0.7-0.3h-0.5
							v-0.9h0.5c0.3,0,0.5-0.1,0.6-0.2c0.2-0.2,0.2-0.4,0.2-0.7v-0.2c0-0.3-0.1-0.5-0.2-0.6c-0.2-0.2-0.4-0.2-0.7-0.2
							c-0.2,0-0.3,0-0.4,0.1c-0.1,0.1-0.2,0.2-0.4,0.3c-0.1,0.1-0.1,0.3-0.2,0.5h-1c0-0.4,0.2-0.7,0.4-1c0.2-0.3,0.4-0.5,0.7-0.6
							c0.3-0.1,0.6-0.2,0.9-0.2c0.6,0,1.1,0.2,1.4,0.5c0.3,0.3,0.5,0.8,0.5,1.3v0.1c0,0.4-0.1,0.6-0.3,0.9c-0.2,0.3-0.5,0.5-0.8,0.6
							c0.4,0.1,0.7,0.3,0.9,0.6c0.2,0.3,0.3,0.7,0.3,1.1v0.1c0,0.4-0.1,0.7-0.2,1c-0.1,0.3-0.4,0.5-0.7,0.7
							c-0.3,0.2-0.6,0.2-1.1,0.2C545.6,589,545.2,588.9,544.9,588.8z"/>
						<path class="st8" d="M435.8,583.6c-0.6-0.4-1.1-0.9-1.5-1.6c-0.4-0.7-0.5-1.5-0.5-2.3v-3.3c0-0.9,0.2-1.7,0.5-2.3
							c0.4-0.7,0.8-1.2,1.5-1.6c0.6-0.4,1.4-0.6,2.2-0.6c0.7,0,1.3,0.1,1.9,0.4c0.6,0.3,1.1,0.7,1.5,1.3c0.4,0.5,0.7,1.2,0.8,1.9
							h-1.7c-0.1-0.4-0.3-0.7-0.5-1c-0.2-0.3-0.5-0.5-0.8-0.7c-0.3-0.2-0.7-0.2-1-0.2c-0.5,0-0.9,0.1-1.3,0.4
							c-0.4,0.2-0.7,0.6-0.9,1c-0.2,0.4-0.3,0.9-0.3,1.5v3.3c0,0.6,0.1,1.1,0.3,1.5c0.2,0.4,0.5,0.8,0.9,1s0.8,0.4,1.3,0.4
							c0.4,0,0.7-0.1,1-0.2c0.3-0.2,0.6-0.4,0.9-0.7c0.2-0.3,0.4-0.6,0.5-1h1.7c-0.1,0.7-0.4,1.3-0.8,1.9c-0.4,0.5-0.9,1-1.5,1.3
							c-0.6,0.3-1.2,0.4-1.9,0.4C437.2,584.2,436.4,584,435.8,583.6z"/>
						<path class="st8" d="M444.6,572h1.7v12h-1.7V572z M445.6,577.4h6.6v1.6h-6.6V577.4z M451.4,572h1.7v12h-1.7V572z"/>
						<path class="st8" d="M480.5,583.6c-0.6-0.4-1.1-0.9-1.5-1.6c-0.4-0.7-0.5-1.5-0.5-2.3v-3.3c0-0.9,0.2-1.7,0.5-2.3
							c0.4-0.7,0.8-1.2,1.5-1.6c0.6-0.4,1.4-0.6,2.2-0.6c0.7,0,1.3,0.1,1.9,0.4c0.6,0.3,1.1,0.7,1.4,1.3c0.4,0.5,0.6,1.2,0.8,1.9
							h-1.7c-0.1-0.4-0.3-0.7-0.5-1c-0.2-0.3-0.5-0.5-0.9-0.7c-0.3-0.2-0.7-0.2-1-0.2c-0.5,0-0.9,0.1-1.3,0.4
							c-0.4,0.2-0.7,0.6-0.9,1c-0.2,0.4-0.3,0.9-0.3,1.5v3.3c0,0.6,0.1,1.1,0.3,1.5c0.2,0.4,0.5,0.8,0.9,1c0.4,0.2,0.8,0.4,1.3,0.4
							c0.4,0,0.7-0.1,1-0.2c0.3-0.2,0.6-0.4,0.9-0.7c0.2-0.3,0.4-0.6,0.5-1h1.7c-0.1,0.7-0.4,1.3-0.8,1.9c-0.4,0.5-0.9,1-1.4,1.3
							c-0.6,0.3-1.2,0.4-1.9,0.4C481.9,584.2,481.2,584,480.5,583.6z"/>
						<path class="st8" d="M489.3,572h1.7v12h-1.7V572z M490.4,577.4h6.6v1.6h-6.6V577.4z M496.1,572h1.7v12h-1.7V572z"/>
						<path class="st8" d="M525.3,583.6c-0.6-0.4-1.1-0.9-1.5-1.6c-0.4-0.7-0.5-1.5-0.5-2.3v-3.3c0-0.9,0.2-1.7,0.5-2.3
							c0.4-0.7,0.8-1.2,1.5-1.6c0.6-0.4,1.4-0.6,2.2-0.6c0.7,0,1.3,0.1,1.9,0.4c0.6,0.3,1.1,0.7,1.5,1.3c0.4,0.5,0.7,1.2,0.8,1.9
							h-1.7c-0.1-0.4-0.3-0.7-0.5-1c-0.2-0.3-0.5-0.5-0.8-0.7c-0.3-0.2-0.7-0.2-1-0.2c-0.5,0-0.9,0.1-1.3,0.4
							c-0.4,0.2-0.7,0.6-0.9,1c-0.2,0.4-0.3,0.9-0.3,1.5v3.3c0,0.6,0.1,1.1,0.3,1.5c0.2,0.4,0.5,0.8,0.9,1c0.4,0.2,0.8,0.4,1.3,0.4
							c0.4,0,0.7-0.1,1-0.2c0.3-0.2,0.6-0.4,0.9-0.7c0.2-0.3,0.4-0.6,0.5-1h1.7c-0.1,0.7-0.4,1.3-0.8,1.9c-0.4,0.5-0.9,1-1.5,1.3
							c-0.6,0.3-1.2,0.4-1.9,0.4C526.6,584.2,525.9,584,525.3,583.6z"/>
						<path class="st8" d="M534.1,572h1.7v12h-1.7V572z M535.1,577.4h6.6v1.6h-6.6V577.4z M540.9,572h1.7v12h-1.7V572z"/>
						<path class="st8" d="M474.4,580.1c-0.1,0.1-0.1,0.1-0.2,0.1h-9.6c-0.1,0-0.2,0-0.2-0.1c-0.1-0.1-0.1-0.1-0.1-0.2
							c0-0.1,0-0.2,0.1-0.2c0.1-0.1,0.1-0.1,0.2-0.1h9.6c0.1,0,0.2,0,0.2,0.1c0.1,0.1,0.1,0.1,0.1,0.2
							C474.5,579.9,474.5,580,474.4,580.1z"/>
						<path class="st8" d="M519.2,580.1c-0.1,0.1-0.1,0.1-0.2,0.1h-9.6c-0.1,0-0.2,0-0.2-0.1c-0.1-0.1-0.1-0.1-0.1-0.2
							c0-0.1,0-0.2,0.1-0.2c0.1-0.1,0.1-0.1,0.2-0.1h9.6c0.1,0,0.2,0,0.2,0.1s0.1,0.1,0.1,0.2C519.3,579.9,519.2,580,519.2,580.1z"
							/>
						<path d="M40,89.4L38.8,93h-1.5l3.9-11.4H43L46.9,93h-1.6l-1.2-3.6H40z M43.8,88.3L42.6,85c-0.3-0.8-0.4-1.4-0.6-2.1h0
							c-0.2,0.7-0.4,1.4-0.6,2l-1.1,3.3H43.8z"/>
						<path d="M357.6,84.2c0.6-0.1,1.7-0.3,2.7-0.3c1.5,0,2.4,0.3,3.1,0.8c0.6,0.4,0.9,1.1,0.9,2c0,1.1-0.7,2-1.9,2.5v0
							c1.1,0.3,2.3,1.2,2.3,2.9c0,1-0.4,1.7-1,2.3c-0.8,0.7-2.1,1.1-3.9,1.1c-1,0-1.8-0.1-2.3-0.1V84.2z M359.1,88.8h1.3
							c1.5,0,2.5-0.8,2.5-1.9c0-1.3-1-1.9-2.5-1.9c-0.7,0-1.1,0-1.3,0.1L359.1,88.8L359.1,88.8z M359.1,94.3
							c0.3,0.1,0.7,0.1,1.2,0.1c1.5,0,2.9-0.6,2.9-2.2c0-1.5-1.3-2.2-2.9-2.2h-1.2L359.1,94.3L359.1,94.3z"/>
						<path d="M65.3,378.6c-0.5,0.3-1.6,0.5-3,0.5c-3.2,0-5.6-2-5.6-5.8c0-3.6,2.4-6,5.9-6c1.4,0,2.3,0.3,2.7,0.5l-0.4,1.2
							c-0.6-0.3-1.4-0.5-2.3-0.5c-2.7,0-4.4,1.7-4.4,4.7c0,2.8,1.6,4.6,4.4,4.6c0.9,0,1.8-0.2,2.4-0.5L65.3,378.6z"/>
						<path d="M391.1,355.8c0.9-0.1,2-0.2,3.1-0.2c2.1,0,3.6,0.5,4.6,1.4c1,0.9,1.6,2.2,1.6,4.1c0,1.9-0.6,3.4-1.6,4.4
							c-1.1,1.1-2.8,1.6-5,1.6c-1,0-1.9-0.1-2.7-0.1V355.8z M392.6,365.8c0.4,0.1,0.9,0.1,1.5,0.1c3.1,0,4.9-1.8,4.9-4.8
							c0-2.7-1.5-4.4-4.6-4.4c-0.8,0-1.3,0.1-1.7,0.2V365.8z"/>
					</g>
				</g>
			</g>
		</g>
	</g>
</g>
<rect x="206.4" y="80.7" class="st9" width="11.2" height="14"/>
<g>
	<g>
		<g>
			<path d="M208.8,91.4c-0.4-0.2-0.7-0.4-0.9-0.8c-0.2-0.3-0.4-0.7-0.4-1.2h1.2c0,0.2,0.1,0.4,0.2,0.6c0.1,0.2,0.3,0.3,0.5,0.3
				s0.4,0.1,0.7,0.1c0.4,0,0.7-0.1,0.9-0.3c0.2-0.2,0.3-0.5,0.3-0.9V89c0-0.4-0.1-0.8-0.3-1c-0.2-0.2-0.5-0.3-0.9-0.3h-0.6v-1.1h0.6
				c0.3,0,0.6-0.1,0.8-0.3c0.2-0.2,0.3-0.5,0.3-0.8v-0.3c0-0.3-0.1-0.6-0.3-0.8c-0.2-0.2-0.5-0.3-0.8-0.3c-0.2,0-0.4,0-0.5,0.1
				c-0.2,0.1-0.3,0.2-0.4,0.4c-0.1,0.2-0.2,0.4-0.2,0.6h-1.2c0.1-0.5,0.2-0.9,0.4-1.2s0.5-0.6,0.8-0.8c0.3-0.2,0.7-0.3,1.1-0.3
				c0.7,0,1.3,0.2,1.7,0.6c0.4,0.4,0.6,0.9,0.6,1.6v0.1c0,0.4-0.1,0.8-0.3,1.1c-0.2,0.3-0.6,0.5-1,0.7c0.5,0.1,0.8,0.3,1.1,0.7
				c0.3,0.4,0.4,0.8,0.4,1.4v0.1c0,0.5-0.1,0.9-0.3,1.3c-0.2,0.4-0.5,0.6-0.8,0.8c-0.4,0.2-0.8,0.3-1.3,0.3
				C209.6,91.6,209.2,91.6,208.8,91.4z"/>
		</g>
	</g>
</g>
</svg>
