<svg xmlns="http://www.w3.org/2000/svg" viewBox="0 0 359.67 138.17"><defs><style>.a{fill:none;stroke:#000;stroke-miterlimit:10;}</style></defs><title>Untitled-1</title><rect class="a" x="53.5" y="75.67" width="78.67" height="25" rx="2.83" ry="2.83"/><rect class="a" x="53.83" y="41.67" width="77.67" height="25" rx="2.83" ry="2.83"/><rect class="a" x="54.17" y="113.67" width="78.33" height="24" rx="2.83" ry="2.83"/><rect class="a" x="0.5" y="38" height="1"/><line class="a" x1="132.17" y1="52.33" x2="151.8" y2="52.59"/><path d="M116,17.33A30.28,30.28,0,0,0,107.39,22l1.78-4.74-1.65-4.77A30,30,0,0,0,116,17.33Z" transform="translate(41.83 35.33)"/><line class="a" x1="132.5" y1="84" x2="152.13" y2="84.25"/><path d="M116.33,49a30.51,30.51,0,0,0-8.61,4.64l1.79-4.73-1.66-4.78A30.1,30.1,0,0,0,116.33,49Z" transform="translate(41.83 35.33)"/><line class="a" x1="132.5" y1="123.67" x2="152.13" y2="123.92"/><path d="M116.33,88.67a30.26,30.26,0,0,0-8.61,4.64l1.79-4.73-1.66-4.78A30.35,30.35,0,0,0,116.33,88.67Z" transform="translate(41.83 35.33)"/><rect class="a" x="157.5" y="40.67" width="109" height="26" rx="7.17" ry="7.17"/><rect class="a" x="157.83" y="113.67" width="108.33" height="24" rx="7.17" ry="7.17"/><rect class="a" x="158.5" y="71.33" width="108.33" height="37.33" rx="7.17" ry="7.17"/><rect class="a" x="255.17" height="1.33"/><path d="M224.69,8c1.68-2,4.55-1.57,6.8-1s3.87.64,4.58,3.12c1.19,4.15.42,9.05.41,13.33,0,3.64-.11,7.9,1.92,11.09,2.17,3.44,6.28,3.93,10,3.66a.5.5,0,0,0,0-1c-3.18-.35-7.5-1.25-10.13,1.17-3,2.72-2.25,8.43-2.15,12,.06,2.17,0,4.34.11,6.51.16,2.48.58,5.13,0,7.59-1.06,4.83-8.21,5.51-12.15,4.1-.6-.22-.87.75-.26,1a13.79,13.79,0,0,0,10.43-.79c3.6-1.94,3.34-6.28,3.1-9.84a96,96,0,0,1-.22-14.59c.26-3,1.13-5.79,4.47-6.37a24.05,24.05,0,0,1,6.77.28v-1c-2.8.2-6,.13-8.14-1.92-1.63-1.53-2.23-3.8-2.53-5.94-.62-4.5-.16-9.12-.15-13.64,0-2.84.19-7.83-3.09-9-3.06-1.08-8.12-2.31-10.53.62-.41.5.3,1.21.71.71Z" transform="translate(41.83 35.33)"/><rect class="a" x="292.5" y="62" width="66.67" height="24.67" rx="2.33" ry="2.33"/><path d="M48.74,13.19A10.7,10.7,0,0,1,50.65,13a3.33,3.33,0,0,1,2.22.59A1.69,1.69,0,0,1,53.54,15a1.9,1.9,0,0,1-1.37,1.77v0a2.07,2.07,0,0,1,1.67,2,2.15,2.15,0,0,1-.68,1.62,4.06,4.06,0,0,1-2.8.76,11.75,11.75,0,0,1-1.62-.1Zm1,3.31h1c1.1,0,1.75-.57,1.75-1.35,0-1-.72-1.32-1.78-1.32a4.21,4.21,0,0,0-.92.07Zm0,3.88a6.56,6.56,0,0,0,.87,0c1.08,0,2.08-.39,2.08-1.57s-1-1.56-2.09-1.56h-.86Z" transform="translate(41.83 35.33)"/><path d="M44.22,54.46,43.38,57H42.3l2.75-8.08h1.26L49.06,57H48l-.86-2.54Zm2.65-.82-.79-2.33c-.18-.52-.3-1-.42-1.47h0c-.12.48-.25,1-.4,1.46l-.8,2.34Z" transform="translate(41.83 35.33)"/><path d="M49.54,58.47a18.37,18.37,0,0,0,.72-2.86l1.17-.12a13.89,13.89,0,0,1-1.14,2.91Z" transform="translate(41.83 35.33)"/><path d="M58.39,56.74a5.25,5.25,0,0,1-2.14.38,3.77,3.77,0,0,1-4-4.09,4,4,0,0,1,4.22-4.25,4.4,4.4,0,0,1,1.92.36l-.25.86a3.69,3.69,0,0,0-1.63-.34A3,3,0,0,0,53.36,53a2.94,2.94,0,0,0,3.11,3.25,4.22,4.22,0,0,0,1.7-.33Z" transform="translate(41.83 35.33)"/><path d="M48.91,85.69a10.7,10.7,0,0,1,1.91-.17,3.35,3.35,0,0,1,2.22.59,1.69,1.69,0,0,1,.67,1.43,1.92,1.92,0,0,1-1.37,1.77v0a2.07,2.07,0,0,1,1.67,2A2.19,2.19,0,0,1,53.33,93a4.06,4.06,0,0,1-2.8.76,11.75,11.75,0,0,1-1.62-.1ZM50,89h.94c1.11,0,1.75-.57,1.75-1.35,0-1-.72-1.32-1.77-1.32a4.14,4.14,0,0,0-.92.07Zm0,3.88a6.56,6.56,0,0,0,.87,0c1.08,0,2.08-.39,2.08-1.57s-.95-1.56-2.09-1.56H50Z" transform="translate(41.83 35.33)"/><path d="M146.62,15.25v8.08h-1V15.25Z" transform="translate(41.83 35.33)"/><path d="M150.7,22.71a.72.72,0,0,1,.72-.76.76.76,0,1,1-.72.76Z" transform="translate(41.83 35.33)"/><path d="M156,19.42c0-.74,0-1.34,0-1.89h.95l.05,1h0A2.3,2.3,0,0,1,159,17.4c1.4,0,2.45,1.18,2.45,3,0,2.08-1.27,3.12-2.63,3.12a2,2,0,0,1-1.79-.92h0v3.16H156ZM157,21a2.74,2.74,0,0,0,0,.43,1.64,1.64,0,0,0,1.59,1.24c1.11,0,1.76-.91,1.76-2.25,0-1.16-.61-2.15-1.73-2.15a1.67,1.67,0,0,0-1.59,1.3A1.62,1.62,0,0,0,157,20Z" transform="translate(41.83 35.33)"/><path d="M162.81,14.82h1.06v8.51h-1.06Z" transform="translate(41.83 35.33)"/><path d="M166.23,20.62a1.86,1.86,0,0,0,2,2,3.8,3.8,0,0,0,1.61-.3l.18.75a4.71,4.71,0,0,1-1.93.36,2.69,2.69,0,0,1-2.86-2.92c0-1.75,1-3.13,2.72-3.13a2.45,2.45,0,0,1,2.4,2.73,4.68,4.68,0,0,1,0,.49Zm3.09-.75a1.5,1.5,0,0,0-1.46-1.72,1.75,1.75,0,0,0-1.62,1.72Z" transform="translate(41.83 35.33)"/><path d="M171.65,19.1c0-.6,0-1.09,0-1.57h.92l.05.93h0a2,2,0,0,1,1.83-1.06,1.71,1.71,0,0,1,1.64,1.16h0a2.46,2.46,0,0,1,.65-.76,2,2,0,0,1,1.28-.4c.77,0,1.91.5,1.91,2.52v3.41h-1V20.05c0-1.12-.41-1.79-1.26-1.79a1.36,1.36,0,0,0-1.25,1,2,2,0,0,0-.08.53v3.58h-1V19.86c0-.93-.41-1.6-1.21-1.6a1.45,1.45,0,0,0-1.31,1.06,1.4,1.4,0,0,0-.09.51v3.5h-1Z" transform="translate(41.83 35.33)"/><path d="M181.66,19.1c0-.6,0-1.09,0-1.57h.94l.06,1h0a2.14,2.14,0,0,1,1.92-1.09c.81,0,2,.48,2,2.47v3.46h-1V20c0-.94-.35-1.72-1.35-1.72a1.5,1.5,0,0,0-1.41,1.08,1.45,1.45,0,0,0-.07.49v3.49h-1.06Z" transform="translate(41.83 35.33)"/><path d="M189.5,15.9a.63.63,0,0,1-.68.65.63.63,0,0,1-.63-.65.65.65,0,0,1,.66-.66A.63.63,0,0,1,189.5,15.9Zm-1.18,7.43v-5.8h1.06v5.8Z" transform="translate(41.83 35.33)"/><path d="M192.17,20.19h0c.14-.2.34-.45.51-.66l1.71-2h1.27l-2.25,2.39L196,23.33h-1.28l-2-2.78-.54.6v2.18h-1V14.82h1Z" transform="translate(41.83 35.33)"/><path d="M198.14,15.9a.63.63,0,0,1-.68.65.63.63,0,0,1-.63-.65.65.65,0,0,1,.66-.66A.63.63,0,0,1,198.14,15.9ZM197,23.33v-5.8H198v5.8Z" transform="translate(41.83 35.33)"/><path d="M129.62,44.58v8.09h-1V44.58Z" transform="translate(41.83 35.33)"/><path d="M132.49,44.58v8.09h-1V44.58Z" transform="translate(41.83 35.33)"/><path d="M134,52a.71.71,0,0,1,.72-.75.69.69,0,0,1,.7.75A.71.71,0,1,1,134,52Z" transform="translate(41.83 35.33)"/><path d="M139.31,48.76c0-.75,0-1.35-.05-1.9h1l0,1h0a2.27,2.27,0,0,1,2.06-1.13c1.4,0,2.46,1.19,2.46,3,0,2.09-1.27,3.12-2.64,3.12a2.05,2.05,0,0,1-1.79-.91h0V55h-1Zm1,1.54a2,2,0,0,0,.05.44A1.62,1.62,0,0,0,142,52c1.12,0,1.76-.91,1.76-2.24,0-1.16-.61-2.16-1.72-2.16a1.7,1.7,0,0,0-1.6,1.31,1.93,1.93,0,0,0-.07.43Z" transform="translate(41.83 35.33)"/><path d="M146.18,52.67V49.21l-.81.7v-.83l.81-.71V44.15h1.06v3.42l.85-.73v.84l-.85.73v4.26Z" transform="translate(41.83 35.33)"/><path d="M149.42,46.86l1.27,3.43c.13.39.28.84.37,1.19h0c.11-.35.23-.79.37-1.21l1.15-3.41h1.12L152.14,51c-.75,2-1.27,3-2,3.63a2.85,2.85,0,0,1-1.29.69l-.27-.89a2.59,2.59,0,0,0,.93-.52,3.18,3.18,0,0,0,.88-1.17.76.76,0,0,0,.09-.25,1.22,1.22,0,0,0-.07-.28l-2.15-5.35Z" transform="translate(41.83 35.33)"/><path d="M154.69,48.43c0-.6,0-1.09-.05-1.57h.94l.06,1h0a2.14,2.14,0,0,1,1.92-1.09c.8,0,2,.48,2,2.47v3.47h-1V49.32c0-.93-.35-1.71-1.35-1.71a1.5,1.5,0,0,0-1.41,1.07,1.55,1.55,0,0,0-.07.5v3.49h-1.06Z" transform="translate(41.83 35.33)"/><path d="M161.94,50a1.85,1.85,0,0,0,2,2,3.75,3.75,0,0,0,1.6-.3l.19.76a4.72,4.72,0,0,1-1.94.36,2.7,2.7,0,0,1-2.85-2.93c0-1.75,1-3.13,2.72-3.13a2.46,2.46,0,0,1,2.4,2.73,2.85,2.85,0,0,1,0,.5ZM165,49.2a1.5,1.5,0,0,0-1.46-1.71A1.74,1.74,0,0,0,162,49.2Z" transform="translate(41.83 35.33)"/><path d="M170.49,50a1.86,1.86,0,0,0,2,2,3.8,3.8,0,0,0,1.61-.3l.18.76a4.67,4.67,0,0,1-1.93.36,2.69,2.69,0,0,1-2.85-2.93c0-1.75,1-3.13,2.72-3.13a2.46,2.46,0,0,1,2.4,2.73,4.36,4.36,0,0,1,0,.5Zm3.1-.76a1.5,1.5,0,0,0-1.47-1.71,1.74,1.74,0,0,0-1.61,1.71Z" transform="translate(41.83 35.33)"/><path d="M175.92,44.15H177v8.52h-1.05Z" transform="translate(41.83 35.33)"/><path d="M179.34,50a1.85,1.85,0,0,0,2,2,3.83,3.83,0,0,0,1.61-.3l.17.76a4.63,4.63,0,0,1-1.93.36,2.7,2.7,0,0,1-2.85-2.93c0-1.75,1-3.13,2.72-3.13a2.46,2.46,0,0,1,2.4,2.73,2.85,2.85,0,0,1,0,.5Zm3.09-.76A1.5,1.5,0,0,0,181,47.49a1.74,1.74,0,0,0-1.62,1.71Z" transform="translate(41.83 35.33)"/><path d="M184.76,48.43c0-.6,0-1.09,0-1.57h.93l0,.94h0a2,2,0,0,1,1.82-1.07,1.74,1.74,0,0,1,1.65,1.16h0a2.42,2.42,0,0,1,.65-.75,2,2,0,0,1,1.28-.41c.77,0,1.91.5,1.91,2.52v3.42h-1V49.38c0-1.11-.41-1.79-1.26-1.79a1.38,1.38,0,0,0-1.25,1,1.74,1.74,0,0,0-.08.53v3.59h-1V49.19c0-.92-.41-1.6-1.22-1.6a1.6,1.6,0,0,0-1.39,1.57v3.51h-1Z" transform="translate(41.83 35.33)"/><path d="M195.36,50a1.85,1.85,0,0,0,2,2,3.75,3.75,0,0,0,1.6-.3l.18.76a4.63,4.63,0,0,1-1.93.36,2.7,2.7,0,0,1-2.85-2.93c0-1.75,1-3.13,2.72-3.13a2.46,2.46,0,0,1,2.4,2.73,2.85,2.85,0,0,1,0,.5Zm3.09-.76A1.5,1.5,0,0,0,197,47.49a1.74,1.74,0,0,0-1.62,1.71Z" transform="translate(41.83 35.33)"/><path d="M200.78,48.43c0-.6,0-1.09-.05-1.57h.94l.06,1h0a2.14,2.14,0,0,1,1.92-1.09c.8,0,2.05.48,2.05,2.47v3.47h-1.05V49.32c0-.93-.35-1.71-1.35-1.71a1.5,1.5,0,0,0-1.41,1.07,1.55,1.55,0,0,0-.07.5v3.49h-1.06Z" transform="translate(41.83 35.33)"/><path d="M208.66,45.2v1.66h1.52v.81h-1.52V50.8c0,.72.21,1.12.8,1.12a2.21,2.21,0,0,0,.61-.07l0,.79a2.39,2.39,0,0,1-.93.15,1.46,1.46,0,0,1-1.14-.45,2.13,2.13,0,0,1-.41-1.51V47.67h-.9v-.81h.9V45.47Z" transform="translate(41.83 35.33)"/><path d="M211.86,46.86l1.27,3.43c.13.39.27.84.37,1.19h0c.11-.35.23-.79.38-1.21l1.15-3.41h1.11L214.58,51c-.76,2-1.27,3-2,3.63a2.87,2.87,0,0,1-1.3.69l-.26-.89a2.65,2.65,0,0,0,.92-.52,3.09,3.09,0,0,0,.89-1.17.69.69,0,0,0,.08-.25.85.85,0,0,0-.07-.28l-2.14-5.35Z" transform="translate(41.83 35.33)"/><path d="M154.07,64.92a2.79,2.79,0,0,0,1.39.42c.76,0,1.12-.38,1.12-.86s-.3-.78-1.08-1.07c-1-.37-1.53-.95-1.53-1.64a1.79,1.79,0,0,1,2-1.71,2.91,2.91,0,0,1,1.43.36l-.26.77a2.31,2.31,0,0,0-1.19-.34c-.63,0-1,.36-1,.8s.34.69,1.1,1c1,.38,1.52.89,1.52,1.75,0,1-.79,1.74-2.17,1.74a3.33,3.33,0,0,1-1.63-.4Z" transform="translate(41.83 35.33)"/><path d="M159,62.09c0-.74,0-1.34-.05-1.89h1l0,1h0A2.29,2.29,0,0,1,162,60.06c1.4,0,2.45,1.19,2.45,2.95,0,2.09-1.27,3.12-2.63,3.12a2,2,0,0,1-1.79-.91h0v3.15h-1Zm1,1.55a2.82,2.82,0,0,0,.05.43,1.63,1.63,0,0,0,1.59,1.23c1.11,0,1.76-.91,1.76-2.24,0-1.16-.61-2.16-1.73-2.16a1.68,1.68,0,0,0-1.59,1.31,1.56,1.56,0,0,0-.08.43Z" transform="translate(41.83 35.33)"/><path d="M166.38,63.29a1.85,1.85,0,0,0,2,2A3.83,3.83,0,0,0,170,65l.17.76a4.63,4.63,0,0,1-1.93.36,2.7,2.7,0,0,1-2.85-2.93c0-1.75,1-3.13,2.72-3.13a2.46,2.46,0,0,1,2.4,2.74,2.81,2.81,0,0,1,0,.49Zm3.09-.76A1.5,1.5,0,0,0,168,60.82a1.74,1.74,0,0,0-1.62,1.71Z" transform="translate(41.83 35.33)"/><path d="M171.8,62c0-.69,0-1.28-.05-1.81h.93l0,1.13h0a1.75,1.75,0,0,1,1.61-1.27,1.36,1.36,0,0,1,.3,0v1a1.94,1.94,0,0,0-.36,0,1.48,1.48,0,0,0-1.42,1.35,3.68,3.68,0,0,0,0,.5V66h-1Z" transform="translate(41.83 35.33)"/><path d="M175.77,61.77c0-.6,0-1.1-.05-1.57h.93l0,.93h0a2,2,0,0,1,1.83-1.07,1.71,1.71,0,0,1,1.64,1.17h0a2.35,2.35,0,0,1,.65-.76,2,2,0,0,1,1.28-.41c.77,0,1.91.51,1.91,2.52V66h-1V62.71c0-1.11-.41-1.78-1.26-1.78a1.36,1.36,0,0,0-1.25,1,1.62,1.62,0,0,0-.08.52V66h-1V62.52c0-.92-.41-1.59-1.22-1.59a1.44,1.44,0,0,0-1.3,1,1.5,1.5,0,0,0-.09.52V66h-1Z" transform="translate(41.83 35.33)"/><path d="M186,60.2l1.27,3.43c.13.38.28.83.37,1.18h0c.1-.35.22-.79.37-1.21l1.15-3.4h1.12l-1.59,4.13c-.75,2-1.27,3-2,3.64a2.88,2.88,0,0,1-1.3.68l-.26-.89a2.9,2.9,0,0,0,.93-.51,3.32,3.32,0,0,0,.88-1.18.76.76,0,0,0,.09-.25,1,1,0,0,0-.08-.28l-2.14-5.34Z" transform="translate(41.83 35.33)"/><path d="M144.29,84.25v8.08h-1V84.25Z" transform="translate(41.83 35.33)"/><path d="M147.16,84.25v8.08h-1V84.25Z" transform="translate(41.83 35.33)"/><path d="M150,84.25v8.08h-1V84.25Z" transform="translate(41.83 35.33)"/><path d="M151.56,91.71a.72.72,0,0,1,.72-.76.76.76,0,1,1-.72.76Z" transform="translate(41.83 35.33)"/><path d="M156.84,83.82h1.06v3.62h0a1.93,1.93,0,0,1,.76-.74,2.16,2.16,0,0,1,1.08-.3c.77,0,2,.48,2,2.48v3.45h-1.05V89c0-.94-.35-1.73-1.35-1.73A1.51,1.51,0,0,0,158,88.33a1.26,1.26,0,0,0-.07.5v3.5h-1.06Z" transform="translate(41.83 35.33)"/><path d="M168.75,89.38a2.84,2.84,0,0,1-2.89,3.09,2.76,2.76,0,0,1-2.78-3A2.83,2.83,0,0,1,166,86.4,2.74,2.74,0,0,1,168.75,89.38Zm-4.6.06c0,1.27.73,2.23,1.76,2.23s1.76-.94,1.76-2.25c0-1-.49-2.23-1.74-2.23S164.15,88.34,164.15,89.44Z" transform="translate(41.83 35.33)"/><path d="M170.09,88.34c0-.68,0-1.27-.05-1.81H171l0,1.14h.05a1.74,1.74,0,0,1,1.6-1.27,1.32,1.32,0,0,1,.3,0v1a1.23,1.23,0,0,0-.36,0,1.48,1.48,0,0,0-1.41,1.36,3.37,3.37,0,0,0-.05.49v3.09h-1Z" transform="translate(41.83 35.33)"/><path d="M174.06,88.1c0-.6,0-1.09-.05-1.57h.93l0,.93h0a2,2,0,0,1,1.82-1.06,1.74,1.74,0,0,1,1.65,1.16h0a2.46,2.46,0,0,1,.65-.76,2,2,0,0,1,1.28-.4c.77,0,1.91.5,1.91,2.52v3.41h-1V89.05c0-1.12-.41-1.79-1.26-1.79a1.36,1.36,0,0,0-1.25,1,1.69,1.69,0,0,0-.08.53v3.58h-1V88.86c0-.93-.4-1.6-1.21-1.6a1.43,1.43,0,0,0-1.3,1.06,1.4,1.4,0,0,0-.09.51v3.5h-1Z" transform="translate(41.83 35.33)"/><path d="M189.32,89.38a2.84,2.84,0,0,1-2.89,3.09,2.76,2.76,0,0,1-2.78-3,2.83,2.83,0,0,1,2.88-3.08A2.75,2.75,0,0,1,189.32,89.38Zm-4.6.06c0,1.27.73,2.23,1.76,2.23s1.76-.94,1.76-2.25c0-1-.49-2.23-1.74-2.23S184.72,88.34,184.72,89.44Z" transform="translate(41.83 35.33)"/><path d="M190.66,88.1c0-.6,0-1.09,0-1.57h.93l.06,1h0a2.14,2.14,0,0,1,1.92-1.09c.8,0,2,.48,2,2.47v3.46h-1.06V89c0-.94-.35-1.72-1.34-1.72a1.5,1.5,0,0,0-1.42,1.08,1.75,1.75,0,0,0-.07.49v3.49h-1.05Z" transform="translate(41.83 35.33)"/><path d="M197.54,86.53,198.82,90c.13.38.27.84.37,1.19h0c.11-.35.23-.8.37-1.22l1.15-3.4h1.12l-1.58,4.14c-.76,2-1.27,3-2,3.63A2.77,2.77,0,0,1,197,95l-.26-.88a3,3,0,0,0,.92-.52,3.17,3.17,0,0,0,.89-1.17.73.73,0,0,0,.08-.26.81.81,0,0,0-.07-.27l-2.15-5.35Z" transform="translate(41.83 35.33)"/><path d="M258.88,38.43c0-.6,0-1.09-.05-1.57h.93l.06,1h0a2.13,2.13,0,0,1,1.92-1.09c.8,0,2.05.48,2.05,2.47v3.47h-1.06V39.32c0-.94-.35-1.71-1.34-1.71A1.5,1.5,0,0,0,260,38.68a1.55,1.55,0,0,0-.07.5v3.49h-1.05Z" transform="translate(41.83 35.33)"/><path d="M268.75,42.67l-.08-.74h0a2.16,2.16,0,0,1-1.78.87,1.65,1.65,0,0,1-1.77-1.67c0-1.4,1.25-2.17,3.49-2.16v-.12a1.19,1.19,0,0,0-1.32-1.34,2.93,2.93,0,0,0-1.51.43l-.24-.69a3.52,3.52,0,0,1,1.91-.52c1.77,0,2.2,1.21,2.2,2.37v2.18a8.4,8.4,0,0,0,.1,1.39Zm-.16-3c-1.15,0-2.45.18-2.45,1.31a.93.93,0,0,0,1,1,1.43,1.43,0,0,0,1.4-1,1,1,0,0,0,.06-.34Z" transform="translate(41.83 35.33)"/><path d="M271.18,41.59a2.79,2.79,0,0,0,1.39.42c.76,0,1.12-.39,1.12-.87s-.3-.78-1.08-1.06c-1-.38-1.53-.95-1.53-1.65a1.79,1.79,0,0,1,2-1.7,2.91,2.91,0,0,1,1.43.36l-.26.77a2.22,2.22,0,0,0-1.19-.34c-.62,0-1,.36-1,.79s.35.7,1.1,1c1,.38,1.52.88,1.52,1.75,0,1-.79,1.74-2.17,1.74a3.33,3.33,0,0,1-1.63-.4Z" transform="translate(41.83 35.33)"/><path d="M277.25,35.23a.63.63,0,0,1-.68.65.63.63,0,0,1-.63-.65.65.65,0,0,1,.66-.66A.63.63,0,0,1,277.25,35.23Zm-1.18,7.44V36.86h1.06v5.81Z" transform="translate(41.83 35.33)"/><path d="M279.47,40a1.85,1.85,0,0,0,2,2,3.83,3.83,0,0,0,1.61-.3l.17.76a4.8,4.8,0,0,1-1.93.36,2.7,2.7,0,0,1-2.85-2.93c0-1.75,1-3.13,2.72-3.13a2.46,2.46,0,0,1,2.4,2.73,2.85,2.85,0,0,1,0,.5Zm3.09-.76a1.5,1.5,0,0,0-1.46-1.71,1.74,1.74,0,0,0-1.62,1.71Z" transform="translate(41.83 35.33)"/><path d="M284.89,38.43c0-.6,0-1.09-.05-1.57h.94l.06,1h0a2.14,2.14,0,0,1,1.92-1.09c.8,0,2.05.48,2.05,2.47v3.47h-1.05V39.32c0-.94-.35-1.71-1.35-1.71A1.5,1.5,0,0,0,286,38.68a1.55,1.55,0,0,0-.07.5v3.49h-1.06Z" transform="translate(41.83 35.33)"/><path d="M292.73,35.23a.63.63,0,0,1-.68.65.63.63,0,0,1-.63-.65.64.64,0,0,1,.66-.66A.63.63,0,0,1,292.73,35.23Zm-1.18,7.44V36.86h1.06v5.81Z" transform="translate(41.83 35.33)"/><path d="M295,40a1.85,1.85,0,0,0,2,2,3.75,3.75,0,0,0,1.6-.3l.18.76a4.8,4.8,0,0,1-1.93.36,2.7,2.7,0,0,1-2.85-2.93c0-1.75,1-3.13,2.72-3.13a2.46,2.46,0,0,1,2.4,2.73,2.85,2.85,0,0,1,0,.5ZM298,39.2a1.5,1.5,0,0,0-1.46-1.71A1.74,1.74,0,0,0,295,39.2Z" transform="translate(41.83 35.33)"/></svg>