<?xml version="1.0" encoding="utf-8"?>
<!-- Generator: Adobe Illustrator 22.1.0, SVG Export Plug-In . SVG Version: 6.00 Build 0)  -->
<svg version="1.1"
	 id="Layer_1" inkscape:version="0.44.1" sodipodi:docbase="c:\temp" sodipodi:docname="Neuron.svg" sodipodi:version="0.32" xmlns:cc="http://web.resource.org/cc/" xmlns:dc="http://purl.org/dc/elements/1.1/" xmlns:inkscape="http://www.inkscape.org/namespaces/inkscape" xmlns:rdf="http://www.w3.org/1999/02/22-rdf-syntax-ns#" xmlns:sodipodi="http://sodipodi.sourceforge.net/DTD/sodipodi-0.dtd" xmlns:svg="http://www.w3.org/2000/svg"
	 xmlns="http://www.w3.org/2000/svg" xmlns:xlink="http://www.w3.org/1999/xlink" x="0px" y="0px" viewBox="0 0 399.8 215"
	 style="enable-background:new 0 0 399.8 215;" xml:space="preserve">
<style type="text/css">
	.st0{fill:#AFA3CF;stroke:#000000;}
	.st1{fill:#5B9974;stroke:#000000;}
	.st2{fill:#F9D566;stroke:#000000;}
	.st3{fill:#E68B60;stroke:#B76328;}
	.st4{fill:none;stroke:#020202;stroke-width:0.5;}
	.st5{fill:#020202;}
</style>
<sodipodi:namedview  bordercolor="#666666" borderopacity="1.0" gridtolerance="10.0" guidetolerance="10.0" id="base" inkscape:current-layer="Layer_1" inkscape:cx="199.91051" inkscape:cy="151.14076" inkscape:pageopacity="0.0" inkscape:pageshadow="2" inkscape:window-height="1031" inkscape:window-width="1920" inkscape:window-x="-4" inkscape:window-y="-4" inkscape:zoom="1.8327287" objecttolerance="10.0" pagecolor="#ffffff">
	</sodipodi:namedview>
<path id="path3" class="st0" d="M126.8,132.1c3.6-1.5,1-6.3,1-6.3s-26.3-5-21-24s5.3-19,5.3-19s6.3-4.7,11.7-8.3
	c5.3-3.7,3.7-5-0.7-3.7c-0.7-1.3,2.3-4.7,2.7-5.3c0.3-0.7,6-13-5.3,3.7c0,1-9.7,12-4-7.7c0,0,7.3-35.3-1-9.7c0,0-2,6.3-4,2
	c0,0,4,13.3-8.3,46c-3-2.7-5-5.3-5-5.3c-1-1.7-1.7-5.7,3-14.3s7.3-14,7.3-14s4.3-8.3-1-2.3c0,0,0.3-19-3,4.3c0,0-2.7,4-4.3,5.7
	c0,0,4.7-11-1-8.3c0,0-3-7-2.7,1c0.3,8,2,9.7,1,14.3s-2.7,2.7-3-1.3s-10,0.3,5.3,24.7c0,0,5.3,25.3-14.3,7.3c0,0-24.7-19.7,7-43
	c-4,3-5.7,6.3-5,2.3s0-3.7,0-3.7s-3.7,7-6,8.7s-11.7,4.7,9-18.7c-4,3-11.3,8.7-4-7.7c-7,11-11.3,23.7-15.3,12.7c0,0,4.3,46.3-6,16.3
	c0,0-3.7-6,5-35.7c-3,6.7-5.7,16-5-3.3c0,0-3,1-2.3,22.3c0,0-9.3,21.3-7.3-7c0,0,3-12.7,3.3-15s-1.7,0.7-2.3,2s-0.7-5-0.7-5
	s-2,3-2.3,7s-3.3-3-4.3-4.7s6.7,11,1.3,21.7c0,0-7.7-12.7-8.3-9c-0.7,3.7,16,23.7,16.3,25s10,11-2,9.3c-4-0.3-6.3-2.7-8.3-6
	s-6.3-10-6.3-10l-9.7-11l-0.7-15.3l-1.3,3.7l-2.3-2.3l2,4.7l0.3,6.3l-2.3,1c0,0,28,28.3,5.3,17.7c0,0-8.3,2.3,10.3,7
	c0,0,1.3,7.7,17.3,8.7c0,0,12,13,15,25.3c0,0,3.3,26.7-12,6c0,0,3,7.3,1,7.3s-11.7-5.7-13-5.7s-5.3,2-5.3,2s27,6.7,1.7,7
	c0,0-18,6.3-11-36c0,0-2.3,12.3-4.3,0.7c0,0-5.3,26.3,0,36.7c0,0,5,6.3-2.3,6.7c0,0,9-1.3,18-4c0,0-6.7,13.3-10,13.3
	c0,0,3,0.7-0.3,2.7c0,0,1.3,2.7,5-2s9-16,22-15.7c4.3,1.3,20.3,14.7-4,19.3c-7.3,3-35,13-32.7,14.7s16.3-8.3,14-3.3
	s-10,19.3-10,19.3s9.3-21.3,7.3-5c1,1.3,25.3-45.3,8,0c0.3,1,4.3-6,5,3.3c0,0,0.3-35.3,25.3-24.7c0.7,9-4.7,21.3-18.7,29.7
	c14.3-8.3,16.7-12,10,2c3.3-3.3,5-3,6,1.3c1.3-15,4-19.7,6.7-22c2.7,7,3.7,10,4,11.7s-1.7-23.7-2-25s13-0.7,13-0.7s10,19.3,5.7,28
	c2.3-7.3-1.7-22,16,3.7c0,0-12-13.3,7.3-8.3c-6.7-5.3-19-12.7-22.3-18.3s-4-13.3,6.3-6s16.7,10.3,17.7,9.7s-19.7-10,3.3-6
	C116.5,151.8,92.2,146.4,126.8,132.1z"/>
<path id="path5" class="st1" d="M85.1,136.6c-0.1-4.5,1.4-5.9,4.1-5.5s5.5,1.6,6.6,2.9s2.8,3.5,3,4.4s0.4,1.8,0.5,2.6
	s0.5,1.8,0.1,2.5s-0.9,2.4-1.9,2.5s-1.6,0.4-2.8-0.3s-2.9-1.8-3.6-2.4s-3.8-3.6-4.4-4.5S85.1,136.6,85.1,136.6z"/>
<path id="path7" class="st2" d="M127.5,133.3c2.3-4.5,1.6-6,1.1-7.4s17.6-2,30,5c0,0,11.8,4,1.3,11.5
	C159.9,142.5,140.4,145.3,127.5,133.3z"/>
<path id="path9" class="st2" d="M168.4,145.8c0,0-3.6-1.8-2.5-5s2.1-3.3,3.1-3.6s6.8-0.3,7.3-0.3s19.8,2,22.4,4.3s3.5,5,3.5,6.1
	s-0.3,4.8-3.8,4.8s-18.4-0.3-19-0.9S170.9,148.5,168.4,145.8z"/>
<path id="path11" class="st2" d="M214.4,155.1c-6.6-2.1-9.5-4.6-9.3-7.3s0.8-3.6,1.9-4.3s3.9-1.4,4.6-1.6s22.4-3.4,24.5-2.9
	s4.8,3,5,4.5s2.6,5-2.8,7.3s-9.4,3.8-13,4S214.4,155.1,214.4,155.1z"/>
<path id="path13" class="st2" d="M252.1,145.5c-6,0.4-7.9,1.1-7.8-3.4s-0.4-6.1,3.3-7.9s13.9-8.5,15.5-9.3s6.9-2.4,9.3,0.8
	c2.4,3.1,2.1,4.5-0.4,7.3S256.1,145.2,252.1,145.5z"/>
<path id="path15" class="st2" d="M274,122.8c-2.4-4.5-3.4-7-1.1-10.3s13.1-18.8,13.5-19.3s4.6-2.4,8.4,0.9s4.5,5.5,1,10.3
	s-11.6,17.5-14.5,19S275.8,126.1,274,122.8z"/>
<ellipse id="ellipse17" class="st3" cx="140" cy="131" rx="3.4" ry="2.1"/>
<ellipse id="ellipse19" class="st3" cx="181.9" cy="144.8" rx="3.4" ry="2.1"/>
<ellipse id="ellipse21" class="st3" cx="224.1" cy="147.8" rx="3.4" ry="2.1"/>
<ellipse id="ellipse23" transform="matrix(0.912 -0.4103 0.4103 0.912 -32.3043 117.8793)" class="st3" cx="258.5" cy="134.2" rx="3.4" ry="2.1"/>
<ellipse id="ellipse25" transform="matrix(0.5422 -0.8402 0.8402 0.5422 39.5309 287.5023)" class="st3" cx="283.6" cy="107.5" rx="3.4" ry="2.1"/>
<path id="path27" class="st0" d="M164.3,137.1c2.3,0.5,3.8,0.5,3.8,0.5l-2.1,3.3l-4.1-0.1L164.3,137.1z"/>
<path id="path29" class="st0" d="M201.8,145.2l4.1-0.3l-0.9,4.1h-3.1C201.9,149.1,202.1,145.7,201.8,145.2z"/>
<path id="path31" class="st0" d="M240.3,141.6c0,0,3.4-2.5,3.6-3.1s0.4,5,0.5,5.4s-2.3,0.9-2.3,0.9L240.3,141.6z"/>
<path id="path33" class="st0" d="M269.6,123.7l2.8-3.9l2.9,4.4l-2,1.9C273.3,126.1,271.5,124,269.6,123.7z"/>
<path id="path35" class="st0" d="M291.2,92.3c0-0.1,0.1-0.2,0.1-0.3c3.3-7.3,5.9-14.8,7.2-18.1c1.3-3.3,1.8-11.2,1.3-12
	s-2-6.5-5.8-5.3s-2.5,0-3.7,1.8s-4,2-4.2,0.3s0.5-2.2,3.3-2.7s1.3-2.5-0.7-4.3s-7.3-1.8-3.5-4.3s4-2.8,5.5-1.7s-3.2,2,1,4.5
	s7.2,4,8.5,4.2s2.5,0.3,2.5-1.2s1.7-3,2.7-3.8s1.5-4.2,1.5-4.2s-3.5-3.2-0.5-2.8s4.5,0.5,3,2.3c0.3,0.5-0.2,2,0.2,2.5
	s5.3-0.2,5.3-0.2s4.5-0.3,3,2.5c-0.3,0.8-1.5,2-3.5,0.7c-1.8,0.3-3.7-0.3-4.2-0.2s-7.2,3.2-6.5,18.2c4.5-2.5,17.7-10.3,19.3-11
	s9.7-9.8,9.8-10.7s-1.7-3.3-1.3-4s3.5-2,4.2-2.2s1.5-2,2.3,0.2s0.7,2.2,0,2.7s-1.2,0.8-1,1.8s0.3,1.7,0.8,1.5s0.8,0.8,0.8,0.8
	l-6.7,5.3c0,0,6.2-1.2,7-2s2.5-1.7,2.8-0.5s0.7,0.8,0,1.7s-1.8,1.7-4,2.3s-3.7,1.3-5,1.5s-3.8,1-3.8,1s-1.3,0.3-4,2.5
	s-4.5,3.2-6.2,4.2s-2.8,1.3-4.5,2.5s-4.5,2.5-4.5,2.5s-2.5,0.8-3.2,1.7s-1.8,2.2-2.2,2.7s-1,2.2-1,2.2l-0.7,3l-2.2,2.5l-0.5,2.3
	c0,0,4.2,0.5,5,0.5s1.5,0,2.7-0.8s1-0.3,2-1.5s2.2-2.3,2.7-3.3s1.7-2.2,2.7-3s2.3-2,3-2.2s3-0.8,3.5-1.3s1,0,1.3-0.8
	s1.3-2.5,1.5-3.3s0.2-1.2,0.8-1.2s1.2-0.3,1.5,0.5s1,0.7,0.7,1.8s-0.7,1.8-0.7,1.8l0.2,0.3c0,0,1.5,0.5,2-0.3s1.3-1.3,1.3-1.3l1-1.3
	l0.8-1.5l0.8-0.7l1.5-0.3c0,0,0.5,0,0.8,1.2s0.5,1.7,0.5,2.2s-2,2-2,2l-0.7,0.7c0,0-1.5,0.3-2,0.7s-2.2,0.8-2.2,0.8l-2.3,0.2
	l-1.7,0.8l-0.7,0.5v1c0,0,0.7,0.8,1.2,1s3.5,0,3.5,0l0.7-0.2l-1,1.3l-3.3,0.7c0,0-0.8,0.2-1.7,0.3s-3,0.5-3,0.5s-1.8,0.8-2.5,1.3
	s-2,0.2-0.8,1s0.3,1.3,4,1s1.3-0.7,4.7,0.3s4,0.7,6,1.7s-1.3,0.3,4.3,2.2s5.5,1.7,9.3,3s3.3-0.5,4.5,2s6.7,2.8,1.2,2.5
	s-4.5-0.3-7.3-1.3s-2.5-1.2-6.7-2.7s-6.7-3.7-2.2,1.5s5.5,5.7,6.2,10.2s1,14.2,5,14.5s7.5,1.3,5.2,3.3s-6.2,0.7-7.3-1.2
	s-3.7-3.5-4.2-6s0.3-4.5-0.5-4.8s-0.8-0.3-1.7,0.3s-0.3-0.8-1.5,1.8s-1.5,3.2-2.2,3.5s-4.2,0.8-4.2-0.8s0.5-2.2,1.3-2.3
	s-0.7,1.3,2-1s3.8-4.2,4.2-5.2s2.2-5.5-5.7-11.2s-13.7-9.2-20.8-5.8c2,3,5.7,5.3,5.5,11.3c0,0.7,2.8,3-0.3,4c-0.5,0.2-3.5,0.3-1.8-4
	c0-2.2,0.5-3.5-3.8-7.3c0.2,3.7-0.2,7.3,0.2,8.7s3.2,4.5-0.7,5.8c-2.2-0.5-3.8-1.8-1.3-6c0-3.8-4-20.3-14.2-5
	C292.3,93.1,291.2,92.3,291.2,92.3z"/>
<path id="path37" class="st0" d="M367.3,131.8"/>
<g>
	<g>
		<line class="st4" x1="101.6" y1="148" x2="154.5" y2="189.4"/>
		<g>
			<path class="st5" d="M99.3,146.1c0.8,1.3,1.6,3.1,1.9,4.5l0.8-2.4l2.1-1.3C102.6,147,100.7,146.6,99.3,146.1z"/>
		</g>
	</g>
</g>
<g>
	<g>
		<line class="st4" x1="181.8" y1="127.4" x2="219" y2="129.5"/>
		<g>
			<path class="st5" d="M222,129.6c-1.4,0.4-3.3,1.2-4.4,2.1l1-2.3l-0.7-2.4C218.9,128,220.6,129,222,129.6z"/>
		</g>
	</g>
</g>
</svg>
